<?xml version="1.0" encoding="utf-8" standalone="no"?>
<!DOCTYPE svg PUBLIC "-//W3C//DTD SVG 1.1//EN"
  "http://www.w3.org/Graphics/SVG/1.1/DTD/svg11.dtd">
<svg xmlns:xlink="http://www.w3.org/1999/xlink" width="628.745354pt" height="151.901686pt" viewBox="0 0 628.745354 151.901686" xmlns="http://www.w3.org/2000/svg" version="1.1">
 <metadata>
  <rdf:RDF xmlns:dc="http://purl.org/dc/elements/1.1/" xmlns:cc="http://creativecommons.org/ns#" xmlns:rdf="http://www.w3.org/1999/02/22-rdf-syntax-ns#">
   <cc:Work>
    <dc:type rdf:resource="http://purl.org/dc/dcmitype/StillImage"/>
    <dc:date>2025-03-31T23:04:06.682885</dc:date>
    <dc:format>image/svg+xml</dc:format>
    <dc:creator>
     <cc:Agent>
      <dc:title>Matplotlib v3.9.2, https://matplotlib.org/</dc:title>
     </cc:Agent>
    </dc:creator>
   </cc:Work>
  </rdf:RDF>
 </metadata>
 <defs>
  <style type="text/css">*{stroke-linejoin: round; stroke-linecap: butt}</style>
 </defs>
 <g id="figure_1">
  <g id="patch_1">
   <path d="M 0 151.901686 
L 628.745354 151.901686 
L 628.745354 0 
L 0 0 
z
" style="fill: #ffffff"/>
  </g>
  <g id="axes_1">
   <g id="patch_2">
    <path d="M 36.380133 126.014077 
L 621.545354 126.014077 
L 621.545354 58.33959 
L 36.380133 58.33959 
z
" style="fill: #ffffff"/>
   </g>
   <g id="patch_3">
    <path d="M 57.89356 126.014077 
L 70.801616 126.014077 
L 70.801616 102.789436 
L 57.89356 102.789436 
z
" clip-path="url(#p884aad346c)" style="fill: #1f77b4"/>
   </g>
   <g id="patch_4">
    <path d="M 143.947269 126.014077 
L 156.855325 126.014077 
L 156.855325 67.624443 
L 143.947269 67.624443 
z
" clip-path="url(#p884aad346c)" style="fill: #1f77b4"/>
   </g>
   <g id="patch_5">
    <path d="M 230.000978 126.014077 
L 242.909034 126.014077 
L 242.909034 60.719376 
L 230.000978 60.719376 
z
" clip-path="url(#p884aad346c)" style="fill: #1f77b4"/>
   </g>
   <g id="patch_6">
    <path d="M 316.054687 126.014077 
L 328.962744 126.014077 
L 328.962744 60.178124 
L 316.054687 60.178124 
z
" clip-path="url(#p884aad346c)" style="fill: #1f77b4"/>
   </g>
   <g id="patch_7">
    <path d="M 402.108396 126.014077 
L 415.016453 126.014077 
L 415.016453 60.243731 
L 402.108396 60.243731 
z
" clip-path="url(#p884aad346c)" style="fill: #1f77b4"/>
   </g>
   <g id="patch_8">
    <path d="M 488.162105 126.014077 
L 501.070162 126.014077 
L 501.070162 59.210431 
L 488.162105 59.210431 
z
" clip-path="url(#p884aad346c)" style="fill: #1f77b4"/>
   </g>
   <g id="patch_9">
    <path d="M 574.215814 126.014077 
L 587.123871 126.014077 
L 587.123871 58.734785 
L 574.215814 58.734785 
z
" clip-path="url(#p884aad346c)" style="fill: #1f77b4"/>
   </g>
   <g id="patch_10">
    <path d="M 70.801616 126.014077 
L 83.709673 126.014077 
L 83.709673 103.166672 
L 70.801616 103.166672 
z
" clip-path="url(#p884aad346c)" style="fill: #ff7f0e"/>
   </g>
   <g id="patch_11">
    <path d="M 156.855325 126.014077 
L 169.763382 126.014077 
L 169.763382 67.329214 
L 156.855325 67.329214 
z
" clip-path="url(#p884aad346c)" style="fill: #ff7f0e"/>
   </g>
   <g id="patch_12">
    <path d="M 242.909034 126.014077 
L 255.817091 126.014077 
L 255.817091 60.702975 
L 242.909034 60.702975 
z
" clip-path="url(#p884aad346c)" style="fill: #ff7f0e"/>
   </g>
   <g id="patch_13">
    <path d="M 328.962744 126.014077 
L 341.8708 126.014077 
L 341.8708 61.06381 
L 328.962744 61.06381 
z
" clip-path="url(#p884aad346c)" style="fill: #ff7f0e"/>
   </g>
   <g id="patch_14">
    <path d="M 415.016453 126.014077 
L 427.924509 126.014077 
L 427.924509 61.736275 
L 415.016453 61.736275 
z
" clip-path="url(#p884aad346c)" style="fill: #ff7f0e"/>
   </g>
   <g id="patch_15">
    <path d="M 501.070162 126.014077 
L 513.978218 126.014077 
L 513.978218 59.751683 
L 501.070162 59.751683 
z
" clip-path="url(#p884aad346c)" style="fill: #ff7f0e"/>
   </g>
   <g id="patch_16">
    <path d="M 587.123871 126.014077 
L 600.031927 126.014077 
L 600.031927 59.194029 
L 587.123871 59.194029 
z
" clip-path="url(#p884aad346c)" style="fill: #ff7f0e"/>
   </g>
   <g id="matplotlib.axis_1">
    <g id="xtick_1">
     <g id="line2d_1">
      <path d="M 70.801616 126.014077 
L 70.801616 58.33959 
" clip-path="url(#p884aad346c)" style="fill: none; stroke-dasharray: 0.925,0.4; stroke-dashoffset: 0; stroke: #b0b0b0; stroke-opacity: 0.7; stroke-width: 0.25"/>
     </g>
     <g id="line2d_2">
      <defs>
       <path id="mb0e04ffeab" d="M 0 0 
L 0 3.5 
" style="stroke: #000000; stroke-width: 0.2"/>
      </defs>
      <g>
       <use xlink:href="#mb0e04ffeab" x="70.801616" y="126.014077" style="stroke: #000000; stroke-width: 0.2"/>
      </g>
     </g>
     <g id="text_1">
      <!-- Simple Pattern -->
      <g transform="translate(50.99545 136.665167) scale(0.06 -0.06)">
       <defs>
        <path id="CMSS17-53" d="M 2797 4169 
C 2515 4334 2208 4480 1690 4480 
C 864 4480 333 3879 333 3266 
C 333 3025 403 2753 653 2475 
C 902 2196 1184 2121 1542 2033 
C 1690 1994 1939 1924 1984 1906 
C 2342 1767 2515 1444 2515 1140 
C 2515 742 2202 318 1645 318 
C 1453 318 890 318 358 819 
L 269 318 
C 794 -64 1363 -128 1651 -128 
C 2438 -128 3002 488 3002 1186 
C 3002 1440 2925 1763 2656 2061 
C 2394 2347 2163 2410 1638 2549 
C 1338 2626 1146 2677 986 2873 
C 877 3013 819 3146 819 3317 
C 819 3673 1126 4060 1690 4060 
C 1971 4060 2336 4002 2707 3660 
L 2797 4169 
z
" transform="scale(0.015625)"/>
        <path id="CMSS17-69" d="M 979 4183 
L 442 4183 
L 442 3648 
L 979 3648 
L 979 4183 
z
M 947 2739 
L 474 2739 
L 474 0 
L 947 0 
L 947 2739 
z
" transform="scale(0.015625)"/>
        <path id="CMSS17-6d" d="M 4288 1877 
C 4288 2308 4179 2816 3462 2816 
C 2982 2816 2694 2516 2566 2331 
C 2451 2670 2182 2816 1798 2816 
C 1363 2816 1088 2568 941 2389 
L 941 2758 
L 474 2758 
L 474 0 
L 960 0 
L 960 1559 
C 960 1939 1101 2428 1555 2428 
C 2138 2428 2138 2016 2138 1829 
L 2138 0 
L 2624 0 
L 2624 1559 
C 2624 1939 2765 2428 3219 2428 
C 3802 2428 3802 2016 3802 1829 
L 3802 0 
L 4288 0 
L 4288 1877 
z
" transform="scale(0.015625)"/>
        <path id="CMSS17-70" d="M 966 333 
C 1178 129 1466 -5 1773 -5 
C 2368 -5 2880 603 2880 1412 
C 2880 2159 2496 2816 1946 2816 
C 1626 2816 1242 2702 954 2472 
L 954 2765 
L 480 2765 
L 480 -1216 
L 966 -1216 
L 966 333 
z
M 966 2100 
C 1018 2176 1235 2415 1587 2415 
C 2035 2415 2394 1960 2394 1412 
C 2394 787 1958 384 1530 384 
C 1402 384 1267 415 1139 523 
C 966 674 966 768 966 857 
L 966 2100 
z
" transform="scale(0.015625)"/>
        <path id="CMSS17-6c" d="M 947 4416 
L 474 4416 
L 474 0 
L 947 0 
L 947 4416 
z
" transform="scale(0.015625)"/>
        <path id="CMSS17-65" d="M 2502 1377 
C 2502 1590 2490 2003 2285 2345 
C 2061 2713 1696 2816 1421 2816 
C 755 2816 192 2188 192 1375 
C 192 582 774 -64 1510 -64 
C 1798 -64 2150 19 2470 248 
C 2470 274 2458 414 2451 420 
C 2451 433 2432 630 2432 656 
C 2125 407 1773 325 1517 325 
C 1107 325 666 667 646 1377 
L 2502 1377 
z
M 698 1728 
C 781 2084 1062 2421 1421 2421 
C 1517 2421 1965 2421 2080 1728 
L 698 1728 
z
" transform="scale(0.015625)"/>
        <path id="CMSS17-50" d="M 2106 1856 
C 2874 1856 3501 2453 3501 3158 
C 3501 3850 2899 4453 2067 4453 
L 570 4453 
L 570 0 
L 1107 0 
L 1107 1856 
L 2106 1856 
z
M 1926 4096 
C 2669 4096 2995 3627 2995 3157 
C 2995 2720 2694 2226 1926 2226 
L 1094 2226 
L 1094 4096 
L 1926 4096 
z
" transform="scale(0.015625)"/>
        <path id="CMSS17-61" d="M 2406 1791 
C 2406 2392 1978 2808 1402 2808 
C 1120 2808 813 2757 461 2553 
L 499 2135 
C 659 2248 934 2432 1395 2432 
C 1722 2432 1920 2180 1920 1782 
L 1920 1536 
C 896 1536 256 1238 256 726 
C 256 461 416 -64 947 -64 
C 1043 -64 1562 -64 1933 217 
L 1933 -19 
L 2406 -19 
L 2406 1791 
z
M 1920 816 
C 1920 701 1920 548 1728 434 
C 1562 325 1350 325 1261 325 
C 941 325 723 511 723 744 
C 723 1211 1722 1211 1920 1211 
L 1920 816 
z
" transform="scale(0.015625)"/>
        <path id="CMSS17-74" d="M 1069 2368 
L 1901 2368 
L 1901 2737 
L 1069 2737 
L 1069 3520 
L 614 3520 
L 614 2737 
L 109 2737 
L 109 2368 
L 602 2368 
L 602 749 
C 602 384 685 -64 1107 -64 
C 1427 -64 1722 25 2003 172 
L 1901 548 
C 1747 414 1562 337 1363 337 
C 1082 337 1069 696 1069 856 
L 1069 2368 
z
" transform="scale(0.015625)"/>
        <path id="CMSS17-72" d="M 954 1363 
C 954 1965 1395 2368 1958 2368 
L 1958 2789 
C 1549 2789 1165 2585 934 2253 
L 934 2758 
L 480 2758 
L 480 0 
L 954 0 
L 954 1363 
z
" transform="scale(0.015625)"/>
        <path id="CMSS17-6e" d="M 2618 1877 
C 2618 2283 2522 2816 1798 2816 
C 1389 2816 1120 2606 941 2389 
L 941 2758 
L 474 2758 
L 474 0 
L 960 0 
L 960 1559 
C 960 1964 1114 2428 1549 2428 
C 2112 2428 2131 2048 2131 1829 
L 2131 0 
L 2618 0 
L 2618 1877 
z
" transform="scale(0.015625)"/>
       </defs>
       <use xlink:href="#CMSS17-53" transform="scale(0.996264)"/>
       <use xlink:href="#CMSS17-69" transform="translate(52.048516 0) scale(0.996264)"/>
       <use xlink:href="#CMSS17-6d" transform="translate(74.229239 0) scale(0.996264)"/>
       <use xlink:href="#CMSS17-70" transform="translate(148.458494 0) scale(0.996264)"/>
       <use xlink:href="#CMSS17-6c" transform="translate(196.663437 0) scale(0.996264)"/>
       <use xlink:href="#CMSS17-65" transform="translate(218.84416 0) scale(0.996264)"/>
       <use xlink:href="#CMSS17-50" transform="translate(291.712095 0) scale(0.996264)"/>
       <use xlink:href="#CMSS17-61" transform="translate(348.845227 0) scale(0.996264)"/>
       <use xlink:href="#CMSS17-74" transform="translate(393.767148 0) scale(0.996264)"/>
       <use xlink:href="#CMSS17-74" transform="translate(427.598714 0) scale(0.996264)"/>
       <use xlink:href="#CMSS17-65" transform="translate(461.430281 0) scale(0.996264)"/>
       <use xlink:href="#CMSS17-72" transform="translate(503.069103 0) scale(0.996264)"/>
       <use xlink:href="#CMSS17-6e" transform="translate(534.978876 0) scale(0.996264)"/>
      </g>
      <!-- (incl. hidden \&amp; .gitignore) -->
      <g transform="translate(35.8645 143.20729) scale(0.06 -0.06)">
       <defs>
        <path id="CMSS17-28" d="M 1613 4768 
C 1267 4417 474 3601 474 1588 
C 474 -433 1267 -1243 1613 -1600 
L 2003 -1600 
C 1216 -784 960 357 960 1581 
C 960 2798 1203 3946 2003 4768 
L 1613 4768 
z
" transform="scale(0.015625)"/>
        <path id="CMSS17-63" d="M 2464 2541 
C 2464 2585 2170 2714 2093 2739 
C 1882 2816 1613 2816 1542 2816 
C 710 2816 211 2093 211 1363 
C 211 595 768 -64 1517 -64 
C 1946 -64 2253 76 2502 242 
L 2464 664 
C 2189 453 1869 337 1523 337 
C 1024 337 698 774 698 1369 
C 698 1831 909 2414 1549 2414 
C 1901 2414 2099 2343 2394 2145 
L 2464 2541 
z
" transform="scale(0.015625)"/>
        <path id="CMSS17-2e" d="M 1088 510 
L 576 510 
L 576 0 
L 1088 0 
L 1088 510 
z
" transform="scale(0.015625)"/>
        <path id="CMSS17-68" d="M 2618 1891 
C 2618 2292 2522 2820 1798 2820 
C 1395 2820 1133 2623 947 2407 
L 947 4448 
L 474 4448 
L 474 32 
L 960 32 
L 960 1573 
C 960 1973 1114 2432 1549 2432 
C 2112 2432 2131 2056 2131 1839 
L 2131 32 
L 2618 32 
L 2618 1891 
z
" transform="scale(0.015625)"/>
        <path id="CMSS17-64" d="M 2611 4416 
L 2138 4416 
L 2138 2438 
C 1939 2603 1613 2756 1254 2756 
C 672 2756 211 2131 211 1347 
C 211 562 666 -64 1235 -64 
C 1677 -64 1971 172 2125 306 
L 2125 -13 
L 2611 -13 
L 2611 4416 
z
M 2125 836 
C 2125 747 2125 653 1926 482 
C 1798 375 1645 325 1498 325 
C 1152 325 698 576 698 1340 
C 698 2134 1210 2368 1562 2368 
C 1798 2368 1990 2254 2125 2065 
L 2125 836 
z
" transform="scale(0.015625)"/>
        <path id="CMSS17-26" d="M 3610 2483 
C 3290 1341 2720 865 2630 788 
C 2509 922 2035 1473 1696 2147 
C 1702 2153 2048 2464 2240 2699 
C 2451 2947 2637 3214 2637 3512 
C 2637 3988 2317 4484 1818 4484 
C 1267 4484 960 3894 960 3245 
C 960 2864 1037 2533 1158 2178 
C 1069 2101 749 1809 608 1670 
C 512 1581 250 1340 250 907 
C 250 367 698 -128 1357 -128 
C 1798 -128 2227 19 2554 229 
C 2918 -58 3245 -128 3520 -128 
C 3610 -128 3878 -128 4218 -32 
L 4218 388 
C 3898 286 3629 286 3533 286 
C 3398 286 3219 299 2925 508 
C 2963 540 3686 1156 4006 2369 
L 3610 2483 
z
M 1542 2535 
C 1421 2885 1382 3242 1382 3458 
C 1382 3943 1632 4096 1811 4096 
C 2144 4096 2170 3611 2170 3516 
C 2170 3146 1811 2796 1542 2535 
z
M 1325 1808 
C 1472 1508 1811 992 2240 515 
C 1971 372 1670 286 1363 286 
C 922 286 736 667 736 948 
C 736 1253 896 1413 960 1470 
C 1075 1591 1197 1699 1325 1808 
z
" transform="scale(0.015625)"/>
        <path id="CMSS17-67" d="M 2848 2808 
C 2483 2808 2170 2738 1914 2617 
C 1702 2777 1485 2808 1338 2808 
C 781 2808 358 2349 358 1814 
C 358 1468 550 1207 563 1195 
C 448 1035 384 863 384 672 
C 384 448 474 289 544 200 
C 211 -3 166 -314 166 -435 
C 166 -898 749 -1280 1498 -1280 
C 2253 -1280 2835 -898 2835 -428 
C 2835 448 1856 448 1587 448 
L 1069 448 
C 973 448 717 448 717 791 
C 717 921 774 1004 781 1010 
C 877 940 1075 832 1338 832 
C 1869 832 2310 1278 2310 1827 
C 2310 2132 2170 2355 2112 2432 
L 2131 2432 
C 2150 2432 2419 2432 2515 2432 
C 2720 2432 2739 2429 2918 2419 
L 2848 2808 
z
M 1338 1182 
C 1120 1182 813 1315 813 1823 
C 813 2375 1165 2464 1331 2464 
C 1549 2464 1856 2331 1856 1823 
C 1856 1271 1504 1182 1338 1182 
z
M 1581 -10 
C 1734 -10 2381 -10 2381 -442 
C 2381 -714 1984 -929 1504 -929 
C 1018 -929 621 -720 621 -435 
C 621 -403 621 -10 1062 -10 
L 1581 -10 
z
" transform="scale(0.015625)"/>
        <path id="CMSS17-6f" d="M 2829 1356 
C 2829 2176 2221 2816 1504 2816 
C 768 2816 173 2157 173 1356 
C 173 544 787 -64 1498 -64 
C 2227 -64 2829 563 2829 1356 
z
M 1504 337 
C 1050 337 659 709 659 1408 
C 659 2151 1114 2427 1498 2427 
C 1914 2427 2342 2126 2342 1408 
C 2342 683 1926 337 1504 337 
z
" transform="scale(0.015625)"/>
        <path id="CMSS17-29" d="M 723 -1600 
C 1069 -1249 1862 -433 1862 1581 
C 1862 3601 1069 4411 723 4768 
L 333 4768 
C 1120 3952 1376 2811 1376 1588 
C 1376 370 1133 -778 333 -1600 
L 723 -1600 
z
" transform="scale(0.015625)"/>
       </defs>
       <use xlink:href="#CMSS17-28" transform="scale(0.996264)"/>
       <use xlink:href="#CMSS17-69" transform="translate(36.433914 0) scale(0.996264)"/>
       <use xlink:href="#CMSS17-6e" transform="translate(58.614637 0) scale(0.996264)"/>
       <use xlink:href="#CMSS17-63" transform="translate(106.81958 0) scale(0.996264)"/>
       <use xlink:href="#CMSS17-6c" transform="translate(148.458402 0) scale(0.996264)"/>
       <use xlink:href="#CMSS17-2e" transform="translate(170.639125 0) scale(0.996264)"/>
       <use xlink:href="#CMSS17-68" transform="translate(238.302137 0) scale(0.996264)"/>
       <use xlink:href="#CMSS17-69" transform="translate(286.50708 0) scale(0.996264)"/>
       <use xlink:href="#CMSS17-64" transform="translate(308.687803 0) scale(0.996264)"/>
       <use xlink:href="#CMSS17-64" transform="translate(356.892747 0) scale(0.996264)"/>
       <use xlink:href="#CMSS17-65" transform="translate(405.09769 0) scale(0.996264)"/>
       <use xlink:href="#CMSS17-6e" transform="translate(446.736512 0) scale(0.996264)"/>
       <use xlink:href="#CMSS17-26" transform="translate(526.170568 0) scale(0.996264)"/>
       <use xlink:href="#CMSS17-2e" transform="translate(628.345821 0) scale(0.996264)"/>
       <use xlink:href="#CMSS17-67" transform="translate(654.370026 0) scale(0.996264)"/>
       <use xlink:href="#CMSS17-69" transform="translate(701.213649 0) scale(0.996264)"/>
       <use xlink:href="#CMSS17-74" transform="translate(723.394373 0) scale(0.996264)"/>
       <use xlink:href="#CMSS17-69" transform="translate(757.225939 0) scale(0.996264)"/>
       <use xlink:href="#CMSS17-67" transform="translate(779.406662 0) scale(0.996264)"/>
       <use xlink:href="#CMSS17-6e" transform="translate(826.250286 0) scale(0.996264)"/>
       <use xlink:href="#CMSS17-6f" transform="translate(874.455229 0) scale(0.996264)"/>
       <use xlink:href="#CMSS17-72" transform="translate(918.696399 0) scale(0.996264)"/>
       <use xlink:href="#CMSS17-65" transform="translate(950.606171 0) scale(0.996264)"/>
       <use xlink:href="#CMSS17-29" transform="translate(992.244993 0) scale(0.996264)"/>
      </g>
     </g>
    </g>
    <g id="xtick_2">
     <g id="line2d_3">
      <path d="M 156.855325 126.014077 
L 156.855325 58.33959 
" clip-path="url(#p884aad346c)" style="fill: none; stroke-dasharray: 0.925,0.4; stroke-dashoffset: 0; stroke: #b0b0b0; stroke-opacity: 0.7; stroke-width: 0.25"/>
     </g>
     <g id="line2d_4">
      <g>
       <use xlink:href="#mb0e04ffeab" x="156.855325" y="126.014077" style="stroke: #000000; stroke-width: 0.2"/>
      </g>
     </g>
     <g id="text_2">
      <!-- Simple Pattern -->
      <g transform="translate(137.049159 136.665167) scale(0.06 -0.06)">
       <use xlink:href="#CMSS17-53" transform="scale(0.996264)"/>
       <use xlink:href="#CMSS17-69" transform="translate(52.048516 0) scale(0.996264)"/>
       <use xlink:href="#CMSS17-6d" transform="translate(74.229239 0) scale(0.996264)"/>
       <use xlink:href="#CMSS17-70" transform="translate(148.458494 0) scale(0.996264)"/>
       <use xlink:href="#CMSS17-6c" transform="translate(196.663437 0) scale(0.996264)"/>
       <use xlink:href="#CMSS17-65" transform="translate(218.84416 0) scale(0.996264)"/>
       <use xlink:href="#CMSS17-50" transform="translate(291.712095 0) scale(0.996264)"/>
       <use xlink:href="#CMSS17-61" transform="translate(348.845227 0) scale(0.996264)"/>
       <use xlink:href="#CMSS17-74" transform="translate(393.767148 0) scale(0.996264)"/>
       <use xlink:href="#CMSS17-74" transform="translate(427.598714 0) scale(0.996264)"/>
       <use xlink:href="#CMSS17-65" transform="translate(461.430281 0) scale(0.996264)"/>
       <use xlink:href="#CMSS17-72" transform="translate(503.069103 0) scale(0.996264)"/>
       <use xlink:href="#CMSS17-6e" transform="translate(534.978876 0) scale(0.996264)"/>
      </g>
     </g>
    </g>
    <g id="xtick_3">
     <g id="line2d_5">
      <path d="M 242.909034 126.014077 
L 242.909034 58.33959 
" clip-path="url(#p884aad346c)" style="fill: none; stroke-dasharray: 0.925,0.4; stroke-dashoffset: 0; stroke: #b0b0b0; stroke-opacity: 0.7; stroke-width: 0.25"/>
     </g>
     <g id="line2d_6">
      <g>
       <use xlink:href="#mb0e04ffeab" x="242.909034" y="126.014077" style="stroke: #000000; stroke-width: 0.2"/>
      </g>
     </g>
     <g id="text_3">
      <!-- No Pattern -->
      <g transform="translate(228.125757 136.665167) scale(0.06 -0.06)">
       <defs>
        <path id="CMSS17-4e" d="M 1466 4180 
L 1350 4416 
L 563 4416 
L 563 0 
L 1062 0 
L 1062 3926 
L 1069 3932 
C 1114 3817 1139 3760 1402 3194 
L 2771 236 
L 2886 0 
L 3674 0 
L 3674 4416 
L 3174 4416 
L 3174 490 
L 3168 483 
C 3123 598 3098 655 2835 1221 
L 1466 4180 
z
" transform="scale(0.015625)"/>
       </defs>
       <use xlink:href="#CMSS17-4e" transform="scale(0.996264)"/>
       <use xlink:href="#CMSS17-6f" transform="translate(66.061519 0) scale(0.996264)"/>
       <use xlink:href="#CMSS17-50" transform="translate(144.134255 0) scale(0.996264)"/>
       <use xlink:href="#CMSS17-61" transform="translate(201.267388 0) scale(0.996264)"/>
       <use xlink:href="#CMSS17-74" transform="translate(246.189308 0) scale(0.996264)"/>
       <use xlink:href="#CMSS17-74" transform="translate(280.020875 0) scale(0.996264)"/>
       <use xlink:href="#CMSS17-65" transform="translate(313.852442 0) scale(0.996264)"/>
       <use xlink:href="#CMSS17-72" transform="translate(355.491264 0) scale(0.996264)"/>
       <use xlink:href="#CMSS17-6e" transform="translate(387.401036 0) scale(0.996264)"/>
      </g>
     </g>
    </g>
    <g id="xtick_4">
     <g id="line2d_7">
      <path d="M 328.962744 126.014077 
L 328.962744 58.33959 
" clip-path="url(#p884aad346c)" style="fill: none; stroke-dasharray: 0.925,0.4; stroke-dashoffset: 0; stroke: #b0b0b0; stroke-opacity: 0.7; stroke-width: 0.25"/>
     </g>
     <g id="line2d_8">
      <g>
       <use xlink:href="#mb0e04ffeab" x="328.962744" y="126.014077" style="stroke: #000000; stroke-width: 0.2"/>
      </g>
     </g>
     <g id="text_4">
      <!-- File Type -->
      <g transform="translate(316.654582 136.665167) scale(0.06 -0.06)">
       <defs>
        <path id="CMSS17-46" d="M 2918 1984 
L 2918 2373 
L 1101 2373 
L 1101 3968 
L 1882 3968 
C 1958 3968 2035 3968 2112 3968 
L 3168 3968 
L 3168 4375 
L 563 4375 
L 563 -32 
L 1101 -32 
L 1101 1984 
L 2918 1984 
z
" transform="scale(0.015625)"/>
        <path id="CMSS17-54" d="M 2317 3968 
L 2848 3968 
C 2925 3968 3002 3968 3078 3968 
L 3878 3968 
L 3878 4376 
L 218 4376 
L 218 3968 
L 1018 3968 
C 1094 3968 1171 3968 1248 3968 
L 1779 3968 
L 1779 -32 
L 2317 -32 
L 2317 3968 
z
" transform="scale(0.015625)"/>
        <path id="CMSS17-79" d="M 2675 2752 
L 2176 2752 
C 1632 1294 1446 702 1434 383 
L 1427 383 
C 1408 696 1126 1460 902 2007 
L 602 2752 
L 83 2752 
L 1216 13 
C 1146 -178 1043 -465 1011 -529 
C 870 -885 774 -885 672 -885 
C 646 -885 442 -885 211 -809 
L 250 -1229 
C 410 -1261 570 -1280 685 -1280 
C 845 -1280 1165 -1280 1459 -497 
L 2675 2752 
z
" transform="scale(0.015625)"/>
       </defs>
       <use xlink:href="#CMSS17-46" transform="scale(0.996264)"/>
       <use xlink:href="#CMSS17-69" transform="translate(53.289559 0) scale(0.996264)"/>
       <use xlink:href="#CMSS17-6c" transform="translate(75.470282 0) scale(0.996264)"/>
       <use xlink:href="#CMSS17-65" transform="translate(97.651005 0) scale(0.996264)"/>
       <use xlink:href="#CMSS17-54" transform="translate(170.51894 0) scale(0.996264)"/>
       <use xlink:href="#CMSS17-79" transform="translate(226.531139 0) scale(0.996264)"/>
       <use xlink:href="#CMSS17-70" transform="translate(269.53128 0) scale(0.996264)"/>
       <use xlink:href="#CMSS17-65" transform="translate(320.338662 0) scale(0.996264)"/>
      </g>
     </g>
    </g>
    <g id="xtick_5">
     <g id="line2d_9">
      <path d="M 415.016453 126.014077 
L 415.016453 58.33959 
" clip-path="url(#p884aad346c)" style="fill: none; stroke-dasharray: 0.925,0.4; stroke-dashoffset: 0; stroke: #b0b0b0; stroke-opacity: 0.7; stroke-width: 0.25"/>
     </g>
     <g id="line2d_10">
      <g>
       <use xlink:href="#mb0e04ffeab" x="415.016453" y="126.014077" style="stroke: #000000; stroke-width: 0.2"/>
      </g>
     </g>
     <g id="text_5">
      <!-- File Extension -->
      <g transform="translate(396.447323 136.665167) scale(0.06 -0.06)">
       <defs>
        <path id="CMSS17-45" d="M 1958 433 
C 1446 433 1216 433 1101 433 
L 1101 2107 
L 3085 2107 
L 3085 2496 
L 1101 2496 
L 1101 4009 
L 1926 4009 
C 2003 4009 2080 4009 2157 4009 
L 3251 4009 
L 3251 4416 
L 563 4416 
L 563 0 
L 3334 0 
L 3334 433 
L 1958 433 
z
" transform="scale(0.015625)"/>
        <path id="CMSS17-78" d="M 1587 1414 
L 2656 2739 
L 2099 2739 
L 1363 1777 
L 602 2739 
L 32 2739 
L 1139 1414 
L 0 0 
L 563 0 
L 1363 1121 
L 2195 0 
L 2758 0 
L 1587 1414 
z
" transform="scale(0.015625)"/>
        <path id="CMSS17-73" d="M 2061 2627 
C 1683 2807 1389 2807 1197 2807 
C 742 2807 198 2648 198 2003 
C 198 1359 902 1218 1094 1179 
C 1389 1122 1715 1058 1715 740 
C 1715 337 1254 337 1171 337 
C 915 337 563 407 243 638 
L 166 210 
C 531 0 883 -64 1178 -64 
C 1965 -64 2163 416 2163 781 
C 2163 1094 1984 1305 1862 1401 
C 1651 1568 1574 1587 1050 1696 
C 960 1709 646 1779 646 2066 
C 646 2432 1050 2432 1139 2432 
C 1555 2432 1811 2303 1984 2208 
L 2061 2627 
z
" transform="scale(0.015625)"/>
       </defs>
       <use xlink:href="#CMSS17-46" transform="scale(0.996264)"/>
       <use xlink:href="#CMSS17-69" transform="translate(53.289559 0) scale(0.996264)"/>
       <use xlink:href="#CMSS17-6c" transform="translate(75.470282 0) scale(0.996264)"/>
       <use xlink:href="#CMSS17-65" transform="translate(97.651005 0) scale(0.996264)"/>
       <use xlink:href="#CMSS17-45" transform="translate(170.51894 0) scale(0.996264)"/>
       <use xlink:href="#CMSS17-78" transform="translate(226.410953 0) scale(0.996264)"/>
       <use xlink:href="#CMSS17-74" transform="translate(269.411095 0) scale(0.996264)"/>
       <use xlink:href="#CMSS17-65" transform="translate(303.242662 0) scale(0.996264)"/>
       <use xlink:href="#CMSS17-6e" transform="translate(344.881484 0) scale(0.996264)"/>
       <use xlink:href="#CMSS17-73" transform="translate(393.086427 0) scale(0.996264)"/>
       <use xlink:href="#CMSS17-69" transform="translate(428.999969 0) scale(0.996264)"/>
       <use xlink:href="#CMSS17-6f" transform="translate(451.180692 0) scale(0.996264)"/>
       <use xlink:href="#CMSS17-6e" transform="translate(498.024316 0) scale(0.996264)"/>
      </g>
     </g>
    </g>
    <g id="xtick_6">
     <g id="line2d_11">
      <path d="M 501.070162 126.014077 
L 501.070162 58.33959 
" clip-path="url(#p884aad346c)" style="fill: none; stroke-dasharray: 0.925,0.4; stroke-dashoffset: 0; stroke: #b0b0b0; stroke-opacity: 0.7; stroke-width: 0.25"/>
     </g>
     <g id="line2d_12">
      <g>
       <use xlink:href="#mb0e04ffeab" x="501.070162" y="126.014077" style="stroke: #000000; stroke-width: 0.2"/>
      </g>
     </g>
     <g id="text_6">
      <!-- Command Exec. -->
      <g transform="translate(479.473795 136.665167) scale(0.06 -0.06)">
       <defs>
        <path id="CMSS17-43" d="M 3501 714 
C 3072 427 2874 344 2355 344 
C 1459 344 934 1303 934 2179 
C 934 3112 1472 4032 2381 4032 
C 2790 4032 3059 3918 3386 3715 
L 3475 4217 
C 3168 4370 2778 4440 2387 4440 
C 1158 4440 397 3316 397 2179 
C 397 927 1299 -64 2323 -64 
C 2874 -64 3066 -19 3539 280 
L 3501 714 
z
" transform="scale(0.015625)"/>
       </defs>
       <use xlink:href="#CMSS17-43" transform="scale(0.996264)"/>
       <use xlink:href="#CMSS17-6f" transform="translate(59.855772 0) scale(0.996264)"/>
       <use xlink:href="#CMSS17-6d" transform="translate(106.699395 0) scale(0.996264)"/>
       <use xlink:href="#CMSS17-6d" transform="translate(180.92865 0) scale(0.996264)"/>
       <use xlink:href="#CMSS17-61" transform="translate(255.157904 0) scale(0.996264)"/>
       <use xlink:href="#CMSS17-6e" transform="translate(300.079825 0) scale(0.996264)"/>
       <use xlink:href="#CMSS17-64" transform="translate(348.284768 0) scale(0.996264)"/>
       <use xlink:href="#CMSS17-45" transform="translate(427.718824 0) scale(0.996264)"/>
       <use xlink:href="#CMSS17-78" transform="translate(483.610837 0) scale(0.996264)"/>
       <use xlink:href="#CMSS17-65" transform="translate(526.610978 0) scale(0.996264)"/>
       <use xlink:href="#CMSS17-63" transform="translate(568.249801 0) scale(0.996264)"/>
       <use xlink:href="#CMSS17-2e" transform="translate(609.888623 0) scale(0.996264)"/>
      </g>
      <!-- (large output) -->
      <g transform="translate(482.462633 143.20729) scale(0.06 -0.06)">
       <defs>
        <path id="CMSS17-75" d="M 2618 2739 
L 2131 2739 
L 2131 972 
C 2131 498 1786 306 1421 306 
C 998 306 960 447 960 709 
L 960 2739 
L 474 2739 
L 474 678 
C 474 179 646 -64 1088 -64 
C 1306 -64 1798 -13 2144 306 
L 2144 0 
L 2618 0 
L 2618 2739 
z
" transform="scale(0.015625)"/>
       </defs>
       <use xlink:href="#CMSS17-28" transform="scale(0.996264)"/>
       <use xlink:href="#CMSS17-6c" transform="translate(36.433914 0) scale(0.996264)"/>
       <use xlink:href="#CMSS17-61" transform="translate(58.614637 0) scale(0.996264)"/>
       <use xlink:href="#CMSS17-72" transform="translate(100.934104 0) scale(0.996264)"/>
       <use xlink:href="#CMSS17-67" transform="translate(132.843876 0) scale(0.996264)"/>
       <use xlink:href="#CMSS17-65" transform="translate(179.6875 0) scale(0.996264)"/>
       <use xlink:href="#CMSS17-6f" transform="translate(252.555435 0) scale(0.996264)"/>
       <use xlink:href="#CMSS17-75" transform="translate(299.399058 0) scale(0.996264)"/>
       <use xlink:href="#CMSS17-74" transform="translate(347.604001 0) scale(0.996264)"/>
       <use xlink:href="#CMSS17-70" transform="translate(381.435568 0) scale(0.996264)"/>
       <use xlink:href="#CMSS17-75" transform="translate(429.640511 0) scale(0.996264)"/>
       <use xlink:href="#CMSS17-74" transform="translate(477.845454 0) scale(0.996264)"/>
       <use xlink:href="#CMSS17-29" transform="translate(511.677021 0) scale(0.996264)"/>
      </g>
     </g>
    </g>
    <g id="xtick_7">
     <g id="line2d_13">
      <path d="M 587.123871 126.014077 
L 587.123871 58.33959 
" clip-path="url(#p884aad346c)" style="fill: none; stroke-dasharray: 0.925,0.4; stroke-dashoffset: 0; stroke: #b0b0b0; stroke-opacity: 0.7; stroke-width: 0.25"/>
     </g>
     <g id="line2d_14">
      <g>
       <use xlink:href="#mb0e04ffeab" x="587.123871" y="126.014077" style="stroke: #000000; stroke-width: 0.2"/>
      </g>
     </g>
     <g id="text_7">
      <!-- Command Exec. -->
      <g transform="translate(565.527504 136.665167) scale(0.06 -0.06)">
       <use xlink:href="#CMSS17-43" transform="scale(0.996264)"/>
       <use xlink:href="#CMSS17-6f" transform="translate(59.855772 0) scale(0.996264)"/>
       <use xlink:href="#CMSS17-6d" transform="translate(106.699395 0) scale(0.996264)"/>
       <use xlink:href="#CMSS17-6d" transform="translate(180.92865 0) scale(0.996264)"/>
       <use xlink:href="#CMSS17-61" transform="translate(255.157904 0) scale(0.996264)"/>
       <use xlink:href="#CMSS17-6e" transform="translate(300.079825 0) scale(0.996264)"/>
       <use xlink:href="#CMSS17-64" transform="translate(348.284768 0) scale(0.996264)"/>
       <use xlink:href="#CMSS17-45" transform="translate(427.718824 0) scale(0.996264)"/>
       <use xlink:href="#CMSS17-78" transform="translate(483.610837 0) scale(0.996264)"/>
       <use xlink:href="#CMSS17-65" transform="translate(526.610978 0) scale(0.996264)"/>
       <use xlink:href="#CMSS17-63" transform="translate(568.249801 0) scale(0.996264)"/>
       <use xlink:href="#CMSS17-2e" transform="translate(609.888623 0) scale(0.996264)"/>
      </g>
     </g>
    </g>
   </g>
   <g id="matplotlib.axis_2">
    <g id="ytick_1">
     <g id="line2d_15">
      <path d="M 36.380133 126.014077 
L 621.545354 126.014077 
" clip-path="url(#p884aad346c)" style="fill: none; stroke-dasharray: 0.925,0.4; stroke-dashoffset: 0; stroke: #b0b0b0; stroke-opacity: 0.7; stroke-width: 0.25"/>
     </g>
     <g id="line2d_16">
      <defs>
       <path id="m72ebca70c7" d="M 0 0 
L -3.5 0 
" style="stroke: #000000; stroke-width: 0.2"/>
      </defs>
      <g>
       <use xlink:href="#m72ebca70c7" x="36.380133" y="126.014077" style="stroke: #000000; stroke-width: 0.2"/>
      </g>
     </g>
     <g id="text_8">
      <!-- $\mathdefault{0}$ -->
      <g transform="translate(26.704495 128.089622) scale(0.06 -0.06)">
       <defs>
        <path id="CMSS17-30" d="M 2758 2044 
C 2758 2405 2752 3077 2490 3596 
C 2227 4096 1805 4229 1504 4229 
C 1069 4229 698 3975 506 3570 
C 301 3146 243 2709 243 2044 
C 243 1589 262 1031 493 543 
C 755 5 1197 -128 1498 -128 
C 1894 -128 2278 81 2496 518 
C 2720 974 2758 1474 2758 2044 
z
M 1498 261 
C 1011 261 864 811 819 995 
C 742 1310 730 1614 730 2114 
C 730 2506 730 2948 851 3297 
C 998 3701 1254 3840 1498 3840 
C 1971 3840 2125 3372 2176 3208 
C 2272 2873 2272 2481 2272 2114 
C 2272 1526 2272 261 1498 261 
z
" transform="scale(0.015625)"/>
       </defs>
       <use xlink:href="#CMSS17-30" transform="scale(0.996264)"/>
      </g>
     </g>
    </g>
    <g id="ytick_2">
     <g id="line2d_17">
      <path d="M 36.380133 101.411703 
L 621.545354 101.411703 
" clip-path="url(#p884aad346c)" style="fill: none; stroke-dasharray: 0.925,0.4; stroke-dashoffset: 0; stroke: #b0b0b0; stroke-opacity: 0.7; stroke-width: 0.25"/>
     </g>
     <g id="line2d_18">
      <g>
       <use xlink:href="#m72ebca70c7" x="36.380133" y="101.411703" style="stroke: #000000; stroke-width: 0.2"/>
      </g>
     </g>
     <g id="text_9">
      <!-- $\mathdefault{500}$ -->
      <g transform="translate(20.353221 103.487248) scale(0.06 -0.06)">
       <defs>
        <path id="CMSS17-35" d="M 934 3752 
L 2502 3752 
L 2502 4160 
L 467 4160 
L 467 1781 
L 896 1781 
C 1011 2046 1248 2240 1555 2240 
C 1843 2240 2163 1989 2163 1266 
C 2163 493 1709 267 1376 267 
C 966 267 589 512 422 851 
L 218 499 
C 512 49 992 -128 1376 -128 
C 2118 -128 2701 497 2701 1253 
C 2701 2030 2182 2629 1562 2629 
C 1338 2629 1120 2553 934 2399 
L 934 3752 
z
" transform="scale(0.015625)"/>
       </defs>
       <use xlink:href="#CMSS17-35" transform="scale(0.996264)"/>
       <use xlink:href="#CMSS17-30" transform="translate(46.843624 0) scale(0.996264)"/>
       <use xlink:href="#CMSS17-30" transform="translate(93.687247 0) scale(0.996264)"/>
      </g>
     </g>
    </g>
    <g id="ytick_3">
     <g id="line2d_19">
      <path d="M 36.380133 76.809329 
L 621.545354 76.809329 
" clip-path="url(#p884aad346c)" style="fill: none; stroke-dasharray: 0.925,0.4; stroke-dashoffset: 0; stroke: #b0b0b0; stroke-opacity: 0.7; stroke-width: 0.25"/>
     </g>
     <g id="line2d_20">
      <g>
       <use xlink:href="#m72ebca70c7" x="36.380133" y="76.809329" style="stroke: #000000; stroke-width: 0.2"/>
      </g>
     </g>
     <g id="text_10">
      <!-- $\mathdefault{1000}$ -->
      <g transform="translate(17.177584 78.884874) scale(0.06 -0.06)">
       <defs>
        <path id="CMSS17-31" d="M 1818 4288 
L 1696 4288 
C 1350 3940 947 3890 538 3890 
L 538 3520 
C 723 3520 1024 3520 1325 3667 
L 1325 369 
L 570 369 
L 570 0 
L 2573 0 
L 2573 369 
L 1818 369 
L 1818 4288 
z
" transform="scale(0.015625)"/>
       </defs>
       <use xlink:href="#CMSS17-31" transform="scale(0.996264)"/>
       <use xlink:href="#CMSS17-30" transform="translate(46.843624 0) scale(0.996264)"/>
       <use xlink:href="#CMSS17-30" transform="translate(93.687247 0) scale(0.996264)"/>
       <use xlink:href="#CMSS17-30" transform="translate(140.530871 0) scale(0.996264)"/>
      </g>
     </g>
    </g>
    <g id="text_11">
     <!-- Wall-clock time (ms). Lower is better. -->
     <g transform="translate(11.683188 143.159188) rotate(-90) scale(0.06 -0.06)">
      <defs>
       <path id="CMSS17-57" d="M 5581 4416 
L 5094 4416 
L 4557 2437 
C 4474 2118 4397 1801 4320 1482 
C 4205 1011 4122 681 4109 515 
L 4102 515 
C 4090 687 4006 1049 3904 1457 
C 3827 1795 3744 2131 3654 2462 
L 3123 4416 
L 2586 4416 
L 2080 2562 
L 1824 1549 
C 1632 747 1626 632 1613 505 
L 1606 505 
C 1606 543 1581 753 1402 1498 
C 1312 1868 1222 2244 1126 2601 
L 634 4416 
L 83 4416 
L 1299 0 
L 1830 0 
L 2336 1839 
L 2592 2851 
C 2765 3564 2803 3742 2816 3901 
L 2822 3901 
C 2822 3876 2880 3474 3130 2545 
L 3808 0 
L 4365 0 
L 5581 4416 
z
" transform="scale(0.015625)"/>
       <path id="CMSS17-2d" d="M 1664 1216 
L 1664 1585 
L 64 1585 
L 64 1216 
L 1664 1216 
z
" transform="scale(0.015625)"/>
       <path id="CMSS17-6b" d="M 1696 1688 
L 2688 2739 
L 2074 2739 
L 954 1554 
L 954 4416 
L 480 4416 
L 480 0 
L 947 0 
L 947 892 
L 1376 1344 
L 2278 0 
L 2822 0 
L 1696 1688 
z
" transform="scale(0.015625)"/>
       <path id="CMSS17-4c" d="M 1670 414 
C 1594 414 1517 414 1440 414 
L 1101 414 
L 1101 4416 
L 563 4416 
L 563 0 
L 3002 0 
L 3002 414 
L 1670 414 
z
" transform="scale(0.015625)"/>
       <path id="CMSS17-77" d="M 4013 2752 
L 3526 2752 
L 3187 1601 
C 3117 1358 2918 685 2893 371 
L 2886 371 
C 2874 564 2765 1024 2586 1633 
L 2259 2752 
L 1818 2752 
L 1498 1658 
C 1338 1101 1216 627 1203 371 
L 1197 371 
C 1171 749 909 1633 870 1773 
L 582 2752 
L 83 2752 
L 915 0 
L 1402 0 
C 1734 1096 1990 1943 2010 2370 
C 2022 2160 2131 1707 2195 1484 
L 2618 0 
L 3181 0 
L 4013 2752 
z
" transform="scale(0.015625)"/>
       <path id="CMSS17-62" d="M 954 4416 
L 480 4416 
L 480 -13 
L 966 -13 
L 966 274 
C 1210 38 1504 -64 1766 -64 
C 2381 -64 2880 549 2880 1352 
C 2880 2086 2496 2756 1926 2756 
C 1523 2756 1165 2591 954 2419 
L 954 4416 
z
M 966 2046 
C 1107 2222 1306 2368 1587 2368 
C 1965 2368 2394 2097 2394 1352 
C 2394 558 1882 325 1530 325 
C 1402 325 1267 356 1139 464 
C 966 615 966 709 966 797 
L 966 2046 
z
" transform="scale(0.015625)"/>
      </defs>
      <use xlink:href="#CMSS17-57" transform="scale(0.996264)"/>
      <use xlink:href="#CMSS17-61" transform="translate(85.639712 0) scale(0.996264)"/>
      <use xlink:href="#CMSS17-6c" transform="translate(130.561633 0) scale(0.996264)"/>
      <use xlink:href="#CMSS17-6c" transform="translate(152.742356 0) scale(0.996264)"/>
      <use xlink:href="#CMSS17-2d" transform="translate(174.923079 0) scale(0.996264)"/>
      <use xlink:href="#CMSS17-63" transform="translate(206.152192 0) scale(0.996264)"/>
      <use xlink:href="#CMSS17-6c" transform="translate(247.791014 0) scale(0.996264)"/>
      <use xlink:href="#CMSS17-6f" transform="translate(269.971737 0) scale(0.996264)"/>
      <use xlink:href="#CMSS17-63" transform="translate(319.417799 0) scale(0.996264)"/>
      <use xlink:href="#CMSS17-6b" transform="translate(361.056621 0) scale(0.996264)"/>
      <use xlink:href="#CMSS17-74" transform="translate(437.888223 0) scale(0.996264)"/>
      <use xlink:href="#CMSS17-69" transform="translate(471.71979 0) scale(0.996264)"/>
      <use xlink:href="#CMSS17-6d" transform="translate(493.900513 0) scale(0.996264)"/>
      <use xlink:href="#CMSS17-65" transform="translate(568.129767 0) scale(0.996264)"/>
      <use xlink:href="#CMSS17-28" transform="translate(640.997702 0) scale(0.996264)"/>
      <use xlink:href="#CMSS17-6d" transform="translate(677.431616 0) scale(0.996264)"/>
      <use xlink:href="#CMSS17-73" transform="translate(751.660871 0) scale(0.996264)"/>
      <use xlink:href="#CMSS17-29" transform="translate(787.574413 0) scale(0.996264)"/>
      <use xlink:href="#CMSS17-2e" transform="translate(824.008327 0) scale(0.996264)"/>
      <use xlink:href="#CMSS17-4c" transform="translate(891.671339 0) scale(0.996264)"/>
      <use xlink:href="#CMSS17-6f" transform="translate(942.358444 0) scale(0.996264)"/>
      <use xlink:href="#CMSS17-77" transform="translate(986.599614 0) scale(0.996264)"/>
      <use xlink:href="#CMSS17-65" transform="translate(1047.816705 0) scale(0.996264)"/>
      <use xlink:href="#CMSS17-72" transform="translate(1089.455527 0) scale(0.996264)"/>
      <use xlink:href="#CMSS17-69" transform="translate(1152.594412 0) scale(0.996264)"/>
      <use xlink:href="#CMSS17-73" transform="translate(1174.775135 0) scale(0.996264)"/>
      <use xlink:href="#CMSS17-62" transform="translate(1241.91779 0) scale(0.996264)"/>
      <use xlink:href="#CMSS17-65" transform="translate(1292.725172 0) scale(0.996264)"/>
      <use xlink:href="#CMSS17-74" transform="translate(1334.363994 0) scale(0.996264)"/>
      <use xlink:href="#CMSS17-74" transform="translate(1368.195561 0) scale(0.996264)"/>
      <use xlink:href="#CMSS17-65" transform="translate(1402.027127 0) scale(0.996264)"/>
      <use xlink:href="#CMSS17-72" transform="translate(1443.665949 0) scale(0.996264)"/>
      <use xlink:href="#CMSS17-2e" transform="translate(1475.575722 0) scale(0.996264)"/>
     </g>
    </g>
   </g>
   <g id="LineCollection_1">
    <path d="M 64.347588 102.890177 
L 64.347588 102.688694 
" clip-path="url(#p884aad346c)" style="fill: none; stroke: #000000"/>
    <path d="M 150.401297 67.924796 
L 150.401297 67.32409 
" clip-path="url(#p884aad346c)" style="fill: none; stroke: #000000"/>
    <path d="M 236.455006 60.926551 
L 236.455006 60.512202 
" clip-path="url(#p884aad346c)" style="fill: none; stroke: #000000"/>
    <path d="M 322.508715 60.397685 
L 322.508715 59.958563 
" clip-path="url(#p884aad346c)" style="fill: none; stroke: #000000"/>
    <path d="M 408.562424 60.419828 
L 408.562424 60.067633 
" clip-path="url(#p884aad346c)" style="fill: none; stroke: #000000"/>
    <path d="M 494.616134 59.539986 
L 494.616134 58.880876 
" clip-path="url(#p884aad346c)" style="fill: none; stroke: #000000"/>
    <path d="M 580.669843 59.12998 
L 580.669843 58.33959 
" clip-path="url(#p884aad346c)" style="fill: none; stroke: #000000"/>
   </g>
   <g id="line2d_21">
    <defs>
     <path id="md094086b22" d="M 1 0 
L -1 -0 
" style="stroke: #000000"/>
    </defs>
    <g clip-path="url(#p884aad346c)">
     <use xlink:href="#md094086b22" x="64.347588" y="102.890177" style="stroke: #000000"/>
     <use xlink:href="#md094086b22" x="150.401297" y="67.924796" style="stroke: #000000"/>
     <use xlink:href="#md094086b22" x="236.455006" y="60.926551" style="stroke: #000000"/>
     <use xlink:href="#md094086b22" x="322.508715" y="60.397685" style="stroke: #000000"/>
     <use xlink:href="#md094086b22" x="408.562424" y="60.419828" style="stroke: #000000"/>
     <use xlink:href="#md094086b22" x="494.616134" y="59.539986" style="stroke: #000000"/>
     <use xlink:href="#md094086b22" x="580.669843" y="59.12998" style="stroke: #000000"/>
    </g>
   </g>
   <g id="line2d_22">
    <g clip-path="url(#p884aad346c)">
     <use xlink:href="#md094086b22" x="64.347588" y="102.688694" style="stroke: #000000"/>
     <use xlink:href="#md094086b22" x="150.401297" y="67.32409" style="stroke: #000000"/>
     <use xlink:href="#md094086b22" x="236.455006" y="60.512202" style="stroke: #000000"/>
     <use xlink:href="#md094086b22" x="322.508715" y="59.958563" style="stroke: #000000"/>
     <use xlink:href="#md094086b22" x="408.562424" y="60.067633" style="stroke: #000000"/>
     <use xlink:href="#md094086b22" x="494.616134" y="58.880876" style="stroke: #000000"/>
     <use xlink:href="#md094086b22" x="580.669843" y="58.33959" style="stroke: #000000"/>
    </g>
   </g>
   <g id="LineCollection_2">
    <path d="M 77.255644 103.3074 
L 77.255644 103.025944 
" clip-path="url(#p884aad346c)" style="fill: none; stroke: #000000"/>
    <path d="M 163.309354 67.596807 
L 163.309354 67.061622 
" clip-path="url(#p884aad346c)" style="fill: none; stroke: #000000"/>
    <path d="M 249.363063 60.962546 
L 249.363063 60.443404 
" clip-path="url(#p884aad346c)" style="fill: none; stroke: #000000"/>
    <path d="M 335.416772 61.223096 
L 335.416772 60.904524 
" clip-path="url(#p884aad346c)" style="fill: none; stroke: #000000"/>
    <path d="M 421.470481 62.2503 
L 421.470481 61.222249 
" clip-path="url(#p884aad346c)" style="fill: none; stroke: #000000"/>
    <path d="M 507.52419 60.022417 
L 507.52419 59.480949 
" clip-path="url(#p884aad346c)" style="fill: none; stroke: #000000"/>
    <path d="M 593.577899 59.501799 
L 593.577899 58.886259 
" clip-path="url(#p884aad346c)" style="fill: none; stroke: #000000"/>
   </g>
   <g id="line2d_23">
    <g clip-path="url(#p884aad346c)">
     <use xlink:href="#md094086b22" x="77.255644" y="103.3074" style="stroke: #000000"/>
     <use xlink:href="#md094086b22" x="163.309354" y="67.596807" style="stroke: #000000"/>
     <use xlink:href="#md094086b22" x="249.363063" y="60.962546" style="stroke: #000000"/>
     <use xlink:href="#md094086b22" x="335.416772" y="61.223096" style="stroke: #000000"/>
     <use xlink:href="#md094086b22" x="421.470481" y="62.2503" style="stroke: #000000"/>
     <use xlink:href="#md094086b22" x="507.52419" y="60.022417" style="stroke: #000000"/>
     <use xlink:href="#md094086b22" x="593.577899" y="59.501799" style="stroke: #000000"/>
    </g>
   </g>
   <g id="line2d_24">
    <g clip-path="url(#p884aad346c)">
     <use xlink:href="#md094086b22" x="77.255644" y="103.025944" style="stroke: #000000"/>
     <use xlink:href="#md094086b22" x="163.309354" y="67.061622" style="stroke: #000000"/>
     <use xlink:href="#md094086b22" x="249.363063" y="60.443404" style="stroke: #000000"/>
     <use xlink:href="#md094086b22" x="335.416772" y="60.904524" style="stroke: #000000"/>
     <use xlink:href="#md094086b22" x="421.470481" y="61.222249" style="stroke: #000000"/>
     <use xlink:href="#md094086b22" x="507.52419" y="59.480949" style="stroke: #000000"/>
     <use xlink:href="#md094086b22" x="593.577899" y="58.886259" style="stroke: #000000"/>
    </g>
   </g>
   <g id="line2d_25">
    <path d="M 36.380133 70.034113 
L 621.545354 70.034113 
" clip-path="url(#p884aad346c)" style="fill: none; stroke-dasharray: 2.96,1.28; stroke-dashoffset: 0; stroke: #152238; stroke-opacity: 0.7; stroke-width: 0.8"/>
   </g>
   <g id="line2d_26">
    <path d="M 36.380133 70.533041 
L 621.545354 70.533041 
" clip-path="url(#p884aad346c)" style="fill: none; stroke-dasharray: 0.8,1.32; stroke-dashoffset: 0; stroke: #d85128; stroke-opacity: 0.7; stroke-width: 0.8"/>
   </g>
   <g id="patch_17">
    <path d="M 36.380133 126.014077 
L 36.380133 58.33959 
" style="fill: none; stroke: #000000; stroke-width: 0.5; stroke-linejoin: miter; stroke-linecap: square"/>
   </g>
   <g id="patch_18">
    <path d="M 36.380133 126.014077 
L 621.545354 126.014077 
" style="fill: none; stroke: #000000; stroke-width: 0.5; stroke-linejoin: miter; stroke-linecap: square"/>
   </g>
   <g id="legend_1">
    <g id="patch_19">
     <path d="M 243.491365 36.154121 
L 414.434123 36.154121 
Q 415.634123 36.154121 415.634123 34.954121 
L 415.634123 8.4 
Q 415.634123 7.2 414.434123 7.2 
L 243.491365 7.2 
Q 242.291365 7.2 242.291365 8.4 
L 242.291365 34.954121 
Q 242.291365 36.154121 243.491365 36.154121 
z
" style="fill: #ffffff; opacity: 0.8; stroke: #808080; stroke-width: 0.5; stroke-linejoin: miter"/>
    </g>
    <g id="text_12">
     <!-- \textsc{fd} -->
     <g transform="translate(324.837679 14.442938) scale(0.07 -0.07)">
      <defs>
       <path id="CMCSC10-66" d="M 3053 3328 
L 275 3328 
L 275 3167 
C 704 3167 736 3129 736 2866 
L 736 520 
C 736 257 704 219 275 219 
L 275 64 
C 486 64 826 64 986 64 
C 1190 64 1587 64 1773 64 
L 1773 219 
C 1293 219 1197 219 1197 536 
L 1197 1600 
L 1626 1600 
C 2099 1600 2170 1461 2170 1025 
L 2330 1025 
L 2330 2304 
L 2170 2304 
C 2170 1892 2099 1761 1626 1761 
L 1197 1761 
L 1197 2890 
C 1197 3148 1229 3167 1453 3167 
L 2061 3167 
C 2765 3167 2950 2958 3014 2222 
L 3174 2222 
L 3053 3328 
z
" transform="scale(0.015625)"/>
       <path id="CMCSC10-64" d="M 749 493 
C 749 230 717 192 288 192 
L 288 31 
L 2086 31 
C 2989 31 3667 775 3667 1654 
C 3667 2539 3008 3328 2086 3328 
L 288 3328 
L 288 3168 
C 717 3168 749 3129 749 2867 
L 749 493 
z
M 1446 192 
C 1222 192 1190 211 1190 468 
L 1190 2892 
C 1190 3148 1222 3168 1446 3168 
L 1939 3168 
C 2490 3168 2765 2867 2854 2751 
C 2995 2571 3136 2301 3136 1654 
C 3136 1128 3040 859 2906 653 
C 2803 512 2528 192 1939 192 
L 1446 192 
z
" transform="scale(0.015625)"/>
      </defs>
      <use xlink:href="#CMCSC10-66" transform="scale(0.996264)"/>
      <use xlink:href="#CMCSC10-64" transform="translate(53.355398 0) scale(0.996264)"/>
     </g>
    </g>
    <g id="patch_20">
     <path d="M 244.691365 23.28214 
L 256.691365 23.28214 
L 256.691365 19.08214 
L 244.691365 19.08214 
z
" style="fill: #1f77b4"/>
    </g>
    <g id="text_13">
     <!-- Alloy -->
     <g transform="translate(261.491365 23.28214) scale(0.06 -0.06)">
      <defs>
       <path id="CMSS17-41" d="M 2272 4416 
L 1722 4416 
L 166 0 
L 653 0 
L 1101 1280 
L 2816 1280 
L 3270 0 
L 3827 0 
L 2272 4416 
z
M 2694 1637 
L 1222 1637 
C 1530 2528 1914 3638 1958 3925 
L 1965 3925 
C 2010 3663 2138 3281 2246 2956 
L 2694 1637 
z
" transform="scale(0.015625)"/>
      </defs>
      <use xlink:href="#CMSS17-41" transform="scale(0.996264)"/>
      <use xlink:href="#CMSS17-6c" transform="translate(62.217855 0) scale(0.996264)"/>
      <use xlink:href="#CMSS17-6c" transform="translate(84.398578 0) scale(0.996264)"/>
      <use xlink:href="#CMSS17-6f" transform="translate(106.579301 0) scale(0.996264)"/>
      <use xlink:href="#CMSS17-79" transform="translate(150.820471 0) scale(0.996264)"/>
     </g>
    </g>
    <g id="patch_21">
     <path d="M 244.691365 31.644438 
L 256.691365 31.644438 
L 256.691365 27.444438 
L 244.691365 27.444438 
z
" style="fill: #ff7f0e"/>
    </g>
    <g id="text_14">
     <!-- \texttt{Arc&lt;T&gt;} -->
     <g transform="translate(261.491365 31.644438) scale(0.06 -0.06)">
      <defs>
       <path id="CMTT12-41" d="M 1971 3770 
C 1920 4000 1792 4000 1645 4000 
C 1446 4000 1370 3974 1325 3770 
L 531 371 
C 320 371 173 371 173 186 
C 173 0 346 0 435 0 
L 1050 0 
C 1139 0 1312 0 1312 186 
C 1312 371 1158 371 960 371 
L 1126 1088 
L 2163 1088 
L 2330 371 
C 2131 371 1978 371 1978 186 
C 1978 0 2150 0 2240 0 
L 2854 0 
C 2944 0 3117 0 3117 186 
C 3117 371 2970 371 2758 371 
L 1971 3770 
z
M 1210 1459 
C 1254 1651 1606 3162 1638 3469 
L 1645 3469 
C 1664 3322 1754 2931 1754 2925 
L 2080 1459 
L 1210 1459 
z
" transform="scale(0.015625)"/>
       <path id="CMTT12-72" d="M 1382 1212 
C 1382 1976 1920 2432 2464 2432 
C 2496 2432 2534 2432 2566 2425 
C 2586 2185 2765 2165 2810 2165 
C 2957 2165 3059 2275 3059 2418 
C 3059 2698 2790 2803 2470 2803 
C 2042 2803 1677 2607 1382 2241 
L 1382 2491 
C 1382 2688 1344 2752 1126 2752 
L 480 2752 
C 390 2752 224 2752 224 2567 
C 224 2381 390 2381 480 2381 
L 966 2381 
L 966 371 
L 480 371 
C 390 371 224 371 224 186 
C 224 0 390 0 480 0 
L 2054 0 
C 2144 0 2310 0 2310 186 
C 2310 371 2144 371 2054 371 
L 1382 371 
L 1382 1212 
z
" transform="scale(0.015625)"/>
       <path id="CMTT12-63" d="M 2918 702 
C 2918 868 2758 868 2707 868 
C 2560 868 2534 817 2502 728 
C 2362 377 2048 339 1894 339 
C 1350 339 890 792 890 1385 
C 890 1711 1075 2445 1914 2445 
C 2086 2445 2221 2432 2278 2426 
C 2323 2413 2330 2405 2330 2373 
C 2349 2107 2547 2107 2586 2107 
C 2726 2107 2848 2203 2848 2375 
C 2848 2816 2202 2816 1920 2816 
C 826 2816 474 1922 474 1385 
C 474 607 1069 -32 1837 -32 
C 2694 -32 2918 600 2918 702 
z
" transform="scale(0.015625)"/>
       <path id="CMTT12-3c" d="M 2803 3155 
C 2867 3200 2938 3238 2938 3353 
C 2938 3488 2822 3565 2726 3565 
L 2714 3558 
C 2662 3552 2650 3552 2579 3501 
L 474 2169 
C 397 2125 352 2054 352 1977 
C 352 1862 422 1817 474 1785 
L 2573 448 
C 2618 422 2669 384 2726 384 
C 2822 384 2938 461 2938 595 
C 2938 672 2899 736 2829 781 
L 947 1971 
L 2803 3155 
z
" transform="scale(0.015625)"/>
       <path id="CMTT12-54" d="M 1856 3533 
L 2707 3533 
L 2707 3221 
C 2707 3105 2707 2958 2912 2958 
C 3123 2958 3123 3099 3123 3221 
L 3123 3642 
C 3123 3840 3085 3904 2867 3904 
L 429 3904 
C 218 3904 166 3853 166 3642 
L 166 3221 
C 166 3105 166 2958 371 2958 
C 582 2958 582 3099 582 3221 
L 582 3533 
L 1440 3533 
L 1440 371 
L 1133 371 
C 1043 371 877 371 877 186 
C 877 0 1043 0 1133 0 
L 2163 0 
C 2253 0 2419 0 2419 186 
C 2419 371 2253 371 2163 371 
L 1856 371 
L 1856 3533 
z
" transform="scale(0.015625)"/>
       <path id="CMTT12-3e" d="M 2816 1779 
C 2893 1824 2938 1894 2938 1971 
C 2938 2086 2867 2131 2816 2163 
L 717 3501 
C 672 3526 621 3565 563 3565 
C 467 3565 352 3488 352 3353 
C 352 3238 422 3200 486 3155 
L 2342 1978 
L 486 793 
C 422 749 352 710 352 595 
C 352 461 467 384 563 384 
L 576 390 
C 627 397 640 397 710 448 
L 2816 1779 
z
" transform="scale(0.015625)"/>
      </defs>
      <use xlink:href="#CMTT12-41" transform="scale(0.996264)"/>
      <use xlink:href="#CMTT12-72" transform="translate(51.266111 0) scale(0.996264)"/>
      <use xlink:href="#CMTT12-63" transform="translate(102.532222 0) scale(0.996264)"/>
      <use xlink:href="#CMTT12-3c" transform="translate(153.798333 0) scale(0.996264)"/>
      <use xlink:href="#CMTT12-54" transform="translate(205.064443 0) scale(0.996264)"/>
      <use xlink:href="#CMTT12-3e" transform="translate(256.330554 0) scale(0.996264)"/>
     </g>
    </g>
    <g id="line2d_27">
     <path d="M 292.545187 21.18214 
L 298.545187 21.18214 
L 304.545187 21.18214 
" style="fill: none; stroke-dasharray: 2.96,1.28; stroke-dashoffset: 0; stroke: #152238; stroke-opacity: 0.7; stroke-width: 0.8"/>
    </g>
    <g id="text_15">
     <!-- G.mean: 1137.69ms (1066.00-1214.21) -->
     <g transform="translate(309.345187 23.28214) scale(0.06 -0.06)">
      <defs>
       <path id="CMSS17-47" d="M 3610 1856 
L 2336 1856 
L 2336 1461 
L 3123 1461 
L 3123 471 
C 2874 401 2618 350 2362 350 
C 1466 350 934 1301 934 2200 
C 934 3095 1491 4032 2362 4032 
C 2854 4032 3130 3881 3469 3627 
L 3552 4134 
C 3130 4351 2867 4440 2387 4440 
C 1146 4440 397 3324 397 2182 
C 397 1090 1152 -64 2349 -64 
C 2797 -64 3213 51 3610 248 
L 3610 1856 
z
" transform="scale(0.015625)"/>
       <path id="CMSS17-3a" d="M 1088 2749 
L 576 2749 
L 576 2240 
L 1088 2240 
L 1088 2749 
z
M 576 510 
L 576 0 
L 1088 0 
L 1088 510 
L 576 510 
z
" transform="scale(0.015625)"/>
       <path id="CMSS17-33" d="M 1005 2025 
L 1440 2025 
C 2042 2025 2214 1507 2214 1146 
C 2214 653 1933 267 1472 267 
C 1114 267 608 444 320 912 
C 275 691 275 678 250 526 
C 550 88 1037 -128 1485 -128 
C 2214 -128 2752 473 2752 1138 
C 2752 1638 2400 2057 1920 2215 
C 2304 2424 2586 2816 2586 3273 
C 2586 3805 2093 4229 1491 4229 
C 941 4229 512 3892 333 3530 
C 378 3468 493 3284 550 3189 
C 691 3562 1056 3840 1485 3840 
C 1843 3840 2080 3607 2080 3271 
C 2080 2923 1856 2543 1478 2455 
C 1453 2455 1056 2417 1005 2411 
L 1005 2025 
z
" transform="scale(0.015625)"/>
       <path id="CMSS17-37" d="M 1389 3776 
C 1466 3776 1542 3776 1619 3776 
L 2355 3776 
C 1440 2711 915 1365 915 -32 
L 1427 -32 
C 1427 1323 1875 2696 2752 3795 
L 2752 4209 
L 250 4209 
L 250 3776 
L 1389 3776 
z
" transform="scale(0.015625)"/>
       <path id="CMSS17-36" d="M 2496 4101 
C 2227 4210 2035 4229 1856 4229 
C 1024 4229 250 3368 250 2006 
C 250 265 986 -128 1510 -128 
C 1798 -128 2086 -39 2362 280 
C 2643 617 2752 898 2752 1389 
C 2752 2179 2362 2880 1779 2880 
C 1357 2880 992 2657 768 2376 
C 832 3258 1254 3840 1862 3840 
C 2029 3840 2246 3816 2496 3710 
L 2496 4101 
z
M 774 1369 
C 774 1420 774 1452 781 1548 
C 781 2045 1069 2491 1536 2491 
C 1837 2491 1990 2332 2106 2135 
C 2240 1886 2246 1650 2246 1388 
C 2246 1140 2246 891 2099 637 
C 1978 439 1818 267 1510 267 
C 902 267 800 1114 774 1369 
z
" transform="scale(0.015625)"/>
       <path id="CMSS17-39" d="M 435 174 
C 614 21 845 -128 1235 -128 
C 2010 -128 2752 721 2752 2095 
C 2752 3932 1952 4229 1523 4229 
C 1094 4229 819 4041 582 3741 
C 301 3397 250 3090 250 2733 
C 250 2307 326 2045 506 1745 
C 749 1357 973 1275 1222 1275 
C 1600 1275 1978 1459 2234 1776 
C 2189 902 1798 267 1235 267 
C 1005 267 819 339 634 516 
L 435 174 
z
M 2214 2746 
C 2221 2703 2221 2622 2221 2596 
C 2221 2074 1914 1664 1466 1664 
C 1171 1664 1018 1813 902 2006 
C 762 2249 755 2485 755 2733 
C 755 2976 755 3244 934 3511 
C 1069 3703 1235 3840 1523 3840 
C 2112 3840 2208 3000 2214 2746 
z
" transform="scale(0.015625)"/>
       <path id="CMSS17-32" d="M 1651 1357 
C 1830 1541 2099 1764 2285 1987 
C 2464 2204 2701 2511 2701 2957 
C 2701 3657 2227 4288 1421 4288 
C 787 4288 422 3893 250 3274 
L 499 2929 
C 640 3510 838 3880 1338 3880 
C 1888 3880 2195 3433 2195 2942 
C 2195 2355 1747 1901 1408 1563 
C 1030 1187 659 804 301 408 
L 301 0 
L 2701 0 
L 2701 433 
L 1613 433 
C 1536 433 1459 433 1382 433 
L 742 433 
L 742 439 
L 1651 1357 
z
" transform="scale(0.015625)"/>
       <path id="CMSS17-34" d="M 2253 1088 
L 2835 1088 
L 2835 1477 
L 2253 1477 
L 2253 4192 
L 1690 4192 
L 166 1477 
L 166 1088 
L 1747 1088 
L 1747 0 
L 2253 0 
L 2253 1088 
z
M 659 1477 
C 1030 2127 1766 3439 1766 3885 
L 1766 1477 
L 659 1477 
z
" transform="scale(0.015625)"/>
      </defs>
      <use xlink:href="#CMSS17-47" transform="scale(0.996264)"/>
      <use xlink:href="#CMSS17-2e" transform="translate(62.458226 0) scale(0.996264)"/>
      <use xlink:href="#CMSS17-6d" transform="translate(88.48243 0) scale(0.996264)"/>
      <use xlink:href="#CMSS17-65" transform="translate(162.711685 0) scale(0.996264)"/>
      <use xlink:href="#CMSS17-61" transform="translate(204.350507 0) scale(0.996264)"/>
      <use xlink:href="#CMSS17-6e" transform="translate(249.272427 0) scale(0.996264)"/>
      <use xlink:href="#CMSS17-3a" transform="translate(297.477371 0) scale(0.996264)"/>
      <use xlink:href="#CMSS17-31" transform="translate(365.140382 0) scale(0.996264)"/>
      <use xlink:href="#CMSS17-31" transform="translate(411.984006 0) scale(0.996264)"/>
      <use xlink:href="#CMSS17-33" transform="translate(458.827629 0) scale(0.996264)"/>
      <use xlink:href="#CMSS17-37" transform="translate(505.671253 0) scale(0.996264)"/>
      <use xlink:href="#CMSS17-2e" transform="translate(552.514876 0) scale(0.996264)"/>
      <use xlink:href="#CMSS17-36" transform="translate(578.539081 0) scale(0.996264)"/>
      <use xlink:href="#CMSS17-39" transform="translate(625.382705 0) scale(0.996264)"/>
      <use xlink:href="#CMSS17-6d" transform="translate(672.226328 0) scale(0.996264)"/>
      <use xlink:href="#CMSS17-73" transform="translate(746.455583 0) scale(0.996264)"/>
      <use xlink:href="#CMSS17-28" transform="translate(813.598238 0) scale(0.996264)"/>
      <use xlink:href="#CMSS17-31" transform="translate(850.032152 0) scale(0.996264)"/>
      <use xlink:href="#CMSS17-30" transform="translate(896.875775 0) scale(0.996264)"/>
      <use xlink:href="#CMSS17-36" transform="translate(943.719399 0) scale(0.996264)"/>
      <use xlink:href="#CMSS17-36" transform="translate(990.563022 0) scale(0.996264)"/>
      <use xlink:href="#CMSS17-2e" transform="translate(1037.406646 0) scale(0.996264)"/>
      <use xlink:href="#CMSS17-30" transform="translate(1063.430851 0) scale(0.996264)"/>
      <use xlink:href="#CMSS17-30" transform="translate(1110.274474 0) scale(0.996264)"/>
      <use xlink:href="#CMSS17-2d" transform="translate(1157.118098 0) scale(0.996264)"/>
      <use xlink:href="#CMSS17-31" transform="translate(1188.347211 0) scale(0.996264)"/>
      <use xlink:href="#CMSS17-32" transform="translate(1235.190834 0) scale(0.996264)"/>
      <use xlink:href="#CMSS17-31" transform="translate(1282.034458 0) scale(0.996264)"/>
      <use xlink:href="#CMSS17-34" transform="translate(1328.878081 0) scale(0.996264)"/>
      <use xlink:href="#CMSS17-2e" transform="translate(1375.721705 0) scale(0.996264)"/>
      <use xlink:href="#CMSS17-32" transform="translate(1401.74591 0) scale(0.996264)"/>
      <use xlink:href="#CMSS17-31" transform="translate(1448.589533 0) scale(0.996264)"/>
      <use xlink:href="#CMSS17-29" transform="translate(1495.433157 0) scale(0.996264)"/>
     </g>
    </g>
    <g id="line2d_28">
     <path d="M 292.545187 30.159725 
L 298.545187 30.159725 
L 304.545187 30.159725 
" style="fill: none; stroke-dasharray: 0.8,1.32; stroke-dashoffset: 0; stroke: #d85128; stroke-opacity: 0.7; stroke-width: 0.8"/>
    </g>
    <g id="text_16">
     <!-- G.mean: 1127.55ms (1056.01-1203.94) -->
     <g transform="translate(309.345187 32.259725) scale(0.06 -0.06)">
      <use xlink:href="#CMSS17-47" transform="scale(0.996264)"/>
      <use xlink:href="#CMSS17-2e" transform="translate(62.458226 0) scale(0.996264)"/>
      <use xlink:href="#CMSS17-6d" transform="translate(88.48243 0) scale(0.996264)"/>
      <use xlink:href="#CMSS17-65" transform="translate(162.711685 0) scale(0.996264)"/>
      <use xlink:href="#CMSS17-61" transform="translate(204.350507 0) scale(0.996264)"/>
      <use xlink:href="#CMSS17-6e" transform="translate(249.272427 0) scale(0.996264)"/>
      <use xlink:href="#CMSS17-3a" transform="translate(297.477371 0) scale(0.996264)"/>
      <use xlink:href="#CMSS17-31" transform="translate(365.140382 0) scale(0.996264)"/>
      <use xlink:href="#CMSS17-31" transform="translate(411.984006 0) scale(0.996264)"/>
      <use xlink:href="#CMSS17-32" transform="translate(458.827629 0) scale(0.996264)"/>
      <use xlink:href="#CMSS17-37" transform="translate(505.671253 0) scale(0.996264)"/>
      <use xlink:href="#CMSS17-2e" transform="translate(552.514876 0) scale(0.996264)"/>
      <use xlink:href="#CMSS17-35" transform="translate(578.539081 0) scale(0.996264)"/>
      <use xlink:href="#CMSS17-35" transform="translate(625.382705 0) scale(0.996264)"/>
      <use xlink:href="#CMSS17-6d" transform="translate(672.226328 0) scale(0.996264)"/>
      <use xlink:href="#CMSS17-73" transform="translate(746.455583 0) scale(0.996264)"/>
      <use xlink:href="#CMSS17-28" transform="translate(813.598238 0) scale(0.996264)"/>
      <use xlink:href="#CMSS17-31" transform="translate(850.032152 0) scale(0.996264)"/>
      <use xlink:href="#CMSS17-30" transform="translate(896.875775 0) scale(0.996264)"/>
      <use xlink:href="#CMSS17-35" transform="translate(943.719399 0) scale(0.996264)"/>
      <use xlink:href="#CMSS17-36" transform="translate(990.563022 0) scale(0.996264)"/>
      <use xlink:href="#CMSS17-2e" transform="translate(1037.406646 0) scale(0.996264)"/>
      <use xlink:href="#CMSS17-30" transform="translate(1063.430851 0) scale(0.996264)"/>
      <use xlink:href="#CMSS17-31" transform="translate(1110.274474 0) scale(0.996264)"/>
      <use xlink:href="#CMSS17-2d" transform="translate(1157.118098 0) scale(0.996264)"/>
      <use xlink:href="#CMSS17-31" transform="translate(1188.347211 0) scale(0.996264)"/>
      <use xlink:href="#CMSS17-32" transform="translate(1235.190834 0) scale(0.996264)"/>
      <use xlink:href="#CMSS17-30" transform="translate(1282.034458 0) scale(0.996264)"/>
      <use xlink:href="#CMSS17-33" transform="translate(1328.878081 0) scale(0.996264)"/>
      <use xlink:href="#CMSS17-2e" transform="translate(1375.721705 0) scale(0.996264)"/>
      <use xlink:href="#CMSS17-39" transform="translate(1401.74591 0) scale(0.996264)"/>
      <use xlink:href="#CMSS17-34" transform="translate(1448.589533 0) scale(0.996264)"/>
      <use xlink:href="#CMSS17-29" transform="translate(1495.433157 0) scale(0.996264)"/>
     </g>
    </g>
   </g>
  </g>
 </g>
 <defs>
  <clipPath id="p884aad346c">
   <rect x="36.380133" y="58.33959" width="585.165222" height="67.674487"/>
  </clipPath>
 </defs>
</svg>
