<?xml version="1.0" encoding="utf-8" standalone="no"?>
<!DOCTYPE svg PUBLIC "-//W3C//DTD SVG 1.1//EN"
  "http://www.w3.org/Graphics/SVG/1.1/DTD/svg11.dtd">
<svg xmlns:xlink="http://www.w3.org/1999/xlink" width="496.8pt" height="208.8pt" viewBox="0 0 496.8 208.8" xmlns="http://www.w3.org/2000/svg" version="1.1">
 <metadata>
  <rdf:RDF xmlns:dc="http://purl.org/dc/elements/1.1/" xmlns:cc="http://creativecommons.org/ns#" xmlns:rdf="http://www.w3.org/1999/02/22-rdf-syntax-ns#">
   <cc:Work>
    <dc:type rdf:resource="http://purl.org/dc/dcmitype/StillImage"/>
    <dc:date>2025-03-27T18:27:09.339045</dc:date>
    <dc:format>image/svg+xml</dc:format>
    <dc:creator>
     <cc:Agent>
      <dc:title>Matplotlib v3.9.2, https://matplotlib.org/</dc:title>
     </cc:Agent>
    </dc:creator>
   </cc:Work>
  </rdf:RDF>
 </metadata>
 <defs>
  <style type="text/css">*{stroke-linejoin: round; stroke-linecap: butt}</style>
 </defs>
 <g id="figure_1">
  <g id="patch_1">
   <path d="M 0 208.8 
L 496.8 208.8 
L 496.8 0 
L 0 0 
z
" style="fill: #ffffff"/>
  </g>
  <g id="axes_1">
   <g id="patch_2">
    <path d="M 54.563682 114.588332 
L 489.6 114.588332 
L 489.6 21.50218 
L 54.563682 21.50218 
z
" style="fill: #ffffff"/>
   </g>
   <g id="patch_3">
    <path d="M 62.741056 114.588332 
L 75.824855 114.588332 
L 75.824855 101.207858 
L 62.741056 101.207858 
z
" clip-path="url(#p0b4dba31e3)" style="fill: #1f77b4"/>
   </g>
   <g id="patch_4">
    <path d="M 95.450554 114.588332 
L 108.534353 114.588332 
L 108.534353 100.151505 
L 95.450554 100.151505 
z
" clip-path="url(#p0b4dba31e3)" style="fill: #1f77b4"/>
   </g>
   <g id="patch_5">
    <path d="M 128.160052 114.588332 
L 141.243851 114.588332 
L 141.243851 101.677349 
L 128.160052 101.677349 
z
" clip-path="url(#p0b4dba31e3)" style="fill: #1f77b4"/>
   </g>
   <g id="patch_6">
    <path d="M 160.869549 114.588332 
L 173.953348 114.588332 
L 173.953348 101.677349 
L 160.869549 101.677349 
z
" clip-path="url(#p0b4dba31e3)" style="fill: #1f77b4"/>
   </g>
   <g id="patch_7">
    <path d="M 193.579047 114.588332 
L 206.662846 114.588332 
L 206.662846 30.432193 
L 193.579047 30.432193 
z
" clip-path="url(#p0b4dba31e3)" style="fill: #1f77b4"/>
   </g>
   <g id="patch_8">
    <path d="M 226.288544 114.588332 
L 239.372343 114.588332 
L 239.372343 102.498957 
L 226.288544 102.498957 
z
" clip-path="url(#p0b4dba31e3)" style="fill: #1f77b4"/>
   </g>
   <g id="patch_9">
    <path d="M 258.998042 114.588332 
L 272.081841 114.588332 
L 272.081841 31.371174 
L 258.998042 31.371174 
z
" clip-path="url(#p0b4dba31e3)" style="fill: #1f77b4"/>
   </g>
   <g id="patch_10">
    <path d="M 291.70754 114.588332 
L 304.791339 114.588332 
L 304.791339 101.794721 
L 291.70754 101.794721 
z
" clip-path="url(#p0b4dba31e3)" style="fill: #1f77b4"/>
   </g>
   <g id="patch_11">
    <path d="M 324.417037 114.588332 
L 337.500836 114.588332 
L 337.500836 83.132481 
L 324.417037 83.132481 
z
" clip-path="url(#p0b4dba31e3)" style="fill: #1f77b4"/>
   </g>
   <g id="patch_12">
    <path d="M 357.126535 114.588332 
L 370.210334 114.588332 
L 370.210334 83.484599 
L 357.126535 83.484599 
z
" clip-path="url(#p0b4dba31e3)" style="fill: #1f77b4"/>
   </g>
   <g id="patch_13">
    <path d="M 389.836032 114.588332 
L 402.919831 114.588332 
L 402.919831 101.677349 
L 389.836032 101.677349 
z
" clip-path="url(#p0b4dba31e3)" style="fill: #1f77b4"/>
   </g>
   <g id="patch_14">
    <path d="M 422.54553 114.588332 
L 435.629329 114.588332 
L 435.629329 101.677349 
L 422.54553 101.677349 
z
" clip-path="url(#p0b4dba31e3)" style="fill: #1f77b4"/>
   </g>
   <g id="patch_15">
    <path d="M 455.255028 114.588332 
L 468.338827 114.588332 
L 468.338827 101.677349 
L 455.255028 101.677349 
z
" clip-path="url(#p0b4dba31e3)" style="fill: #1f77b4"/>
   </g>
   <g id="patch_16">
    <path d="M 75.824855 114.588332 
L 88.908654 114.588332 
L 88.908654 71.864714 
L 75.824855 71.864714 
z
" clip-path="url(#p0b4dba31e3)" style="fill: #ff7f0e"/>
   </g>
   <g id="patch_17">
    <path d="M 108.534353 114.588332 
L 121.618152 114.588332 
L 121.618152 72.216831 
L 108.534353 72.216831 
z
" clip-path="url(#p0b4dba31e3)" style="fill: #ff7f0e"/>
   </g>
   <g id="patch_18">
    <path d="M 141.243851 114.588332 
L 154.32765 114.588332 
L 154.32765 72.451577 
L 141.243851 72.451577 
z
" clip-path="url(#p0b4dba31e3)" style="fill: #ff7f0e"/>
   </g>
   <g id="patch_19">
    <path d="M 173.953348 114.588332 
L 187.037147 114.588332 
L 187.037147 71.864714 
L 173.953348 71.864714 
z
" clip-path="url(#p0b4dba31e3)" style="fill: #ff7f0e"/>
   </g>
   <g id="patch_20">
    <path d="M 206.662846 114.588332 
L 219.746645 114.588332 
L 219.746645 23.155093 
L 206.662846 23.155093 
z
" clip-path="url(#p0b4dba31e3)" style="fill: #ff7f0e"/>
   </g>
   <g id="patch_21">
    <path d="M 239.372343 114.588332 
L 252.456142 114.588332 
L 252.456142 71.982086 
L 239.372343 71.982086 
z
" clip-path="url(#p0b4dba31e3)" style="fill: #ff7f0e"/>
   </g>
   <g id="patch_22">
    <path d="M 272.081841 114.588332 
L 285.16564 114.588332 
L 285.16564 23.272466 
L 272.081841 23.272466 
z
" clip-path="url(#p0b4dba31e3)" style="fill: #ff7f0e"/>
   </g>
   <g id="patch_23">
    <path d="M 304.791339 114.588332 
L 317.875138 114.588332 
L 317.875138 71.277851 
L 304.791339 71.277851 
z
" clip-path="url(#p0b4dba31e3)" style="fill: #ff7f0e"/>
   </g>
   <g id="patch_24">
    <path d="M 337.500836 114.588332 
L 350.584635 114.588332 
L 350.584635 65.76134 
L 337.500836 65.76134 
z
" clip-path="url(#p0b4dba31e3)" style="fill: #ff7f0e"/>
   </g>
   <g id="patch_25">
    <path d="M 370.210334 114.588332 
L 383.294133 114.588332 
L 383.294133 65.76134 
L 370.210334 65.76134 
z
" clip-path="url(#p0b4dba31e3)" style="fill: #ff7f0e"/>
   </g>
   <g id="patch_26">
    <path d="M 402.919831 114.588332 
L 416.00363 114.588332 
L 416.00363 71.043106 
L 402.919831 71.043106 
z
" clip-path="url(#p0b4dba31e3)" style="fill: #ff7f0e"/>
   </g>
   <g id="patch_27">
    <path d="M 435.629329 114.588332 
L 448.713128 114.588332 
L 448.713128 71.512596 
L 435.629329 71.512596 
z
" clip-path="url(#p0b4dba31e3)" style="fill: #ff7f0e"/>
   </g>
   <g id="patch_28">
    <path d="M 468.338827 114.588332 
L 481.422626 114.588332 
L 481.422626 71.982086 
L 468.338827 71.982086 
z
" clip-path="url(#p0b4dba31e3)" style="fill: #ff7f0e"/>
   </g>
   <g id="matplotlib.axis_1">
    <g id="xtick_1">
     <g id="line2d_1">
      <path d="M 75.824855 114.588332 
L 75.824855 21.50218 
" clip-path="url(#p0b4dba31e3)" style="fill: none; stroke-dasharray: 0.925,0.4; stroke-dashoffset: 0; stroke: #b0b0b0; stroke-opacity: 0.7; stroke-width: 0.25"/>
     </g>
     <g id="line2d_2">
      <defs>
       <path id="ma38e853b6d" d="M 0 0 
L 0 3.5 
" style="stroke: #000000; stroke-width: 0.8"/>
      </defs>
      <g>
       <use xlink:href="#ma38e853b6d" x="75.824855" y="114.588332" style="stroke: #000000; stroke-width: 0.8"/>
      </g>
     </g>
     <g id="text_1">
      <!-- linux_alternates -->
      <g transform="translate(29.474913 171.4606) rotate(-45) scale(0.1 -0.1)">
       <defs>
        <path id="CMSS17-6c" d="M 947 4416 
L 474 4416 
L 474 0 
L 947 0 
L 947 4416 
z
" transform="scale(0.015625)"/>
        <path id="CMSS17-69" d="M 979 4183 
L 442 4183 
L 442 3648 
L 979 3648 
L 979 4183 
z
M 947 2739 
L 474 2739 
L 474 0 
L 947 0 
L 947 2739 
z
" transform="scale(0.015625)"/>
        <path id="CMSS17-6e" d="M 2618 1877 
C 2618 2283 2522 2816 1798 2816 
C 1389 2816 1120 2606 941 2389 
L 941 2758 
L 474 2758 
L 474 0 
L 960 0 
L 960 1559 
C 960 1964 1114 2428 1549 2428 
C 2112 2428 2131 2048 2131 1829 
L 2131 0 
L 2618 0 
L 2618 1877 
z
" transform="scale(0.015625)"/>
        <path id="CMSS17-75" d="M 2618 2739 
L 2131 2739 
L 2131 972 
C 2131 498 1786 306 1421 306 
C 998 306 960 447 960 709 
L 960 2739 
L 474 2739 
L 474 678 
C 474 179 646 -64 1088 -64 
C 1306 -64 1798 -13 2144 306 
L 2144 0 
L 2618 0 
L 2618 2739 
z
" transform="scale(0.015625)"/>
        <path id="CMSS17-78" d="M 1587 1414 
L 2656 2739 
L 2099 2739 
L 1363 1777 
L 602 2739 
L 32 2739 
L 1139 1414 
L 0 0 
L 563 0 
L 1363 1121 
L 2195 0 
L 2758 0 
L 1587 1414 
z
" transform="scale(0.015625)"/>
        <path id="CMSS17-61" d="M 2406 1791 
C 2406 2392 1978 2808 1402 2808 
C 1120 2808 813 2757 461 2553 
L 499 2135 
C 659 2248 934 2432 1395 2432 
C 1722 2432 1920 2180 1920 1782 
L 1920 1536 
C 896 1536 256 1238 256 726 
C 256 461 416 -64 947 -64 
C 1043 -64 1562 -64 1933 217 
L 1933 -19 
L 2406 -19 
L 2406 1791 
z
M 1920 816 
C 1920 701 1920 548 1728 434 
C 1562 325 1350 325 1261 325 
C 941 325 723 511 723 744 
C 723 1211 1722 1211 1920 1211 
L 1920 816 
z
" transform="scale(0.015625)"/>
        <path id="CMSS17-74" d="M 1069 2368 
L 1901 2368 
L 1901 2737 
L 1069 2737 
L 1069 3520 
L 614 3520 
L 614 2737 
L 109 2737 
L 109 2368 
L 602 2368 
L 602 749 
C 602 384 685 -64 1107 -64 
C 1427 -64 1722 25 2003 172 
L 1901 548 
C 1747 414 1562 337 1363 337 
C 1082 337 1069 696 1069 856 
L 1069 2368 
z
" transform="scale(0.015625)"/>
        <path id="CMSS17-65" d="M 2502 1377 
C 2502 1590 2490 2003 2285 2345 
C 2061 2713 1696 2816 1421 2816 
C 755 2816 192 2188 192 1375 
C 192 582 774 -64 1510 -64 
C 1798 -64 2150 19 2470 248 
C 2470 274 2458 414 2451 420 
C 2451 433 2432 630 2432 656 
C 2125 407 1773 325 1517 325 
C 1107 325 666 667 646 1377 
L 2502 1377 
z
M 698 1728 
C 781 2084 1062 2421 1421 2421 
C 1517 2421 1965 2421 2080 1728 
L 698 1728 
z
" transform="scale(0.015625)"/>
        <path id="CMSS17-72" d="M 954 1363 
C 954 1965 1395 2368 1958 2368 
L 1958 2789 
C 1549 2789 1165 2585 934 2253 
L 934 2758 
L 480 2758 
L 480 0 
L 954 0 
L 954 1363 
z
" transform="scale(0.015625)"/>
        <path id="CMSS17-73" d="M 2061 2627 
C 1683 2807 1389 2807 1197 2807 
C 742 2807 198 2648 198 2003 
C 198 1359 902 1218 1094 1179 
C 1389 1122 1715 1058 1715 740 
C 1715 337 1254 337 1171 337 
C 915 337 563 407 243 638 
L 166 210 
C 531 0 883 -64 1178 -64 
C 1965 -64 2163 416 2163 781 
C 2163 1094 1984 1305 1862 1401 
C 1651 1568 1574 1587 1050 1696 
C 960 1709 646 1779 646 2066 
C 646 2432 1050 2432 1139 2432 
C 1555 2432 1811 2303 1984 2208 
L 2061 2627 
z
" transform="scale(0.015625)"/>
       </defs>
       <use xlink:href="#CMSS17-6c" transform="scale(0.996264)"/>
       <use xlink:href="#CMSS17-69" transform="translate(22.180723 0) scale(0.996264)"/>
       <use xlink:href="#CMSS17-6e" transform="translate(44.361446 0) scale(0.996264)"/>
       <use xlink:href="#CMSS17-75" transform="translate(92.566389 0) scale(0.996264)"/>
       <use xlink:href="#CMSS17-78" transform="translate(140.771332 0) scale(0.996264)"/>
       <use xlink:href="#CMSS17-61" transform="translate(217.498969 0) scale(0.996264)"/>
       <use xlink:href="#CMSS17-6c" transform="translate(262.42089 0) scale(0.996264)"/>
       <use xlink:href="#CMSS17-74" transform="translate(284.601613 0) scale(0.996264)"/>
       <use xlink:href="#CMSS17-65" transform="translate(318.43318 0) scale(0.996264)"/>
       <use xlink:href="#CMSS17-72" transform="translate(360.072002 0) scale(0.996264)"/>
       <use xlink:href="#CMSS17-6e" transform="translate(391.981774 0) scale(0.996264)"/>
       <use xlink:href="#CMSS17-61" transform="translate(440.186717 0) scale(0.996264)"/>
       <use xlink:href="#CMSS17-74" transform="translate(485.108638 0) scale(0.996264)"/>
       <use xlink:href="#CMSS17-65" transform="translate(518.940205 0) scale(0.996264)"/>
       <use xlink:href="#CMSS17-73" transform="translate(560.579027 0) scale(0.996264)"/>
       <path d="M 189.392485 0 
L 217.498969 0 
L 217.498969 0.3985 
L 189.392485 0.3985 
L 189.392485 0 
z
"/>
      </g>
     </g>
    </g>
    <g id="xtick_2">
     <g id="line2d_3">
      <path d="M 108.534353 114.588332 
L 108.534353 21.50218 
" clip-path="url(#p0b4dba31e3)" style="fill: none; stroke-dasharray: 0.925,0.4; stroke-dashoffset: 0; stroke: #b0b0b0; stroke-opacity: 0.7; stroke-width: 0.25"/>
     </g>
     <g id="line2d_4">
      <g>
       <use xlink:href="#ma38e853b6d" x="108.534353" y="114.588332" style="stroke: #000000; stroke-width: 0.8"/>
      </g>
     </g>
     <g id="text_2">
      <!-- linux_alternates_casei -->
      <g transform="translate(45.617733 188.027278) rotate(-45) scale(0.1 -0.1)">
       <defs>
        <path id="CMSS17-63" d="M 2464 2541 
C 2464 2585 2170 2714 2093 2739 
C 1882 2816 1613 2816 1542 2816 
C 710 2816 211 2093 211 1363 
C 211 595 768 -64 1517 -64 
C 1946 -64 2253 76 2502 242 
L 2464 664 
C 2189 453 1869 337 1523 337 
C 1024 337 698 774 698 1369 
C 698 1831 909 2414 1549 2414 
C 1901 2414 2099 2343 2394 2145 
L 2464 2541 
z
" transform="scale(0.015625)"/>
       </defs>
       <use xlink:href="#CMSS17-6c" transform="scale(0.996264)"/>
       <use xlink:href="#CMSS17-69" transform="translate(22.180723 0) scale(0.996264)"/>
       <use xlink:href="#CMSS17-6e" transform="translate(44.361446 0) scale(0.996264)"/>
       <use xlink:href="#CMSS17-75" transform="translate(92.566389 0) scale(0.996264)"/>
       <use xlink:href="#CMSS17-78" transform="translate(140.771332 0) scale(0.996264)"/>
       <use xlink:href="#CMSS17-61" transform="translate(217.498969 0) scale(0.996264)"/>
       <use xlink:href="#CMSS17-6c" transform="translate(262.42089 0) scale(0.996264)"/>
       <use xlink:href="#CMSS17-74" transform="translate(284.601613 0) scale(0.996264)"/>
       <use xlink:href="#CMSS17-65" transform="translate(318.43318 0) scale(0.996264)"/>
       <use xlink:href="#CMSS17-72" transform="translate(360.072002 0) scale(0.996264)"/>
       <use xlink:href="#CMSS17-6e" transform="translate(391.981774 0) scale(0.996264)"/>
       <use xlink:href="#CMSS17-61" transform="translate(440.186717 0) scale(0.996264)"/>
       <use xlink:href="#CMSS17-74" transform="translate(485.108638 0) scale(0.996264)"/>
       <use xlink:href="#CMSS17-65" transform="translate(518.940205 0) scale(0.996264)"/>
       <use xlink:href="#CMSS17-73" transform="translate(560.579027 0) scale(0.996264)"/>
       <use xlink:href="#CMSS17-63" transform="translate(630.220064 0) scale(0.996264)"/>
       <use xlink:href="#CMSS17-61" transform="translate(671.858886 0) scale(0.996264)"/>
       <use xlink:href="#CMSS17-73" transform="translate(716.780807 0) scale(0.996264)"/>
       <use xlink:href="#CMSS17-65" transform="translate(752.694349 0) scale(0.996264)"/>
       <use xlink:href="#CMSS17-69" transform="translate(794.333171 0) scale(0.996264)"/>
       <path d="M 189.392485 0 
L 217.498969 0 
L 217.498969 0.3985 
L 189.392485 0.3985 
L 189.392485 0 
z
"/>
       <path d="M 602.11358 0 
L 630.220064 0 
L 630.220064 0.3985 
L 602.11358 0.3985 
L 602.11358 0 
z
"/>
      </g>
     </g>
    </g>
    <g id="xtick_3">
     <g id="line2d_5">
      <path d="M 141.243851 114.588332 
L 141.243851 21.50218 
" clip-path="url(#p0b4dba31e3)" style="fill: none; stroke-dasharray: 0.925,0.4; stroke-dashoffset: 0; stroke: #b0b0b0; stroke-opacity: 0.7; stroke-width: 0.25"/>
     </g>
     <g id="line2d_6">
      <g>
       <use xlink:href="#ma38e853b6d" x="141.243851" y="114.588332" style="stroke: #000000; stroke-width: 0.8"/>
      </g>
     </g>
     <g id="text_3">
      <!-- linux_literal -->
      <g transform="translate(106.928537 159.425971) rotate(-45) scale(0.1 -0.1)">
       <use xlink:href="#CMSS17-6c" transform="scale(0.996264)"/>
       <use xlink:href="#CMSS17-69" transform="translate(22.180723 0) scale(0.996264)"/>
       <use xlink:href="#CMSS17-6e" transform="translate(44.361446 0) scale(0.996264)"/>
       <use xlink:href="#CMSS17-75" transform="translate(92.566389 0) scale(0.996264)"/>
       <use xlink:href="#CMSS17-78" transform="translate(140.771332 0) scale(0.996264)"/>
       <use xlink:href="#CMSS17-6c" transform="translate(217.498969 0) scale(0.996264)"/>
       <use xlink:href="#CMSS17-69" transform="translate(239.679692 0) scale(0.996264)"/>
       <use xlink:href="#CMSS17-74" transform="translate(261.860415 0) scale(0.996264)"/>
       <use xlink:href="#CMSS17-65" transform="translate(295.691982 0) scale(0.996264)"/>
       <use xlink:href="#CMSS17-72" transform="translate(337.330804 0) scale(0.996264)"/>
       <use xlink:href="#CMSS17-61" transform="translate(369.240577 0) scale(0.996264)"/>
       <use xlink:href="#CMSS17-6c" transform="translate(414.162497 0) scale(0.996264)"/>
       <path d="M 189.392485 0 
L 217.498969 0 
L 217.498969 0.3985 
L 189.392485 0.3985 
L 189.392485 0 
z
"/>
      </g>
     </g>
    </g>
    <g id="xtick_4">
     <g id="line2d_7">
      <path d="M 173.953348 114.588332 
L 173.953348 21.50218 
" clip-path="url(#p0b4dba31e3)" style="fill: none; stroke-dasharray: 0.925,0.4; stroke-dashoffset: 0; stroke: #b0b0b0; stroke-opacity: 0.7; stroke-width: 0.25"/>
     </g>
     <g id="line2d_8">
      <g>
       <use xlink:href="#ma38e853b6d" x="173.953348" y="114.588332" style="stroke: #000000; stroke-width: 0.8"/>
      </g>
     </g>
     <g id="text_4">
      <!-- linux_literal_casei -->
      <g transform="translate(123.071357 175.992649) rotate(-45) scale(0.1 -0.1)">
       <use xlink:href="#CMSS17-6c" transform="scale(0.996264)"/>
       <use xlink:href="#CMSS17-69" transform="translate(22.180723 0) scale(0.996264)"/>
       <use xlink:href="#CMSS17-6e" transform="translate(44.361446 0) scale(0.996264)"/>
       <use xlink:href="#CMSS17-75" transform="translate(92.566389 0) scale(0.996264)"/>
       <use xlink:href="#CMSS17-78" transform="translate(140.771332 0) scale(0.996264)"/>
       <use xlink:href="#CMSS17-6c" transform="translate(217.498969 0) scale(0.996264)"/>
       <use xlink:href="#CMSS17-69" transform="translate(239.679692 0) scale(0.996264)"/>
       <use xlink:href="#CMSS17-74" transform="translate(261.860415 0) scale(0.996264)"/>
       <use xlink:href="#CMSS17-65" transform="translate(295.691982 0) scale(0.996264)"/>
       <use xlink:href="#CMSS17-72" transform="translate(337.330804 0) scale(0.996264)"/>
       <use xlink:href="#CMSS17-61" transform="translate(369.240577 0) scale(0.996264)"/>
       <use xlink:href="#CMSS17-6c" transform="translate(414.162497 0) scale(0.996264)"/>
       <use xlink:href="#CMSS17-63" transform="translate(470.070716 0) scale(0.996264)"/>
       <use xlink:href="#CMSS17-61" transform="translate(511.709538 0) scale(0.996264)"/>
       <use xlink:href="#CMSS17-73" transform="translate(556.631458 0) scale(0.996264)"/>
       <use xlink:href="#CMSS17-65" transform="translate(592.545 0) scale(0.996264)"/>
       <use xlink:href="#CMSS17-69" transform="translate(634.183822 0) scale(0.996264)"/>
       <path d="M 189.392485 0 
L 217.498969 0 
L 217.498969 0.3985 
L 189.392485 0.3985 
L 189.392485 0 
z
"/>
       <path d="M 441.964231 0 
L 470.070716 0 
L 470.070716 0.3985 
L 441.964231 0.3985 
L 441.964231 0 
z
"/>
      </g>
     </g>
    </g>
    <g id="xtick_5">
     <g id="line2d_9">
      <path d="M 206.662846 114.588332 
L 206.662846 21.50218 
" clip-path="url(#p0b4dba31e3)" style="fill: none; stroke-dasharray: 0.925,0.4; stroke-dashoffset: 0; stroke: #b0b0b0; stroke-opacity: 0.7; stroke-width: 0.25"/>
     </g>
     <g id="line2d_10">
      <g>
       <use xlink:href="#ma38e853b6d" x="206.662846" y="114.588332" style="stroke: #000000; stroke-width: 0.8"/>
      </g>
     </g>
     <g id="text_5">
      <!-- linux_literal_casei_mmap -->
      <g transform="translate(135.026493 196.74701) rotate(-45) scale(0.1 -0.1)">
       <defs>
        <path id="CMSS17-6d" d="M 4288 1877 
C 4288 2308 4179 2816 3462 2816 
C 2982 2816 2694 2516 2566 2331 
C 2451 2670 2182 2816 1798 2816 
C 1363 2816 1088 2568 941 2389 
L 941 2758 
L 474 2758 
L 474 0 
L 960 0 
L 960 1559 
C 960 1939 1101 2428 1555 2428 
C 2138 2428 2138 2016 2138 1829 
L 2138 0 
L 2624 0 
L 2624 1559 
C 2624 1939 2765 2428 3219 2428 
C 3802 2428 3802 2016 3802 1829 
L 3802 0 
L 4288 0 
L 4288 1877 
z
" transform="scale(0.015625)"/>
        <path id="CMSS17-70" d="M 966 333 
C 1178 129 1466 -5 1773 -5 
C 2368 -5 2880 603 2880 1412 
C 2880 2159 2496 2816 1946 2816 
C 1626 2816 1242 2702 954 2472 
L 954 2765 
L 480 2765 
L 480 -1216 
L 966 -1216 
L 966 333 
z
M 966 2100 
C 1018 2176 1235 2415 1587 2415 
C 2035 2415 2394 1960 2394 1412 
C 2394 787 1958 384 1530 384 
C 1402 384 1267 415 1139 523 
C 966 674 966 768 966 857 
L 966 2100 
z
" transform="scale(0.015625)"/>
       </defs>
       <use xlink:href="#CMSS17-6c" transform="scale(0.996264)"/>
       <use xlink:href="#CMSS17-69" transform="translate(22.180723 0) scale(0.996264)"/>
       <use xlink:href="#CMSS17-6e" transform="translate(44.361446 0) scale(0.996264)"/>
       <use xlink:href="#CMSS17-75" transform="translate(92.566389 0) scale(0.996264)"/>
       <use xlink:href="#CMSS17-78" transform="translate(140.771332 0) scale(0.996264)"/>
       <use xlink:href="#CMSS17-6c" transform="translate(217.498969 0) scale(0.996264)"/>
       <use xlink:href="#CMSS17-69" transform="translate(239.679692 0) scale(0.996264)"/>
       <use xlink:href="#CMSS17-74" transform="translate(261.860415 0) scale(0.996264)"/>
       <use xlink:href="#CMSS17-65" transform="translate(295.691982 0) scale(0.996264)"/>
       <use xlink:href="#CMSS17-72" transform="translate(337.330804 0) scale(0.996264)"/>
       <use xlink:href="#CMSS17-61" transform="translate(369.240577 0) scale(0.996264)"/>
       <use xlink:href="#CMSS17-6c" transform="translate(414.162497 0) scale(0.996264)"/>
       <use xlink:href="#CMSS17-63" transform="translate(470.070716 0) scale(0.996264)"/>
       <use xlink:href="#CMSS17-61" transform="translate(511.709538 0) scale(0.996264)"/>
       <use xlink:href="#CMSS17-73" transform="translate(556.631458 0) scale(0.996264)"/>
       <use xlink:href="#CMSS17-65" transform="translate(592.545 0) scale(0.996264)"/>
       <use xlink:href="#CMSS17-69" transform="translate(634.183822 0) scale(0.996264)"/>
       <use xlink:href="#CMSS17-6d" transform="translate(690.092041 0) scale(0.996264)"/>
       <use xlink:href="#CMSS17-6d" transform="translate(764.321295 0) scale(0.996264)"/>
       <use xlink:href="#CMSS17-61" transform="translate(838.55055 0) scale(0.996264)"/>
       <use xlink:href="#CMSS17-70" transform="translate(883.47247 0) scale(0.996264)"/>
       <path d="M 189.392485 0 
L 217.498969 0 
L 217.498969 0.3985 
L 189.392485 0.3985 
L 189.392485 0 
z
"/>
       <path d="M 441.964231 0 
L 470.070716 0 
L 470.070716 0.3985 
L 441.964231 0.3985 
L 441.964231 0 
z
"/>
       <path d="M 661.985556 0 
L 690.092041 0 
L 690.092041 0.3985 
L 661.985556 0.3985 
L 661.985556 0 
z
"/>
      </g>
     </g>
    </g>
    <g id="xtick_6">
     <g id="line2d_11">
      <path d="M 239.372343 114.588332 
L 239.372343 21.50218 
" clip-path="url(#p0b4dba31e3)" style="fill: none; stroke-dasharray: 0.925,0.4; stroke-dashoffset: 0; stroke: #b0b0b0; stroke-opacity: 0.7; stroke-width: 0.25"/>
     </g>
     <g id="line2d_12">
      <g>
       <use xlink:href="#ma38e853b6d" x="239.372343" y="114.588332" style="stroke: #000000; stroke-width: 0.8"/>
      </g>
     </g>
     <g id="text_6">
      <!-- linux_literal_default -->
      <g transform="translate(182.345826 182.137175) rotate(-45) scale(0.1 -0.1)">
       <defs>
        <path id="CMSS17-64" d="M 2611 4416 
L 2138 4416 
L 2138 2438 
C 1939 2603 1613 2756 1254 2756 
C 672 2756 211 2131 211 1347 
C 211 562 666 -64 1235 -64 
C 1677 -64 1971 172 2125 306 
L 2125 -13 
L 2611 -13 
L 2611 4416 
z
M 2125 836 
C 2125 747 2125 653 1926 482 
C 1798 375 1645 325 1498 325 
C 1152 325 698 576 698 1340 
C 698 2134 1210 2368 1562 2368 
C 1798 2368 1990 2254 2125 2065 
L 2125 836 
z
" transform="scale(0.015625)"/>
        <path id="CMSS17-66" d="M 1075 2368 
L 1722 2368 
L 1722 2737 
L 1062 2737 
L 1062 3559 
C 1062 4014 1408 4092 1606 4092 
C 1670 4092 1850 4092 2080 4009 
L 2080 4429 
C 1933 4461 1754 4480 1613 4480 
C 1018 4480 602 3993 602 3359 
L 602 2737 
L 160 2737 
L 160 2368 
L 602 2368 
L 602 0 
L 1075 0 
L 1075 2368 
z
" transform="scale(0.015625)"/>
       </defs>
       <use xlink:href="#CMSS17-6c" transform="scale(0.996264)"/>
       <use xlink:href="#CMSS17-69" transform="translate(22.180723 0) scale(0.996264)"/>
       <use xlink:href="#CMSS17-6e" transform="translate(44.361446 0) scale(0.996264)"/>
       <use xlink:href="#CMSS17-75" transform="translate(92.566389 0) scale(0.996264)"/>
       <use xlink:href="#CMSS17-78" transform="translate(140.771332 0) scale(0.996264)"/>
       <use xlink:href="#CMSS17-6c" transform="translate(217.498969 0) scale(0.996264)"/>
       <use xlink:href="#CMSS17-69" transform="translate(239.679692 0) scale(0.996264)"/>
       <use xlink:href="#CMSS17-74" transform="translate(261.860415 0) scale(0.996264)"/>
       <use xlink:href="#CMSS17-65" transform="translate(295.691982 0) scale(0.996264)"/>
       <use xlink:href="#CMSS17-72" transform="translate(337.330804 0) scale(0.996264)"/>
       <use xlink:href="#CMSS17-61" transform="translate(369.240577 0) scale(0.996264)"/>
       <use xlink:href="#CMSS17-6c" transform="translate(414.162497 0) scale(0.996264)"/>
       <use xlink:href="#CMSS17-64" transform="translate(470.070716 0) scale(0.996264)"/>
       <use xlink:href="#CMSS17-65" transform="translate(518.275659 0) scale(0.996264)"/>
       <use xlink:href="#CMSS17-66" transform="translate(559.914481 0) scale(0.996264)"/>
       <use xlink:href="#CMSS17-61" transform="translate(588.54114 0) scale(0.996264)"/>
       <use xlink:href="#CMSS17-75" transform="translate(633.46306 0) scale(0.996264)"/>
       <use xlink:href="#CMSS17-6c" transform="translate(681.668003 0) scale(0.996264)"/>
       <use xlink:href="#CMSS17-74" transform="translate(703.848726 0) scale(0.996264)"/>
       <path d="M 189.392485 0 
L 217.498969 0 
L 217.498969 0.3985 
L 189.392485 0.3985 
L 189.392485 0 
z
"/>
       <path d="M 441.964231 0 
L 470.070716 0 
L 470.070716 0.3985 
L 441.964231 0.3985 
L 441.964231 0 
z
"/>
      </g>
     </g>
    </g>
    <g id="xtick_7">
     <g id="line2d_13">
      <path d="M 272.081841 114.588332 
L 272.081841 21.50218 
" clip-path="url(#p0b4dba31e3)" style="fill: none; stroke-dasharray: 0.925,0.4; stroke-dashoffset: 0; stroke: #b0b0b0; stroke-opacity: 0.7; stroke-width: 0.25"/>
     </g>
     <g id="line2d_14">
      <g>
       <use xlink:href="#ma38e853b6d" x="272.081841" y="114.588332" style="stroke: #000000; stroke-width: 0.8"/>
      </g>
     </g>
     <g id="text_7">
      <!-- linux_literal_mmap -->
      <g transform="translate(217.012166 180.180333) rotate(-45) scale(0.1 -0.1)">
       <use xlink:href="#CMSS17-6c" transform="scale(0.996264)"/>
       <use xlink:href="#CMSS17-69" transform="translate(22.180723 0) scale(0.996264)"/>
       <use xlink:href="#CMSS17-6e" transform="translate(44.361446 0) scale(0.996264)"/>
       <use xlink:href="#CMSS17-75" transform="translate(92.566389 0) scale(0.996264)"/>
       <use xlink:href="#CMSS17-78" transform="translate(140.771332 0) scale(0.996264)"/>
       <use xlink:href="#CMSS17-6c" transform="translate(217.498969 0) scale(0.996264)"/>
       <use xlink:href="#CMSS17-69" transform="translate(239.679692 0) scale(0.996264)"/>
       <use xlink:href="#CMSS17-74" transform="translate(261.860415 0) scale(0.996264)"/>
       <use xlink:href="#CMSS17-65" transform="translate(295.691982 0) scale(0.996264)"/>
       <use xlink:href="#CMSS17-72" transform="translate(337.330804 0) scale(0.996264)"/>
       <use xlink:href="#CMSS17-61" transform="translate(369.240577 0) scale(0.996264)"/>
       <use xlink:href="#CMSS17-6c" transform="translate(414.162497 0) scale(0.996264)"/>
       <use xlink:href="#CMSS17-6d" transform="translate(470.070716 0) scale(0.996264)"/>
       <use xlink:href="#CMSS17-6d" transform="translate(544.29997 0) scale(0.996264)"/>
       <use xlink:href="#CMSS17-61" transform="translate(618.529225 0) scale(0.996264)"/>
       <use xlink:href="#CMSS17-70" transform="translate(663.451145 0) scale(0.996264)"/>
       <path d="M 189.392485 0 
L 217.498969 0 
L 217.498969 0.3985 
L 189.392485 0.3985 
L 189.392485 0 
z
"/>
       <path d="M 441.964231 0 
L 470.070716 0 
L 470.070716 0.3985 
L 441.964231 0.3985 
L 441.964231 0 
z
"/>
      </g>
     </g>
    </g>
    <g id="xtick_8">
     <g id="line2d_15">
      <path d="M 304.791339 114.588332 
L 304.791339 21.50218 
" clip-path="url(#p0b4dba31e3)" style="fill: none; stroke-dasharray: 0.925,0.4; stroke-dashoffset: 0; stroke: #b0b0b0; stroke-opacity: 0.7; stroke-width: 0.25"/>
     </g>
     <g id="line2d_16">
      <g>
       <use xlink:href="#ma38e853b6d" x="304.791339" y="114.588332" style="stroke: #000000; stroke-width: 0.8"/>
      </g>
     </g>
     <g id="text_8">
      <!-- linux_re_literal_suffix -->
      <g transform="translate(244.543841 185.358155) rotate(-45) scale(0.1 -0.1)">
       <defs>
        <path id="CMSS17-e" d="M 4422 4416 
L 3910 4416 
L 3910 3906 
L 4422 3906 
L 4422 4416 
z
M 4403 2737 
L 3930 2737 
L 3930 0 
L 4403 0 
L 4403 2737 
z
M 2739 2368 
L 3437 2368 
L 3437 2737 
L 2726 2737 
L 2726 3578 
C 2726 3919 2880 4092 3085 4092 
C 3226 4092 3360 4042 3437 3992 
L 3437 4416 
C 3322 4461 3270 4480 3085 4480 
C 2605 4480 2266 3995 2266 3376 
L 2266 0 
L 2739 0 
L 2739 2368 
z
M 1075 2368 
L 1773 2368 
L 1773 2737 
L 1062 2737 
L 1062 3565 
C 1062 3995 1325 4092 1510 4092 
C 1619 4092 1773 4070 1920 3999 
L 1920 4410 
C 1754 4480 1728 4480 1510 4480 
C 986 4480 602 3999 602 3366 
L 602 2737 
L 160 2737 
L 160 2368 
L 602 2368 
L 602 0 
L 1075 0 
L 1075 2368 
z
" transform="scale(0.015625)"/>
       </defs>
       <use xlink:href="#CMSS17-6c" transform="scale(0.996264)"/>
       <use xlink:href="#CMSS17-69" transform="translate(22.180723 0) scale(0.996264)"/>
       <use xlink:href="#CMSS17-6e" transform="translate(44.361446 0) scale(0.996264)"/>
       <use xlink:href="#CMSS17-75" transform="translate(92.566389 0) scale(0.996264)"/>
       <use xlink:href="#CMSS17-78" transform="translate(140.771332 0) scale(0.996264)"/>
       <use xlink:href="#CMSS17-72" transform="translate(217.498969 0) scale(0.996264)"/>
       <use xlink:href="#CMSS17-65" transform="translate(249.408742 0) scale(0.996264)"/>
       <use xlink:href="#CMSS17-6c" transform="translate(324.775059 0) scale(0.996264)"/>
       <use xlink:href="#CMSS17-69" transform="translate(346.955782 0) scale(0.996264)"/>
       <use xlink:href="#CMSS17-74" transform="translate(369.136505 0) scale(0.996264)"/>
       <use xlink:href="#CMSS17-65" transform="translate(402.968072 0) scale(0.996264)"/>
       <use xlink:href="#CMSS17-72" transform="translate(444.606894 0) scale(0.996264)"/>
       <use xlink:href="#CMSS17-61" transform="translate(476.516667 0) scale(0.996264)"/>
       <use xlink:href="#CMSS17-6c" transform="translate(521.438587 0) scale(0.996264)"/>
       <use xlink:href="#CMSS17-73" transform="translate(577.346806 0) scale(0.996264)"/>
       <use xlink:href="#CMSS17-75" transform="translate(613.260348 0) scale(0.996264)"/>
       <use xlink:href="#CMSS17-e" transform="translate(661.465291 0) scale(0.996264)"/>
       <use xlink:href="#CMSS17-78" transform="translate(737.616233 0) scale(0.996264)"/>
       <path d="M 189.392485 0 
L 217.498969 0 
L 217.498969 0.3985 
L 189.392485 0.3985 
L 189.392485 0 
z
"/>
       <path d="M 296.668575 0 
L 324.775059 0 
L 324.775059 0.3985 
L 296.668575 0.3985 
L 296.668575 0 
z
"/>
       <path d="M 549.240321 0 
L 577.346806 0 
L 577.346806 0.3985 
L 549.240321 0.3985 
L 549.240321 0 
z
"/>
      </g>
     </g>
    </g>
    <g id="xtick_9">
     <g id="line2d_17">
      <path d="M 337.500836 114.588332 
L 337.500836 21.50218 
" clip-path="url(#p0b4dba31e3)" style="fill: none; stroke-dasharray: 0.925,0.4; stroke-dashoffset: 0; stroke: #b0b0b0; stroke-opacity: 0.7; stroke-width: 0.25"/>
     </g>
     <g id="line2d_18">
      <g>
       <use xlink:href="#ma38e853b6d" x="337.500836" y="114.588332" style="stroke: #000000; stroke-width: 0.8"/>
      </g>
     </g>
     <g id="text_9">
      <!-- linux_unicode_greek -->
      <g transform="translate(278.947963 183.663531) rotate(-45) scale(0.1 -0.1)">
       <defs>
        <path id="CMSS17-6f" d="M 2829 1356 
C 2829 2176 2221 2816 1504 2816 
C 768 2816 173 2157 173 1356 
C 173 544 787 -64 1498 -64 
C 2227 -64 2829 563 2829 1356 
z
M 1504 337 
C 1050 337 659 709 659 1408 
C 659 2151 1114 2427 1498 2427 
C 1914 2427 2342 2126 2342 1408 
C 2342 683 1926 337 1504 337 
z
" transform="scale(0.015625)"/>
        <path id="CMSS17-67" d="M 2848 2808 
C 2483 2808 2170 2738 1914 2617 
C 1702 2777 1485 2808 1338 2808 
C 781 2808 358 2349 358 1814 
C 358 1468 550 1207 563 1195 
C 448 1035 384 863 384 672 
C 384 448 474 289 544 200 
C 211 -3 166 -314 166 -435 
C 166 -898 749 -1280 1498 -1280 
C 2253 -1280 2835 -898 2835 -428 
C 2835 448 1856 448 1587 448 
L 1069 448 
C 973 448 717 448 717 791 
C 717 921 774 1004 781 1010 
C 877 940 1075 832 1338 832 
C 1869 832 2310 1278 2310 1827 
C 2310 2132 2170 2355 2112 2432 
L 2131 2432 
C 2150 2432 2419 2432 2515 2432 
C 2720 2432 2739 2429 2918 2419 
L 2848 2808 
z
M 1338 1182 
C 1120 1182 813 1315 813 1823 
C 813 2375 1165 2464 1331 2464 
C 1549 2464 1856 2331 1856 1823 
C 1856 1271 1504 1182 1338 1182 
z
M 1581 -10 
C 1734 -10 2381 -10 2381 -442 
C 2381 -714 1984 -929 1504 -929 
C 1018 -929 621 -720 621 -435 
C 621 -403 621 -10 1062 -10 
L 1581 -10 
z
" transform="scale(0.015625)"/>
        <path id="CMSS17-6b" d="M 1696 1688 
L 2688 2739 
L 2074 2739 
L 954 1554 
L 954 4416 
L 480 4416 
L 480 0 
L 947 0 
L 947 892 
L 1376 1344 
L 2278 0 
L 2822 0 
L 1696 1688 
z
" transform="scale(0.015625)"/>
       </defs>
       <use xlink:href="#CMSS17-6c" transform="scale(0.996264)"/>
       <use xlink:href="#CMSS17-69" transform="translate(22.180723 0) scale(0.996264)"/>
       <use xlink:href="#CMSS17-6e" transform="translate(44.361446 0) scale(0.996264)"/>
       <use xlink:href="#CMSS17-75" transform="translate(92.566389 0) scale(0.996264)"/>
       <use xlink:href="#CMSS17-78" transform="translate(140.771332 0) scale(0.996264)"/>
       <use xlink:href="#CMSS17-75" transform="translate(217.498969 0) scale(0.996264)"/>
       <use xlink:href="#CMSS17-6e" transform="translate(265.703912 0) scale(0.996264)"/>
       <use xlink:href="#CMSS17-69" transform="translate(313.908856 0) scale(0.996264)"/>
       <use xlink:href="#CMSS17-63" transform="translate(336.089579 0) scale(0.996264)"/>
       <use xlink:href="#CMSS17-6f" transform="translate(377.728401 0) scale(0.996264)"/>
       <use xlink:href="#CMSS17-64" transform="translate(427.174463 0) scale(0.996264)"/>
       <use xlink:href="#CMSS17-65" transform="translate(475.379406 0) scale(0.996264)"/>
       <use xlink:href="#CMSS17-67" transform="translate(550.745723 0) scale(0.996264)"/>
       <use xlink:href="#CMSS17-72" transform="translate(597.589347 0) scale(0.996264)"/>
       <use xlink:href="#CMSS17-65" transform="translate(629.49912 0) scale(0.996264)"/>
       <use xlink:href="#CMSS17-65" transform="translate(671.137942 0) scale(0.996264)"/>
       <use xlink:href="#CMSS17-6b" transform="translate(712.776764 0) scale(0.996264)"/>
       <path d="M 189.392485 0 
L 217.498969 0 
L 217.498969 0.3985 
L 189.392485 0.3985 
L 189.392485 0 
z
"/>
       <path d="M 522.639239 0 
L 550.745723 0 
L 550.745723 0.3985 
L 522.639239 0.3985 
L 522.639239 0 
z
"/>
      </g>
     </g>
    </g>
    <g id="xtick_10">
     <g id="line2d_19">
      <path d="M 370.210334 114.588332 
L 370.210334 21.50218 
" clip-path="url(#p0b4dba31e3)" style="fill: none; stroke-dasharray: 0.925,0.4; stroke-dashoffset: 0; stroke: #b0b0b0; stroke-opacity: 0.7; stroke-width: 0.25"/>
     </g>
     <g id="line2d_20">
      <g>
       <use xlink:href="#ma38e853b6d" x="370.210334" y="114.588332" style="stroke: #000000; stroke-width: 0.8"/>
      </g>
     </g>
     <g id="text_10">
      <!-- linux_unicode_greek_casei -->
      <g transform="translate(295.090783 200.230208) rotate(-45) scale(0.1 -0.1)">
       <use xlink:href="#CMSS17-6c" transform="scale(0.996264)"/>
       <use xlink:href="#CMSS17-69" transform="translate(22.180723 0) scale(0.996264)"/>
       <use xlink:href="#CMSS17-6e" transform="translate(44.361446 0) scale(0.996264)"/>
       <use xlink:href="#CMSS17-75" transform="translate(92.566389 0) scale(0.996264)"/>
       <use xlink:href="#CMSS17-78" transform="translate(140.771332 0) scale(0.996264)"/>
       <use xlink:href="#CMSS17-75" transform="translate(217.498969 0) scale(0.996264)"/>
       <use xlink:href="#CMSS17-6e" transform="translate(265.703912 0) scale(0.996264)"/>
       <use xlink:href="#CMSS17-69" transform="translate(313.908856 0) scale(0.996264)"/>
       <use xlink:href="#CMSS17-63" transform="translate(336.089579 0) scale(0.996264)"/>
       <use xlink:href="#CMSS17-6f" transform="translate(377.728401 0) scale(0.996264)"/>
       <use xlink:href="#CMSS17-64" transform="translate(427.174463 0) scale(0.996264)"/>
       <use xlink:href="#CMSS17-65" transform="translate(475.379406 0) scale(0.996264)"/>
       <use xlink:href="#CMSS17-67" transform="translate(550.745723 0) scale(0.996264)"/>
       <use xlink:href="#CMSS17-72" transform="translate(597.589347 0) scale(0.996264)"/>
       <use xlink:href="#CMSS17-65" transform="translate(629.49912 0) scale(0.996264)"/>
       <use xlink:href="#CMSS17-65" transform="translate(671.137942 0) scale(0.996264)"/>
       <use xlink:href="#CMSS17-6b" transform="translate(712.776764 0) scale(0.996264)"/>
       <use xlink:href="#CMSS17-63" transform="translate(792.106748 0) scale(0.996264)"/>
       <use xlink:href="#CMSS17-61" transform="translate(833.74557 0) scale(0.996264)"/>
       <use xlink:href="#CMSS17-73" transform="translate(878.667491 0) scale(0.996264)"/>
       <use xlink:href="#CMSS17-65" transform="translate(914.581033 0) scale(0.996264)"/>
       <use xlink:href="#CMSS17-69" transform="translate(956.219855 0) scale(0.996264)"/>
       <path d="M 189.392485 0 
L 217.498969 0 
L 217.498969 0.3985 
L 189.392485 0.3985 
L 189.392485 0 
z
"/>
       <path d="M 522.639239 0 
L 550.745723 0 
L 550.745723 0.3985 
L 522.639239 0.3985 
L 522.639239 0 
z
"/>
       <path d="M 764.000264 0 
L 792.106748 0 
L 792.106748 0.3985 
L 764.000264 0.3985 
L 764.000264 0 
z
"/>
      </g>
     </g>
    </g>
    <g id="xtick_11">
     <g id="line2d_21">
      <path d="M 402.919831 114.588332 
L 402.919831 21.50218 
" clip-path="url(#p0b4dba31e3)" style="fill: none; stroke-dasharray: 0.925,0.4; stroke-dashoffset: 0; stroke: #b0b0b0; stroke-opacity: 0.7; stroke-width: 0.25"/>
     </g>
     <g id="line2d_22">
      <g>
       <use xlink:href="#ma38e853b6d" x="402.919831" y="114.588332" style="stroke: #000000; stroke-width: 0.8"/>
      </g>
     </g>
     <g id="text_11">
      <!-- linux_unicode_word_1 -->
      <g transform="translate(339.952303 188.078186) rotate(-45) scale(0.1 -0.1)">
       <defs>
        <path id="CMSS17-77" d="M 4013 2752 
L 3526 2752 
L 3187 1601 
C 3117 1358 2918 685 2893 371 
L 2886 371 
C 2874 564 2765 1024 2586 1633 
L 2259 2752 
L 1818 2752 
L 1498 1658 
C 1338 1101 1216 627 1203 371 
L 1197 371 
C 1171 749 909 1633 870 1773 
L 582 2752 
L 83 2752 
L 915 0 
L 1402 0 
C 1734 1096 1990 1943 2010 2370 
C 2022 2160 2131 1707 2195 1484 
L 2618 0 
L 3181 0 
L 4013 2752 
z
" transform="scale(0.015625)"/>
        <path id="CMSS17-31" d="M 1818 4288 
L 1696 4288 
C 1350 3940 947 3890 538 3890 
L 538 3520 
C 723 3520 1024 3520 1325 3667 
L 1325 369 
L 570 369 
L 570 0 
L 2573 0 
L 2573 369 
L 1818 369 
L 1818 4288 
z
" transform="scale(0.015625)"/>
       </defs>
       <use xlink:href="#CMSS17-6c" transform="scale(0.996264)"/>
       <use xlink:href="#CMSS17-69" transform="translate(22.180723 0) scale(0.996264)"/>
       <use xlink:href="#CMSS17-6e" transform="translate(44.361446 0) scale(0.996264)"/>
       <use xlink:href="#CMSS17-75" transform="translate(92.566389 0) scale(0.996264)"/>
       <use xlink:href="#CMSS17-78" transform="translate(140.771332 0) scale(0.996264)"/>
       <use xlink:href="#CMSS17-75" transform="translate(217.498969 0) scale(0.996264)"/>
       <use xlink:href="#CMSS17-6e" transform="translate(265.703912 0) scale(0.996264)"/>
       <use xlink:href="#CMSS17-69" transform="translate(313.908856 0) scale(0.996264)"/>
       <use xlink:href="#CMSS17-63" transform="translate(336.089579 0) scale(0.996264)"/>
       <use xlink:href="#CMSS17-6f" transform="translate(377.728401 0) scale(0.996264)"/>
       <use xlink:href="#CMSS17-64" transform="translate(427.174463 0) scale(0.996264)"/>
       <use xlink:href="#CMSS17-65" transform="translate(475.379406 0) scale(0.996264)"/>
       <use xlink:href="#CMSS17-77" transform="translate(550.745723 0) scale(0.996264)"/>
       <use xlink:href="#CMSS17-6f" transform="translate(611.962815 0) scale(0.996264)"/>
       <use xlink:href="#CMSS17-72" transform="translate(656.203984 0) scale(0.996264)"/>
       <use xlink:href="#CMSS17-64" transform="translate(688.113757 0) scale(0.996264)"/>
       <use xlink:href="#CMSS17-31" transform="translate(770.046195 0) scale(0.996264)"/>
       <path d="M 189.392485 0 
L 217.498969 0 
L 217.498969 0.3985 
L 189.392485 0.3985 
L 189.392485 0 
z
"/>
       <path d="M 522.639239 0 
L 550.745723 0 
L 550.745723 0.3985 
L 522.639239 0.3985 
L 522.639239 0 
z
"/>
       <path d="M 741.939711 0 
L 770.046195 0 
L 770.046195 0.3985 
L 741.939711 0.3985 
L 741.939711 0 
z
"/>
      </g>
     </g>
    </g>
    <g id="xtick_12">
     <g id="line2d_23">
      <path d="M 435.629329 114.588332 
L 435.629329 21.50218 
" clip-path="url(#p0b4dba31e3)" style="fill: none; stroke-dasharray: 0.925,0.4; stroke-dashoffset: 0; stroke: #b0b0b0; stroke-opacity: 0.7; stroke-width: 0.25"/>
     </g>
     <g id="line2d_24">
      <g>
       <use xlink:href="#ma38e853b6d" x="435.629329" y="114.588332" style="stroke: #000000; stroke-width: 0.8"/>
      </g>
     </g>
     <g id="text_12">
      <!-- linux_unicode_word_2 -->
      <g transform="translate(372.6618 188.078186) rotate(-45) scale(0.1 -0.1)">
       <defs>
        <path id="CMSS17-32" d="M 1651 1357 
C 1830 1541 2099 1764 2285 1987 
C 2464 2204 2701 2511 2701 2957 
C 2701 3657 2227 4288 1421 4288 
C 787 4288 422 3893 250 3274 
L 499 2929 
C 640 3510 838 3880 1338 3880 
C 1888 3880 2195 3433 2195 2942 
C 2195 2355 1747 1901 1408 1563 
C 1030 1187 659 804 301 408 
L 301 0 
L 2701 0 
L 2701 433 
L 1613 433 
C 1536 433 1459 433 1382 433 
L 742 433 
L 742 439 
L 1651 1357 
z
" transform="scale(0.015625)"/>
       </defs>
       <use xlink:href="#CMSS17-6c" transform="scale(0.996264)"/>
       <use xlink:href="#CMSS17-69" transform="translate(22.180723 0) scale(0.996264)"/>
       <use xlink:href="#CMSS17-6e" transform="translate(44.361446 0) scale(0.996264)"/>
       <use xlink:href="#CMSS17-75" transform="translate(92.566389 0) scale(0.996264)"/>
       <use xlink:href="#CMSS17-78" transform="translate(140.771332 0) scale(0.996264)"/>
       <use xlink:href="#CMSS17-75" transform="translate(217.498969 0) scale(0.996264)"/>
       <use xlink:href="#CMSS17-6e" transform="translate(265.703912 0) scale(0.996264)"/>
       <use xlink:href="#CMSS17-69" transform="translate(313.908856 0) scale(0.996264)"/>
       <use xlink:href="#CMSS17-63" transform="translate(336.089579 0) scale(0.996264)"/>
       <use xlink:href="#CMSS17-6f" transform="translate(377.728401 0) scale(0.996264)"/>
       <use xlink:href="#CMSS17-64" transform="translate(427.174463 0) scale(0.996264)"/>
       <use xlink:href="#CMSS17-65" transform="translate(475.379406 0) scale(0.996264)"/>
       <use xlink:href="#CMSS17-77" transform="translate(550.745723 0) scale(0.996264)"/>
       <use xlink:href="#CMSS17-6f" transform="translate(611.962815 0) scale(0.996264)"/>
       <use xlink:href="#CMSS17-72" transform="translate(656.203984 0) scale(0.996264)"/>
       <use xlink:href="#CMSS17-64" transform="translate(688.113757 0) scale(0.996264)"/>
       <use xlink:href="#CMSS17-32" transform="translate(770.046195 0) scale(0.996264)"/>
       <path d="M 189.392485 0 
L 217.498969 0 
L 217.498969 0.3985 
L 189.392485 0.3985 
L 189.392485 0 
z
"/>
       <path d="M 522.639239 0 
L 550.745723 0 
L 550.745723 0.3985 
L 522.639239 0.3985 
L 522.639239 0 
z
"/>
       <path d="M 741.939711 0 
L 770.046195 0 
L 770.046195 0.3985 
L 741.939711 0.3985 
L 741.939711 0 
z
"/>
      </g>
     </g>
    </g>
    <g id="xtick_13">
     <g id="line2d_25">
      <path d="M 468.338827 114.588332 
L 468.338827 21.50218 
" clip-path="url(#p0b4dba31e3)" style="fill: none; stroke-dasharray: 0.925,0.4; stroke-dashoffset: 0; stroke: #b0b0b0; stroke-opacity: 0.7; stroke-width: 0.25"/>
     </g>
     <g id="line2d_26">
      <g>
       <use xlink:href="#ma38e853b6d" x="468.338827" y="114.588332" style="stroke: #000000; stroke-width: 0.8"/>
      </g>
     </g>
     <g id="text_13">
      <!-- linux_word -->
      <g transform="translate(436.547832 156.901653) rotate(-45) scale(0.1 -0.1)">
       <use xlink:href="#CMSS17-6c" transform="scale(0.996264)"/>
       <use xlink:href="#CMSS17-69" transform="translate(22.180723 0) scale(0.996264)"/>
       <use xlink:href="#CMSS17-6e" transform="translate(44.361446 0) scale(0.996264)"/>
       <use xlink:href="#CMSS17-75" transform="translate(92.566389 0) scale(0.996264)"/>
       <use xlink:href="#CMSS17-78" transform="translate(140.771332 0) scale(0.996264)"/>
       <use xlink:href="#CMSS17-77" transform="translate(217.498969 0) scale(0.996264)"/>
       <use xlink:href="#CMSS17-6f" transform="translate(278.716061 0) scale(0.996264)"/>
       <use xlink:href="#CMSS17-72" transform="translate(322.95723 0) scale(0.996264)"/>
       <use xlink:href="#CMSS17-64" transform="translate(354.867003 0) scale(0.996264)"/>
       <path d="M 189.392485 0 
L 217.498969 0 
L 217.498969 0.3985 
L 189.392485 0.3985 
L 189.392485 0 
z
"/>
      </g>
     </g>
    </g>
   </g>
   <g id="matplotlib.axis_2">
    <g id="ytick_1">
     <g id="line2d_27">
      <path d="M 54.563682 114.588332 
L 489.6 114.588332 
" clip-path="url(#p0b4dba31e3)" style="fill: none; stroke-dasharray: 0.925,0.4; stroke-dashoffset: 0; stroke: #b0b0b0; stroke-opacity: 0.7; stroke-width: 0.25"/>
     </g>
     <g id="line2d_28">
      <defs>
       <path id="me157386c31" d="M 0 0 
L -3.5 0 
" style="stroke: #000000; stroke-width: 0.8"/>
      </defs>
      <g>
       <use xlink:href="#me157386c31" x="54.563682" y="114.588332" style="stroke: #000000; stroke-width: 0.8"/>
      </g>
     </g>
     <g id="text_14">
      <!-- $\mathdefault{0}$ -->
      <g transform="translate(42.582347 118.047582) scale(0.1 -0.1)">
       <defs>
        <path id="CMR17-30" d="M 2688 2025 
C 2688 2416 2682 3080 2413 3591 
C 2176 4039 1798 4198 1466 4198 
C 1158 4198 768 4058 525 3597 
C 269 3118 243 2524 243 2025 
C 243 1661 250 1106 448 619 
C 723 -39 1216 -128 1466 -128 
C 1760 -128 2208 -7 2470 600 
C 2662 1042 2688 1559 2688 2025 
z
M 1466 -26 
C 1056 -26 813 325 723 812 
C 653 1188 653 1738 653 2096 
C 653 2588 653 2997 736 3387 
C 858 3929 1216 4096 1466 4096 
C 1728 4096 2067 3923 2189 3400 
C 2272 3036 2278 2607 2278 2096 
C 2278 1680 2278 1169 2202 792 
C 2067 95 1690 -26 1466 -26 
z
" transform="scale(0.015625)"/>
       </defs>
       <use xlink:href="#CMR17-30" transform="scale(0.996264)"/>
      </g>
     </g>
    </g>
    <g id="ytick_2">
     <g id="line2d_29">
      <path d="M 54.563682 91.113817 
L 489.6 91.113817 
" clip-path="url(#p0b4dba31e3)" style="fill: none; stroke-dasharray: 0.925,0.4; stroke-dashoffset: 0; stroke: #b0b0b0; stroke-opacity: 0.7; stroke-width: 0.25"/>
     </g>
     <g id="line2d_30">
      <g>
       <use xlink:href="#me157386c31" x="54.563682" y="91.113817" style="stroke: #000000; stroke-width: 0.8"/>
      </g>
     </g>
     <g id="text_15">
      <!-- $\mathdefault{200}$ -->
      <g transform="translate(32.619676 94.573066) scale(0.1 -0.1)">
       <defs>
        <path id="CMR17-32" d="M 2669 989 
L 2554 989 
C 2490 536 2438 459 2413 420 
C 2381 369 1920 369 1830 369 
L 602 369 
C 832 619 1280 1072 1824 1597 
C 2214 1967 2669 2402 2669 3035 
C 2669 3790 2067 4224 1395 4224 
C 691 4224 262 3604 262 3030 
C 262 2780 448 2748 525 2748 
C 589 2748 781 2787 781 3010 
C 781 3207 614 3264 525 3264 
C 486 3264 448 3258 422 3245 
C 544 3790 915 4058 1306 4058 
C 1862 4058 2227 3617 2227 3035 
C 2227 2479 1901 2000 1536 1584 
L 262 146 
L 262 0 
L 2515 0 
L 2669 989 
z
" transform="scale(0.015625)"/>
       </defs>
       <use xlink:href="#CMR17-32" transform="scale(0.996264)"/>
       <use xlink:href="#CMR17-30" transform="translate(45.690477 0) scale(0.996264)"/>
       <use xlink:href="#CMR17-30" transform="translate(91.380954 0) scale(0.996264)"/>
      </g>
     </g>
    </g>
    <g id="ytick_3">
     <g id="line2d_31">
      <path d="M 54.563682 67.639301 
L 489.6 67.639301 
" clip-path="url(#p0b4dba31e3)" style="fill: none; stroke-dasharray: 0.925,0.4; stroke-dashoffset: 0; stroke: #b0b0b0; stroke-opacity: 0.7; stroke-width: 0.25"/>
     </g>
     <g id="line2d_32">
      <g>
       <use xlink:href="#me157386c31" x="54.563682" y="67.639301" style="stroke: #000000; stroke-width: 0.8"/>
      </g>
     </g>
     <g id="text_16">
      <!-- $\mathdefault{400}$ -->
      <g transform="translate(32.619676 71.09855) scale(0.1 -0.1)">
       <defs>
        <path id="CMR17-34" d="M 2150 4122 
C 2150 4256 2144 4256 2029 4256 
L 128 1254 
L 128 1088 
L 1779 1088 
L 1779 457 
C 1779 224 1766 160 1318 160 
L 1197 160 
L 1197 0 
C 1402 0 1747 0 1965 0 
C 2182 0 2528 0 2733 0 
L 2733 160 
L 2611 160 
C 2163 160 2150 224 2150 457 
L 2150 1088 
L 2803 1088 
L 2803 1254 
L 2150 1254 
L 2150 4122 
z
M 1798 3703 
L 1798 1254 
L 256 1254 
L 1798 3703 
z
" transform="scale(0.015625)"/>
       </defs>
       <use xlink:href="#CMR17-34" transform="scale(0.996264)"/>
       <use xlink:href="#CMR17-30" transform="translate(45.690477 0) scale(0.996264)"/>
       <use xlink:href="#CMR17-30" transform="translate(91.380954 0) scale(0.996264)"/>
      </g>
     </g>
    </g>
    <g id="ytick_4">
     <g id="line2d_33">
      <path d="M 54.563682 44.164785 
L 489.6 44.164785 
" clip-path="url(#p0b4dba31e3)" style="fill: none; stroke-dasharray: 0.925,0.4; stroke-dashoffset: 0; stroke: #b0b0b0; stroke-opacity: 0.7; stroke-width: 0.25"/>
     </g>
     <g id="line2d_34">
      <g>
       <use xlink:href="#me157386c31" x="54.563682" y="44.164785" style="stroke: #000000; stroke-width: 0.8"/>
      </g>
     </g>
     <g id="text_17">
      <!-- $\mathdefault{600}$ -->
      <g transform="translate(32.619676 47.624034) scale(0.1 -0.1)">
       <defs>
        <path id="CMR17-36" d="M 678 2176 
C 678 3690 1395 4032 1811 4032 
C 1946 4032 2272 4009 2400 3776 
C 2298 3776 2106 3776 2106 3553 
C 2106 3381 2246 3323 2336 3323 
C 2394 3323 2566 3348 2566 3560 
C 2566 3954 2246 4179 1805 4179 
C 1043 4179 243 3390 243 1984 
C 243 253 966 -128 1478 -128 
C 2099 -128 2688 427 2688 1283 
C 2688 2081 2170 2662 1517 2662 
C 1126 2662 838 2407 678 1960 
L 678 2176 
z
M 1478 25 
C 691 25 691 1200 691 1436 
C 691 1896 909 2560 1504 2560 
C 1613 2560 1926 2560 2138 2120 
C 2253 1870 2253 1609 2253 1289 
C 2253 944 2253 690 2118 434 
C 1978 171 1773 25 1478 25 
z
" transform="scale(0.015625)"/>
       </defs>
       <use xlink:href="#CMR17-36" transform="scale(0.996264)"/>
       <use xlink:href="#CMR17-30" transform="translate(45.690477 0) scale(0.996264)"/>
       <use xlink:href="#CMR17-30" transform="translate(91.380954 0) scale(0.996264)"/>
      </g>
     </g>
    </g>
    <g id="text_18">
     <!-- Wall-clock time (ms) -->
     <g transform="translate(14.67198 111.950109) rotate(-90) scale(0.1 -0.1)">
      <defs>
       <path id="CMSS17-57" d="M 5581 4416 
L 5094 4416 
L 4557 2437 
C 4474 2118 4397 1801 4320 1482 
C 4205 1011 4122 681 4109 515 
L 4102 515 
C 4090 687 4006 1049 3904 1457 
C 3827 1795 3744 2131 3654 2462 
L 3123 4416 
L 2586 4416 
L 2080 2562 
L 1824 1549 
C 1632 747 1626 632 1613 505 
L 1606 505 
C 1606 543 1581 753 1402 1498 
C 1312 1868 1222 2244 1126 2601 
L 634 4416 
L 83 4416 
L 1299 0 
L 1830 0 
L 2336 1839 
L 2592 2851 
C 2765 3564 2803 3742 2816 3901 
L 2822 3901 
C 2822 3876 2880 3474 3130 2545 
L 3808 0 
L 4365 0 
L 5581 4416 
z
" transform="scale(0.015625)"/>
       <path id="CMSS17-2d" d="M 1664 1216 
L 1664 1585 
L 64 1585 
L 64 1216 
L 1664 1216 
z
" transform="scale(0.015625)"/>
       <path id="CMSS17-28" d="M 1613 4768 
C 1267 4417 474 3601 474 1588 
C 474 -433 1267 -1243 1613 -1600 
L 2003 -1600 
C 1216 -784 960 357 960 1581 
C 960 2798 1203 3946 2003 4768 
L 1613 4768 
z
" transform="scale(0.015625)"/>
       <path id="CMSS17-29" d="M 723 -1600 
C 1069 -1249 1862 -433 1862 1581 
C 1862 3601 1069 4411 723 4768 
L 333 4768 
C 1120 3952 1376 2811 1376 1588 
C 1376 370 1133 -778 333 -1600 
L 723 -1600 
z
" transform="scale(0.015625)"/>
      </defs>
      <use xlink:href="#CMSS17-57" transform="scale(0.996264)"/>
      <use xlink:href="#CMSS17-61" transform="translate(85.639712 0) scale(0.996264)"/>
      <use xlink:href="#CMSS17-6c" transform="translate(130.561633 0) scale(0.996264)"/>
      <use xlink:href="#CMSS17-6c" transform="translate(152.742356 0) scale(0.996264)"/>
      <use xlink:href="#CMSS17-2d" transform="translate(174.923079 0) scale(0.996264)"/>
      <use xlink:href="#CMSS17-63" transform="translate(206.152192 0) scale(0.996264)"/>
      <use xlink:href="#CMSS17-6c" transform="translate(247.791014 0) scale(0.996264)"/>
      <use xlink:href="#CMSS17-6f" transform="translate(269.971737 0) scale(0.996264)"/>
      <use xlink:href="#CMSS17-63" transform="translate(319.417799 0) scale(0.996264)"/>
      <use xlink:href="#CMSS17-6b" transform="translate(361.056621 0) scale(0.996264)"/>
      <use xlink:href="#CMSS17-74" transform="translate(437.888223 0) scale(0.996264)"/>
      <use xlink:href="#CMSS17-69" transform="translate(471.71979 0) scale(0.996264)"/>
      <use xlink:href="#CMSS17-6d" transform="translate(493.900513 0) scale(0.996264)"/>
      <use xlink:href="#CMSS17-65" transform="translate(568.129767 0) scale(0.996264)"/>
      <use xlink:href="#CMSS17-28" transform="translate(640.997702 0) scale(0.996264)"/>
      <use xlink:href="#CMSS17-6d" transform="translate(677.431616 0) scale(0.996264)"/>
      <use xlink:href="#CMSS17-73" transform="translate(751.660871 0) scale(0.996264)"/>
      <use xlink:href="#CMSS17-29" transform="translate(787.574413 0) scale(0.996264)"/>
     </g>
     <!-- (lower is better) -->
     <g transform="translate(26.129016 101.503163) rotate(-90) scale(0.1 -0.1)">
      <defs>
       <path id="CMSS17-62" d="M 954 4416 
L 480 4416 
L 480 -13 
L 966 -13 
L 966 274 
C 1210 38 1504 -64 1766 -64 
C 2381 -64 2880 549 2880 1352 
C 2880 2086 2496 2756 1926 2756 
C 1523 2756 1165 2591 954 2419 
L 954 4416 
z
M 966 2046 
C 1107 2222 1306 2368 1587 2368 
C 1965 2368 2394 2097 2394 1352 
C 2394 558 1882 325 1530 325 
C 1402 325 1267 356 1139 464 
C 966 615 966 709 966 797 
L 966 2046 
z
" transform="scale(0.015625)"/>
      </defs>
      <use xlink:href="#CMSS17-28" transform="scale(0.996264)"/>
      <use xlink:href="#CMSS17-6c" transform="translate(36.433914 0) scale(0.996264)"/>
      <use xlink:href="#CMSS17-6f" transform="translate(58.614637 0) scale(0.996264)"/>
      <use xlink:href="#CMSS17-77" transform="translate(102.855807 0) scale(0.996264)"/>
      <use xlink:href="#CMSS17-65" transform="translate(164.072898 0) scale(0.996264)"/>
      <use xlink:href="#CMSS17-72" transform="translate(205.71172 0) scale(0.996264)"/>
      <use xlink:href="#CMSS17-69" transform="translate(268.850605 0) scale(0.996264)"/>
      <use xlink:href="#CMSS17-73" transform="translate(291.031328 0) scale(0.996264)"/>
      <use xlink:href="#CMSS17-62" transform="translate(358.173983 0) scale(0.996264)"/>
      <use xlink:href="#CMSS17-65" transform="translate(408.981365 0) scale(0.996264)"/>
      <use xlink:href="#CMSS17-74" transform="translate(450.620187 0) scale(0.996264)"/>
      <use xlink:href="#CMSS17-74" transform="translate(484.451754 0) scale(0.996264)"/>
      <use xlink:href="#CMSS17-65" transform="translate(518.28332 0) scale(0.996264)"/>
      <use xlink:href="#CMSS17-72" transform="translate(559.922143 0) scale(0.996264)"/>
      <use xlink:href="#CMSS17-29" transform="translate(591.831915 0) scale(0.996264)"/>
     </g>
    </g>
   </g>
   <g id="LineCollection_1">
    <path d="M 69.282956 101.83075 
L 69.282956 100.584967 
" clip-path="url(#p0b4dba31e3)" style="fill: none; stroke: #000000"/>
    <path d="M 101.992453 100.734167 
L 101.992453 99.568844 
" clip-path="url(#p0b4dba31e3)" style="fill: none; stroke: #000000"/>
    <path d="M 134.701951 101.677349 
L 134.701951 101.677349 
" clip-path="url(#p0b4dba31e3)" style="fill: none; stroke: #000000"/>
    <path d="M 167.411449 101.677349 
L 167.411449 101.677349 
" clip-path="url(#p0b4dba31e3)" style="fill: none; stroke: #000000"/>
    <path d="M 200.120946 31.014855 
L 200.120946 29.849532 
" clip-path="url(#p0b4dba31e3)" style="fill: none; stroke: #000000"/>
    <path d="M 232.830444 103.081618 
L 232.830444 101.916295 
" clip-path="url(#p0b4dba31e3)" style="fill: none; stroke: #000000"/>
    <path d="M 265.539941 32.261204 
L 265.539941 30.481144 
" clip-path="url(#p0b4dba31e3)" style="fill: none; stroke: #000000"/>
    <path d="M 298.249439 102.176163 
L 298.249439 101.41328 
" clip-path="url(#p0b4dba31e3)" style="fill: none; stroke: #000000"/>
    <path d="M 330.958937 84.240925 
L 330.958937 82.024038 
" clip-path="url(#p0b4dba31e3)" style="fill: none; stroke: #000000"/>
    <path d="M 363.668434 84.337528 
L 363.668434 82.63167 
" clip-path="url(#p0b4dba31e3)" style="fill: none; stroke: #000000"/>
    <path d="M 396.377932 102.245968 
L 396.377932 101.108729 
" clip-path="url(#p0b4dba31e3)" style="fill: none; stroke: #000000"/>
    <path d="M 429.087429 101.677349 
L 429.087429 101.677349 
" clip-path="url(#p0b4dba31e3)" style="fill: none; stroke: #000000"/>
    <path d="M 461.796927 101.677349 
L 461.796927 101.677349 
" clip-path="url(#p0b4dba31e3)" style="fill: none; stroke: #000000"/>
   </g>
   <g id="line2d_35">
    <defs>
     <path id="mb72e6cc327" d="M 2 0 
L -2 -0 
" style="stroke: #000000"/>
    </defs>
    <g clip-path="url(#p0b4dba31e3)">
     <use xlink:href="#mb72e6cc327" x="69.282956" y="101.83075" style="stroke: #000000"/>
     <use xlink:href="#mb72e6cc327" x="101.992453" y="100.734167" style="stroke: #000000"/>
     <use xlink:href="#mb72e6cc327" x="134.701951" y="101.677349" style="stroke: #000000"/>
     <use xlink:href="#mb72e6cc327" x="167.411449" y="101.677349" style="stroke: #000000"/>
     <use xlink:href="#mb72e6cc327" x="200.120946" y="31.014855" style="stroke: #000000"/>
     <use xlink:href="#mb72e6cc327" x="232.830444" y="103.081618" style="stroke: #000000"/>
     <use xlink:href="#mb72e6cc327" x="265.539941" y="32.261204" style="stroke: #000000"/>
     <use xlink:href="#mb72e6cc327" x="298.249439" y="102.176163" style="stroke: #000000"/>
     <use xlink:href="#mb72e6cc327" x="330.958937" y="84.240925" style="stroke: #000000"/>
     <use xlink:href="#mb72e6cc327" x="363.668434" y="84.337528" style="stroke: #000000"/>
     <use xlink:href="#mb72e6cc327" x="396.377932" y="102.245968" style="stroke: #000000"/>
     <use xlink:href="#mb72e6cc327" x="429.087429" y="101.677349" style="stroke: #000000"/>
     <use xlink:href="#mb72e6cc327" x="461.796927" y="101.677349" style="stroke: #000000"/>
    </g>
   </g>
   <g id="line2d_36">
    <g clip-path="url(#p0b4dba31e3)">
     <use xlink:href="#mb72e6cc327" x="69.282956" y="100.584967" style="stroke: #000000"/>
     <use xlink:href="#mb72e6cc327" x="101.992453" y="99.568844" style="stroke: #000000"/>
     <use xlink:href="#mb72e6cc327" x="134.701951" y="101.677349" style="stroke: #000000"/>
     <use xlink:href="#mb72e6cc327" x="167.411449" y="101.677349" style="stroke: #000000"/>
     <use xlink:href="#mb72e6cc327" x="200.120946" y="29.849532" style="stroke: #000000"/>
     <use xlink:href="#mb72e6cc327" x="232.830444" y="101.916295" style="stroke: #000000"/>
     <use xlink:href="#mb72e6cc327" x="265.539941" y="30.481144" style="stroke: #000000"/>
     <use xlink:href="#mb72e6cc327" x="298.249439" y="101.41328" style="stroke: #000000"/>
     <use xlink:href="#mb72e6cc327" x="330.958937" y="82.024038" style="stroke: #000000"/>
     <use xlink:href="#mb72e6cc327" x="363.668434" y="82.63167" style="stroke: #000000"/>
     <use xlink:href="#mb72e6cc327" x="396.377932" y="101.108729" style="stroke: #000000"/>
     <use xlink:href="#mb72e6cc327" x="429.087429" y="101.677349" style="stroke: #000000"/>
     <use xlink:href="#mb72e6cc327" x="461.796927" y="101.677349" style="stroke: #000000"/>
    </g>
   </g>
   <g id="LineCollection_2">
    <path d="M 82.366755 73.030037 
L 82.366755 70.69939 
" clip-path="url(#p0b4dba31e3)" style="fill: none; stroke: #000000"/>
    <path d="M 115.076253 73.964816 
L 115.076253 70.468846 
" clip-path="url(#p0b4dba31e3)" style="fill: none; stroke: #000000"/>
    <path d="M 147.78575 73.779032 
L 147.78575 71.124121 
" clip-path="url(#p0b4dba31e3)" style="fill: none; stroke: #000000"/>
    <path d="M 180.495248 73.030037 
L 180.495248 70.69939 
" clip-path="url(#p0b4dba31e3)" style="fill: none; stroke: #000000"/>
    <path d="M 213.204745 24.808007 
L 213.204745 21.50218 
" clip-path="url(#p0b4dba31e3)" style="fill: none; stroke: #000000"/>
    <path d="M 245.914243 74.33001 
L 245.914243 69.634163 
" clip-path="url(#p0b4dba31e3)" style="fill: none; stroke: #000000"/>
    <path d="M 278.623741 24.035349 
L 278.623741 22.509583 
" clip-path="url(#p0b4dba31e3)" style="fill: none; stroke: #000000"/>
    <path d="M 311.333238 72.477355 
L 311.333238 70.078347 
" clip-path="url(#p0b4dba31e3)" style="fill: none; stroke: #000000"/>
    <path d="M 344.042736 68.83399 
L 344.042736 62.688689 
" clip-path="url(#p0b4dba31e3)" style="fill: none; stroke: #000000"/>
    <path d="M 376.752233 68.049989 
L 376.752233 63.47269 
" clip-path="url(#p0b4dba31e3)" style="fill: none; stroke: #000000"/>
    <path d="M 409.461731 72.24261 
L 409.461731 69.843601 
" clip-path="url(#p0b4dba31e3)" style="fill: none; stroke: #000000"/>
    <path d="M 442.171228 73.315218 
L 442.171228 69.709973 
" clip-path="url(#p0b4dba31e3)" style="fill: none; stroke: #000000"/>
    <path d="M 474.880726 73.872265 
L 474.880726 70.091907 
" clip-path="url(#p0b4dba31e3)" style="fill: none; stroke: #000000"/>
   </g>
   <g id="line2d_37">
    <g clip-path="url(#p0b4dba31e3)">
     <use xlink:href="#mb72e6cc327" x="82.366755" y="73.030037" style="stroke: #000000"/>
     <use xlink:href="#mb72e6cc327" x="115.076253" y="73.964816" style="stroke: #000000"/>
     <use xlink:href="#mb72e6cc327" x="147.78575" y="73.779032" style="stroke: #000000"/>
     <use xlink:href="#mb72e6cc327" x="180.495248" y="73.030037" style="stroke: #000000"/>
     <use xlink:href="#mb72e6cc327" x="213.204745" y="24.808007" style="stroke: #000000"/>
     <use xlink:href="#mb72e6cc327" x="245.914243" y="74.33001" style="stroke: #000000"/>
     <use xlink:href="#mb72e6cc327" x="278.623741" y="24.035349" style="stroke: #000000"/>
     <use xlink:href="#mb72e6cc327" x="311.333238" y="72.477355" style="stroke: #000000"/>
     <use xlink:href="#mb72e6cc327" x="344.042736" y="68.83399" style="stroke: #000000"/>
     <use xlink:href="#mb72e6cc327" x="376.752233" y="68.049989" style="stroke: #000000"/>
     <use xlink:href="#mb72e6cc327" x="409.461731" y="72.24261" style="stroke: #000000"/>
     <use xlink:href="#mb72e6cc327" x="442.171228" y="73.315218" style="stroke: #000000"/>
     <use xlink:href="#mb72e6cc327" x="474.880726" y="73.872265" style="stroke: #000000"/>
    </g>
   </g>
   <g id="line2d_38">
    <g clip-path="url(#p0b4dba31e3)">
     <use xlink:href="#mb72e6cc327" x="82.366755" y="70.69939" style="stroke: #000000"/>
     <use xlink:href="#mb72e6cc327" x="115.076253" y="70.468846" style="stroke: #000000"/>
     <use xlink:href="#mb72e6cc327" x="147.78575" y="71.124121" style="stroke: #000000"/>
     <use xlink:href="#mb72e6cc327" x="180.495248" y="70.69939" style="stroke: #000000"/>
     <use xlink:href="#mb72e6cc327" x="213.204745" y="21.50218" style="stroke: #000000"/>
     <use xlink:href="#mb72e6cc327" x="245.914243" y="69.634163" style="stroke: #000000"/>
     <use xlink:href="#mb72e6cc327" x="278.623741" y="22.509583" style="stroke: #000000"/>
     <use xlink:href="#mb72e6cc327" x="311.333238" y="70.078347" style="stroke: #000000"/>
     <use xlink:href="#mb72e6cc327" x="344.042736" y="62.688689" style="stroke: #000000"/>
     <use xlink:href="#mb72e6cc327" x="376.752233" y="63.47269" style="stroke: #000000"/>
     <use xlink:href="#mb72e6cc327" x="409.461731" y="69.843601" style="stroke: #000000"/>
     <use xlink:href="#mb72e6cc327" x="442.171228" y="69.709973" style="stroke: #000000"/>
     <use xlink:href="#mb72e6cc327" x="474.880726" y="70.091907" style="stroke: #000000"/>
    </g>
   </g>
   <g id="patch_29">
    <path d="M 54.563682 114.588332 
L 54.563682 21.50218 
" style="fill: none; stroke: #000000; stroke-width: 0.8; stroke-linejoin: miter; stroke-linecap: square"/>
   </g>
   <g id="patch_30">
    <path d="M 54.563682 114.588332 
L 489.6 114.588332 
" style="fill: none; stroke: #000000; stroke-width: 0.8; stroke-linejoin: miter; stroke-linecap: square"/>
   </g>
   <g id="text_19">
    <!-- ripgrep -->
    <g transform="translate(255.193991 15.50218) scale(0.12 -0.12)">
     <use xlink:href="#CMSS17-72" transform="scale(0.996264)"/>
     <use xlink:href="#CMSS17-69" transform="translate(31.909773 0) scale(0.996264)"/>
     <use xlink:href="#CMSS17-70" transform="translate(54.090496 0) scale(0.996264)"/>
     <use xlink:href="#CMSS17-67" transform="translate(102.295439 0) scale(0.996264)"/>
     <use xlink:href="#CMSS17-72" transform="translate(149.139062 0) scale(0.996264)"/>
     <use xlink:href="#CMSS17-65" transform="translate(181.048835 0) scale(0.996264)"/>
     <use xlink:href="#CMSS17-70" transform="translate(222.687657 0) scale(0.996264)"/>
    </g>
   </g>
   <g id="legend_1">
    <g id="patch_31">
     <path d="M 429.899809 57.376536 
L 482.6 57.376536 
Q 484.6 57.376536 484.6 55.376536 
L 484.6 28.50218 
Q 484.6 26.50218 482.6 26.50218 
L 429.899809 26.50218 
Q 427.899809 26.50218 427.899809 28.50218 
L 427.899809 55.376536 
Q 427.899809 57.376536 429.899809 57.376536 
z
" style="fill: #ffffff; opacity: 0.8; stroke: #cccccc; stroke-linejoin: miter"/>
    </g>
    <g id="patch_32">
     <path d="M 431.899809 37.50218 
L 451.899809 37.50218 
L 451.899809 30.50218 
L 431.899809 30.50218 
z
" style="fill: #1f77b4"/>
    </g>
    <g id="text_20">
     <!-- ARC -->
     <g transform="translate(459.899809 37.50218) scale(0.1 -0.1)">
      <defs>
       <path id="CMSS17-41" d="M 2272 4416 
L 1722 4416 
L 166 0 
L 653 0 
L 1101 1280 
L 2816 1280 
L 3270 0 
L 3827 0 
L 2272 4416 
z
M 2694 1637 
L 1222 1637 
C 1530 2528 1914 3638 1958 3925 
L 1965 3925 
C 2010 3663 2138 3281 2246 2956 
L 2694 1637 
z
" transform="scale(0.015625)"/>
       <path id="CMSS17-52" d="M 2522 2109 
L 2534 2115 
C 3533 2459 3539 3147 3539 3268 
C 3539 3873 2925 4453 2003 4453 
L 570 4453 
L 570 32 
L 1094 32 
L 1094 2048 
L 2035 2048 
L 3168 32 
L 3706 32 
L 2522 2109 
z
M 1094 2437 
L 1094 4096 
L 1933 4096 
C 2746 4096 3034 3637 3034 3267 
C 3034 2922 2778 2437 1933 2437 
L 1094 2437 
z
" transform="scale(0.015625)"/>
       <path id="CMSS17-43" d="M 3501 714 
C 3072 427 2874 344 2355 344 
C 1459 344 934 1303 934 2179 
C 934 3112 1472 4032 2381 4032 
C 2790 4032 3059 3918 3386 3715 
L 3475 4217 
C 3168 4370 2778 4440 2387 4440 
C 1158 4440 397 3316 397 2179 
C 397 927 1299 -64 2323 -64 
C 2874 -64 3066 -19 3539 280 
L 3501 714 
z
" transform="scale(0.015625)"/>
      </defs>
      <use xlink:href="#CMSS17-41" transform="scale(0.996264)"/>
      <use xlink:href="#CMSS17-52" transform="translate(62.217855 0) scale(0.996264)"/>
      <use xlink:href="#CMSS17-43" transform="translate(122.63401 0) scale(0.996264)"/>
     </g>
    </g>
    <g id="patch_33">
     <path d="M 431.899809 51.439358 
L 451.899809 51.439358 
L 451.899809 44.439358 
L 431.899809 44.439358 
z
" style="fill: #ff7f0e"/>
    </g>
    <g id="text_21">
     <!-- Alloy -->
     <g transform="translate(459.899809 51.439358) scale(0.1 -0.1)">
      <defs>
       <path id="CMSS17-79" d="M 2675 2752 
L 2176 2752 
C 1632 1294 1446 702 1434 383 
L 1427 383 
C 1408 696 1126 1460 902 2007 
L 602 2752 
L 83 2752 
L 1216 13 
C 1146 -178 1043 -465 1011 -529 
C 870 -885 774 -885 672 -885 
C 646 -885 442 -885 211 -809 
L 250 -1229 
C 410 -1261 570 -1280 685 -1280 
C 845 -1280 1165 -1280 1459 -497 
L 2675 2752 
z
" transform="scale(0.015625)"/>
      </defs>
      <use xlink:href="#CMSS17-41" transform="scale(0.996264)"/>
      <use xlink:href="#CMSS17-6c" transform="translate(62.217855 0) scale(0.996264)"/>
      <use xlink:href="#CMSS17-6c" transform="translate(84.398578 0) scale(0.996264)"/>
      <use xlink:href="#CMSS17-6f" transform="translate(106.579301 0) scale(0.996264)"/>
      <use xlink:href="#CMSS17-79" transform="translate(150.820471 0) scale(0.996264)"/>
     </g>
    </g>
   </g>
  </g>
 </g>
 <defs>
  <clipPath id="p0b4dba31e3">
   <rect x="54.563682" y="21.50218" width="435.036318" height="93.086153"/>
  </clipPath>
 </defs>
</svg>
