<?xml version="1.0" encoding="utf-8" standalone="no"?>
<!DOCTYPE svg PUBLIC "-//W3C//DTD SVG 1.1//EN"
  "http://www.w3.org/Graphics/SVG/1.1/DTD/svg11.dtd">
<svg xmlns:xlink="http://www.w3.org/1999/xlink" width="496.8pt" height="208.8pt" viewBox="0 0 496.8 208.8" xmlns="http://www.w3.org/2000/svg" version="1.1">
 <metadata>
  <rdf:RDF xmlns:dc="http://purl.org/dc/elements/1.1/" xmlns:cc="http://creativecommons.org/ns#" xmlns:rdf="http://www.w3.org/1999/02/22-rdf-syntax-ns#">
   <cc:Work>
    <dc:type rdf:resource="http://purl.org/dc/dcmitype/StillImage"/>
    <dc:date>2025-03-26T11:41:12.514498</dc:date>
    <dc:format>image/svg+xml</dc:format>
    <dc:creator>
     <cc:Agent>
      <dc:title>Matplotlib v3.9.2, https://matplotlib.org/</dc:title>
     </cc:Agent>
    </dc:creator>
   </cc:Work>
  </rdf:RDF>
 </metadata>
 <defs>
  <style type="text/css">*{stroke-linejoin: round; stroke-linecap: butt}</style>
 </defs>
 <g id="figure_1">
  <g id="patch_1">
   <path d="M 0 208.8 
L 496.8 208.8 
L 496.8 0 
L 0 0 
z
" style="fill: #ffffff"/>
  </g>
  <g id="axes_1">
   <g id="patch_2">
    <path d="M 59.545017 102.240588 
L 489.6 102.240588 
L 489.6 21.50218 
L 59.545017 21.50218 
z
" style="fill: #ffffff"/>
   </g>
   <g id="patch_3">
    <path d="M 69.983245 102.240588 
L 86.684409 102.240588 
L 86.684409 61.820555 
L 69.983245 61.820555 
z
" clip-path="url(#p8028d11bd5)" style="fill: #1f77b4"/>
   </g>
   <g id="patch_4">
    <path d="M 111.736156 102.240588 
L 128.43732 102.240588 
L 128.43732 22.293892 
L 111.736156 22.293892 
z
" clip-path="url(#p8028d11bd5)" style="fill: #1f77b4"/>
   </g>
   <g id="patch_5">
    <path d="M 153.489067 102.240588 
L 170.190231 102.240588 
L 170.190231 87.589318 
L 153.489067 87.589318 
z
" clip-path="url(#p8028d11bd5)" style="fill: #1f77b4"/>
   </g>
   <g id="patch_6">
    <path d="M 195.241978 102.240588 
L 211.943142 102.240588 
L 211.943142 65.552856 
L 195.241978 65.552856 
z
" clip-path="url(#p8028d11bd5)" style="fill: #1f77b4"/>
   </g>
   <g id="patch_7">
    <path d="M 236.994889 102.240588 
L 253.696053 102.240588 
L 253.696053 89.356206 
L 236.994889 89.356206 
z
" clip-path="url(#p8028d11bd5)" style="fill: #1f77b4"/>
   </g>
   <g id="patch_8">
    <path d="M 278.7478 102.240588 
L 295.448964 102.240588 
L 295.448964 89.197384 
L 278.7478 89.197384 
z
" clip-path="url(#p8028d11bd5)" style="fill: #1f77b4"/>
   </g>
   <g id="patch_9">
    <path d="M 320.500711 102.240588 
L 337.201875 102.240588 
L 337.201875 64.063906 
L 320.500711 64.063906 
z
" clip-path="url(#p8028d11bd5)" style="fill: #1f77b4"/>
   </g>
   <g id="patch_10">
    <path d="M 362.253622 102.240588 
L 378.954786 102.240588 
L 378.954786 89.078268 
L 362.253622 89.078268 
z
" clip-path="url(#p8028d11bd5)" style="fill: #1f77b4"/>
   </g>
   <g id="patch_11">
    <path d="M 404.006533 102.240588 
L 420.707697 102.240588 
L 420.707697 89.217237 
L 404.006533 89.217237 
z
" clip-path="url(#p8028d11bd5)" style="fill: #1f77b4"/>
   </g>
   <g id="patch_12">
    <path d="M 445.759444 102.240588 
L 462.460608 102.240588 
L 462.460608 89.157679 
L 445.759444 89.157679 
z
" clip-path="url(#p8028d11bd5)" style="fill: #1f77b4"/>
   </g>
   <g id="patch_13">
    <path d="M 86.684409 102.240588 
L 103.385574 102.240588 
L 103.385574 61.741144 
L 86.684409 61.741144 
z
" clip-path="url(#p8028d11bd5)" style="fill: #ff7f0e"/>
   </g>
   <g id="patch_14">
    <path d="M 128.43732 102.240588 
L 145.138485 102.240588 
L 145.138485 21.916691 
L 128.43732 21.916691 
z
" clip-path="url(#p8028d11bd5)" style="fill: #ff7f0e"/>
   </g>
   <g id="patch_15">
    <path d="M 170.190231 102.240588 
L 186.891396 102.240588 
L 186.891396 86.993738 
L 170.190231 86.993738 
z
" clip-path="url(#p8028d11bd5)" style="fill: #ff7f0e"/>
   </g>
   <g id="patch_16">
    <path d="M 211.943142 102.240588 
L 228.644307 102.240588 
L 228.644307 65.930057 
L 211.943142 65.930057 
z
" clip-path="url(#p8028d11bd5)" style="fill: #ff7f0e"/>
   </g>
   <g id="patch_17">
    <path d="M 253.696053 102.240588 
L 270.397218 102.240588 
L 270.397218 89.058416 
L 253.696053 89.058416 
z
" clip-path="url(#p8028d11bd5)" style="fill: #ff7f0e"/>
   </g>
   <g id="patch_18">
    <path d="M 295.448964 102.240588 
L 312.150128 102.240588 
L 312.150128 88.9393 
L 295.448964 88.9393 
z
" clip-path="url(#p8028d11bd5)" style="fill: #ff7f0e"/>
   </g>
   <g id="patch_19">
    <path d="M 337.201875 102.240588 
L 353.903039 102.240588 
L 353.903039 64.381549 
L 337.201875 64.381549 
z
" clip-path="url(#p8028d11bd5)" style="fill: #ff7f0e"/>
   </g>
   <g id="patch_20">
    <path d="M 378.954786 102.240588 
L 395.65595 102.240588 
L 395.65595 88.919447 
L 378.954786 88.919447 
z
" clip-path="url(#p8028d11bd5)" style="fill: #ff7f0e"/>
   </g>
   <g id="patch_21">
    <path d="M 420.707697 102.240588 
L 437.408861 102.240588 
L 437.408861 89.098121 
L 420.707697 89.098121 
z
" clip-path="url(#p8028d11bd5)" style="fill: #ff7f0e"/>
   </g>
   <g id="patch_22">
    <path d="M 462.460608 102.240588 
L 479.161772 102.240588 
L 479.161772 88.800331 
L 462.460608 88.800331 
z
" clip-path="url(#p8028d11bd5)" style="fill: #ff7f0e"/>
   </g>
   <g id="matplotlib.axis_1">
    <g id="xtick_1">
     <g id="line2d_1">
      <path d="M 86.684409 102.240588 
L 86.684409 21.50218 
" clip-path="url(#p8028d11bd5)" style="fill: none; stroke-dasharray: 0.925,0.4; stroke-dashoffset: 0; stroke: #b0b0b0; stroke-opacity: 0.7; stroke-width: 0.25"/>
     </g>
     <g id="line2d_2">
      <defs>
       <path id="m70b3a5d622" d="M 0 0 
L 0 3.5 
" style="stroke: #000000; stroke-width: 0.8"/>
      </defs>
      <g>
       <use xlink:href="#m70b3a5d622" x="86.684409" y="102.240588" style="stroke: #000000; stroke-width: 0.8"/>
      </g>
     </g>
     <g id="text_1">
      <!-- cursor_motion -->
      <g transform="translate(44.659086 154.788236) rotate(-45) scale(0.1 -0.1)">
       <defs>
        <path id="CMSS17-63" d="M 2464 2541 
C 2464 2585 2170 2714 2093 2739 
C 1882 2816 1613 2816 1542 2816 
C 710 2816 211 2093 211 1363 
C 211 595 768 -64 1517 -64 
C 1946 -64 2253 76 2502 242 
L 2464 664 
C 2189 453 1869 337 1523 337 
C 1024 337 698 774 698 1369 
C 698 1831 909 2414 1549 2414 
C 1901 2414 2099 2343 2394 2145 
L 2464 2541 
z
" transform="scale(0.015625)"/>
        <path id="CMSS17-75" d="M 2618 2739 
L 2131 2739 
L 2131 972 
C 2131 498 1786 306 1421 306 
C 998 306 960 447 960 709 
L 960 2739 
L 474 2739 
L 474 678 
C 474 179 646 -64 1088 -64 
C 1306 -64 1798 -13 2144 306 
L 2144 0 
L 2618 0 
L 2618 2739 
z
" transform="scale(0.015625)"/>
        <path id="CMSS17-72" d="M 954 1363 
C 954 1965 1395 2368 1958 2368 
L 1958 2789 
C 1549 2789 1165 2585 934 2253 
L 934 2758 
L 480 2758 
L 480 0 
L 954 0 
L 954 1363 
z
" transform="scale(0.015625)"/>
        <path id="CMSS17-73" d="M 2061 2627 
C 1683 2807 1389 2807 1197 2807 
C 742 2807 198 2648 198 2003 
C 198 1359 902 1218 1094 1179 
C 1389 1122 1715 1058 1715 740 
C 1715 337 1254 337 1171 337 
C 915 337 563 407 243 638 
L 166 210 
C 531 0 883 -64 1178 -64 
C 1965 -64 2163 416 2163 781 
C 2163 1094 1984 1305 1862 1401 
C 1651 1568 1574 1587 1050 1696 
C 960 1709 646 1779 646 2066 
C 646 2432 1050 2432 1139 2432 
C 1555 2432 1811 2303 1984 2208 
L 2061 2627 
z
" transform="scale(0.015625)"/>
        <path id="CMSS17-6f" d="M 2829 1356 
C 2829 2176 2221 2816 1504 2816 
C 768 2816 173 2157 173 1356 
C 173 544 787 -64 1498 -64 
C 2227 -64 2829 563 2829 1356 
z
M 1504 337 
C 1050 337 659 709 659 1408 
C 659 2151 1114 2427 1498 2427 
C 1914 2427 2342 2126 2342 1408 
C 2342 683 1926 337 1504 337 
z
" transform="scale(0.015625)"/>
        <path id="CMSS17-6d" d="M 4288 1877 
C 4288 2308 4179 2816 3462 2816 
C 2982 2816 2694 2516 2566 2331 
C 2451 2670 2182 2816 1798 2816 
C 1363 2816 1088 2568 941 2389 
L 941 2758 
L 474 2758 
L 474 0 
L 960 0 
L 960 1559 
C 960 1939 1101 2428 1555 2428 
C 2138 2428 2138 2016 2138 1829 
L 2138 0 
L 2624 0 
L 2624 1559 
C 2624 1939 2765 2428 3219 2428 
C 3802 2428 3802 2016 3802 1829 
L 3802 0 
L 4288 0 
L 4288 1877 
z
" transform="scale(0.015625)"/>
        <path id="CMSS17-74" d="M 1069 2368 
L 1901 2368 
L 1901 2737 
L 1069 2737 
L 1069 3520 
L 614 3520 
L 614 2737 
L 109 2737 
L 109 2368 
L 602 2368 
L 602 749 
C 602 384 685 -64 1107 -64 
C 1427 -64 1722 25 2003 172 
L 1901 548 
C 1747 414 1562 337 1363 337 
C 1082 337 1069 696 1069 856 
L 1069 2368 
z
" transform="scale(0.015625)"/>
        <path id="CMSS17-69" d="M 979 4183 
L 442 4183 
L 442 3648 
L 979 3648 
L 979 4183 
z
M 947 2739 
L 474 2739 
L 474 0 
L 947 0 
L 947 2739 
z
" transform="scale(0.015625)"/>
        <path id="CMSS17-6e" d="M 2618 1877 
C 2618 2283 2522 2816 1798 2816 
C 1389 2816 1120 2606 941 2389 
L 941 2758 
L 474 2758 
L 474 0 
L 960 0 
L 960 1559 
C 960 1964 1114 2428 1549 2428 
C 2112 2428 2131 2048 2131 1829 
L 2131 0 
L 2618 0 
L 2618 1877 
z
" transform="scale(0.015625)"/>
       </defs>
       <use xlink:href="#CMSS17-63" transform="scale(0.996264)"/>
       <use xlink:href="#CMSS17-75" transform="translate(41.638822 0) scale(0.996264)"/>
       <use xlink:href="#CMSS17-72" transform="translate(89.843765 0) scale(0.996264)"/>
       <use xlink:href="#CMSS17-73" transform="translate(121.753538 0) scale(0.996264)"/>
       <use xlink:href="#CMSS17-6f" transform="translate(157.66708 0) scale(0.996264)"/>
       <use xlink:href="#CMSS17-72" transform="translate(201.908249 0) scale(0.996264)"/>
       <use xlink:href="#CMSS17-6d" transform="translate(267.545517 0) scale(0.996264)"/>
       <use xlink:href="#CMSS17-6f" transform="translate(341.774772 0) scale(0.996264)"/>
       <use xlink:href="#CMSS17-74" transform="translate(388.618395 0) scale(0.996264)"/>
       <use xlink:href="#CMSS17-69" transform="translate(422.449962 0) scale(0.996264)"/>
       <use xlink:href="#CMSS17-6f" transform="translate(444.630685 0) scale(0.996264)"/>
       <use xlink:href="#CMSS17-6e" transform="translate(491.474308 0) scale(0.996264)"/>
       <path d="M 239.439033 0 
L 267.545517 0 
L 267.545517 0.3985 
L 239.439033 0.3985 
L 239.439033 0 
z
"/>
      </g>
     </g>
    </g>
    <g id="xtick_2">
     <g id="line2d_3">
      <path d="M 128.43732 102.240588 
L 128.43732 21.50218 
" clip-path="url(#p8028d11bd5)" style="fill: none; stroke-dasharray: 0.925,0.4; stroke-dashoffset: 0; stroke: #b0b0b0; stroke-opacity: 0.7; stroke-width: 0.25"/>
     </g>
     <g id="line2d_4">
      <g>
       <use xlink:href="#m70b3a5d622" x="128.43732" y="102.240588" style="stroke: #000000; stroke-width: 0.8"/>
      </g>
     </g>
     <g id="text_2">
      <!-- dense_cells -->
      <g transform="translate(95.961489 145.238745) rotate(-45) scale(0.1 -0.1)">
       <defs>
        <path id="CMSS17-64" d="M 2611 4416 
L 2138 4416 
L 2138 2438 
C 1939 2603 1613 2756 1254 2756 
C 672 2756 211 2131 211 1347 
C 211 562 666 -64 1235 -64 
C 1677 -64 1971 172 2125 306 
L 2125 -13 
L 2611 -13 
L 2611 4416 
z
M 2125 836 
C 2125 747 2125 653 1926 482 
C 1798 375 1645 325 1498 325 
C 1152 325 698 576 698 1340 
C 698 2134 1210 2368 1562 2368 
C 1798 2368 1990 2254 2125 2065 
L 2125 836 
z
" transform="scale(0.015625)"/>
        <path id="CMSS17-65" d="M 2502 1377 
C 2502 1590 2490 2003 2285 2345 
C 2061 2713 1696 2816 1421 2816 
C 755 2816 192 2188 192 1375 
C 192 582 774 -64 1510 -64 
C 1798 -64 2150 19 2470 248 
C 2470 274 2458 414 2451 420 
C 2451 433 2432 630 2432 656 
C 2125 407 1773 325 1517 325 
C 1107 325 666 667 646 1377 
L 2502 1377 
z
M 698 1728 
C 781 2084 1062 2421 1421 2421 
C 1517 2421 1965 2421 2080 1728 
L 698 1728 
z
" transform="scale(0.015625)"/>
        <path id="CMSS17-6c" d="M 947 4416 
L 474 4416 
L 474 0 
L 947 0 
L 947 4416 
z
" transform="scale(0.015625)"/>
       </defs>
       <use xlink:href="#CMSS17-64" transform="scale(0.996264)"/>
       <use xlink:href="#CMSS17-65" transform="translate(48.204943 0) scale(0.996264)"/>
       <use xlink:href="#CMSS17-6e" transform="translate(89.843765 0) scale(0.996264)"/>
       <use xlink:href="#CMSS17-73" transform="translate(138.048708 0) scale(0.996264)"/>
       <use xlink:href="#CMSS17-65" transform="translate(173.96225 0) scale(0.996264)"/>
       <use xlink:href="#CMSS17-63" transform="translate(249.328568 0) scale(0.996264)"/>
       <use xlink:href="#CMSS17-65" transform="translate(290.96739 0) scale(0.996264)"/>
       <use xlink:href="#CMSS17-6c" transform="translate(332.606212 0) scale(0.996264)"/>
       <use xlink:href="#CMSS17-6c" transform="translate(354.786935 0) scale(0.996264)"/>
       <use xlink:href="#CMSS17-73" transform="translate(376.967658 0) scale(0.996264)"/>
       <path d="M 221.222083 0 
L 249.328568 0 
L 249.328568 0.3985 
L 221.222083 0.3985 
L 221.222083 0 
z
"/>
      </g>
     </g>
    </g>
    <g id="xtick_3">
     <g id="line2d_5">
      <path d="M 170.190231 102.240588 
L 170.190231 21.50218 
" clip-path="url(#p8028d11bd5)" style="fill: none; stroke-dasharray: 0.925,0.4; stroke-dashoffset: 0; stroke: #b0b0b0; stroke-opacity: 0.7; stroke-width: 0.25"/>
     </g>
     <g id="line2d_6">
      <g>
       <use xlink:href="#m70b3a5d622" x="170.190231" y="102.240588" style="stroke: #000000; stroke-width: 0.8"/>
      </g>
     </g>
     <g id="text_3">
      <!-- light_cells -->
      <g transform="translate(140.884481 142.068663) rotate(-45) scale(0.1 -0.1)">
       <defs>
        <path id="CMSS17-67" d="M 2848 2808 
C 2483 2808 2170 2738 1914 2617 
C 1702 2777 1485 2808 1338 2808 
C 781 2808 358 2349 358 1814 
C 358 1468 550 1207 563 1195 
C 448 1035 384 863 384 672 
C 384 448 474 289 544 200 
C 211 -3 166 -314 166 -435 
C 166 -898 749 -1280 1498 -1280 
C 2253 -1280 2835 -898 2835 -428 
C 2835 448 1856 448 1587 448 
L 1069 448 
C 973 448 717 448 717 791 
C 717 921 774 1004 781 1010 
C 877 940 1075 832 1338 832 
C 1869 832 2310 1278 2310 1827 
C 2310 2132 2170 2355 2112 2432 
L 2131 2432 
C 2150 2432 2419 2432 2515 2432 
C 2720 2432 2739 2429 2918 2419 
L 2848 2808 
z
M 1338 1182 
C 1120 1182 813 1315 813 1823 
C 813 2375 1165 2464 1331 2464 
C 1549 2464 1856 2331 1856 1823 
C 1856 1271 1504 1182 1338 1182 
z
M 1581 -10 
C 1734 -10 2381 -10 2381 -442 
C 2381 -714 1984 -929 1504 -929 
C 1018 -929 621 -720 621 -435 
C 621 -403 621 -10 1062 -10 
L 1581 -10 
z
" transform="scale(0.015625)"/>
        <path id="CMSS17-68" d="M 2618 1891 
C 2618 2292 2522 2820 1798 2820 
C 1395 2820 1133 2623 947 2407 
L 947 4448 
L 474 4448 
L 474 32 
L 960 32 
L 960 1573 
C 960 1973 1114 2432 1549 2432 
C 2112 2432 2131 2056 2131 1839 
L 2131 32 
L 2618 32 
L 2618 1891 
z
" transform="scale(0.015625)"/>
       </defs>
       <use xlink:href="#CMSS17-6c" transform="scale(0.996264)"/>
       <use xlink:href="#CMSS17-69" transform="translate(22.180723 0) scale(0.996264)"/>
       <use xlink:href="#CMSS17-67" transform="translate(44.361446 0) scale(0.996264)"/>
       <use xlink:href="#CMSS17-68" transform="translate(91.20507 0) scale(0.996264)"/>
       <use xlink:href="#CMSS17-74" transform="translate(139.410013 0) scale(0.996264)"/>
       <use xlink:href="#CMSS17-63" transform="translate(206.969075 0) scale(0.996264)"/>
       <use xlink:href="#CMSS17-65" transform="translate(248.607897 0) scale(0.996264)"/>
       <use xlink:href="#CMSS17-6c" transform="translate(290.246719 0) scale(0.996264)"/>
       <use xlink:href="#CMSS17-6c" transform="translate(312.427442 0) scale(0.996264)"/>
       <use xlink:href="#CMSS17-73" transform="translate(334.608165 0) scale(0.996264)"/>
       <path d="M 178.86259 0 
L 206.969075 0 
L 206.969075 0.3985 
L 178.86259 0.3985 
L 178.86259 0 
z
"/>
      </g>
     </g>
    </g>
    <g id="xtick_4">
     <g id="line2d_7">
      <path d="M 211.943142 102.240588 
L 211.943142 21.50218 
" clip-path="url(#p8028d11bd5)" style="fill: none; stroke-dasharray: 0.925,0.4; stroke-dashoffset: 0; stroke: #b0b0b0; stroke-opacity: 0.7; stroke-width: 0.25"/>
     </g>
     <g id="line2d_8">
      <g>
       <use xlink:href="#m70b3a5d622" x="211.943142" y="102.240588" style="stroke: #000000; stroke-width: 0.8"/>
      </g>
     </g>
     <g id="text_4">
      <!-- scrolling -->
      <g transform="translate(186.601943 138.104112) rotate(-45) scale(0.1 -0.1)">
       <use xlink:href="#CMSS17-73" transform="scale(0.996264)"/>
       <use xlink:href="#CMSS17-63" transform="translate(35.913542 0) scale(0.996264)"/>
       <use xlink:href="#CMSS17-72" transform="translate(77.552364 0) scale(0.996264)"/>
       <use xlink:href="#CMSS17-6f" transform="translate(109.462137 0) scale(0.996264)"/>
       <use xlink:href="#CMSS17-6c" transform="translate(156.30576 0) scale(0.996264)"/>
       <use xlink:href="#CMSS17-6c" transform="translate(178.486483 0) scale(0.996264)"/>
       <use xlink:href="#CMSS17-69" transform="translate(200.667206 0) scale(0.996264)"/>
       <use xlink:href="#CMSS17-6e" transform="translate(222.847929 0) scale(0.996264)"/>
       <use xlink:href="#CMSS17-67" transform="translate(271.052872 0) scale(0.996264)"/>
      </g>
     </g>
    </g>
    <g id="xtick_5">
     <g id="line2d_9">
      <path d="M 253.696053 102.240588 
L 253.696053 21.50218 
" clip-path="url(#p8028d11bd5)" style="fill: none; stroke-dasharray: 0.925,0.4; stroke-dashoffset: 0; stroke: #b0b0b0; stroke-opacity: 0.7; stroke-width: 0.25"/>
     </g>
     <g id="line2d_10">
      <g>
       <use xlink:href="#m70b3a5d622" x="253.696053" y="102.240588" style="stroke: #000000; stroke-width: 0.8"/>
      </g>
     </g>
     <g id="text_5">
      <!-- scrolling_bottom_region -->
      <g transform="translate(183.813005 182.645961) rotate(-45) scale(0.1 -0.1)">
       <defs>
        <path id="CMSS17-62" d="M 954 4416 
L 480 4416 
L 480 -13 
L 966 -13 
L 966 274 
C 1210 38 1504 -64 1766 -64 
C 2381 -64 2880 549 2880 1352 
C 2880 2086 2496 2756 1926 2756 
C 1523 2756 1165 2591 954 2419 
L 954 4416 
z
M 966 2046 
C 1107 2222 1306 2368 1587 2368 
C 1965 2368 2394 2097 2394 1352 
C 2394 558 1882 325 1530 325 
C 1402 325 1267 356 1139 464 
C 966 615 966 709 966 797 
L 966 2046 
z
" transform="scale(0.015625)"/>
       </defs>
       <use xlink:href="#CMSS17-73" transform="scale(0.996264)"/>
       <use xlink:href="#CMSS17-63" transform="translate(35.913542 0) scale(0.996264)"/>
       <use xlink:href="#CMSS17-72" transform="translate(77.552364 0) scale(0.996264)"/>
       <use xlink:href="#CMSS17-6f" transform="translate(109.462137 0) scale(0.996264)"/>
       <use xlink:href="#CMSS17-6c" transform="translate(156.30576 0) scale(0.996264)"/>
       <use xlink:href="#CMSS17-6c" transform="translate(178.486483 0) scale(0.996264)"/>
       <use xlink:href="#CMSS17-69" transform="translate(200.667206 0) scale(0.996264)"/>
       <use xlink:href="#CMSS17-6e" transform="translate(222.847929 0) scale(0.996264)"/>
       <use xlink:href="#CMSS17-67" transform="translate(271.052872 0) scale(0.996264)"/>
       <use xlink:href="#CMSS17-62" transform="translate(351.623991 0) scale(0.996264)"/>
       <use xlink:href="#CMSS17-6f" transform="translate(402.431373 0) scale(0.996264)"/>
       <use xlink:href="#CMSS17-74" transform="translate(449.274997 0) scale(0.996264)"/>
       <use xlink:href="#CMSS17-74" transform="translate(483.106563 0) scale(0.996264)"/>
       <use xlink:href="#CMSS17-6f" transform="translate(516.93813 0) scale(0.996264)"/>
       <use xlink:href="#CMSS17-6d" transform="translate(563.781753 0) scale(0.996264)"/>
       <use xlink:href="#CMSS17-72" transform="translate(671.738503 0) scale(0.996264)"/>
       <use xlink:href="#CMSS17-65" transform="translate(703.648276 0) scale(0.996264)"/>
       <use xlink:href="#CMSS17-67" transform="translate(745.287098 0) scale(0.996264)"/>
       <use xlink:href="#CMSS17-69" transform="translate(792.130721 0) scale(0.996264)"/>
       <use xlink:href="#CMSS17-6f" transform="translate(814.311444 0) scale(0.996264)"/>
       <use xlink:href="#CMSS17-6e" transform="translate(861.155068 0) scale(0.996264)"/>
       <path d="M 323.517507 0 
L 351.623991 0 
L 351.623991 0.3985 
L 323.517507 0.3985 
L 323.517507 0 
z
"/>
       <path d="M 643.632019 0 
L 671.738503 0 
L 671.738503 0.3985 
L 643.632019 0.3985 
L 643.632019 0 
z
"/>
      </g>
     </g>
    </g>
    <g id="xtick_6">
     <g id="line2d_11">
      <path d="M 295.448964 102.240588 
L 295.448964 21.50218 
" clip-path="url(#p8028d11bd5)" style="fill: none; stroke-dasharray: 0.925,0.4; stroke-dashoffset: 0; stroke: #b0b0b0; stroke-opacity: 0.7; stroke-width: 0.25"/>
     </g>
     <g id="line2d_12">
      <g>
       <use xlink:href="#m70b3a5d622" x="295.448964" y="102.240588" style="stroke: #000000; stroke-width: 0.8"/>
      </g>
     </g>
     <g id="text_6">
      <!-- scrolling_bottom_small_region -->
      <g transform="translate(207.981669 200.230208) rotate(-45) scale(0.1 -0.1)">
       <defs>
        <path id="CMSS17-61" d="M 2406 1791 
C 2406 2392 1978 2808 1402 2808 
C 1120 2808 813 2757 461 2553 
L 499 2135 
C 659 2248 934 2432 1395 2432 
C 1722 2432 1920 2180 1920 1782 
L 1920 1536 
C 896 1536 256 1238 256 726 
C 256 461 416 -64 947 -64 
C 1043 -64 1562 -64 1933 217 
L 1933 -19 
L 2406 -19 
L 2406 1791 
z
M 1920 816 
C 1920 701 1920 548 1728 434 
C 1562 325 1350 325 1261 325 
C 941 325 723 511 723 744 
C 723 1211 1722 1211 1920 1211 
L 1920 816 
z
" transform="scale(0.015625)"/>
       </defs>
       <use xlink:href="#CMSS17-73" transform="scale(0.996264)"/>
       <use xlink:href="#CMSS17-63" transform="translate(35.913542 0) scale(0.996264)"/>
       <use xlink:href="#CMSS17-72" transform="translate(77.552364 0) scale(0.996264)"/>
       <use xlink:href="#CMSS17-6f" transform="translate(109.462137 0) scale(0.996264)"/>
       <use xlink:href="#CMSS17-6c" transform="translate(156.30576 0) scale(0.996264)"/>
       <use xlink:href="#CMSS17-6c" transform="translate(178.486483 0) scale(0.996264)"/>
       <use xlink:href="#CMSS17-69" transform="translate(200.667206 0) scale(0.996264)"/>
       <use xlink:href="#CMSS17-6e" transform="translate(222.847929 0) scale(0.996264)"/>
       <use xlink:href="#CMSS17-67" transform="translate(271.052872 0) scale(0.996264)"/>
       <use xlink:href="#CMSS17-62" transform="translate(351.623991 0) scale(0.996264)"/>
       <use xlink:href="#CMSS17-6f" transform="translate(402.431373 0) scale(0.996264)"/>
       <use xlink:href="#CMSS17-74" transform="translate(449.274997 0) scale(0.996264)"/>
       <use xlink:href="#CMSS17-74" transform="translate(483.106563 0) scale(0.996264)"/>
       <use xlink:href="#CMSS17-6f" transform="translate(516.93813 0) scale(0.996264)"/>
       <use xlink:href="#CMSS17-6d" transform="translate(563.781753 0) scale(0.996264)"/>
       <use xlink:href="#CMSS17-73" transform="translate(671.738503 0) scale(0.996264)"/>
       <use xlink:href="#CMSS17-6d" transform="translate(707.652045 0) scale(0.996264)"/>
       <use xlink:href="#CMSS17-61" transform="translate(781.8813 0) scale(0.996264)"/>
       <use xlink:href="#CMSS17-6c" transform="translate(826.80322 0) scale(0.996264)"/>
       <use xlink:href="#CMSS17-6c" transform="translate(848.983943 0) scale(0.996264)"/>
       <use xlink:href="#CMSS17-72" transform="translate(904.892162 0) scale(0.996264)"/>
       <use xlink:href="#CMSS17-65" transform="translate(936.801934 0) scale(0.996264)"/>
       <use xlink:href="#CMSS17-67" transform="translate(978.440756 0) scale(0.996264)"/>
       <use xlink:href="#CMSS17-69" transform="translate(1025.28438 0) scale(0.996264)"/>
       <use xlink:href="#CMSS17-6f" transform="translate(1047.465103 0) scale(0.996264)"/>
       <use xlink:href="#CMSS17-6e" transform="translate(1094.308726 0) scale(0.996264)"/>
       <path d="M 323.517507 0 
L 351.623991 0 
L 351.623991 0.3985 
L 323.517507 0.3985 
L 323.517507 0 
z
"/>
       <path d="M 643.632019 0 
L 671.738503 0 
L 671.738503 0.3985 
L 643.632019 0.3985 
L 643.632019 0 
z
"/>
       <path d="M 876.785677 0 
L 904.892162 0 
L 904.892162 0.3985 
L 876.785677 0.3985 
L 876.785677 0 
z
"/>
      </g>
     </g>
    </g>
    <g id="xtick_7">
     <g id="line2d_13">
      <path d="M 337.201875 102.240588 
L 337.201875 21.50218 
" clip-path="url(#p8028d11bd5)" style="fill: none; stroke-dasharray: 0.925,0.4; stroke-dashoffset: 0; stroke: #b0b0b0; stroke-opacity: 0.7; stroke-width: 0.25"/>
     </g>
     <g id="line2d_14">
      <g>
       <use xlink:href="#m70b3a5d622" x="337.201875" y="102.240588" style="stroke: #000000; stroke-width: 0.8"/>
      </g>
     </g>
     <g id="text_7">
      <!-- scrolling_fullscreen -->
      <g transform="translate(282.026556 167.938232) rotate(-45) scale(0.1 -0.1)">
       <defs>
        <path id="CMSS17-66" d="M 1075 2368 
L 1722 2368 
L 1722 2737 
L 1062 2737 
L 1062 3559 
C 1062 4014 1408 4092 1606 4092 
C 1670 4092 1850 4092 2080 4009 
L 2080 4429 
C 1933 4461 1754 4480 1613 4480 
C 1018 4480 602 3993 602 3359 
L 602 2737 
L 160 2737 
L 160 2368 
L 602 2368 
L 602 0 
L 1075 0 
L 1075 2368 
z
" transform="scale(0.015625)"/>
       </defs>
       <use xlink:href="#CMSS17-73" transform="scale(0.996264)"/>
       <use xlink:href="#CMSS17-63" transform="translate(35.913542 0) scale(0.996264)"/>
       <use xlink:href="#CMSS17-72" transform="translate(77.552364 0) scale(0.996264)"/>
       <use xlink:href="#CMSS17-6f" transform="translate(109.462137 0) scale(0.996264)"/>
       <use xlink:href="#CMSS17-6c" transform="translate(156.30576 0) scale(0.996264)"/>
       <use xlink:href="#CMSS17-6c" transform="translate(178.486483 0) scale(0.996264)"/>
       <use xlink:href="#CMSS17-69" transform="translate(200.667206 0) scale(0.996264)"/>
       <use xlink:href="#CMSS17-6e" transform="translate(222.847929 0) scale(0.996264)"/>
       <use xlink:href="#CMSS17-67" transform="translate(271.052872 0) scale(0.996264)"/>
       <use xlink:href="#CMSS17-66" transform="translate(351.623991 0) scale(0.996264)"/>
       <use xlink:href="#CMSS17-75" transform="translate(380.25065 0) scale(0.996264)"/>
       <use xlink:href="#CMSS17-6c" transform="translate(428.455593 0) scale(0.996264)"/>
       <use xlink:href="#CMSS17-6c" transform="translate(450.636316 0) scale(0.996264)"/>
       <use xlink:href="#CMSS17-73" transform="translate(472.817039 0) scale(0.996264)"/>
       <use xlink:href="#CMSS17-63" transform="translate(508.730581 0) scale(0.996264)"/>
       <use xlink:href="#CMSS17-72" transform="translate(550.369403 0) scale(0.996264)"/>
       <use xlink:href="#CMSS17-65" transform="translate(582.279176 0) scale(0.996264)"/>
       <use xlink:href="#CMSS17-65" transform="translate(623.917998 0) scale(0.996264)"/>
       <use xlink:href="#CMSS17-6e" transform="translate(665.55682 0) scale(0.996264)"/>
       <path d="M 323.517507 0 
L 351.623991 0 
L 351.623991 0.3985 
L 323.517507 0.3985 
L 323.517507 0 
z
"/>
      </g>
     </g>
    </g>
    <g id="xtick_8">
     <g id="line2d_15">
      <path d="M 378.954786 102.240588 
L 378.954786 21.50218 
" clip-path="url(#p8028d11bd5)" style="fill: none; stroke-dasharray: 0.925,0.4; stroke-dashoffset: 0; stroke: #b0b0b0; stroke-opacity: 0.7; stroke-width: 0.25"/>
     </g>
     <g id="line2d_16">
      <g>
       <use xlink:href="#m70b3a5d622" x="378.954786" y="102.240588" style="stroke: #000000; stroke-width: 0.8"/>
      </g>
     </g>
     <g id="text_8">
      <!-- scrolling_top_region -->
      <g transform="translate(320.930262 170.787437) rotate(-45) scale(0.1 -0.1)">
       <defs>
        <path id="CMSS17-70" d="M 966 333 
C 1178 129 1466 -5 1773 -5 
C 2368 -5 2880 603 2880 1412 
C 2880 2159 2496 2816 1946 2816 
C 1626 2816 1242 2702 954 2472 
L 954 2765 
L 480 2765 
L 480 -1216 
L 966 -1216 
L 966 333 
z
M 966 2100 
C 1018 2176 1235 2415 1587 2415 
C 2035 2415 2394 1960 2394 1412 
C 2394 787 1958 384 1530 384 
C 1402 384 1267 415 1139 523 
C 966 674 966 768 966 857 
L 966 2100 
z
" transform="scale(0.015625)"/>
       </defs>
       <use xlink:href="#CMSS17-73" transform="scale(0.996264)"/>
       <use xlink:href="#CMSS17-63" transform="translate(35.913542 0) scale(0.996264)"/>
       <use xlink:href="#CMSS17-72" transform="translate(77.552364 0) scale(0.996264)"/>
       <use xlink:href="#CMSS17-6f" transform="translate(109.462137 0) scale(0.996264)"/>
       <use xlink:href="#CMSS17-6c" transform="translate(156.30576 0) scale(0.996264)"/>
       <use xlink:href="#CMSS17-6c" transform="translate(178.486483 0) scale(0.996264)"/>
       <use xlink:href="#CMSS17-69" transform="translate(200.667206 0) scale(0.996264)"/>
       <use xlink:href="#CMSS17-6e" transform="translate(222.847929 0) scale(0.996264)"/>
       <use xlink:href="#CMSS17-67" transform="translate(271.052872 0) scale(0.996264)"/>
       <use xlink:href="#CMSS17-74" transform="translate(351.623991 0) scale(0.996264)"/>
       <use xlink:href="#CMSS17-6f" transform="translate(385.455558 0) scale(0.996264)"/>
       <use xlink:href="#CMSS17-70" transform="translate(432.299181 0) scale(0.996264)"/>
       <use xlink:href="#CMSS17-72" transform="translate(514.23162 0) scale(0.996264)"/>
       <use xlink:href="#CMSS17-65" transform="translate(546.141392 0) scale(0.996264)"/>
       <use xlink:href="#CMSS17-67" transform="translate(587.780214 0) scale(0.996264)"/>
       <use xlink:href="#CMSS17-69" transform="translate(634.623838 0) scale(0.996264)"/>
       <use xlink:href="#CMSS17-6f" transform="translate(656.804561 0) scale(0.996264)"/>
       <use xlink:href="#CMSS17-6e" transform="translate(703.648185 0) scale(0.996264)"/>
       <path d="M 323.517507 0 
L 351.623991 0 
L 351.623991 0.3985 
L 323.517507 0.3985 
L 323.517507 0 
z
"/>
       <path d="M 486.125136 0 
L 514.23162 0 
L 514.23162 0.3985 
L 486.125136 0.3985 
L 486.125136 0 
z
"/>
      </g>
     </g>
    </g>
    <g id="xtick_9">
     <g id="line2d_17">
      <path d="M 420.707697 102.240588 
L 420.707697 21.50218 
" clip-path="url(#p8028d11bd5)" style="fill: none; stroke-dasharray: 0.925,0.4; stroke-dashoffset: 0; stroke: #b0b0b0; stroke-opacity: 0.7; stroke-width: 0.25"/>
     </g>
     <g id="line2d_18">
      <g>
       <use xlink:href="#m70b3a5d622" x="420.707697" y="102.240588" style="stroke: #000000; stroke-width: 0.8"/>
      </g>
     </g>
     <g id="text_9">
      <!-- scrolling_top_small_region -->
      <g transform="translate(345.098925 188.371685) rotate(-45) scale(0.1 -0.1)">
       <use xlink:href="#CMSS17-73" transform="scale(0.996264)"/>
       <use xlink:href="#CMSS17-63" transform="translate(35.913542 0) scale(0.996264)"/>
       <use xlink:href="#CMSS17-72" transform="translate(77.552364 0) scale(0.996264)"/>
       <use xlink:href="#CMSS17-6f" transform="translate(109.462137 0) scale(0.996264)"/>
       <use xlink:href="#CMSS17-6c" transform="translate(156.30576 0) scale(0.996264)"/>
       <use xlink:href="#CMSS17-6c" transform="translate(178.486483 0) scale(0.996264)"/>
       <use xlink:href="#CMSS17-69" transform="translate(200.667206 0) scale(0.996264)"/>
       <use xlink:href="#CMSS17-6e" transform="translate(222.847929 0) scale(0.996264)"/>
       <use xlink:href="#CMSS17-67" transform="translate(271.052872 0) scale(0.996264)"/>
       <use xlink:href="#CMSS17-74" transform="translate(351.623991 0) scale(0.996264)"/>
       <use xlink:href="#CMSS17-6f" transform="translate(385.455558 0) scale(0.996264)"/>
       <use xlink:href="#CMSS17-70" transform="translate(432.299181 0) scale(0.996264)"/>
       <use xlink:href="#CMSS17-73" transform="translate(514.23162 0) scale(0.996264)"/>
       <use xlink:href="#CMSS17-6d" transform="translate(550.145162 0) scale(0.996264)"/>
       <use xlink:href="#CMSS17-61" transform="translate(624.374416 0) scale(0.996264)"/>
       <use xlink:href="#CMSS17-6c" transform="translate(669.296337 0) scale(0.996264)"/>
       <use xlink:href="#CMSS17-6c" transform="translate(691.47706 0) scale(0.996264)"/>
       <use xlink:href="#CMSS17-72" transform="translate(747.385278 0) scale(0.996264)"/>
       <use xlink:href="#CMSS17-65" transform="translate(779.295051 0) scale(0.996264)"/>
       <use xlink:href="#CMSS17-67" transform="translate(820.933873 0) scale(0.996264)"/>
       <use xlink:href="#CMSS17-69" transform="translate(867.777496 0) scale(0.996264)"/>
       <use xlink:href="#CMSS17-6f" transform="translate(889.958219 0) scale(0.996264)"/>
       <use xlink:href="#CMSS17-6e" transform="translate(936.801843 0) scale(0.996264)"/>
       <path d="M 323.517507 0 
L 351.623991 0 
L 351.623991 0.3985 
L 323.517507 0.3985 
L 323.517507 0 
z
"/>
       <path d="M 486.125136 0 
L 514.23162 0 
L 514.23162 0.3985 
L 486.125136 0.3985 
L 486.125136 0 
z
"/>
       <path d="M 719.278794 0 
L 747.385278 0 
L 747.385278 0.3985 
L 719.278794 0.3985 
L 719.278794 0 
z
"/>
      </g>
     </g>
    </g>
    <g id="xtick_10">
     <g id="line2d_19">
      <path d="M 462.460608 102.240588 
L 462.460608 21.50218 
" clip-path="url(#p8028d11bd5)" style="fill: none; stroke-dasharray: 0.925,0.4; stroke-dashoffset: 0; stroke: #b0b0b0; stroke-opacity: 0.7; stroke-width: 0.25"/>
     </g>
     <g id="line2d_20">
      <g>
       <use xlink:href="#m70b3a5d622" x="462.460608" y="102.240588" style="stroke: #000000; stroke-width: 0.8"/>
      </g>
     </g>
     <g id="text_10">
      <!-- unicode -->
      <g transform="translate(438.508775 136.714746) rotate(-45) scale(0.1 -0.1)">
       <use xlink:href="#CMSS17-75" transform="scale(0.996264)"/>
       <use xlink:href="#CMSS17-6e" transform="translate(48.204943 0) scale(0.996264)"/>
       <use xlink:href="#CMSS17-69" transform="translate(96.409886 0) scale(0.996264)"/>
       <use xlink:href="#CMSS17-63" transform="translate(118.590609 0) scale(0.996264)"/>
       <use xlink:href="#CMSS17-6f" transform="translate(160.229431 0) scale(0.996264)"/>
       <use xlink:href="#CMSS17-64" transform="translate(209.675494 0) scale(0.996264)"/>
       <use xlink:href="#CMSS17-65" transform="translate(257.880437 0) scale(0.996264)"/>
      </g>
     </g>
    </g>
   </g>
   <g id="matplotlib.axis_2">
    <g id="ytick_1">
     <g id="line2d_21">
      <path d="M 59.545017 102.240588 
L 489.6 102.240588 
" clip-path="url(#p8028d11bd5)" style="fill: none; stroke-dasharray: 0.925,0.4; stroke-dashoffset: 0; stroke: #b0b0b0; stroke-opacity: 0.7; stroke-width: 0.25"/>
     </g>
     <g id="line2d_22">
      <defs>
       <path id="m1a3b9e99e3" d="M 0 0 
L -3.5 0 
" style="stroke: #000000; stroke-width: 0.8"/>
      </defs>
      <g>
       <use xlink:href="#m1a3b9e99e3" x="59.545017" y="102.240588" style="stroke: #000000; stroke-width: 0.8"/>
      </g>
     </g>
     <g id="text_11">
      <!-- $\mathdefault{0}$ -->
      <g transform="translate(47.563682 105.699837) scale(0.1 -0.1)">
       <defs>
        <path id="CMR17-30" d="M 2688 2025 
C 2688 2416 2682 3080 2413 3591 
C 2176 4039 1798 4198 1466 4198 
C 1158 4198 768 4058 525 3597 
C 269 3118 243 2524 243 2025 
C 243 1661 250 1106 448 619 
C 723 -39 1216 -128 1466 -128 
C 1760 -128 2208 -7 2470 600 
C 2662 1042 2688 1559 2688 2025 
z
M 1466 -26 
C 1056 -26 813 325 723 812 
C 653 1188 653 1738 653 2096 
C 653 2588 653 2997 736 3387 
C 858 3929 1216 4096 1466 4096 
C 1728 4096 2067 3923 2189 3400 
C 2272 3036 2278 2607 2278 2096 
C 2278 1680 2278 1169 2202 792 
C 2067 95 1690 -26 1466 -26 
z
" transform="scale(0.015625)"/>
       </defs>
       <use xlink:href="#CMR17-30" transform="scale(0.996264)"/>
      </g>
     </g>
    </g>
    <g id="ytick_2">
     <g id="line2d_23">
      <path d="M 59.545017 72.461585 
L 489.6 72.461585 
" clip-path="url(#p8028d11bd5)" style="fill: none; stroke-dasharray: 0.925,0.4; stroke-dashoffset: 0; stroke: #b0b0b0; stroke-opacity: 0.7; stroke-width: 0.25"/>
     </g>
     <g id="line2d_24">
      <g>
       <use xlink:href="#m1a3b9e99e3" x="59.545017" y="72.461585" style="stroke: #000000; stroke-width: 0.8"/>
      </g>
     </g>
     <g id="text_12">
      <!-- $\mathdefault{500}$ -->
      <g transform="translate(37.601011 75.920834) scale(0.1 -0.1)">
       <defs>
        <path id="CMR17-35" d="M 730 3692 
C 794 3666 1056 3584 1325 3584 
C 1920 3584 2246 3911 2432 4100 
C 2432 4157 2432 4192 2394 4192 
C 2387 4192 2374 4192 2323 4163 
C 2099 4058 1837 3973 1517 3973 
C 1325 3973 1037 3999 723 4139 
C 653 4171 640 4171 634 4171 
C 602 4171 595 4164 595 4037 
L 595 2203 
C 595 2089 595 2057 659 2057 
C 691 2057 704 2070 736 2114 
C 941 2401 1222 2522 1542 2522 
C 1766 2522 2246 2382 2246 1289 
C 2246 1085 2246 715 2054 421 
C 1894 159 1645 25 1370 25 
C 947 25 518 320 403 814 
C 429 807 480 795 506 795 
C 589 795 749 840 749 1038 
C 749 1210 627 1280 506 1280 
C 358 1280 262 1190 262 1011 
C 262 454 704 -128 1382 -128 
C 2042 -128 2669 440 2669 1264 
C 2669 2030 2170 2624 1549 2624 
C 1222 2624 947 2503 730 2274 
L 730 3692 
z
" transform="scale(0.015625)"/>
       </defs>
       <use xlink:href="#CMR17-35" transform="scale(0.996264)"/>
       <use xlink:href="#CMR17-30" transform="translate(45.690477 0) scale(0.996264)"/>
       <use xlink:href="#CMR17-30" transform="translate(91.380954 0) scale(0.996264)"/>
      </g>
     </g>
    </g>
    <g id="ytick_3">
     <g id="line2d_25">
      <path d="M 59.545017 42.682582 
L 489.6 42.682582 
" clip-path="url(#p8028d11bd5)" style="fill: none; stroke-dasharray: 0.925,0.4; stroke-dashoffset: 0; stroke: #b0b0b0; stroke-opacity: 0.7; stroke-width: 0.25"/>
     </g>
     <g id="line2d_26">
      <g>
       <use xlink:href="#m1a3b9e99e3" x="59.545017" y="42.682582" style="stroke: #000000; stroke-width: 0.8"/>
      </g>
     </g>
     <g id="text_13">
      <!-- $\mathdefault{1000}$ -->
      <g transform="translate(32.619676 46.141832) scale(0.1 -0.1)">
       <defs>
        <path id="CMR17-31" d="M 1702 4058 
C 1702 4192 1696 4192 1606 4192 
C 1357 3916 979 3827 621 3827 
C 602 3827 570 3827 563 3808 
C 557 3795 557 3782 557 3648 
C 755 3648 1088 3686 1344 3839 
L 1344 461 
C 1344 236 1331 160 781 160 
L 589 160 
L 589 0 
C 896 0 1216 0 1523 0 
C 1830 0 2150 0 2458 0 
L 2458 160 
L 2266 160 
C 1715 160 1702 230 1702 458 
L 1702 4058 
z
" transform="scale(0.015625)"/>
       </defs>
       <use xlink:href="#CMR17-31" transform="scale(0.996264)"/>
       <use xlink:href="#CMR17-30" transform="translate(45.690477 0) scale(0.996264)"/>
       <use xlink:href="#CMR17-30" transform="translate(91.380954 0) scale(0.996264)"/>
       <use xlink:href="#CMR17-30" transform="translate(137.071431 0) scale(0.996264)"/>
      </g>
     </g>
    </g>
    <g id="text_14">
     <!-- Wall-clock time (ms) -->
     <g transform="translate(14.67198 105.776237) rotate(-90) scale(0.1 -0.1)">
      <defs>
       <path id="CMSS17-57" d="M 5581 4416 
L 5094 4416 
L 4557 2437 
C 4474 2118 4397 1801 4320 1482 
C 4205 1011 4122 681 4109 515 
L 4102 515 
C 4090 687 4006 1049 3904 1457 
C 3827 1795 3744 2131 3654 2462 
L 3123 4416 
L 2586 4416 
L 2080 2562 
L 1824 1549 
C 1632 747 1626 632 1613 505 
L 1606 505 
C 1606 543 1581 753 1402 1498 
C 1312 1868 1222 2244 1126 2601 
L 634 4416 
L 83 4416 
L 1299 0 
L 1830 0 
L 2336 1839 
L 2592 2851 
C 2765 3564 2803 3742 2816 3901 
L 2822 3901 
C 2822 3876 2880 3474 3130 2545 
L 3808 0 
L 4365 0 
L 5581 4416 
z
" transform="scale(0.015625)"/>
       <path id="CMSS17-2d" d="M 1664 1216 
L 1664 1585 
L 64 1585 
L 64 1216 
L 1664 1216 
z
" transform="scale(0.015625)"/>
       <path id="CMSS17-6b" d="M 1696 1688 
L 2688 2739 
L 2074 2739 
L 954 1554 
L 954 4416 
L 480 4416 
L 480 0 
L 947 0 
L 947 892 
L 1376 1344 
L 2278 0 
L 2822 0 
L 1696 1688 
z
" transform="scale(0.015625)"/>
       <path id="CMSS17-28" d="M 1613 4768 
C 1267 4417 474 3601 474 1588 
C 474 -433 1267 -1243 1613 -1600 
L 2003 -1600 
C 1216 -784 960 357 960 1581 
C 960 2798 1203 3946 2003 4768 
L 1613 4768 
z
" transform="scale(0.015625)"/>
       <path id="CMSS17-29" d="M 723 -1600 
C 1069 -1249 1862 -433 1862 1581 
C 1862 3601 1069 4411 723 4768 
L 333 4768 
C 1120 3952 1376 2811 1376 1588 
C 1376 370 1133 -778 333 -1600 
L 723 -1600 
z
" transform="scale(0.015625)"/>
      </defs>
      <use xlink:href="#CMSS17-57" transform="scale(0.996264)"/>
      <use xlink:href="#CMSS17-61" transform="translate(85.639712 0) scale(0.996264)"/>
      <use xlink:href="#CMSS17-6c" transform="translate(130.561633 0) scale(0.996264)"/>
      <use xlink:href="#CMSS17-6c" transform="translate(152.742356 0) scale(0.996264)"/>
      <use xlink:href="#CMSS17-2d" transform="translate(174.923079 0) scale(0.996264)"/>
      <use xlink:href="#CMSS17-63" transform="translate(206.152192 0) scale(0.996264)"/>
      <use xlink:href="#CMSS17-6c" transform="translate(247.791014 0) scale(0.996264)"/>
      <use xlink:href="#CMSS17-6f" transform="translate(269.971737 0) scale(0.996264)"/>
      <use xlink:href="#CMSS17-63" transform="translate(319.417799 0) scale(0.996264)"/>
      <use xlink:href="#CMSS17-6b" transform="translate(361.056621 0) scale(0.996264)"/>
      <use xlink:href="#CMSS17-74" transform="translate(437.888223 0) scale(0.996264)"/>
      <use xlink:href="#CMSS17-69" transform="translate(471.71979 0) scale(0.996264)"/>
      <use xlink:href="#CMSS17-6d" transform="translate(493.900513 0) scale(0.996264)"/>
      <use xlink:href="#CMSS17-65" transform="translate(568.129767 0) scale(0.996264)"/>
      <use xlink:href="#CMSS17-28" transform="translate(640.997702 0) scale(0.996264)"/>
      <use xlink:href="#CMSS17-6d" transform="translate(677.431616 0) scale(0.996264)"/>
      <use xlink:href="#CMSS17-73" transform="translate(751.660871 0) scale(0.996264)"/>
      <use xlink:href="#CMSS17-29" transform="translate(787.574413 0) scale(0.996264)"/>
     </g>
     <!-- (lower is better) -->
     <g transform="translate(26.129016 95.329291) rotate(-90) scale(0.1 -0.1)">
      <defs>
       <path id="CMSS17-77" d="M 4013 2752 
L 3526 2752 
L 3187 1601 
C 3117 1358 2918 685 2893 371 
L 2886 371 
C 2874 564 2765 1024 2586 1633 
L 2259 2752 
L 1818 2752 
L 1498 1658 
C 1338 1101 1216 627 1203 371 
L 1197 371 
C 1171 749 909 1633 870 1773 
L 582 2752 
L 83 2752 
L 915 0 
L 1402 0 
C 1734 1096 1990 1943 2010 2370 
C 2022 2160 2131 1707 2195 1484 
L 2618 0 
L 3181 0 
L 4013 2752 
z
" transform="scale(0.015625)"/>
      </defs>
      <use xlink:href="#CMSS17-28" transform="scale(0.996264)"/>
      <use xlink:href="#CMSS17-6c" transform="translate(36.433914 0) scale(0.996264)"/>
      <use xlink:href="#CMSS17-6f" transform="translate(58.614637 0) scale(0.996264)"/>
      <use xlink:href="#CMSS17-77" transform="translate(102.855807 0) scale(0.996264)"/>
      <use xlink:href="#CMSS17-65" transform="translate(164.072898 0) scale(0.996264)"/>
      <use xlink:href="#CMSS17-72" transform="translate(205.71172 0) scale(0.996264)"/>
      <use xlink:href="#CMSS17-69" transform="translate(268.850605 0) scale(0.996264)"/>
      <use xlink:href="#CMSS17-73" transform="translate(291.031328 0) scale(0.996264)"/>
      <use xlink:href="#CMSS17-62" transform="translate(358.173983 0) scale(0.996264)"/>
      <use xlink:href="#CMSS17-65" transform="translate(408.981365 0) scale(0.996264)"/>
      <use xlink:href="#CMSS17-74" transform="translate(450.620187 0) scale(0.996264)"/>
      <use xlink:href="#CMSS17-74" transform="translate(484.451754 0) scale(0.996264)"/>
      <use xlink:href="#CMSS17-65" transform="translate(518.28332 0) scale(0.996264)"/>
      <use xlink:href="#CMSS17-72" transform="translate(559.922143 0) scale(0.996264)"/>
      <use xlink:href="#CMSS17-29" transform="translate(591.831915 0) scale(0.996264)"/>
     </g>
    </g>
   </g>
   <g id="LineCollection_1">
    <path d="M 78.333827 62.291068 
L 78.333827 61.350041 
" clip-path="url(#p8028d11bd5)" style="fill: none; stroke: #000000"/>
    <path d="M 120.086738 22.783442 
L 120.086738 21.804342 
" clip-path="url(#p8028d11bd5)" style="fill: none; stroke: #000000"/>
    <path d="M 161.839649 88.202052 
L 161.839649 86.976585 
" clip-path="url(#p8028d11bd5)" style="fill: none; stroke: #000000"/>
    <path d="M 203.59256 65.988264 
L 203.59256 65.117449 
" clip-path="url(#p8028d11bd5)" style="fill: none; stroke: #000000"/>
    <path d="M 245.345471 89.598597 
L 245.345471 89.113815 
" clip-path="url(#p8028d11bd5)" style="fill: none; stroke: #000000"/>
    <path d="M 287.098382 89.495553 
L 287.098382 88.899216 
" clip-path="url(#p8028d11bd5)" style="fill: none; stroke: #000000"/>
    <path d="M 328.851293 64.563892 
L 328.851293 63.563921 
" clip-path="url(#p8028d11bd5)" style="fill: none; stroke: #000000"/>
    <path d="M 370.604204 89.396537 
L 370.604204 88.759999 
" clip-path="url(#p8028d11bd5)" style="fill: none; stroke: #000000"/>
    <path d="M 412.357115 89.529446 
L 412.357115 88.905028 
" clip-path="url(#p8028d11bd5)" style="fill: none; stroke: #000000"/>
    <path d="M 454.110026 89.467398 
L 454.110026 88.84796 
" clip-path="url(#p8028d11bd5)" style="fill: none; stroke: #000000"/>
   </g>
   <g id="line2d_27">
    <defs>
     <path id="m64d640795e" d="M 2 0 
L -2 -0 
" style="stroke: #000000"/>
    </defs>
    <g clip-path="url(#p8028d11bd5)">
     <use xlink:href="#m64d640795e" x="78.333827" y="62.291068" style="stroke: #000000"/>
     <use xlink:href="#m64d640795e" x="120.086738" y="22.783442" style="stroke: #000000"/>
     <use xlink:href="#m64d640795e" x="161.839649" y="88.202052" style="stroke: #000000"/>
     <use xlink:href="#m64d640795e" x="203.59256" y="65.988264" style="stroke: #000000"/>
     <use xlink:href="#m64d640795e" x="245.345471" y="89.598597" style="stroke: #000000"/>
     <use xlink:href="#m64d640795e" x="287.098382" y="89.495553" style="stroke: #000000"/>
     <use xlink:href="#m64d640795e" x="328.851293" y="64.563892" style="stroke: #000000"/>
     <use xlink:href="#m64d640795e" x="370.604204" y="89.396537" style="stroke: #000000"/>
     <use xlink:href="#m64d640795e" x="412.357115" y="89.529446" style="stroke: #000000"/>
     <use xlink:href="#m64d640795e" x="454.110026" y="89.467398" style="stroke: #000000"/>
    </g>
   </g>
   <g id="line2d_28">
    <g clip-path="url(#p8028d11bd5)">
     <use xlink:href="#m64d640795e" x="78.333827" y="61.350041" style="stroke: #000000"/>
     <use xlink:href="#m64d640795e" x="120.086738" y="21.804342" style="stroke: #000000"/>
     <use xlink:href="#m64d640795e" x="161.839649" y="86.976585" style="stroke: #000000"/>
     <use xlink:href="#m64d640795e" x="203.59256" y="65.117449" style="stroke: #000000"/>
     <use xlink:href="#m64d640795e" x="245.345471" y="89.113815" style="stroke: #000000"/>
     <use xlink:href="#m64d640795e" x="287.098382" y="88.899216" style="stroke: #000000"/>
     <use xlink:href="#m64d640795e" x="328.851293" y="63.563921" style="stroke: #000000"/>
     <use xlink:href="#m64d640795e" x="370.604204" y="88.759999" style="stroke: #000000"/>
     <use xlink:href="#m64d640795e" x="412.357115" y="88.905028" style="stroke: #000000"/>
     <use xlink:href="#m64d640795e" x="454.110026" y="88.84796" style="stroke: #000000"/>
    </g>
   </g>
   <g id="LineCollection_2">
    <path d="M 95.034992 62.157644 
L 95.034992 61.324645 
" clip-path="url(#p8028d11bd5)" style="fill: none; stroke: #000000"/>
    <path d="M 136.787902 22.331203 
L 136.787902 21.50218 
" clip-path="url(#p8028d11bd5)" style="fill: none; stroke: #000000"/>
    <path d="M 178.540813 87.314431 
L 178.540813 86.673045 
" clip-path="url(#p8028d11bd5)" style="fill: none; stroke: #000000"/>
    <path d="M 220.293724 66.41834 
L 220.293724 65.441774 
" clip-path="url(#p8028d11bd5)" style="fill: none; stroke: #000000"/>
    <path d="M 262.046635 89.328032 
L 262.046635 88.788799 
" clip-path="url(#p8028d11bd5)" style="fill: none; stroke: #000000"/>
    <path d="M 303.799546 89.237295 
L 303.799546 88.641305 
" clip-path="url(#p8028d11bd5)" style="fill: none; stroke: #000000"/>
    <path d="M 345.552457 64.838367 
L 345.552457 63.924731 
" clip-path="url(#p8028d11bd5)" style="fill: none; stroke: #000000"/>
    <path d="M 387.305368 89.208471 
L 387.305368 88.630423 
" clip-path="url(#p8028d11bd5)" style="fill: none; stroke: #000000"/>
    <path d="M 429.058279 89.333378 
L 429.058279 88.862864 
" clip-path="url(#p8028d11bd5)" style="fill: none; stroke: #000000"/>
    <path d="M 470.81119 89.14954 
L 470.81119 88.451123 
" clip-path="url(#p8028d11bd5)" style="fill: none; stroke: #000000"/>
   </g>
   <g id="line2d_29">
    <g clip-path="url(#p8028d11bd5)">
     <use xlink:href="#m64d640795e" x="95.034992" y="62.157644" style="stroke: #000000"/>
     <use xlink:href="#m64d640795e" x="136.787902" y="22.331203" style="stroke: #000000"/>
     <use xlink:href="#m64d640795e" x="178.540813" y="87.314431" style="stroke: #000000"/>
     <use xlink:href="#m64d640795e" x="220.293724" y="66.41834" style="stroke: #000000"/>
     <use xlink:href="#m64d640795e" x="262.046635" y="89.328032" style="stroke: #000000"/>
     <use xlink:href="#m64d640795e" x="303.799546" y="89.237295" style="stroke: #000000"/>
     <use xlink:href="#m64d640795e" x="345.552457" y="64.838367" style="stroke: #000000"/>
     <use xlink:href="#m64d640795e" x="387.305368" y="89.208471" style="stroke: #000000"/>
     <use xlink:href="#m64d640795e" x="429.058279" y="89.333378" style="stroke: #000000"/>
     <use xlink:href="#m64d640795e" x="470.81119" y="89.14954" style="stroke: #000000"/>
    </g>
   </g>
   <g id="line2d_30">
    <g clip-path="url(#p8028d11bd5)">
     <use xlink:href="#m64d640795e" x="95.034992" y="61.324645" style="stroke: #000000"/>
     <use xlink:href="#m64d640795e" x="136.787902" y="21.50218" style="stroke: #000000"/>
     <use xlink:href="#m64d640795e" x="178.540813" y="86.673045" style="stroke: #000000"/>
     <use xlink:href="#m64d640795e" x="220.293724" y="65.441774" style="stroke: #000000"/>
     <use xlink:href="#m64d640795e" x="262.046635" y="88.788799" style="stroke: #000000"/>
     <use xlink:href="#m64d640795e" x="303.799546" y="88.641305" style="stroke: #000000"/>
     <use xlink:href="#m64d640795e" x="345.552457" y="63.924731" style="stroke: #000000"/>
     <use xlink:href="#m64d640795e" x="387.305368" y="88.630423" style="stroke: #000000"/>
     <use xlink:href="#m64d640795e" x="429.058279" y="88.862864" style="stroke: #000000"/>
     <use xlink:href="#m64d640795e" x="470.81119" y="88.451123" style="stroke: #000000"/>
    </g>
   </g>
   <g id="patch_23">
    <path d="M 59.545017 102.240588 
L 59.545017 21.50218 
" style="fill: none; stroke: #000000; stroke-width: 0.8; stroke-linejoin: miter; stroke-linecap: square"/>
   </g>
   <g id="patch_24">
    <path d="M 59.545017 102.240588 
L 489.6 102.240588 
" style="fill: none; stroke: #000000; stroke-width: 0.8; stroke-linejoin: miter; stroke-linecap: square"/>
   </g>
   <g id="text_15">
    <!-- alacritty -->
    <g transform="translate(254.882696 15.50218) scale(0.12 -0.12)">
     <defs>
      <path id="CMSS17-79" d="M 2675 2752 
L 2176 2752 
C 1632 1294 1446 702 1434 383 
L 1427 383 
C 1408 696 1126 1460 902 2007 
L 602 2752 
L 83 2752 
L 1216 13 
C 1146 -178 1043 -465 1011 -529 
C 870 -885 774 -885 672 -885 
C 646 -885 442 -885 211 -809 
L 250 -1229 
C 410 -1261 570 -1280 685 -1280 
C 845 -1280 1165 -1280 1459 -497 
L 2675 2752 
z
" transform="scale(0.015625)"/>
     </defs>
     <use xlink:href="#CMSS17-61" transform="scale(0.996264)"/>
     <use xlink:href="#CMSS17-6c" transform="translate(44.921921 0) scale(0.996264)"/>
     <use xlink:href="#CMSS17-61" transform="translate(67.102644 0) scale(0.996264)"/>
     <use xlink:href="#CMSS17-63" transform="translate(112.024564 0) scale(0.996264)"/>
     <use xlink:href="#CMSS17-72" transform="translate(153.663386 0) scale(0.996264)"/>
     <use xlink:href="#CMSS17-69" transform="translate(185.573159 0) scale(0.996264)"/>
     <use xlink:href="#CMSS17-74" transform="translate(207.753882 0) scale(0.996264)"/>
     <use xlink:href="#CMSS17-74" transform="translate(241.585449 0) scale(0.996264)"/>
     <use xlink:href="#CMSS17-79" transform="translate(272.814561 0) scale(0.996264)"/>
    </g>
   </g>
   <g id="legend_1">
    <g id="patch_25">
     <path d="M 429.899809 57.376536 
L 482.6 57.376536 
Q 484.6 57.376536 484.6 55.376536 
L 484.6 28.50218 
Q 484.6 26.50218 482.6 26.50218 
L 429.899809 26.50218 
Q 427.899809 26.50218 427.899809 28.50218 
L 427.899809 55.376536 
Q 427.899809 57.376536 429.899809 57.376536 
z
" style="fill: #ffffff; opacity: 0.8; stroke: #cccccc; stroke-linejoin: miter"/>
    </g>
    <g id="patch_26">
     <path d="M 431.899809 37.50218 
L 451.899809 37.50218 
L 451.899809 30.50218 
L 431.899809 30.50218 
z
" style="fill: #1f77b4"/>
    </g>
    <g id="text_16">
     <!-- ARC -->
     <g transform="translate(459.899809 37.50218) scale(0.1 -0.1)">
      <defs>
       <path id="CMSS17-41" d="M 2272 4416 
L 1722 4416 
L 166 0 
L 653 0 
L 1101 1280 
L 2816 1280 
L 3270 0 
L 3827 0 
L 2272 4416 
z
M 2694 1637 
L 1222 1637 
C 1530 2528 1914 3638 1958 3925 
L 1965 3925 
C 2010 3663 2138 3281 2246 2956 
L 2694 1637 
z
" transform="scale(0.015625)"/>
       <path id="CMSS17-52" d="M 2522 2109 
L 2534 2115 
C 3533 2459 3539 3147 3539 3268 
C 3539 3873 2925 4453 2003 4453 
L 570 4453 
L 570 32 
L 1094 32 
L 1094 2048 
L 2035 2048 
L 3168 32 
L 3706 32 
L 2522 2109 
z
M 1094 2437 
L 1094 4096 
L 1933 4096 
C 2746 4096 3034 3637 3034 3267 
C 3034 2922 2778 2437 1933 2437 
L 1094 2437 
z
" transform="scale(0.015625)"/>
       <path id="CMSS17-43" d="M 3501 714 
C 3072 427 2874 344 2355 344 
C 1459 344 934 1303 934 2179 
C 934 3112 1472 4032 2381 4032 
C 2790 4032 3059 3918 3386 3715 
L 3475 4217 
C 3168 4370 2778 4440 2387 4440 
C 1158 4440 397 3316 397 2179 
C 397 927 1299 -64 2323 -64 
C 2874 -64 3066 -19 3539 280 
L 3501 714 
z
" transform="scale(0.015625)"/>
      </defs>
      <use xlink:href="#CMSS17-41" transform="scale(0.996264)"/>
      <use xlink:href="#CMSS17-52" transform="translate(62.217855 0) scale(0.996264)"/>
      <use xlink:href="#CMSS17-43" transform="translate(122.63401 0) scale(0.996264)"/>
     </g>
    </g>
    <g id="patch_27">
     <path d="M 431.899809 51.439358 
L 451.899809 51.439358 
L 451.899809 44.439358 
L 431.899809 44.439358 
z
" style="fill: #ff7f0e"/>
    </g>
    <g id="text_17">
     <!-- Alloy -->
     <g transform="translate(459.899809 51.439358) scale(0.1 -0.1)">
      <use xlink:href="#CMSS17-41" transform="scale(0.996264)"/>
      <use xlink:href="#CMSS17-6c" transform="translate(62.217855 0) scale(0.996264)"/>
      <use xlink:href="#CMSS17-6c" transform="translate(84.398578 0) scale(0.996264)"/>
      <use xlink:href="#CMSS17-6f" transform="translate(106.579301 0) scale(0.996264)"/>
      <use xlink:href="#CMSS17-79" transform="translate(150.820471 0) scale(0.996264)"/>
     </g>
    </g>
   </g>
  </g>
 </g>
 <defs>
  <clipPath id="p8028d11bd5">
   <rect x="59.545017" y="21.50218" width="430.054983" height="80.738408"/>
  </clipPath>
 </defs>
</svg>
