<?xml version="1.0" encoding="utf-8" standalone="no"?>
<!DOCTYPE svg PUBLIC "-//W3C//DTD SVG 1.1//EN"
  "http://www.w3.org/Graphics/SVG/1.1/DTD/svg11.dtd">
<svg xmlns:xlink="http://www.w3.org/1999/xlink" width="348.48pt" height="204.48pt" viewBox="0 0 348.48 204.48" xmlns="http://www.w3.org/2000/svg" version="1.1">
 <metadata>
  <rdf:RDF xmlns:dc="http://purl.org/dc/elements/1.1/" xmlns:cc="http://creativecommons.org/ns#" xmlns:rdf="http://www.w3.org/1999/02/22-rdf-syntax-ns#">
   <cc:Work>
    <dc:type rdf:resource="http://purl.org/dc/dcmitype/StillImage"/>
    <dc:date>2024-10-14T23:18:32.738566</dc:date>
    <dc:format>image/svg+xml</dc:format>
    <dc:creator>
     <cc:Agent>
      <dc:title>Matplotlib v3.9.2, https://matplotlib.org/</dc:title>
     </cc:Agent>
    </dc:creator>
   </cc:Work>
  </rdf:RDF>
 </metadata>
 <defs>
  <style type="text/css">*{stroke-linejoin: round; stroke-linecap: butt}</style>
 </defs>
 <g id="figure_1">
  <g id="patch_1">
   <path d="M 0 204.48 
L 348.48 204.48 
L 348.48 0 
L 0 0 
z
" style="fill: #ffffff"/>
  </g>
  <g id="axes_1">
   <g id="patch_2">
    <path d="M 70.836679 146.083591 
L 341.28 146.083591 
L 341.28 7.2 
L 70.836679 7.2 
z
" style="fill: #ffffff"/>
   </g>
   <g id="matplotlib.axis_1">
    <g id="xtick_1">
     <g id="line2d_1">
      <path d="M 70.836679 146.083591 
L 70.836679 7.2 
" clip-path="url(#p4767a12016)" style="fill: none; stroke: #cccccc; stroke-width: 0.25; stroke-linecap: round"/>
     </g>
     <g id="line2d_2">
      <defs>
       <path id="m0a1854df88" d="M 0 0 
L 0 6 
" style="stroke: #262626; stroke-width: 1.25"/>
      </defs>
      <g>
       <use xlink:href="#m0a1854df88" x="70.836679" y="146.083591" style="fill: #262626; stroke: #262626; stroke-width: 1.25"/>
      </g>
     </g>
     <g id="text_1">
      <!-- $\mathdefault{0}$ -->
      <g style="fill: #262626" transform="translate(68.096945 163.193937) scale(0.11 -0.11)">
       <defs>
        <path id="CMR17-30" d="M 2688 2025 
C 2688 2416 2682 3080 2413 3591 
C 2176 4039 1798 4198 1466 4198 
C 1158 4198 768 4058 525 3597 
C 269 3118 243 2524 243 2025 
C 243 1661 250 1106 448 619 
C 723 -39 1216 -128 1466 -128 
C 1760 -128 2208 -7 2470 600 
C 2662 1042 2688 1559 2688 2025 
z
M 1466 -26 
C 1056 -26 813 325 723 812 
C 653 1188 653 1738 653 2096 
C 653 2588 653 2997 736 3387 
C 858 3929 1216 4096 1466 4096 
C 1728 4096 2067 3923 2189 3400 
C 2272 3036 2278 2607 2278 2096 
C 2278 1680 2278 1169 2202 792 
C 2067 95 1690 -26 1466 -26 
z
" transform="scale(0.015625)"/>
       </defs>
       <use xlink:href="#CMR17-30" transform="scale(0.996264)"/>
      </g>
     </g>
    </g>
    <g id="xtick_2">
     <g id="line2d_3">
      <path d="M 118.233608 146.083591 
L 118.233608 7.2 
" clip-path="url(#p4767a12016)" style="fill: none; stroke: #cccccc; stroke-width: 0.25; stroke-linecap: round"/>
     </g>
     <g id="line2d_4">
      <g>
       <use xlink:href="#m0a1854df88" x="118.233608" y="146.083591" style="fill: #262626; stroke: #262626; stroke-width: 1.25"/>
      </g>
     </g>
     <g id="text_2">
      <!-- $\mathdefault{2}$ -->
      <g style="fill: #262626" transform="translate(115.493875 163.193937) scale(0.11 -0.11)">
       <defs>
        <path id="CMR17-32" d="M 2669 989 
L 2554 989 
C 2490 536 2438 459 2413 420 
C 2381 369 1920 369 1830 369 
L 602 369 
C 832 619 1280 1072 1824 1597 
C 2214 1967 2669 2402 2669 3035 
C 2669 3790 2067 4224 1395 4224 
C 691 4224 262 3604 262 3030 
C 262 2780 448 2748 525 2748 
C 589 2748 781 2787 781 3010 
C 781 3207 614 3264 525 3264 
C 486 3264 448 3258 422 3245 
C 544 3790 915 4058 1306 4058 
C 1862 4058 2227 3617 2227 3035 
C 2227 2479 1901 2000 1536 1584 
L 262 146 
L 262 0 
L 2515 0 
L 2669 989 
z
" transform="scale(0.015625)"/>
       </defs>
       <use xlink:href="#CMR17-32" transform="scale(0.996264)"/>
      </g>
     </g>
    </g>
    <g id="xtick_3">
     <g id="line2d_5">
      <path d="M 165.630538 146.083591 
L 165.630538 7.2 
" clip-path="url(#p4767a12016)" style="fill: none; stroke: #cccccc; stroke-width: 0.25; stroke-linecap: round"/>
     </g>
     <g id="line2d_6">
      <g>
       <use xlink:href="#m0a1854df88" x="165.630538" y="146.083591" style="fill: #262626; stroke: #262626; stroke-width: 1.25"/>
      </g>
     </g>
     <g id="text_3">
      <!-- $\mathdefault{4}$ -->
      <g style="fill: #262626" transform="translate(162.890805 163.193937) scale(0.11 -0.11)">
       <defs>
        <path id="CMR17-34" d="M 2150 4122 
C 2150 4256 2144 4256 2029 4256 
L 128 1254 
L 128 1088 
L 1779 1088 
L 1779 457 
C 1779 224 1766 160 1318 160 
L 1197 160 
L 1197 0 
C 1402 0 1747 0 1965 0 
C 2182 0 2528 0 2733 0 
L 2733 160 
L 2611 160 
C 2163 160 2150 224 2150 457 
L 2150 1088 
L 2803 1088 
L 2803 1254 
L 2150 1254 
L 2150 4122 
z
M 1798 3703 
L 1798 1254 
L 256 1254 
L 1798 3703 
z
" transform="scale(0.015625)"/>
       </defs>
       <use xlink:href="#CMR17-34" transform="scale(0.996264)"/>
      </g>
     </g>
    </g>
    <g id="xtick_4">
     <g id="line2d_7">
      <path d="M 213.027468 146.083591 
L 213.027468 7.2 
" clip-path="url(#p4767a12016)" style="fill: none; stroke: #cccccc; stroke-width: 0.25; stroke-linecap: round"/>
     </g>
     <g id="line2d_8">
      <g>
       <use xlink:href="#m0a1854df88" x="213.027468" y="146.083591" style="fill: #262626; stroke: #262626; stroke-width: 1.25"/>
      </g>
     </g>
     <g id="text_4">
      <!-- $\mathdefault{6}$ -->
      <g style="fill: #262626" transform="translate(210.287734 163.193937) scale(0.11 -0.11)">
       <defs>
        <path id="CMR17-36" d="M 678 2176 
C 678 3690 1395 4032 1811 4032 
C 1946 4032 2272 4009 2400 3776 
C 2298 3776 2106 3776 2106 3553 
C 2106 3381 2246 3323 2336 3323 
C 2394 3323 2566 3348 2566 3560 
C 2566 3954 2246 4179 1805 4179 
C 1043 4179 243 3390 243 1984 
C 243 253 966 -128 1478 -128 
C 2099 -128 2688 427 2688 1283 
C 2688 2081 2170 2662 1517 2662 
C 1126 2662 838 2407 678 1960 
L 678 2176 
z
M 1478 25 
C 691 25 691 1200 691 1436 
C 691 1896 909 2560 1504 2560 
C 1613 2560 1926 2560 2138 2120 
C 2253 1870 2253 1609 2253 1289 
C 2253 944 2253 690 2118 434 
C 1978 171 1773 25 1478 25 
z
" transform="scale(0.015625)"/>
       </defs>
       <use xlink:href="#CMR17-36" transform="scale(0.996264)"/>
      </g>
     </g>
    </g>
    <g id="xtick_5">
     <g id="line2d_9">
      <path d="M 260.424398 146.083591 
L 260.424398 7.2 
" clip-path="url(#p4767a12016)" style="fill: none; stroke: #cccccc; stroke-width: 0.25; stroke-linecap: round"/>
     </g>
     <g id="line2d_10">
      <g>
       <use xlink:href="#m0a1854df88" x="260.424398" y="146.083591" style="fill: #262626; stroke: #262626; stroke-width: 1.25"/>
      </g>
     </g>
     <g id="text_5">
      <!-- $\mathdefault{8}$ -->
      <g style="fill: #262626" transform="translate(257.684664 163.193937) scale(0.11 -0.11)">
       <defs>
        <path id="CMR17-38" d="M 1741 2264 
C 2144 2467 2554 2773 2554 3263 
C 2554 3841 1990 4179 1472 4179 
C 890 4179 378 3759 378 3180 
C 378 3021 416 2747 666 2505 
C 730 2442 998 2251 1171 2130 
C 883 1983 211 1634 211 934 
C 211 279 838 -128 1459 -128 
C 2144 -128 2720 362 2720 1010 
C 2720 1590 2330 1857 2074 2029 
L 1741 2264 
z
M 902 2822 
C 851 2854 595 3051 595 3351 
C 595 3739 998 4032 1459 4032 
C 1965 4032 2336 3676 2336 3262 
C 2336 2669 1670 2331 1638 2331 
C 1632 2331 1626 2331 1574 2370 
L 902 2822 
z
M 2080 1519 
C 2176 1449 2483 1240 2483 851 
C 2483 381 2010 25 1472 25 
C 890 25 448 438 448 940 
C 448 1443 838 1862 1280 2060 
L 2080 1519 
z
" transform="scale(0.015625)"/>
       </defs>
       <use xlink:href="#CMR17-38" transform="scale(0.996264)"/>
      </g>
     </g>
    </g>
    <g id="xtick_6">
     <g id="line2d_11">
      <path d="M 307.821327 146.083591 
L 307.821327 7.2 
" clip-path="url(#p4767a12016)" style="fill: none; stroke: #cccccc; stroke-width: 0.25; stroke-linecap: round"/>
     </g>
     <g id="line2d_12">
      <g>
       <use xlink:href="#m0a1854df88" x="307.821327" y="146.083591" style="fill: #262626; stroke: #262626; stroke-width: 1.25"/>
      </g>
     </g>
     <g id="text_6">
      <!-- $\mathdefault{10}$ -->
      <g style="fill: #262626" transform="translate(302.34186 163.193937) scale(0.11 -0.11)">
       <defs>
        <path id="CMR17-31" d="M 1702 4058 
C 1702 4192 1696 4192 1606 4192 
C 1357 3916 979 3827 621 3827 
C 602 3827 570 3827 563 3808 
C 557 3795 557 3782 557 3648 
C 755 3648 1088 3686 1344 3839 
L 1344 461 
C 1344 236 1331 160 781 160 
L 589 160 
L 589 0 
C 896 0 1216 0 1523 0 
C 1830 0 2150 0 2458 0 
L 2458 160 
L 2266 160 
C 1715 160 1702 230 1702 458 
L 1702 4058 
z
" transform="scale(0.015625)"/>
       </defs>
       <use xlink:href="#CMR17-31" transform="scale(0.996264)"/>
       <use xlink:href="#CMR17-30" transform="translate(45.690477 0) scale(0.996264)"/>
      </g>
     </g>
    </g>
    <g id="text_7">
     <!-- Max RSS (MiB) (lower is better) -->
     <g style="fill: #262626" transform="translate(125.280248 194.291208) scale(0.12 -0.12)">
      <defs>
       <path id="CMSS17-4d" d="M 3194 2371 
L 2886 1473 
C 2835 1307 2662 791 2624 587 
L 2618 587 
C 2598 715 2560 849 2458 1174 
C 2400 1365 2336 1562 2272 1741 
L 1325 4416 
L 576 4416 
L 576 0 
L 1075 0 
L 1075 3900 
L 1082 3900 
C 1082 3894 1139 3613 1530 2499 
L 2374 96 
L 2848 96 
L 3610 2231 
C 3661 2378 3821 2843 3891 3066 
C 3955 3257 4115 3728 4154 3913 
L 4160 3913 
L 4160 0 
L 4666 0 
L 4666 4416 
L 3923 4416 
L 3194 2371 
z
" transform="scale(0.015625)"/>
       <path id="CMSS17-61" d="M 2406 1791 
C 2406 2392 1978 2808 1402 2808 
C 1120 2808 813 2757 461 2553 
L 499 2135 
C 659 2248 934 2432 1395 2432 
C 1722 2432 1920 2180 1920 1782 
L 1920 1536 
C 896 1536 256 1238 256 726 
C 256 461 416 -64 947 -64 
C 1043 -64 1562 -64 1933 217 
L 1933 -19 
L 2406 -19 
L 2406 1791 
z
M 1920 816 
C 1920 701 1920 548 1728 434 
C 1562 325 1350 325 1261 325 
C 941 325 723 511 723 744 
C 723 1211 1722 1211 1920 1211 
L 1920 816 
z
" transform="scale(0.015625)"/>
       <path id="CMSS17-78" d="M 1587 1414 
L 2656 2739 
L 2099 2739 
L 1363 1777 
L 602 2739 
L 32 2739 
L 1139 1414 
L 0 0 
L 563 0 
L 1363 1121 
L 2195 0 
L 2758 0 
L 1587 1414 
z
" transform="scale(0.015625)"/>
       <path id="CMSS17-52" d="M 2522 2109 
L 2534 2115 
C 3533 2459 3539 3147 3539 3268 
C 3539 3873 2925 4453 2003 4453 
L 570 4453 
L 570 32 
L 1094 32 
L 1094 2048 
L 2035 2048 
L 3168 32 
L 3706 32 
L 2522 2109 
z
M 1094 2437 
L 1094 4096 
L 1933 4096 
C 2746 4096 3034 3637 3034 3267 
C 3034 2922 2778 2437 1933 2437 
L 1094 2437 
z
" transform="scale(0.015625)"/>
       <path id="CMSS17-53" d="M 2797 4169 
C 2515 4334 2208 4480 1690 4480 
C 864 4480 333 3879 333 3266 
C 333 3025 403 2753 653 2475 
C 902 2196 1184 2121 1542 2033 
C 1690 1994 1939 1924 1984 1906 
C 2342 1767 2515 1444 2515 1140 
C 2515 742 2202 318 1645 318 
C 1453 318 890 318 358 819 
L 269 318 
C 794 -64 1363 -128 1651 -128 
C 2438 -128 3002 488 3002 1186 
C 3002 1440 2925 1763 2656 2061 
C 2394 2347 2163 2410 1638 2549 
C 1338 2626 1146 2677 986 2873 
C 877 3013 819 3146 819 3317 
C 819 3673 1126 4060 1690 4060 
C 1971 4060 2336 4002 2707 3660 
L 2797 4169 
z
" transform="scale(0.015625)"/>
       <path id="CMSS17-28" d="M 1613 4768 
C 1267 4417 474 3601 474 1588 
C 474 -433 1267 -1243 1613 -1600 
L 2003 -1600 
C 1216 -784 960 357 960 1581 
C 960 2798 1203 3946 2003 4768 
L 1613 4768 
z
" transform="scale(0.015625)"/>
       <path id="CMSS17-69" d="M 979 4183 
L 442 4183 
L 442 3648 
L 979 3648 
L 979 4183 
z
M 947 2739 
L 474 2739 
L 474 0 
L 947 0 
L 947 2739 
z
" transform="scale(0.015625)"/>
       <path id="CMSS17-42" d="M 570 4416 
L 570 0 
L 2163 0 
C 3034 0 3667 574 3667 1200 
C 3667 1685 3251 2176 2502 2317 
C 3334 2558 3501 3040 3501 3313 
C 3501 3883 2874 4416 1997 4416 
L 570 4416 
z
M 1088 2496 
L 1088 4059 
L 1824 4059 
C 2483 4059 3002 3724 3002 3306 
C 3002 2926 2592 2496 1766 2496 
L 1088 2496 
z
M 1088 357 
L 1088 2107 
L 1939 2107 
C 2630 2107 3162 1679 3162 1206 
C 3162 772 2694 357 1984 357 
L 1088 357 
z
" transform="scale(0.015625)"/>
       <path id="CMSS17-29" d="M 723 -1600 
C 1069 -1249 1862 -433 1862 1581 
C 1862 3601 1069 4411 723 4768 
L 333 4768 
C 1120 3952 1376 2811 1376 1588 
C 1376 370 1133 -778 333 -1600 
L 723 -1600 
z
" transform="scale(0.015625)"/>
       <path id="CMSS17-6c" d="M 947 4416 
L 474 4416 
L 474 0 
L 947 0 
L 947 4416 
z
" transform="scale(0.015625)"/>
       <path id="CMSS17-6f" d="M 2829 1356 
C 2829 2176 2221 2816 1504 2816 
C 768 2816 173 2157 173 1356 
C 173 544 787 -64 1498 -64 
C 2227 -64 2829 563 2829 1356 
z
M 1504 337 
C 1050 337 659 709 659 1408 
C 659 2151 1114 2427 1498 2427 
C 1914 2427 2342 2126 2342 1408 
C 2342 683 1926 337 1504 337 
z
" transform="scale(0.015625)"/>
       <path id="CMSS17-77" d="M 4013 2752 
L 3526 2752 
L 3187 1601 
C 3117 1358 2918 685 2893 371 
L 2886 371 
C 2874 564 2765 1024 2586 1633 
L 2259 2752 
L 1818 2752 
L 1498 1658 
C 1338 1101 1216 627 1203 371 
L 1197 371 
C 1171 749 909 1633 870 1773 
L 582 2752 
L 83 2752 
L 915 0 
L 1402 0 
C 1734 1096 1990 1943 2010 2370 
C 2022 2160 2131 1707 2195 1484 
L 2618 0 
L 3181 0 
L 4013 2752 
z
" transform="scale(0.015625)"/>
       <path id="CMSS17-65" d="M 2502 1377 
C 2502 1590 2490 2003 2285 2345 
C 2061 2713 1696 2816 1421 2816 
C 755 2816 192 2188 192 1375 
C 192 582 774 -64 1510 -64 
C 1798 -64 2150 19 2470 248 
C 2470 274 2458 414 2451 420 
C 2451 433 2432 630 2432 656 
C 2125 407 1773 325 1517 325 
C 1107 325 666 667 646 1377 
L 2502 1377 
z
M 698 1728 
C 781 2084 1062 2421 1421 2421 
C 1517 2421 1965 2421 2080 1728 
L 698 1728 
z
" transform="scale(0.015625)"/>
       <path id="CMSS17-72" d="M 954 1363 
C 954 1965 1395 2368 1958 2368 
L 1958 2789 
C 1549 2789 1165 2585 934 2253 
L 934 2758 
L 480 2758 
L 480 0 
L 954 0 
L 954 1363 
z
" transform="scale(0.015625)"/>
       <path id="CMSS17-73" d="M 2061 2627 
C 1683 2807 1389 2807 1197 2807 
C 742 2807 198 2648 198 2003 
C 198 1359 902 1218 1094 1179 
C 1389 1122 1715 1058 1715 740 
C 1715 337 1254 337 1171 337 
C 915 337 563 407 243 638 
L 166 210 
C 531 0 883 -64 1178 -64 
C 1965 -64 2163 416 2163 781 
C 2163 1094 1984 1305 1862 1401 
C 1651 1568 1574 1587 1050 1696 
C 960 1709 646 1779 646 2066 
C 646 2432 1050 2432 1139 2432 
C 1555 2432 1811 2303 1984 2208 
L 2061 2627 
z
" transform="scale(0.015625)"/>
       <path id="CMSS17-62" d="M 954 4416 
L 480 4416 
L 480 -13 
L 966 -13 
L 966 274 
C 1210 38 1504 -64 1766 -64 
C 2381 -64 2880 549 2880 1352 
C 2880 2086 2496 2756 1926 2756 
C 1523 2756 1165 2591 954 2419 
L 954 4416 
z
M 966 2046 
C 1107 2222 1306 2368 1587 2368 
C 1965 2368 2394 2097 2394 1352 
C 2394 558 1882 325 1530 325 
C 1402 325 1267 356 1139 464 
C 966 615 966 709 966 797 
L 966 2046 
z
" transform="scale(0.015625)"/>
       <path id="CMSS17-74" d="M 1069 2368 
L 1901 2368 
L 1901 2737 
L 1069 2737 
L 1069 3520 
L 614 3520 
L 614 2737 
L 109 2737 
L 109 2368 
L 602 2368 
L 602 749 
C 602 384 685 -64 1107 -64 
C 1427 -64 1722 25 2003 172 
L 1901 548 
C 1747 414 1562 337 1363 337 
C 1082 337 1069 696 1069 856 
L 1069 2368 
z
" transform="scale(0.015625)"/>
      </defs>
      <use xlink:href="#CMSS17-4d" transform="scale(0.996264)"/>
      <use xlink:href="#CMSS17-61" transform="translate(81.67603 0) scale(0.996264)"/>
      <use xlink:href="#CMSS17-78" transform="translate(126.597951 0) scale(0.996264)"/>
      <use xlink:href="#CMSS17-52" transform="translate(200.827205 0) scale(0.996264)"/>
      <use xlink:href="#CMSS17-53" transform="translate(261.24336 0) scale(0.996264)"/>
      <use xlink:href="#CMSS17-53" transform="translate(313.291876 0) scale(0.996264)"/>
      <use xlink:href="#CMSS17-28" transform="translate(396.569505 0) scale(0.996264)"/>
      <use xlink:href="#CMSS17-4d" transform="translate(433.003419 0) scale(0.996264)"/>
      <use xlink:href="#CMSS17-69" transform="translate(514.679449 0) scale(0.996264)"/>
      <use xlink:href="#CMSS17-42" transform="translate(536.860172 0) scale(0.996264)"/>
      <use xlink:href="#CMSS17-29" transform="translate(599.198212 0) scale(0.996264)"/>
      <use xlink:href="#CMSS17-28" transform="translate(666.861239 0) scale(0.996264)"/>
      <use xlink:href="#CMSS17-6c" transform="translate(703.295154 0) scale(0.996264)"/>
      <use xlink:href="#CMSS17-6f" transform="translate(725.475877 0) scale(0.996264)"/>
      <use xlink:href="#CMSS17-77" transform="translate(769.717046 0) scale(0.996264)"/>
      <use xlink:href="#CMSS17-65" transform="translate(830.934137 0) scale(0.996264)"/>
      <use xlink:href="#CMSS17-72" transform="translate(872.572959 0) scale(0.996264)"/>
      <use xlink:href="#CMSS17-69" transform="translate(935.711845 0) scale(0.996264)"/>
      <use xlink:href="#CMSS17-73" transform="translate(957.892568 0) scale(0.996264)"/>
      <use xlink:href="#CMSS17-62" transform="translate(1025.035223 0) scale(0.996264)"/>
      <use xlink:href="#CMSS17-65" transform="translate(1075.842604 0) scale(0.996264)"/>
      <use xlink:href="#CMSS17-74" transform="translate(1117.481426 0) scale(0.996264)"/>
      <use xlink:href="#CMSS17-74" transform="translate(1151.312993 0) scale(0.996264)"/>
      <use xlink:href="#CMSS17-65" transform="translate(1185.14456 0) scale(0.996264)"/>
      <use xlink:href="#CMSS17-72" transform="translate(1226.783382 0) scale(0.996264)"/>
      <use xlink:href="#CMSS17-29" transform="translate(1258.693154 0) scale(0.996264)"/>
     </g>
    </g>
   </g>
   <g id="matplotlib.axis_2">
    <g id="ytick_1">
     <g id="line2d_13">
      <path d="M 70.836679 118.727732 
L 341.28 118.727732 
" clip-path="url(#p4767a12016)" style="fill: none; stroke: #cccccc; stroke-width: 0.25; stroke-linecap: round"/>
     </g>
     <g id="line2d_14">
      <defs>
       <path id="md4436b1509" d="M 0 0 
L -6 0 
" style="stroke: #262626; stroke-width: 1.25"/>
      </defs>
      <g>
       <use xlink:href="#md4436b1509" x="70.836679" y="118.727732" style="fill: #262626; stroke: #262626; stroke-width: 1.25"/>
      </g>
     </g>
     <g id="text_8">
      <!-- \textsc{som-rs$_\textrm{ast}$} -->
      <g style="fill: #262626" transform="translate(7.2 122.532905) scale(0.11 -0.11)">
       <defs>
        <path id="CMCSC10-73" d="M 2458 3252 
C 2458 3354 2458 3405 2394 3405 
C 2355 3405 2349 3399 2253 3257 
C 2221 3226 2157 3130 2131 3091 
C 1888 3328 1594 3405 1331 3405 
C 749 3405 326 2970 326 2471 
C 326 2112 531 1901 608 1824 
C 800 1633 928 1607 1517 1473 
C 1862 1389 1926 1377 2074 1242 
C 2106 1217 2278 1044 2278 762 
C 2278 443 2029 97 1587 97 
C 1421 97 1075 122 800 346 
C 512 570 493 884 486 1056 
C 480 1108 429 1114 410 1114 
C 326 1114 326 1069 326 955 
L 326 89 
C 326 -13 326 -64 390 -64 
C 429 -64 435 -58 531 84 
C 563 116 627 212 653 251 
C 838 84 1171 -64 1587 -64 
C 2208 -64 2605 429 2605 934 
C 2605 1338 2355 1594 2355 1600 
C 2118 1844 2016 1862 1472 1990 
C 1338 2022 1114 2074 1075 2087 
C 755 2214 653 2464 653 2656 
C 653 2950 909 3264 1338 3264 
C 2150 3264 2266 2515 2291 2311 
C 2304 2266 2304 2227 2374 2227 
C 2458 2227 2458 2259 2458 2380 
L 2458 3252 
z
" transform="scale(0.015625)"/>
        <path id="CMCSC10-6f" d="M 3744 1667 
C 3744 2627 2982 3424 2035 3424 
C 1082 3424 326 2627 326 1667 
C 326 695 1101 -64 2035 -64 
C 2970 -64 3744 695 3744 1667 
z
M 2035 103 
C 1581 103 877 470 877 1738 
C 877 2948 1606 3264 2035 3264 
C 2470 3264 3194 2941 3194 1738 
C 3194 470 2490 103 2035 103 
z
" transform="scale(0.015625)"/>
        <path id="CMCSC10-6d" d="M 3603 3142 
L 3610 3136 
L 3610 493 
C 3610 230 3578 192 3149 192 
L 3149 37 
C 3277 37 3590 37 3814 37 
C 4038 37 4269 37 4480 37 
L 4480 192 
C 4051 192 4019 230 4019 493 
L 4019 2867 
C 4019 3129 4051 3168 4480 3168 
L 4480 3328 
L 3706 3328 
C 3558 3328 3539 3328 3488 3206 
L 2394 513 
L 1293 3213 
C 1248 3328 1210 3328 1075 3328 
L 301 3328 
L 301 3168 
C 730 3168 762 3129 762 2867 
L 762 679 
C 762 531 762 192 301 192 
L 301 37 
C 435 37 723 37 851 37 
C 947 37 1242 37 1402 31 
L 1402 192 
C 941 192 941 531 941 679 
L 941 3091 
L 947 3097 
L 2144 153 
C 2170 95 2202 37 2266 37 
C 2330 37 2362 95 2387 153 
L 3603 3142 
z
" transform="scale(0.015625)"/>
        <path id="CMCSC10-2d" d="M 1952 1216 
L 1952 1589 
L 166 1589 
L 166 1216 
L 1952 1216 
z
" transform="scale(0.015625)"/>
        <path id="CMCSC10-72" d="M 1190 2881 
C 1190 3040 1203 3103 1267 3135 
C 1312 3155 1485 3155 1600 3155 
C 2074 3155 2618 3155 2618 2465 
C 2618 2212 2586 1748 1754 1748 
L 1190 1748 
L 1190 2881 
z
M 2323 1664 
C 2771 1780 3168 2069 3168 2461 
C 3168 2911 2598 3328 1824 3328 
L 288 3328 
L 288 3168 
C 717 3168 749 3129 749 2867 
L 749 493 
C 749 230 717 192 288 192 
L 288 37 
C 480 37 787 37 966 37 
C 1152 37 1485 37 1651 37 
L 1651 192 
C 1222 192 1190 230 1190 492 
L 1190 1600 
L 1766 1600 
C 1926 1600 2093 1600 2291 1401 
C 2426 1260 2426 1105 2426 823 
C 2426 463 2426 347 2630 148 
C 2746 32 3002 -64 3290 -64 
C 3699 -64 3795 337 3795 466 
C 3795 499 3795 563 3712 563 
C 3642 563 3635 504 3635 478 
C 3590 77 3360 77 3315 77 
C 3187 77 3130 161 3091 232 
C 3040 334 3002 514 2918 925 
C 2867 1150 2803 1478 2323 1664 
z
" transform="scale(0.015625)"/>
        <path id="CMCSC10-61" d="M 2106 3252 
C 2067 3354 2035 3392 1965 3392 
C 1875 3392 1862 3354 1830 3270 
L 800 623 
C 730 450 621 161 218 161 
L 218 -6 
C 358 0 544 0 685 0 
C 794 0 1088 0 1216 0 
L 1216 161 
C 947 161 928 383 928 442 
C 928 494 928 507 1146 1088 
L 2470 1088 
L 2611 727 
C 2662 598 2746 379 2746 341 
C 2746 161 2515 161 2406 161 
L 2406 0 
C 2579 0 2957 0 3085 0 
C 3302 0 3552 0 3706 0 
L 3706 161 
C 3347 161 3290 193 3206 416 
L 2106 3252 
z
M 2406 1248 
L 1210 1248 
L 1811 2781 
L 2406 1248 
z
" transform="scale(0.015625)"/>
        <path id="CMCSC10-74" d="M 3462 3233 
L 320 3233 
L 230 2151 
L 390 2151 
C 448 2957 576 3072 1286 3072 
C 1645 3072 1664 3072 1664 2797 
L 1664 468 
C 1664 212 1638 142 1146 142 
L 1011 142 
L 1011 -19 
C 1261 0 1638 0 1894 0 
C 2150 0 2528 0 2778 -19 
L 2778 142 
L 2643 142 
C 2150 142 2125 212 2125 468 
L 2125 2797 
C 2125 3072 2144 3072 2502 3072 
C 3194 3072 3334 2963 3392 2151 
L 3552 2151 
L 3462 3233 
z
" transform="scale(0.015625)"/>
       </defs>
       <use xlink:href="#CMCSC10-73" transform="scale(0.996264)"/>
       <use xlink:href="#CMCSC10-6f" transform="translate(45.606578 0) scale(0.996264)"/>
       <use xlink:href="#CMCSC10-6d" transform="translate(108.924465 0) scale(0.996264)"/>
       <use xlink:href="#CMCSC10-2d" transform="translate(183.311909 0) scale(0.996264)"/>
       <use xlink:href="#CMCSC10-72" transform="translate(220.948193 0) scale(0.996264)"/>
       <use xlink:href="#CMCSC10-73" transform="translate(280.94525 0) scale(0.996264)"/>
       <use xlink:href="#CMCSC10-61" transform="translate(326.551828 -16.881108) scale(0.996264)"/>
       <use xlink:href="#CMCSC10-73" transform="translate(387.655864 -16.881108) scale(0.996264)"/>
       <use xlink:href="#CMCSC10-74" transform="translate(433.262442 -16.881108) scale(0.996264)"/>
      </g>
     </g>
    </g>
    <g id="ytick_2">
     <g id="line2d_15">
      <path d="M 70.836679 76.641795 
L 341.28 76.641795 
" clip-path="url(#p4767a12016)" style="fill: none; stroke: #cccccc; stroke-width: 0.25; stroke-linecap: round"/>
     </g>
     <g id="line2d_16">
      <g>
       <use xlink:href="#md4436b1509" x="70.836679" y="76.641795" style="fill: #262626; stroke: #262626; stroke-width: 1.25"/>
      </g>
     </g>
     <g id="text_9">
      <!-- \textsc{som-rs$_\textrm{bc}$} -->
      <g style="fill: #262626" transform="translate(12.582009 80.446969) scale(0.11 -0.11)">
       <defs>
        <path id="CMCSC10-62" d="M 2438 1754 
C 2874 1844 3238 2135 3238 2508 
C 3238 2915 2790 3328 2093 3328 
L 294 3328 
L 294 3168 
C 723 3168 755 3129 755 2867 
L 755 493 
C 755 230 723 192 294 192 
L 294 31 
L 2227 31 
C 2938 31 3386 465 3386 912 
C 3386 1326 2976 1677 2438 1747 
L 2438 1754 
z
M 1178 2890 
C 1178 3148 1210 3168 1434 3168 
L 2048 3168 
C 2630 3168 2726 2664 2726 2509 
C 2726 2276 2560 1805 1894 1805 
L 1178 1805 
L 1178 2890 
z
M 2138 1664 
C 2682 1664 2854 1179 2854 912 
C 2854 624 2643 192 2061 192 
L 1434 192 
C 1210 192 1178 211 1178 466 
L 1178 1664 
L 2138 1664 
z
" transform="scale(0.015625)"/>
        <path id="CMCSC10-63" d="M 3046 3019 
C 2912 3161 2598 3424 2118 3424 
C 1152 3424 326 2659 326 1680 
C 326 702 1152 -64 2118 -64 
C 2950 -64 3456 605 3456 1165 
C 3456 1223 3456 1268 3373 1268 
C 3302 1268 3302 1229 3296 1165 
C 3251 483 2701 97 2163 97 
C 1843 97 877 270 877 1680 
C 877 3109 1869 3264 2157 3264 
C 2624 3264 3168 2929 3290 2112 
C 3302 2067 3309 2028 3373 2028 
C 3456 2028 3456 2060 3456 2182 
L 3456 3270 
C 3456 3373 3456 3424 3392 3424 
C 3354 3424 3347 3411 3296 3347 
L 3046 3019 
z
" transform="scale(0.015625)"/>
       </defs>
       <use xlink:href="#CMCSC10-73" transform="scale(0.996264)"/>
       <use xlink:href="#CMCSC10-6f" transform="translate(45.606578 0) scale(0.996264)"/>
       <use xlink:href="#CMCSC10-6d" transform="translate(108.924465 0) scale(0.996264)"/>
       <use xlink:href="#CMCSC10-2d" transform="translate(183.311909 0) scale(0.996264)"/>
       <use xlink:href="#CMCSC10-72" transform="translate(220.948193 0) scale(0.996264)"/>
       <use xlink:href="#CMCSC10-73" transform="translate(280.94525 0) scale(0.996264)"/>
       <use xlink:href="#CMCSC10-62" transform="translate(326.551828 -16.881108) scale(0.996264)"/>
       <use xlink:href="#CMCSC10-63" transform="translate(384.335035 -16.881108) scale(0.996264)"/>
      </g>
     </g>
    </g>
    <g id="ytick_3">
     <g id="line2d_17">
      <path d="M 70.836679 34.555859 
L 341.28 34.555859 
" clip-path="url(#p4767a12016)" style="fill: none; stroke: #cccccc; stroke-width: 0.25; stroke-linecap: round"/>
     </g>
     <g id="line2d_18">
      <g>
       <use xlink:href="#md4436b1509" x="70.836679" y="34.555859" style="fill: #262626; stroke: #262626; stroke-width: 1.25"/>
      </g>
     </g>
     <g id="text_10">
      <!-- \textsc{yksom} -->
      <g style="fill: #262626" transform="translate(27.485988 38.361032) scale(0.11 -0.11)">
       <defs>
        <path id="CMCSC10-79" d="M 2131 1574 
L 1248 2879 
C 1216 2924 1171 2988 1171 3052 
C 1171 3181 1357 3181 1434 3181 
L 1434 3328 
C 1267 3328 845 3328 742 3328 
C 570 3328 314 3328 122 3328 
L 122 3181 
C 454 3181 531 3142 646 2975 
L 1741 1358 
L 1741 495 
C 1741 230 1709 192 1280 192 
L 1280 37 
C 1472 37 1779 37 1958 37 
C 2144 37 2477 37 2643 37 
L 2643 192 
C 2208 192 2182 230 2182 514 
L 2182 1352 
L 3110 2740 
C 3341 3090 3552 3181 3802 3181 
L 3802 3341 
C 3667 3328 3488 3328 3354 3328 
C 3181 3328 3002 3328 2829 3341 
L 2829 3181 
C 2970 3168 3014 3091 3014 2988 
C 3014 2892 2963 2814 2918 2744 
L 2131 1574 
z
" transform="scale(0.015625)"/>
        <path id="CMCSC10-6b" d="M 1197 1448 
L 1197 2878 
C 1197 3142 1229 3181 1658 3181 
L 1658 3328 
C 1472 3328 1107 3328 966 3328 
C 826 3328 467 3328 275 3328 
L 275 3181 
C 704 3181 736 3142 736 2878 
L 736 495 
C 736 230 704 192 275 192 
L 275 37 
C 461 37 826 37 966 37 
C 1107 37 1466 37 1658 37 
L 1658 192 
C 1229 192 1197 230 1197 495 
L 1197 1229 
L 1811 1777 
L 2662 628 
C 2726 545 2803 422 2803 333 
C 2803 210 2650 198 2598 198 
L 2598 37 
C 2726 37 3149 37 3264 37 
C 3437 37 3635 37 3808 31 
L 3808 192 
C 3597 192 3462 211 3226 540 
L 2118 2047 
C 3328 3168 3462 3168 3738 3168 
L 3738 3341 
C 3590 3328 3494 3328 3334 3328 
C 3162 3328 2829 3328 2739 3341 
L 2739 3181 
C 2810 3168 2848 3129 2848 3059 
C 2848 2942 2739 2807 2637 2717 
L 1197 1448 
z
" transform="scale(0.015625)"/>
       </defs>
       <use xlink:href="#CMCSC10-79" transform="scale(0.996264)"/>
       <use xlink:href="#CMCSC10-6b" transform="translate(61.104036 0) scale(0.996264)"/>
       <use xlink:href="#CMCSC10-73" transform="translate(124.422013 0) scale(0.996264)"/>
       <use xlink:href="#CMCSC10-6f" transform="translate(170.028592 0) scale(0.996264)"/>
       <use xlink:href="#CMCSC10-6d" transform="translate(233.346478 0) scale(0.996264)"/>
      </g>
     </g>
    </g>
   </g>
   <g id="patch_3">
    <path d="M 70.836679 135.562106 
L 302.178946 135.562106 
L 302.178946 118.727732 
L 70.836679 118.727732 
z
" clip-path="url(#p4767a12016)" style="fill: #4c72b0; stroke: #ffffff; stroke-linejoin: miter"/>
   </g>
   <g id="patch_4">
    <path d="M 70.836679 93.47617 
L 187.442026 93.47617 
L 187.442026 76.641795 
L 70.836679 76.641795 
z
" clip-path="url(#p4767a12016)" style="fill: #4c72b0; stroke: #ffffff; stroke-linejoin: miter"/>
   </g>
   <g id="patch_5">
    <path d="M 70.836679 51.390233 
L 261.361904 51.390233 
L 261.361904 34.555859 
L 70.836679 34.555859 
z
" clip-path="url(#p4767a12016)" style="fill: #4c72b0; stroke: #ffffff; stroke-linejoin: miter"/>
   </g>
   <g id="patch_6">
    <path d="M 70.836679 118.727732 
L 338.602343 118.727732 
L 338.602343 101.893357 
L 70.836679 101.893357 
z
" clip-path="url(#p4767a12016)" style="fill: #dd8452; stroke: #ffffff; stroke-linejoin: miter"/>
   </g>
   <g id="patch_7">
    <path d="M 70.836679 76.641795 
L 199.220146 76.641795 
L 199.220146 59.807421 
L 70.836679 59.807421 
z
" clip-path="url(#p4767a12016)" style="fill: #dd8452; stroke: #ffffff; stroke-linejoin: miter"/>
   </g>
   <g id="patch_8">
    <path d="M 70.836679 34.555859 
L 243.872731 34.555859 
L 243.872731 17.721484 
L 70.836679 17.721484 
z
" clip-path="url(#p4767a12016)" style="fill: #dd8452; stroke: #ffffff; stroke-linejoin: miter"/>
   </g>
   <g id="patch_9">
    <path d="M 70.836679 146.083591 
L 70.836679 7.2 
" style="fill: none; stroke: #cccccc; stroke-width: 1.25; stroke-linejoin: miter; stroke-linecap: square"/>
   </g>
   <g id="patch_10">
    <path d="M 70.836679 146.083591 
L 341.28 146.083591 
" style="fill: none; stroke: #cccccc; stroke-width: 1.25; stroke-linejoin: miter; stroke-linecap: square"/>
   </g>
  </g>
 </g>
 <defs>
  <clipPath id="p4767a12016">
   <rect x="70.836679" y="7.2" width="270.443321" height="138.883591"/>
  </clipPath>
 </defs>
</svg>
