<?xml version="1.0" encoding="utf-8" standalone="no"?>
<!DOCTYPE svg PUBLIC "-//W3C//DTD SVG 1.1//EN"
  "http://www.w3.org/Graphics/SVG/1.1/DTD/svg11.dtd">
<svg xmlns:xlink="http://www.w3.org/1999/xlink" width="348.530738pt" height="204.48pt" viewBox="0 0 348.530738 204.48" xmlns="http://www.w3.org/2000/svg" version="1.1">
 <metadata>
  <rdf:RDF xmlns:dc="http://purl.org/dc/elements/1.1/" xmlns:cc="http://creativecommons.org/ns#" xmlns:rdf="http://www.w3.org/1999/02/22-rdf-syntax-ns#">
   <cc:Work>
    <dc:type rdf:resource="http://purl.org/dc/dcmitype/StillImage"/>
    <dc:date>2024-10-14T20:17:30.111311</dc:date>
    <dc:format>image/svg+xml</dc:format>
    <dc:creator>
     <cc:Agent>
      <dc:title>Matplotlib v3.9.2, https://matplotlib.org/</dc:title>
     </cc:Agent>
    </dc:creator>
   </cc:Work>
  </rdf:RDF>
 </metadata>
 <defs>
  <style type="text/css">*{stroke-linejoin: round; stroke-linecap: butt}</style>
 </defs>
 <g id="figure_1">
  <g id="patch_1">
   <path d="M 0 204.48 
L 348.530738 204.48 
L 348.530738 0 
L 0 0 
z
" style="fill: #ffffff"/>
  </g>
  <g id="axes_1">
   <g id="patch_2">
    <path d="M 70.836679 146.083591 
L 331.075604 146.083591 
L 331.075604 7.2 
L 70.836679 7.2 
z
" style="fill: #ffffff"/>
   </g>
   <g id="matplotlib.axis_1">
    <g id="xtick_1">
     <g id="line2d_1">
      <path d="M 70.836679 146.083591 
L 70.836679 7.2 
" clip-path="url(#pe51b0d2378)" style="fill: none; stroke: #cccccc; stroke-width: 0.25; stroke-linecap: round"/>
     </g>
     <g id="line2d_2">
      <defs>
       <path id="mdf093af9a2" d="M 0 0 
L 0 6 
" style="stroke: #262626; stroke-width: 1.25"/>
      </defs>
      <g>
       <use xlink:href="#mdf093af9a2" x="70.836679" y="146.083591" style="fill: #262626; stroke: #262626; stroke-width: 1.25"/>
      </g>
     </g>
     <g id="text_1">
      <!-- $\mathdefault{0}$ -->
      <g style="fill: #262626" transform="translate(68.096945 163.193937) scale(0.11 -0.11)">
       <defs>
        <path id="CMR17-30" d="M 2688 2025 
C 2688 2416 2682 3080 2413 3591 
C 2176 4039 1798 4198 1466 4198 
C 1158 4198 768 4058 525 3597 
C 269 3118 243 2524 243 2025 
C 243 1661 250 1106 448 619 
C 723 -39 1216 -128 1466 -128 
C 1760 -128 2208 -7 2470 600 
C 2662 1042 2688 1559 2688 2025 
z
M 1466 -26 
C 1056 -26 813 325 723 812 
C 653 1188 653 1738 653 2096 
C 653 2588 653 2997 736 3387 
C 858 3929 1216 4096 1466 4096 
C 1728 4096 2067 3923 2189 3400 
C 2272 3036 2278 2607 2278 2096 
C 2278 1680 2278 1169 2202 792 
C 2067 95 1690 -26 1466 -26 
z
" transform="scale(0.015625)"/>
       </defs>
       <use xlink:href="#CMR17-30" transform="scale(0.996264)"/>
      </g>
     </g>
    </g>
    <g id="xtick_2">
     <g id="line2d_3">
      <path d="M 114.092533 146.083591 
L 114.092533 7.2 
" clip-path="url(#pe51b0d2378)" style="fill: none; stroke: #cccccc; stroke-width: 0.25; stroke-linecap: round"/>
     </g>
     <g id="line2d_4">
      <g>
       <use xlink:href="#mdf093af9a2" x="114.092533" y="146.083591" style="fill: #262626; stroke: #262626; stroke-width: 1.25"/>
      </g>
     </g>
     <g id="text_2">
      <!-- $\mathdefault{500}$ -->
      <g style="fill: #262626" transform="translate(105.873332 163.193937) scale(0.11 -0.11)">
       <defs>
        <path id="CMR17-35" d="M 730 3692 
C 794 3666 1056 3584 1325 3584 
C 1920 3584 2246 3911 2432 4100 
C 2432 4157 2432 4192 2394 4192 
C 2387 4192 2374 4192 2323 4163 
C 2099 4058 1837 3973 1517 3973 
C 1325 3973 1037 3999 723 4139 
C 653 4171 640 4171 634 4171 
C 602 4171 595 4164 595 4037 
L 595 2203 
C 595 2089 595 2057 659 2057 
C 691 2057 704 2070 736 2114 
C 941 2401 1222 2522 1542 2522 
C 1766 2522 2246 2382 2246 1289 
C 2246 1085 2246 715 2054 421 
C 1894 159 1645 25 1370 25 
C 947 25 518 320 403 814 
C 429 807 480 795 506 795 
C 589 795 749 840 749 1038 
C 749 1210 627 1280 506 1280 
C 358 1280 262 1190 262 1011 
C 262 454 704 -128 1382 -128 
C 2042 -128 2669 440 2669 1264 
C 2669 2030 2170 2624 1549 2624 
C 1222 2624 947 2503 730 2274 
L 730 3692 
z
" transform="scale(0.015625)"/>
       </defs>
       <use xlink:href="#CMR17-35" transform="scale(0.996264)"/>
       <use xlink:href="#CMR17-30" transform="translate(45.690477 0) scale(0.996264)"/>
       <use xlink:href="#CMR17-30" transform="translate(91.380954 0) scale(0.996264)"/>
      </g>
     </g>
    </g>
    <g id="xtick_3">
     <g id="line2d_5">
      <path d="M 157.348387 146.083591 
L 157.348387 7.2 
" clip-path="url(#pe51b0d2378)" style="fill: none; stroke: #cccccc; stroke-width: 0.25; stroke-linecap: round"/>
     </g>
     <g id="line2d_6">
      <g>
       <use xlink:href="#mdf093af9a2" x="157.348387" y="146.083591" style="fill: #262626; stroke: #262626; stroke-width: 1.25"/>
      </g>
     </g>
     <g id="text_3">
      <!-- $\mathdefault{1000}$ -->
      <g style="fill: #262626" transform="translate(146.389452 163.193937) scale(0.11 -0.11)">
       <defs>
        <path id="CMR17-31" d="M 1702 4058 
C 1702 4192 1696 4192 1606 4192 
C 1357 3916 979 3827 621 3827 
C 602 3827 570 3827 563 3808 
C 557 3795 557 3782 557 3648 
C 755 3648 1088 3686 1344 3839 
L 1344 461 
C 1344 236 1331 160 781 160 
L 589 160 
L 589 0 
C 896 0 1216 0 1523 0 
C 1830 0 2150 0 2458 0 
L 2458 160 
L 2266 160 
C 1715 160 1702 230 1702 458 
L 1702 4058 
z
" transform="scale(0.015625)"/>
       </defs>
       <use xlink:href="#CMR17-31" transform="scale(0.996264)"/>
       <use xlink:href="#CMR17-30" transform="translate(45.690477 0) scale(0.996264)"/>
       <use xlink:href="#CMR17-30" transform="translate(91.380954 0) scale(0.996264)"/>
       <use xlink:href="#CMR17-30" transform="translate(137.071431 0) scale(0.996264)"/>
      </g>
     </g>
    </g>
    <g id="xtick_4">
     <g id="line2d_7">
      <path d="M 200.604241 146.083591 
L 200.604241 7.2 
" clip-path="url(#pe51b0d2378)" style="fill: none; stroke: #cccccc; stroke-width: 0.25; stroke-linecap: round"/>
     </g>
     <g id="line2d_8">
      <g>
       <use xlink:href="#mdf093af9a2" x="200.604241" y="146.083591" style="fill: #262626; stroke: #262626; stroke-width: 1.25"/>
      </g>
     </g>
     <g id="text_4">
      <!-- $\mathdefault{1500}$ -->
      <g style="fill: #262626" transform="translate(189.645307 163.193937) scale(0.11 -0.11)">
       <use xlink:href="#CMR17-31" transform="scale(0.996264)"/>
       <use xlink:href="#CMR17-35" transform="translate(45.690477 0) scale(0.996264)"/>
       <use xlink:href="#CMR17-30" transform="translate(91.380954 0) scale(0.996264)"/>
       <use xlink:href="#CMR17-30" transform="translate(137.071431 0) scale(0.996264)"/>
      </g>
     </g>
    </g>
    <g id="xtick_5">
     <g id="line2d_9">
      <path d="M 243.860095 146.083591 
L 243.860095 7.2 
" clip-path="url(#pe51b0d2378)" style="fill: none; stroke: #cccccc; stroke-width: 0.25; stroke-linecap: round"/>
     </g>
     <g id="line2d_10">
      <g>
       <use xlink:href="#mdf093af9a2" x="243.860095" y="146.083591" style="fill: #262626; stroke: #262626; stroke-width: 1.25"/>
      </g>
     </g>
     <g id="text_5">
      <!-- $\mathdefault{2000}$ -->
      <g style="fill: #262626" transform="translate(232.901161 163.193937) scale(0.11 -0.11)">
       <defs>
        <path id="CMR17-32" d="M 2669 989 
L 2554 989 
C 2490 536 2438 459 2413 420 
C 2381 369 1920 369 1830 369 
L 602 369 
C 832 619 1280 1072 1824 1597 
C 2214 1967 2669 2402 2669 3035 
C 2669 3790 2067 4224 1395 4224 
C 691 4224 262 3604 262 3030 
C 262 2780 448 2748 525 2748 
C 589 2748 781 2787 781 3010 
C 781 3207 614 3264 525 3264 
C 486 3264 448 3258 422 3245 
C 544 3790 915 4058 1306 4058 
C 1862 4058 2227 3617 2227 3035 
C 2227 2479 1901 2000 1536 1584 
L 262 146 
L 262 0 
L 2515 0 
L 2669 989 
z
" transform="scale(0.015625)"/>
       </defs>
       <use xlink:href="#CMR17-32" transform="scale(0.996264)"/>
       <use xlink:href="#CMR17-30" transform="translate(45.690477 0) scale(0.996264)"/>
       <use xlink:href="#CMR17-30" transform="translate(91.380954 0) scale(0.996264)"/>
       <use xlink:href="#CMR17-30" transform="translate(137.071431 0) scale(0.996264)"/>
      </g>
     </g>
    </g>
    <g id="xtick_6">
     <g id="line2d_11">
      <path d="M 287.11595 146.083591 
L 287.11595 7.2 
" clip-path="url(#pe51b0d2378)" style="fill: none; stroke: #cccccc; stroke-width: 0.25; stroke-linecap: round"/>
     </g>
     <g id="line2d_12">
      <g>
       <use xlink:href="#mdf093af9a2" x="287.11595" y="146.083591" style="fill: #262626; stroke: #262626; stroke-width: 1.25"/>
      </g>
     </g>
     <g id="text_6">
      <!-- $\mathdefault{2500}$ -->
      <g style="fill: #262626" transform="translate(276.157015 163.193937) scale(0.11 -0.11)">
       <use xlink:href="#CMR17-32" transform="scale(0.996264)"/>
       <use xlink:href="#CMR17-35" transform="translate(45.690477 0) scale(0.996264)"/>
       <use xlink:href="#CMR17-30" transform="translate(91.380954 0) scale(0.996264)"/>
       <use xlink:href="#CMR17-30" transform="translate(137.071431 0) scale(0.996264)"/>
      </g>
     </g>
    </g>
    <g id="xtick_7">
     <g id="line2d_13">
      <path d="M 330.371804 146.083591 
L 330.371804 7.2 
" clip-path="url(#pe51b0d2378)" style="fill: none; stroke: #cccccc; stroke-width: 0.25; stroke-linecap: round"/>
     </g>
     <g id="line2d_14">
      <g>
       <use xlink:href="#mdf093af9a2" x="330.371804" y="146.083591" style="fill: #262626; stroke: #262626; stroke-width: 1.25"/>
      </g>
     </g>
     <g id="text_7">
      <!-- $\mathdefault{3000}$ -->
      <g style="fill: #262626" transform="translate(319.412869 163.193937) scale(0.11 -0.11)">
       <defs>
        <path id="CMR17-33" d="M 1414 2157 
C 1984 2157 2234 1662 2234 1090 
C 2234 320 1824 25 1453 25 
C 1114 25 563 194 390 693 
C 422 680 454 680 486 680 
C 640 680 755 782 755 948 
C 755 1133 614 1216 486 1216 
C 378 1216 211 1165 211 926 
C 211 335 787 -128 1466 -128 
C 2176 -128 2720 430 2720 1085 
C 2720 1707 2208 2157 1600 2227 
C 2086 2328 2554 2756 2554 3329 
C 2554 3820 2048 4179 1472 4179 
C 890 4179 378 3829 378 3329 
C 378 3110 544 3072 627 3072 
C 762 3072 877 3155 877 3321 
C 877 3486 762 3569 627 3569 
C 602 3569 570 3569 544 3557 
C 730 3959 1235 4032 1459 4032 
C 1683 4032 2106 3925 2106 3320 
C 2106 3143 2080 2828 1862 2550 
C 1670 2304 1453 2304 1242 2284 
C 1210 2284 1062 2269 1037 2269 
C 992 2263 966 2257 966 2208 
C 966 2163 973 2157 1101 2157 
L 1414 2157 
z
" transform="scale(0.015625)"/>
       </defs>
       <use xlink:href="#CMR17-33" transform="scale(0.996264)"/>
       <use xlink:href="#CMR17-30" transform="translate(45.690477 0) scale(0.996264)"/>
       <use xlink:href="#CMR17-30" transform="translate(91.380954 0) scale(0.996264)"/>
       <use xlink:href="#CMR17-30" transform="translate(137.071431 0) scale(0.996264)"/>
      </g>
     </g>
    </g>
    <g id="text_8">
     <!-- Wall-clock time (ms) (lower is better) -->
     <g style="fill: #262626" transform="translate(108.407759 194.291208) scale(0.12 -0.12)">
      <defs>
       <path id="CMSS17-57" d="M 5581 4416 
L 5094 4416 
L 4557 2437 
C 4474 2118 4397 1801 4320 1482 
C 4205 1011 4122 681 4109 515 
L 4102 515 
C 4090 687 4006 1049 3904 1457 
C 3827 1795 3744 2131 3654 2462 
L 3123 4416 
L 2586 4416 
L 2080 2562 
L 1824 1549 
C 1632 747 1626 632 1613 505 
L 1606 505 
C 1606 543 1581 753 1402 1498 
C 1312 1868 1222 2244 1126 2601 
L 634 4416 
L 83 4416 
L 1299 0 
L 1830 0 
L 2336 1839 
L 2592 2851 
C 2765 3564 2803 3742 2816 3901 
L 2822 3901 
C 2822 3876 2880 3474 3130 2545 
L 3808 0 
L 4365 0 
L 5581 4416 
z
" transform="scale(0.015625)"/>
       <path id="CMSS17-61" d="M 2406 1791 
C 2406 2392 1978 2808 1402 2808 
C 1120 2808 813 2757 461 2553 
L 499 2135 
C 659 2248 934 2432 1395 2432 
C 1722 2432 1920 2180 1920 1782 
L 1920 1536 
C 896 1536 256 1238 256 726 
C 256 461 416 -64 947 -64 
C 1043 -64 1562 -64 1933 217 
L 1933 -19 
L 2406 -19 
L 2406 1791 
z
M 1920 816 
C 1920 701 1920 548 1728 434 
C 1562 325 1350 325 1261 325 
C 941 325 723 511 723 744 
C 723 1211 1722 1211 1920 1211 
L 1920 816 
z
" transform="scale(0.015625)"/>
       <path id="CMSS17-6c" d="M 947 4416 
L 474 4416 
L 474 0 
L 947 0 
L 947 4416 
z
" transform="scale(0.015625)"/>
       <path id="CMSS17-2d" d="M 1664 1216 
L 1664 1585 
L 64 1585 
L 64 1216 
L 1664 1216 
z
" transform="scale(0.015625)"/>
       <path id="CMSS17-63" d="M 2464 2541 
C 2464 2585 2170 2714 2093 2739 
C 1882 2816 1613 2816 1542 2816 
C 710 2816 211 2093 211 1363 
C 211 595 768 -64 1517 -64 
C 1946 -64 2253 76 2502 242 
L 2464 664 
C 2189 453 1869 337 1523 337 
C 1024 337 698 774 698 1369 
C 698 1831 909 2414 1549 2414 
C 1901 2414 2099 2343 2394 2145 
L 2464 2541 
z
" transform="scale(0.015625)"/>
       <path id="CMSS17-6f" d="M 2829 1356 
C 2829 2176 2221 2816 1504 2816 
C 768 2816 173 2157 173 1356 
C 173 544 787 -64 1498 -64 
C 2227 -64 2829 563 2829 1356 
z
M 1504 337 
C 1050 337 659 709 659 1408 
C 659 2151 1114 2427 1498 2427 
C 1914 2427 2342 2126 2342 1408 
C 2342 683 1926 337 1504 337 
z
" transform="scale(0.015625)"/>
       <path id="CMSS17-6b" d="M 1696 1688 
L 2688 2739 
L 2074 2739 
L 954 1554 
L 954 4416 
L 480 4416 
L 480 0 
L 947 0 
L 947 892 
L 1376 1344 
L 2278 0 
L 2822 0 
L 1696 1688 
z
" transform="scale(0.015625)"/>
       <path id="CMSS17-74" d="M 1069 2368 
L 1901 2368 
L 1901 2737 
L 1069 2737 
L 1069 3520 
L 614 3520 
L 614 2737 
L 109 2737 
L 109 2368 
L 602 2368 
L 602 749 
C 602 384 685 -64 1107 -64 
C 1427 -64 1722 25 2003 172 
L 1901 548 
C 1747 414 1562 337 1363 337 
C 1082 337 1069 696 1069 856 
L 1069 2368 
z
" transform="scale(0.015625)"/>
       <path id="CMSS17-69" d="M 979 4183 
L 442 4183 
L 442 3648 
L 979 3648 
L 979 4183 
z
M 947 2739 
L 474 2739 
L 474 0 
L 947 0 
L 947 2739 
z
" transform="scale(0.015625)"/>
       <path id="CMSS17-6d" d="M 4288 1877 
C 4288 2308 4179 2816 3462 2816 
C 2982 2816 2694 2516 2566 2331 
C 2451 2670 2182 2816 1798 2816 
C 1363 2816 1088 2568 941 2389 
L 941 2758 
L 474 2758 
L 474 0 
L 960 0 
L 960 1559 
C 960 1939 1101 2428 1555 2428 
C 2138 2428 2138 2016 2138 1829 
L 2138 0 
L 2624 0 
L 2624 1559 
C 2624 1939 2765 2428 3219 2428 
C 3802 2428 3802 2016 3802 1829 
L 3802 0 
L 4288 0 
L 4288 1877 
z
" transform="scale(0.015625)"/>
       <path id="CMSS17-65" d="M 2502 1377 
C 2502 1590 2490 2003 2285 2345 
C 2061 2713 1696 2816 1421 2816 
C 755 2816 192 2188 192 1375 
C 192 582 774 -64 1510 -64 
C 1798 -64 2150 19 2470 248 
C 2470 274 2458 414 2451 420 
C 2451 433 2432 630 2432 656 
C 2125 407 1773 325 1517 325 
C 1107 325 666 667 646 1377 
L 2502 1377 
z
M 698 1728 
C 781 2084 1062 2421 1421 2421 
C 1517 2421 1965 2421 2080 1728 
L 698 1728 
z
" transform="scale(0.015625)"/>
       <path id="CMSS17-28" d="M 1613 4768 
C 1267 4417 474 3601 474 1588 
C 474 -433 1267 -1243 1613 -1600 
L 2003 -1600 
C 1216 -784 960 357 960 1581 
C 960 2798 1203 3946 2003 4768 
L 1613 4768 
z
" transform="scale(0.015625)"/>
       <path id="CMSS17-73" d="M 2061 2627 
C 1683 2807 1389 2807 1197 2807 
C 742 2807 198 2648 198 2003 
C 198 1359 902 1218 1094 1179 
C 1389 1122 1715 1058 1715 740 
C 1715 337 1254 337 1171 337 
C 915 337 563 407 243 638 
L 166 210 
C 531 0 883 -64 1178 -64 
C 1965 -64 2163 416 2163 781 
C 2163 1094 1984 1305 1862 1401 
C 1651 1568 1574 1587 1050 1696 
C 960 1709 646 1779 646 2066 
C 646 2432 1050 2432 1139 2432 
C 1555 2432 1811 2303 1984 2208 
L 2061 2627 
z
" transform="scale(0.015625)"/>
       <path id="CMSS17-29" d="M 723 -1600 
C 1069 -1249 1862 -433 1862 1581 
C 1862 3601 1069 4411 723 4768 
L 333 4768 
C 1120 3952 1376 2811 1376 1588 
C 1376 370 1133 -778 333 -1600 
L 723 -1600 
z
" transform="scale(0.015625)"/>
       <path id="CMSS17-77" d="M 4013 2752 
L 3526 2752 
L 3187 1601 
C 3117 1358 2918 685 2893 371 
L 2886 371 
C 2874 564 2765 1024 2586 1633 
L 2259 2752 
L 1818 2752 
L 1498 1658 
C 1338 1101 1216 627 1203 371 
L 1197 371 
C 1171 749 909 1633 870 1773 
L 582 2752 
L 83 2752 
L 915 0 
L 1402 0 
C 1734 1096 1990 1943 2010 2370 
C 2022 2160 2131 1707 2195 1484 
L 2618 0 
L 3181 0 
L 4013 2752 
z
" transform="scale(0.015625)"/>
       <path id="CMSS17-72" d="M 954 1363 
C 954 1965 1395 2368 1958 2368 
L 1958 2789 
C 1549 2789 1165 2585 934 2253 
L 934 2758 
L 480 2758 
L 480 0 
L 954 0 
L 954 1363 
z
" transform="scale(0.015625)"/>
       <path id="CMSS17-62" d="M 954 4416 
L 480 4416 
L 480 -13 
L 966 -13 
L 966 274 
C 1210 38 1504 -64 1766 -64 
C 2381 -64 2880 549 2880 1352 
C 2880 2086 2496 2756 1926 2756 
C 1523 2756 1165 2591 954 2419 
L 954 4416 
z
M 966 2046 
C 1107 2222 1306 2368 1587 2368 
C 1965 2368 2394 2097 2394 1352 
C 2394 558 1882 325 1530 325 
C 1402 325 1267 356 1139 464 
C 966 615 966 709 966 797 
L 966 2046 
z
" transform="scale(0.015625)"/>
      </defs>
      <use xlink:href="#CMSS17-57" transform="scale(0.996264)"/>
      <use xlink:href="#CMSS17-61" transform="translate(85.639712 0) scale(0.996264)"/>
      <use xlink:href="#CMSS17-6c" transform="translate(130.561633 0) scale(0.996264)"/>
      <use xlink:href="#CMSS17-6c" transform="translate(152.742356 0) scale(0.996264)"/>
      <use xlink:href="#CMSS17-2d" transform="translate(174.923079 0) scale(0.996264)"/>
      <use xlink:href="#CMSS17-63" transform="translate(206.152192 0) scale(0.996264)"/>
      <use xlink:href="#CMSS17-6c" transform="translate(247.791014 0) scale(0.996264)"/>
      <use xlink:href="#CMSS17-6f" transform="translate(269.971737 0) scale(0.996264)"/>
      <use xlink:href="#CMSS17-63" transform="translate(319.417799 0) scale(0.996264)"/>
      <use xlink:href="#CMSS17-6b" transform="translate(361.056621 0) scale(0.996264)"/>
      <use xlink:href="#CMSS17-74" transform="translate(437.888223 0) scale(0.996264)"/>
      <use xlink:href="#CMSS17-69" transform="translate(471.71979 0) scale(0.996264)"/>
      <use xlink:href="#CMSS17-6d" transform="translate(493.900513 0) scale(0.996264)"/>
      <use xlink:href="#CMSS17-65" transform="translate(568.129767 0) scale(0.996264)"/>
      <use xlink:href="#CMSS17-28" transform="translate(640.997702 0) scale(0.996264)"/>
      <use xlink:href="#CMSS17-6d" transform="translate(677.431616 0) scale(0.996264)"/>
      <use xlink:href="#CMSS17-73" transform="translate(751.660871 0) scale(0.996264)"/>
      <use xlink:href="#CMSS17-29" transform="translate(787.574413 0) scale(0.996264)"/>
      <use xlink:href="#CMSS17-28" transform="translate(855.23744 0) scale(0.996264)"/>
      <use xlink:href="#CMSS17-6c" transform="translate(891.671354 0) scale(0.996264)"/>
      <use xlink:href="#CMSS17-6f" transform="translate(913.852077 0) scale(0.996264)"/>
      <use xlink:href="#CMSS17-77" transform="translate(958.093247 0) scale(0.996264)"/>
      <use xlink:href="#CMSS17-65" transform="translate(1019.310338 0) scale(0.996264)"/>
      <use xlink:href="#CMSS17-72" transform="translate(1060.94916 0) scale(0.996264)"/>
      <use xlink:href="#CMSS17-69" transform="translate(1124.088045 0) scale(0.996264)"/>
      <use xlink:href="#CMSS17-73" transform="translate(1146.268768 0) scale(0.996264)"/>
      <use xlink:href="#CMSS17-62" transform="translate(1213.411423 0) scale(0.996264)"/>
      <use xlink:href="#CMSS17-65" transform="translate(1264.218805 0) scale(0.996264)"/>
      <use xlink:href="#CMSS17-74" transform="translate(1305.857627 0) scale(0.996264)"/>
      <use xlink:href="#CMSS17-74" transform="translate(1339.689193 0) scale(0.996264)"/>
      <use xlink:href="#CMSS17-65" transform="translate(1373.52076 0) scale(0.996264)"/>
      <use xlink:href="#CMSS17-72" transform="translate(1415.159582 0) scale(0.996264)"/>
      <use xlink:href="#CMSS17-29" transform="translate(1447.069355 0) scale(0.996264)"/>
     </g>
    </g>
   </g>
   <g id="matplotlib.axis_2">
    <g id="ytick_1">
     <g id="line2d_15">
      <path d="M 70.836679 118.727732 
L 331.075604 118.727732 
" clip-path="url(#pe51b0d2378)" style="fill: none; stroke: #cccccc; stroke-width: 0.25; stroke-linecap: round"/>
     </g>
     <g id="line2d_16">
      <defs>
       <path id="mc16afc9df1" d="M 0 0 
L -6 0 
" style="stroke: #262626; stroke-width: 1.25"/>
      </defs>
      <g>
       <use xlink:href="#mc16afc9df1" x="70.836679" y="118.727732" style="fill: #262626; stroke: #262626; stroke-width: 1.25"/>
      </g>
     </g>
     <g id="text_9">
      <!-- \textsc{som-rs$_\textrm{bc}$} -->
      <g style="fill: #262626" transform="translate(12.582009 122.532905) scale(0.11 -0.11)">
       <defs>
        <path id="CMCSC10-73" d="M 2458 3252 
C 2458 3354 2458 3405 2394 3405 
C 2355 3405 2349 3399 2253 3257 
C 2221 3226 2157 3130 2131 3091 
C 1888 3328 1594 3405 1331 3405 
C 749 3405 326 2970 326 2471 
C 326 2112 531 1901 608 1824 
C 800 1633 928 1607 1517 1473 
C 1862 1389 1926 1377 2074 1242 
C 2106 1217 2278 1044 2278 762 
C 2278 443 2029 97 1587 97 
C 1421 97 1075 122 800 346 
C 512 570 493 884 486 1056 
C 480 1108 429 1114 410 1114 
C 326 1114 326 1069 326 955 
L 326 89 
C 326 -13 326 -64 390 -64 
C 429 -64 435 -58 531 84 
C 563 116 627 212 653 251 
C 838 84 1171 -64 1587 -64 
C 2208 -64 2605 429 2605 934 
C 2605 1338 2355 1594 2355 1600 
C 2118 1844 2016 1862 1472 1990 
C 1338 2022 1114 2074 1075 2087 
C 755 2214 653 2464 653 2656 
C 653 2950 909 3264 1338 3264 
C 2150 3264 2266 2515 2291 2311 
C 2304 2266 2304 2227 2374 2227 
C 2458 2227 2458 2259 2458 2380 
L 2458 3252 
z
" transform="scale(0.015625)"/>
        <path id="CMCSC10-6f" d="M 3744 1667 
C 3744 2627 2982 3424 2035 3424 
C 1082 3424 326 2627 326 1667 
C 326 695 1101 -64 2035 -64 
C 2970 -64 3744 695 3744 1667 
z
M 2035 103 
C 1581 103 877 470 877 1738 
C 877 2948 1606 3264 2035 3264 
C 2470 3264 3194 2941 3194 1738 
C 3194 470 2490 103 2035 103 
z
" transform="scale(0.015625)"/>
        <path id="CMCSC10-6d" d="M 3603 3142 
L 3610 3136 
L 3610 493 
C 3610 230 3578 192 3149 192 
L 3149 37 
C 3277 37 3590 37 3814 37 
C 4038 37 4269 37 4480 37 
L 4480 192 
C 4051 192 4019 230 4019 493 
L 4019 2867 
C 4019 3129 4051 3168 4480 3168 
L 4480 3328 
L 3706 3328 
C 3558 3328 3539 3328 3488 3206 
L 2394 513 
L 1293 3213 
C 1248 3328 1210 3328 1075 3328 
L 301 3328 
L 301 3168 
C 730 3168 762 3129 762 2867 
L 762 679 
C 762 531 762 192 301 192 
L 301 37 
C 435 37 723 37 851 37 
C 947 37 1242 37 1402 31 
L 1402 192 
C 941 192 941 531 941 679 
L 941 3091 
L 947 3097 
L 2144 153 
C 2170 95 2202 37 2266 37 
C 2330 37 2362 95 2387 153 
L 3603 3142 
z
" transform="scale(0.015625)"/>
        <path id="CMCSC10-2d" d="M 1952 1216 
L 1952 1589 
L 166 1589 
L 166 1216 
L 1952 1216 
z
" transform="scale(0.015625)"/>
        <path id="CMCSC10-72" d="M 1190 2881 
C 1190 3040 1203 3103 1267 3135 
C 1312 3155 1485 3155 1600 3155 
C 2074 3155 2618 3155 2618 2465 
C 2618 2212 2586 1748 1754 1748 
L 1190 1748 
L 1190 2881 
z
M 2323 1664 
C 2771 1780 3168 2069 3168 2461 
C 3168 2911 2598 3328 1824 3328 
L 288 3328 
L 288 3168 
C 717 3168 749 3129 749 2867 
L 749 493 
C 749 230 717 192 288 192 
L 288 37 
C 480 37 787 37 966 37 
C 1152 37 1485 37 1651 37 
L 1651 192 
C 1222 192 1190 230 1190 492 
L 1190 1600 
L 1766 1600 
C 1926 1600 2093 1600 2291 1401 
C 2426 1260 2426 1105 2426 823 
C 2426 463 2426 347 2630 148 
C 2746 32 3002 -64 3290 -64 
C 3699 -64 3795 337 3795 466 
C 3795 499 3795 563 3712 563 
C 3642 563 3635 504 3635 478 
C 3590 77 3360 77 3315 77 
C 3187 77 3130 161 3091 232 
C 3040 334 3002 514 2918 925 
C 2867 1150 2803 1478 2323 1664 
z
" transform="scale(0.015625)"/>
        <path id="CMCSC10-62" d="M 2438 1754 
C 2874 1844 3238 2135 3238 2508 
C 3238 2915 2790 3328 2093 3328 
L 294 3328 
L 294 3168 
C 723 3168 755 3129 755 2867 
L 755 493 
C 755 230 723 192 294 192 
L 294 31 
L 2227 31 
C 2938 31 3386 465 3386 912 
C 3386 1326 2976 1677 2438 1747 
L 2438 1754 
z
M 1178 2890 
C 1178 3148 1210 3168 1434 3168 
L 2048 3168 
C 2630 3168 2726 2664 2726 2509 
C 2726 2276 2560 1805 1894 1805 
L 1178 1805 
L 1178 2890 
z
M 2138 1664 
C 2682 1664 2854 1179 2854 912 
C 2854 624 2643 192 2061 192 
L 1434 192 
C 1210 192 1178 211 1178 466 
L 1178 1664 
L 2138 1664 
z
" transform="scale(0.015625)"/>
        <path id="CMCSC10-63" d="M 3046 3019 
C 2912 3161 2598 3424 2118 3424 
C 1152 3424 326 2659 326 1680 
C 326 702 1152 -64 2118 -64 
C 2950 -64 3456 605 3456 1165 
C 3456 1223 3456 1268 3373 1268 
C 3302 1268 3302 1229 3296 1165 
C 3251 483 2701 97 2163 97 
C 1843 97 877 270 877 1680 
C 877 3109 1869 3264 2157 3264 
C 2624 3264 3168 2929 3290 2112 
C 3302 2067 3309 2028 3373 2028 
C 3456 2028 3456 2060 3456 2182 
L 3456 3270 
C 3456 3373 3456 3424 3392 3424 
C 3354 3424 3347 3411 3296 3347 
L 3046 3019 
z
" transform="scale(0.015625)"/>
       </defs>
       <use xlink:href="#CMCSC10-73" transform="scale(0.996264)"/>
       <use xlink:href="#CMCSC10-6f" transform="translate(45.606578 0) scale(0.996264)"/>
       <use xlink:href="#CMCSC10-6d" transform="translate(108.924465 0) scale(0.996264)"/>
       <use xlink:href="#CMCSC10-2d" transform="translate(183.311909 0) scale(0.996264)"/>
       <use xlink:href="#CMCSC10-72" transform="translate(220.948193 0) scale(0.996264)"/>
       <use xlink:href="#CMCSC10-73" transform="translate(280.94525 0) scale(0.996264)"/>
       <use xlink:href="#CMCSC10-62" transform="translate(326.551828 -16.881108) scale(0.996264)"/>
       <use xlink:href="#CMCSC10-63" transform="translate(384.335035 -16.881108) scale(0.996264)"/>
      </g>
     </g>
    </g>
    <g id="ytick_2">
     <g id="line2d_17">
      <path d="M 70.836679 76.641795 
L 331.075604 76.641795 
" clip-path="url(#pe51b0d2378)" style="fill: none; stroke: #cccccc; stroke-width: 0.25; stroke-linecap: round"/>
     </g>
     <g id="line2d_18">
      <g>
       <use xlink:href="#mc16afc9df1" x="70.836679" y="76.641795" style="fill: #262626; stroke: #262626; stroke-width: 1.25"/>
      </g>
     </g>
     <g id="text_10">
      <!-- \textsc{som-rs$_\textrm{ast}$} -->
      <g style="fill: #262626" transform="translate(7.2 80.446969) scale(0.11 -0.11)">
       <defs>
        <path id="CMCSC10-61" d="M 2106 3252 
C 2067 3354 2035 3392 1965 3392 
C 1875 3392 1862 3354 1830 3270 
L 800 623 
C 730 450 621 161 218 161 
L 218 -6 
C 358 0 544 0 685 0 
C 794 0 1088 0 1216 0 
L 1216 161 
C 947 161 928 383 928 442 
C 928 494 928 507 1146 1088 
L 2470 1088 
L 2611 727 
C 2662 598 2746 379 2746 341 
C 2746 161 2515 161 2406 161 
L 2406 0 
C 2579 0 2957 0 3085 0 
C 3302 0 3552 0 3706 0 
L 3706 161 
C 3347 161 3290 193 3206 416 
L 2106 3252 
z
M 2406 1248 
L 1210 1248 
L 1811 2781 
L 2406 1248 
z
" transform="scale(0.015625)"/>
        <path id="CMCSC10-74" d="M 3462 3233 
L 320 3233 
L 230 2151 
L 390 2151 
C 448 2957 576 3072 1286 3072 
C 1645 3072 1664 3072 1664 2797 
L 1664 468 
C 1664 212 1638 142 1146 142 
L 1011 142 
L 1011 -19 
C 1261 0 1638 0 1894 0 
C 2150 0 2528 0 2778 -19 
L 2778 142 
L 2643 142 
C 2150 142 2125 212 2125 468 
L 2125 2797 
C 2125 3072 2144 3072 2502 3072 
C 3194 3072 3334 2963 3392 2151 
L 3552 2151 
L 3462 3233 
z
" transform="scale(0.015625)"/>
       </defs>
       <use xlink:href="#CMCSC10-73" transform="scale(0.996264)"/>
       <use xlink:href="#CMCSC10-6f" transform="translate(45.606578 0) scale(0.996264)"/>
       <use xlink:href="#CMCSC10-6d" transform="translate(108.924465 0) scale(0.996264)"/>
       <use xlink:href="#CMCSC10-2d" transform="translate(183.311909 0) scale(0.996264)"/>
       <use xlink:href="#CMCSC10-72" transform="translate(220.948193 0) scale(0.996264)"/>
       <use xlink:href="#CMCSC10-73" transform="translate(280.94525 0) scale(0.996264)"/>
       <use xlink:href="#CMCSC10-61" transform="translate(326.551828 -16.881108) scale(0.996264)"/>
       <use xlink:href="#CMCSC10-73" transform="translate(387.655864 -16.881108) scale(0.996264)"/>
       <use xlink:href="#CMCSC10-74" transform="translate(433.262442 -16.881108) scale(0.996264)"/>
      </g>
     </g>
    </g>
    <g id="ytick_3">
     <g id="line2d_19">
      <path d="M 70.836679 34.555859 
L 331.075604 34.555859 
" clip-path="url(#pe51b0d2378)" style="fill: none; stroke: #cccccc; stroke-width: 0.25; stroke-linecap: round"/>
     </g>
     <g id="line2d_20">
      <g>
       <use xlink:href="#mc16afc9df1" x="70.836679" y="34.555859" style="fill: #262626; stroke: #262626; stroke-width: 1.25"/>
      </g>
     </g>
     <g id="text_11">
      <!-- \textsc{yksom} -->
      <g style="fill: #262626" transform="translate(27.485988 38.361032) scale(0.11 -0.11)">
       <defs>
        <path id="CMCSC10-79" d="M 2131 1574 
L 1248 2879 
C 1216 2924 1171 2988 1171 3052 
C 1171 3181 1357 3181 1434 3181 
L 1434 3328 
C 1267 3328 845 3328 742 3328 
C 570 3328 314 3328 122 3328 
L 122 3181 
C 454 3181 531 3142 646 2975 
L 1741 1358 
L 1741 495 
C 1741 230 1709 192 1280 192 
L 1280 37 
C 1472 37 1779 37 1958 37 
C 2144 37 2477 37 2643 37 
L 2643 192 
C 2208 192 2182 230 2182 514 
L 2182 1352 
L 3110 2740 
C 3341 3090 3552 3181 3802 3181 
L 3802 3341 
C 3667 3328 3488 3328 3354 3328 
C 3181 3328 3002 3328 2829 3341 
L 2829 3181 
C 2970 3168 3014 3091 3014 2988 
C 3014 2892 2963 2814 2918 2744 
L 2131 1574 
z
" transform="scale(0.015625)"/>
        <path id="CMCSC10-6b" d="M 1197 1448 
L 1197 2878 
C 1197 3142 1229 3181 1658 3181 
L 1658 3328 
C 1472 3328 1107 3328 966 3328 
C 826 3328 467 3328 275 3328 
L 275 3181 
C 704 3181 736 3142 736 2878 
L 736 495 
C 736 230 704 192 275 192 
L 275 37 
C 461 37 826 37 966 37 
C 1107 37 1466 37 1658 37 
L 1658 192 
C 1229 192 1197 230 1197 495 
L 1197 1229 
L 1811 1777 
L 2662 628 
C 2726 545 2803 422 2803 333 
C 2803 210 2650 198 2598 198 
L 2598 37 
C 2726 37 3149 37 3264 37 
C 3437 37 3635 37 3808 31 
L 3808 192 
C 3597 192 3462 211 3226 540 
L 2118 2047 
C 3328 3168 3462 3168 3738 3168 
L 3738 3341 
C 3590 3328 3494 3328 3334 3328 
C 3162 3328 2829 3328 2739 3341 
L 2739 3181 
C 2810 3168 2848 3129 2848 3059 
C 2848 2942 2739 2807 2637 2717 
L 1197 1448 
z
" transform="scale(0.015625)"/>
       </defs>
       <use xlink:href="#CMCSC10-79" transform="scale(0.996264)"/>
       <use xlink:href="#CMCSC10-6b" transform="translate(61.104036 0) scale(0.996264)"/>
       <use xlink:href="#CMCSC10-73" transform="translate(124.422013 0) scale(0.996264)"/>
       <use xlink:href="#CMCSC10-6f" transform="translate(170.028592 0) scale(0.996264)"/>
       <use xlink:href="#CMCSC10-6d" transform="translate(233.346478 0) scale(0.996264)"/>
      </g>
     </g>
    </g>
   </g>
   <g id="patch_3">
    <path d="M 70.836679 135.562106 
L 253.931211 135.562106 
L 253.931211 118.727732 
L 70.836679 118.727732 
z
" clip-path="url(#pe51b0d2378)" style="fill: #4c72b0; stroke: #ffffff; stroke-linejoin: miter"/>
   </g>
   <g id="patch_4">
    <path d="M 70.836679 93.47617 
L 100.270289 93.47617 
L 100.270289 76.641795 
L 70.836679 76.641795 
z
" clip-path="url(#pe51b0d2378)" style="fill: #4c72b0; stroke: #ffffff; stroke-linejoin: miter"/>
   </g>
   <g id="patch_5">
    <path d="M 70.836679 51.390233 
L 77.871116 51.390233 
L 77.871116 34.555859 
L 70.836679 34.555859 
z
" clip-path="url(#pe51b0d2378)" style="fill: #4c72b0; stroke: #ffffff; stroke-linejoin: miter"/>
   </g>
   <g id="patch_6">
    <path d="M 70.836679 118.727732 
L 309.433576 118.727732 
L 309.433576 101.893357 
L 70.836679 101.893357 
z
" clip-path="url(#pe51b0d2378)" style="fill: #dd8452; stroke: #ffffff; stroke-linejoin: miter"/>
   </g>
   <g id="patch_7">
    <path d="M 70.836679 76.641795 
L 161.889716 76.641795 
L 161.889716 59.807421 
L 70.836679 59.807421 
z
" clip-path="url(#pe51b0d2378)" style="fill: #dd8452; stroke: #ffffff; stroke-linejoin: miter"/>
   </g>
   <g id="patch_8">
    <path d="M 70.836679 34.555859 
L 104.927733 34.555859 
L 104.927733 17.721484 
L 70.836679 17.721484 
z
" clip-path="url(#pe51b0d2378)" style="fill: #dd8452; stroke: #ffffff; stroke-linejoin: miter"/>
   </g>
   <g id="LineCollection_1">
    <path d="M 241.398757 127.144919 
L 266.463666 127.144919 
" clip-path="url(#pe51b0d2378)" style="fill: none; stroke: #262626; stroke-width: 1.5"/>
    <path d="M 97.996423 85.058983 
L 102.544155 85.058983 
" clip-path="url(#pe51b0d2378)" style="fill: none; stroke: #262626; stroke-width: 1.5"/>
    <path d="M 77.361947 42.973046 
L 78.380285 42.973046 
" clip-path="url(#pe51b0d2378)" style="fill: none; stroke: #262626; stroke-width: 1.5"/>
   </g>
   <g id="line2d_21">
    <defs>
     <path id="m50168c6186" d="M 0 2 
L 0 -2 
" style="stroke: #262626"/>
    </defs>
    <g clip-path="url(#pe51b0d2378)">
     <use xlink:href="#m50168c6186" x="241.398757" y="127.144919" style="fill: #262626; stroke: #262626"/>
     <use xlink:href="#m50168c6186" x="97.996423" y="85.058983" style="fill: #262626; stroke: #262626"/>
     <use xlink:href="#m50168c6186" x="77.361947" y="42.973046" style="fill: #262626; stroke: #262626"/>
    </g>
   </g>
   <g id="line2d_22">
    <g clip-path="url(#pe51b0d2378)">
     <use xlink:href="#m50168c6186" x="266.463666" y="127.144919" style="fill: #262626; stroke: #262626"/>
     <use xlink:href="#m50168c6186" x="102.544155" y="85.058983" style="fill: #262626; stroke: #262626"/>
     <use xlink:href="#m50168c6186" x="78.380285" y="42.973046" style="fill: #262626; stroke: #262626"/>
    </g>
   </g>
   <g id="LineCollection_2">
    <path d="M 290.368171 110.310544 
L 328.498981 110.310544 
" clip-path="url(#pe51b0d2378)" style="fill: none; stroke: #262626; stroke-width: 1.5"/>
    <path d="M 155.818496 68.224608 
L 167.960937 68.224608 
" clip-path="url(#pe51b0d2378)" style="fill: none; stroke: #262626; stroke-width: 1.5"/>
    <path d="M 101.961817 26.138671 
L 107.89365 26.138671 
" clip-path="url(#pe51b0d2378)" style="fill: none; stroke: #262626; stroke-width: 1.5"/>
   </g>
   <g id="line2d_23">
    <g clip-path="url(#pe51b0d2378)">
     <use xlink:href="#m50168c6186" x="290.368171" y="110.310544" style="fill: #262626; stroke: #262626"/>
     <use xlink:href="#m50168c6186" x="155.818496" y="68.224608" style="fill: #262626; stroke: #262626"/>
     <use xlink:href="#m50168c6186" x="101.961817" y="26.138671" style="fill: #262626; stroke: #262626"/>
    </g>
   </g>
   <g id="line2d_24">
    <g clip-path="url(#pe51b0d2378)">
     <use xlink:href="#m50168c6186" x="328.498981" y="110.310544" style="fill: #262626; stroke: #262626"/>
     <use xlink:href="#m50168c6186" x="167.960937" y="68.224608" style="fill: #262626; stroke: #262626"/>
     <use xlink:href="#m50168c6186" x="107.89365" y="26.138671" style="fill: #262626; stroke: #262626"/>
    </g>
   </g>
   <g id="patch_9">
    <path d="M 70.836679 146.083591 
L 70.836679 7.2 
" style="fill: none; stroke: #cccccc; stroke-width: 1.25; stroke-linejoin: miter; stroke-linecap: square"/>
   </g>
   <g id="patch_10">
    <path d="M 70.836679 146.083591 
L 331.075604 146.083591 
" style="fill: none; stroke: #cccccc; stroke-width: 1.25; stroke-linejoin: miter; stroke-linecap: square"/>
   </g>
   <g id="legend_1">
    <g id="patch_11">
     <path d="M 258.434305 46.661789 
L 323.375604 46.661789 
Q 325.575604 46.661789 325.575604 44.461789 
L 325.575604 14.9 
Q 325.575604 12.7 323.375604 12.7 
L 258.434305 12.7 
Q 256.234305 12.7 256.234305 14.9 
L 256.234305 44.461789 
Q 256.234305 46.661789 258.434305 46.661789 
z
" style="fill: #ffffff; opacity: 0.8; stroke: #cccccc; stroke-linejoin: miter"/>
    </g>
    <g id="patch_12">
     <path d="M 260.634305 24.8 
L 282.634305 24.8 
L 282.634305 17.1 
L 260.634305 17.1 
z
" style="fill: #4c72b0; stroke: #ffffff; stroke-linejoin: miter"/>
    </g>
    <g id="text_12">
     <!-- Elision -->
     <g style="fill: #262626" transform="translate(291.434305 24.8) scale(0.11 -0.11)">
      <defs>
       <path id="CMSS17-45" d="M 1958 433 
C 1446 433 1216 433 1101 433 
L 1101 2107 
L 3085 2107 
L 3085 2496 
L 1101 2496 
L 1101 4009 
L 1926 4009 
C 2003 4009 2080 4009 2157 4009 
L 3251 4009 
L 3251 4416 
L 563 4416 
L 563 0 
L 3334 0 
L 3334 433 
L 1958 433 
z
" transform="scale(0.015625)"/>
       <path id="CMSS17-6e" d="M 2618 1877 
C 2618 2283 2522 2816 1798 2816 
C 1389 2816 1120 2606 941 2389 
L 941 2758 
L 474 2758 
L 474 0 
L 960 0 
L 960 1559 
C 960 1964 1114 2428 1549 2428 
C 2112 2428 2131 2048 2131 1829 
L 2131 0 
L 2618 0 
L 2618 1877 
z
" transform="scale(0.015625)"/>
      </defs>
      <use xlink:href="#CMSS17-45" transform="scale(0.996264)"/>
      <use xlink:href="#CMSS17-6c" transform="translate(55.892013 0) scale(0.996264)"/>
      <use xlink:href="#CMSS17-69" transform="translate(78.072736 0) scale(0.996264)"/>
      <use xlink:href="#CMSS17-73" transform="translate(100.253459 0) scale(0.996264)"/>
      <use xlink:href="#CMSS17-69" transform="translate(136.167001 0) scale(0.996264)"/>
      <use xlink:href="#CMSS17-6f" transform="translate(158.347724 0) scale(0.996264)"/>
      <use xlink:href="#CMSS17-6e" transform="translate(205.191348 0) scale(0.996264)"/>
     </g>
    </g>
    <g id="patch_13">
     <path d="M 260.634305 40.130895 
L 282.634305 40.130895 
L 282.634305 32.430895 
L 260.634305 32.430895 
z
" style="fill: #dd8452; stroke: #ffffff; stroke-linejoin: miter"/>
    </g>
    <g id="text_13">
     <!-- Naive -->
     <g style="fill: #262626" transform="translate(291.434305 40.130895) scale(0.11 -0.11)">
      <defs>
       <path id="CMSS17-4e" d="M 1466 4180 
L 1350 4416 
L 563 4416 
L 563 0 
L 1062 0 
L 1062 3926 
L 1069 3932 
C 1114 3817 1139 3760 1402 3194 
L 2771 236 
L 2886 0 
L 3674 0 
L 3674 4416 
L 3174 4416 
L 3174 490 
L 3168 483 
C 3123 598 3098 655 2835 1221 
L 1466 4180 
z
" transform="scale(0.015625)"/>
       <path id="CMSS17-76" d="M 2675 2752 
L 2176 2752 
L 1747 1556 
C 1613 1165 1421 627 1389 352 
L 1382 352 
C 1370 468 1318 634 1286 749 
C 1248 890 1197 1056 1158 1172 
L 595 2752 
L 83 2752 
L 1094 0 
L 1664 0 
L 2675 2752 
z
" transform="scale(0.015625)"/>
      </defs>
      <use xlink:href="#CMSS17-4e" transform="scale(0.996264)"/>
      <use xlink:href="#CMSS17-61" transform="translate(66.061519 0) scale(0.996264)"/>
      <use xlink:href="#CMSS17-69" transform="translate(110.98344 0) scale(0.996264)"/>
      <use xlink:href="#CMSS17-76" transform="translate(133.164163 0) scale(0.996264)"/>
      <use xlink:href="#CMSS17-65" transform="translate(176.164305 0) scale(0.996264)"/>
     </g>
    </g>
   </g>
  </g>
 </g>
 <defs>
  <clipPath id="pe51b0d2378">
   <rect x="70.836679" y="7.2" width="260.238926" height="138.883591"/>
  </clipPath>
 </defs>
</svg>
