<?xml version="1.0" encoding="utf-8" standalone="no"?>
<!DOCTYPE svg PUBLIC "-//W3C//DTD SVG 1.1//EN"
  "http://www.w3.org/Graphics/SVG/1.1/DTD/svg11.dtd">
<svg xmlns:xlink="http://www.w3.org/1999/xlink" width="263.744375pt" height="229.1407pt" viewBox="0 0 263.744375 229.1407" xmlns="http://www.w3.org/2000/svg" version="1.1">
 <metadata>
  <rdf:RDF xmlns:dc="http://purl.org/dc/elements/1.1/" xmlns:cc="http://creativecommons.org/ns#" xmlns:rdf="http://www.w3.org/1999/02/22-rdf-syntax-ns#">
   <cc:Work>
    <dc:type rdf:resource="http://purl.org/dc/dcmitype/StillImage"/>
    <dc:date>2025-07-03T00:53:38.032240</dc:date>
    <dc:format>image/svg+xml</dc:format>
    <dc:creator>
     <cc:Agent>
      <dc:title>Matplotlib v3.9.2, https://matplotlib.org/</dc:title>
     </cc:Agent>
    </dc:creator>
   </cc:Work>
  </rdf:RDF>
 </metadata>
 <defs>
  <style type="text/css">*{stroke-linejoin: round; stroke-linecap: butt}</style>
 </defs>
 <g id="figure_1">
  <g id="patch_1">
   <path d="M -0 229.1407 
L 263.744375 229.1407 
L 263.744375 0 
L -0 0 
z
" style="fill: #ffffff"/>
  </g>
  <g id="axes_1">
   <g id="patch_2">
    <path d="M 35.484375 207.1982 
L 256.544375 207.1982 
L 256.544375 12.9142 
L 35.484375 12.9142 
z
" style="fill: #ffffff"/>
   </g>
   <g id="matplotlib.axis_1">
    <g id="xtick_1">
     <g id="line2d_1">
      <defs>
       <path id="ma124c2b214" d="M 0 0 
L 0 3.5 
" style="stroke: #b0b0b0; stroke-width: 0.4"/>
      </defs>
      <g>
       <use xlink:href="#ma124c2b214" x="62.279527" y="207.1982" style="fill: #b0b0b0; stroke: #b0b0b0; stroke-width: 0.4"/>
      </g>
     </g>
     <g id="text_1">
      <!-- eclipse -->
      <g transform="translate(48.312027 220.27695) scale(0.08 -0.08)">
       <defs>
        <path id="DejaVuSans-65" d="M 3597 1894 
L 3597 1613 
L 953 1613 
Q 991 1019 1311 708 
Q 1631 397 2203 397 
Q 2534 397 2845 478 
Q 3156 559 3463 722 
L 3463 178 
Q 3153 47 2828 -22 
Q 2503 -91 2169 -91 
Q 1331 -91 842 396 
Q 353 884 353 1716 
Q 353 2575 817 3079 
Q 1281 3584 2069 3584 
Q 2775 3584 3186 3129 
Q 3597 2675 3597 1894 
z
M 3022 2063 
Q 3016 2534 2758 2815 
Q 2500 3097 2075 3097 
Q 1594 3097 1305 2825 
Q 1016 2553 972 2059 
L 3022 2063 
z
" transform="scale(0.015625)"/>
        <path id="DejaVuSans-63" d="M 3122 3366 
L 3122 2828 
Q 2878 2963 2633 3030 
Q 2388 3097 2138 3097 
Q 1578 3097 1268 2742 
Q 959 2388 959 1747 
Q 959 1106 1268 751 
Q 1578 397 2138 397 
Q 2388 397 2633 464 
Q 2878 531 3122 666 
L 3122 134 
Q 2881 22 2623 -34 
Q 2366 -91 2075 -91 
Q 1284 -91 818 406 
Q 353 903 353 1747 
Q 353 2603 823 3093 
Q 1294 3584 2113 3584 
Q 2378 3584 2631 3529 
Q 2884 3475 3122 3366 
z
" transform="scale(0.015625)"/>
        <path id="DejaVuSans-6c" d="M 603 4863 
L 1178 4863 
L 1178 0 
L 603 0 
L 603 4863 
z
" transform="scale(0.015625)"/>
        <path id="DejaVuSans-69" d="M 603 3500 
L 1178 3500 
L 1178 0 
L 603 0 
L 603 3500 
z
M 603 4863 
L 1178 4863 
L 1178 4134 
L 603 4134 
L 603 4863 
z
" transform="scale(0.015625)"/>
        <path id="DejaVuSans-70" d="M 1159 525 
L 1159 -1331 
L 581 -1331 
L 581 3500 
L 1159 3500 
L 1159 2969 
Q 1341 3281 1617 3432 
Q 1894 3584 2278 3584 
Q 2916 3584 3314 3078 
Q 3713 2572 3713 1747 
Q 3713 922 3314 415 
Q 2916 -91 2278 -91 
Q 1894 -91 1617 61 
Q 1341 213 1159 525 
z
M 3116 1747 
Q 3116 2381 2855 2742 
Q 2594 3103 2138 3103 
Q 1681 3103 1420 2742 
Q 1159 2381 1159 1747 
Q 1159 1113 1420 752 
Q 1681 391 2138 391 
Q 2594 391 2855 752 
Q 3116 1113 3116 1747 
z
" transform="scale(0.015625)"/>
        <path id="DejaVuSans-73" d="M 2834 3397 
L 2834 2853 
Q 2591 2978 2328 3040 
Q 2066 3103 1784 3103 
Q 1356 3103 1142 2972 
Q 928 2841 928 2578 
Q 928 2378 1081 2264 
Q 1234 2150 1697 2047 
L 1894 2003 
Q 2506 1872 2764 1633 
Q 3022 1394 3022 966 
Q 3022 478 2636 193 
Q 2250 -91 1575 -91 
Q 1294 -91 989 -36 
Q 684 19 347 128 
L 347 722 
Q 666 556 975 473 
Q 1284 391 1588 391 
Q 1994 391 2212 530 
Q 2431 669 2431 922 
Q 2431 1156 2273 1281 
Q 2116 1406 1581 1522 
L 1381 1569 
Q 847 1681 609 1914 
Q 372 2147 372 2553 
Q 372 3047 722 3315 
Q 1072 3584 1716 3584 
Q 2034 3584 2315 3537 
Q 2597 3491 2834 3397 
z
" transform="scale(0.015625)"/>
       </defs>
       <use xlink:href="#DejaVuSans-65"/>
       <use xlink:href="#DejaVuSans-63" x="61.523438"/>
       <use xlink:href="#DejaVuSans-6c" x="116.503906"/>
       <use xlink:href="#DejaVuSans-69" x="144.287109"/>
       <use xlink:href="#DejaVuSans-70" x="172.070312"/>
       <use xlink:href="#DejaVuSans-73" x="235.546875"/>
       <use xlink:href="#DejaVuSans-65" x="287.646484"/>
      </g>
     </g>
    </g>
    <g id="xtick_2">
     <g id="line2d_2">
      <g>
       <use xlink:href="#ma124c2b214" x="118.102759" y="207.1982" style="fill: #b0b0b0; stroke: #b0b0b0; stroke-width: 0.4"/>
      </g>
     </g>
     <g id="text_2">
      <!-- hadoop -->
      <g transform="translate(103.142759 220.27695) scale(0.08 -0.08)">
       <defs>
        <path id="DejaVuSans-68" d="M 3513 2113 
L 3513 0 
L 2938 0 
L 2938 2094 
Q 2938 2591 2744 2837 
Q 2550 3084 2163 3084 
Q 1697 3084 1428 2787 
Q 1159 2491 1159 1978 
L 1159 0 
L 581 0 
L 581 4863 
L 1159 4863 
L 1159 2956 
Q 1366 3272 1645 3428 
Q 1925 3584 2291 3584 
Q 2894 3584 3203 3211 
Q 3513 2838 3513 2113 
z
" transform="scale(0.015625)"/>
        <path id="DejaVuSans-61" d="M 2194 1759 
Q 1497 1759 1228 1600 
Q 959 1441 959 1056 
Q 959 750 1161 570 
Q 1363 391 1709 391 
Q 2188 391 2477 730 
Q 2766 1069 2766 1631 
L 2766 1759 
L 2194 1759 
z
M 3341 1997 
L 3341 0 
L 2766 0 
L 2766 531 
Q 2569 213 2275 61 
Q 1981 -91 1556 -91 
Q 1019 -91 701 211 
Q 384 513 384 1019 
Q 384 1609 779 1909 
Q 1175 2209 1959 2209 
L 2766 2209 
L 2766 2266 
Q 2766 2663 2505 2880 
Q 2244 3097 1772 3097 
Q 1472 3097 1187 3025 
Q 903 2953 641 2809 
L 641 3341 
Q 956 3463 1253 3523 
Q 1550 3584 1831 3584 
Q 2591 3584 2966 3190 
Q 3341 2797 3341 1997 
z
" transform="scale(0.015625)"/>
        <path id="DejaVuSans-64" d="M 2906 2969 
L 2906 4863 
L 3481 4863 
L 3481 0 
L 2906 0 
L 2906 525 
Q 2725 213 2448 61 
Q 2172 -91 1784 -91 
Q 1150 -91 751 415 
Q 353 922 353 1747 
Q 353 2572 751 3078 
Q 1150 3584 1784 3584 
Q 2172 3584 2448 3432 
Q 2725 3281 2906 2969 
z
M 947 1747 
Q 947 1113 1208 752 
Q 1469 391 1925 391 
Q 2381 391 2643 752 
Q 2906 1113 2906 1747 
Q 2906 2381 2643 2742 
Q 2381 3103 1925 3103 
Q 1469 3103 1208 2742 
Q 947 2381 947 1747 
z
" transform="scale(0.015625)"/>
        <path id="DejaVuSans-6f" d="M 1959 3097 
Q 1497 3097 1228 2736 
Q 959 2375 959 1747 
Q 959 1119 1226 758 
Q 1494 397 1959 397 
Q 2419 397 2687 759 
Q 2956 1122 2956 1747 
Q 2956 2369 2687 2733 
Q 2419 3097 1959 3097 
z
M 1959 3584 
Q 2709 3584 3137 3096 
Q 3566 2609 3566 1747 
Q 3566 888 3137 398 
Q 2709 -91 1959 -91 
Q 1206 -91 779 398 
Q 353 888 353 1747 
Q 353 2609 779 3096 
Q 1206 3584 1959 3584 
z
" transform="scale(0.015625)"/>
       </defs>
       <use xlink:href="#DejaVuSans-68"/>
       <use xlink:href="#DejaVuSans-61" x="63.378906"/>
       <use xlink:href="#DejaVuSans-64" x="124.658203"/>
       <use xlink:href="#DejaVuSans-6f" x="188.134766"/>
       <use xlink:href="#DejaVuSans-6f" x="249.316406"/>
       <use xlink:href="#DejaVuSans-70" x="310.498047"/>
      </g>
     </g>
    </g>
    <g id="xtick_3">
     <g id="line2d_3">
      <g>
       <use xlink:href="#ma124c2b214" x="173.925991" y="207.1982" style="fill: #b0b0b0; stroke: #b0b0b0; stroke-width: 0.4"/>
      </g>
     </g>
     <g id="text_3">
      <!-- jenkins -->
      <g transform="translate(159.772241 220.27695) scale(0.08 -0.08)">
       <defs>
        <path id="DejaVuSans-6a" d="M 603 3500 
L 1178 3500 
L 1178 -63 
Q 1178 -731 923 -1031 
Q 669 -1331 103 -1331 
L -116 -1331 
L -116 -844 
L 38 -844 
Q 366 -844 484 -692 
Q 603 -541 603 -63 
L 603 3500 
z
M 603 4863 
L 1178 4863 
L 1178 4134 
L 603 4134 
L 603 4863 
z
" transform="scale(0.015625)"/>
        <path id="DejaVuSans-6e" d="M 3513 2113 
L 3513 0 
L 2938 0 
L 2938 2094 
Q 2938 2591 2744 2837 
Q 2550 3084 2163 3084 
Q 1697 3084 1428 2787 
Q 1159 2491 1159 1978 
L 1159 0 
L 581 0 
L 581 3500 
L 1159 3500 
L 1159 2956 
Q 1366 3272 1645 3428 
Q 1925 3584 2291 3584 
Q 2894 3584 3203 3211 
Q 3513 2838 3513 2113 
z
" transform="scale(0.015625)"/>
        <path id="DejaVuSans-6b" d="M 581 4863 
L 1159 4863 
L 1159 1991 
L 2875 3500 
L 3609 3500 
L 1753 1863 
L 3688 0 
L 2938 0 
L 1159 1709 
L 1159 0 
L 581 0 
L 581 4863 
z
" transform="scale(0.015625)"/>
       </defs>
       <use xlink:href="#DejaVuSans-6a"/>
       <use xlink:href="#DejaVuSans-65" x="27.783203"/>
       <use xlink:href="#DejaVuSans-6e" x="89.306641"/>
       <use xlink:href="#DejaVuSans-6b" x="152.685547"/>
       <use xlink:href="#DejaVuSans-69" x="210.595703"/>
       <use xlink:href="#DejaVuSans-6e" x="238.378906"/>
       <use xlink:href="#DejaVuSans-73" x="301.757812"/>
      </g>
     </g>
    </g>
    <g id="xtick_4">
     <g id="line2d_4">
      <g>
       <use xlink:href="#ma124c2b214" x="229.749223" y="207.1982" style="fill: #b0b0b0; stroke: #b0b0b0; stroke-width: 0.4"/>
      </g>
     </g>
     <g id="text_4">
      <!-- spring -->
      <g transform="translate(217.296098 220.27695) scale(0.08 -0.08)">
       <defs>
        <path id="DejaVuSans-72" d="M 2631 2963 
Q 2534 3019 2420 3045 
Q 2306 3072 2169 3072 
Q 1681 3072 1420 2755 
Q 1159 2438 1159 1844 
L 1159 0 
L 581 0 
L 581 3500 
L 1159 3500 
L 1159 2956 
Q 1341 3275 1631 3429 
Q 1922 3584 2338 3584 
Q 2397 3584 2469 3576 
Q 2541 3569 2628 3553 
L 2631 2963 
z
" transform="scale(0.015625)"/>
        <path id="DejaVuSans-67" d="M 2906 1791 
Q 2906 2416 2648 2759 
Q 2391 3103 1925 3103 
Q 1463 3103 1205 2759 
Q 947 2416 947 1791 
Q 947 1169 1205 825 
Q 1463 481 1925 481 
Q 2391 481 2648 825 
Q 2906 1169 2906 1791 
z
M 3481 434 
Q 3481 -459 3084 -895 
Q 2688 -1331 1869 -1331 
Q 1566 -1331 1297 -1286 
Q 1028 -1241 775 -1147 
L 775 -588 
Q 1028 -725 1275 -790 
Q 1522 -856 1778 -856 
Q 2344 -856 2625 -561 
Q 2906 -266 2906 331 
L 2906 616 
Q 2728 306 2450 153 
Q 2172 0 1784 0 
Q 1141 0 747 490 
Q 353 981 353 1791 
Q 353 2603 747 3093 
Q 1141 3584 1784 3584 
Q 2172 3584 2450 3431 
Q 2728 3278 2906 2969 
L 2906 3500 
L 3481 3500 
L 3481 434 
z
" transform="scale(0.015625)"/>
       </defs>
       <use xlink:href="#DejaVuSans-73"/>
       <use xlink:href="#DejaVuSans-70" x="52.099609"/>
       <use xlink:href="#DejaVuSans-72" x="115.576172"/>
       <use xlink:href="#DejaVuSans-69" x="156.689453"/>
       <use xlink:href="#DejaVuSans-6e" x="184.472656"/>
       <use xlink:href="#DejaVuSans-67" x="247.851562"/>
      </g>
     </g>
    </g>
   </g>
   <g id="matplotlib.axis_2">
    <g id="ytick_1">
     <g id="line2d_5">
      <path d="M 35.484375 207.1982 
L 256.544375 207.1982 
" clip-path="url(#pa453a9a7eb)" style="fill: none; stroke: #cccccc; stroke-width: 0.4; stroke-linecap: square"/>
     </g>
     <g id="line2d_6">
      <defs>
       <path id="m3d1a977127" d="M 0 0 
L -3.5 0 
" style="stroke: #b0b0b0; stroke-width: 0.4"/>
      </defs>
      <g>
       <use xlink:href="#m3d1a977127" x="35.484375" y="207.1982" style="fill: #b0b0b0; stroke: #b0b0b0; stroke-width: 0.4"/>
      </g>
     </g>
     <g id="text_5">
      <!-- 0.0 -->
      <g transform="translate(18.9425 209.477731) scale(0.06 -0.06)">
       <defs>
        <path id="DejaVuSans-30" d="M 2034 4250 
Q 1547 4250 1301 3770 
Q 1056 3291 1056 2328 
Q 1056 1369 1301 889 
Q 1547 409 2034 409 
Q 2525 409 2770 889 
Q 3016 1369 3016 2328 
Q 3016 3291 2770 3770 
Q 2525 4250 2034 4250 
z
M 2034 4750 
Q 2819 4750 3233 4129 
Q 3647 3509 3647 2328 
Q 3647 1150 3233 529 
Q 2819 -91 2034 -91 
Q 1250 -91 836 529 
Q 422 1150 422 2328 
Q 422 3509 836 4129 
Q 1250 4750 2034 4750 
z
" transform="scale(0.015625)"/>
        <path id="DejaVuSans-2e" d="M 684 794 
L 1344 794 
L 1344 0 
L 684 0 
L 684 794 
z
" transform="scale(0.015625)"/>
       </defs>
       <use xlink:href="#DejaVuSans-30"/>
       <use xlink:href="#DejaVuSans-2e" x="63.623047"/>
       <use xlink:href="#DejaVuSans-30" x="95.410156"/>
      </g>
     </g>
    </g>
    <g id="ytick_2">
     <g id="line2d_7">
      <path d="M 35.484375 171.494238 
L 256.544375 171.494238 
" clip-path="url(#pa453a9a7eb)" style="fill: none; stroke: #cccccc; stroke-width: 0.4; stroke-linecap: square"/>
     </g>
     <g id="line2d_8">
      <g>
       <use xlink:href="#m3d1a977127" x="35.484375" y="171.494238" style="fill: #b0b0b0; stroke: #b0b0b0; stroke-width: 0.4"/>
      </g>
     </g>
     <g id="text_6">
      <!-- 0.2 -->
      <g transform="translate(18.9425 173.773769) scale(0.06 -0.06)">
       <defs>
        <path id="DejaVuSans-32" d="M 1228 531 
L 3431 531 
L 3431 0 
L 469 0 
L 469 531 
Q 828 903 1448 1529 
Q 2069 2156 2228 2338 
Q 2531 2678 2651 2914 
Q 2772 3150 2772 3378 
Q 2772 3750 2511 3984 
Q 2250 4219 1831 4219 
Q 1534 4219 1204 4116 
Q 875 4013 500 3803 
L 500 4441 
Q 881 4594 1212 4672 
Q 1544 4750 1819 4750 
Q 2544 4750 2975 4387 
Q 3406 4025 3406 3419 
Q 3406 3131 3298 2873 
Q 3191 2616 2906 2266 
Q 2828 2175 2409 1742 
Q 1991 1309 1228 531 
z
" transform="scale(0.015625)"/>
       </defs>
       <use xlink:href="#DejaVuSans-30"/>
       <use xlink:href="#DejaVuSans-2e" x="63.623047"/>
       <use xlink:href="#DejaVuSans-32" x="95.410156"/>
      </g>
     </g>
    </g>
    <g id="ytick_3">
     <g id="line2d_9">
      <path d="M 35.484375 135.790275 
L 256.544375 135.790275 
" clip-path="url(#pa453a9a7eb)" style="fill: none; stroke: #cccccc; stroke-width: 0.4; stroke-linecap: square"/>
     </g>
     <g id="line2d_10">
      <g>
       <use xlink:href="#m3d1a977127" x="35.484375" y="135.790275" style="fill: #b0b0b0; stroke: #b0b0b0; stroke-width: 0.4"/>
      </g>
     </g>
     <g id="text_7">
      <!-- 0.4 -->
      <g transform="translate(18.9425 138.069806) scale(0.06 -0.06)">
       <defs>
        <path id="DejaVuSans-34" d="M 2419 4116 
L 825 1625 
L 2419 1625 
L 2419 4116 
z
M 2253 4666 
L 3047 4666 
L 3047 1625 
L 3713 1625 
L 3713 1100 
L 3047 1100 
L 3047 0 
L 2419 0 
L 2419 1100 
L 313 1100 
L 313 1709 
L 2253 4666 
z
" transform="scale(0.015625)"/>
       </defs>
       <use xlink:href="#DejaVuSans-30"/>
       <use xlink:href="#DejaVuSans-2e" x="63.623047"/>
       <use xlink:href="#DejaVuSans-34" x="95.410156"/>
      </g>
     </g>
    </g>
    <g id="ytick_4">
     <g id="line2d_11">
      <path d="M 35.484375 100.086313 
L 256.544375 100.086313 
" clip-path="url(#pa453a9a7eb)" style="fill: none; stroke: #cccccc; stroke-width: 0.4; stroke-linecap: square"/>
     </g>
     <g id="line2d_12">
      <g>
       <use xlink:href="#m3d1a977127" x="35.484375" y="100.086313" style="fill: #b0b0b0; stroke: #b0b0b0; stroke-width: 0.4"/>
      </g>
     </g>
     <g id="text_8">
      <!-- 0.6 -->
      <g transform="translate(18.9425 102.365844) scale(0.06 -0.06)">
       <defs>
        <path id="DejaVuSans-36" d="M 2113 2584 
Q 1688 2584 1439 2293 
Q 1191 2003 1191 1497 
Q 1191 994 1439 701 
Q 1688 409 2113 409 
Q 2538 409 2786 701 
Q 3034 994 3034 1497 
Q 3034 2003 2786 2293 
Q 2538 2584 2113 2584 
z
M 3366 4563 
L 3366 3988 
Q 3128 4100 2886 4159 
Q 2644 4219 2406 4219 
Q 1781 4219 1451 3797 
Q 1122 3375 1075 2522 
Q 1259 2794 1537 2939 
Q 1816 3084 2150 3084 
Q 2853 3084 3261 2657 
Q 3669 2231 3669 1497 
Q 3669 778 3244 343 
Q 2819 -91 2113 -91 
Q 1303 -91 875 529 
Q 447 1150 447 2328 
Q 447 3434 972 4092 
Q 1497 4750 2381 4750 
Q 2619 4750 2861 4703 
Q 3103 4656 3366 4563 
z
" transform="scale(0.015625)"/>
       </defs>
       <use xlink:href="#DejaVuSans-30"/>
       <use xlink:href="#DejaVuSans-2e" x="63.623047"/>
       <use xlink:href="#DejaVuSans-36" x="95.410156"/>
      </g>
     </g>
    </g>
    <g id="ytick_5">
     <g id="line2d_13">
      <path d="M 35.484375 64.38235 
L 256.544375 64.38235 
" clip-path="url(#pa453a9a7eb)" style="fill: none; stroke: #cccccc; stroke-width: 0.4; stroke-linecap: square"/>
     </g>
     <g id="line2d_14">
      <g>
       <use xlink:href="#m3d1a977127" x="35.484375" y="64.38235" style="fill: #b0b0b0; stroke: #b0b0b0; stroke-width: 0.4"/>
      </g>
     </g>
     <g id="text_9">
      <!-- 0.8 -->
      <g transform="translate(18.9425 66.661881) scale(0.06 -0.06)">
       <defs>
        <path id="DejaVuSans-38" d="M 2034 2216 
Q 1584 2216 1326 1975 
Q 1069 1734 1069 1313 
Q 1069 891 1326 650 
Q 1584 409 2034 409 
Q 2484 409 2743 651 
Q 3003 894 3003 1313 
Q 3003 1734 2745 1975 
Q 2488 2216 2034 2216 
z
M 1403 2484 
Q 997 2584 770 2862 
Q 544 3141 544 3541 
Q 544 4100 942 4425 
Q 1341 4750 2034 4750 
Q 2731 4750 3128 4425 
Q 3525 4100 3525 3541 
Q 3525 3141 3298 2862 
Q 3072 2584 2669 2484 
Q 3125 2378 3379 2068 
Q 3634 1759 3634 1313 
Q 3634 634 3220 271 
Q 2806 -91 2034 -91 
Q 1263 -91 848 271 
Q 434 634 434 1313 
Q 434 1759 690 2068 
Q 947 2378 1403 2484 
z
M 1172 3481 
Q 1172 3119 1398 2916 
Q 1625 2713 2034 2713 
Q 2441 2713 2670 2916 
Q 2900 3119 2900 3481 
Q 2900 3844 2670 4047 
Q 2441 4250 2034 4250 
Q 1625 4250 1398 4047 
Q 1172 3844 1172 3481 
z
" transform="scale(0.015625)"/>
       </defs>
       <use xlink:href="#DejaVuSans-30"/>
       <use xlink:href="#DejaVuSans-2e" x="63.623047"/>
       <use xlink:href="#DejaVuSans-38" x="95.410156"/>
      </g>
     </g>
    </g>
    <g id="ytick_6">
     <g id="line2d_15">
      <path d="M 35.484375 28.678388 
L 256.544375 28.678388 
" clip-path="url(#pa453a9a7eb)" style="fill: none; stroke: #cccccc; stroke-width: 0.4; stroke-linecap: square"/>
     </g>
     <g id="line2d_16">
      <g>
       <use xlink:href="#m3d1a977127" x="35.484375" y="28.678388" style="fill: #b0b0b0; stroke: #b0b0b0; stroke-width: 0.4"/>
      </g>
     </g>
     <g id="text_10">
      <!-- 1.0 -->
      <g transform="translate(18.9425 30.957919) scale(0.06 -0.06)">
       <defs>
        <path id="DejaVuSans-31" d="M 794 531 
L 1825 531 
L 1825 4091 
L 703 3866 
L 703 4441 
L 1819 4666 
L 2450 4666 
L 2450 531 
L 3481 531 
L 3481 0 
L 794 0 
L 794 531 
z
" transform="scale(0.015625)"/>
       </defs>
       <use xlink:href="#DejaVuSans-31"/>
       <use xlink:href="#DejaVuSans-2e" x="63.623047"/>
       <use xlink:href="#DejaVuSans-30" x="95.410156"/>
      </g>
     </g>
    </g>
    <g id="text_11">
     <!-- Performance Ratio (lower is better) -->
     <g transform="translate(13.27875 180.2487) rotate(-90) scale(0.08 -0.08)">
      <defs>
       <path id="DejaVuSans-50" d="M 1259 4147 
L 1259 2394 
L 2053 2394 
Q 2494 2394 2734 2622 
Q 2975 2850 2975 3272 
Q 2975 3691 2734 3919 
Q 2494 4147 2053 4147 
L 1259 4147 
z
M 628 4666 
L 2053 4666 
Q 2838 4666 3239 4311 
Q 3641 3956 3641 3272 
Q 3641 2581 3239 2228 
Q 2838 1875 2053 1875 
L 1259 1875 
L 1259 0 
L 628 0 
L 628 4666 
z
" transform="scale(0.015625)"/>
       <path id="DejaVuSans-66" d="M 2375 4863 
L 2375 4384 
L 1825 4384 
Q 1516 4384 1395 4259 
Q 1275 4134 1275 3809 
L 1275 3500 
L 2222 3500 
L 2222 3053 
L 1275 3053 
L 1275 0 
L 697 0 
L 697 3053 
L 147 3053 
L 147 3500 
L 697 3500 
L 697 3744 
Q 697 4328 969 4595 
Q 1241 4863 1831 4863 
L 2375 4863 
z
" transform="scale(0.015625)"/>
       <path id="DejaVuSans-6d" d="M 3328 2828 
Q 3544 3216 3844 3400 
Q 4144 3584 4550 3584 
Q 5097 3584 5394 3201 
Q 5691 2819 5691 2113 
L 5691 0 
L 5113 0 
L 5113 2094 
Q 5113 2597 4934 2840 
Q 4756 3084 4391 3084 
Q 3944 3084 3684 2787 
Q 3425 2491 3425 1978 
L 3425 0 
L 2847 0 
L 2847 2094 
Q 2847 2600 2669 2842 
Q 2491 3084 2119 3084 
Q 1678 3084 1418 2786 
Q 1159 2488 1159 1978 
L 1159 0 
L 581 0 
L 581 3500 
L 1159 3500 
L 1159 2956 
Q 1356 3278 1631 3431 
Q 1906 3584 2284 3584 
Q 2666 3584 2933 3390 
Q 3200 3197 3328 2828 
z
" transform="scale(0.015625)"/>
       <path id="DejaVuSans-20" transform="scale(0.015625)"/>
       <path id="DejaVuSans-52" d="M 2841 2188 
Q 3044 2119 3236 1894 
Q 3428 1669 3622 1275 
L 4263 0 
L 3584 0 
L 2988 1197 
Q 2756 1666 2539 1819 
Q 2322 1972 1947 1972 
L 1259 1972 
L 1259 0 
L 628 0 
L 628 4666 
L 2053 4666 
Q 2853 4666 3247 4331 
Q 3641 3997 3641 3322 
Q 3641 2881 3436 2590 
Q 3231 2300 2841 2188 
z
M 1259 4147 
L 1259 2491 
L 2053 2491 
Q 2509 2491 2742 2702 
Q 2975 2913 2975 3322 
Q 2975 3731 2742 3939 
Q 2509 4147 2053 4147 
L 1259 4147 
z
" transform="scale(0.015625)"/>
       <path id="DejaVuSans-74" d="M 1172 4494 
L 1172 3500 
L 2356 3500 
L 2356 3053 
L 1172 3053 
L 1172 1153 
Q 1172 725 1289 603 
Q 1406 481 1766 481 
L 2356 481 
L 2356 0 
L 1766 0 
Q 1100 0 847 248 
Q 594 497 594 1153 
L 594 3053 
L 172 3053 
L 172 3500 
L 594 3500 
L 594 4494 
L 1172 4494 
z
" transform="scale(0.015625)"/>
       <path id="DejaVuSans-28" d="M 1984 4856 
Q 1566 4138 1362 3434 
Q 1159 2731 1159 2009 
Q 1159 1288 1364 580 
Q 1569 -128 1984 -844 
L 1484 -844 
Q 1016 -109 783 600 
Q 550 1309 550 2009 
Q 550 2706 781 3412 
Q 1013 4119 1484 4856 
L 1984 4856 
z
" transform="scale(0.015625)"/>
       <path id="DejaVuSans-77" d="M 269 3500 
L 844 3500 
L 1563 769 
L 2278 3500 
L 2956 3500 
L 3675 769 
L 4391 3500 
L 4966 3500 
L 4050 0 
L 3372 0 
L 2619 2869 
L 1863 0 
L 1184 0 
L 269 3500 
z
" transform="scale(0.015625)"/>
       <path id="DejaVuSans-62" d="M 3116 1747 
Q 3116 2381 2855 2742 
Q 2594 3103 2138 3103 
Q 1681 3103 1420 2742 
Q 1159 2381 1159 1747 
Q 1159 1113 1420 752 
Q 1681 391 2138 391 
Q 2594 391 2855 752 
Q 3116 1113 3116 1747 
z
M 1159 2969 
Q 1341 3281 1617 3432 
Q 1894 3584 2278 3584 
Q 2916 3584 3314 3078 
Q 3713 2572 3713 1747 
Q 3713 922 3314 415 
Q 2916 -91 2278 -91 
Q 1894 -91 1617 61 
Q 1341 213 1159 525 
L 1159 0 
L 581 0 
L 581 4863 
L 1159 4863 
L 1159 2969 
z
" transform="scale(0.015625)"/>
       <path id="DejaVuSans-29" d="M 513 4856 
L 1013 4856 
Q 1481 4119 1714 3412 
Q 1947 2706 1947 2009 
Q 1947 1309 1714 600 
Q 1481 -109 1013 -844 
L 513 -844 
Q 928 -128 1133 580 
Q 1338 1288 1338 2009 
Q 1338 2731 1133 3434 
Q 928 4138 513 4856 
z
" transform="scale(0.015625)"/>
      </defs>
      <use xlink:href="#DejaVuSans-50"/>
      <use xlink:href="#DejaVuSans-65" x="56.677734"/>
      <use xlink:href="#DejaVuSans-72" x="118.201172"/>
      <use xlink:href="#DejaVuSans-66" x="159.314453"/>
      <use xlink:href="#DejaVuSans-6f" x="194.519531"/>
      <use xlink:href="#DejaVuSans-72" x="255.701172"/>
      <use xlink:href="#DejaVuSans-6d" x="295.064453"/>
      <use xlink:href="#DejaVuSans-61" x="392.476562"/>
      <use xlink:href="#DejaVuSans-6e" x="453.755859"/>
      <use xlink:href="#DejaVuSans-63" x="517.134766"/>
      <use xlink:href="#DejaVuSans-65" x="572.115234"/>
      <use xlink:href="#DejaVuSans-20" x="633.638672"/>
      <use xlink:href="#DejaVuSans-52" x="665.425781"/>
      <use xlink:href="#DejaVuSans-61" x="732.658203"/>
      <use xlink:href="#DejaVuSans-74" x="793.9375"/>
      <use xlink:href="#DejaVuSans-69" x="833.146484"/>
      <use xlink:href="#DejaVuSans-6f" x="860.929688"/>
      <use xlink:href="#DejaVuSans-20" x="922.111328"/>
      <use xlink:href="#DejaVuSans-28" x="953.898438"/>
      <use xlink:href="#DejaVuSans-6c" x="992.912109"/>
      <use xlink:href="#DejaVuSans-6f" x="1020.695312"/>
      <use xlink:href="#DejaVuSans-77" x="1081.876953"/>
      <use xlink:href="#DejaVuSans-65" x="1163.664062"/>
      <use xlink:href="#DejaVuSans-72" x="1225.1875"/>
      <use xlink:href="#DejaVuSans-20" x="1266.300781"/>
      <use xlink:href="#DejaVuSans-69" x="1298.087891"/>
      <use xlink:href="#DejaVuSans-73" x="1325.871094"/>
      <use xlink:href="#DejaVuSans-20" x="1377.970703"/>
      <use xlink:href="#DejaVuSans-62" x="1409.757812"/>
      <use xlink:href="#DejaVuSans-65" x="1473.234375"/>
      <use xlink:href="#DejaVuSans-74" x="1534.757812"/>
      <use xlink:href="#DejaVuSans-74" x="1573.966797"/>
      <use xlink:href="#DejaVuSans-65" x="1613.175781"/>
      <use xlink:href="#DejaVuSans-72" x="1674.699219"/>
      <use xlink:href="#DejaVuSans-29" x="1715.8125"/>
     </g>
    </g>
   </g>
   <g id="patch_3">
    <path d="M 35.484375 34.961734 
L 256.544375 34.961734 
L 256.544375 22.165819 
L 35.484375 22.165819 
z
" clip-path="url(#pa453a9a7eb)" style="fill: #114c2a; opacity: 0.08; stroke: #114c2a; stroke-linejoin: miter"/>
   </g>
   <g id="patch_4">
    <path d="M 35.484375 92.248717 
L 256.544375 92.248717 
L 256.544375 82.60276 
L 35.484375 82.60276 
z
" clip-path="url(#pa453a9a7eb)" style="fill: #114c2a; opacity: 0.13; stroke: #114c2a; stroke-linejoin: miter"/>
   </g>
   <g id="patch_5">
    <path d="M 45.532557 207.1982 
L 60.095139 207.1982 
L 60.095139 82.368375 
L 45.532557 82.368375 
z
" clip-path="url(#pa453a9a7eb)" style="fill: #27ae60; opacity: 0.8; stroke: #186d3c; stroke-linejoin: miter"/>
   </g>
   <g id="patch_6">
    <path d="M 101.355789 207.1982 
L 115.918371 207.1982 
L 115.918371 88.225703 
L 101.355789 88.225703 
z
" clip-path="url(#pa453a9a7eb)" style="fill: #27ae60; opacity: 0.8; stroke: #186d3c; stroke-linejoin: miter"/>
   </g>
   <g id="patch_7">
    <path d="M 157.179021 207.1982 
L 171.741604 207.1982 
L 171.741604 86.890201 
L 157.179021 86.890201 
z
" clip-path="url(#pa453a9a7eb)" style="fill: #27ae60; opacity: 0.8; stroke: #186d3c; stroke-linejoin: miter"/>
   </g>
   <g id="patch_8">
    <path d="M 213.002254 207.1982 
L 227.564836 207.1982 
L 227.564836 94.30254 
L 213.002254 94.30254 
z
" clip-path="url(#pa453a9a7eb)" style="fill: #27ae60; opacity: 0.8; stroke: #186d3c; stroke-linejoin: miter"/>
   </g>
   <g id="patch_9">
    <path d="M 35.484375 33.574865 
L 256.544375 33.574865 
L 256.544375 23.643821 
L 35.484375 23.643821 
z
" clip-path="url(#pa453a9a7eb)" style="fill: #186a3b; opacity: 0.16; stroke: #186a3b; stroke-linejoin: miter"/>
   </g>
   <g id="patch_10">
    <path d="M 35.484375 114.949022 
L 256.544375 114.949022 
L 256.544375 107.419076 
L 35.484375 107.419076 
z
" clip-path="url(#pa453a9a7eb)" style="fill: #186a3b; opacity: 0.13; stroke: #186a3b; stroke-linejoin: miter"/>
   </g>
   <g id="patch_11">
    <path d="M 64.463914 207.1982 
L 79.026496 207.1982 
L 79.026496 103.539827 
L 64.463914 103.539827 
z
" clip-path="url(#pa453a9a7eb)" style="fill: #36d278; opacity: 0.8; stroke: #229854; stroke-linejoin: miter"/>
   </g>
   <g id="patch_12">
    <path d="M 120.287146 207.1982 
L 134.849729 207.1982 
L 134.849729 109.575977 
L 120.287146 109.575977 
z
" clip-path="url(#pa453a9a7eb)" style="fill: #36d278; opacity: 0.8; stroke: #229854; stroke-linejoin: miter"/>
   </g>
   <g id="patch_13">
    <path d="M 176.110379 207.1982 
L 190.672961 207.1982 
L 190.672961 111.047286 
L 176.110379 111.047286 
z
" clip-path="url(#pa453a9a7eb)" style="fill: #36d278; opacity: 0.8; stroke: #229854; stroke-linejoin: miter"/>
   </g>
   <g id="patch_14">
    <path d="M 231.933611 207.1982 
L 246.496193 207.1982 
L 246.496193 117.546011 
L 231.933611 117.546011 
z
" clip-path="url(#pa453a9a7eb)" style="fill: #36d278; opacity: 0.8; stroke: #229854; stroke-linejoin: miter"/>
   </g>
   <g id="line2d_17">
    <path d="M 35.484375 28.678388 
L 256.544375 28.678388 
" clip-path="url(#pa453a9a7eb)" style="fill: none; stroke: #000000; stroke-width: 0.5; stroke-linecap: square"/>
   </g>
   <g id="line2d_18">
    <path d="M 35.484375 88.023505 
L 256.544375 88.023505 
" clip-path="url(#pa453a9a7eb)" style="fill: none; stroke-dasharray: 1.85,0.8; stroke-dashoffset: 0; stroke: #114c2a; stroke-width: 0.5"/>
   </g>
   <g id="LineCollection_1">
    <path d="M 52.813848 84.614993 
L 52.813848 80.094931 
" clip-path="url(#pa453a9a7eb)" style="fill: none; stroke: #000000; stroke-width: 0.5"/>
   </g>
   <g id="line2d_19">
    <defs>
     <path id="m587058bb3a" d="M 1 0 
L -1 -0 
" style="stroke: #000000"/>
    </defs>
    <g clip-path="url(#pa453a9a7eb)">
     <use xlink:href="#m587058bb3a" x="52.813848" y="84.614993" style="stroke: #000000"/>
    </g>
   </g>
   <g id="line2d_20">
    <g clip-path="url(#pa453a9a7eb)">
     <use xlink:href="#m587058bb3a" x="52.813848" y="80.094931" style="stroke: #000000"/>
    </g>
   </g>
   <g id="LineCollection_2">
    <path d="M 108.63708 90.592174 
L 108.63708 85.799541 
" clip-path="url(#pa453a9a7eb)" style="fill: none; stroke: #000000; stroke-width: 0.5"/>
   </g>
   <g id="line2d_21">
    <g clip-path="url(#pa453a9a7eb)">
     <use xlink:href="#m587058bb3a" x="108.63708" y="90.592174" style="stroke: #000000"/>
    </g>
   </g>
   <g id="line2d_22">
    <g clip-path="url(#pa453a9a7eb)">
     <use xlink:href="#m587058bb3a" x="108.63708" y="85.799541" style="stroke: #000000"/>
    </g>
   </g>
   <g id="LineCollection_3">
    <path d="M 164.460313 90.595643 
L 164.460313 83.067234 
" clip-path="url(#pa453a9a7eb)" style="fill: none; stroke: #000000; stroke-width: 0.5"/>
   </g>
   <g id="line2d_23">
    <g clip-path="url(#pa453a9a7eb)">
     <use xlink:href="#m587058bb3a" x="164.460313" y="90.595643" style="stroke: #000000"/>
    </g>
   </g>
   <g id="line2d_24">
    <g clip-path="url(#pa453a9a7eb)">
     <use xlink:href="#m587058bb3a" x="164.460313" y="83.067234" style="stroke: #000000"/>
    </g>
   </g>
   <g id="LineCollection_4">
    <path d="M 220.283545 95.347946 
L 220.283545 93.244468 
" clip-path="url(#pa453a9a7eb)" style="fill: none; stroke: #000000; stroke-width: 0.5"/>
   </g>
   <g id="line2d_25">
    <g clip-path="url(#pa453a9a7eb)">
     <use xlink:href="#m587058bb3a" x="220.283545" y="95.347946" style="stroke: #000000"/>
    </g>
   </g>
   <g id="line2d_26">
    <g clip-path="url(#pa453a9a7eb)">
     <use xlink:href="#m587058bb3a" x="220.283545" y="93.244468" style="stroke: #000000"/>
    </g>
   </g>
   <g id="line2d_27">
    <path d="M 35.484375 110.552569 
L 256.544375 110.552569 
" clip-path="url(#pa453a9a7eb)" style="fill: none; stroke-dasharray: 1.85,0.8; stroke-dashoffset: 0; stroke: #186a3b; stroke-width: 0.5"/>
   </g>
   <g id="LineCollection_5">
    <path d="M 71.745205 105.591576 
L 71.745205 101.457417 
" clip-path="url(#pa453a9a7eb)" style="fill: none; stroke: #000000; stroke-width: 0.5"/>
   </g>
   <g id="line2d_28">
    <g clip-path="url(#pa453a9a7eb)">
     <use xlink:href="#m587058bb3a" x="71.745205" y="105.591576" style="stroke: #000000"/>
    </g>
   </g>
   <g id="line2d_29">
    <g clip-path="url(#pa453a9a7eb)">
     <use xlink:href="#m587058bb3a" x="71.745205" y="101.457417" style="stroke: #000000"/>
    </g>
   </g>
   <g id="LineCollection_6">
    <path d="M 127.568437 111.225738 
L 127.568437 107.885559 
" clip-path="url(#pa453a9a7eb)" style="fill: none; stroke: #000000; stroke-width: 0.5"/>
   </g>
   <g id="line2d_30">
    <g clip-path="url(#pa453a9a7eb)">
     <use xlink:href="#m587058bb3a" x="127.568437" y="111.225738" style="stroke: #000000"/>
    </g>
   </g>
   <g id="line2d_31">
    <g clip-path="url(#pa453a9a7eb)">
     <use xlink:href="#m587058bb3a" x="127.568437" y="107.885559" style="stroke: #000000"/>
    </g>
   </g>
   <g id="LineCollection_7">
    <path d="M 183.39167 113.693797 
L 183.39167 108.325082 
" clip-path="url(#pa453a9a7eb)" style="fill: none; stroke: #000000; stroke-width: 0.5"/>
   </g>
   <g id="line2d_32">
    <g clip-path="url(#pa453a9a7eb)">
     <use xlink:href="#m587058bb3a" x="183.39167" y="113.693797" style="stroke: #000000"/>
    </g>
   </g>
   <g id="line2d_33">
    <g clip-path="url(#pa453a9a7eb)">
     <use xlink:href="#m587058bb3a" x="183.39167" y="108.325082" style="stroke: #000000"/>
    </g>
   </g>
   <g id="LineCollection_8">
    <path d="M 239.214902 118.626796 
L 239.214902 116.447601 
" clip-path="url(#pa453a9a7eb)" style="fill: none; stroke: #000000; stroke-width: 0.5"/>
   </g>
   <g id="line2d_34">
    <g clip-path="url(#pa453a9a7eb)">
     <use xlink:href="#m587058bb3a" x="239.214902" y="118.626796" style="stroke: #000000"/>
    </g>
   </g>
   <g id="line2d_35">
    <g clip-path="url(#pa453a9a7eb)">
     <use xlink:href="#m587058bb3a" x="239.214902" y="116.447601" style="stroke: #000000"/>
    </g>
   </g>
   <g id="patch_15">
    <path d="M 35.484375 207.1982 
L 35.484375 12.9142 
" style="fill: none; stroke: #b0b0b0; stroke-width: 0.4; stroke-linejoin: miter; stroke-linecap: square"/>
   </g>
   <g id="patch_16">
    <path d="M 35.484375 207.1982 
L 256.544375 207.1982 
" style="fill: none; stroke: #b0b0b0; stroke-width: 0.4; stroke-linejoin: miter; stroke-linecap: square"/>
   </g>
   <g id="legend_1">
    <g id="patch_17">
     <path d="M 69.790625 16.47875 
L 85.790625 16.47875 
L 85.790625 10.87875 
L 69.790625 10.87875 
z
" style="fill: #27ae60; opacity: 0.8; stroke: #186d3c; stroke-linejoin: miter"/>
    </g>
    <g id="text_12">
     <!-- Wall-clock time -->
     <g transform="translate(92.190625 16.47875) scale(0.08 -0.08)">
      <defs>
       <path id="DejaVuSans-57" d="M 213 4666 
L 850 4666 
L 1831 722 
L 2809 4666 
L 3519 4666 
L 4500 722 
L 5478 4666 
L 6119 4666 
L 4947 0 
L 4153 0 
L 3169 4050 
L 2175 0 
L 1381 0 
L 213 4666 
z
" transform="scale(0.015625)"/>
       <path id="DejaVuSans-2d" d="M 313 2009 
L 1997 2009 
L 1997 1497 
L 313 1497 
L 313 2009 
z
" transform="scale(0.015625)"/>
      </defs>
      <use xlink:href="#DejaVuSans-57"/>
      <use xlink:href="#DejaVuSans-61" x="92.501953"/>
      <use xlink:href="#DejaVuSans-6c" x="153.78125"/>
      <use xlink:href="#DejaVuSans-6c" x="181.564453"/>
      <use xlink:href="#DejaVuSans-2d" x="209.347656"/>
      <use xlink:href="#DejaVuSans-63" x="245.431641"/>
      <use xlink:href="#DejaVuSans-6c" x="300.412109"/>
      <use xlink:href="#DejaVuSans-6f" x="328.195312"/>
      <use xlink:href="#DejaVuSans-63" x="389.376953"/>
      <use xlink:href="#DejaVuSans-6b" x="444.357422"/>
      <use xlink:href="#DejaVuSans-20" x="502.267578"/>
      <use xlink:href="#DejaVuSans-74" x="534.054688"/>
      <use xlink:href="#DejaVuSans-69" x="573.263672"/>
      <use xlink:href="#DejaVuSans-6d" x="601.046875"/>
      <use xlink:href="#DejaVuSans-65" x="698.458984"/>
     </g>
    </g>
    <g id="patch_18">
     <path d="M 160.988125 16.47875 
L 176.988125 16.47875 
L 176.988125 10.87875 
L 160.988125 10.87875 
z
" style="fill: #36d278; opacity: 0.8; stroke: #229854; stroke-linejoin: miter"/>
    </g>
    <g id="text_13">
     <!-- User time -->
     <g transform="translate(183.388125 16.47875) scale(0.08 -0.08)">
      <defs>
       <path id="DejaVuSans-55" d="M 556 4666 
L 1191 4666 
L 1191 1831 
Q 1191 1081 1462 751 
Q 1734 422 2344 422 
Q 2950 422 3222 751 
Q 3494 1081 3494 1831 
L 3494 4666 
L 4128 4666 
L 4128 1753 
Q 4128 841 3676 375 
Q 3225 -91 2344 -91 
Q 1459 -91 1007 375 
Q 556 841 556 1753 
L 556 4666 
z
" transform="scale(0.015625)"/>
      </defs>
      <use xlink:href="#DejaVuSans-55"/>
      <use xlink:href="#DejaVuSans-73" x="73.193359"/>
      <use xlink:href="#DejaVuSans-65" x="125.292969"/>
      <use xlink:href="#DejaVuSans-72" x="186.816406"/>
      <use xlink:href="#DejaVuSans-20" x="227.929688"/>
      <use xlink:href="#DejaVuSans-74" x="259.716797"/>
      <use xlink:href="#DejaVuSans-69" x="298.925781"/>
      <use xlink:href="#DejaVuSans-6d" x="326.708984"/>
      <use xlink:href="#DejaVuSans-65" x="424.121094"/>
     </g>
    </g>
   </g>
  </g>
 </g>
 <defs>
  <clipPath id="pa453a9a7eb">
   <rect x="35.484375" y="12.9142" width="221.06" height="194.284"/>
  </clipPath>
 </defs>
</svg>
