<?xml version="1.0" encoding="utf-8" standalone="no"?>
<!DOCTYPE svg PUBLIC "-//W3C//DTD SVG 1.1//EN"
  "http://www.w3.org/Graphics/SVG/1.1/DTD/svg11.dtd">
<svg xmlns:xlink="http://www.w3.org/1999/xlink" width="348.48pt" height="204.48pt" viewBox="0 0 348.48 204.48" xmlns="http://www.w3.org/2000/svg" version="1.1">
 <metadata>
  <rdf:RDF xmlns:dc="http://purl.org/dc/elements/1.1/" xmlns:cc="http://creativecommons.org/ns#" xmlns:rdf="http://www.w3.org/1999/02/22-rdf-syntax-ns#">
   <cc:Work>
    <dc:type rdf:resource="http://purl.org/dc/dcmitype/StillImage"/>
    <dc:date>2024-10-14T21:58:54.772535</dc:date>
    <dc:format>image/svg+xml</dc:format>
    <dc:creator>
     <cc:Agent>
      <dc:title>Matplotlib v3.9.2, https://matplotlib.org/</dc:title>
     </cc:Agent>
    </dc:creator>
   </cc:Work>
  </rdf:RDF>
 </metadata>
 <defs>
  <style type="text/css">*{stroke-linejoin: round; stroke-linecap: butt}</style>
 </defs>
 <g id="figure_1">
  <g id="patch_1">
   <path d="M 0 204.48 
L 348.48 204.48 
L 348.48 0 
L 0 0 
z
" style="fill: #ffffff"/>
  </g>
  <g id="axes_1">
   <g id="patch_2">
    <path d="M 50.216069 146.083591 
L 341.28 146.083591 
L 341.28 7.2 
L 50.216069 7.2 
z
" style="fill: #ffffff"/>
   </g>
   <g id="matplotlib.axis_1">
    <g id="xtick_1">
     <g id="line2d_1">
      <path d="M 50.216069 146.083591 
L 50.216069 7.2 
" clip-path="url(#p025e9293d2)" style="fill: none; stroke: #cccccc; stroke-width: 0.25; stroke-linecap: round"/>
     </g>
     <g id="line2d_2">
      <defs>
       <path id="m3d12f7ed29" d="M 0 0 
L 0 6 
" style="stroke: #262626; stroke-width: 1.25"/>
      </defs>
      <g>
       <use xlink:href="#m3d12f7ed29" x="50.216069" y="146.083591" style="fill: #262626; stroke: #262626; stroke-width: 1.25"/>
      </g>
     </g>
     <g id="text_1">
      <!-- $\mathdefault{0}$ -->
      <g style="fill: #262626" transform="translate(47.476335 163.193937) scale(0.11 -0.11)">
       <defs>
        <path id="CMR17-30" d="M 2688 2025 
C 2688 2416 2682 3080 2413 3591 
C 2176 4039 1798 4198 1466 4198 
C 1158 4198 768 4058 525 3597 
C 269 3118 243 2524 243 2025 
C 243 1661 250 1106 448 619 
C 723 -39 1216 -128 1466 -128 
C 1760 -128 2208 -7 2470 600 
C 2662 1042 2688 1559 2688 2025 
z
M 1466 -26 
C 1056 -26 813 325 723 812 
C 653 1188 653 1738 653 2096 
C 653 2588 653 2997 736 3387 
C 858 3929 1216 4096 1466 4096 
C 1728 4096 2067 3923 2189 3400 
C 2272 3036 2278 2607 2278 2096 
C 2278 1680 2278 1169 2202 792 
C 2067 95 1690 -26 1466 -26 
z
" transform="scale(0.015625)"/>
       </defs>
       <use xlink:href="#CMR17-30" transform="scale(0.996264)"/>
      </g>
     </g>
    </g>
    <g id="xtick_2">
     <g id="line2d_3">
      <path d="M 101.75361 146.083591 
L 101.75361 7.2 
" clip-path="url(#p025e9293d2)" style="fill: none; stroke: #cccccc; stroke-width: 0.25; stroke-linecap: round"/>
     </g>
     <g id="line2d_4">
      <g>
       <use xlink:href="#m3d12f7ed29" x="101.75361" y="146.083591" style="fill: #262626; stroke: #262626; stroke-width: 1.25"/>
      </g>
     </g>
     <g id="text_2">
      <!-- $\mathdefault{10000}$ -->
      <g style="fill: #262626" transform="translate(88.054942 163.193937) scale(0.11 -0.11)">
       <defs>
        <path id="CMR17-31" d="M 1702 4058 
C 1702 4192 1696 4192 1606 4192 
C 1357 3916 979 3827 621 3827 
C 602 3827 570 3827 563 3808 
C 557 3795 557 3782 557 3648 
C 755 3648 1088 3686 1344 3839 
L 1344 461 
C 1344 236 1331 160 781 160 
L 589 160 
L 589 0 
C 896 0 1216 0 1523 0 
C 1830 0 2150 0 2458 0 
L 2458 160 
L 2266 160 
C 1715 160 1702 230 1702 458 
L 1702 4058 
z
" transform="scale(0.015625)"/>
       </defs>
       <use xlink:href="#CMR17-31" transform="scale(0.996264)"/>
       <use xlink:href="#CMR17-30" transform="translate(45.690477 0) scale(0.996264)"/>
       <use xlink:href="#CMR17-30" transform="translate(91.380954 0) scale(0.996264)"/>
       <use xlink:href="#CMR17-30" transform="translate(137.071431 0) scale(0.996264)"/>
       <use xlink:href="#CMR17-30" transform="translate(182.761908 0) scale(0.996264)"/>
      </g>
     </g>
    </g>
    <g id="xtick_3">
     <g id="line2d_5">
      <path d="M 153.291151 146.083591 
L 153.291151 7.2 
" clip-path="url(#p025e9293d2)" style="fill: none; stroke: #cccccc; stroke-width: 0.25; stroke-linecap: round"/>
     </g>
     <g id="line2d_6">
      <g>
       <use xlink:href="#m3d12f7ed29" x="153.291151" y="146.083591" style="fill: #262626; stroke: #262626; stroke-width: 1.25"/>
      </g>
     </g>
     <g id="text_3">
      <!-- $\mathdefault{20000}$ -->
      <g style="fill: #262626" transform="translate(139.592483 163.193937) scale(0.11 -0.11)">
       <defs>
        <path id="CMR17-32" d="M 2669 989 
L 2554 989 
C 2490 536 2438 459 2413 420 
C 2381 369 1920 369 1830 369 
L 602 369 
C 832 619 1280 1072 1824 1597 
C 2214 1967 2669 2402 2669 3035 
C 2669 3790 2067 4224 1395 4224 
C 691 4224 262 3604 262 3030 
C 262 2780 448 2748 525 2748 
C 589 2748 781 2787 781 3010 
C 781 3207 614 3264 525 3264 
C 486 3264 448 3258 422 3245 
C 544 3790 915 4058 1306 4058 
C 1862 4058 2227 3617 2227 3035 
C 2227 2479 1901 2000 1536 1584 
L 262 146 
L 262 0 
L 2515 0 
L 2669 989 
z
" transform="scale(0.015625)"/>
       </defs>
       <use xlink:href="#CMR17-32" transform="scale(0.996264)"/>
       <use xlink:href="#CMR17-30" transform="translate(45.690477 0) scale(0.996264)"/>
       <use xlink:href="#CMR17-30" transform="translate(91.380954 0) scale(0.996264)"/>
       <use xlink:href="#CMR17-30" transform="translate(137.071431 0) scale(0.996264)"/>
       <use xlink:href="#CMR17-30" transform="translate(182.761908 0) scale(0.996264)"/>
      </g>
     </g>
    </g>
    <g id="xtick_4">
     <g id="line2d_7">
      <path d="M 204.828692 146.083591 
L 204.828692 7.2 
" clip-path="url(#p025e9293d2)" style="fill: none; stroke: #cccccc; stroke-width: 0.25; stroke-linecap: round"/>
     </g>
     <g id="line2d_8">
      <g>
       <use xlink:href="#m3d12f7ed29" x="204.828692" y="146.083591" style="fill: #262626; stroke: #262626; stroke-width: 1.25"/>
      </g>
     </g>
     <g id="text_4">
      <!-- $\mathdefault{30000}$ -->
      <g style="fill: #262626" transform="translate(191.130024 163.193937) scale(0.11 -0.11)">
       <defs>
        <path id="CMR17-33" d="M 1414 2157 
C 1984 2157 2234 1662 2234 1090 
C 2234 320 1824 25 1453 25 
C 1114 25 563 194 390 693 
C 422 680 454 680 486 680 
C 640 680 755 782 755 948 
C 755 1133 614 1216 486 1216 
C 378 1216 211 1165 211 926 
C 211 335 787 -128 1466 -128 
C 2176 -128 2720 430 2720 1085 
C 2720 1707 2208 2157 1600 2227 
C 2086 2328 2554 2756 2554 3329 
C 2554 3820 2048 4179 1472 4179 
C 890 4179 378 3829 378 3329 
C 378 3110 544 3072 627 3072 
C 762 3072 877 3155 877 3321 
C 877 3486 762 3569 627 3569 
C 602 3569 570 3569 544 3557 
C 730 3959 1235 4032 1459 4032 
C 1683 4032 2106 3925 2106 3320 
C 2106 3143 2080 2828 1862 2550 
C 1670 2304 1453 2304 1242 2284 
C 1210 2284 1062 2269 1037 2269 
C 992 2263 966 2257 966 2208 
C 966 2163 973 2157 1101 2157 
L 1414 2157 
z
" transform="scale(0.015625)"/>
       </defs>
       <use xlink:href="#CMR17-33" transform="scale(0.996264)"/>
       <use xlink:href="#CMR17-30" transform="translate(45.690477 0) scale(0.996264)"/>
       <use xlink:href="#CMR17-30" transform="translate(91.380954 0) scale(0.996264)"/>
       <use xlink:href="#CMR17-30" transform="translate(137.071431 0) scale(0.996264)"/>
       <use xlink:href="#CMR17-30" transform="translate(182.761908 0) scale(0.996264)"/>
      </g>
     </g>
    </g>
    <g id="xtick_5">
     <g id="line2d_9">
      <path d="M 256.366233 146.083591 
L 256.366233 7.2 
" clip-path="url(#p025e9293d2)" style="fill: none; stroke: #cccccc; stroke-width: 0.25; stroke-linecap: round"/>
     </g>
     <g id="line2d_10">
      <g>
       <use xlink:href="#m3d12f7ed29" x="256.366233" y="146.083591" style="fill: #262626; stroke: #262626; stroke-width: 1.25"/>
      </g>
     </g>
     <g id="text_5">
      <!-- $\mathdefault{40000}$ -->
      <g style="fill: #262626" transform="translate(242.667565 163.193937) scale(0.11 -0.11)">
       <defs>
        <path id="CMR17-34" d="M 2150 4122 
C 2150 4256 2144 4256 2029 4256 
L 128 1254 
L 128 1088 
L 1779 1088 
L 1779 457 
C 1779 224 1766 160 1318 160 
L 1197 160 
L 1197 0 
C 1402 0 1747 0 1965 0 
C 2182 0 2528 0 2733 0 
L 2733 160 
L 2611 160 
C 2163 160 2150 224 2150 457 
L 2150 1088 
L 2803 1088 
L 2803 1254 
L 2150 1254 
L 2150 4122 
z
M 1798 3703 
L 1798 1254 
L 256 1254 
L 1798 3703 
z
" transform="scale(0.015625)"/>
       </defs>
       <use xlink:href="#CMR17-34" transform="scale(0.996264)"/>
       <use xlink:href="#CMR17-30" transform="translate(45.690477 0) scale(0.996264)"/>
       <use xlink:href="#CMR17-30" transform="translate(91.380954 0) scale(0.996264)"/>
       <use xlink:href="#CMR17-30" transform="translate(137.071431 0) scale(0.996264)"/>
       <use xlink:href="#CMR17-30" transform="translate(182.761908 0) scale(0.996264)"/>
      </g>
     </g>
    </g>
    <g id="xtick_6">
     <g id="line2d_11">
      <path d="M 307.903774 146.083591 
L 307.903774 7.2 
" clip-path="url(#p025e9293d2)" style="fill: none; stroke: #cccccc; stroke-width: 0.25; stroke-linecap: round"/>
     </g>
     <g id="line2d_12">
      <g>
       <use xlink:href="#m3d12f7ed29" x="307.903774" y="146.083591" style="fill: #262626; stroke: #262626; stroke-width: 1.25"/>
      </g>
     </g>
     <g id="text_6">
      <!-- $\mathdefault{50000}$ -->
      <g style="fill: #262626" transform="translate(294.205106 163.193937) scale(0.11 -0.11)">
       <defs>
        <path id="CMR17-35" d="M 730 3692 
C 794 3666 1056 3584 1325 3584 
C 1920 3584 2246 3911 2432 4100 
C 2432 4157 2432 4192 2394 4192 
C 2387 4192 2374 4192 2323 4163 
C 2099 4058 1837 3973 1517 3973 
C 1325 3973 1037 3999 723 4139 
C 653 4171 640 4171 634 4171 
C 602 4171 595 4164 595 4037 
L 595 2203 
C 595 2089 595 2057 659 2057 
C 691 2057 704 2070 736 2114 
C 941 2401 1222 2522 1542 2522 
C 1766 2522 2246 2382 2246 1289 
C 2246 1085 2246 715 2054 421 
C 1894 159 1645 25 1370 25 
C 947 25 518 320 403 814 
C 429 807 480 795 506 795 
C 589 795 749 840 749 1038 
C 749 1210 627 1280 506 1280 
C 358 1280 262 1190 262 1011 
C 262 454 704 -128 1382 -128 
C 2042 -128 2669 440 2669 1264 
C 2669 2030 2170 2624 1549 2624 
C 1222 2624 947 2503 730 2274 
L 730 3692 
z
" transform="scale(0.015625)"/>
       </defs>
       <use xlink:href="#CMR17-35" transform="scale(0.996264)"/>
       <use xlink:href="#CMR17-30" transform="translate(45.690477 0) scale(0.996264)"/>
       <use xlink:href="#CMR17-30" transform="translate(91.380954 0) scale(0.996264)"/>
       <use xlink:href="#CMR17-30" transform="translate(137.071431 0) scale(0.996264)"/>
       <use xlink:href="#CMR17-30" transform="translate(182.761908 0) scale(0.996264)"/>
      </g>
     </g>
    </g>
    <g id="text_7">
     <!-- Wall-clock time (ms) (lower is better) -->
     <g style="fill: #262626" transform="translate(103.199652 194.291208) scale(0.12 -0.12)">
      <defs>
       <path id="CMSS17-57" d="M 5581 4416 
L 5094 4416 
L 4557 2437 
C 4474 2118 4397 1801 4320 1482 
C 4205 1011 4122 681 4109 515 
L 4102 515 
C 4090 687 4006 1049 3904 1457 
C 3827 1795 3744 2131 3654 2462 
L 3123 4416 
L 2586 4416 
L 2080 2562 
L 1824 1549 
C 1632 747 1626 632 1613 505 
L 1606 505 
C 1606 543 1581 753 1402 1498 
C 1312 1868 1222 2244 1126 2601 
L 634 4416 
L 83 4416 
L 1299 0 
L 1830 0 
L 2336 1839 
L 2592 2851 
C 2765 3564 2803 3742 2816 3901 
L 2822 3901 
C 2822 3876 2880 3474 3130 2545 
L 3808 0 
L 4365 0 
L 5581 4416 
z
" transform="scale(0.015625)"/>
       <path id="CMSS17-61" d="M 2406 1791 
C 2406 2392 1978 2808 1402 2808 
C 1120 2808 813 2757 461 2553 
L 499 2135 
C 659 2248 934 2432 1395 2432 
C 1722 2432 1920 2180 1920 1782 
L 1920 1536 
C 896 1536 256 1238 256 726 
C 256 461 416 -64 947 -64 
C 1043 -64 1562 -64 1933 217 
L 1933 -19 
L 2406 -19 
L 2406 1791 
z
M 1920 816 
C 1920 701 1920 548 1728 434 
C 1562 325 1350 325 1261 325 
C 941 325 723 511 723 744 
C 723 1211 1722 1211 1920 1211 
L 1920 816 
z
" transform="scale(0.015625)"/>
       <path id="CMSS17-6c" d="M 947 4416 
L 474 4416 
L 474 0 
L 947 0 
L 947 4416 
z
" transform="scale(0.015625)"/>
       <path id="CMSS17-2d" d="M 1664 1216 
L 1664 1585 
L 64 1585 
L 64 1216 
L 1664 1216 
z
" transform="scale(0.015625)"/>
       <path id="CMSS17-63" d="M 2464 2541 
C 2464 2585 2170 2714 2093 2739 
C 1882 2816 1613 2816 1542 2816 
C 710 2816 211 2093 211 1363 
C 211 595 768 -64 1517 -64 
C 1946 -64 2253 76 2502 242 
L 2464 664 
C 2189 453 1869 337 1523 337 
C 1024 337 698 774 698 1369 
C 698 1831 909 2414 1549 2414 
C 1901 2414 2099 2343 2394 2145 
L 2464 2541 
z
" transform="scale(0.015625)"/>
       <path id="CMSS17-6f" d="M 2829 1356 
C 2829 2176 2221 2816 1504 2816 
C 768 2816 173 2157 173 1356 
C 173 544 787 -64 1498 -64 
C 2227 -64 2829 563 2829 1356 
z
M 1504 337 
C 1050 337 659 709 659 1408 
C 659 2151 1114 2427 1498 2427 
C 1914 2427 2342 2126 2342 1408 
C 2342 683 1926 337 1504 337 
z
" transform="scale(0.015625)"/>
       <path id="CMSS17-6b" d="M 1696 1688 
L 2688 2739 
L 2074 2739 
L 954 1554 
L 954 4416 
L 480 4416 
L 480 0 
L 947 0 
L 947 892 
L 1376 1344 
L 2278 0 
L 2822 0 
L 1696 1688 
z
" transform="scale(0.015625)"/>
       <path id="CMSS17-74" d="M 1069 2368 
L 1901 2368 
L 1901 2737 
L 1069 2737 
L 1069 3520 
L 614 3520 
L 614 2737 
L 109 2737 
L 109 2368 
L 602 2368 
L 602 749 
C 602 384 685 -64 1107 -64 
C 1427 -64 1722 25 2003 172 
L 1901 548 
C 1747 414 1562 337 1363 337 
C 1082 337 1069 696 1069 856 
L 1069 2368 
z
" transform="scale(0.015625)"/>
       <path id="CMSS17-69" d="M 979 4183 
L 442 4183 
L 442 3648 
L 979 3648 
L 979 4183 
z
M 947 2739 
L 474 2739 
L 474 0 
L 947 0 
L 947 2739 
z
" transform="scale(0.015625)"/>
       <path id="CMSS17-6d" d="M 4288 1877 
C 4288 2308 4179 2816 3462 2816 
C 2982 2816 2694 2516 2566 2331 
C 2451 2670 2182 2816 1798 2816 
C 1363 2816 1088 2568 941 2389 
L 941 2758 
L 474 2758 
L 474 0 
L 960 0 
L 960 1559 
C 960 1939 1101 2428 1555 2428 
C 2138 2428 2138 2016 2138 1829 
L 2138 0 
L 2624 0 
L 2624 1559 
C 2624 1939 2765 2428 3219 2428 
C 3802 2428 3802 2016 3802 1829 
L 3802 0 
L 4288 0 
L 4288 1877 
z
" transform="scale(0.015625)"/>
       <path id="CMSS17-65" d="M 2502 1377 
C 2502 1590 2490 2003 2285 2345 
C 2061 2713 1696 2816 1421 2816 
C 755 2816 192 2188 192 1375 
C 192 582 774 -64 1510 -64 
C 1798 -64 2150 19 2470 248 
C 2470 274 2458 414 2451 420 
C 2451 433 2432 630 2432 656 
C 2125 407 1773 325 1517 325 
C 1107 325 666 667 646 1377 
L 2502 1377 
z
M 698 1728 
C 781 2084 1062 2421 1421 2421 
C 1517 2421 1965 2421 2080 1728 
L 698 1728 
z
" transform="scale(0.015625)"/>
       <path id="CMSS17-28" d="M 1613 4768 
C 1267 4417 474 3601 474 1588 
C 474 -433 1267 -1243 1613 -1600 
L 2003 -1600 
C 1216 -784 960 357 960 1581 
C 960 2798 1203 3946 2003 4768 
L 1613 4768 
z
" transform="scale(0.015625)"/>
       <path id="CMSS17-73" d="M 2061 2627 
C 1683 2807 1389 2807 1197 2807 
C 742 2807 198 2648 198 2003 
C 198 1359 902 1218 1094 1179 
C 1389 1122 1715 1058 1715 740 
C 1715 337 1254 337 1171 337 
C 915 337 563 407 243 638 
L 166 210 
C 531 0 883 -64 1178 -64 
C 1965 -64 2163 416 2163 781 
C 2163 1094 1984 1305 1862 1401 
C 1651 1568 1574 1587 1050 1696 
C 960 1709 646 1779 646 2066 
C 646 2432 1050 2432 1139 2432 
C 1555 2432 1811 2303 1984 2208 
L 2061 2627 
z
" transform="scale(0.015625)"/>
       <path id="CMSS17-29" d="M 723 -1600 
C 1069 -1249 1862 -433 1862 1581 
C 1862 3601 1069 4411 723 4768 
L 333 4768 
C 1120 3952 1376 2811 1376 1588 
C 1376 370 1133 -778 333 -1600 
L 723 -1600 
z
" transform="scale(0.015625)"/>
       <path id="CMSS17-77" d="M 4013 2752 
L 3526 2752 
L 3187 1601 
C 3117 1358 2918 685 2893 371 
L 2886 371 
C 2874 564 2765 1024 2586 1633 
L 2259 2752 
L 1818 2752 
L 1498 1658 
C 1338 1101 1216 627 1203 371 
L 1197 371 
C 1171 749 909 1633 870 1773 
L 582 2752 
L 83 2752 
L 915 0 
L 1402 0 
C 1734 1096 1990 1943 2010 2370 
C 2022 2160 2131 1707 2195 1484 
L 2618 0 
L 3181 0 
L 4013 2752 
z
" transform="scale(0.015625)"/>
       <path id="CMSS17-72" d="M 954 1363 
C 954 1965 1395 2368 1958 2368 
L 1958 2789 
C 1549 2789 1165 2585 934 2253 
L 934 2758 
L 480 2758 
L 480 0 
L 954 0 
L 954 1363 
z
" transform="scale(0.015625)"/>
       <path id="CMSS17-62" d="M 954 4416 
L 480 4416 
L 480 -13 
L 966 -13 
L 966 274 
C 1210 38 1504 -64 1766 -64 
C 2381 -64 2880 549 2880 1352 
C 2880 2086 2496 2756 1926 2756 
C 1523 2756 1165 2591 954 2419 
L 954 4416 
z
M 966 2046 
C 1107 2222 1306 2368 1587 2368 
C 1965 2368 2394 2097 2394 1352 
C 2394 558 1882 325 1530 325 
C 1402 325 1267 356 1139 464 
C 966 615 966 709 966 797 
L 966 2046 
z
" transform="scale(0.015625)"/>
      </defs>
      <use xlink:href="#CMSS17-57" transform="scale(0.996264)"/>
      <use xlink:href="#CMSS17-61" transform="translate(85.639712 0) scale(0.996264)"/>
      <use xlink:href="#CMSS17-6c" transform="translate(130.561633 0) scale(0.996264)"/>
      <use xlink:href="#CMSS17-6c" transform="translate(152.742356 0) scale(0.996264)"/>
      <use xlink:href="#CMSS17-2d" transform="translate(174.923079 0) scale(0.996264)"/>
      <use xlink:href="#CMSS17-63" transform="translate(206.152192 0) scale(0.996264)"/>
      <use xlink:href="#CMSS17-6c" transform="translate(247.791014 0) scale(0.996264)"/>
      <use xlink:href="#CMSS17-6f" transform="translate(269.971737 0) scale(0.996264)"/>
      <use xlink:href="#CMSS17-63" transform="translate(319.417799 0) scale(0.996264)"/>
      <use xlink:href="#CMSS17-6b" transform="translate(361.056621 0) scale(0.996264)"/>
      <use xlink:href="#CMSS17-74" transform="translate(437.888223 0) scale(0.996264)"/>
      <use xlink:href="#CMSS17-69" transform="translate(471.71979 0) scale(0.996264)"/>
      <use xlink:href="#CMSS17-6d" transform="translate(493.900513 0) scale(0.996264)"/>
      <use xlink:href="#CMSS17-65" transform="translate(568.129767 0) scale(0.996264)"/>
      <use xlink:href="#CMSS17-28" transform="translate(640.997702 0) scale(0.996264)"/>
      <use xlink:href="#CMSS17-6d" transform="translate(677.431616 0) scale(0.996264)"/>
      <use xlink:href="#CMSS17-73" transform="translate(751.660871 0) scale(0.996264)"/>
      <use xlink:href="#CMSS17-29" transform="translate(787.574413 0) scale(0.996264)"/>
      <use xlink:href="#CMSS17-28" transform="translate(855.23744 0) scale(0.996264)"/>
      <use xlink:href="#CMSS17-6c" transform="translate(891.671354 0) scale(0.996264)"/>
      <use xlink:href="#CMSS17-6f" transform="translate(913.852077 0) scale(0.996264)"/>
      <use xlink:href="#CMSS17-77" transform="translate(958.093247 0) scale(0.996264)"/>
      <use xlink:href="#CMSS17-65" transform="translate(1019.310338 0) scale(0.996264)"/>
      <use xlink:href="#CMSS17-72" transform="translate(1060.94916 0) scale(0.996264)"/>
      <use xlink:href="#CMSS17-69" transform="translate(1124.088045 0) scale(0.996264)"/>
      <use xlink:href="#CMSS17-73" transform="translate(1146.268768 0) scale(0.996264)"/>
      <use xlink:href="#CMSS17-62" transform="translate(1213.411423 0) scale(0.996264)"/>
      <use xlink:href="#CMSS17-65" transform="translate(1264.218805 0) scale(0.996264)"/>
      <use xlink:href="#CMSS17-74" transform="translate(1305.857627 0) scale(0.996264)"/>
      <use xlink:href="#CMSS17-74" transform="translate(1339.689193 0) scale(0.996264)"/>
      <use xlink:href="#CMSS17-65" transform="translate(1373.52076 0) scale(0.996264)"/>
      <use xlink:href="#CMSS17-72" transform="translate(1415.159582 0) scale(0.996264)"/>
      <use xlink:href="#CMSS17-29" transform="translate(1447.069355 0) scale(0.996264)"/>
     </g>
    </g>
   </g>
   <g id="matplotlib.axis_2">
    <g id="ytick_1">
     <g id="line2d_13">
      <path d="M 50.216069 125.089559 
L 341.28 125.089559 
" clip-path="url(#p025e9293d2)" style="fill: none; stroke: #cccccc; stroke-width: 0.25; stroke-linecap: round"/>
     </g>
     <g id="line2d_14">
      <defs>
       <path id="med4390cd7a" d="M 0 0 
L -6 0 
" style="stroke: #262626; stroke-width: 1.25"/>
      </defs>
      <g>
       <use xlink:href="#med4390cd7a" x="50.216069" y="125.089559" style="fill: #262626; stroke: #262626; stroke-width: 1.25"/>
      </g>
     </g>
     <g id="text_8">
      <!-- eclipse -->
      <g style="fill: #262626" transform="translate(11.005204 128.894733) scale(0.11 -0.11)">
       <defs>
        <path id="CMSS17-70" d="M 966 333 
C 1178 129 1466 -5 1773 -5 
C 2368 -5 2880 603 2880 1412 
C 2880 2159 2496 2816 1946 2816 
C 1626 2816 1242 2702 954 2472 
L 954 2765 
L 480 2765 
L 480 -1216 
L 966 -1216 
L 966 333 
z
M 966 2100 
C 1018 2176 1235 2415 1587 2415 
C 2035 2415 2394 1960 2394 1412 
C 2394 787 1958 384 1530 384 
C 1402 384 1267 415 1139 523 
C 966 674 966 768 966 857 
L 966 2100 
z
" transform="scale(0.015625)"/>
       </defs>
       <use xlink:href="#CMSS17-65" transform="scale(0.996264)"/>
       <use xlink:href="#CMSS17-63" transform="translate(41.638822 0) scale(0.996264)"/>
       <use xlink:href="#CMSS17-6c" transform="translate(83.277644 0) scale(0.996264)"/>
       <use xlink:href="#CMSS17-69" transform="translate(105.458367 0) scale(0.996264)"/>
       <use xlink:href="#CMSS17-70" transform="translate(127.63909 0) scale(0.996264)"/>
       <use xlink:href="#CMSS17-73" transform="translate(175.844033 0) scale(0.996264)"/>
       <use xlink:href="#CMSS17-65" transform="translate(211.757575 0) scale(0.996264)"/>
      </g>
     </g>
    </g>
    <g id="ytick_2">
     <g id="line2d_15">
      <path d="M 50.216069 92.79105 
L 341.28 92.79105 
" clip-path="url(#p025e9293d2)" style="fill: none; stroke: #cccccc; stroke-width: 0.25; stroke-linecap: round"/>
     </g>
     <g id="line2d_16">
      <g>
       <use xlink:href="#med4390cd7a" x="50.216069" y="92.79105" style="fill: #262626; stroke: #262626; stroke-width: 1.25"/>
      </g>
     </g>
     <g id="text_9">
      <!-- hadoop -->
      <g style="fill: #262626" transform="translate(7.2 96.596223) scale(0.11 -0.11)">
       <defs>
        <path id="CMSS17-68" d="M 2618 1891 
C 2618 2292 2522 2820 1798 2820 
C 1395 2820 1133 2623 947 2407 
L 947 4448 
L 474 4448 
L 474 32 
L 960 32 
L 960 1573 
C 960 1973 1114 2432 1549 2432 
C 2112 2432 2131 2056 2131 1839 
L 2131 32 
L 2618 32 
L 2618 1891 
z
" transform="scale(0.015625)"/>
        <path id="CMSS17-64" d="M 2611 4416 
L 2138 4416 
L 2138 2438 
C 1939 2603 1613 2756 1254 2756 
C 672 2756 211 2131 211 1347 
C 211 562 666 -64 1235 -64 
C 1677 -64 1971 172 2125 306 
L 2125 -13 
L 2611 -13 
L 2611 4416 
z
M 2125 836 
C 2125 747 2125 653 1926 482 
C 1798 375 1645 325 1498 325 
C 1152 325 698 576 698 1340 
C 698 2134 1210 2368 1562 2368 
C 1798 2368 1990 2254 2125 2065 
L 2125 836 
z
" transform="scale(0.015625)"/>
       </defs>
       <use xlink:href="#CMSS17-68" transform="scale(0.996264)"/>
       <use xlink:href="#CMSS17-61" transform="translate(48.204943 0) scale(0.996264)"/>
       <use xlink:href="#CMSS17-64" transform="translate(93.126864 0) scale(0.996264)"/>
       <use xlink:href="#CMSS17-6f" transform="translate(141.331807 0) scale(0.996264)"/>
       <use xlink:href="#CMSS17-6f" transform="translate(190.777869 0) scale(0.996264)"/>
       <use xlink:href="#CMSS17-70" transform="translate(237.621493 0) scale(0.996264)"/>
      </g>
     </g>
    </g>
    <g id="ytick_3">
     <g id="line2d_17">
      <path d="M 50.216069 60.492541 
L 341.28 60.492541 
" clip-path="url(#p025e9293d2)" style="fill: none; stroke: #cccccc; stroke-width: 0.25; stroke-linecap: round"/>
     </g>
     <g id="line2d_18">
      <g>
       <use xlink:href="#med4390cd7a" x="50.216069" y="60.492541" style="fill: #262626; stroke: #262626; stroke-width: 1.25"/>
      </g>
     </g>
     <g id="text_10">
      <!-- jenkins -->
      <g style="fill: #262626" transform="translate(9.422212 64.297714) scale(0.11 -0.11)">
       <defs>
        <path id="CMSS17-6a" d="M 1114 4224 
L 576 4224 
L 576 3689 
L 1114 3689 
L 1114 4224 
z
M -371 -1064 
C -166 -1191 83 -1280 352 -1280 
C 755 -1280 1114 -935 1114 -366 
L 1114 2767 
L 640 2767 
L 640 -425 
C 640 -815 346 -873 179 -873 
C 38 -873 -128 -828 -275 -675 
L -371 -1064 
z
" transform="scale(0.015625)"/>
        <path id="CMSS17-6e" d="M 2618 1877 
C 2618 2283 2522 2816 1798 2816 
C 1389 2816 1120 2606 941 2389 
L 941 2758 
L 474 2758 
L 474 0 
L 960 0 
L 960 1559 
C 960 1964 1114 2428 1549 2428 
C 2112 2428 2131 2048 2131 1829 
L 2131 0 
L 2618 0 
L 2618 1877 
z
" transform="scale(0.015625)"/>
       </defs>
       <use xlink:href="#CMSS17-6a" transform="scale(0.996264)"/>
       <use xlink:href="#CMSS17-65" transform="translate(24.783086 0) scale(0.996264)"/>
       <use xlink:href="#CMSS17-6e" transform="translate(66.421908 0) scale(0.996264)"/>
       <use xlink:href="#CMSS17-6b" transform="translate(114.626851 0) scale(0.996264)"/>
       <use xlink:href="#CMSS17-69" transform="translate(160.22934 0) scale(0.996264)"/>
       <use xlink:href="#CMSS17-6e" transform="translate(182.410063 0) scale(0.996264)"/>
       <use xlink:href="#CMSS17-73" transform="translate(230.615006 0) scale(0.996264)"/>
      </g>
     </g>
    </g>
    <g id="ytick_4">
     <g id="line2d_19">
      <path d="M 50.216069 28.194031 
L 341.28 28.194031 
" clip-path="url(#p025e9293d2)" style="fill: none; stroke: #cccccc; stroke-width: 0.25; stroke-linecap: round"/>
     </g>
     <g id="line2d_20">
      <g>
       <use xlink:href="#med4390cd7a" x="50.216069" y="28.194031" style="fill: #262626; stroke: #262626; stroke-width: 1.25"/>
      </g>
     </g>
     <g id="text_11">
      <!-- spring -->
      <g style="fill: #262626" transform="translate(13.653613 31.999204) scale(0.11 -0.11)">
       <defs>
        <path id="CMSS17-67" d="M 2848 2808 
C 2483 2808 2170 2738 1914 2617 
C 1702 2777 1485 2808 1338 2808 
C 781 2808 358 2349 358 1814 
C 358 1468 550 1207 563 1195 
C 448 1035 384 863 384 672 
C 384 448 474 289 544 200 
C 211 -3 166 -314 166 -435 
C 166 -898 749 -1280 1498 -1280 
C 2253 -1280 2835 -898 2835 -428 
C 2835 448 1856 448 1587 448 
L 1069 448 
C 973 448 717 448 717 791 
C 717 921 774 1004 781 1010 
C 877 940 1075 832 1338 832 
C 1869 832 2310 1278 2310 1827 
C 2310 2132 2170 2355 2112 2432 
L 2131 2432 
C 2150 2432 2419 2432 2515 2432 
C 2720 2432 2739 2429 2918 2419 
L 2848 2808 
z
M 1338 1182 
C 1120 1182 813 1315 813 1823 
C 813 2375 1165 2464 1331 2464 
C 1549 2464 1856 2331 1856 1823 
C 1856 1271 1504 1182 1338 1182 
z
M 1581 -10 
C 1734 -10 2381 -10 2381 -442 
C 2381 -714 1984 -929 1504 -929 
C 1018 -929 621 -720 621 -435 
C 621 -403 621 -10 1062 -10 
L 1581 -10 
z
" transform="scale(0.015625)"/>
       </defs>
       <use xlink:href="#CMSS17-73" transform="scale(0.996264)"/>
       <use xlink:href="#CMSS17-70" transform="translate(35.913542 0) scale(0.996264)"/>
       <use xlink:href="#CMSS17-72" transform="translate(81.516031 0) scale(0.996264)"/>
       <use xlink:href="#CMSS17-69" transform="translate(113.425804 0) scale(0.996264)"/>
       <use xlink:href="#CMSS17-6e" transform="translate(135.606527 0) scale(0.996264)"/>
       <use xlink:href="#CMSS17-67" transform="translate(183.81147 0) scale(0.996264)"/>
      </g>
     </g>
    </g>
   </g>
   <g id="patch_3">
    <path d="M 50.216069 138.008963 
L 193.064389 138.008963 
L 193.064389 125.089559 
L 50.216069 125.089559 
z
" clip-path="url(#p025e9293d2)" style="fill: #4c72b0; stroke: #ffffff; stroke-linejoin: miter"/>
   </g>
   <g id="patch_4">
    <path d="M 50.216069 105.710454 
L 336.610184 105.710454 
L 336.610184 92.79105 
L 50.216069 92.79105 
z
" clip-path="url(#p025e9293d2)" style="fill: #4c72b0; stroke: #ffffff; stroke-linejoin: miter"/>
   </g>
   <g id="patch_5">
    <path d="M 50.216069 73.411944 
L 87.664964 73.411944 
L 87.664964 60.492541 
L 50.216069 60.492541 
z
" clip-path="url(#p025e9293d2)" style="fill: #4c72b0; stroke: #ffffff; stroke-linejoin: miter"/>
   </g>
   <g id="patch_6">
    <path d="M 50.216069 41.113435 
L 224.531494 41.113435 
L 224.531494 28.194031 
L 50.216069 28.194031 
z
" clip-path="url(#p025e9293d2)" style="fill: #4c72b0; stroke: #ffffff; stroke-linejoin: miter"/>
   </g>
   <g id="patch_7">
    <path d="M 50.216069 125.089559 
L 190.73661 125.089559 
L 190.73661 112.170156 
L 50.216069 112.170156 
z
" clip-path="url(#p025e9293d2)" style="fill: #dd8452; stroke: #ffffff; stroke-linejoin: miter"/>
   </g>
   <g id="patch_8">
    <path d="M 50.216069 92.79105 
L 324.705012 92.79105 
L 324.705012 79.871646 
L 50.216069 79.871646 
z
" clip-path="url(#p025e9293d2)" style="fill: #dd8452; stroke: #ffffff; stroke-linejoin: miter"/>
   </g>
   <g id="patch_9">
    <path d="M 50.216069 60.492541 
L 86.567214 60.492541 
L 86.567214 47.573137 
L 50.216069 47.573137 
z
" clip-path="url(#p025e9293d2)" style="fill: #dd8452; stroke: #ffffff; stroke-linejoin: miter"/>
   </g>
   <g id="patch_10">
    <path d="M 50.216069 28.194031 
L 222.7775 28.194031 
L 222.7775 15.274627 
L 50.216069 15.274627 
z
" clip-path="url(#p025e9293d2)" style="fill: #dd8452; stroke: #ffffff; stroke-linejoin: miter"/>
   </g>
   <g id="LineCollection_1">
    <path d="M 191.93409 131.549261 
L 194.194688 131.549261 
" clip-path="url(#p025e9293d2)" style="fill: none; stroke: #262626; stroke-width: 1.5"/>
    <path d="M 334.82219 99.250752 
L 338.398179 99.250752 
" clip-path="url(#p025e9293d2)" style="fill: none; stroke: #262626; stroke-width: 1.5"/>
    <path d="M 87.544612 66.952242 
L 87.785316 66.952242 
" clip-path="url(#p025e9293d2)" style="fill: none; stroke: #262626; stroke-width: 1.5"/>
    <path d="M 223.995282 34.653733 
L 225.067706 34.653733 
" clip-path="url(#p025e9293d2)" style="fill: none; stroke: #262626; stroke-width: 1.5"/>
   </g>
   <g id="line2d_21">
    <defs>
     <path id="m29bf805aa0" d="M 0 2 
L 0 -2 
" style="stroke: #262626"/>
    </defs>
    <g clip-path="url(#p025e9293d2)">
     <use xlink:href="#m29bf805aa0" x="191.93409" y="131.549261" style="fill: #262626; stroke: #262626"/>
     <use xlink:href="#m29bf805aa0" x="334.82219" y="99.250752" style="fill: #262626; stroke: #262626"/>
     <use xlink:href="#m29bf805aa0" x="87.544612" y="66.952242" style="fill: #262626; stroke: #262626"/>
     <use xlink:href="#m29bf805aa0" x="223.995282" y="34.653733" style="fill: #262626; stroke: #262626"/>
    </g>
   </g>
   <g id="line2d_22">
    <g clip-path="url(#p025e9293d2)">
     <use xlink:href="#m29bf805aa0" x="194.194688" y="131.549261" style="fill: #262626; stroke: #262626"/>
     <use xlink:href="#m29bf805aa0" x="338.398179" y="99.250752" style="fill: #262626; stroke: #262626"/>
     <use xlink:href="#m29bf805aa0" x="87.785316" y="66.952242" style="fill: #262626; stroke: #262626"/>
     <use xlink:href="#m29bf805aa0" x="225.067706" y="34.653733" style="fill: #262626; stroke: #262626"/>
    </g>
   </g>
   <g id="LineCollection_2">
    <path d="M 190.169852 118.629858 
L 191.303369 118.629858 
" clip-path="url(#p025e9293d2)" style="fill: none; stroke: #262626; stroke-width: 1.5"/>
    <path d="M 323.697852 86.331348 
L 325.712173 86.331348 
" clip-path="url(#p025e9293d2)" style="fill: none; stroke: #262626; stroke-width: 1.5"/>
    <path d="M 86.388265 54.032839 
L 86.746164 54.032839 
" clip-path="url(#p025e9293d2)" style="fill: none; stroke: #262626; stroke-width: 1.5"/>
    <path d="M 222.31787 21.734329 
L 223.237129 21.734329 
" clip-path="url(#p025e9293d2)" style="fill: none; stroke: #262626; stroke-width: 1.5"/>
   </g>
   <g id="line2d_23">
    <g clip-path="url(#p025e9293d2)">
     <use xlink:href="#m29bf805aa0" x="190.169852" y="118.629858" style="fill: #262626; stroke: #262626"/>
     <use xlink:href="#m29bf805aa0" x="323.697852" y="86.331348" style="fill: #262626; stroke: #262626"/>
     <use xlink:href="#m29bf805aa0" x="86.388265" y="54.032839" style="fill: #262626; stroke: #262626"/>
     <use xlink:href="#m29bf805aa0" x="222.31787" y="21.734329" style="fill: #262626; stroke: #262626"/>
    </g>
   </g>
   <g id="line2d_24">
    <g clip-path="url(#p025e9293d2)">
     <use xlink:href="#m29bf805aa0" x="191.303369" y="118.629858" style="fill: #262626; stroke: #262626"/>
     <use xlink:href="#m29bf805aa0" x="325.712173" y="86.331348" style="fill: #262626; stroke: #262626"/>
     <use xlink:href="#m29bf805aa0" x="86.746164" y="54.032839" style="fill: #262626; stroke: #262626"/>
     <use xlink:href="#m29bf805aa0" x="223.237129" y="21.734329" style="fill: #262626; stroke: #262626"/>
    </g>
   </g>
   <g id="patch_11">
    <path d="M 50.216069 146.083591 
L 50.216069 7.2 
" style="fill: none; stroke: #cccccc; stroke-width: 1.25; stroke-linejoin: miter; stroke-linecap: square"/>
   </g>
   <g id="patch_12">
    <path d="M 50.216069 146.083591 
L 341.28 146.083591 
" style="fill: none; stroke: #cccccc; stroke-width: 1.25; stroke-linejoin: miter; stroke-linecap: square"/>
   </g>
   <g id="legend_1">
    <g id="patch_13">
     <path d="M 264.766837 46.661789 
L 333.58 46.661789 
Q 335.78 46.661789 335.78 44.461789 
L 335.78 14.9 
Q 335.78 12.7 333.58 12.7 
L 264.766837 12.7 
Q 262.566837 12.7 262.566837 14.9 
L 262.566837 44.461789 
Q 262.566837 46.661789 264.766837 46.661789 
z
" style="fill: #ffffff; opacity: 0.8; stroke: #cccccc; stroke-linejoin: miter"/>
    </g>
    <g id="patch_14">
     <path d="M 266.966837 24.8 
L 288.966837 24.8 
L 288.966837 17.1 
L 266.966837 17.1 
z
" style="fill: #4c72b0; stroke: #ffffff; stroke-linejoin: miter"/>
    </g>
    <g id="text_12">
     <!-- \textsc{Alloy} -->
     <g style="fill: #262626" transform="translate(297.766837 24.8) scale(0.11 -0.11)">
      <defs>
       <path id="CMCSC10-41" d="M 2758 4467 
C 2714 4582 2707 4608 2598 4608 
C 2496 4608 2483 4569 2451 4485 
L 1037 631 
C 979 483 877 193 307 193 
L 307 0 
C 442 0 698 0 954 0 
C 1222 0 1587 0 1696 0 
L 1696 193 
C 1370 193 1222 359 1222 513 
C 1222 552 1222 565 1254 641 
L 1562 1472 
L 3264 1472 
L 3629 494 
C 3661 411 3661 398 3661 378 
C 3661 193 3302 193 3136 193 
L 3136 -6 
C 3366 0 3814 0 4058 0 
C 4333 0 4627 0 4896 0 
L 4896 193 
L 4781 193 
C 4371 193 4307 251 4243 432 
L 2758 4467 
z
M 3194 1671 
L 1632 1671 
L 2413 3806 
L 3194 1671 
z
" transform="scale(0.015625)"/>
       <path id="CMCSC10-6c" d="M 3027 1280 
L 2867 1280 
C 2816 765 2752 192 1856 192 
L 1453 192 
C 1229 192 1197 211 1197 469 
L 1197 2858 
C 1197 3181 1293 3181 1773 3181 
L 1773 3328 
C 1587 3328 1178 3328 986 3328 
C 826 3328 506 3328 275 3328 
L 275 3181 
C 704 3181 736 3142 736 2878 
L 736 495 
C 736 230 704 192 275 192 
L 275 31 
L 2906 31 
L 3027 1280 
z
" transform="scale(0.015625)"/>
       <path id="CMCSC10-6f" d="M 3744 1667 
C 3744 2627 2982 3424 2035 3424 
C 1082 3424 326 2627 326 1667 
C 326 695 1101 -64 2035 -64 
C 2970 -64 3744 695 3744 1667 
z
M 2035 103 
C 1581 103 877 470 877 1738 
C 877 2948 1606 3264 2035 3264 
C 2470 3264 3194 2941 3194 1738 
C 3194 470 2490 103 2035 103 
z
" transform="scale(0.015625)"/>
       <path id="CMCSC10-79" d="M 2131 1574 
L 1248 2879 
C 1216 2924 1171 2988 1171 3052 
C 1171 3181 1357 3181 1434 3181 
L 1434 3328 
C 1267 3328 845 3328 742 3328 
C 570 3328 314 3328 122 3328 
L 122 3181 
C 454 3181 531 3142 646 2975 
L 1741 1358 
L 1741 495 
C 1741 230 1709 192 1280 192 
L 1280 37 
C 1472 37 1779 37 1958 37 
C 2144 37 2477 37 2643 37 
L 2643 192 
C 2208 192 2182 230 2182 514 
L 2182 1352 
L 3110 2740 
C 3341 3090 3552 3181 3802 3181 
L 3802 3341 
C 3667 3328 3488 3328 3354 3328 
C 3181 3328 3002 3328 2829 3341 
L 2829 3181 
C 2970 3168 3014 3091 3014 2988 
C 3014 2892 2963 2814 2918 2744 
L 2131 1574 
z
" transform="scale(0.015625)"/>
      </defs>
      <use xlink:href="#CMCSC10-41" transform="scale(0.996264)"/>
      <use xlink:href="#CMCSC10-6c" transform="translate(81.084027 0) scale(0.996264)"/>
      <use xlink:href="#CMCSC10-6c" transform="translate(132.225377 0) scale(0.996264)"/>
      <use xlink:href="#CMCSC10-6f" transform="translate(183.366727 0) scale(0.996264)"/>
      <use xlink:href="#CMCSC10-79" transform="translate(244.470656 0) scale(0.996264)"/>
     </g>
    </g>
    <g id="patch_15">
     <path d="M 266.966837 40.130895 
L 288.966837 40.130895 
L 288.966837 32.430895 
L 266.966837 32.430895 
z
" style="fill: #dd8452; stroke: #ffffff; stroke-linejoin: miter"/>
    </g>
    <g id="text_13">
     <!-- \textsc{Rc} -->
     <g style="fill: #262626" transform="translate(297.766837 40.130895) scale(0.11 -0.11)">
      <defs>
       <path id="CMCSC10-52" d="M 1574 2304 
L 1574 3961 
C 1574 4133 1587 4191 1741 4210 
C 1798 4217 1997 4217 2125 4217 
C 2682 4217 3526 4217 3526 3264 
C 3526 2579 3072 2304 2349 2304 
L 1574 2304 
z
M 3008 2204 
C 3776 2392 4186 2818 4186 3256 
C 4186 3881 3405 4416 2438 4416 
L 365 4416 
L 365 4217 
L 518 4217 
C 1011 4217 1024 4145 1024 3912 
L 1024 497 
C 1024 264 1011 192 518 192 
L 365 192 
L 365 13 
C 595 13 1050 13 1299 13 
C 1549 13 2003 13 2234 13 
L 2234 192 
L 2080 192 
C 1587 192 1574 265 1574 501 
L 1574 2163 
L 2374 2163 
C 2720 2163 2925 2033 3034 1929 
C 3277 1689 3277 1527 3277 1072 
C 3277 625 3277 391 3552 138 
C 3789 -70 4147 -128 4371 -128 
C 4883 -128 5005 392 5005 570 
C 5005 609 5005 679 4922 679 
C 4851 679 4851 622 4845 577 
C 4794 83 4531 13 4397 13 
C 4058 13 4013 303 3898 1051 
C 3827 1502 3802 1664 3597 1869 
C 3462 2012 3258 2134 3008 2204 
z
" transform="scale(0.015625)"/>
       <path id="CMCSC10-63" d="M 3046 3019 
C 2912 3161 2598 3424 2118 3424 
C 1152 3424 326 2659 326 1680 
C 326 702 1152 -64 2118 -64 
C 2950 -64 3456 605 3456 1165 
C 3456 1223 3456 1268 3373 1268 
C 3302 1268 3302 1229 3296 1165 
C 3251 483 2701 97 2163 97 
C 1843 97 877 270 877 1680 
C 877 3109 1869 3264 2157 3264 
C 2624 3264 3168 2929 3290 2112 
C 3302 2067 3309 2028 3373 2028 
C 3456 2028 3456 2060 3456 2182 
L 3456 3270 
C 3456 3373 3456 3424 3392 3424 
C 3354 3424 3347 3411 3296 3347 
L 3046 3019 
z
" transform="scale(0.015625)"/>
      </defs>
      <use xlink:href="#CMCSC10-52" transform="scale(0.996264)"/>
      <use xlink:href="#CMCSC10-63" transform="translate(76.794555 0) scale(0.996264)"/>
     </g>
    </g>
   </g>
  </g>
 </g>
 <defs>
  <clipPath id="p025e9293d2">
   <rect x="50.216069" y="7.2" width="291.063931" height="138.883591"/>
  </clipPath>
 </defs>
</svg>
