<?xml version="1.0" encoding="utf-8" standalone="no"?>
<!DOCTYPE svg PUBLIC "-//W3C//DTD SVG 1.1//EN"
  "http://www.w3.org/Graphics/SVG/1.1/DTD/svg11.dtd">
<svg xmlns:xlink="http://www.w3.org/1999/xlink" width="351.652064pt" height="224.98pt" viewBox="0 0 351.652064 224.98" xmlns="http://www.w3.org/2000/svg" version="1.1">
 <metadata>
  <rdf:RDF xmlns:dc="http://purl.org/dc/elements/1.1/" xmlns:cc="http://creativecommons.org/ns#" xmlns:rdf="http://www.w3.org/1999/02/22-rdf-syntax-ns#">
   <cc:Work>
    <dc:type rdf:resource="http://purl.org/dc/dcmitype/StillImage"/>
    <dc:date>2025-08-11T15:20:31.906481</dc:date>
    <dc:format>image/svg+xml</dc:format>
    <dc:creator>
     <cc:Agent>
      <dc:title>Matplotlib v3.9.2, https://matplotlib.org/</dc:title>
     </cc:Agent>
    </dc:creator>
   </cc:Work>
  </rdf:RDF>
 </metadata>
 <defs>
  <style type="text/css">*{stroke-linejoin: round; stroke-linecap: butt}</style>
 </defs>
 <g id="figure_1">
  <g id="patch_1">
   <path d="M 0 224.98 
L 351.652064 224.98 
L 351.652064 0 
L 0 0 
z
" style="fill: #ffffff"/>
  </g>
  <g id="axes_1">
   <g id="patch_2">
    <path d="M 85.279966 199.26766 
L 326.990973 199.26766 
L 326.990973 29.86 
L 85.279966 29.86 
z
" style="fill: #ffffff"/>
   </g>
   <g id="matplotlib.axis_1">
    <g id="xtick_1">
     <g id="line2d_1">
      <path d="M 85.279966 199.26766 
L 85.279966 29.86 
" clip-path="url(#p2941d63b49)" style="fill: none; stroke: #cccccc; stroke-opacity: 0.3; stroke-width: 0.5; stroke-linecap: square"/>
     </g>
     <g id="line2d_2">
      <defs>
       <path id="maaf7e432fe" d="M 0 0 
L 0 3.5 
" style="stroke: #b0b0b0; stroke-width: 0.4"/>
      </defs>
      <g>
       <use xlink:href="#maaf7e432fe" x="85.279966" y="199.26766" style="fill: #b0b0b0; stroke: #b0b0b0; stroke-width: 0.4"/>
      </g>
     </g>
     <g id="text_1">
      <!-- 0\% -->
      <g transform="translate(76.825647 215.261688) scale(0.13 -0.13)">
       <defs>
        <path id="CMSS17-30" d="M 2758 2044 
C 2758 2405 2752 3077 2490 3596 
C 2227 4096 1805 4229 1504 4229 
C 1069 4229 698 3975 506 3570 
C 301 3146 243 2709 243 2044 
C 243 1589 262 1031 493 543 
C 755 5 1197 -128 1498 -128 
C 1894 -128 2278 81 2496 518 
C 2720 974 2758 1474 2758 2044 
z
M 1498 261 
C 1011 261 864 811 819 995 
C 742 1310 730 1614 730 2114 
C 730 2506 730 2948 851 3297 
C 998 3701 1254 3840 1498 3840 
C 1971 3840 2125 3372 2176 3208 
C 2272 2873 2272 2481 2272 2114 
C 2272 1526 2272 261 1498 261 
z
" transform="scale(0.015625)"/>
        <path id="CMSS17-25" d="M 3923 4583 
C 3962 4647 3962 4679 3962 4685 
C 3962 4755 3904 4800 3853 4800 
C 3782 4800 3750 4749 3718 4685 
L 1101 -104 
C 1088 -129 1062 -167 1062 -206 
C 1062 -276 1120 -320 1178 -320 
C 1235 -320 1248 -295 1299 -206 
L 3923 4583 
z
M 4678 959 
C 4678 1698 4282 2240 3846 2240 
C 3418 2240 3008 1711 3008 959 
C 3008 208 3418 -320 3846 -320 
C 4288 -320 4678 221 4678 959 
z
M 3846 68 
C 3712 68 3494 189 3494 959 
C 3494 1724 3712 1851 3846 1851 
C 4083 1851 4211 1386 4211 959 
C 4211 533 4083 68 3846 68 
z
M 2003 3519 
C 2003 4258 1606 4800 1171 4800 
C 742 4800 333 4271 333 3519 
C 333 2768 742 2240 1171 2240 
C 1613 2240 2003 2781 2003 3519 
z
M 1171 2628 
C 1037 2628 819 2749 819 3519 
C 819 4284 1037 4411 1171 4411 
C 1408 4411 1536 3946 1536 3519 
C 1536 3093 1408 2628 1171 2628 
z
" transform="scale(0.015625)"/>
       </defs>
       <use xlink:href="#CMSS17-30" transform="scale(0.996264)"/>
       <use xlink:href="#CMSS17-25" transform="translate(46.843624 0) scale(0.996264)"/>
      </g>
     </g>
    </g>
    <g id="xtick_2">
     <g id="line2d_3">
      <path d="M 133.622168 199.26766 
L 133.622168 29.86 
" clip-path="url(#p2941d63b49)" style="fill: none; stroke: #cccccc; stroke-opacity: 0.3; stroke-width: 0.5; stroke-linecap: square"/>
     </g>
     <g id="line2d_4">
      <g>
       <use xlink:href="#maaf7e432fe" x="133.622168" y="199.26766" style="fill: #b0b0b0; stroke: #b0b0b0; stroke-width: 0.4"/>
      </g>
     </g>
     <g id="text_2">
      <!-- 20\% -->
      <g transform="translate(121.997479 215.261688) scale(0.13 -0.13)">
       <defs>
        <path id="CMSS17-32" d="M 1651 1357 
C 1830 1541 2099 1764 2285 1987 
C 2464 2204 2701 2511 2701 2957 
C 2701 3657 2227 4288 1421 4288 
C 787 4288 422 3893 250 3274 
L 499 2929 
C 640 3510 838 3880 1338 3880 
C 1888 3880 2195 3433 2195 2942 
C 2195 2355 1747 1901 1408 1563 
C 1030 1187 659 804 301 408 
L 301 0 
L 2701 0 
L 2701 433 
L 1613 433 
C 1536 433 1459 433 1382 433 
L 742 433 
L 742 439 
L 1651 1357 
z
" transform="scale(0.015625)"/>
       </defs>
       <use xlink:href="#CMSS17-32" transform="scale(0.996264)"/>
       <use xlink:href="#CMSS17-30" transform="translate(46.843624 0) scale(0.996264)"/>
       <use xlink:href="#CMSS17-25" transform="translate(93.687247 0) scale(0.996264)"/>
      </g>
     </g>
    </g>
    <g id="xtick_3">
     <g id="line2d_5">
      <path d="M 181.964369 199.26766 
L 181.964369 29.86 
" clip-path="url(#p2941d63b49)" style="fill: none; stroke: #cccccc; stroke-opacity: 0.3; stroke-width: 0.5; stroke-linecap: square"/>
     </g>
     <g id="line2d_6">
      <g>
       <use xlink:href="#maaf7e432fe" x="181.964369" y="199.26766" style="fill: #b0b0b0; stroke: #b0b0b0; stroke-width: 0.4"/>
      </g>
     </g>
     <g id="text_3">
      <!-- 40\% -->
      <g transform="translate(170.33968 215.261688) scale(0.13 -0.13)">
       <defs>
        <path id="CMSS17-34" d="M 2253 1088 
L 2835 1088 
L 2835 1477 
L 2253 1477 
L 2253 4192 
L 1690 4192 
L 166 1477 
L 166 1088 
L 1747 1088 
L 1747 0 
L 2253 0 
L 2253 1088 
z
M 659 1477 
C 1030 2127 1766 3439 1766 3885 
L 1766 1477 
L 659 1477 
z
" transform="scale(0.015625)"/>
       </defs>
       <use xlink:href="#CMSS17-34" transform="scale(0.996264)"/>
       <use xlink:href="#CMSS17-30" transform="translate(46.843624 0) scale(0.996264)"/>
       <use xlink:href="#CMSS17-25" transform="translate(93.687247 0) scale(0.996264)"/>
      </g>
     </g>
    </g>
    <g id="xtick_4">
     <g id="line2d_7">
      <path d="M 230.306571 199.26766 
L 230.306571 29.86 
" clip-path="url(#p2941d63b49)" style="fill: none; stroke: #cccccc; stroke-opacity: 0.3; stroke-width: 0.5; stroke-linecap: square"/>
     </g>
     <g id="line2d_8">
      <g>
       <use xlink:href="#maaf7e432fe" x="230.306571" y="199.26766" style="fill: #b0b0b0; stroke: #b0b0b0; stroke-width: 0.4"/>
      </g>
     </g>
     <g id="text_4">
      <!-- 60\% -->
      <g transform="translate(218.681882 215.261688) scale(0.13 -0.13)">
       <defs>
        <path id="CMSS17-36" d="M 2496 4101 
C 2227 4210 2035 4229 1856 4229 
C 1024 4229 250 3368 250 2006 
C 250 265 986 -128 1510 -128 
C 1798 -128 2086 -39 2362 280 
C 2643 617 2752 898 2752 1389 
C 2752 2179 2362 2880 1779 2880 
C 1357 2880 992 2657 768 2376 
C 832 3258 1254 3840 1862 3840 
C 2029 3840 2246 3816 2496 3710 
L 2496 4101 
z
M 774 1369 
C 774 1420 774 1452 781 1548 
C 781 2045 1069 2491 1536 2491 
C 1837 2491 1990 2332 2106 2135 
C 2240 1886 2246 1650 2246 1388 
C 2246 1140 2246 891 2099 637 
C 1978 439 1818 267 1510 267 
C 902 267 800 1114 774 1369 
z
" transform="scale(0.015625)"/>
       </defs>
       <use xlink:href="#CMSS17-36" transform="scale(0.996264)"/>
       <use xlink:href="#CMSS17-30" transform="translate(46.843624 0) scale(0.996264)"/>
       <use xlink:href="#CMSS17-25" transform="translate(93.687247 0) scale(0.996264)"/>
      </g>
     </g>
    </g>
    <g id="xtick_5">
     <g id="line2d_9">
      <path d="M 278.648772 199.26766 
L 278.648772 29.86 
" clip-path="url(#p2941d63b49)" style="fill: none; stroke: #cccccc; stroke-opacity: 0.3; stroke-width: 0.5; stroke-linecap: square"/>
     </g>
     <g id="line2d_10">
      <g>
       <use xlink:href="#maaf7e432fe" x="278.648772" y="199.26766" style="fill: #b0b0b0; stroke: #b0b0b0; stroke-width: 0.4"/>
      </g>
     </g>
     <g id="text_5">
      <!-- 80\% -->
      <g transform="translate(267.024083 215.261688) scale(0.13 -0.13)">
       <defs>
        <path id="CMSS17-38" d="M 1933 2222 
C 2419 2380 2669 2760 2669 3134 
C 2669 3722 2157 4229 1504 4229 
C 826 4229 333 3708 333 3144 
C 333 2780 576 2403 1069 2241 
C 442 1997 250 1512 250 1149 
C 250 446 819 -128 1498 -128 
C 2202 -128 2752 455 2752 1138 
C 2752 1557 2502 2000 1933 2222 
z
M 1504 2432 
C 1075 2432 787 2712 787 3136 
C 787 3566 1075 3840 1504 3840 
C 1901 3840 2214 3591 2214 3136 
C 2214 2687 1907 2432 1504 2432 
z
M 1504 267 
C 1139 267 749 517 749 1156 
C 749 1813 1184 2043 1498 2043 
C 1843 2043 2253 1800 2253 1156 
C 2253 491 1830 267 1504 267 
z
" transform="scale(0.015625)"/>
       </defs>
       <use xlink:href="#CMSS17-38" transform="scale(0.996264)"/>
       <use xlink:href="#CMSS17-30" transform="translate(46.843624 0) scale(0.996264)"/>
       <use xlink:href="#CMSS17-25" transform="translate(93.687247 0) scale(0.996264)"/>
      </g>
     </g>
    </g>
    <g id="xtick_6">
     <g id="line2d_11">
      <path d="M 326.990973 199.26766 
L 326.990973 29.86 
" clip-path="url(#p2941d63b49)" style="fill: none; stroke: #cccccc; stroke-opacity: 0.3; stroke-width: 0.5; stroke-linecap: square"/>
     </g>
     <g id="line2d_12">
      <g>
       <use xlink:href="#maaf7e432fe" x="326.990973" y="199.26766" style="fill: #b0b0b0; stroke: #b0b0b0; stroke-width: 0.4"/>
      </g>
     </g>
     <g id="text_6">
      <!-- 100\% -->
      <g transform="translate(312.195915 215.261688) scale(0.13 -0.13)">
       <defs>
        <path id="CMSS17-31" d="M 1818 4288 
L 1696 4288 
C 1350 3940 947 3890 538 3890 
L 538 3520 
C 723 3520 1024 3520 1325 3667 
L 1325 369 
L 570 369 
L 570 0 
L 2573 0 
L 2573 369 
L 1818 369 
L 1818 4288 
z
" transform="scale(0.015625)"/>
       </defs>
       <use xlink:href="#CMSS17-31" transform="scale(0.996264)"/>
       <use xlink:href="#CMSS17-30" transform="translate(46.843624 0) scale(0.996264)"/>
       <use xlink:href="#CMSS17-30" transform="translate(93.687247 0) scale(0.996264)"/>
       <use xlink:href="#CMSS17-25" transform="translate(140.530871 0) scale(0.996264)"/>
      </g>
     </g>
    </g>
    <g id="xtick_7">
     <g id="line2d_13">
      <defs>
       <path id="m33e8e65804" d="M 0 0 
L 0 2 
" style="stroke: #b0b0b0; stroke-width: 0.4"/>
      </defs>
      <g>
       <use xlink:href="#m33e8e65804" x="97.365517" y="199.26766" style="fill: #b0b0b0; stroke: #b0b0b0; stroke-width: 0.4"/>
      </g>
     </g>
    </g>
    <g id="xtick_8">
     <g id="line2d_14">
      <g>
       <use xlink:href="#m33e8e65804" x="109.451067" y="199.26766" style="fill: #b0b0b0; stroke: #b0b0b0; stroke-width: 0.4"/>
      </g>
     </g>
    </g>
    <g id="xtick_9">
     <g id="line2d_15">
      <g>
       <use xlink:href="#m33e8e65804" x="121.536617" y="199.26766" style="fill: #b0b0b0; stroke: #b0b0b0; stroke-width: 0.4"/>
      </g>
     </g>
    </g>
    <g id="xtick_10">
     <g id="line2d_16">
      <g>
       <use xlink:href="#m33e8e65804" x="145.707718" y="199.26766" style="fill: #b0b0b0; stroke: #b0b0b0; stroke-width: 0.4"/>
      </g>
     </g>
    </g>
    <g id="xtick_11">
     <g id="line2d_17">
      <g>
       <use xlink:href="#m33e8e65804" x="157.793268" y="199.26766" style="fill: #b0b0b0; stroke: #b0b0b0; stroke-width: 0.4"/>
      </g>
     </g>
    </g>
    <g id="xtick_12">
     <g id="line2d_18">
      <g>
       <use xlink:href="#m33e8e65804" x="169.878819" y="199.26766" style="fill: #b0b0b0; stroke: #b0b0b0; stroke-width: 0.4"/>
      </g>
     </g>
    </g>
    <g id="xtick_13">
     <g id="line2d_19">
      <g>
       <use xlink:href="#m33e8e65804" x="194.049919" y="199.26766" style="fill: #b0b0b0; stroke: #b0b0b0; stroke-width: 0.4"/>
      </g>
     </g>
    </g>
    <g id="xtick_14">
     <g id="line2d_20">
      <g>
       <use xlink:href="#m33e8e65804" x="206.13547" y="199.26766" style="fill: #b0b0b0; stroke: #b0b0b0; stroke-width: 0.4"/>
      </g>
     </g>
    </g>
    <g id="xtick_15">
     <g id="line2d_21">
      <g>
       <use xlink:href="#m33e8e65804" x="218.22102" y="199.26766" style="fill: #b0b0b0; stroke: #b0b0b0; stroke-width: 0.4"/>
      </g>
     </g>
    </g>
    <g id="xtick_16">
     <g id="line2d_22">
      <g>
       <use xlink:href="#m33e8e65804" x="242.392121" y="199.26766" style="fill: #b0b0b0; stroke: #b0b0b0; stroke-width: 0.4"/>
      </g>
     </g>
    </g>
    <g id="xtick_17">
     <g id="line2d_23">
      <g>
       <use xlink:href="#m33e8e65804" x="254.477671" y="199.26766" style="fill: #b0b0b0; stroke: #b0b0b0; stroke-width: 0.4"/>
      </g>
     </g>
    </g>
    <g id="xtick_18">
     <g id="line2d_24">
      <g>
       <use xlink:href="#m33e8e65804" x="266.563222" y="199.26766" style="fill: #b0b0b0; stroke: #b0b0b0; stroke-width: 0.4"/>
      </g>
     </g>
    </g>
    <g id="xtick_19">
     <g id="line2d_25">
      <g>
       <use xlink:href="#m33e8e65804" x="290.734322" y="199.26766" style="fill: #b0b0b0; stroke: #b0b0b0; stroke-width: 0.4"/>
      </g>
     </g>
    </g>
    <g id="xtick_20">
     <g id="line2d_26">
      <g>
       <use xlink:href="#m33e8e65804" x="302.819873" y="199.26766" style="fill: #b0b0b0; stroke: #b0b0b0; stroke-width: 0.4"/>
      </g>
     </g>
    </g>
    <g id="xtick_21">
     <g id="line2d_27">
      <g>
       <use xlink:href="#m33e8e65804" x="314.905423" y="199.26766" style="fill: #b0b0b0; stroke: #b0b0b0; stroke-width: 0.4"/>
      </g>
     </g>
    </g>
   </g>
   <g id="matplotlib.axis_2">
    <g id="ytick_1">
     <g id="line2d_28">
      <path d="M 85.279966 184.566995 
L 326.990973 184.566995 
" clip-path="url(#p2941d63b49)" style="fill: none; stroke: #cccccc; stroke-width: 0.4; stroke-linecap: square"/>
     </g>
     <g id="line2d_29">
      <defs>
       <path id="md41485bef3" d="M 0 0 
L -3.5 0 
" style="stroke: #b0b0b0; stroke-width: 0.4"/>
      </defs>
      <g>
       <use xlink:href="#md41485bef3" x="85.279966" y="184.566995" style="fill: #b0b0b0; stroke: #b0b0b0; stroke-width: 0.4"/>
      </g>
     </g>
     <g id="text_7">
      <!-- som-rs-bc -->
      <g transform="translate(26.930519 189.064009) scale(0.13 -0.13)">
       <defs>
        <path id="CMSS17-73" d="M 2061 2627 
C 1683 2807 1389 2807 1197 2807 
C 742 2807 198 2648 198 2003 
C 198 1359 902 1218 1094 1179 
C 1389 1122 1715 1058 1715 740 
C 1715 337 1254 337 1171 337 
C 915 337 563 407 243 638 
L 166 210 
C 531 0 883 -64 1178 -64 
C 1965 -64 2163 416 2163 781 
C 2163 1094 1984 1305 1862 1401 
C 1651 1568 1574 1587 1050 1696 
C 960 1709 646 1779 646 2066 
C 646 2432 1050 2432 1139 2432 
C 1555 2432 1811 2303 1984 2208 
L 2061 2627 
z
" transform="scale(0.015625)"/>
        <path id="CMSS17-6f" d="M 2829 1356 
C 2829 2176 2221 2816 1504 2816 
C 768 2816 173 2157 173 1356 
C 173 544 787 -64 1498 -64 
C 2227 -64 2829 563 2829 1356 
z
M 1504 337 
C 1050 337 659 709 659 1408 
C 659 2151 1114 2427 1498 2427 
C 1914 2427 2342 2126 2342 1408 
C 2342 683 1926 337 1504 337 
z
" transform="scale(0.015625)"/>
        <path id="CMSS17-6d" d="M 4288 1877 
C 4288 2308 4179 2816 3462 2816 
C 2982 2816 2694 2516 2566 2331 
C 2451 2670 2182 2816 1798 2816 
C 1363 2816 1088 2568 941 2389 
L 941 2758 
L 474 2758 
L 474 0 
L 960 0 
L 960 1559 
C 960 1939 1101 2428 1555 2428 
C 2138 2428 2138 2016 2138 1829 
L 2138 0 
L 2624 0 
L 2624 1559 
C 2624 1939 2765 2428 3219 2428 
C 3802 2428 3802 2016 3802 1829 
L 3802 0 
L 4288 0 
L 4288 1877 
z
" transform="scale(0.015625)"/>
        <path id="CMSS17-2d" d="M 1664 1216 
L 1664 1585 
L 64 1585 
L 64 1216 
L 1664 1216 
z
" transform="scale(0.015625)"/>
        <path id="CMSS17-72" d="M 954 1363 
C 954 1965 1395 2368 1958 2368 
L 1958 2789 
C 1549 2789 1165 2585 934 2253 
L 934 2758 
L 480 2758 
L 480 0 
L 954 0 
L 954 1363 
z
" transform="scale(0.015625)"/>
        <path id="CMSS17-62" d="M 954 4416 
L 480 4416 
L 480 -13 
L 966 -13 
L 966 274 
C 1210 38 1504 -64 1766 -64 
C 2381 -64 2880 549 2880 1352 
C 2880 2086 2496 2756 1926 2756 
C 1523 2756 1165 2591 954 2419 
L 954 4416 
z
M 966 2046 
C 1107 2222 1306 2368 1587 2368 
C 1965 2368 2394 2097 2394 1352 
C 2394 558 1882 325 1530 325 
C 1402 325 1267 356 1139 464 
C 966 615 966 709 966 797 
L 966 2046 
z
" transform="scale(0.015625)"/>
        <path id="CMSS17-63" d="M 2464 2541 
C 2464 2585 2170 2714 2093 2739 
C 1882 2816 1613 2816 1542 2816 
C 710 2816 211 2093 211 1363 
C 211 595 768 -64 1517 -64 
C 1946 -64 2253 76 2502 242 
L 2464 664 
C 2189 453 1869 337 1523 337 
C 1024 337 698 774 698 1369 
C 698 1831 909 2414 1549 2414 
C 1901 2414 2099 2343 2394 2145 
L 2464 2541 
z
" transform="scale(0.015625)"/>
       </defs>
       <use xlink:href="#CMSS17-73" transform="scale(0.996264)"/>
       <use xlink:href="#CMSS17-6f" transform="translate(35.913542 0) scale(0.996264)"/>
       <use xlink:href="#CMSS17-6d" transform="translate(82.757166 0) scale(0.996264)"/>
       <use xlink:href="#CMSS17-2d" transform="translate(156.98642 0) scale(0.996264)"/>
       <use xlink:href="#CMSS17-72" transform="translate(188.215533 0) scale(0.996264)"/>
       <use xlink:href="#CMSS17-73" transform="translate(220.125305 0) scale(0.996264)"/>
       <use xlink:href="#CMSS17-2d" transform="translate(256.038847 0) scale(0.996264)"/>
       <use xlink:href="#CMSS17-62" transform="translate(287.26796 0) scale(0.996264)"/>
       <use xlink:href="#CMSS17-63" transform="translate(338.075342 0) scale(0.996264)"/>
      </g>
     </g>
    </g>
    <g id="ytick_2">
     <g id="line2d_30">
      <path d="M 85.279966 164.566091 
L 326.990973 164.566091 
" clip-path="url(#p2941d63b49)" style="fill: none; stroke: #cccccc; stroke-width: 0.4; stroke-linecap: square"/>
     </g>
     <g id="line2d_31">
      <g>
       <use xlink:href="#md41485bef3" x="85.279966" y="164.566091" style="fill: #b0b0b0; stroke: #b0b0b0; stroke-width: 0.4"/>
      </g>
     </g>
     <g id="text_8">
      <!-- som-rs-ast -->
      <g transform="translate(23.913057 169.063105) scale(0.13 -0.13)">
       <defs>
        <path id="CMSS17-61" d="M 2406 1791 
C 2406 2392 1978 2808 1402 2808 
C 1120 2808 813 2757 461 2553 
L 499 2135 
C 659 2248 934 2432 1395 2432 
C 1722 2432 1920 2180 1920 1782 
L 1920 1536 
C 896 1536 256 1238 256 726 
C 256 461 416 -64 947 -64 
C 1043 -64 1562 -64 1933 217 
L 1933 -19 
L 2406 -19 
L 2406 1791 
z
M 1920 816 
C 1920 701 1920 548 1728 434 
C 1562 325 1350 325 1261 325 
C 941 325 723 511 723 744 
C 723 1211 1722 1211 1920 1211 
L 1920 816 
z
" transform="scale(0.015625)"/>
        <path id="CMSS17-74" d="M 1069 2368 
L 1901 2368 
L 1901 2737 
L 1069 2737 
L 1069 3520 
L 614 3520 
L 614 2737 
L 109 2737 
L 109 2368 
L 602 2368 
L 602 749 
C 602 384 685 -64 1107 -64 
C 1427 -64 1722 25 2003 172 
L 1901 548 
C 1747 414 1562 337 1363 337 
C 1082 337 1069 696 1069 856 
L 1069 2368 
z
" transform="scale(0.015625)"/>
       </defs>
       <use xlink:href="#CMSS17-73" transform="scale(0.996264)"/>
       <use xlink:href="#CMSS17-6f" transform="translate(35.913542 0) scale(0.996264)"/>
       <use xlink:href="#CMSS17-6d" transform="translate(82.757166 0) scale(0.996264)"/>
       <use xlink:href="#CMSS17-2d" transform="translate(156.98642 0) scale(0.996264)"/>
       <use xlink:href="#CMSS17-72" transform="translate(188.215533 0) scale(0.996264)"/>
       <use xlink:href="#CMSS17-73" transform="translate(220.125305 0) scale(0.996264)"/>
       <use xlink:href="#CMSS17-2d" transform="translate(256.038847 0) scale(0.996264)"/>
       <use xlink:href="#CMSS17-61" transform="translate(287.26796 0) scale(0.996264)"/>
       <use xlink:href="#CMSS17-73" transform="translate(332.189881 0) scale(0.996264)"/>
       <use xlink:href="#CMSS17-74" transform="translate(368.103423 0) scale(0.996264)"/>
      </g>
     </g>
    </g>
    <g id="ytick_3">
     <g id="line2d_32">
      <path d="M 85.279966 144.565186 
L 326.990973 144.565186 
" clip-path="url(#p2941d63b49)" style="fill: none; stroke: #cccccc; stroke-width: 0.4; stroke-linecap: square"/>
     </g>
     <g id="line2d_33">
      <g>
       <use xlink:href="#md41485bef3" x="85.279966" y="144.565186" style="fill: #b0b0b0; stroke: #b0b0b0; stroke-width: 0.4"/>
      </g>
     </g>
     <g id="text_9">
      <!-- Ripgrep -->
      <g transform="translate(37.837205 149.0622) scale(0.13 -0.13)">
       <defs>
        <path id="CMSS17-52" d="M 2522 2109 
L 2534 2115 
C 3533 2459 3539 3147 3539 3268 
C 3539 3873 2925 4453 2003 4453 
L 570 4453 
L 570 32 
L 1094 32 
L 1094 2048 
L 2035 2048 
L 3168 32 
L 3706 32 
L 2522 2109 
z
M 1094 2437 
L 1094 4096 
L 1933 4096 
C 2746 4096 3034 3637 3034 3267 
C 3034 2922 2778 2437 1933 2437 
L 1094 2437 
z
" transform="scale(0.015625)"/>
        <path id="CMSS17-69" d="M 979 4183 
L 442 4183 
L 442 3648 
L 979 3648 
L 979 4183 
z
M 947 2739 
L 474 2739 
L 474 0 
L 947 0 
L 947 2739 
z
" transform="scale(0.015625)"/>
        <path id="CMSS17-70" d="M 966 333 
C 1178 129 1466 -5 1773 -5 
C 2368 -5 2880 603 2880 1412 
C 2880 2159 2496 2816 1946 2816 
C 1626 2816 1242 2702 954 2472 
L 954 2765 
L 480 2765 
L 480 -1216 
L 966 -1216 
L 966 333 
z
M 966 2100 
C 1018 2176 1235 2415 1587 2415 
C 2035 2415 2394 1960 2394 1412 
C 2394 787 1958 384 1530 384 
C 1402 384 1267 415 1139 523 
C 966 674 966 768 966 857 
L 966 2100 
z
" transform="scale(0.015625)"/>
        <path id="CMSS17-67" d="M 2848 2808 
C 2483 2808 2170 2738 1914 2617 
C 1702 2777 1485 2808 1338 2808 
C 781 2808 358 2349 358 1814 
C 358 1468 550 1207 563 1195 
C 448 1035 384 863 384 672 
C 384 448 474 289 544 200 
C 211 -3 166 -314 166 -435 
C 166 -898 749 -1280 1498 -1280 
C 2253 -1280 2835 -898 2835 -428 
C 2835 448 1856 448 1587 448 
L 1069 448 
C 973 448 717 448 717 791 
C 717 921 774 1004 781 1010 
C 877 940 1075 832 1338 832 
C 1869 832 2310 1278 2310 1827 
C 2310 2132 2170 2355 2112 2432 
L 2131 2432 
C 2150 2432 2419 2432 2515 2432 
C 2720 2432 2739 2429 2918 2419 
L 2848 2808 
z
M 1338 1182 
C 1120 1182 813 1315 813 1823 
C 813 2375 1165 2464 1331 2464 
C 1549 2464 1856 2331 1856 1823 
C 1856 1271 1504 1182 1338 1182 
z
M 1581 -10 
C 1734 -10 2381 -10 2381 -442 
C 2381 -714 1984 -929 1504 -929 
C 1018 -929 621 -720 621 -435 
C 621 -403 621 -10 1062 -10 
L 1581 -10 
z
" transform="scale(0.015625)"/>
        <path id="CMSS17-65" d="M 2502 1377 
C 2502 1590 2490 2003 2285 2345 
C 2061 2713 1696 2816 1421 2816 
C 755 2816 192 2188 192 1375 
C 192 582 774 -64 1510 -64 
C 1798 -64 2150 19 2470 248 
C 2470 274 2458 414 2451 420 
C 2451 433 2432 630 2432 656 
C 2125 407 1773 325 1517 325 
C 1107 325 666 667 646 1377 
L 2502 1377 
z
M 698 1728 
C 781 2084 1062 2421 1421 2421 
C 1517 2421 1965 2421 2080 1728 
L 698 1728 
z
" transform="scale(0.015625)"/>
       </defs>
       <use xlink:href="#CMSS17-52" transform="scale(0.996264)"/>
       <use xlink:href="#CMSS17-69" transform="translate(60.416155 0) scale(0.996264)"/>
       <use xlink:href="#CMSS17-70" transform="translate(82.596878 0) scale(0.996264)"/>
       <use xlink:href="#CMSS17-67" transform="translate(130.801821 0) scale(0.996264)"/>
       <use xlink:href="#CMSS17-72" transform="translate(177.645445 0) scale(0.996264)"/>
       <use xlink:href="#CMSS17-65" transform="translate(209.555217 0) scale(0.996264)"/>
       <use xlink:href="#CMSS17-70" transform="translate(251.194039 0) scale(0.996264)"/>
      </g>
     </g>
    </g>
    <g id="ytick_4">
     <g id="line2d_34">
      <path d="M 85.279966 124.564282 
L 326.990973 124.564282 
" clip-path="url(#p2941d63b49)" style="fill: none; stroke: #cccccc; stroke-width: 0.4; stroke-linecap: square"/>
     </g>
     <g id="line2d_35">
      <g>
       <use xlink:href="#md41485bef3" x="85.279966" y="124.564282" style="fill: #b0b0b0; stroke: #b0b0b0; stroke-width: 0.4"/>
      </g>
     </g>
     <g id="text_10">
      <!-- Regex-Redux -->
      <g transform="translate(9.866032 129.061296) scale(0.13 -0.13)">
       <defs>
        <path id="CMSS17-78" d="M 1587 1414 
L 2656 2739 
L 2099 2739 
L 1363 1777 
L 602 2739 
L 32 2739 
L 1139 1414 
L 0 0 
L 563 0 
L 1363 1121 
L 2195 0 
L 2758 0 
L 1587 1414 
z
" transform="scale(0.015625)"/>
        <path id="CMSS17-64" d="M 2611 4416 
L 2138 4416 
L 2138 2438 
C 1939 2603 1613 2756 1254 2756 
C 672 2756 211 2131 211 1347 
C 211 562 666 -64 1235 -64 
C 1677 -64 1971 172 2125 306 
L 2125 -13 
L 2611 -13 
L 2611 4416 
z
M 2125 836 
C 2125 747 2125 653 1926 482 
C 1798 375 1645 325 1498 325 
C 1152 325 698 576 698 1340 
C 698 2134 1210 2368 1562 2368 
C 1798 2368 1990 2254 2125 2065 
L 2125 836 
z
" transform="scale(0.015625)"/>
        <path id="CMSS17-75" d="M 2618 2739 
L 2131 2739 
L 2131 972 
C 2131 498 1786 306 1421 306 
C 998 306 960 447 960 709 
L 960 2739 
L 474 2739 
L 474 678 
C 474 179 646 -64 1088 -64 
C 1306 -64 1798 -13 2144 306 
L 2144 0 
L 2618 0 
L 2618 2739 
z
" transform="scale(0.015625)"/>
       </defs>
       <use xlink:href="#CMSS17-52" transform="scale(0.996264)"/>
       <use xlink:href="#CMSS17-65" transform="translate(60.416155 0) scale(0.996264)"/>
       <use xlink:href="#CMSS17-67" transform="translate(102.054977 0) scale(0.996264)"/>
       <use xlink:href="#CMSS17-65" transform="translate(148.8986 0) scale(0.996264)"/>
       <use xlink:href="#CMSS17-78" transform="translate(190.537423 0) scale(0.996264)"/>
       <use xlink:href="#CMSS17-2d" transform="translate(233.537564 0) scale(0.996264)"/>
       <use xlink:href="#CMSS17-52" transform="translate(264.766677 0) scale(0.996264)"/>
       <use xlink:href="#CMSS17-65" transform="translate(325.182832 0) scale(0.996264)"/>
       <use xlink:href="#CMSS17-64" transform="translate(366.821654 0) scale(0.996264)"/>
       <use xlink:href="#CMSS17-75" transform="translate(415.026597 0) scale(0.996264)"/>
       <use xlink:href="#CMSS17-78" transform="translate(463.23154 0) scale(0.996264)"/>
      </g>
     </g>
    </g>
    <g id="ytick_5">
     <g id="line2d_36">
      <path d="M 85.279966 104.563378 
L 326.990973 104.563378 
" clip-path="url(#p2941d63b49)" style="fill: none; stroke: #cccccc; stroke-width: 0.4; stroke-linecap: square"/>
     </g>
     <g id="line2d_37">
      <g>
       <use xlink:href="#md41485bef3" x="85.279966" y="104.563378" style="fill: #b0b0b0; stroke: #b0b0b0; stroke-width: 0.4"/>
      </g>
     </g>
     <g id="text_11">
      <!-- Grmtools -->
      <g transform="translate(30.030436 109.060392) scale(0.13 -0.13)">
       <defs>
        <path id="CMSS17-47" d="M 3610 1856 
L 2336 1856 
L 2336 1461 
L 3123 1461 
L 3123 471 
C 2874 401 2618 350 2362 350 
C 1466 350 934 1301 934 2200 
C 934 3095 1491 4032 2362 4032 
C 2854 4032 3130 3881 3469 3627 
L 3552 4134 
C 3130 4351 2867 4440 2387 4440 
C 1146 4440 397 3324 397 2182 
C 397 1090 1152 -64 2349 -64 
C 2797 -64 3213 51 3610 248 
L 3610 1856 
z
" transform="scale(0.015625)"/>
        <path id="CMSS17-6c" d="M 947 4416 
L 474 4416 
L 474 0 
L 947 0 
L 947 4416 
z
" transform="scale(0.015625)"/>
       </defs>
       <use xlink:href="#CMSS17-47" transform="scale(0.996264)"/>
       <use xlink:href="#CMSS17-72" transform="translate(62.458226 0) scale(0.996264)"/>
       <use xlink:href="#CMSS17-6d" transform="translate(94.367998 0) scale(0.996264)"/>
       <use xlink:href="#CMSS17-74" transform="translate(168.597252 0) scale(0.996264)"/>
       <use xlink:href="#CMSS17-6f" transform="translate(202.428819 0) scale(0.996264)"/>
       <use xlink:href="#CMSS17-6f" transform="translate(251.874881 0) scale(0.996264)"/>
       <use xlink:href="#CMSS17-6c" transform="translate(298.718505 0) scale(0.996264)"/>
       <use xlink:href="#CMSS17-73" transform="translate(320.899228 0) scale(0.996264)"/>
      </g>
     </g>
    </g>
    <g id="ytick_6">
     <g id="line2d_38">
      <path d="M 85.279966 84.562473 
L 326.990973 84.562473 
" clip-path="url(#p2941d63b49)" style="fill: none; stroke: #cccccc; stroke-width: 0.4; stroke-linecap: square"/>
     </g>
     <g id="line2d_39">
      <g>
       <use xlink:href="#md41485bef3" x="85.279966" y="84.562473" style="fill: #b0b0b0; stroke: #b0b0b0; stroke-width: 0.4"/>
      </g>
     </g>
     <g id="text_12">
      <!-- Fd -->
      <g transform="translate(64.571713 89.059487) scale(0.13 -0.13)">
       <defs>
        <path id="CMSS17-46" d="M 2918 1984 
L 2918 2373 
L 1101 2373 
L 1101 3968 
L 1882 3968 
C 1958 3968 2035 3968 2112 3968 
L 3168 3968 
L 3168 4375 
L 563 4375 
L 563 -32 
L 1101 -32 
L 1101 1984 
L 2918 1984 
z
" transform="scale(0.015625)"/>
       </defs>
       <use xlink:href="#CMSS17-46" transform="scale(0.996264)"/>
       <use xlink:href="#CMSS17-64" transform="translate(53.289559 0) scale(0.996264)"/>
      </g>
     </g>
    </g>
    <g id="ytick_7">
     <g id="line2d_40">
      <path d="M 85.279966 64.561569 
L 326.990973 64.561569 
" clip-path="url(#p2941d63b49)" style="fill: none; stroke: #cccccc; stroke-width: 0.4; stroke-linecap: square"/>
     </g>
     <g id="line2d_41">
      <g>
       <use xlink:href="#md41485bef3" x="85.279966" y="64.561569" style="fill: #b0b0b0; stroke: #b0b0b0; stroke-width: 0.4"/>
      </g>
     </g>
     <g id="text_13">
      <!-- Binary Trees -->
      <g transform="translate(12.282416 69.058583) scale(0.13 -0.13)">
       <defs>
        <path id="CMSS17-42" d="M 570 4416 
L 570 0 
L 2163 0 
C 3034 0 3667 574 3667 1200 
C 3667 1685 3251 2176 2502 2317 
C 3334 2558 3501 3040 3501 3313 
C 3501 3883 2874 4416 1997 4416 
L 570 4416 
z
M 1088 2496 
L 1088 4059 
L 1824 4059 
C 2483 4059 3002 3724 3002 3306 
C 3002 2926 2592 2496 1766 2496 
L 1088 2496 
z
M 1088 357 
L 1088 2107 
L 1939 2107 
C 2630 2107 3162 1679 3162 1206 
C 3162 772 2694 357 1984 357 
L 1088 357 
z
" transform="scale(0.015625)"/>
        <path id="CMSS17-6e" d="M 2618 1877 
C 2618 2283 2522 2816 1798 2816 
C 1389 2816 1120 2606 941 2389 
L 941 2758 
L 474 2758 
L 474 0 
L 960 0 
L 960 1559 
C 960 1964 1114 2428 1549 2428 
C 2112 2428 2131 2048 2131 1829 
L 2131 0 
L 2618 0 
L 2618 1877 
z
" transform="scale(0.015625)"/>
        <path id="CMSS17-79" d="M 2675 2752 
L 2176 2752 
C 1632 1294 1446 702 1434 383 
L 1427 383 
C 1408 696 1126 1460 902 2007 
L 602 2752 
L 83 2752 
L 1216 13 
C 1146 -178 1043 -465 1011 -529 
C 870 -885 774 -885 672 -885 
C 646 -885 442 -885 211 -809 
L 250 -1229 
C 410 -1261 570 -1280 685 -1280 
C 845 -1280 1165 -1280 1459 -497 
L 2675 2752 
z
" transform="scale(0.015625)"/>
        <path id="CMSS17-54" d="M 2317 3968 
L 2848 3968 
C 2925 3968 3002 3968 3078 3968 
L 3878 3968 
L 3878 4376 
L 218 4376 
L 218 3968 
L 1018 3968 
C 1094 3968 1171 3968 1248 3968 
L 1779 3968 
L 1779 -32 
L 2317 -32 
L 2317 3968 
z
" transform="scale(0.015625)"/>
       </defs>
       <use xlink:href="#CMSS17-42" transform="scale(0.996264)"/>
       <use xlink:href="#CMSS17-69" transform="translate(62.33804 0) scale(0.996264)"/>
       <use xlink:href="#CMSS17-6e" transform="translate(84.518763 0) scale(0.996264)"/>
       <use xlink:href="#CMSS17-61" transform="translate(132.723706 0) scale(0.996264)"/>
       <use xlink:href="#CMSS17-72" transform="translate(175.043173 0) scale(0.996264)"/>
       <use xlink:href="#CMSS17-79" transform="translate(206.952946 0) scale(0.996264)"/>
       <use xlink:href="#CMSS17-54" transform="translate(281.1822 0) scale(0.996264)"/>
       <use xlink:href="#CMSS17-72" transform="translate(337.194399 0) scale(0.996264)"/>
       <use xlink:href="#CMSS17-65" transform="translate(369.104171 0) scale(0.996264)"/>
       <use xlink:href="#CMSS17-65" transform="translate(410.742993 0) scale(0.996264)"/>
       <use xlink:href="#CMSS17-73" transform="translate(452.381815 0) scale(0.996264)"/>
      </g>
     </g>
    </g>
    <g id="ytick_8">
     <g id="line2d_42">
      <path d="M 85.279966 44.560665 
L 326.990973 44.560665 
" clip-path="url(#p2941d63b49)" style="fill: none; stroke: #cccccc; stroke-width: 0.4; stroke-linecap: square"/>
     </g>
     <g id="line2d_43">
      <g>
       <use xlink:href="#md41485bef3" x="85.279966" y="44.560665" style="fill: #b0b0b0; stroke: #b0b0b0; stroke-width: 0.4"/>
      </g>
     </g>
     <g id="text_14">
      <!-- Alacritty -->
      <g transform="translate(33.310282 49.057679) scale(0.13 -0.13)">
       <defs>
        <path id="CMSS17-41" d="M 2272 4416 
L 1722 4416 
L 166 0 
L 653 0 
L 1101 1280 
L 2816 1280 
L 3270 0 
L 3827 0 
L 2272 4416 
z
M 2694 1637 
L 1222 1637 
C 1530 2528 1914 3638 1958 3925 
L 1965 3925 
C 2010 3663 2138 3281 2246 2956 
L 2694 1637 
z
" transform="scale(0.015625)"/>
       </defs>
       <use xlink:href="#CMSS17-41" transform="scale(0.996264)"/>
       <use xlink:href="#CMSS17-6c" transform="translate(62.217855 0) scale(0.996264)"/>
       <use xlink:href="#CMSS17-61" transform="translate(84.398578 0) scale(0.996264)"/>
       <use xlink:href="#CMSS17-63" transform="translate(129.320499 0) scale(0.996264)"/>
       <use xlink:href="#CMSS17-72" transform="translate(170.959321 0) scale(0.996264)"/>
       <use xlink:href="#CMSS17-69" transform="translate(202.869093 0) scale(0.996264)"/>
       <use xlink:href="#CMSS17-74" transform="translate(225.049816 0) scale(0.996264)"/>
       <use xlink:href="#CMSS17-74" transform="translate(258.881383 0) scale(0.996264)"/>
       <use xlink:href="#CMSS17-79" transform="translate(290.110496 0) scale(0.996264)"/>
      </g>
     </g>
    </g>
   </g>
   <g id="patch_3">
    <path d="M 85.279966 191.567312 
L 263.904401 191.567312 
L 263.904401 177.566679 
L 85.279966 177.566679 
z
" clip-path="url(#p2941d63b49)" style="fill: #3a87d9; stroke: #1a5c85; stroke-width: 0.5; stroke-linejoin: miter"/>
   </g>
   <g id="patch_4">
    <path d="M 85.279966 171.566407 
L 188.297198 171.566407 
L 188.297198 157.565774 
L 85.279966 157.565774 
z
" clip-path="url(#p2941d63b49)" style="fill: #3a87d9; stroke: #1a5c85; stroke-width: 0.5; stroke-linejoin: miter"/>
   </g>
   <g id="patch_5">
    <path d="M 85.279966 151.565503 
L 120.134694 151.565503 
L 120.134694 137.56487 
L 85.279966 137.56487 
z
" clip-path="url(#p2941d63b49)" style="fill: #3a87d9; stroke: #1a5c85; stroke-width: 0.5; stroke-linejoin: miter"/>
   </g>
   <g id="patch_6">
    <path d="M 85.279966 131.564599 
L 167.26834 131.564599 
L 167.26834 117.563966 
L 85.279966 117.563966 
z
" clip-path="url(#p2941d63b49)" style="fill: #3a87d9; stroke: #1a5c85; stroke-width: 0.5; stroke-linejoin: miter"/>
   </g>
   <g id="patch_7">
    <path d="M 85.279966 111.563694 
L 293.368972 111.563694 
L 293.368972 97.563061 
L 85.279966 97.563061 
z
" clip-path="url(#p2941d63b49)" style="fill: #3a87d9; stroke: #1a5c85; stroke-width: 0.5; stroke-linejoin: miter"/>
   </g>
   <g id="patch_8">
    <path d="M 85.279966 91.56279 
L 94.948407 91.56279 
L 94.948407 77.562157 
L 85.279966 77.562157 
z
" clip-path="url(#p2941d63b49)" style="fill: #3a87d9; stroke: #1a5c85; stroke-width: 0.5; stroke-linejoin: miter"/>
   </g>
   <g id="patch_9">
    <path d="M 85.279966 71.561886 
L 326.990973 71.561886 
L 326.990973 57.561253 
L 85.279966 57.561253 
z
" clip-path="url(#p2941d63b49)" style="fill: #3a87d9; stroke: #1a5c85; stroke-width: 0.5; stroke-linejoin: miter"/>
   </g>
   <g id="patch_10">
    <path d="M 85.279966 51.560981 
L 100.652786 51.560981 
L 100.652786 37.560348 
L 85.279966 37.560348 
z
" clip-path="url(#p2941d63b49)" style="fill: #3a87d9; stroke: #1a5c85; stroke-width: 0.5; stroke-linejoin: miter"/>
   </g>
   <g id="patch_11">
    <path d="M 263.904401 191.567312 
L 326.990973 191.567312 
L 326.990973 177.566679 
L 263.904401 177.566679 
z
" clip-path="url(#p2941d63b49)" style="fill: #34495e; stroke: #2c3e50; stroke-width: 0.5; stroke-linejoin: miter"/>
   </g>
   <g id="patch_12">
    <path d="M 188.297198 171.566407 
L 326.990973 171.566407 
L 326.990973 157.565774 
L 188.297198 157.565774 
z
" clip-path="url(#p2941d63b49)" style="fill: #34495e; stroke: #2c3e50; stroke-width: 0.5; stroke-linejoin: miter"/>
   </g>
   <g id="patch_13">
    <path d="M 120.134694 151.565503 
L 320.633974 151.565503 
L 320.633974 137.56487 
L 120.134694 137.56487 
z
" clip-path="url(#p2941d63b49)" style="fill: #34495e; stroke: #2c3e50; stroke-width: 0.5; stroke-linejoin: miter"/>
   </g>
   <g id="patch_14">
    <path d="M 167.26834 131.564599 
L 326.990973 131.564599 
L 326.990973 117.563966 
L 167.26834 117.563966 
z
" clip-path="url(#p2941d63b49)" style="fill: #34495e; stroke: #2c3e50; stroke-width: 0.5; stroke-linejoin: miter"/>
   </g>
   <g id="patch_15">
    <path d="M 293.368972 111.563694 
L 326.990973 111.563694 
L 326.990973 97.563061 
L 293.368972 97.563061 
z
" clip-path="url(#p2941d63b49)" style="fill: #34495e; stroke: #2c3e50; stroke-width: 0.5; stroke-linejoin: miter"/>
   </g>
   <g id="patch_16">
    <path d="M 94.948407 91.56279 
L 306.179656 91.56279 
L 306.179656 77.562157 
L 94.948407 77.562157 
z
" clip-path="url(#p2941d63b49)" style="fill: #34495e; stroke: #2c3e50; stroke-width: 0.5; stroke-linejoin: miter"/>
   </g>
   <g id="patch_17">
    <path d="M 326.990973 71.561886 
L 326.990973 71.561886 
L 326.990973 57.561253 
L 326.990973 57.561253 
z
" clip-path="url(#p2941d63b49)" style="fill: #34495e; stroke: #2c3e50; stroke-width: 0.5; stroke-linejoin: miter"/>
   </g>
   <g id="patch_18">
    <path d="M 100.652786 51.560981 
L 326.507551 51.560981 
L 326.507551 37.560348 
L 100.652786 37.560348 
z
" clip-path="url(#p2941d63b49)" style="fill: #34495e; stroke: #2c3e50; stroke-width: 0.5; stroke-linejoin: miter"/>
   </g>
   <g id="patch_19">
    <path d="M 326.990973 191.567312 
L 326.990973 191.567312 
L 326.990973 177.566679 
L 326.990973 177.566679 
z
" clip-path="url(#p2941d63b49)" style="fill: #ff8f2e; stroke: #d66000; stroke-width: 0.5; stroke-linejoin: miter"/>
   </g>
   <g id="patch_20">
    <path d="M 326.990973 171.566407 
L 326.990973 171.566407 
L 326.990973 157.565774 
L 326.990973 157.565774 
z
" clip-path="url(#p2941d63b49)" style="fill: #ff8f2e; stroke: #d66000; stroke-width: 0.5; stroke-linejoin: miter"/>
   </g>
   <g id="patch_21">
    <path d="M 320.633974 151.565503 
L 326.990973 151.565503 
L 326.990973 137.56487 
L 320.633974 137.56487 
z
" clip-path="url(#p2941d63b49)" style="fill: #ff8f2e; stroke: #d66000; stroke-width: 0.5; stroke-linejoin: miter"/>
   </g>
   <g id="patch_22">
    <path d="M 326.990973 131.564599 
L 326.990973 131.564599 
L 326.990973 117.563966 
L 326.990973 117.563966 
z
" clip-path="url(#p2941d63b49)" style="fill: #ff8f2e; stroke: #d66000; stroke-width: 0.5; stroke-linejoin: miter"/>
   </g>
   <g id="patch_23">
    <path d="M 326.990973 111.563694 
L 326.990973 111.563694 
L 326.990973 97.563061 
L 326.990973 97.563061 
z
" clip-path="url(#p2941d63b49)" style="fill: #ff8f2e; stroke: #d66000; stroke-width: 0.5; stroke-linejoin: miter"/>
   </g>
   <g id="patch_24">
    <path d="M 306.179656 91.56279 
L 326.990973 91.56279 
L 326.990973 77.562157 
L 306.179656 77.562157 
z
" clip-path="url(#p2941d63b49)" style="fill: #ff8f2e; stroke: #d66000; stroke-width: 0.5; stroke-linejoin: miter"/>
   </g>
   <g id="patch_25">
    <path d="M 326.990973 71.561886 
L 326.990973 71.561886 
L 326.990973 57.561253 
L 326.990973 57.561253 
z
" clip-path="url(#p2941d63b49)" style="fill: #ff8f2e; stroke: #d66000; stroke-width: 0.5; stroke-linejoin: miter"/>
   </g>
   <g id="patch_26">
    <path d="M 326.507551 51.560981 
L 326.990973 51.560981 
L 326.990973 37.560348 
L 326.507551 37.560348 
z
" clip-path="url(#p2941d63b49)" style="fill: #ff8f2e; stroke: #d66000; stroke-width: 0.5; stroke-linejoin: miter"/>
   </g>
   <g id="patch_27">
    <path d="M 85.279966 199.26766 
L 85.279966 29.86 
" style="fill: none; stroke: #b0b0b0; stroke-width: 0.4; stroke-linejoin: miter; stroke-linecap: square"/>
   </g>
   <g id="patch_28">
    <path d="M 85.279966 199.26766 
L 326.990973 199.26766 
" style="fill: none; stroke: #b0b0b0; stroke-width: 0.4; stroke-linejoin: miter; stroke-linecap: square"/>
   </g>
  </g>
  <g id="legend_1">
   <g id="line2d_44">
    <path d="M 12.4 17.563574 
L 17.6 17.563574 
L 22.8 17.563574 
" style="fill: none; stroke: #3a87d9; stroke-width: 4; stroke-linecap: square"/>
   </g>
   <g id="text_15">
    <!-- \texttt{Gc&lt;T&gt;} (+ owned) -->
    <g transform="translate(33.2 22.113574) scale(0.13 -0.13)">
     <defs>
      <path id="CMTT12-47" d="M 2816 1357 
C 2944 1357 3110 1357 3110 1542 
C 3110 1728 2938 1728 2848 1728 
L 2131 1728 
C 2042 1728 1869 1728 1869 1542 
C 1869 1357 2042 1357 2131 1357 
L 2394 1357 
C 2362 971 2189 307 1664 307 
C 1146 307 653 1000 653 1952 
C 653 2930 1165 3603 1670 3603 
C 1978 3603 2317 3360 2400 2720 
C 2419 2560 2541 2560 2605 2560 
C 2816 2560 2816 2675 2816 2803 
L 2816 3731 
C 2816 3833 2816 3974 2637 3974 
C 2528 3974 2490 3904 2470 3872 
L 2387 3667 
C 2176 3859 1920 3974 1638 3974 
C 883 3974 237 3116 237 1958 
C 237 782 890 -64 1638 -64 
C 1914 -64 2182 51 2400 288 
C 2400 122 2400 0 2611 0 
C 2816 0 2816 134 2816 254 
L 2816 1357 
z
" transform="scale(0.015625)"/>
      <path id="CMTT12-63" d="M 2918 702 
C 2918 868 2758 868 2707 868 
C 2560 868 2534 817 2502 728 
C 2362 377 2048 339 1894 339 
C 1350 339 890 792 890 1385 
C 890 1711 1075 2445 1914 2445 
C 2086 2445 2221 2432 2278 2426 
C 2323 2413 2330 2405 2330 2373 
C 2349 2107 2547 2107 2586 2107 
C 2726 2107 2848 2203 2848 2375 
C 2848 2816 2202 2816 1920 2816 
C 826 2816 474 1922 474 1385 
C 474 607 1069 -32 1837 -32 
C 2694 -32 2918 600 2918 702 
z
" transform="scale(0.015625)"/>
      <path id="CMTT12-3c" d="M 2803 3155 
C 2867 3200 2938 3238 2938 3353 
C 2938 3488 2822 3565 2726 3565 
L 2714 3558 
C 2662 3552 2650 3552 2579 3501 
L 474 2169 
C 397 2125 352 2054 352 1977 
C 352 1862 422 1817 474 1785 
L 2573 448 
C 2618 422 2669 384 2726 384 
C 2822 384 2938 461 2938 595 
C 2938 672 2899 736 2829 781 
L 947 1971 
L 2803 3155 
z
" transform="scale(0.015625)"/>
      <path id="CMTT12-54" d="M 1856 3533 
L 2707 3533 
L 2707 3221 
C 2707 3105 2707 2958 2912 2958 
C 3123 2958 3123 3099 3123 3221 
L 3123 3642 
C 3123 3840 3085 3904 2867 3904 
L 429 3904 
C 218 3904 166 3853 166 3642 
L 166 3221 
C 166 3105 166 2958 371 2958 
C 582 2958 582 3099 582 3221 
L 582 3533 
L 1440 3533 
L 1440 371 
L 1133 371 
C 1043 371 877 371 877 186 
C 877 0 1043 0 1133 0 
L 2163 0 
C 2253 0 2419 0 2419 186 
C 2419 371 2253 371 2163 371 
L 1856 371 
L 1856 3533 
z
" transform="scale(0.015625)"/>
      <path id="CMTT12-3e" d="M 2816 1779 
C 2893 1824 2938 1894 2938 1971 
C 2938 2086 2867 2131 2816 2163 
L 717 3501 
C 672 3526 621 3565 563 3565 
C 467 3565 352 3488 352 3353 
C 352 3238 422 3200 486 3155 
L 2342 1978 
L 486 793 
C 422 749 352 710 352 595 
C 352 461 467 384 563 384 
L 576 390 
C 627 397 640 397 710 448 
L 2816 1779 
z
" transform="scale(0.015625)"/>
      <path id="CMSS17-28" d="M 1613 4768 
C 1267 4417 474 3601 474 1588 
C 474 -433 1267 -1243 1613 -1600 
L 2003 -1600 
C 1216 -784 960 357 960 1581 
C 960 2798 1203 3946 2003 4768 
L 1613 4768 
z
" transform="scale(0.015625)"/>
      <path id="CMSS17-2b" d="M 2451 1505 
L 4141 1505 
C 4230 1505 4339 1505 4339 1613 
C 4339 1728 4237 1728 4141 1728 
L 2451 1728 
L 2451 3413 
C 2451 3502 2451 3611 2342 3611 
C 2227 3611 2227 3509 2227 3413 
L 2227 1728 
L 531 1728 
C 442 1728 333 1728 333 1620 
C 333 1505 435 1505 531 1505 
L 2227 1505 
L 2227 -186 
C 2227 -275 2227 -384 2336 -384 
C 2451 -384 2451 -282 2451 -186 
L 2451 1505 
z
" transform="scale(0.015625)"/>
      <path id="CMSS17-77" d="M 4013 2752 
L 3526 2752 
L 3187 1601 
C 3117 1358 2918 685 2893 371 
L 2886 371 
C 2874 564 2765 1024 2586 1633 
L 2259 2752 
L 1818 2752 
L 1498 1658 
C 1338 1101 1216 627 1203 371 
L 1197 371 
C 1171 749 909 1633 870 1773 
L 582 2752 
L 83 2752 
L 915 0 
L 1402 0 
C 1734 1096 1990 1943 2010 2370 
C 2022 2160 2131 1707 2195 1484 
L 2618 0 
L 3181 0 
L 4013 2752 
z
" transform="scale(0.015625)"/>
      <path id="CMSS17-29" d="M 723 -1600 
C 1069 -1249 1862 -433 1862 1581 
C 1862 3601 1069 4411 723 4768 
L 333 4768 
C 1120 3952 1376 2811 1376 1588 
C 1376 370 1133 -778 333 -1600 
L 723 -1600 
z
" transform="scale(0.015625)"/>
     </defs>
     <use xlink:href="#CMTT12-47" transform="scale(0.996264)"/>
     <use xlink:href="#CMTT12-63" transform="translate(51.266111 0) scale(0.996264)"/>
     <use xlink:href="#CMTT12-3c" transform="translate(102.532222 0) scale(0.996264)"/>
     <use xlink:href="#CMTT12-54" transform="translate(153.798333 0) scale(0.996264)"/>
     <use xlink:href="#CMTT12-3e" transform="translate(205.064443 0) scale(0.996264)"/>
     <use xlink:href="#CMSS17-28" transform="translate(287.559667 0) scale(0.996264)"/>
     <use xlink:href="#CMSS17-2b" transform="translate(323.993581 0) scale(0.996264)"/>
     <use xlink:href="#CMSS17-6f" transform="translate(428.090629 0) scale(0.996264)"/>
     <use xlink:href="#CMSS17-77" transform="translate(472.331798 0) scale(0.996264)"/>
     <use xlink:href="#CMSS17-6e" transform="translate(536.151343 0) scale(0.996264)"/>
     <use xlink:href="#CMSS17-65" transform="translate(584.356287 0) scale(0.996264)"/>
     <use xlink:href="#CMSS17-64" transform="translate(625.995109 0) scale(0.996264)"/>
     <use xlink:href="#CMSS17-29" transform="translate(674.200052 0) scale(0.996264)"/>
    </g>
   </g>
   <g id="line2d_45">
    <path d="M 148.759094 17.563574 
L 153.959094 17.563574 
L 159.159094 17.563574 
" style="fill: none; stroke: #34495e; stroke-width: 4; stroke-linecap: square"/>
   </g>
   <g id="text_16">
    <!-- \texttt{Box&lt;T&gt;} -->
    <g transform="translate(169.559094 22.113574) scale(0.13 -0.13)">
     <defs>
      <path id="CMTT12-42" d="M 422 3904 
C 333 3904 166 3904 166 3719 
C 166 3533 339 3533 429 3533 
L 582 3533 
L 582 371 
L 429 371 
C 339 371 166 371 166 186 
C 166 0 339 0 422 0 
L 1939 0 
C 2650 0 3027 565 3027 1072 
C 3027 1527 2714 1945 2208 2054 
C 2528 2155 2893 2461 2893 2918 
C 2893 3383 2515 3904 1811 3904 
L 422 3904 
z
M 998 2227 
L 998 3533 
L 1792 3533 
C 2323 3533 2477 3140 2477 2912 
C 2477 2613 2227 2227 1690 2227 
L 998 2227 
z
M 998 371 
L 998 1856 
L 1837 1856 
C 2483 1856 2611 1303 2611 1085 
C 2611 770 2368 371 1798 371 
L 998 371 
z
" transform="scale(0.015625)"/>
      <path id="CMTT12-6f" d="M 2918 1385 
C 2918 2183 2336 2816 1645 2816 
C 954 2816 371 2183 371 1385 
C 371 581 960 -32 1645 -32 
C 2330 -32 2918 581 2918 1385 
z
M 1645 339 
C 1184 339 787 824 787 1430 
C 787 2023 1197 2445 1645 2445 
C 2093 2445 2502 2023 2502 1430 
C 2502 818 2106 339 1645 339 
z
" transform="scale(0.015625)"/>
      <path id="CMTT12-78" d="M 1805 1418 
L 2541 2381 
L 2765 2381 
C 2854 2381 3021 2381 3021 2567 
C 3021 2752 2854 2752 2765 2752 
L 2054 2752 
C 1965 2752 1798 2752 1798 2567 
C 1798 2381 1952 2381 2106 2381 
L 1626 1724 
L 1133 2381 
C 1280 2381 1434 2381 1434 2567 
C 1434 2752 1267 2752 1178 2752 
L 467 2752 
C 378 2752 211 2752 211 2567 
C 211 2381 378 2381 467 2381 
L 691 2381 
L 1453 1417 
L 653 371 
L 435 371 
C 346 371 173 371 173 186 
C 173 0 346 0 435 0 
L 1139 0 
C 1229 0 1395 0 1395 186 
C 1395 371 1248 371 1075 371 
L 1626 1175 
L 2202 371 
C 2042 371 1888 371 1888 186 
C 1888 0 2054 0 2144 0 
L 2854 0 
C 2944 0 3110 0 3110 186 
C 3110 371 2944 371 2854 371 
L 2630 371 
L 1805 1418 
z
" transform="scale(0.015625)"/>
     </defs>
     <use xlink:href="#CMTT12-42" transform="scale(0.996264)"/>
     <use xlink:href="#CMTT12-6f" transform="translate(51.266111 0) scale(0.996264)"/>
     <use xlink:href="#CMTT12-78" transform="translate(102.532222 0) scale(0.996264)"/>
     <use xlink:href="#CMTT12-3c" transform="translate(153.798333 0) scale(0.996264)"/>
     <use xlink:href="#CMTT12-54" transform="translate(205.064443 0) scale(0.996264)"/>
     <use xlink:href="#CMTT12-3e" transform="translate(256.330554 0) scale(0.996264)"/>
    </g>
   </g>
   <g id="line2d_46">
    <path d="M 230.346592 17.563574 
L 235.546592 17.563574 
L 240.746592 17.563574 
" style="fill: none; stroke: #ff8f2e; stroke-width: 4; stroke-linecap: square"/>
   </g>
   <g id="text_17">
    <!-- \texttt{Arc&lt;T&gt;} / \texttt{Rc&lt;T&gt;} -->
    <g transform="translate(251.146592 22.113574) scale(0.13 -0.13)">
     <defs>
      <path id="CMTT12-41" d="M 1971 3770 
C 1920 4000 1792 4000 1645 4000 
C 1446 4000 1370 3974 1325 3770 
L 531 371 
C 320 371 173 371 173 186 
C 173 0 346 0 435 0 
L 1050 0 
C 1139 0 1312 0 1312 186 
C 1312 371 1158 371 960 371 
L 1126 1088 
L 2163 1088 
L 2330 371 
C 2131 371 1978 371 1978 186 
C 1978 0 2150 0 2240 0 
L 2854 0 
C 2944 0 3117 0 3117 186 
C 3117 371 2970 371 2758 371 
L 1971 3770 
z
M 1210 1459 
C 1254 1651 1606 3162 1638 3469 
L 1645 3469 
C 1664 3322 1754 2931 1754 2925 
L 2080 1459 
L 1210 1459 
z
" transform="scale(0.015625)"/>
      <path id="CMTT12-72" d="M 1382 1212 
C 1382 1976 1920 2432 2464 2432 
C 2496 2432 2534 2432 2566 2425 
C 2586 2185 2765 2165 2810 2165 
C 2957 2165 3059 2275 3059 2418 
C 3059 2698 2790 2803 2470 2803 
C 2042 2803 1677 2607 1382 2241 
L 1382 2491 
C 1382 2688 1344 2752 1126 2752 
L 480 2752 
C 390 2752 224 2752 224 2567 
C 224 2381 390 2381 480 2381 
L 966 2381 
L 966 371 
L 480 371 
C 390 371 224 371 224 186 
C 224 0 390 0 480 0 
L 2054 0 
C 2144 0 2310 0 2310 186 
C 2310 371 2144 371 2054 371 
L 1382 371 
L 1382 1212 
z
" transform="scale(0.015625)"/>
      <path id="CMSS17-2f" d="M 2637 4545 
C 2669 4627 2669 4640 2669 4653 
C 2669 4729 2611 4768 2560 4768 
C 2483 4768 2458 4717 2432 4640 
L 365 -1377 
C 333 -1460 333 -1473 333 -1486 
C 333 -1562 390 -1600 442 -1600 
C 518 -1600 544 -1549 570 -1473 
L 2637 4545 
z
" transform="scale(0.015625)"/>
      <path id="CMTT12-52" d="M 2176 1950 
C 2528 2153 2720 2497 2720 2842 
C 2720 3370 2253 3904 1498 3904 
L 410 3904 
C 314 3904 154 3904 154 3719 
C 154 3533 320 3533 410 3533 
L 550 3533 
L 550 371 
L 410 371 
C 320 371 154 371 154 186 
C 154 0 314 0 410 0 
L 1107 0 
C 1197 0 1370 0 1370 186 
C 1370 371 1197 371 1107 371 
L 966 371 
L 966 1792 
L 1472 1792 
C 1587 1792 1786 1792 1990 1612 
C 2138 1477 2138 1330 2138 1054 
C 2138 604 2138 418 2259 200 
C 2362 32 2528 -64 2726 -64 
C 3149 -64 3277 374 3277 603 
C 3277 730 3219 812 3066 812 
C 2874 812 2861 661 2861 604 
C 2861 560 2842 307 2726 307 
C 2554 307 2554 588 2554 951 
C 2554 1383 2554 1421 2490 1580 
C 2406 1765 2253 1893 2176 1950 
z
M 1434 2163 
L 966 2163 
L 966 3533 
L 1434 3533 
C 2022 3533 2304 3156 2304 2848 
C 2304 2540 2022 2163 1434 2163 
z
" transform="scale(0.015625)"/>
     </defs>
     <use xlink:href="#CMTT12-41" transform="scale(0.996264)"/>
     <use xlink:href="#CMTT12-72" transform="translate(51.266111 0) scale(0.996264)"/>
     <use xlink:href="#CMTT12-63" transform="translate(102.532222 0) scale(0.996264)"/>
     <use xlink:href="#CMTT12-3c" transform="translate(153.798333 0) scale(0.996264)"/>
     <use xlink:href="#CMTT12-54" transform="translate(205.064443 0) scale(0.996264)"/>
     <use xlink:href="#CMTT12-3e" transform="translate(256.330554 0) scale(0.996264)"/>
     <use xlink:href="#CMSS17-2f" transform="translate(338.825778 0) scale(0.996264)"/>
     <use xlink:href="#CMTT12-52" transform="translate(416.898514 0) scale(0.996264)"/>
     <use xlink:href="#CMTT12-63" transform="translate(468.164625 0) scale(0.996264)"/>
     <use xlink:href="#CMTT12-3c" transform="translate(519.430736 0) scale(0.996264)"/>
     <use xlink:href="#CMTT12-54" transform="translate(570.696847 0) scale(0.996264)"/>
     <use xlink:href="#CMTT12-3e" transform="translate(621.962958 0) scale(0.996264)"/>
    </g>
   </g>
  </g>
 </g>
 <defs>
  <clipPath id="p2941d63b49">
   <rect x="85.279966" y="29.86" width="241.711007" height="169.40766"/>
  </clipPath>
 </defs>
</svg>
