<?xml version="1.0" encoding="utf-8" standalone="no"?>
<!DOCTYPE svg PUBLIC "-//W3C//DTD SVG 1.1//EN"
  "http://www.w3.org/Graphics/SVG/1.1/DTD/svg11.dtd">
<svg xmlns:xlink="http://www.w3.org/1999/xlink" width="216.72pt" height="166.32pt" viewBox="0 0 216.72 166.32" xmlns="http://www.w3.org/2000/svg" version="1.1">
 <metadata>
  <rdf:RDF xmlns:dc="http://purl.org/dc/elements/1.1/" xmlns:cc="http://creativecommons.org/ns#" xmlns:rdf="http://www.w3.org/1999/02/22-rdf-syntax-ns#">
   <cc:Work>
    <dc:type rdf:resource="http://purl.org/dc/dcmitype/StillImage"/>
    <dc:date>2025-08-08T13:22:21.588657</dc:date>
    <dc:format>image/svg+xml</dc:format>
    <dc:creator>
     <cc:Agent>
      <dc:title>Matplotlib v3.9.2, https://matplotlib.org/</dc:title>
     </cc:Agent>
    </dc:creator>
   </cc:Work>
  </rdf:RDF>
 </metadata>
 <defs>
  <style type="text/css">*{stroke-linejoin: round; stroke-linecap: butt}</style>
 </defs>
 <g id="figure_1">
  <g id="patch_1">
   <path d="M 0 166.32 
L 216.72 166.32 
L 216.72 0 
L 0 0 
z
" style="fill: #ffffff"/>
  </g>
  <g id="axes_1">
   <g id="patch_2">
    <path d="M 62.64618 143.264323 
L 203.154961 143.264323 
L 203.154961 7.2 
L 62.64618 7.2 
z
" style="fill: #ffffff"/>
   </g>
   <g id="matplotlib.axis_1">
    <g id="xtick_1">
     <g id="line2d_1">
      <path d="M 62.64618 143.264323 
L 62.64618 7.2 
" clip-path="url(#p94f432198c)" style="fill: none; stroke: #cccccc; stroke-width: 0.4; stroke-linecap: square"/>
     </g>
     <g id="line2d_2">
      <defs>
       <path id="m2e8317dbc5" d="M 0 0 
L 0 3.5 
" style="stroke: #b0b0b0; stroke-width: 0.4"/>
      </defs>
      <g>
       <use xlink:href="#m2e8317dbc5" x="62.64618" y="143.264323" style="fill: #b0b0b0; stroke: #b0b0b0; stroke-width: 0.4"/>
      </g>
     </g>
     <g id="text_1">
      <!-- $\mathdefault{0.8}$ -->
      <g transform="translate(56.281141 157.182822) scale(0.1 -0.1)">
       <defs>
        <path id="CMR17-30" d="M 2688 2025 
C 2688 2416 2682 3080 2413 3591 
C 2176 4039 1798 4198 1466 4198 
C 1158 4198 768 4058 525 3597 
C 269 3118 243 2524 243 2025 
C 243 1661 250 1106 448 619 
C 723 -39 1216 -128 1466 -128 
C 1760 -128 2208 -7 2470 600 
C 2662 1042 2688 1559 2688 2025 
z
M 1466 -26 
C 1056 -26 813 325 723 812 
C 653 1188 653 1738 653 2096 
C 653 2588 653 2997 736 3387 
C 858 3929 1216 4096 1466 4096 
C 1728 4096 2067 3923 2189 3400 
C 2272 3036 2278 2607 2278 2096 
C 2278 1680 2278 1169 2202 792 
C 2067 95 1690 -26 1466 -26 
z
" transform="scale(0.015625)"/>
        <path id="CMMI12-3a" d="M 1178 307 
C 1178 492 1024 619 870 619 
C 685 619 557 466 557 313 
C 557 128 710 0 864 0 
C 1050 0 1178 153 1178 307 
z
" transform="scale(0.015625)"/>
        <path id="CMR17-38" d="M 1741 2264 
C 2144 2467 2554 2773 2554 3263 
C 2554 3841 1990 4179 1472 4179 
C 890 4179 378 3759 378 3180 
C 378 3021 416 2747 666 2505 
C 730 2442 998 2251 1171 2130 
C 883 1983 211 1634 211 934 
C 211 279 838 -128 1459 -128 
C 2144 -128 2720 362 2720 1010 
C 2720 1590 2330 1857 2074 2029 
L 1741 2264 
z
M 902 2822 
C 851 2854 595 3051 595 3351 
C 595 3739 998 4032 1459 4032 
C 1965 4032 2336 3676 2336 3262 
C 2336 2669 1670 2331 1638 2331 
C 1632 2331 1626 2331 1574 2370 
L 902 2822 
z
M 2080 1519 
C 2176 1449 2483 1240 2483 851 
C 2483 381 2010 25 1472 25 
C 890 25 448 438 448 940 
C 448 1443 838 1862 1280 2060 
L 2080 1519 
z
" transform="scale(0.015625)"/>
       </defs>
       <use xlink:href="#CMR17-30" transform="scale(0.996264)"/>
       <use xlink:href="#CMMI12-3a" transform="translate(45.690477 0) scale(0.996264)"/>
       <use xlink:href="#CMR17-38" transform="translate(72.787654 0) scale(0.996264)"/>
      </g>
     </g>
    </g>
    <g id="xtick_2">
     <g id="line2d_3">
      <path d="M 97.773375 143.264323 
L 97.773375 7.2 
" clip-path="url(#p94f432198c)" style="fill: none; stroke: #cccccc; stroke-width: 0.4; stroke-linecap: square"/>
     </g>
     <g id="line2d_4">
      <g>
       <use xlink:href="#m2e8317dbc5" x="97.773375" y="143.264323" style="fill: #b0b0b0; stroke: #b0b0b0; stroke-width: 0.4"/>
      </g>
     </g>
     <g id="text_2">
      <!-- $\mathdefault{0.9}$ -->
      <g transform="translate(91.408336 157.182822) scale(0.1 -0.1)">
       <defs>
        <path id="CMR17-39" d="M 2253 1864 
C 2253 464 1670 31 1190 31 
C 1043 31 685 31 538 294 
C 704 268 826 357 826 518 
C 826 692 685 749 595 749 
C 538 749 365 723 365 506 
C 365 71 742 -128 1203 -128 
C 1939 -128 2688 674 2688 2073 
C 2688 3817 1971 4179 1485 4179 
C 851 4179 243 3628 243 2778 
C 243 1991 762 1408 1414 1408 
C 1952 1408 2189 1903 2253 2112 
L 2253 1864 
z
M 1427 1510 
C 1254 1510 1011 1542 813 1922 
C 678 2169 678 2461 678 2771 
C 678 3146 678 3405 858 3684 
C 947 3817 1114 4032 1485 4032 
C 2240 4032 2240 2885 2240 2632 
C 2240 2182 2035 1510 1427 1510 
z
" transform="scale(0.015625)"/>
       </defs>
       <use xlink:href="#CMR17-30" transform="scale(0.996264)"/>
       <use xlink:href="#CMMI12-3a" transform="translate(45.690477 0) scale(0.996264)"/>
       <use xlink:href="#CMR17-39" transform="translate(72.787654 0) scale(0.996264)"/>
      </g>
     </g>
    </g>
    <g id="xtick_3">
     <g id="line2d_5">
      <path d="M 132.90057 143.264323 
L 132.90057 7.2 
" clip-path="url(#p94f432198c)" style="fill: none; stroke: #cccccc; stroke-width: 0.4; stroke-linecap: square"/>
     </g>
     <g id="line2d_6">
      <g>
       <use xlink:href="#m2e8317dbc5" x="132.90057" y="143.264323" style="fill: #b0b0b0; stroke: #b0b0b0; stroke-width: 0.4"/>
      </g>
     </g>
     <g id="text_3">
      <!-- $\mathdefault{1.0}$ -->
      <g transform="translate(126.535531 157.182822) scale(0.1 -0.1)">
       <defs>
        <path id="CMR17-31" d="M 1702 4058 
C 1702 4192 1696 4192 1606 4192 
C 1357 3916 979 3827 621 3827 
C 602 3827 570 3827 563 3808 
C 557 3795 557 3782 557 3648 
C 755 3648 1088 3686 1344 3839 
L 1344 461 
C 1344 236 1331 160 781 160 
L 589 160 
L 589 0 
C 896 0 1216 0 1523 0 
C 1830 0 2150 0 2458 0 
L 2458 160 
L 2266 160 
C 1715 160 1702 230 1702 458 
L 1702 4058 
z
" transform="scale(0.015625)"/>
       </defs>
       <use xlink:href="#CMR17-31" transform="scale(0.996264)"/>
       <use xlink:href="#CMMI12-3a" transform="translate(45.690477 0) scale(0.996264)"/>
       <use xlink:href="#CMR17-30" transform="translate(72.787654 0) scale(0.996264)"/>
      </g>
     </g>
    </g>
    <g id="xtick_4">
     <g id="line2d_7">
      <path d="M 168.027765 143.264323 
L 168.027765 7.2 
" clip-path="url(#p94f432198c)" style="fill: none; stroke: #cccccc; stroke-width: 0.4; stroke-linecap: square"/>
     </g>
     <g id="line2d_8">
      <g>
       <use xlink:href="#m2e8317dbc5" x="168.027765" y="143.264323" style="fill: #b0b0b0; stroke: #b0b0b0; stroke-width: 0.4"/>
      </g>
     </g>
     <g id="text_4">
      <!-- $\mathdefault{1.1}$ -->
      <g transform="translate(161.662726 157.182822) scale(0.1 -0.1)">
       <use xlink:href="#CMR17-31" transform="scale(0.996264)"/>
       <use xlink:href="#CMMI12-3a" transform="translate(45.690477 0) scale(0.996264)"/>
       <use xlink:href="#CMR17-31" transform="translate(72.787654 0) scale(0.996264)"/>
      </g>
     </g>
    </g>
    <g id="xtick_5">
     <g id="line2d_9">
      <path d="M 203.154961 143.264323 
L 203.154961 7.2 
" clip-path="url(#p94f432198c)" style="fill: none; stroke: #cccccc; stroke-width: 0.4; stroke-linecap: square"/>
     </g>
     <g id="line2d_10">
      <g>
       <use xlink:href="#m2e8317dbc5" x="203.154961" y="143.264323" style="fill: #b0b0b0; stroke: #b0b0b0; stroke-width: 0.4"/>
      </g>
     </g>
     <g id="text_5">
      <!-- $\mathdefault{1.2}$ -->
      <g transform="translate(196.789921 157.182822) scale(0.1 -0.1)">
       <defs>
        <path id="CMR17-32" d="M 2669 989 
L 2554 989 
C 2490 536 2438 459 2413 420 
C 2381 369 1920 369 1830 369 
L 602 369 
C 832 619 1280 1072 1824 1597 
C 2214 1967 2669 2402 2669 3035 
C 2669 3790 2067 4224 1395 4224 
C 691 4224 262 3604 262 3030 
C 262 2780 448 2748 525 2748 
C 589 2748 781 2787 781 3010 
C 781 3207 614 3264 525 3264 
C 486 3264 448 3258 422 3245 
C 544 3790 915 4058 1306 4058 
C 1862 4058 2227 3617 2227 3035 
C 2227 2479 1901 2000 1536 1584 
L 262 146 
L 262 0 
L 2515 0 
L 2669 989 
z
" transform="scale(0.015625)"/>
       </defs>
       <use xlink:href="#CMR17-31" transform="scale(0.996264)"/>
       <use xlink:href="#CMMI12-3a" transform="translate(45.690477 0) scale(0.996264)"/>
       <use xlink:href="#CMR17-32" transform="translate(72.787654 0) scale(0.996264)"/>
      </g>
     </g>
    </g>
   </g>
   <g id="matplotlib.axis_2">
    <g id="ytick_1">
     <g id="line2d_11">
      <defs>
       <path id="md5e9e4930f" d="M 0 0 
L -3.5 0 
" style="stroke: #b0b0b0; stroke-width: 0.4"/>
      </defs>
      <g>
       <use xlink:href="#md5e9e4930f" x="62.64618" y="15.70402" style="fill: #b0b0b0; stroke: #b0b0b0; stroke-width: 0.4"/>
      </g>
     </g>
     <g id="text_6">
      <!-- alacritty -->
      <g transform="translate(21.966859 19.163269) scale(0.1 -0.1)">
       <defs>
        <path id="CMSS17-61" d="M 2406 1791 
C 2406 2392 1978 2808 1402 2808 
C 1120 2808 813 2757 461 2553 
L 499 2135 
C 659 2248 934 2432 1395 2432 
C 1722 2432 1920 2180 1920 1782 
L 1920 1536 
C 896 1536 256 1238 256 726 
C 256 461 416 -64 947 -64 
C 1043 -64 1562 -64 1933 217 
L 1933 -19 
L 2406 -19 
L 2406 1791 
z
M 1920 816 
C 1920 701 1920 548 1728 434 
C 1562 325 1350 325 1261 325 
C 941 325 723 511 723 744 
C 723 1211 1722 1211 1920 1211 
L 1920 816 
z
" transform="scale(0.015625)"/>
        <path id="CMSS17-6c" d="M 947 4416 
L 474 4416 
L 474 0 
L 947 0 
L 947 4416 
z
" transform="scale(0.015625)"/>
        <path id="CMSS17-63" d="M 2464 2541 
C 2464 2585 2170 2714 2093 2739 
C 1882 2816 1613 2816 1542 2816 
C 710 2816 211 2093 211 1363 
C 211 595 768 -64 1517 -64 
C 1946 -64 2253 76 2502 242 
L 2464 664 
C 2189 453 1869 337 1523 337 
C 1024 337 698 774 698 1369 
C 698 1831 909 2414 1549 2414 
C 1901 2414 2099 2343 2394 2145 
L 2464 2541 
z
" transform="scale(0.015625)"/>
        <path id="CMSS17-72" d="M 954 1363 
C 954 1965 1395 2368 1958 2368 
L 1958 2789 
C 1549 2789 1165 2585 934 2253 
L 934 2758 
L 480 2758 
L 480 0 
L 954 0 
L 954 1363 
z
" transform="scale(0.015625)"/>
        <path id="CMSS17-69" d="M 979 4183 
L 442 4183 
L 442 3648 
L 979 3648 
L 979 4183 
z
M 947 2739 
L 474 2739 
L 474 0 
L 947 0 
L 947 2739 
z
" transform="scale(0.015625)"/>
        <path id="CMSS17-74" d="M 1069 2368 
L 1901 2368 
L 1901 2737 
L 1069 2737 
L 1069 3520 
L 614 3520 
L 614 2737 
L 109 2737 
L 109 2368 
L 602 2368 
L 602 749 
C 602 384 685 -64 1107 -64 
C 1427 -64 1722 25 2003 172 
L 1901 548 
C 1747 414 1562 337 1363 337 
C 1082 337 1069 696 1069 856 
L 1069 2368 
z
" transform="scale(0.015625)"/>
        <path id="CMSS17-79" d="M 2675 2752 
L 2176 2752 
C 1632 1294 1446 702 1434 383 
L 1427 383 
C 1408 696 1126 1460 902 2007 
L 602 2752 
L 83 2752 
L 1216 13 
C 1146 -178 1043 -465 1011 -529 
C 870 -885 774 -885 672 -885 
C 646 -885 442 -885 211 -809 
L 250 -1229 
C 410 -1261 570 -1280 685 -1280 
C 845 -1280 1165 -1280 1459 -497 
L 2675 2752 
z
" transform="scale(0.015625)"/>
       </defs>
       <use xlink:href="#CMSS17-61" transform="scale(0.996264)"/>
       <use xlink:href="#CMSS17-6c" transform="translate(44.921921 0) scale(0.996264)"/>
       <use xlink:href="#CMSS17-61" transform="translate(67.102644 0) scale(0.996264)"/>
       <use xlink:href="#CMSS17-63" transform="translate(112.024564 0) scale(0.996264)"/>
       <use xlink:href="#CMSS17-72" transform="translate(153.663386 0) scale(0.996264)"/>
       <use xlink:href="#CMSS17-69" transform="translate(185.573159 0) scale(0.996264)"/>
       <use xlink:href="#CMSS17-74" transform="translate(207.753882 0) scale(0.996264)"/>
       <use xlink:href="#CMSS17-74" transform="translate(241.585449 0) scale(0.996264)"/>
       <use xlink:href="#CMSS17-79" transform="translate(272.814561 0) scale(0.996264)"/>
      </g>
     </g>
    </g>
    <g id="ytick_2">
     <g id="line2d_12">
      <g>
       <use xlink:href="#md5e9e4930f" x="62.64618" y="32.712061" style="fill: #b0b0b0; stroke: #b0b0b0; stroke-width: 0.4"/>
      </g>
     </g>
     <g id="text_7">
      <!-- binary_trees -->
      <g transform="translate(7.2 36.17131) scale(0.1 -0.1)">
       <defs>
        <path id="CMSS17-62" d="M 954 4416 
L 480 4416 
L 480 -13 
L 966 -13 
L 966 274 
C 1210 38 1504 -64 1766 -64 
C 2381 -64 2880 549 2880 1352 
C 2880 2086 2496 2756 1926 2756 
C 1523 2756 1165 2591 954 2419 
L 954 4416 
z
M 966 2046 
C 1107 2222 1306 2368 1587 2368 
C 1965 2368 2394 2097 2394 1352 
C 2394 558 1882 325 1530 325 
C 1402 325 1267 356 1139 464 
C 966 615 966 709 966 797 
L 966 2046 
z
" transform="scale(0.015625)"/>
        <path id="CMSS17-6e" d="M 2618 1877 
C 2618 2283 2522 2816 1798 2816 
C 1389 2816 1120 2606 941 2389 
L 941 2758 
L 474 2758 
L 474 0 
L 960 0 
L 960 1559 
C 960 1964 1114 2428 1549 2428 
C 2112 2428 2131 2048 2131 1829 
L 2131 0 
L 2618 0 
L 2618 1877 
z
" transform="scale(0.015625)"/>
        <path id="CMSS17-65" d="M 2502 1377 
C 2502 1590 2490 2003 2285 2345 
C 2061 2713 1696 2816 1421 2816 
C 755 2816 192 2188 192 1375 
C 192 582 774 -64 1510 -64 
C 1798 -64 2150 19 2470 248 
C 2470 274 2458 414 2451 420 
C 2451 433 2432 630 2432 656 
C 2125 407 1773 325 1517 325 
C 1107 325 666 667 646 1377 
L 2502 1377 
z
M 698 1728 
C 781 2084 1062 2421 1421 2421 
C 1517 2421 1965 2421 2080 1728 
L 698 1728 
z
" transform="scale(0.015625)"/>
        <path id="CMSS17-73" d="M 2061 2627 
C 1683 2807 1389 2807 1197 2807 
C 742 2807 198 2648 198 2003 
C 198 1359 902 1218 1094 1179 
C 1389 1122 1715 1058 1715 740 
C 1715 337 1254 337 1171 337 
C 915 337 563 407 243 638 
L 166 210 
C 531 0 883 -64 1178 -64 
C 1965 -64 2163 416 2163 781 
C 2163 1094 1984 1305 1862 1401 
C 1651 1568 1574 1587 1050 1696 
C 960 1709 646 1779 646 2066 
C 646 2432 1050 2432 1139 2432 
C 1555 2432 1811 2303 1984 2208 
L 2061 2627 
z
" transform="scale(0.015625)"/>
       </defs>
       <use xlink:href="#CMSS17-62" transform="scale(0.996264)"/>
       <use xlink:href="#CMSS17-69" transform="translate(48.204943 0) scale(0.996264)"/>
       <use xlink:href="#CMSS17-6e" transform="translate(70.385666 0) scale(0.996264)"/>
       <use xlink:href="#CMSS17-61" transform="translate(118.590609 0) scale(0.996264)"/>
       <use xlink:href="#CMSS17-72" transform="translate(160.910076 0) scale(0.996264)"/>
       <use xlink:href="#CMSS17-79" transform="translate(192.819849 0) scale(0.996264)"/>
       <use xlink:href="#CMSS17-74" transform="translate(269.547486 0) scale(0.996264)"/>
       <use xlink:href="#CMSS17-72" transform="translate(303.379052 0) scale(0.996264)"/>
       <use xlink:href="#CMSS17-65" transform="translate(335.288825 0) scale(0.996264)"/>
       <use xlink:href="#CMSS17-65" transform="translate(376.927647 0) scale(0.996264)"/>
       <use xlink:href="#CMSS17-73" transform="translate(418.566469 0) scale(0.996264)"/>
       <path d="M 241.441001 0 
L 269.547486 0 
L 269.547486 0.3985 
L 241.441001 0.3985 
L 241.441001 0 
z
"/>
      </g>
     </g>
    </g>
    <g id="ytick_3">
     <g id="line2d_13">
      <g>
       <use xlink:href="#md5e9e4930f" x="62.64618" y="49.720101" style="fill: #b0b0b0; stroke: #b0b0b0; stroke-width: 0.4"/>
      </g>
     </g>
     <g id="text_8">
      <!-- fd -->
      <g transform="translate(47.454654 53.17935) scale(0.1 -0.1)">
       <defs>
        <path id="CMSS17-66" d="M 1075 2368 
L 1722 2368 
L 1722 2737 
L 1062 2737 
L 1062 3559 
C 1062 4014 1408 4092 1606 4092 
C 1670 4092 1850 4092 2080 4009 
L 2080 4429 
C 1933 4461 1754 4480 1613 4480 
C 1018 4480 602 3993 602 3359 
L 602 2737 
L 160 2737 
L 160 2368 
L 602 2368 
L 602 0 
L 1075 0 
L 1075 2368 
z
" transform="scale(0.015625)"/>
        <path id="CMSS17-64" d="M 2611 4416 
L 2138 4416 
L 2138 2438 
C 1939 2603 1613 2756 1254 2756 
C 672 2756 211 2131 211 1347 
C 211 562 666 -64 1235 -64 
C 1677 -64 1971 172 2125 306 
L 2125 -13 
L 2611 -13 
L 2611 4416 
z
M 2125 836 
C 2125 747 2125 653 1926 482 
C 1798 375 1645 325 1498 325 
C 1152 325 698 576 698 1340 
C 698 2134 1210 2368 1562 2368 
C 1798 2368 1990 2254 2125 2065 
L 2125 836 
z
" transform="scale(0.015625)"/>
       </defs>
       <use xlink:href="#CMSS17-66" transform="scale(0.996264)"/>
       <use xlink:href="#CMSS17-64" transform="translate(28.626659 0) scale(0.996264)"/>
      </g>
     </g>
    </g>
    <g id="ytick_4">
     <g id="line2d_14">
      <g>
       <use xlink:href="#md5e9e4930f" x="62.64618" y="66.728141" style="fill: #b0b0b0; stroke: #b0b0b0; stroke-width: 0.4"/>
      </g>
     </g>
     <g id="text_9">
      <!-- grmtools -->
      <g transform="translate(19.310135 70.187391) scale(0.1 -0.1)">
       <defs>
        <path id="CMSS17-67" d="M 2848 2808 
C 2483 2808 2170 2738 1914 2617 
C 1702 2777 1485 2808 1338 2808 
C 781 2808 358 2349 358 1814 
C 358 1468 550 1207 563 1195 
C 448 1035 384 863 384 672 
C 384 448 474 289 544 200 
C 211 -3 166 -314 166 -435 
C 166 -898 749 -1280 1498 -1280 
C 2253 -1280 2835 -898 2835 -428 
C 2835 448 1856 448 1587 448 
L 1069 448 
C 973 448 717 448 717 791 
C 717 921 774 1004 781 1010 
C 877 940 1075 832 1338 832 
C 1869 832 2310 1278 2310 1827 
C 2310 2132 2170 2355 2112 2432 
L 2131 2432 
C 2150 2432 2419 2432 2515 2432 
C 2720 2432 2739 2429 2918 2419 
L 2848 2808 
z
M 1338 1182 
C 1120 1182 813 1315 813 1823 
C 813 2375 1165 2464 1331 2464 
C 1549 2464 1856 2331 1856 1823 
C 1856 1271 1504 1182 1338 1182 
z
M 1581 -10 
C 1734 -10 2381 -10 2381 -442 
C 2381 -714 1984 -929 1504 -929 
C 1018 -929 621 -720 621 -435 
C 621 -403 621 -10 1062 -10 
L 1581 -10 
z
" transform="scale(0.015625)"/>
        <path id="CMSS17-6d" d="M 4288 1877 
C 4288 2308 4179 2816 3462 2816 
C 2982 2816 2694 2516 2566 2331 
C 2451 2670 2182 2816 1798 2816 
C 1363 2816 1088 2568 941 2389 
L 941 2758 
L 474 2758 
L 474 0 
L 960 0 
L 960 1559 
C 960 1939 1101 2428 1555 2428 
C 2138 2428 2138 2016 2138 1829 
L 2138 0 
L 2624 0 
L 2624 1559 
C 2624 1939 2765 2428 3219 2428 
C 3802 2428 3802 2016 3802 1829 
L 3802 0 
L 4288 0 
L 4288 1877 
z
" transform="scale(0.015625)"/>
        <path id="CMSS17-6f" d="M 2829 1356 
C 2829 2176 2221 2816 1504 2816 
C 768 2816 173 2157 173 1356 
C 173 544 787 -64 1498 -64 
C 2227 -64 2829 563 2829 1356 
z
M 1504 337 
C 1050 337 659 709 659 1408 
C 659 2151 1114 2427 1498 2427 
C 1914 2427 2342 2126 2342 1408 
C 2342 683 1926 337 1504 337 
z
" transform="scale(0.015625)"/>
       </defs>
       <use xlink:href="#CMSS17-67" transform="scale(0.996264)"/>
       <use xlink:href="#CMSS17-72" transform="translate(46.843624 0) scale(0.996264)"/>
       <use xlink:href="#CMSS17-6d" transform="translate(78.753396 0) scale(0.996264)"/>
       <use xlink:href="#CMSS17-74" transform="translate(152.982651 0) scale(0.996264)"/>
       <use xlink:href="#CMSS17-6f" transform="translate(186.814217 0) scale(0.996264)"/>
       <use xlink:href="#CMSS17-6f" transform="translate(236.260279 0) scale(0.996264)"/>
       <use xlink:href="#CMSS17-6c" transform="translate(283.103903 0) scale(0.996264)"/>
       <use xlink:href="#CMSS17-73" transform="translate(305.284626 0) scale(0.996264)"/>
      </g>
     </g>
    </g>
    <g id="ytick_5">
     <g id="line2d_15">
      <g>
       <use xlink:href="#md5e9e4930f" x="62.64618" y="83.736182" style="fill: #b0b0b0; stroke: #b0b0b0; stroke-width: 0.4"/>
      </g>
     </g>
     <g id="text_10">
      <!-- regex_redux -->
      <g transform="translate(7.504385 87.195431) scale(0.1 -0.1)">
       <defs>
        <path id="CMSS17-78" d="M 1587 1414 
L 2656 2739 
L 2099 2739 
L 1363 1777 
L 602 2739 
L 32 2739 
L 1139 1414 
L 0 0 
L 563 0 
L 1363 1121 
L 2195 0 
L 2758 0 
L 1587 1414 
z
" transform="scale(0.015625)"/>
        <path id="CMSS17-75" d="M 2618 2739 
L 2131 2739 
L 2131 972 
C 2131 498 1786 306 1421 306 
C 998 306 960 447 960 709 
L 960 2739 
L 474 2739 
L 474 678 
C 474 179 646 -64 1088 -64 
C 1306 -64 1798 -13 2144 306 
L 2144 0 
L 2618 0 
L 2618 2739 
z
" transform="scale(0.015625)"/>
       </defs>
       <use xlink:href="#CMSS17-72" transform="scale(0.996264)"/>
       <use xlink:href="#CMSS17-65" transform="translate(31.909773 0) scale(0.996264)"/>
       <use xlink:href="#CMSS17-67" transform="translate(73.548595 0) scale(0.996264)"/>
       <use xlink:href="#CMSS17-65" transform="translate(120.392218 0) scale(0.996264)"/>
       <use xlink:href="#CMSS17-78" transform="translate(162.03104 0) scale(0.996264)"/>
       <use xlink:href="#CMSS17-72" transform="translate(238.758677 0) scale(0.996264)"/>
       <use xlink:href="#CMSS17-65" transform="translate(270.66845 0) scale(0.996264)"/>
       <use xlink:href="#CMSS17-64" transform="translate(312.307272 0) scale(0.996264)"/>
       <use xlink:href="#CMSS17-75" transform="translate(360.512215 0) scale(0.996264)"/>
       <use xlink:href="#CMSS17-78" transform="translate(408.717158 0) scale(0.996264)"/>
       <path d="M 210.652193 0 
L 238.758677 0 
L 238.758677 0.3985 
L 210.652193 0.3985 
L 210.652193 0 
z
"/>
      </g>
     </g>
    </g>
    <g id="ytick_6">
     <g id="line2d_16">
      <g>
       <use xlink:href="#md5e9e4930f" x="62.64618" y="100.744222" style="fill: #b0b0b0; stroke: #b0b0b0; stroke-width: 0.4"/>
      </g>
     </g>
     <g id="text_11">
      <!-- ripgrep -->
      <g transform="translate(26.754463 104.203471) scale(0.1 -0.1)">
       <defs>
        <path id="CMSS17-70" d="M 966 333 
C 1178 129 1466 -5 1773 -5 
C 2368 -5 2880 603 2880 1412 
C 2880 2159 2496 2816 1946 2816 
C 1626 2816 1242 2702 954 2472 
L 954 2765 
L 480 2765 
L 480 -1216 
L 966 -1216 
L 966 333 
z
M 966 2100 
C 1018 2176 1235 2415 1587 2415 
C 2035 2415 2394 1960 2394 1412 
C 2394 787 1958 384 1530 384 
C 1402 384 1267 415 1139 523 
C 966 674 966 768 966 857 
L 966 2100 
z
" transform="scale(0.015625)"/>
       </defs>
       <use xlink:href="#CMSS17-72" transform="scale(0.996264)"/>
       <use xlink:href="#CMSS17-69" transform="translate(31.909773 0) scale(0.996264)"/>
       <use xlink:href="#CMSS17-70" transform="translate(54.090496 0) scale(0.996264)"/>
       <use xlink:href="#CMSS17-67" transform="translate(102.295439 0) scale(0.996264)"/>
       <use xlink:href="#CMSS17-72" transform="translate(149.139062 0) scale(0.996264)"/>
       <use xlink:href="#CMSS17-65" transform="translate(181.048835 0) scale(0.996264)"/>
       <use xlink:href="#CMSS17-70" transform="translate(222.687657 0) scale(0.996264)"/>
      </g>
     </g>
    </g>
    <g id="ytick_7">
     <g id="line2d_17">
      <g>
       <use xlink:href="#md5e9e4930f" x="62.64618" y="117.752263" style="fill: #b0b0b0; stroke: #b0b0b0; stroke-width: 0.4"/>
      </g>
     </g>
     <g id="text_12">
      <!-- som-rs-ast -->
      <g transform="translate(12.862132 121.211512) scale(0.1 -0.1)">
       <defs>
        <path id="CMSS17-2d" d="M 1664 1216 
L 1664 1585 
L 64 1585 
L 64 1216 
L 1664 1216 
z
" transform="scale(0.015625)"/>
       </defs>
       <use xlink:href="#CMSS17-73" transform="scale(0.996264)"/>
       <use xlink:href="#CMSS17-6f" transform="translate(35.913542 0) scale(0.996264)"/>
       <use xlink:href="#CMSS17-6d" transform="translate(82.757166 0) scale(0.996264)"/>
       <use xlink:href="#CMSS17-2d" transform="translate(156.98642 0) scale(0.996264)"/>
       <use xlink:href="#CMSS17-72" transform="translate(188.215533 0) scale(0.996264)"/>
       <use xlink:href="#CMSS17-73" transform="translate(220.125305 0) scale(0.996264)"/>
       <use xlink:href="#CMSS17-2d" transform="translate(256.038847 0) scale(0.996264)"/>
       <use xlink:href="#CMSS17-61" transform="translate(287.26796 0) scale(0.996264)"/>
       <use xlink:href="#CMSS17-73" transform="translate(332.189881 0) scale(0.996264)"/>
       <use xlink:href="#CMSS17-74" transform="translate(368.103423 0) scale(0.996264)"/>
      </g>
     </g>
    </g>
    <g id="ytick_8">
     <g id="line2d_18">
      <g>
       <use xlink:href="#md5e9e4930f" x="62.64618" y="134.760303" style="fill: #b0b0b0; stroke: #b0b0b0; stroke-width: 0.4"/>
      </g>
     </g>
     <g id="text_13">
      <!-- som-rs-bc -->
      <g transform="translate(15.214425 138.219552) scale(0.1 -0.1)">
       <use xlink:href="#CMSS17-73" transform="scale(0.996264)"/>
       <use xlink:href="#CMSS17-6f" transform="translate(35.913542 0) scale(0.996264)"/>
       <use xlink:href="#CMSS17-6d" transform="translate(82.757166 0) scale(0.996264)"/>
       <use xlink:href="#CMSS17-2d" transform="translate(156.98642 0) scale(0.996264)"/>
       <use xlink:href="#CMSS17-72" transform="translate(188.215533 0) scale(0.996264)"/>
       <use xlink:href="#CMSS17-73" transform="translate(220.125305 0) scale(0.996264)"/>
       <use xlink:href="#CMSS17-2d" transform="translate(256.038847 0) scale(0.996264)"/>
       <use xlink:href="#CMSS17-62" transform="translate(287.26796 0) scale(0.996264)"/>
       <use xlink:href="#CMSS17-63" transform="translate(338.075342 0) scale(0.996264)"/>
      </g>
     </g>
    </g>
   </g>
   <g id="patch_3">
    <path d="M 132.072917 143.264323 
L 134.671799 143.264323 
L 134.671799 7.2 
L 132.072917 7.2 
z
" clip-path="url(#p94f432198c)" style="fill: #34495e; opacity: 0.1"/>
   </g>
   <g id="patch_4">
    <path d="M 130.950456 143.264323 
L 133.63436 143.264323 
L 133.63436 7.2 
L 130.950456 7.2 
z
" clip-path="url(#p94f432198c)" style="fill: #3a87d9; opacity: 0.1"/>
   </g>
   <g id="patch_5">
    <path d="M 62.64618 143.264323 
L 62.64618 7.2 
" style="fill: none; stroke: #b0b0b0; stroke-width: 0.4; stroke-linejoin: miter; stroke-linecap: square"/>
   </g>
   <g id="patch_6">
    <path d="M 62.64618 143.264323 
L 203.154961 143.264323 
" style="fill: none; stroke: #b0b0b0; stroke-width: 0.4; stroke-linejoin: miter; stroke-linecap: square"/>
   </g>
   <g id="line2d_19">
    <path d="M 132.072917 143.264323 
L 132.072917 7.2 
" clip-path="url(#p94f432198c)" style="fill: none; stroke-dasharray: 1.85,0.8; stroke-dashoffset: 0; stroke: #2c3e50; stroke-opacity: 0.5; stroke-width: 0.5"/>
   </g>
   <g id="line2d_20">
    <path d="M 134.671799 143.264323 
L 134.671799 7.2 
" clip-path="url(#p94f432198c)" style="fill: none; stroke-dasharray: 1.85,0.8; stroke-dashoffset: 0; stroke: #2c3e50; stroke-opacity: 0.5; stroke-width: 0.5"/>
   </g>
   <g id="line2d_21">
    <path d="M 130.950456 143.264323 
L 130.950456 7.2 
" clip-path="url(#p94f432198c)" style="fill: none; stroke-dasharray: 1.85,0.8; stroke-dashoffset: 0; stroke: #1a5c85; stroke-opacity: 0.5; stroke-width: 0.5"/>
   </g>
   <g id="line2d_22">
    <path d="M 133.63436 143.264323 
L 133.63436 7.2 
" clip-path="url(#p94f432198c)" style="fill: none; stroke-dasharray: 1.85,0.8; stroke-dashoffset: 0; stroke: #1a5c85; stroke-opacity: 0.5; stroke-width: 0.5"/>
   </g>
   <g id="patch_7">
    <path d="M 132.072917 143.264323 
L 133.63436 143.264323 
L 133.63436 7.2 
L 132.072917 7.2 
z
" clip-path="url(#p94f432198c)" style="fill: #d3d3d3; opacity: 0.05"/>
   </g>
   <g id="line2d_23">
    <path d="M 133.532333 143.264323 
L 133.532333 7.2 
" clip-path="url(#p94f432198c)" style="fill: none; stroke: #1b2631; stroke-width: 0.5; stroke-linecap: square"/>
   </g>
   <g id="line2d_24">
    <path d="M 132.585184 143.264323 
L 132.585184 7.2 
" clip-path="url(#p94f432198c)" style="fill: none; stroke: #1a5c85; stroke-width: 0.5; stroke-linecap: square"/>
   </g>
   <g id="patch_8">
    <path d="M -218.37138 8.900804 
L 132.958209 8.900804 
L 132.958209 15.70402 
L -218.37138 15.70402 
z
" clip-path="url(#p94f432198c)" style="fill: #34495e; opacity: 0.9; stroke: #2c3e50; stroke-width: 0.5; stroke-linejoin: miter"/>
   </g>
   <g id="patch_9">
    <path d="M -218.37138 15.70402 
L 133.351622 15.70402 
L 133.351622 22.507236 
L -218.37138 22.507236 
z
" clip-path="url(#p94f432198c)" style="fill: #3a87d9; opacity: 0.9; stroke: #1a5c85; stroke-width: 0.5; stroke-linejoin: miter"/>
   </g>
   <g id="patch_10">
    <path d="M -218.37138 25.908844 
L 132.89974 25.908844 
L 132.89974 32.712061 
L -218.37138 32.712061 
z
" clip-path="url(#p94f432198c)" style="fill: #34495e; opacity: 0.9; stroke: #2c3e50; stroke-width: 0.5; stroke-linejoin: miter"/>
   </g>
   <g id="patch_11">
    <path d="M -218.37138 32.712061 
L 132.912858 32.712061 
L 132.912858 39.515277 
L -218.37138 39.515277 
z
" clip-path="url(#p94f432198c)" style="fill: #3a87d9; opacity: 0.9; stroke: #1a5c85; stroke-width: 0.5; stroke-linejoin: miter"/>
   </g>
   <g id="patch_12">
    <path d="M -218.37138 42.916885 
L 133.374326 42.916885 
L 133.374326 49.720101 
L -218.37138 49.720101 
z
" clip-path="url(#p94f432198c)" style="fill: #34495e; opacity: 0.9; stroke: #2c3e50; stroke-width: 0.5; stroke-linejoin: miter"/>
   </g>
   <g id="patch_13">
    <path d="M -218.37138 49.720101 
L 134.699138 49.720101 
L 134.699138 56.523317 
L -218.37138 56.523317 
z
" clip-path="url(#p94f432198c)" style="fill: #3a87d9; opacity: 0.9; stroke: #1a5c85; stroke-width: 0.5; stroke-linejoin: miter"/>
   </g>
   <g id="patch_14">
    <path d="M -218.37138 59.924925 
L 130.840307 59.924925 
L 130.840307 66.728141 
L -218.37138 66.728141 
z
" clip-path="url(#p94f432198c)" style="fill: #34495e; opacity: 0.9; stroke: #2c3e50; stroke-width: 0.5; stroke-linejoin: miter"/>
   </g>
   <g id="patch_15">
    <path d="M -218.37138 66.728141 
L 126.550402 66.728141 
L 126.550402 73.531358 
L -218.37138 73.531358 
z
" clip-path="url(#p94f432198c)" style="fill: #3a87d9; opacity: 0.9; stroke: #1a5c85; stroke-width: 0.5; stroke-linejoin: miter"/>
   </g>
   <g id="patch_16">
    <path d="M -218.37138 76.932966 
L 158.748018 76.932966 
L 158.748018 83.736182 
L -218.37138 83.736182 
z
" clip-path="url(#p94f432198c)" style="fill: #34495e; opacity: 0.9; stroke: #2c3e50; stroke-width: 0.5; stroke-linejoin: miter"/>
   </g>
   <g id="patch_17">
    <path d="M -218.37138 83.736182 
L 139.843637 83.736182 
L 139.843637 90.539398 
L -218.37138 90.539398 
z
" clip-path="url(#p94f432198c)" style="fill: #3a87d9; opacity: 0.9; stroke: #1a5c85; stroke-width: 0.5; stroke-linejoin: miter"/>
   </g>
   <g id="patch_18">
    <path d="M -218.37138 93.941006 
L 134.148005 93.941006 
L 134.148005 100.744222 
L -218.37138 100.744222 
z
" clip-path="url(#p94f432198c)" style="fill: #34495e; opacity: 0.9; stroke: #2c3e50; stroke-width: 0.5; stroke-linejoin: miter"/>
   </g>
   <g id="patch_19">
    <path d="M -218.37138 100.744222 
L 133.36046 100.744222 
L 133.36046 107.547438 
L -218.37138 107.547438 
z
" clip-path="url(#p94f432198c)" style="fill: #3a87d9; opacity: 0.9; stroke: #1a5c85; stroke-width: 0.5; stroke-linejoin: miter"/>
   </g>
   <g id="patch_20">
    <path d="M -218.37138 110.949047 
L 133.347093 110.949047 
L 133.347093 117.752263 
L -218.37138 117.752263 
z
" clip-path="url(#p94f432198c)" style="fill: #34495e; opacity: 0.9; stroke: #2c3e50; stroke-width: 0.5; stroke-linejoin: miter"/>
   </g>
   <g id="patch_21">
    <path d="M -218.37138 117.752263 
L 133.12262 117.752263 
L 133.12262 124.555479 
L -218.37138 124.555479 
z
" clip-path="url(#p94f432198c)" style="fill: #3a87d9; opacity: 0.9; stroke: #1a5c85; stroke-width: 0.5; stroke-linejoin: miter"/>
   </g>
   <g id="patch_22">
    <path d="M -218.37138 127.957087 
L 133.166183 127.957087 
L 133.166183 134.760303 
L -218.37138 134.760303 
z
" clip-path="url(#p94f432198c)" style="fill: #34495e; opacity: 0.9; stroke: #2c3e50; stroke-width: 0.5; stroke-linejoin: miter"/>
   </g>
   <g id="patch_23">
    <path d="M -218.37138 134.760303 
L 131.463154 134.760303 
L 131.463154 141.563519 
L -218.37138 141.563519 
z
" clip-path="url(#p94f432198c)" style="fill: #3a87d9; opacity: 0.9; stroke: #1a5c85; stroke-width: 0.5; stroke-linejoin: miter"/>
   </g>
   <g id="LineCollection_1">
    <path d="M 131.490243 12.302412 
L 134.998935 12.302412 
" clip-path="url(#p94f432198c)" style="fill: none; stroke: #2c2c2c; stroke-width: 0.5"/>
   </g>
   <g id="line2d_25">
    <defs>
     <path id="m469b601efb" d="M 0 0.8 
L 0 -0.8 
" style="stroke: #2c2c2c"/>
    </defs>
    <g clip-path="url(#p94f432198c)">
     <use xlink:href="#m469b601efb" x="131.490243" y="12.302412" style="fill: #2c2c2c; stroke: #2c2c2c"/>
    </g>
   </g>
   <g id="line2d_26">
    <g clip-path="url(#p94f432198c)">
     <use xlink:href="#m469b601efb" x="134.998935" y="12.302412" style="fill: #2c2c2c; stroke: #2c2c2c"/>
    </g>
   </g>
   <g id="LineCollection_2">
    <path d="M 131.714243 19.105628 
L 134.979913 19.105628 
" clip-path="url(#p94f432198c)" style="fill: none; stroke: #2c2c2c; stroke-width: 0.5"/>
   </g>
   <g id="line2d_27">
    <g clip-path="url(#p94f432198c)">
     <use xlink:href="#m469b601efb" x="131.714243" y="19.105628" style="fill: #2c2c2c; stroke: #2c2c2c"/>
    </g>
   </g>
   <g id="line2d_28">
    <g clip-path="url(#p94f432198c)">
     <use xlink:href="#m469b601efb" x="134.979913" y="19.105628" style="fill: #2c2c2c; stroke: #2c2c2c"/>
    </g>
   </g>
   <g id="LineCollection_3">
    <path d="M 132.87822 29.310453 
L 132.92213 29.310453 
" clip-path="url(#p94f432198c)" style="fill: none; stroke: #2c2c2c; stroke-width: 0.5"/>
   </g>
   <g id="line2d_29">
    <g clip-path="url(#p94f432198c)">
     <use xlink:href="#m469b601efb" x="132.87822" y="29.310453" style="fill: #2c2c2c; stroke: #2c2c2c"/>
    </g>
   </g>
   <g id="line2d_30">
    <g clip-path="url(#p94f432198c)">
     <use xlink:href="#m469b601efb" x="132.92213" y="29.310453" style="fill: #2c2c2c; stroke: #2c2c2c"/>
    </g>
   </g>
   <g id="LineCollection_4">
    <path d="M 132.886172 36.113669 
L 132.94087 36.113669 
" clip-path="url(#p94f432198c)" style="fill: none; stroke: #2c2c2c; stroke-width: 0.5"/>
   </g>
   <g id="line2d_31">
    <g clip-path="url(#p94f432198c)">
     <use xlink:href="#m469b601efb" x="132.886172" y="36.113669" style="fill: #2c2c2c; stroke: #2c2c2c"/>
    </g>
   </g>
   <g id="line2d_32">
    <g clip-path="url(#p94f432198c)">
     <use xlink:href="#m469b601efb" x="132.94087" y="36.113669" style="fill: #2c2c2c; stroke: #2c2c2c"/>
    </g>
   </g>
   <g id="LineCollection_5">
    <path d="M 129.827018 46.318493 
L 138.020279 46.318493 
" clip-path="url(#p94f432198c)" style="fill: none; stroke: #2c2c2c; stroke-width: 0.5"/>
   </g>
   <g id="line2d_33">
    <g clip-path="url(#p94f432198c)">
     <use xlink:href="#m469b601efb" x="129.827018" y="46.318493" style="fill: #2c2c2c; stroke: #2c2c2c"/>
    </g>
   </g>
   <g id="line2d_34">
    <g clip-path="url(#p94f432198c)">
     <use xlink:href="#m469b601efb" x="138.020279" y="46.318493" style="fill: #2c2c2c; stroke: #2c2c2c"/>
    </g>
   </g>
   <g id="LineCollection_6">
    <path d="M 130.728373 53.121709 
L 138.608274 53.121709 
" clip-path="url(#p94f432198c)" style="fill: none; stroke: #2c2c2c; stroke-width: 0.5"/>
   </g>
   <g id="line2d_35">
    <g clip-path="url(#p94f432198c)">
     <use xlink:href="#m469b601efb" x="130.728373" y="53.121709" style="fill: #2c2c2c; stroke: #2c2c2c"/>
    </g>
   </g>
   <g id="line2d_36">
    <g clip-path="url(#p94f432198c)">
     <use xlink:href="#m469b601efb" x="138.608274" y="53.121709" style="fill: #2c2c2c; stroke: #2c2c2c"/>
    </g>
   </g>
   <g id="LineCollection_7">
    <path d="M 112.177672 63.326533 
L 148.705099 63.326533 
" clip-path="url(#p94f432198c)" style="fill: none; stroke: #2c2c2c; stroke-width: 0.5"/>
   </g>
   <g id="line2d_37">
    <g clip-path="url(#p94f432198c)">
     <use xlink:href="#m469b601efb" x="112.177672" y="63.326533" style="fill: #2c2c2c; stroke: #2c2c2c"/>
    </g>
   </g>
   <g id="line2d_38">
    <g clip-path="url(#p94f432198c)">
     <use xlink:href="#m469b601efb" x="148.705099" y="63.326533" style="fill: #2c2c2c; stroke: #2c2c2c"/>
    </g>
   </g>
   <g id="LineCollection_8">
    <path d="M 108.797701 70.12975 
L 144.260854 70.12975 
" clip-path="url(#p94f432198c)" style="fill: none; stroke: #2c2c2c; stroke-width: 0.5"/>
   </g>
   <g id="line2d_39">
    <g clip-path="url(#p94f432198c)">
     <use xlink:href="#m469b601efb" x="108.797701" y="70.12975" style="fill: #2c2c2c; stroke: #2c2c2c"/>
    </g>
   </g>
   <g id="line2d_40">
    <g clip-path="url(#p94f432198c)">
     <use xlink:href="#m469b601efb" x="144.260854" y="70.12975" style="fill: #2c2c2c; stroke: #2c2c2c"/>
    </g>
   </g>
   <g id="LineCollection_9">
    <path d="M 135.370386 80.334574 
L 197.579881 80.334574 
" clip-path="url(#p94f432198c)" style="fill: none; stroke: #2c2c2c; stroke-width: 0.5"/>
   </g>
   <g id="line2d_41">
    <g clip-path="url(#p94f432198c)">
     <use xlink:href="#m469b601efb" x="135.370386" y="80.334574" style="fill: #2c2c2c; stroke: #2c2c2c"/>
    </g>
   </g>
   <g id="line2d_42">
    <g clip-path="url(#p94f432198c)">
     <use xlink:href="#m469b601efb" x="197.579881" y="80.334574" style="fill: #2c2c2c; stroke: #2c2c2c"/>
    </g>
   </g>
   <g id="LineCollection_10">
    <path d="M 103.723144 87.13779 
L 190.414497 87.13779 
" clip-path="url(#p94f432198c)" style="fill: none; stroke: #2c2c2c; stroke-width: 0.5"/>
   </g>
   <g id="line2d_43">
    <g clip-path="url(#p94f432198c)">
     <use xlink:href="#m469b601efb" x="103.723144" y="87.13779" style="fill: #2c2c2c; stroke: #2c2c2c"/>
    </g>
   </g>
   <g id="line2d_44">
    <g clip-path="url(#p94f432198c)">
     <use xlink:href="#m469b601efb" x="190.414497" y="87.13779" style="fill: #2c2c2c; stroke: #2c2c2c"/>
    </g>
   </g>
   <g id="LineCollection_11">
    <path d="M 130.979001 97.342614 
L 137.332898 97.342614 
" clip-path="url(#p94f432198c)" style="fill: none; stroke: #2c2c2c; stroke-width: 0.5"/>
   </g>
   <g id="line2d_45">
    <g clip-path="url(#p94f432198c)">
     <use xlink:href="#m469b601efb" x="130.979001" y="97.342614" style="fill: #2c2c2c; stroke: #2c2c2c"/>
    </g>
   </g>
   <g id="line2d_46">
    <g clip-path="url(#p94f432198c)">
     <use xlink:href="#m469b601efb" x="137.332898" y="97.342614" style="fill: #2c2c2c; stroke: #2c2c2c"/>
    </g>
   </g>
   <g id="LineCollection_12">
    <path d="M 131.025889 104.14583 
L 136.478181 104.14583 
" clip-path="url(#p94f432198c)" style="fill: none; stroke: #2c2c2c; stroke-width: 0.5"/>
   </g>
   <g id="line2d_47">
    <g clip-path="url(#p94f432198c)">
     <use xlink:href="#m469b601efb" x="131.025889" y="104.14583" style="fill: #2c2c2c; stroke: #2c2c2c"/>
    </g>
   </g>
   <g id="line2d_48">
    <g clip-path="url(#p94f432198c)">
     <use xlink:href="#m469b601efb" x="136.478181" y="104.14583" style="fill: #2c2c2c; stroke: #2c2c2c"/>
    </g>
   </g>
   <g id="LineCollection_13">
    <path d="M 131.36556 114.350655 
L 136.846448 114.350655 
" clip-path="url(#p94f432198c)" style="fill: none; stroke: #2c2c2c; stroke-width: 0.5"/>
   </g>
   <g id="line2d_49">
    <g clip-path="url(#p94f432198c)">
     <use xlink:href="#m469b601efb" x="131.36556" y="114.350655" style="fill: #2c2c2c; stroke: #2c2c2c"/>
    </g>
   </g>
   <g id="line2d_50">
    <g clip-path="url(#p94f432198c)">
     <use xlink:href="#m469b601efb" x="136.846448" y="114.350655" style="fill: #2c2c2c; stroke: #2c2c2c"/>
    </g>
   </g>
   <g id="LineCollection_14">
    <path d="M 130.935185 121.153871 
L 135.412682 121.153871 
" clip-path="url(#p94f432198c)" style="fill: none; stroke: #2c2c2c; stroke-width: 0.5"/>
   </g>
   <g id="line2d_51">
    <g clip-path="url(#p94f432198c)">
     <use xlink:href="#m469b601efb" x="130.935185" y="121.153871" style="fill: #2c2c2c; stroke: #2c2c2c"/>
    </g>
   </g>
   <g id="line2d_52">
    <g clip-path="url(#p94f432198c)">
     <use xlink:href="#m469b601efb" x="135.412682" y="121.153871" style="fill: #2c2c2c; stroke: #2c2c2c"/>
    </g>
   </g>
   <g id="LineCollection_15">
    <path d="M 132.235492 131.358695 
L 133.971885 131.358695 
" clip-path="url(#p94f432198c)" style="fill: none; stroke: #2c2c2c; stroke-width: 0.5"/>
   </g>
   <g id="line2d_53">
    <g clip-path="url(#p94f432198c)">
     <use xlink:href="#m469b601efb" x="132.235492" y="131.358695" style="fill: #2c2c2c; stroke: #2c2c2c"/>
    </g>
   </g>
   <g id="line2d_54">
    <g clip-path="url(#p94f432198c)">
     <use xlink:href="#m469b601efb" x="133.971885" y="131.358695" style="fill: #2c2c2c; stroke: #2c2c2c"/>
    </g>
   </g>
   <g id="LineCollection_16">
    <path d="M 130.27349 138.161911 
L 132.636502 138.161911 
" clip-path="url(#p94f432198c)" style="fill: none; stroke: #2c2c2c; stroke-width: 0.5"/>
   </g>
   <g id="line2d_55">
    <g clip-path="url(#p94f432198c)">
     <use xlink:href="#m469b601efb" x="130.27349" y="138.161911" style="fill: #2c2c2c; stroke: #2c2c2c"/>
    </g>
   </g>
   <g id="line2d_56">
    <g clip-path="url(#p94f432198c)">
     <use xlink:href="#m469b601efb" x="132.636502" y="138.161911" style="fill: #2c2c2c; stroke: #2c2c2c"/>
    </g>
   </g>
   <g id="line2d_57">
    <path d="M 132.90057 143.264323 
L 132.90057 7.2 
" clip-path="url(#p94f432198c)" style="fill: none; stroke: #000000; stroke-width: 0.5; stroke-linecap: square"/>
   </g>
  </g>
 </g>
 <defs>
  <clipPath id="p94f432198c">
   <rect x="62.64618" y="7.2" width="140.50878" height="136.064323"/>
  </clipPath>
 </defs>
</svg>
