<?xml version="1.0" encoding="utf-8" standalone="no"?>
<!DOCTYPE svg PUBLIC "-//W3C//DTD SVG 1.1//EN"
  "http://www.w3.org/Graphics/SVG/1.1/DTD/svg11.dtd">
<svg xmlns:xlink="http://www.w3.org/1999/xlink" width="216.72pt" height="162.36pt" viewBox="0 0 216.72 162.36" xmlns="http://www.w3.org/2000/svg" version="1.1">
 <metadata>
  <rdf:RDF xmlns:dc="http://purl.org/dc/elements/1.1/" xmlns:cc="http://creativecommons.org/ns#" xmlns:rdf="http://www.w3.org/1999/02/22-rdf-syntax-ns#">
   <cc:Work>
    <dc:type rdf:resource="http://purl.org/dc/dcmitype/StillImage"/>
    <dc:date>2025-07-29T21:29:09.918728</dc:date>
    <dc:format>image/svg+xml</dc:format>
    <dc:creator>
     <cc:Agent>
      <dc:title>Matplotlib v3.9.2, https://matplotlib.org/</dc:title>
     </cc:Agent>
    </dc:creator>
   </cc:Work>
  </rdf:RDF>
 </metadata>
 <defs>
  <style type="text/css">*{stroke-linejoin: round; stroke-linecap: butt}</style>
 </defs>
 <g id="figure_1">
  <g id="patch_1">
   <path d="M 0 162.36 
L 216.72 162.36 
L 216.72 0 
L 0 0 
z
" style="fill: #ffffff"/>
  </g>
  <g id="axes_1">
   <g id="patch_2">
    <path d="M 54.484048 120.448647 
L 203.154961 120.448647 
L 203.154961 27.906776 
L 54.484048 27.906776 
z
" style="fill: #ffffff"/>
   </g>
   <g id="matplotlib.axis_1">
    <g id="xtick_1">
     <g id="line2d_1">
      <path d="M 54.484048 120.448647 
L 54.484048 27.906776 
" clip-path="url(#p5635f661c1)" style="fill: none; stroke: #cccccc; stroke-width: 0.4; stroke-linecap: square"/>
     </g>
     <g id="line2d_2">
      <defs>
       <path id="m318bad33af" d="M 0 0 
L 0 3.5 
" style="stroke: #b0b0b0; stroke-width: 0.4"/>
      </defs>
      <g>
       <use xlink:href="#m318bad33af" x="54.484048" y="120.448647" style="fill: #b0b0b0; stroke: #b0b0b0; stroke-width: 0.4"/>
      </g>
     </g>
     <g id="text_1">
      <!-- $\mathdefault{0.6}$ -->
      <g transform="translate(48.119009 134.367145) scale(0.1 -0.1)">
       <defs>
        <path id="CMR17-30" d="M 2688 2025 
C 2688 2416 2682 3080 2413 3591 
C 2176 4039 1798 4198 1466 4198 
C 1158 4198 768 4058 525 3597 
C 269 3118 243 2524 243 2025 
C 243 1661 250 1106 448 619 
C 723 -39 1216 -128 1466 -128 
C 1760 -128 2208 -7 2470 600 
C 2662 1042 2688 1559 2688 2025 
z
M 1466 -26 
C 1056 -26 813 325 723 812 
C 653 1188 653 1738 653 2096 
C 653 2588 653 2997 736 3387 
C 858 3929 1216 4096 1466 4096 
C 1728 4096 2067 3923 2189 3400 
C 2272 3036 2278 2607 2278 2096 
C 2278 1680 2278 1169 2202 792 
C 2067 95 1690 -26 1466 -26 
z
" transform="scale(0.015625)"/>
        <path id="CMMI12-3a" d="M 1178 307 
C 1178 492 1024 619 870 619 
C 685 619 557 466 557 313 
C 557 128 710 0 864 0 
C 1050 0 1178 153 1178 307 
z
" transform="scale(0.015625)"/>
        <path id="CMR17-36" d="M 678 2176 
C 678 3690 1395 4032 1811 4032 
C 1946 4032 2272 4009 2400 3776 
C 2298 3776 2106 3776 2106 3553 
C 2106 3381 2246 3323 2336 3323 
C 2394 3323 2566 3348 2566 3560 
C 2566 3954 2246 4179 1805 4179 
C 1043 4179 243 3390 243 1984 
C 243 253 966 -128 1478 -128 
C 2099 -128 2688 427 2688 1283 
C 2688 2081 2170 2662 1517 2662 
C 1126 2662 838 2407 678 1960 
L 678 2176 
z
M 1478 25 
C 691 25 691 1200 691 1436 
C 691 1896 909 2560 1504 2560 
C 1613 2560 1926 2560 2138 2120 
C 2253 1870 2253 1609 2253 1289 
C 2253 944 2253 690 2118 434 
C 1978 171 1773 25 1478 25 
z
" transform="scale(0.015625)"/>
       </defs>
       <use xlink:href="#CMR17-30" transform="scale(0.996264)"/>
       <use xlink:href="#CMMI12-3a" transform="translate(45.690477 0) scale(0.996264)"/>
       <use xlink:href="#CMR17-36" transform="translate(72.787654 0) scale(0.996264)"/>
      </g>
     </g>
    </g>
    <g id="xtick_2">
     <g id="line2d_3">
      <path d="M 91.651776 120.448647 
L 91.651776 27.906776 
" clip-path="url(#p5635f661c1)" style="fill: none; stroke: #cccccc; stroke-width: 0.4; stroke-linecap: square"/>
     </g>
     <g id="line2d_4">
      <g>
       <use xlink:href="#m318bad33af" x="91.651776" y="120.448647" style="fill: #b0b0b0; stroke: #b0b0b0; stroke-width: 0.4"/>
      </g>
     </g>
     <g id="text_2">
      <!-- $\mathdefault{0.8}$ -->
      <g transform="translate(85.286737 134.367145) scale(0.1 -0.1)">
       <defs>
        <path id="CMR17-38" d="M 1741 2264 
C 2144 2467 2554 2773 2554 3263 
C 2554 3841 1990 4179 1472 4179 
C 890 4179 378 3759 378 3180 
C 378 3021 416 2747 666 2505 
C 730 2442 998 2251 1171 2130 
C 883 1983 211 1634 211 934 
C 211 279 838 -128 1459 -128 
C 2144 -128 2720 362 2720 1010 
C 2720 1590 2330 1857 2074 2029 
L 1741 2264 
z
M 902 2822 
C 851 2854 595 3051 595 3351 
C 595 3739 998 4032 1459 4032 
C 1965 4032 2336 3676 2336 3262 
C 2336 2669 1670 2331 1638 2331 
C 1632 2331 1626 2331 1574 2370 
L 902 2822 
z
M 2080 1519 
C 2176 1449 2483 1240 2483 851 
C 2483 381 2010 25 1472 25 
C 890 25 448 438 448 940 
C 448 1443 838 1862 1280 2060 
L 2080 1519 
z
" transform="scale(0.015625)"/>
       </defs>
       <use xlink:href="#CMR17-30" transform="scale(0.996264)"/>
       <use xlink:href="#CMMI12-3a" transform="translate(45.690477 0) scale(0.996264)"/>
       <use xlink:href="#CMR17-38" transform="translate(72.787654 0) scale(0.996264)"/>
      </g>
     </g>
    </g>
    <g id="xtick_3">
     <g id="line2d_5">
      <path d="M 128.819504 120.448647 
L 128.819504 27.906776 
" clip-path="url(#p5635f661c1)" style="fill: none; stroke: #cccccc; stroke-width: 0.4; stroke-linecap: square"/>
     </g>
     <g id="line2d_6">
      <g>
       <use xlink:href="#m318bad33af" x="128.819504" y="120.448647" style="fill: #b0b0b0; stroke: #b0b0b0; stroke-width: 0.4"/>
      </g>
     </g>
     <g id="text_3">
      <!-- $\mathdefault{1.0}$ -->
      <g transform="translate(122.454465 134.367145) scale(0.1 -0.1)">
       <defs>
        <path id="CMR17-31" d="M 1702 4058 
C 1702 4192 1696 4192 1606 4192 
C 1357 3916 979 3827 621 3827 
C 602 3827 570 3827 563 3808 
C 557 3795 557 3782 557 3648 
C 755 3648 1088 3686 1344 3839 
L 1344 461 
C 1344 236 1331 160 781 160 
L 589 160 
L 589 0 
C 896 0 1216 0 1523 0 
C 1830 0 2150 0 2458 0 
L 2458 160 
L 2266 160 
C 1715 160 1702 230 1702 458 
L 1702 4058 
z
" transform="scale(0.015625)"/>
       </defs>
       <use xlink:href="#CMR17-31" transform="scale(0.996264)"/>
       <use xlink:href="#CMMI12-3a" transform="translate(45.690477 0) scale(0.996264)"/>
       <use xlink:href="#CMR17-30" transform="translate(72.787654 0) scale(0.996264)"/>
      </g>
     </g>
    </g>
    <g id="xtick_4">
     <g id="line2d_7">
      <path d="M 165.987232 120.448647 
L 165.987232 27.906776 
" clip-path="url(#p5635f661c1)" style="fill: none; stroke: #cccccc; stroke-width: 0.4; stroke-linecap: square"/>
     </g>
     <g id="line2d_8">
      <g>
       <use xlink:href="#m318bad33af" x="165.987232" y="120.448647" style="fill: #b0b0b0; stroke: #b0b0b0; stroke-width: 0.4"/>
      </g>
     </g>
     <g id="text_4">
      <!-- $\mathdefault{1.2}$ -->
      <g transform="translate(159.622193 134.367145) scale(0.1 -0.1)">
       <defs>
        <path id="CMR17-32" d="M 2669 989 
L 2554 989 
C 2490 536 2438 459 2413 420 
C 2381 369 1920 369 1830 369 
L 602 369 
C 832 619 1280 1072 1824 1597 
C 2214 1967 2669 2402 2669 3035 
C 2669 3790 2067 4224 1395 4224 
C 691 4224 262 3604 262 3030 
C 262 2780 448 2748 525 2748 
C 589 2748 781 2787 781 3010 
C 781 3207 614 3264 525 3264 
C 486 3264 448 3258 422 3245 
C 544 3790 915 4058 1306 4058 
C 1862 4058 2227 3617 2227 3035 
C 2227 2479 1901 2000 1536 1584 
L 262 146 
L 262 0 
L 2515 0 
L 2669 989 
z
" transform="scale(0.015625)"/>
       </defs>
       <use xlink:href="#CMR17-31" transform="scale(0.996264)"/>
       <use xlink:href="#CMMI12-3a" transform="translate(45.690477 0) scale(0.996264)"/>
       <use xlink:href="#CMR17-32" transform="translate(72.787654 0) scale(0.996264)"/>
      </g>
     </g>
    </g>
    <g id="xtick_5">
     <g id="line2d_9">
      <path d="M 203.154961 120.448647 
L 203.154961 27.906776 
" clip-path="url(#p5635f661c1)" style="fill: none; stroke: #cccccc; stroke-width: 0.4; stroke-linecap: square"/>
     </g>
     <g id="line2d_10">
      <g>
       <use xlink:href="#m318bad33af" x="203.154961" y="120.448647" style="fill: #b0b0b0; stroke: #b0b0b0; stroke-width: 0.4"/>
      </g>
     </g>
     <g id="text_5">
      <!-- $\mathdefault{1.4}$ -->
      <g transform="translate(196.789921 134.367145) scale(0.1 -0.1)">
       <defs>
        <path id="CMR17-34" d="M 2150 4122 
C 2150 4256 2144 4256 2029 4256 
L 128 1254 
L 128 1088 
L 1779 1088 
L 1779 457 
C 1779 224 1766 160 1318 160 
L 1197 160 
L 1197 0 
C 1402 0 1747 0 1965 0 
C 2182 0 2528 0 2733 0 
L 2733 160 
L 2611 160 
C 2163 160 2150 224 2150 457 
L 2150 1088 
L 2803 1088 
L 2803 1254 
L 2150 1254 
L 2150 4122 
z
M 1798 3703 
L 1798 1254 
L 256 1254 
L 1798 3703 
z
" transform="scale(0.015625)"/>
       </defs>
       <use xlink:href="#CMR17-31" transform="scale(0.996264)"/>
       <use xlink:href="#CMMI12-3a" transform="translate(45.690477 0) scale(0.996264)"/>
       <use xlink:href="#CMR17-34" transform="translate(72.787654 0) scale(0.996264)"/>
      </g>
     </g>
    </g>
    <g id="text_6">
     <!-- Relative to no barriers -->
     <g transform="translate(82.721468 153.222822) scale(0.1 -0.1)">
      <defs>
       <path id="CMSS17-52" d="M 2522 2109 
L 2534 2115 
C 3533 2459 3539 3147 3539 3268 
C 3539 3873 2925 4453 2003 4453 
L 570 4453 
L 570 32 
L 1094 32 
L 1094 2048 
L 2035 2048 
L 3168 32 
L 3706 32 
L 2522 2109 
z
M 1094 2437 
L 1094 4096 
L 1933 4096 
C 2746 4096 3034 3637 3034 3267 
C 3034 2922 2778 2437 1933 2437 
L 1094 2437 
z
" transform="scale(0.015625)"/>
       <path id="CMSS17-65" d="M 2502 1377 
C 2502 1590 2490 2003 2285 2345 
C 2061 2713 1696 2816 1421 2816 
C 755 2816 192 2188 192 1375 
C 192 582 774 -64 1510 -64 
C 1798 -64 2150 19 2470 248 
C 2470 274 2458 414 2451 420 
C 2451 433 2432 630 2432 656 
C 2125 407 1773 325 1517 325 
C 1107 325 666 667 646 1377 
L 2502 1377 
z
M 698 1728 
C 781 2084 1062 2421 1421 2421 
C 1517 2421 1965 2421 2080 1728 
L 698 1728 
z
" transform="scale(0.015625)"/>
       <path id="CMSS17-6c" d="M 947 4416 
L 474 4416 
L 474 0 
L 947 0 
L 947 4416 
z
" transform="scale(0.015625)"/>
       <path id="CMSS17-61" d="M 2406 1791 
C 2406 2392 1978 2808 1402 2808 
C 1120 2808 813 2757 461 2553 
L 499 2135 
C 659 2248 934 2432 1395 2432 
C 1722 2432 1920 2180 1920 1782 
L 1920 1536 
C 896 1536 256 1238 256 726 
C 256 461 416 -64 947 -64 
C 1043 -64 1562 -64 1933 217 
L 1933 -19 
L 2406 -19 
L 2406 1791 
z
M 1920 816 
C 1920 701 1920 548 1728 434 
C 1562 325 1350 325 1261 325 
C 941 325 723 511 723 744 
C 723 1211 1722 1211 1920 1211 
L 1920 816 
z
" transform="scale(0.015625)"/>
       <path id="CMSS17-74" d="M 1069 2368 
L 1901 2368 
L 1901 2737 
L 1069 2737 
L 1069 3520 
L 614 3520 
L 614 2737 
L 109 2737 
L 109 2368 
L 602 2368 
L 602 749 
C 602 384 685 -64 1107 -64 
C 1427 -64 1722 25 2003 172 
L 1901 548 
C 1747 414 1562 337 1363 337 
C 1082 337 1069 696 1069 856 
L 1069 2368 
z
" transform="scale(0.015625)"/>
       <path id="CMSS17-69" d="M 979 4183 
L 442 4183 
L 442 3648 
L 979 3648 
L 979 4183 
z
M 947 2739 
L 474 2739 
L 474 0 
L 947 0 
L 947 2739 
z
" transform="scale(0.015625)"/>
       <path id="CMSS17-76" d="M 2675 2752 
L 2176 2752 
L 1747 1556 
C 1613 1165 1421 627 1389 352 
L 1382 352 
C 1370 468 1318 634 1286 749 
C 1248 890 1197 1056 1158 1172 
L 595 2752 
L 83 2752 
L 1094 0 
L 1664 0 
L 2675 2752 
z
" transform="scale(0.015625)"/>
       <path id="CMSS17-6f" d="M 2829 1356 
C 2829 2176 2221 2816 1504 2816 
C 768 2816 173 2157 173 1356 
C 173 544 787 -64 1498 -64 
C 2227 -64 2829 563 2829 1356 
z
M 1504 337 
C 1050 337 659 709 659 1408 
C 659 2151 1114 2427 1498 2427 
C 1914 2427 2342 2126 2342 1408 
C 2342 683 1926 337 1504 337 
z
" transform="scale(0.015625)"/>
       <path id="CMSS17-6e" d="M 2618 1877 
C 2618 2283 2522 2816 1798 2816 
C 1389 2816 1120 2606 941 2389 
L 941 2758 
L 474 2758 
L 474 0 
L 960 0 
L 960 1559 
C 960 1964 1114 2428 1549 2428 
C 2112 2428 2131 2048 2131 1829 
L 2131 0 
L 2618 0 
L 2618 1877 
z
" transform="scale(0.015625)"/>
       <path id="CMSS17-62" d="M 954 4416 
L 480 4416 
L 480 -13 
L 966 -13 
L 966 274 
C 1210 38 1504 -64 1766 -64 
C 2381 -64 2880 549 2880 1352 
C 2880 2086 2496 2756 1926 2756 
C 1523 2756 1165 2591 954 2419 
L 954 4416 
z
M 966 2046 
C 1107 2222 1306 2368 1587 2368 
C 1965 2368 2394 2097 2394 1352 
C 2394 558 1882 325 1530 325 
C 1402 325 1267 356 1139 464 
C 966 615 966 709 966 797 
L 966 2046 
z
" transform="scale(0.015625)"/>
       <path id="CMSS17-72" d="M 954 1363 
C 954 1965 1395 2368 1958 2368 
L 1958 2789 
C 1549 2789 1165 2585 934 2253 
L 934 2758 
L 480 2758 
L 480 0 
L 954 0 
L 954 1363 
z
" transform="scale(0.015625)"/>
       <path id="CMSS17-73" d="M 2061 2627 
C 1683 2807 1389 2807 1197 2807 
C 742 2807 198 2648 198 2003 
C 198 1359 902 1218 1094 1179 
C 1389 1122 1715 1058 1715 740 
C 1715 337 1254 337 1171 337 
C 915 337 563 407 243 638 
L 166 210 
C 531 0 883 -64 1178 -64 
C 1965 -64 2163 416 2163 781 
C 2163 1094 1984 1305 1862 1401 
C 1651 1568 1574 1587 1050 1696 
C 960 1709 646 1779 646 2066 
C 646 2432 1050 2432 1139 2432 
C 1555 2432 1811 2303 1984 2208 
L 2061 2627 
z
" transform="scale(0.015625)"/>
      </defs>
      <use xlink:href="#CMSS17-52" transform="scale(0.996264)"/>
      <use xlink:href="#CMSS17-65" transform="translate(60.416155 0) scale(0.996264)"/>
      <use xlink:href="#CMSS17-6c" transform="translate(102.054977 0) scale(0.996264)"/>
      <use xlink:href="#CMSS17-61" transform="translate(124.2357 0) scale(0.996264)"/>
      <use xlink:href="#CMSS17-74" transform="translate(169.157621 0) scale(0.996264)"/>
      <use xlink:href="#CMSS17-69" transform="translate(202.989187 0) scale(0.996264)"/>
      <use xlink:href="#CMSS17-76" transform="translate(225.16991 0) scale(0.996264)"/>
      <use xlink:href="#CMSS17-65" transform="translate(268.170052 0) scale(0.996264)"/>
      <use xlink:href="#CMSS17-74" transform="translate(341.037987 0) scale(0.996264)"/>
      <use xlink:href="#CMSS17-6f" transform="translate(374.869554 0) scale(0.996264)"/>
      <use xlink:href="#CMSS17-6e" transform="translate(452.94229 0) scale(0.996264)"/>
      <use xlink:href="#CMSS17-6f" transform="translate(501.147233 0) scale(0.996264)"/>
      <use xlink:href="#CMSS17-62" transform="translate(579.219969 0) scale(0.996264)"/>
      <use xlink:href="#CMSS17-61" transform="translate(627.424912 0) scale(0.996264)"/>
      <use xlink:href="#CMSS17-72" transform="translate(669.744379 0) scale(0.996264)"/>
      <use xlink:href="#CMSS17-72" transform="translate(701.654152 0) scale(0.996264)"/>
      <use xlink:href="#CMSS17-69" transform="translate(733.563924 0) scale(0.996264)"/>
      <use xlink:href="#CMSS17-65" transform="translate(755.744647 0) scale(0.996264)"/>
      <use xlink:href="#CMSS17-72" transform="translate(797.383469 0) scale(0.996264)"/>
      <use xlink:href="#CMSS17-73" transform="translate(829.293242 0) scale(0.996264)"/>
     </g>
    </g>
   </g>
   <g id="matplotlib.axis_2">
    <g id="ytick_1">
     <g id="line2d_11">
      <defs>
       <path id="m0aa79be5d8" d="M 0 0 
L -3.5 0 
" style="stroke: #b0b0b0; stroke-width: 0.4"/>
      </defs>
      <g>
       <use xlink:href="#m0aa79be5d8" x="54.484048" y="35.618598" style="fill: #b0b0b0; stroke: #b0b0b0; stroke-width: 0.4"/>
      </g>
     </g>
     <g id="text_7">
      <!-- alacritty -->
      <g transform="translate(16.304728 39.077847) scale(0.1 -0.1)">
       <defs>
        <path id="CMSS17-63" d="M 2464 2541 
C 2464 2585 2170 2714 2093 2739 
C 1882 2816 1613 2816 1542 2816 
C 710 2816 211 2093 211 1363 
C 211 595 768 -64 1517 -64 
C 1946 -64 2253 76 2502 242 
L 2464 664 
C 2189 453 1869 337 1523 337 
C 1024 337 698 774 698 1369 
C 698 1831 909 2414 1549 2414 
C 1901 2414 2099 2343 2394 2145 
L 2464 2541 
z
" transform="scale(0.015625)"/>
        <path id="CMSS17-79" d="M 2675 2752 
L 2176 2752 
C 1632 1294 1446 702 1434 383 
L 1427 383 
C 1408 696 1126 1460 902 2007 
L 602 2752 
L 83 2752 
L 1216 13 
C 1146 -178 1043 -465 1011 -529 
C 870 -885 774 -885 672 -885 
C 646 -885 442 -885 211 -809 
L 250 -1229 
C 410 -1261 570 -1280 685 -1280 
C 845 -1280 1165 -1280 1459 -497 
L 2675 2752 
z
" transform="scale(0.015625)"/>
       </defs>
       <use xlink:href="#CMSS17-61" transform="scale(0.996264)"/>
       <use xlink:href="#CMSS17-6c" transform="translate(44.921921 0) scale(0.996264)"/>
       <use xlink:href="#CMSS17-61" transform="translate(67.102644 0) scale(0.996264)"/>
       <use xlink:href="#CMSS17-63" transform="translate(112.024564 0) scale(0.996264)"/>
       <use xlink:href="#CMSS17-72" transform="translate(153.663386 0) scale(0.996264)"/>
       <use xlink:href="#CMSS17-69" transform="translate(185.573159 0) scale(0.996264)"/>
       <use xlink:href="#CMSS17-74" transform="translate(207.753882 0) scale(0.996264)"/>
       <use xlink:href="#CMSS17-74" transform="translate(241.585449 0) scale(0.996264)"/>
       <use xlink:href="#CMSS17-79" transform="translate(272.814561 0) scale(0.996264)"/>
      </g>
     </g>
    </g>
    <g id="ytick_2">
     <g id="line2d_12">
      <g>
       <use xlink:href="#m0aa79be5d8" x="54.484048" y="51.042243" style="fill: #b0b0b0; stroke: #b0b0b0; stroke-width: 0.4"/>
      </g>
     </g>
     <g id="text_8">
      <!-- fd -->
      <g transform="translate(41.792522 54.501493) scale(0.1 -0.1)">
       <defs>
        <path id="CMSS17-66" d="M 1075 2368 
L 1722 2368 
L 1722 2737 
L 1062 2737 
L 1062 3559 
C 1062 4014 1408 4092 1606 4092 
C 1670 4092 1850 4092 2080 4009 
L 2080 4429 
C 1933 4461 1754 4480 1613 4480 
C 1018 4480 602 3993 602 3359 
L 602 2737 
L 160 2737 
L 160 2368 
L 602 2368 
L 602 0 
L 1075 0 
L 1075 2368 
z
" transform="scale(0.015625)"/>
        <path id="CMSS17-64" d="M 2611 4416 
L 2138 4416 
L 2138 2438 
C 1939 2603 1613 2756 1254 2756 
C 672 2756 211 2131 211 1347 
C 211 562 666 -64 1235 -64 
C 1677 -64 1971 172 2125 306 
L 2125 -13 
L 2611 -13 
L 2611 4416 
z
M 2125 836 
C 2125 747 2125 653 1926 482 
C 1798 375 1645 325 1498 325 
C 1152 325 698 576 698 1340 
C 698 2134 1210 2368 1562 2368 
C 1798 2368 1990 2254 2125 2065 
L 2125 836 
z
" transform="scale(0.015625)"/>
       </defs>
       <use xlink:href="#CMSS17-66" transform="scale(0.996264)"/>
       <use xlink:href="#CMSS17-64" transform="translate(28.626659 0) scale(0.996264)"/>
      </g>
     </g>
    </g>
    <g id="ytick_3">
     <g id="line2d_13">
      <g>
       <use xlink:href="#m0aa79be5d8" x="54.484048" y="66.465888" style="fill: #b0b0b0; stroke: #b0b0b0; stroke-width: 0.4"/>
      </g>
     </g>
     <g id="text_9">
      <!-- grmtools -->
      <g transform="translate(13.648003 69.925138) scale(0.1 -0.1)">
       <defs>
        <path id="CMSS17-67" d="M 2848 2808 
C 2483 2808 2170 2738 1914 2617 
C 1702 2777 1485 2808 1338 2808 
C 781 2808 358 2349 358 1814 
C 358 1468 550 1207 563 1195 
C 448 1035 384 863 384 672 
C 384 448 474 289 544 200 
C 211 -3 166 -314 166 -435 
C 166 -898 749 -1280 1498 -1280 
C 2253 -1280 2835 -898 2835 -428 
C 2835 448 1856 448 1587 448 
L 1069 448 
C 973 448 717 448 717 791 
C 717 921 774 1004 781 1010 
C 877 940 1075 832 1338 832 
C 1869 832 2310 1278 2310 1827 
C 2310 2132 2170 2355 2112 2432 
L 2131 2432 
C 2150 2432 2419 2432 2515 2432 
C 2720 2432 2739 2429 2918 2419 
L 2848 2808 
z
M 1338 1182 
C 1120 1182 813 1315 813 1823 
C 813 2375 1165 2464 1331 2464 
C 1549 2464 1856 2331 1856 1823 
C 1856 1271 1504 1182 1338 1182 
z
M 1581 -10 
C 1734 -10 2381 -10 2381 -442 
C 2381 -714 1984 -929 1504 -929 
C 1018 -929 621 -720 621 -435 
C 621 -403 621 -10 1062 -10 
L 1581 -10 
z
" transform="scale(0.015625)"/>
        <path id="CMSS17-6d" d="M 4288 1877 
C 4288 2308 4179 2816 3462 2816 
C 2982 2816 2694 2516 2566 2331 
C 2451 2670 2182 2816 1798 2816 
C 1363 2816 1088 2568 941 2389 
L 941 2758 
L 474 2758 
L 474 0 
L 960 0 
L 960 1559 
C 960 1939 1101 2428 1555 2428 
C 2138 2428 2138 2016 2138 1829 
L 2138 0 
L 2624 0 
L 2624 1559 
C 2624 1939 2765 2428 3219 2428 
C 3802 2428 3802 2016 3802 1829 
L 3802 0 
L 4288 0 
L 4288 1877 
z
" transform="scale(0.015625)"/>
       </defs>
       <use xlink:href="#CMSS17-67" transform="scale(0.996264)"/>
       <use xlink:href="#CMSS17-72" transform="translate(46.843624 0) scale(0.996264)"/>
       <use xlink:href="#CMSS17-6d" transform="translate(78.753396 0) scale(0.996264)"/>
       <use xlink:href="#CMSS17-74" transform="translate(152.982651 0) scale(0.996264)"/>
       <use xlink:href="#CMSS17-6f" transform="translate(186.814217 0) scale(0.996264)"/>
       <use xlink:href="#CMSS17-6f" transform="translate(236.260279 0) scale(0.996264)"/>
       <use xlink:href="#CMSS17-6c" transform="translate(283.103903 0) scale(0.996264)"/>
       <use xlink:href="#CMSS17-73" transform="translate(305.284626 0) scale(0.996264)"/>
      </g>
     </g>
    </g>
    <g id="ytick_4">
     <g id="line2d_14">
      <g>
       <use xlink:href="#m0aa79be5d8" x="54.484048" y="81.889534" style="fill: #b0b0b0; stroke: #b0b0b0; stroke-width: 0.4"/>
      </g>
     </g>
     <g id="text_10">
      <!-- ripgrep -->
      <g transform="translate(21.092331 85.348783) scale(0.1 -0.1)">
       <defs>
        <path id="CMSS17-70" d="M 966 333 
C 1178 129 1466 -5 1773 -5 
C 2368 -5 2880 603 2880 1412 
C 2880 2159 2496 2816 1946 2816 
C 1626 2816 1242 2702 954 2472 
L 954 2765 
L 480 2765 
L 480 -1216 
L 966 -1216 
L 966 333 
z
M 966 2100 
C 1018 2176 1235 2415 1587 2415 
C 2035 2415 2394 1960 2394 1412 
C 2394 787 1958 384 1530 384 
C 1402 384 1267 415 1139 523 
C 966 674 966 768 966 857 
L 966 2100 
z
" transform="scale(0.015625)"/>
       </defs>
       <use xlink:href="#CMSS17-72" transform="scale(0.996264)"/>
       <use xlink:href="#CMSS17-69" transform="translate(31.909773 0) scale(0.996264)"/>
       <use xlink:href="#CMSS17-70" transform="translate(54.090496 0) scale(0.996264)"/>
       <use xlink:href="#CMSS17-67" transform="translate(102.295439 0) scale(0.996264)"/>
       <use xlink:href="#CMSS17-72" transform="translate(149.139062 0) scale(0.996264)"/>
       <use xlink:href="#CMSS17-65" transform="translate(181.048835 0) scale(0.996264)"/>
       <use xlink:href="#CMSS17-70" transform="translate(222.687657 0) scale(0.996264)"/>
      </g>
     </g>
    </g>
    <g id="ytick_5">
     <g id="line2d_15">
      <g>
       <use xlink:href="#m0aa79be5d8" x="54.484048" y="97.313179" style="fill: #b0b0b0; stroke: #b0b0b0; stroke-width: 0.4"/>
      </g>
     </g>
     <g id="text_11">
      <!-- som-rs-ast -->
      <g transform="translate(7.2 100.772428) scale(0.1 -0.1)">
       <defs>
        <path id="CMSS17-2d" d="M 1664 1216 
L 1664 1585 
L 64 1585 
L 64 1216 
L 1664 1216 
z
" transform="scale(0.015625)"/>
       </defs>
       <use xlink:href="#CMSS17-73" transform="scale(0.996264)"/>
       <use xlink:href="#CMSS17-6f" transform="translate(35.913542 0) scale(0.996264)"/>
       <use xlink:href="#CMSS17-6d" transform="translate(82.757166 0) scale(0.996264)"/>
       <use xlink:href="#CMSS17-2d" transform="translate(156.98642 0) scale(0.996264)"/>
       <use xlink:href="#CMSS17-72" transform="translate(188.215533 0) scale(0.996264)"/>
       <use xlink:href="#CMSS17-73" transform="translate(220.125305 0) scale(0.996264)"/>
       <use xlink:href="#CMSS17-2d" transform="translate(256.038847 0) scale(0.996264)"/>
       <use xlink:href="#CMSS17-61" transform="translate(287.26796 0) scale(0.996264)"/>
       <use xlink:href="#CMSS17-73" transform="translate(332.189881 0) scale(0.996264)"/>
       <use xlink:href="#CMSS17-74" transform="translate(368.103423 0) scale(0.996264)"/>
      </g>
     </g>
    </g>
    <g id="ytick_6">
     <g id="line2d_16">
      <g>
       <use xlink:href="#m0aa79be5d8" x="54.484048" y="112.736824" style="fill: #b0b0b0; stroke: #b0b0b0; stroke-width: 0.4"/>
      </g>
     </g>
     <g id="text_12">
      <!-- som-rs-bc -->
      <g transform="translate(9.552293 116.196073) scale(0.1 -0.1)">
       <use xlink:href="#CMSS17-73" transform="scale(0.996264)"/>
       <use xlink:href="#CMSS17-6f" transform="translate(35.913542 0) scale(0.996264)"/>
       <use xlink:href="#CMSS17-6d" transform="translate(82.757166 0) scale(0.996264)"/>
       <use xlink:href="#CMSS17-2d" transform="translate(156.98642 0) scale(0.996264)"/>
       <use xlink:href="#CMSS17-72" transform="translate(188.215533 0) scale(0.996264)"/>
       <use xlink:href="#CMSS17-73" transform="translate(220.125305 0) scale(0.996264)"/>
       <use xlink:href="#CMSS17-2d" transform="translate(256.038847 0) scale(0.996264)"/>
       <use xlink:href="#CMSS17-62" transform="translate(287.26796 0) scale(0.996264)"/>
       <use xlink:href="#CMSS17-63" transform="translate(338.075342 0) scale(0.996264)"/>
      </g>
     </g>
    </g>
   </g>
   <g id="patch_3">
    <path d="M 128.819504 120.448647 
L 128.819504 120.448647 
L 128.819504 27.906776 
L 128.819504 27.906776 
z
" clip-path="url(#p5635f661c1)" style="fill: #808080; opacity: 0.01"/>
   </g>
   <g id="patch_4">
    <path d="M 128.976725 120.448647 
L 130.512298 120.448647 
L 130.512298 27.906776 
L 128.976725 27.906776 
z
" clip-path="url(#p5635f661c1)" style="fill: #34495e; opacity: 0.1"/>
   </g>
   <g id="patch_5">
    <path d="M 128.396486 120.448647 
L 130.101835 120.448647 
L 130.101835 27.906776 
L 128.396486 27.906776 
z
" clip-path="url(#p5635f661c1)" style="fill: #3a87d9; opacity: 0.1"/>
   </g>
   <g id="patch_6">
    <path d="M 54.484048 120.448647 
L 54.484048 27.906776 
" style="fill: none; stroke: #b0b0b0; stroke-width: 0.4; stroke-linejoin: miter; stroke-linecap: square"/>
   </g>
   <g id="patch_7">
    <path d="M 54.484048 120.448647 
L 203.154961 120.448647 
" style="fill: none; stroke: #b0b0b0; stroke-width: 0.4; stroke-linejoin: miter; stroke-linecap: square"/>
   </g>
   <g id="line2d_17">
    <path d="M 128.819504 120.448647 
L 128.819504 27.906776 
" clip-path="url(#p5635f661c1)" style="fill: none; stroke-dasharray: 1.85,0.8; stroke-dashoffset: 0; stroke: #666666; stroke-opacity: 0.5; stroke-width: 0.5"/>
   </g>
   <g id="line2d_18">
    <path d="M 128.819504 120.448647 
L 128.819504 27.906776 
" clip-path="url(#p5635f661c1)" style="fill: none; stroke-dasharray: 1.85,0.8; stroke-dashoffset: 0; stroke: #666666; stroke-opacity: 0.5; stroke-width: 0.5"/>
   </g>
   <g id="line2d_19">
    <path d="M 128.976725 120.448647 
L 128.976725 27.906776 
" clip-path="url(#p5635f661c1)" style="fill: none; stroke-dasharray: 1.85,0.8; stroke-dashoffset: 0; stroke: #2c3e50; stroke-opacity: 0.5; stroke-width: 0.5"/>
   </g>
   <g id="line2d_20">
    <path d="M 130.512298 120.448647 
L 130.512298 27.906776 
" clip-path="url(#p5635f661c1)" style="fill: none; stroke-dasharray: 1.85,0.8; stroke-dashoffset: 0; stroke: #2c3e50; stroke-opacity: 0.5; stroke-width: 0.5"/>
   </g>
   <g id="line2d_21">
    <path d="M 128.396486 120.448647 
L 128.396486 27.906776 
" clip-path="url(#p5635f661c1)" style="fill: none; stroke-dasharray: 1.85,0.8; stroke-dashoffset: 0; stroke: #1a5c85; stroke-opacity: 0.5; stroke-width: 0.5"/>
   </g>
   <g id="line2d_22">
    <path d="M 130.101835 120.448647 
L 130.101835 27.906776 
" clip-path="url(#p5635f661c1)" style="fill: none; stroke-dasharray: 1.85,0.8; stroke-dashoffset: 0; stroke: #1a5c85; stroke-opacity: 0.5; stroke-width: 0.5"/>
   </g>
   <g id="patch_8">
    <path d="M 128.976725 120.448647 
L 130.101835 120.448647 
L 130.101835 27.906776 
L 128.976725 27.906776 
z
" clip-path="url(#p5635f661c1)" style="fill: #d3d3d3; opacity: 0.05"/>
   </g>
   <g id="line2d_23">
    <path d="M 129.88982 120.448647 
L 129.88982 27.906776 
" clip-path="url(#p5635f661c1)" style="fill: none; stroke: #1b2631; stroke-width: 0.5; stroke-linecap: square"/>
   </g>
   <g id="line2d_24">
    <path d="M 129.307372 120.448647 
L 129.307372 27.906776 
" clip-path="url(#p5635f661c1)" style="fill: none; stroke: #1a5c85; stroke-width: 0.5; stroke-linecap: square"/>
   </g>
   <g id="patch_9">
    <path d="M -57.019136 29.44914 
L 127.188083 29.44914 
L 127.188083 35.618598 
L -57.019136 35.618598 
z
" clip-path="url(#p5635f661c1)" style="fill: #34495e; opacity: 0.9; stroke: #2c3e50; stroke-width: 0.5; stroke-linejoin: miter"/>
   </g>
   <g id="patch_10">
    <path d="M -57.019136 35.618598 
L 127.775279 35.618598 
L 127.775279 41.788056 
L -57.019136 41.788056 
z
" clip-path="url(#p5635f661c1)" style="fill: #3a87d9; opacity: 0.9; stroke: #1a5c85; stroke-width: 0.5; stroke-linejoin: miter"/>
   </g>
   <g id="patch_11">
    <path d="M -57.019136 44.872785 
L 129.805326 44.872785 
L 129.805326 51.042243 
L -57.019136 51.042243 
z
" clip-path="url(#p5635f661c1)" style="fill: #34495e; opacity: 0.9; stroke: #2c3e50; stroke-width: 0.5; stroke-linejoin: miter"/>
   </g>
   <g id="patch_12">
    <path d="M -57.019136 51.042243 
L 124.649522 51.042243 
L 124.649522 57.211701 
L -57.019136 57.211701 
z
" clip-path="url(#p5635f661c1)" style="fill: #3a87d9; opacity: 0.9; stroke: #1a5c85; stroke-width: 0.5; stroke-linejoin: miter"/>
   </g>
   <g id="patch_13">
    <path d="M -57.019136 60.29643 
L 127.981366 60.29643 
L 127.981366 66.465888 
L -57.019136 66.465888 
z
" clip-path="url(#p5635f661c1)" style="fill: #34495e; opacity: 0.9; stroke: #2c3e50; stroke-width: 0.5; stroke-linejoin: miter"/>
   </g>
   <g id="patch_14">
    <path d="M -57.019136 66.465888 
L 128.803715 66.465888 
L 128.803715 72.635347 
L -57.019136 72.635347 
z
" clip-path="url(#p5635f661c1)" style="fill: #3a87d9; opacity: 0.9; stroke: #1a5c85; stroke-width: 0.5; stroke-linejoin: miter"/>
   </g>
   <g id="patch_15">
    <path d="M -57.019136 75.720076 
L 129.531397 75.720076 
L 129.531397 81.889534 
L -57.019136 81.889534 
z
" clip-path="url(#p5635f661c1)" style="fill: #34495e; opacity: 0.9; stroke: #2c3e50; stroke-width: 0.5; stroke-linejoin: miter"/>
   </g>
   <g id="patch_16">
    <path d="M -57.019136 81.889534 
L 128.099142 81.889534 
L 128.099142 88.058992 
L -57.019136 88.058992 
z
" clip-path="url(#p5635f661c1)" style="fill: #3a87d9; opacity: 0.9; stroke: #1a5c85; stroke-width: 0.5; stroke-linejoin: miter"/>
   </g>
   <g id="patch_17">
    <path d="M -57.019136 91.143721 
L 130.230003 91.143721 
L 130.230003 97.313179 
L -57.019136 97.313179 
z
" clip-path="url(#p5635f661c1)" style="fill: #34495e; opacity: 0.9; stroke: #2c3e50; stroke-width: 0.5; stroke-linejoin: miter"/>
   </g>
   <g id="patch_18">
    <path d="M -57.019136 97.313179 
L 129.482812 97.313179 
L 129.482812 103.482637 
L -57.019136 103.482637 
z
" clip-path="url(#p5635f661c1)" style="fill: #3a87d9; opacity: 0.9; stroke: #1a5c85; stroke-width: 0.5; stroke-linejoin: miter"/>
   </g>
   <g id="patch_19">
    <path d="M -57.019136 106.567366 
L 131.097802 106.567366 
L 131.097802 112.736824 
L -57.019136 112.736824 
z
" clip-path="url(#p5635f661c1)" style="fill: #34495e; opacity: 0.9; stroke: #2c3e50; stroke-width: 0.5; stroke-linejoin: miter"/>
   </g>
   <g id="patch_20">
    <path d="M -57.019136 112.736824 
L 131.692505 112.736824 
L 131.692505 118.906282 
L -57.019136 118.906282 
z
" clip-path="url(#p5635f661c1)" style="fill: #3a87d9; opacity: 0.9; stroke: #1a5c85; stroke-width: 0.5; stroke-linejoin: miter"/>
   </g>
   <g id="LineCollection_1">
    <path d="M 123.545884 32.533869 
L 131.525783 32.533869 
" clip-path="url(#p5635f661c1)" style="fill: none; stroke: #2c2c2c; stroke-width: 0.5"/>
   </g>
   <g id="line2d_25">
    <defs>
     <path id="me45866951e" d="M 0 0.8 
L 0 -0.8 
" style="stroke: #2c2c2c"/>
    </defs>
    <g clip-path="url(#p5635f661c1)">
     <use xlink:href="#me45866951e" x="123.545884" y="32.533869" style="fill: #2c2c2c; stroke: #2c2c2c"/>
    </g>
   </g>
   <g id="line2d_26">
    <g clip-path="url(#p5635f661c1)">
     <use xlink:href="#me45866951e" x="131.525783" y="32.533869" style="fill: #2c2c2c; stroke: #2c2c2c"/>
    </g>
   </g>
   <g id="LineCollection_2">
    <path d="M 123.347179 38.703327 
L 132.114752 38.703327 
" clip-path="url(#p5635f661c1)" style="fill: none; stroke: #2c2c2c; stroke-width: 0.5"/>
   </g>
   <g id="line2d_27">
    <g clip-path="url(#p5635f661c1)">
     <use xlink:href="#me45866951e" x="123.347179" y="38.703327" style="fill: #2c2c2c; stroke: #2c2c2c"/>
    </g>
   </g>
   <g id="line2d_28">
    <g clip-path="url(#p5635f661c1)">
     <use xlink:href="#me45866951e" x="132.114752" y="38.703327" style="fill: #2c2c2c; stroke: #2c2c2c"/>
    </g>
   </g>
   <g id="LineCollection_3">
    <path d="M 125.661465 47.957514 
L 134.997167 47.957514 
" clip-path="url(#p5635f661c1)" style="fill: none; stroke: #2c2c2c; stroke-width: 0.5"/>
   </g>
   <g id="line2d_29">
    <g clip-path="url(#p5635f661c1)">
     <use xlink:href="#me45866951e" x="125.661465" y="47.957514" style="fill: #2c2c2c; stroke: #2c2c2c"/>
    </g>
   </g>
   <g id="line2d_30">
    <g clip-path="url(#p5635f661c1)">
     <use xlink:href="#me45866951e" x="134.997167" y="47.957514" style="fill: #2c2c2c; stroke: #2c2c2c"/>
    </g>
   </g>
   <g id="LineCollection_4">
    <path d="M 118.175104 54.126972 
L 132.001794 54.126972 
" clip-path="url(#p5635f661c1)" style="fill: none; stroke: #2c2c2c; stroke-width: 0.5"/>
   </g>
   <g id="line2d_31">
    <g clip-path="url(#p5635f661c1)">
     <use xlink:href="#me45866951e" x="118.175104" y="54.126972" style="fill: #2c2c2c; stroke: #2c2c2c"/>
    </g>
   </g>
   <g id="line2d_32">
    <g clip-path="url(#p5635f661c1)">
     <use xlink:href="#me45866951e" x="132.001794" y="54.126972" style="fill: #2c2c2c; stroke: #2c2c2c"/>
    </g>
   </g>
   <g id="LineCollection_5">
    <path d="M 127.247723 63.381159 
L 128.415351 63.381159 
" clip-path="url(#p5635f661c1)" style="fill: none; stroke: #2c2c2c; stroke-width: 0.5"/>
   </g>
   <g id="line2d_33">
    <g clip-path="url(#p5635f661c1)">
     <use xlink:href="#me45866951e" x="127.247723" y="63.381159" style="fill: #2c2c2c; stroke: #2c2c2c"/>
    </g>
   </g>
   <g id="line2d_34">
    <g clip-path="url(#p5635f661c1)">
     <use xlink:href="#me45866951e" x="128.415351" y="63.381159" style="fill: #2c2c2c; stroke: #2c2c2c"/>
    </g>
   </g>
   <g id="LineCollection_6">
    <path d="M 128.076108 69.550618 
L 129.290944 69.550618 
" clip-path="url(#p5635f661c1)" style="fill: none; stroke: #2c2c2c; stroke-width: 0.5"/>
   </g>
   <g id="line2d_35">
    <g clip-path="url(#p5635f661c1)">
     <use xlink:href="#me45866951e" x="128.076108" y="69.550618" style="fill: #2c2c2c; stroke: #2c2c2c"/>
    </g>
   </g>
   <g id="line2d_36">
    <g clip-path="url(#p5635f661c1)">
     <use xlink:href="#me45866951e" x="129.290944" y="69.550618" style="fill: #2c2c2c; stroke: #2c2c2c"/>
    </g>
   </g>
   <g id="LineCollection_7">
    <path d="M 128.820351 78.804805 
L 130.26056 78.804805 
" clip-path="url(#p5635f661c1)" style="fill: none; stroke: #2c2c2c; stroke-width: 0.5"/>
   </g>
   <g id="line2d_37">
    <g clip-path="url(#p5635f661c1)">
     <use xlink:href="#me45866951e" x="128.820351" y="78.804805" style="fill: #2c2c2c; stroke: #2c2c2c"/>
    </g>
   </g>
   <g id="line2d_38">
    <g clip-path="url(#p5635f661c1)">
     <use xlink:href="#me45866951e" x="130.26056" y="78.804805" style="fill: #2c2c2c; stroke: #2c2c2c"/>
    </g>
   </g>
   <g id="LineCollection_8">
    <path d="M 127.197194 84.974263 
L 129.096462 84.974263 
" clip-path="url(#p5635f661c1)" style="fill: none; stroke: #2c2c2c; stroke-width: 0.5"/>
   </g>
   <g id="line2d_39">
    <g clip-path="url(#p5635f661c1)">
     <use xlink:href="#me45866951e" x="127.197194" y="84.974263" style="fill: #2c2c2c; stroke: #2c2c2c"/>
    </g>
   </g>
   <g id="line2d_40">
    <g clip-path="url(#p5635f661c1)">
     <use xlink:href="#me45866951e" x="129.096462" y="84.974263" style="fill: #2c2c2c; stroke: #2c2c2c"/>
    </g>
   </g>
   <g id="LineCollection_9">
    <path d="M 129.584011 94.22845 
L 131.084715 94.22845 
" clip-path="url(#p5635f661c1)" style="fill: none; stroke: #2c2c2c; stroke-width: 0.5"/>
   </g>
   <g id="line2d_41">
    <g clip-path="url(#p5635f661c1)">
     <use xlink:href="#me45866951e" x="129.584011" y="94.22845" style="fill: #2c2c2c; stroke: #2c2c2c"/>
    </g>
   </g>
   <g id="line2d_42">
    <g clip-path="url(#p5635f661c1)">
     <use xlink:href="#me45866951e" x="131.084715" y="94.22845" style="fill: #2c2c2c; stroke: #2c2c2c"/>
    </g>
   </g>
   <g id="LineCollection_10">
    <path d="M 128.485943 100.397908 
L 130.410157 100.397908 
" clip-path="url(#p5635f661c1)" style="fill: none; stroke: #2c2c2c; stroke-width: 0.5"/>
   </g>
   <g id="line2d_43">
    <g clip-path="url(#p5635f661c1)">
     <use xlink:href="#me45866951e" x="128.485943" y="100.397908" style="fill: #2c2c2c; stroke: #2c2c2c"/>
    </g>
   </g>
   <g id="line2d_44">
    <g clip-path="url(#p5635f661c1)">
     <use xlink:href="#me45866951e" x="130.410157" y="100.397908" style="fill: #2c2c2c; stroke: #2c2c2c"/>
    </g>
   </g>
   <g id="LineCollection_11">
    <path d="M 129.954173 109.652095 
L 132.631006 109.652095 
" clip-path="url(#p5635f661c1)" style="fill: none; stroke: #2c2c2c; stroke-width: 0.5"/>
   </g>
   <g id="line2d_45">
    <g clip-path="url(#p5635f661c1)">
     <use xlink:href="#me45866951e" x="129.954173" y="109.652095" style="fill: #2c2c2c; stroke: #2c2c2c"/>
    </g>
   </g>
   <g id="line2d_46">
    <g clip-path="url(#p5635f661c1)">
     <use xlink:href="#me45866951e" x="132.631006" y="109.652095" style="fill: #2c2c2c; stroke: #2c2c2c"/>
    </g>
   </g>
   <g id="LineCollection_12">
    <path d="M 130.093226 115.821553 
L 133.170233 115.821553 
" clip-path="url(#p5635f661c1)" style="fill: none; stroke: #2c2c2c; stroke-width: 0.5"/>
   </g>
   <g id="line2d_47">
    <g clip-path="url(#p5635f661c1)">
     <use xlink:href="#me45866951e" x="130.093226" y="115.821553" style="fill: #2c2c2c; stroke: #2c2c2c"/>
    </g>
   </g>
   <g id="line2d_48">
    <g clip-path="url(#p5635f661c1)">
     <use xlink:href="#me45866951e" x="133.170233" y="115.821553" style="fill: #2c2c2c; stroke: #2c2c2c"/>
    </g>
   </g>
   <g id="line2d_49">
    <path d="M 128.819504 120.448647 
L 128.819504 27.906776 
" clip-path="url(#p5635f661c1)" style="fill: none; stroke: #000000; stroke-width: 0.5; stroke-linecap: square"/>
   </g>
  </g>
  <g id="text_13">
   <!-- Wall-clock time -->
   <g transform="translate(93.383307 15.50218) scale(0.12 -0.12)">
    <defs>
     <path id="CMSS17-57" d="M 5581 4416 
L 5094 4416 
L 4557 2437 
C 4474 2118 4397 1801 4320 1482 
C 4205 1011 4122 681 4109 515 
L 4102 515 
C 4090 687 4006 1049 3904 1457 
C 3827 1795 3744 2131 3654 2462 
L 3123 4416 
L 2586 4416 
L 2080 2562 
L 1824 1549 
C 1632 747 1626 632 1613 505 
L 1606 505 
C 1606 543 1581 753 1402 1498 
C 1312 1868 1222 2244 1126 2601 
L 634 4416 
L 83 4416 
L 1299 0 
L 1830 0 
L 2336 1839 
L 2592 2851 
C 2765 3564 2803 3742 2816 3901 
L 2822 3901 
C 2822 3876 2880 3474 3130 2545 
L 3808 0 
L 4365 0 
L 5581 4416 
z
" transform="scale(0.015625)"/>
     <path id="CMSS17-6b" d="M 1696 1688 
L 2688 2739 
L 2074 2739 
L 954 1554 
L 954 4416 
L 480 4416 
L 480 0 
L 947 0 
L 947 892 
L 1376 1344 
L 2278 0 
L 2822 0 
L 1696 1688 
z
" transform="scale(0.015625)"/>
    </defs>
    <use xlink:href="#CMSS17-57" transform="scale(0.996264)"/>
    <use xlink:href="#CMSS17-61" transform="translate(85.639712 0) scale(0.996264)"/>
    <use xlink:href="#CMSS17-6c" transform="translate(130.561633 0) scale(0.996264)"/>
    <use xlink:href="#CMSS17-6c" transform="translate(152.742356 0) scale(0.996264)"/>
    <use xlink:href="#CMSS17-2d" transform="translate(174.923079 0) scale(0.996264)"/>
    <use xlink:href="#CMSS17-63" transform="translate(206.152192 0) scale(0.996264)"/>
    <use xlink:href="#CMSS17-6c" transform="translate(247.791014 0) scale(0.996264)"/>
    <use xlink:href="#CMSS17-6f" transform="translate(269.971737 0) scale(0.996264)"/>
    <use xlink:href="#CMSS17-63" transform="translate(319.417799 0) scale(0.996264)"/>
    <use xlink:href="#CMSS17-6b" transform="translate(361.056621 0) scale(0.996264)"/>
    <use xlink:href="#CMSS17-74" transform="translate(437.888223 0) scale(0.996264)"/>
    <use xlink:href="#CMSS17-69" transform="translate(471.71979 0) scale(0.996264)"/>
    <use xlink:href="#CMSS17-6d" transform="translate(493.900513 0) scale(0.996264)"/>
    <use xlink:href="#CMSS17-65" transform="translate(568.129767 0) scale(0.996264)"/>
   </g>
  </g>
 </g>
 <defs>
  <clipPath id="p5635f661c1">
   <rect x="54.484048" y="27.906776" width="148.670912" height="92.541871"/>
  </clipPath>
 </defs>
</svg>
