<?xml version="1.0" encoding="utf-8" standalone="no"?>
<!DOCTYPE svg PUBLIC "-//W3C//DTD SVG 1.1//EN"
  "http://www.w3.org/Graphics/SVG/1.1/DTD/svg11.dtd">
<svg xmlns:xlink="http://www.w3.org/1999/xlink" width="564.48pt" height="204.48pt" viewBox="0 0 564.48 204.48" xmlns="http://www.w3.org/2000/svg" version="1.1">
 <metadata>
  <rdf:RDF xmlns:dc="http://purl.org/dc/elements/1.1/" xmlns:cc="http://creativecommons.org/ns#" xmlns:rdf="http://www.w3.org/1999/02/22-rdf-syntax-ns#">
   <cc:Work>
    <dc:type rdf:resource="http://purl.org/dc/dcmitype/StillImage"/>
    <dc:date>2024-10-14T20:17:29.687228</dc:date>
    <dc:format>image/svg+xml</dc:format>
    <dc:creator>
     <cc:Agent>
      <dc:title>Matplotlib v3.9.2, https://matplotlib.org/</dc:title>
     </cc:Agent>
    </dc:creator>
   </cc:Work>
  </rdf:RDF>
 </metadata>
 <defs>
  <style type="text/css">*{stroke-linejoin: round; stroke-linecap: butt}</style>
 </defs>
 <g id="figure_1">
  <g id="patch_1">
   <path d="M 0 204.48 
L 564.48 204.48 
L 564.48 0 
L 0 0 
z
" style="fill: #ffffff"/>
  </g>
  <g id="axes_1">
   <g id="patch_2">
    <path d="M 68.32148 139.993706 
L 557.28 139.993706 
L 557.28 7.2 
L 68.32148 7.2 
z
" style="fill: #ffffff"/>
   </g>
   <g id="matplotlib.axis_1">
    <g id="xtick_1">
     <g id="line2d_1">
      <path d="M 80.406007 139.993706 
L 80.406007 7.2 
" clip-path="url(#pf5e2070f4a)" style="fill: none; stroke: #cccccc; stroke-width: 0.25; stroke-linecap: round"/>
     </g>
     <g id="line2d_2">
      <defs>
       <path id="ma1388bdd44" d="M 0 0 
L 0 6 
" style="stroke: #262626; stroke-width: 1.25"/>
      </defs>
      <g>
       <use xlink:href="#ma1388bdd44" x="80.406007" y="139.993706" style="fill: #262626; stroke: #262626; stroke-width: 1.25"/>
      </g>
     </g>
     <g id="text_1">
      <!-- Bounce -->
      <g style="fill: #262626" transform="translate(54.963012 178.811258) rotate(-45) scale(0.11 -0.11)">
       <defs>
        <path id="CMSS17-42" d="M 570 4416 
L 570 0 
L 2163 0 
C 3034 0 3667 574 3667 1200 
C 3667 1685 3251 2176 2502 2317 
C 3334 2558 3501 3040 3501 3313 
C 3501 3883 2874 4416 1997 4416 
L 570 4416 
z
M 1088 2496 
L 1088 4059 
L 1824 4059 
C 2483 4059 3002 3724 3002 3306 
C 3002 2926 2592 2496 1766 2496 
L 1088 2496 
z
M 1088 357 
L 1088 2107 
L 1939 2107 
C 2630 2107 3162 1679 3162 1206 
C 3162 772 2694 357 1984 357 
L 1088 357 
z
" transform="scale(0.015625)"/>
        <path id="CMSS17-6f" d="M 2829 1356 
C 2829 2176 2221 2816 1504 2816 
C 768 2816 173 2157 173 1356 
C 173 544 787 -64 1498 -64 
C 2227 -64 2829 563 2829 1356 
z
M 1504 337 
C 1050 337 659 709 659 1408 
C 659 2151 1114 2427 1498 2427 
C 1914 2427 2342 2126 2342 1408 
C 2342 683 1926 337 1504 337 
z
" transform="scale(0.015625)"/>
        <path id="CMSS17-75" d="M 2618 2739 
L 2131 2739 
L 2131 972 
C 2131 498 1786 306 1421 306 
C 998 306 960 447 960 709 
L 960 2739 
L 474 2739 
L 474 678 
C 474 179 646 -64 1088 -64 
C 1306 -64 1798 -13 2144 306 
L 2144 0 
L 2618 0 
L 2618 2739 
z
" transform="scale(0.015625)"/>
        <path id="CMSS17-6e" d="M 2618 1877 
C 2618 2283 2522 2816 1798 2816 
C 1389 2816 1120 2606 941 2389 
L 941 2758 
L 474 2758 
L 474 0 
L 960 0 
L 960 1559 
C 960 1964 1114 2428 1549 2428 
C 2112 2428 2131 2048 2131 1829 
L 2131 0 
L 2618 0 
L 2618 1877 
z
" transform="scale(0.015625)"/>
        <path id="CMSS17-63" d="M 2464 2541 
C 2464 2585 2170 2714 2093 2739 
C 1882 2816 1613 2816 1542 2816 
C 710 2816 211 2093 211 1363 
C 211 595 768 -64 1517 -64 
C 1946 -64 2253 76 2502 242 
L 2464 664 
C 2189 453 1869 337 1523 337 
C 1024 337 698 774 698 1369 
C 698 1831 909 2414 1549 2414 
C 1901 2414 2099 2343 2394 2145 
L 2464 2541 
z
" transform="scale(0.015625)"/>
        <path id="CMSS17-65" d="M 2502 1377 
C 2502 1590 2490 2003 2285 2345 
C 2061 2713 1696 2816 1421 2816 
C 755 2816 192 2188 192 1375 
C 192 582 774 -64 1510 -64 
C 1798 -64 2150 19 2470 248 
C 2470 274 2458 414 2451 420 
C 2451 433 2432 630 2432 656 
C 2125 407 1773 325 1517 325 
C 1107 325 666 667 646 1377 
L 2502 1377 
z
M 698 1728 
C 781 2084 1062 2421 1421 2421 
C 1517 2421 1965 2421 2080 1728 
L 698 1728 
z
" transform="scale(0.015625)"/>
       </defs>
       <use xlink:href="#CMSS17-42" transform="scale(0.996264)"/>
       <use xlink:href="#CMSS17-6f" transform="translate(62.33804 0) scale(0.996264)"/>
       <use xlink:href="#CMSS17-75" transform="translate(109.181664 0) scale(0.996264)"/>
       <use xlink:href="#CMSS17-6e" transform="translate(157.386607 0) scale(0.996264)"/>
       <use xlink:href="#CMSS17-63" transform="translate(205.59155 0) scale(0.996264)"/>
       <use xlink:href="#CMSS17-65" transform="translate(247.230372 0) scale(0.996264)"/>
      </g>
     </g>
    </g>
    <g id="xtick_2">
     <g id="line2d_3">
      <path d="M 98.997585 139.993706 
L 98.997585 7.2 
" clip-path="url(#pf5e2070f4a)" style="fill: none; stroke: #cccccc; stroke-width: 0.25; stroke-linecap: round"/>
     </g>
     <g id="line2d_4">
      <g>
       <use xlink:href="#ma1388bdd44" x="98.997585" y="139.993706" style="fill: #262626; stroke: #262626; stroke-width: 1.25"/>
      </g>
     </g>
     <g id="text_2">
      <!-- BubbleSort -->
      <g style="fill: #262626" transform="translate(61.60803 190.757819) rotate(-45) scale(0.11 -0.11)">
       <defs>
        <path id="CMSS17-62" d="M 954 4416 
L 480 4416 
L 480 -13 
L 966 -13 
L 966 274 
C 1210 38 1504 -64 1766 -64 
C 2381 -64 2880 549 2880 1352 
C 2880 2086 2496 2756 1926 2756 
C 1523 2756 1165 2591 954 2419 
L 954 4416 
z
M 966 2046 
C 1107 2222 1306 2368 1587 2368 
C 1965 2368 2394 2097 2394 1352 
C 2394 558 1882 325 1530 325 
C 1402 325 1267 356 1139 464 
C 966 615 966 709 966 797 
L 966 2046 
z
" transform="scale(0.015625)"/>
        <path id="CMSS17-6c" d="M 947 4416 
L 474 4416 
L 474 0 
L 947 0 
L 947 4416 
z
" transform="scale(0.015625)"/>
        <path id="CMSS17-53" d="M 2797 4169 
C 2515 4334 2208 4480 1690 4480 
C 864 4480 333 3879 333 3266 
C 333 3025 403 2753 653 2475 
C 902 2196 1184 2121 1542 2033 
C 1690 1994 1939 1924 1984 1906 
C 2342 1767 2515 1444 2515 1140 
C 2515 742 2202 318 1645 318 
C 1453 318 890 318 358 819 
L 269 318 
C 794 -64 1363 -128 1651 -128 
C 2438 -128 3002 488 3002 1186 
C 3002 1440 2925 1763 2656 2061 
C 2394 2347 2163 2410 1638 2549 
C 1338 2626 1146 2677 986 2873 
C 877 3013 819 3146 819 3317 
C 819 3673 1126 4060 1690 4060 
C 1971 4060 2336 4002 2707 3660 
L 2797 4169 
z
" transform="scale(0.015625)"/>
        <path id="CMSS17-72" d="M 954 1363 
C 954 1965 1395 2368 1958 2368 
L 1958 2789 
C 1549 2789 1165 2585 934 2253 
L 934 2758 
L 480 2758 
L 480 0 
L 954 0 
L 954 1363 
z
" transform="scale(0.015625)"/>
        <path id="CMSS17-74" d="M 1069 2368 
L 1901 2368 
L 1901 2737 
L 1069 2737 
L 1069 3520 
L 614 3520 
L 614 2737 
L 109 2737 
L 109 2368 
L 602 2368 
L 602 749 
C 602 384 685 -64 1107 -64 
C 1427 -64 1722 25 2003 172 
L 1901 548 
C 1747 414 1562 337 1363 337 
C 1082 337 1069 696 1069 856 
L 1069 2368 
z
" transform="scale(0.015625)"/>
       </defs>
       <use xlink:href="#CMSS17-42" transform="scale(0.996264)"/>
       <use xlink:href="#CMSS17-75" transform="translate(62.33804 0) scale(0.996264)"/>
       <use xlink:href="#CMSS17-62" transform="translate(110.542983 0) scale(0.996264)"/>
       <use xlink:href="#CMSS17-62" transform="translate(158.747926 0) scale(0.996264)"/>
       <use xlink:href="#CMSS17-6c" transform="translate(206.95287 0) scale(0.996264)"/>
       <use xlink:href="#CMSS17-65" transform="translate(229.133593 0) scale(0.996264)"/>
       <use xlink:href="#CMSS17-53" transform="translate(270.772415 0) scale(0.996264)"/>
       <use xlink:href="#CMSS17-6f" transform="translate(322.820931 0) scale(0.996264)"/>
       <use xlink:href="#CMSS17-72" transform="translate(367.0621 0) scale(0.996264)"/>
       <use xlink:href="#CMSS17-74" transform="translate(398.971873 0) scale(0.996264)"/>
      </g>
     </g>
    </g>
    <g id="xtick_3">
     <g id="line2d_5">
      <path d="M 117.589164 139.993706 
L 117.589164 7.2 
" clip-path="url(#pf5e2070f4a)" style="fill: none; stroke: #cccccc; stroke-width: 0.25; stroke-linecap: round"/>
     </g>
     <g id="line2d_6">
      <g>
       <use xlink:href="#ma1388bdd44" x="117.589164" y="139.993706" style="fill: #262626; stroke: #262626; stroke-width: 1.25"/>
      </g>
     </g>
     <g id="text_3">
      <!-- DeltaBlue -->
      <g style="fill: #262626" transform="translate(84.20333 186.754097) rotate(-45) scale(0.11 -0.11)">
       <defs>
        <path id="CMSS17-44" d="M 570 4416 
L 570 0 
L 2144 0 
C 3194 0 4000 980 4000 2170 
C 4000 3398 3194 4416 2144 4416 
L 570 4416 
z
M 1094 357 
L 1094 4059 
L 2003 4059 
C 2861 4059 3475 3277 3475 2170 
C 3475 1107 2867 357 2003 357 
L 1094 357 
z
" transform="scale(0.015625)"/>
        <path id="CMSS17-61" d="M 2406 1791 
C 2406 2392 1978 2808 1402 2808 
C 1120 2808 813 2757 461 2553 
L 499 2135 
C 659 2248 934 2432 1395 2432 
C 1722 2432 1920 2180 1920 1782 
L 1920 1536 
C 896 1536 256 1238 256 726 
C 256 461 416 -64 947 -64 
C 1043 -64 1562 -64 1933 217 
L 1933 -19 
L 2406 -19 
L 2406 1791 
z
M 1920 816 
C 1920 701 1920 548 1728 434 
C 1562 325 1350 325 1261 325 
C 941 325 723 511 723 744 
C 723 1211 1722 1211 1920 1211 
L 1920 816 
z
" transform="scale(0.015625)"/>
       </defs>
       <use xlink:href="#CMSS17-44" transform="scale(0.996264)"/>
       <use xlink:href="#CMSS17-65" transform="translate(67.542842 0) scale(0.996264)"/>
       <use xlink:href="#CMSS17-6c" transform="translate(109.181664 0) scale(0.996264)"/>
       <use xlink:href="#CMSS17-74" transform="translate(131.362387 0) scale(0.996264)"/>
       <use xlink:href="#CMSS17-61" transform="translate(165.193953 0) scale(0.996264)"/>
       <use xlink:href="#CMSS17-42" transform="translate(210.115874 0) scale(0.996264)"/>
       <use xlink:href="#CMSS17-6c" transform="translate(272.453914 0) scale(0.996264)"/>
       <use xlink:href="#CMSS17-75" transform="translate(294.634637 0) scale(0.996264)"/>
       <use xlink:href="#CMSS17-65" transform="translate(342.83958 0) scale(0.996264)"/>
      </g>
     </g>
    </g>
    <g id="xtick_4">
     <g id="line2d_7">
      <path d="M 136.180743 139.993706 
L 136.180743 7.2 
" clip-path="url(#pf5e2070f4a)" style="fill: none; stroke: #cccccc; stroke-width: 0.25; stroke-linecap: round"/>
     </g>
     <g id="line2d_8">
      <g>
       <use xlink:href="#ma1388bdd44" x="136.180743" y="139.993706" style="fill: #262626; stroke: #262626; stroke-width: 1.25"/>
      </g>
     </g>
     <g id="text_4">
      <!-- Dispatch -->
      <g style="fill: #262626" transform="translate(106.282019 183.266987) rotate(-45) scale(0.11 -0.11)">
       <defs>
        <path id="CMSS17-69" d="M 979 4183 
L 442 4183 
L 442 3648 
L 979 3648 
L 979 4183 
z
M 947 2739 
L 474 2739 
L 474 0 
L 947 0 
L 947 2739 
z
" transform="scale(0.015625)"/>
        <path id="CMSS17-73" d="M 2061 2627 
C 1683 2807 1389 2807 1197 2807 
C 742 2807 198 2648 198 2003 
C 198 1359 902 1218 1094 1179 
C 1389 1122 1715 1058 1715 740 
C 1715 337 1254 337 1171 337 
C 915 337 563 407 243 638 
L 166 210 
C 531 0 883 -64 1178 -64 
C 1965 -64 2163 416 2163 781 
C 2163 1094 1984 1305 1862 1401 
C 1651 1568 1574 1587 1050 1696 
C 960 1709 646 1779 646 2066 
C 646 2432 1050 2432 1139 2432 
C 1555 2432 1811 2303 1984 2208 
L 2061 2627 
z
" transform="scale(0.015625)"/>
        <path id="CMSS17-70" d="M 966 333 
C 1178 129 1466 -5 1773 -5 
C 2368 -5 2880 603 2880 1412 
C 2880 2159 2496 2816 1946 2816 
C 1626 2816 1242 2702 954 2472 
L 954 2765 
L 480 2765 
L 480 -1216 
L 966 -1216 
L 966 333 
z
M 966 2100 
C 1018 2176 1235 2415 1587 2415 
C 2035 2415 2394 1960 2394 1412 
C 2394 787 1958 384 1530 384 
C 1402 384 1267 415 1139 523 
C 966 674 966 768 966 857 
L 966 2100 
z
" transform="scale(0.015625)"/>
        <path id="CMSS17-68" d="M 2618 1891 
C 2618 2292 2522 2820 1798 2820 
C 1395 2820 1133 2623 947 2407 
L 947 4448 
L 474 4448 
L 474 32 
L 960 32 
L 960 1573 
C 960 1973 1114 2432 1549 2432 
C 2112 2432 2131 2056 2131 1839 
L 2131 32 
L 2618 32 
L 2618 1891 
z
" transform="scale(0.015625)"/>
       </defs>
       <use xlink:href="#CMSS17-44" transform="scale(0.996264)"/>
       <use xlink:href="#CMSS17-69" transform="translate(67.542842 0) scale(0.996264)"/>
       <use xlink:href="#CMSS17-73" transform="translate(89.723565 0) scale(0.996264)"/>
       <use xlink:href="#CMSS17-70" transform="translate(125.637107 0) scale(0.996264)"/>
       <use xlink:href="#CMSS17-61" transform="translate(173.84205 0) scale(0.996264)"/>
       <use xlink:href="#CMSS17-74" transform="translate(218.76397 0) scale(0.996264)"/>
       <use xlink:href="#CMSS17-63" transform="translate(252.595537 0) scale(0.996264)"/>
       <use xlink:href="#CMSS17-68" transform="translate(294.234359 0) scale(0.996264)"/>
      </g>
     </g>
    </g>
    <g id="xtick_5">
     <g id="line2d_9">
      <path d="M 154.772321 139.993706 
L 154.772321 7.2 
" clip-path="url(#pf5e2070f4a)" style="fill: none; stroke: #cccccc; stroke-width: 0.25; stroke-linecap: round"/>
     </g>
     <g id="line2d_10">
      <g>
       <use xlink:href="#ma1388bdd44" x="154.772321" y="139.993706" style="fill: #262626; stroke: #262626; stroke-width: 1.25"/>
      </g>
     </g>
     <g id="text_5">
      <!-- Fannkuch -->
      <g style="fill: #262626" transform="translate(122.0968 186.043785) rotate(-45) scale(0.11 -0.11)">
       <defs>
        <path id="CMSS17-46" d="M 2918 1984 
L 2918 2373 
L 1101 2373 
L 1101 3968 
L 1882 3968 
C 1958 3968 2035 3968 2112 3968 
L 3168 3968 
L 3168 4375 
L 563 4375 
L 563 -32 
L 1101 -32 
L 1101 1984 
L 2918 1984 
z
" transform="scale(0.015625)"/>
        <path id="CMSS17-6b" d="M 1696 1688 
L 2688 2739 
L 2074 2739 
L 954 1554 
L 954 4416 
L 480 4416 
L 480 0 
L 947 0 
L 947 892 
L 1376 1344 
L 2278 0 
L 2822 0 
L 1696 1688 
z
" transform="scale(0.015625)"/>
       </defs>
       <use xlink:href="#CMSS17-46" transform="scale(0.996264)"/>
       <use xlink:href="#CMSS17-61" transform="translate(50.687105 0) scale(0.996264)"/>
       <use xlink:href="#CMSS17-6e" transform="translate(95.609026 0) scale(0.996264)"/>
       <use xlink:href="#CMSS17-6e" transform="translate(143.813969 0) scale(0.996264)"/>
       <use xlink:href="#CMSS17-6b" transform="translate(192.018912 0) scale(0.996264)"/>
       <use xlink:href="#CMSS17-75" transform="translate(237.621401 0) scale(0.996264)"/>
       <use xlink:href="#CMSS17-63" transform="translate(285.826345 0) scale(0.996264)"/>
       <use xlink:href="#CMSS17-68" transform="translate(327.465167 0) scale(0.996264)"/>
      </g>
     </g>
    </g>
    <g id="xtick_6">
     <g id="line2d_11">
      <path d="M 173.3639 139.993706 
L 173.3639 7.2 
" clip-path="url(#pf5e2070f4a)" style="fill: none; stroke: #cccccc; stroke-width: 0.25; stroke-linecap: round"/>
     </g>
     <g id="line2d_12">
      <g>
       <use xlink:href="#ma1388bdd44" x="173.3639" y="139.993706" style="fill: #262626; stroke: #262626; stroke-width: 1.25"/>
      </g>
     </g>
     <g id="text_6">
      <!-- Fibonacci -->
      <g style="fill: #262626" transform="translate(141.032797 185.699367) rotate(-45) scale(0.11 -0.11)">
       <use xlink:href="#CMSS17-46" transform="scale(0.996264)"/>
       <use xlink:href="#CMSS17-69" transform="translate(53.289559 0) scale(0.996264)"/>
       <use xlink:href="#CMSS17-62" transform="translate(75.470282 0) scale(0.996264)"/>
       <use xlink:href="#CMSS17-6f" transform="translate(126.277664 0) scale(0.996264)"/>
       <use xlink:href="#CMSS17-6e" transform="translate(173.121288 0) scale(0.996264)"/>
       <use xlink:href="#CMSS17-61" transform="translate(221.326231 0) scale(0.996264)"/>
       <use xlink:href="#CMSS17-63" transform="translate(266.248151 0) scale(0.996264)"/>
       <use xlink:href="#CMSS17-63" transform="translate(307.886974 0) scale(0.996264)"/>
       <use xlink:href="#CMSS17-69" transform="translate(349.525796 0) scale(0.996264)"/>
      </g>
     </g>
    </g>
    <g id="xtick_7">
     <g id="line2d_13">
      <path d="M 191.955479 139.993706 
L 191.955479 7.2 
" clip-path="url(#pf5e2070f4a)" style="fill: none; stroke: #cccccc; stroke-width: 0.25; stroke-linecap: round"/>
     </g>
     <g id="line2d_14">
      <g>
       <use xlink:href="#ma1388bdd44" x="191.955479" y="139.993706" style="fill: #262626; stroke: #262626; stroke-width: 1.25"/>
      </g>
     </g>
     <g id="text_7">
      <!-- FieldLoop -->
      <g style="fill: #262626" transform="translate(158.720307 186.603435) rotate(-45) scale(0.11 -0.11)">
       <defs>
        <path id="CMSS17-64" d="M 2611 4416 
L 2138 4416 
L 2138 2438 
C 1939 2603 1613 2756 1254 2756 
C 672 2756 211 2131 211 1347 
C 211 562 666 -64 1235 -64 
C 1677 -64 1971 172 2125 306 
L 2125 -13 
L 2611 -13 
L 2611 4416 
z
M 2125 836 
C 2125 747 2125 653 1926 482 
C 1798 375 1645 325 1498 325 
C 1152 325 698 576 698 1340 
C 698 2134 1210 2368 1562 2368 
C 1798 2368 1990 2254 2125 2065 
L 2125 836 
z
" transform="scale(0.015625)"/>
        <path id="CMSS17-4c" d="M 1670 414 
C 1594 414 1517 414 1440 414 
L 1101 414 
L 1101 4416 
L 563 4416 
L 563 0 
L 3002 0 
L 3002 414 
L 1670 414 
z
" transform="scale(0.015625)"/>
       </defs>
       <use xlink:href="#CMSS17-46" transform="scale(0.996264)"/>
       <use xlink:href="#CMSS17-69" transform="translate(53.289559 0) scale(0.996264)"/>
       <use xlink:href="#CMSS17-65" transform="translate(75.470282 0) scale(0.996264)"/>
       <use xlink:href="#CMSS17-6c" transform="translate(117.109104 0) scale(0.996264)"/>
       <use xlink:href="#CMSS17-64" transform="translate(139.289827 0) scale(0.996264)"/>
       <use xlink:href="#CMSS17-4c" transform="translate(187.494771 0) scale(0.996264)"/>
       <use xlink:href="#CMSS17-6f" transform="translate(238.181876 0) scale(0.996264)"/>
       <use xlink:href="#CMSS17-6f" transform="translate(287.627938 0) scale(0.996264)"/>
       <use xlink:href="#CMSS17-70" transform="translate(334.471562 0) scale(0.996264)"/>
      </g>
     </g>
    </g>
    <g id="xtick_8">
     <g id="line2d_15">
      <path d="M 210.547057 139.993706 
L 210.547057 7.2 
" clip-path="url(#pf5e2070f4a)" style="fill: none; stroke: #cccccc; stroke-width: 0.25; stroke-linecap: round"/>
     </g>
     <g id="line2d_16">
      <g>
       <use xlink:href="#ma1388bdd44" x="210.547057" y="139.993706" style="fill: #262626; stroke: #262626; stroke-width: 1.25"/>
      </g>
     </g>
     <g id="text_8">
      <!-- GraphSearch -->
      <g style="fill: #262626" transform="translate(168.142091 195.77323) rotate(-45) scale(0.11 -0.11)">
       <defs>
        <path id="CMSS17-47" d="M 3610 1856 
L 2336 1856 
L 2336 1461 
L 3123 1461 
L 3123 471 
C 2874 401 2618 350 2362 350 
C 1466 350 934 1301 934 2200 
C 934 3095 1491 4032 2362 4032 
C 2854 4032 3130 3881 3469 3627 
L 3552 4134 
C 3130 4351 2867 4440 2387 4440 
C 1146 4440 397 3324 397 2182 
C 397 1090 1152 -64 2349 -64 
C 2797 -64 3213 51 3610 248 
L 3610 1856 
z
" transform="scale(0.015625)"/>
       </defs>
       <use xlink:href="#CMSS17-47" transform="scale(0.996264)"/>
       <use xlink:href="#CMSS17-72" transform="translate(62.458226 0) scale(0.996264)"/>
       <use xlink:href="#CMSS17-61" transform="translate(94.367998 0) scale(0.996264)"/>
       <use xlink:href="#CMSS17-70" transform="translate(139.289919 0) scale(0.996264)"/>
       <use xlink:href="#CMSS17-68" transform="translate(187.494862 0) scale(0.996264)"/>
       <use xlink:href="#CMSS17-53" transform="translate(235.699805 0) scale(0.996264)"/>
       <use xlink:href="#CMSS17-65" transform="translate(287.748321 0) scale(0.996264)"/>
       <use xlink:href="#CMSS17-61" transform="translate(329.387143 0) scale(0.996264)"/>
       <use xlink:href="#CMSS17-72" transform="translate(371.70661 0) scale(0.996264)"/>
       <use xlink:href="#CMSS17-63" transform="translate(403.616382 0) scale(0.996264)"/>
       <use xlink:href="#CMSS17-68" transform="translate(445.255204 0) scale(0.996264)"/>
      </g>
     </g>
    </g>
    <g id="xtick_9">
     <g id="line2d_17">
      <path d="M 229.138636 139.993706 
L 229.138636 7.2 
" clip-path="url(#pf5e2070f4a)" style="fill: none; stroke: #cccccc; stroke-width: 0.25; stroke-linecap: round"/>
     </g>
     <g id="line2d_18">
      <g>
       <use xlink:href="#ma1388bdd44" x="229.138636" y="139.993706" style="fill: #262626; stroke: #262626; stroke-width: 1.25"/>
      </g>
     </g>
     <g id="text_9">
      <!-- IntegerLoop -->
      <g style="fill: #262626" transform="translate(189.101447 193.405453) rotate(-45) scale(0.11 -0.11)">
       <defs>
        <path id="CMSS17-49" d="M 1094 4416 
L 557 4416 
L 557 0 
L 1094 0 
L 1094 4416 
z
" transform="scale(0.015625)"/>
        <path id="CMSS17-67" d="M 2848 2808 
C 2483 2808 2170 2738 1914 2617 
C 1702 2777 1485 2808 1338 2808 
C 781 2808 358 2349 358 1814 
C 358 1468 550 1207 563 1195 
C 448 1035 384 863 384 672 
C 384 448 474 289 544 200 
C 211 -3 166 -314 166 -435 
C 166 -898 749 -1280 1498 -1280 
C 2253 -1280 2835 -898 2835 -428 
C 2835 448 1856 448 1587 448 
L 1069 448 
C 973 448 717 448 717 791 
C 717 921 774 1004 781 1010 
C 877 940 1075 832 1338 832 
C 1869 832 2310 1278 2310 1827 
C 2310 2132 2170 2355 2112 2432 
L 2131 2432 
C 2150 2432 2419 2432 2515 2432 
C 2720 2432 2739 2429 2918 2419 
L 2848 2808 
z
M 1338 1182 
C 1120 1182 813 1315 813 1823 
C 813 2375 1165 2464 1331 2464 
C 1549 2464 1856 2331 1856 1823 
C 1856 1271 1504 1182 1338 1182 
z
M 1581 -10 
C 1734 -10 2381 -10 2381 -442 
C 2381 -714 1984 -929 1504 -929 
C 1018 -929 621 -720 621 -435 
C 621 -403 621 -10 1062 -10 
L 1581 -10 
z
" transform="scale(0.015625)"/>
       </defs>
       <use xlink:href="#CMSS17-49" transform="scale(0.996264)"/>
       <use xlink:href="#CMSS17-6e" transform="translate(25.783926 0) scale(0.996264)"/>
       <use xlink:href="#CMSS17-74" transform="translate(73.988869 0) scale(0.996264)"/>
       <use xlink:href="#CMSS17-65" transform="translate(107.820435 0) scale(0.996264)"/>
       <use xlink:href="#CMSS17-67" transform="translate(149.459257 0) scale(0.996264)"/>
       <use xlink:href="#CMSS17-65" transform="translate(196.302881 0) scale(0.996264)"/>
       <use xlink:href="#CMSS17-72" transform="translate(237.941703 0) scale(0.996264)"/>
       <use xlink:href="#CMSS17-4c" transform="translate(269.851476 0) scale(0.996264)"/>
       <use xlink:href="#CMSS17-6f" transform="translate(320.538581 0) scale(0.996264)"/>
       <use xlink:href="#CMSS17-6f" transform="translate(369.984643 0) scale(0.996264)"/>
       <use xlink:href="#CMSS17-70" transform="translate(416.828267 0) scale(0.996264)"/>
      </g>
     </g>
    </g>
    <g id="xtick_10">
     <g id="line2d_19">
      <path d="M 247.730215 139.993706 
L 247.730215 7.2 
" clip-path="url(#pf5e2070f4a)" style="fill: none; stroke: #cccccc; stroke-width: 0.25; stroke-linecap: round"/>
     </g>
     <g id="line2d_20">
      <g>
       <use xlink:href="#ma1388bdd44" x="247.730215" y="139.993706" style="fill: #262626; stroke: #262626; stroke-width: 1.25"/>
      </g>
     </g>
     <g id="text_10">
      <!-- JsonSmall -->
      <g style="fill: #262626" transform="translate(213.82777 187.270708) rotate(-45) scale(0.11 -0.11)">
       <defs>
        <path id="CMSS17-4a" d="M 2336 4384 
L 1811 4384 
L 1811 940 
C 1811 636 1683 261 1107 261 
C 781 261 506 414 333 604 
L 250 140 
C 646 -71 1011 -128 1280 -128 
C 1901 -128 2336 228 2336 920 
L 2336 4384 
z
" transform="scale(0.015625)"/>
        <path id="CMSS17-6d" d="M 4288 1877 
C 4288 2308 4179 2816 3462 2816 
C 2982 2816 2694 2516 2566 2331 
C 2451 2670 2182 2816 1798 2816 
C 1363 2816 1088 2568 941 2389 
L 941 2758 
L 474 2758 
L 474 0 
L 960 0 
L 960 1559 
C 960 1939 1101 2428 1555 2428 
C 2138 2428 2138 2016 2138 1829 
L 2138 0 
L 2624 0 
L 2624 1559 
C 2624 1939 2765 2428 3219 2428 
C 3802 2428 3802 2016 3802 1829 
L 3802 0 
L 4288 0 
L 4288 1877 
z
" transform="scale(0.015625)"/>
       </defs>
       <use xlink:href="#CMSS17-4a" transform="scale(0.996264)"/>
       <use xlink:href="#CMSS17-73" transform="translate(44.121076 0) scale(0.996264)"/>
       <use xlink:href="#CMSS17-6f" transform="translate(80.034617 0) scale(0.996264)"/>
       <use xlink:href="#CMSS17-6e" transform="translate(126.878241 0) scale(0.996264)"/>
       <use xlink:href="#CMSS17-53" transform="translate(175.083184 0) scale(0.996264)"/>
       <use xlink:href="#CMSS17-6d" transform="translate(227.1317 0) scale(0.996264)"/>
       <use xlink:href="#CMSS17-61" transform="translate(301.360955 0) scale(0.996264)"/>
       <use xlink:href="#CMSS17-6c" transform="translate(346.282875 0) scale(0.996264)"/>
       <use xlink:href="#CMSS17-6c" transform="translate(368.463598 0) scale(0.996264)"/>
      </g>
     </g>
    </g>
    <g id="xtick_11">
     <g id="line2d_21">
      <path d="M 266.321794 139.993706 
L 266.321794 7.2 
" clip-path="url(#pf5e2070f4a)" style="fill: none; stroke: #cccccc; stroke-width: 0.25; stroke-linecap: round"/>
     </g>
     <g id="line2d_22">
      <g>
       <use xlink:href="#ma1388bdd44" x="266.321794" y="139.993706" style="fill: #262626; stroke: #262626; stroke-width: 1.25"/>
      </g>
     </g>
     <g id="text_11">
      <!-- List -->
      <g style="fill: #262626" transform="translate(252.997616 166.692441) rotate(-45) scale(0.11 -0.11)">
       <use xlink:href="#CMSS17-4c" transform="scale(0.996264)"/>
       <use xlink:href="#CMSS17-69" transform="translate(50.687105 0) scale(0.996264)"/>
       <use xlink:href="#CMSS17-73" transform="translate(72.867828 0) scale(0.996264)"/>
       <use xlink:href="#CMSS17-74" transform="translate(108.78137 0) scale(0.996264)"/>
      </g>
     </g>
    </g>
    <g id="xtick_12">
     <g id="line2d_23">
      <path d="M 284.913372 139.993706 
L 284.913372 7.2 
" clip-path="url(#pf5e2070f4a)" style="fill: none; stroke: #cccccc; stroke-width: 0.25; stroke-linecap: round"/>
     </g>
     <g id="line2d_24">
      <g>
       <use xlink:href="#ma1388bdd44" x="284.913372" y="139.993706" style="fill: #262626; stroke: #262626; stroke-width: 1.25"/>
      </g>
     </g>
     <g id="text_12">
      <!-- Loop -->
      <g style="fill: #262626" transform="translate(267.241045 171.040591) rotate(-45) scale(0.11 -0.11)">
       <use xlink:href="#CMSS17-4c" transform="scale(0.996264)"/>
       <use xlink:href="#CMSS17-6f" transform="translate(50.687105 0) scale(0.996264)"/>
       <use xlink:href="#CMSS17-6f" transform="translate(100.133168 0) scale(0.996264)"/>
       <use xlink:href="#CMSS17-70" transform="translate(146.976791 0) scale(0.996264)"/>
      </g>
     </g>
    </g>
    <g id="xtick_13">
     <g id="line2d_25">
      <path d="M 303.504951 139.993706 
L 303.504951 7.2 
" clip-path="url(#pf5e2070f4a)" style="fill: none; stroke: #cccccc; stroke-width: 0.25; stroke-linecap: round"/>
     </g>
     <g id="line2d_26">
      <g>
       <use xlink:href="#ma1388bdd44" x="303.504951" y="139.993706" style="fill: #262626; stroke: #262626; stroke-width: 1.25"/>
      </g>
     </g>
     <g id="text_13">
      <!-- Mandelbrot -->
      <g style="fill: #262626" transform="translate(265.082175 191.79104) rotate(-45) scale(0.11 -0.11)">
       <defs>
        <path id="CMSS17-4d" d="M 3194 2371 
L 2886 1473 
C 2835 1307 2662 791 2624 587 
L 2618 587 
C 2598 715 2560 849 2458 1174 
C 2400 1365 2336 1562 2272 1741 
L 1325 4416 
L 576 4416 
L 576 0 
L 1075 0 
L 1075 3900 
L 1082 3900 
C 1082 3894 1139 3613 1530 2499 
L 2374 96 
L 2848 96 
L 3610 2231 
C 3661 2378 3821 2843 3891 3066 
C 3955 3257 4115 3728 4154 3913 
L 4160 3913 
L 4160 0 
L 4666 0 
L 4666 4416 
L 3923 4416 
L 3194 2371 
z
" transform="scale(0.015625)"/>
       </defs>
       <use xlink:href="#CMSS17-4d" transform="scale(0.996264)"/>
       <use xlink:href="#CMSS17-61" transform="translate(81.67603 0) scale(0.996264)"/>
       <use xlink:href="#CMSS17-6e" transform="translate(126.597951 0) scale(0.996264)"/>
       <use xlink:href="#CMSS17-64" transform="translate(174.802894 0) scale(0.996264)"/>
       <use xlink:href="#CMSS17-65" transform="translate(223.007837 0) scale(0.996264)"/>
       <use xlink:href="#CMSS17-6c" transform="translate(264.646659 0) scale(0.996264)"/>
       <use xlink:href="#CMSS17-62" transform="translate(286.827382 0) scale(0.996264)"/>
       <use xlink:href="#CMSS17-72" transform="translate(332.429871 0) scale(0.996264)"/>
       <use xlink:href="#CMSS17-6f" transform="translate(364.339644 0) scale(0.996264)"/>
       <use xlink:href="#CMSS17-74" transform="translate(411.183267 0) scale(0.996264)"/>
      </g>
     </g>
    </g>
    <g id="xtick_14">
     <g id="line2d_27">
      <path d="M 322.09653 139.993706 
L 322.09653 7.2 
" clip-path="url(#pf5e2070f4a)" style="fill: none; stroke: #cccccc; stroke-width: 0.25; stroke-linecap: round"/>
     </g>
     <g id="line2d_28">
      <g>
       <use xlink:href="#ma1388bdd44" x="322.09653" y="139.993706" style="fill: #262626; stroke: #262626; stroke-width: 1.25"/>
      </g>
     </g>
     <g id="text_14">
      <!-- NBody -->
      <g style="fill: #262626" transform="translate(298.267927 177.196867) rotate(-45) scale(0.11 -0.11)">
       <defs>
        <path id="CMSS17-4e" d="M 1466 4180 
L 1350 4416 
L 563 4416 
L 563 0 
L 1062 0 
L 1062 3926 
L 1069 3932 
C 1114 3817 1139 3760 1402 3194 
L 2771 236 
L 2886 0 
L 3674 0 
L 3674 4416 
L 3174 4416 
L 3174 490 
L 3168 483 
C 3123 598 3098 655 2835 1221 
L 1466 4180 
z
" transform="scale(0.015625)"/>
        <path id="CMSS17-79" d="M 2675 2752 
L 2176 2752 
C 1632 1294 1446 702 1434 383 
L 1427 383 
C 1408 696 1126 1460 902 2007 
L 602 2752 
L 83 2752 
L 1216 13 
C 1146 -178 1043 -465 1011 -529 
C 870 -885 774 -885 672 -885 
C 646 -885 442 -885 211 -809 
L 250 -1229 
C 410 -1261 570 -1280 685 -1280 
C 845 -1280 1165 -1280 1459 -497 
L 2675 2752 
z
" transform="scale(0.015625)"/>
       </defs>
       <use xlink:href="#CMSS17-4e" transform="scale(0.996264)"/>
       <use xlink:href="#CMSS17-42" transform="translate(66.061519 0) scale(0.996264)"/>
       <use xlink:href="#CMSS17-6f" transform="translate(128.399559 0) scale(0.996264)"/>
       <use xlink:href="#CMSS17-64" transform="translate(177.845622 0) scale(0.996264)"/>
       <use xlink:href="#CMSS17-79" transform="translate(226.050565 0) scale(0.996264)"/>
      </g>
     </g>
    </g>
    <g id="xtick_15">
     <g id="line2d_29">
      <path d="M 340.688108 139.993706 
L 340.688108 7.2 
" clip-path="url(#pf5e2070f4a)" style="fill: none; stroke: #cccccc; stroke-width: 0.25; stroke-linecap: round"/>
     </g>
     <g id="line2d_30">
      <g>
       <use xlink:href="#ma1388bdd44" x="340.688108" y="139.993706" style="fill: #262626; stroke: #262626; stroke-width: 1.25"/>
      </g>
     </g>
     <g id="text_15">
      <!-- PageRank -->
      <g style="fill: #262626" transform="translate(306.882515 187.173857) rotate(-45) scale(0.11 -0.11)">
       <defs>
        <path id="CMSS17-50" d="M 2106 1856 
C 2874 1856 3501 2453 3501 3158 
C 3501 3850 2899 4453 2067 4453 
L 570 4453 
L 570 0 
L 1107 0 
L 1107 1856 
L 2106 1856 
z
M 1926 4096 
C 2669 4096 2995 3627 2995 3157 
C 2995 2720 2694 2226 1926 2226 
L 1094 2226 
L 1094 4096 
L 1926 4096 
z
" transform="scale(0.015625)"/>
        <path id="CMSS17-52" d="M 2522 2109 
L 2534 2115 
C 3533 2459 3539 3147 3539 3268 
C 3539 3873 2925 4453 2003 4453 
L 570 4453 
L 570 32 
L 1094 32 
L 1094 2048 
L 2035 2048 
L 3168 32 
L 3706 32 
L 2522 2109 
z
M 1094 2437 
L 1094 4096 
L 1933 4096 
C 2746 4096 3034 3637 3034 3267 
C 3034 2922 2778 2437 1933 2437 
L 1094 2437 
z
" transform="scale(0.015625)"/>
       </defs>
       <use xlink:href="#CMSS17-50" transform="scale(0.996264)"/>
       <use xlink:href="#CMSS17-61" transform="translate(57.133132 0) scale(0.996264)"/>
       <use xlink:href="#CMSS17-67" transform="translate(102.055053 0) scale(0.996264)"/>
       <use xlink:href="#CMSS17-65" transform="translate(148.898676 0) scale(0.996264)"/>
       <use xlink:href="#CMSS17-52" transform="translate(190.537499 0) scale(0.996264)"/>
       <use xlink:href="#CMSS17-61" transform="translate(250.953653 0) scale(0.996264)"/>
       <use xlink:href="#CMSS17-6e" transform="translate(295.875574 0) scale(0.996264)"/>
       <use xlink:href="#CMSS17-6b" transform="translate(344.080517 0) scale(0.996264)"/>
      </g>
     </g>
    </g>
    <g id="xtick_16">
     <g id="line2d_31">
      <path d="M 359.279687 139.993706 
L 359.279687 7.2 
" clip-path="url(#pf5e2070f4a)" style="fill: none; stroke: #cccccc; stroke-width: 0.25; stroke-linecap: round"/>
     </g>
     <g id="line2d_32">
      <g>
       <use xlink:href="#ma1388bdd44" x="359.279687" y="139.993706" style="fill: #262626; stroke: #262626; stroke-width: 1.25"/>
      </g>
     </g>
     <g id="text_16">
      <!-- Permute -->
      <g style="fill: #262626" transform="translate(330.543337 182.104613) rotate(-45) scale(0.11 -0.11)">
       <use xlink:href="#CMSS17-50" transform="scale(0.996264)"/>
       <use xlink:href="#CMSS17-65" transform="translate(57.133132 0) scale(0.996264)"/>
       <use xlink:href="#CMSS17-72" transform="translate(98.771954 0) scale(0.996264)"/>
       <use xlink:href="#CMSS17-6d" transform="translate(130.681727 0) scale(0.996264)"/>
       <use xlink:href="#CMSS17-75" transform="translate(204.910981 0) scale(0.996264)"/>
       <use xlink:href="#CMSS17-74" transform="translate(253.115925 0) scale(0.996264)"/>
       <use xlink:href="#CMSS17-65" transform="translate(286.947491 0) scale(0.996264)"/>
      </g>
     </g>
    </g>
    <g id="xtick_17">
     <g id="line2d_33">
      <path d="M 377.871266 139.993706 
L 377.871266 7.2 
" clip-path="url(#pf5e2070f4a)" style="fill: none; stroke: #cccccc; stroke-width: 0.25; stroke-linecap: round"/>
     </g>
     <g id="line2d_34">
      <g>
       <use xlink:href="#ma1388bdd44" x="377.871266" y="139.993706" style="fill: #262626; stroke: #262626; stroke-width: 1.25"/>
      </g>
     </g>
     <g id="text_17">
      <!-- Queens -->
      <g style="fill: #262626" transform="translate(352.794219 178.44531) rotate(-45) scale(0.11 -0.11)">
       <defs>
        <path id="CMSS17-51" d="M 3200 202 
C 3981 833 4096 1689 4096 2174 
C 4096 3501 3219 4497 2214 4497 
C 1210 4497 333 3497 333 2178 
C 333 847 1222 -128 2214 -128 
C 2438 -128 2630 -77 2765 -26 
L 3302 -832 
L 3930 -832 
L 3200 202 
z
M 2528 324 
C 2438 293 2330 273 2214 273 
C 1523 273 858 993 858 2178 
C 858 3357 1517 4096 2214 4096 
C 2918 4096 3571 3350 3571 2178 
C 3571 1771 3507 1089 2950 566 
L 2490 1210 
L 1939 1210 
L 2528 324 
z
" transform="scale(0.015625)"/>
       </defs>
       <use xlink:href="#CMSS17-51" transform="scale(0.996264)"/>
       <use xlink:href="#CMSS17-75" transform="translate(69.024255 0) scale(0.996264)"/>
       <use xlink:href="#CMSS17-65" transform="translate(117.229198 0) scale(0.996264)"/>
       <use xlink:href="#CMSS17-65" transform="translate(158.868021 0) scale(0.996264)"/>
       <use xlink:href="#CMSS17-6e" transform="translate(200.506843 0) scale(0.996264)"/>
       <use xlink:href="#CMSS17-73" transform="translate(248.711786 0) scale(0.996264)"/>
      </g>
     </g>
    </g>
    <g id="xtick_18">
     <g id="line2d_35">
      <path d="M 396.462844 139.993706 
L 396.462844 7.2 
" clip-path="url(#pf5e2070f4a)" style="fill: none; stroke: #cccccc; stroke-width: 0.25; stroke-linecap: round"/>
     </g>
     <g id="line2d_36">
      <g>
       <use xlink:href="#ma1388bdd44" x="396.462844" y="139.993706" style="fill: #262626; stroke: #262626; stroke-width: 1.25"/>
      </g>
     </g>
     <g id="text_18">
      <!-- QuickSort -->
      <g style="fill: #262626" transform="translate(362.754134 187.076974) rotate(-45) scale(0.11 -0.11)">
       <use xlink:href="#CMSS17-51" transform="scale(0.996264)"/>
       <use xlink:href="#CMSS17-75" transform="translate(69.024255 0) scale(0.996264)"/>
       <use xlink:href="#CMSS17-69" transform="translate(117.229198 0) scale(0.996264)"/>
       <use xlink:href="#CMSS17-63" transform="translate(139.409922 0) scale(0.996264)"/>
       <use xlink:href="#CMSS17-6b" transform="translate(181.048744 0) scale(0.996264)"/>
       <use xlink:href="#CMSS17-53" transform="translate(226.651233 0) scale(0.996264)"/>
       <use xlink:href="#CMSS17-6f" transform="translate(278.699749 0) scale(0.996264)"/>
       <use xlink:href="#CMSS17-72" transform="translate(322.940919 0) scale(0.996264)"/>
       <use xlink:href="#CMSS17-74" transform="translate(354.850691 0) scale(0.996264)"/>
      </g>
     </g>
    </g>
    <g id="xtick_19">
     <g id="line2d_37">
      <path d="M 415.054423 139.993706 
L 415.054423 7.2 
" clip-path="url(#pf5e2070f4a)" style="fill: none; stroke: #cccccc; stroke-width: 0.25; stroke-linecap: round"/>
     </g>
     <g id="line2d_38">
      <g>
       <use xlink:href="#ma1388bdd44" x="415.054423" y="139.993706" style="fill: #262626; stroke: #262626; stroke-width: 1.25"/>
      </g>
     </g>
     <g id="text_19">
      <!-- Recurse -->
      <g style="fill: #262626" transform="translate(388.588978 179.833709) rotate(-45) scale(0.11 -0.11)">
       <use xlink:href="#CMSS17-52" transform="scale(0.996264)"/>
       <use xlink:href="#CMSS17-65" transform="translate(60.416155 0) scale(0.996264)"/>
       <use xlink:href="#CMSS17-63" transform="translate(102.054977 0) scale(0.996264)"/>
       <use xlink:href="#CMSS17-75" transform="translate(143.693799 0) scale(0.996264)"/>
       <use xlink:href="#CMSS17-72" transform="translate(191.898742 0) scale(0.996264)"/>
       <use xlink:href="#CMSS17-73" transform="translate(223.808515 0) scale(0.996264)"/>
       <use xlink:href="#CMSS17-65" transform="translate(259.722057 0) scale(0.996264)"/>
      </g>
     </g>
    </g>
    <g id="xtick_20">
     <g id="line2d_39">
      <path d="M 433.646002 139.993706 
L 433.646002 7.2 
" clip-path="url(#pf5e2070f4a)" style="fill: none; stroke: #cccccc; stroke-width: 0.25; stroke-linecap: round"/>
     </g>
     <g id="line2d_40">
      <g>
       <use xlink:href="#ma1388bdd44" x="433.646002" y="139.993706" style="fill: #262626; stroke: #262626; stroke-width: 1.25"/>
      </g>
     </g>
     <g id="text_20">
      <!-- Richards -->
      <g style="fill: #262626" transform="translate(404.705158 182.309108) rotate(-45) scale(0.11 -0.11)">
       <use xlink:href="#CMSS17-52" transform="scale(0.996264)"/>
       <use xlink:href="#CMSS17-69" transform="translate(60.416155 0) scale(0.996264)"/>
       <use xlink:href="#CMSS17-63" transform="translate(82.596878 0) scale(0.996264)"/>
       <use xlink:href="#CMSS17-68" transform="translate(124.2357 0) scale(0.996264)"/>
       <use xlink:href="#CMSS17-61" transform="translate(172.440643 0) scale(0.996264)"/>
       <use xlink:href="#CMSS17-72" transform="translate(214.76011 0) scale(0.996264)"/>
       <use xlink:href="#CMSS17-64" transform="translate(246.669882 0) scale(0.996264)"/>
       <use xlink:href="#CMSS17-73" transform="translate(294.874825 0) scale(0.996264)"/>
      </g>
     </g>
    </g>
    <g id="xtick_21">
     <g id="line2d_41">
      <path d="M 452.23758 139.993706 
L 452.23758 7.2 
" clip-path="url(#pf5e2070f4a)" style="fill: none; stroke: #cccccc; stroke-width: 0.25; stroke-linecap: round"/>
     </g>
     <g id="line2d_42">
      <g>
       <use xlink:href="#ma1388bdd44" x="452.23758" y="139.993706" style="fill: #262626; stroke: #262626; stroke-width: 1.25"/>
      </g>
     </g>
     <g id="text_21">
      <!-- Sieve -->
      <g style="fill: #262626" transform="translate(434.113224 171.49262) rotate(-45) scale(0.11 -0.11)">
       <defs>
        <path id="CMSS17-76" d="M 2675 2752 
L 2176 2752 
L 1747 1556 
C 1613 1165 1421 627 1389 352 
L 1382 352 
C 1370 468 1318 634 1286 749 
C 1248 890 1197 1056 1158 1172 
L 595 2752 
L 83 2752 
L 1094 0 
L 1664 0 
L 2675 2752 
z
" transform="scale(0.015625)"/>
       </defs>
       <use xlink:href="#CMSS17-53" transform="scale(0.996264)"/>
       <use xlink:href="#CMSS17-69" transform="translate(52.048516 0) scale(0.996264)"/>
       <use xlink:href="#CMSS17-65" transform="translate(74.229239 0) scale(0.996264)"/>
       <use xlink:href="#CMSS17-76" transform="translate(115.868061 0) scale(0.996264)"/>
       <use xlink:href="#CMSS17-65" transform="translate(158.868203 0) scale(0.996264)"/>
      </g>
     </g>
    </g>
    <g id="xtick_22">
     <g id="line2d_43">
      <path d="M 470.829159 139.993706 
L 470.829159 7.2 
" clip-path="url(#pf5e2070f4a)" style="fill: none; stroke: #cccccc; stroke-width: 0.25; stroke-linecap: round"/>
     </g>
     <g id="line2d_44">
      <g>
       <use xlink:href="#ma1388bdd44" x="470.829159" y="139.993706" style="fill: #262626; stroke: #262626; stroke-width: 1.25"/>
      </g>
     </g>
     <g id="text_22">
      <!-- Storage -->
      <g style="fill: #262626" transform="translate(444.869586 179.327837) rotate(-45) scale(0.11 -0.11)">
       <use xlink:href="#CMSS17-53" transform="scale(0.996264)"/>
       <use xlink:href="#CMSS17-74" transform="translate(52.048516 0) scale(0.996264)"/>
       <use xlink:href="#CMSS17-6f" transform="translate(85.880083 0) scale(0.996264)"/>
       <use xlink:href="#CMSS17-72" transform="translate(130.121252 0) scale(0.996264)"/>
       <use xlink:href="#CMSS17-61" transform="translate(162.031025 0) scale(0.996264)"/>
       <use xlink:href="#CMSS17-67" transform="translate(206.952946 0) scale(0.996264)"/>
       <use xlink:href="#CMSS17-65" transform="translate(253.796569 0) scale(0.996264)"/>
      </g>
     </g>
    </g>
    <g id="xtick_23">
     <g id="line2d_45">
      <path d="M 489.420738 139.993706 
L 489.420738 7.2 
" clip-path="url(#pf5e2070f4a)" style="fill: none; stroke: #cccccc; stroke-width: 0.25; stroke-linecap: round"/>
     </g>
     <g id="line2d_46">
      <g>
       <use xlink:href="#ma1388bdd44" x="489.420738" y="139.993706" style="fill: #262626; stroke: #262626; stroke-width: 1.25"/>
      </g>
     </g>
     <g id="text_23">
      <!-- Sum -->
      <g style="fill: #262626" transform="translate(473.448915 169.340086) rotate(-45) scale(0.11 -0.11)">
       <use xlink:href="#CMSS17-53" transform="scale(0.996264)"/>
       <use xlink:href="#CMSS17-75" transform="translate(52.048516 0) scale(0.996264)"/>
       <use xlink:href="#CMSS17-6d" transform="translate(100.253459 0) scale(0.996264)"/>
      </g>
     </g>
    </g>
    <g id="xtick_24">
     <g id="line2d_47">
      <path d="M 508.012316 139.993706 
L 508.012316 7.2 
" clip-path="url(#pf5e2070f4a)" style="fill: none; stroke: #cccccc; stroke-width: 0.25; stroke-linecap: round"/>
     </g>
     <g id="line2d_48">
      <g>
       <use xlink:href="#ma1388bdd44" x="508.012316" y="139.993706" style="fill: #262626; stroke: #262626; stroke-width: 1.25"/>
      </g>
     </g>
     <g id="text_24">
      <!-- Towers -->
      <g style="fill: #262626" transform="translate(484.076135 177.304445) rotate(-45) scale(0.11 -0.11)">
       <defs>
        <path id="CMSS17-54" d="M 2317 3968 
L 2848 3968 
C 2925 3968 3002 3968 3078 3968 
L 3878 3968 
L 3878 4376 
L 218 4376 
L 218 3968 
L 1018 3968 
C 1094 3968 1171 3968 1248 3968 
L 1779 3968 
L 1779 -32 
L 2317 -32 
L 2317 3968 
z
" transform="scale(0.015625)"/>
        <path id="CMSS17-77" d="M 4013 2752 
L 3526 2752 
L 3187 1601 
C 3117 1358 2918 685 2893 371 
L 2886 371 
C 2874 564 2765 1024 2586 1633 
L 2259 2752 
L 1818 2752 
L 1498 1658 
C 1338 1101 1216 627 1203 371 
L 1197 371 
C 1171 749 909 1633 870 1773 
L 582 2752 
L 83 2752 
L 915 0 
L 1402 0 
C 1734 1096 1990 1943 2010 2370 
C 2022 2160 2131 1707 2195 1484 
L 2618 0 
L 3181 0 
L 4013 2752 
z
" transform="scale(0.015625)"/>
       </defs>
       <use xlink:href="#CMSS17-54" transform="scale(0.996264)"/>
       <use xlink:href="#CMSS17-6f" transform="translate(56.012199 0) scale(0.996264)"/>
       <use xlink:href="#CMSS17-77" transform="translate(100.253368 0) scale(0.996264)"/>
       <use xlink:href="#CMSS17-65" transform="translate(161.470459 0) scale(0.996264)"/>
       <use xlink:href="#CMSS17-72" transform="translate(203.109281 0) scale(0.996264)"/>
       <use xlink:href="#CMSS17-73" transform="translate(235.019054 0) scale(0.996264)"/>
      </g>
     </g>
    </g>
    <g id="xtick_25">
     <g id="line2d_49">
      <path d="M 526.603895 139.993706 
L 526.603895 7.2 
" clip-path="url(#pf5e2070f4a)" style="fill: none; stroke: #cccccc; stroke-width: 0.25; stroke-linecap: round"/>
     </g>
     <g id="line2d_50">
      <g>
       <use xlink:href="#ma1388bdd44" x="526.603895" y="139.993706" style="fill: #262626; stroke: #262626; stroke-width: 1.25"/>
      </g>
     </g>
     <g id="text_25">
      <!-- TreeSort -->
      <g style="fill: #262626" transform="translate(497.523149 182.449009) rotate(-45) scale(0.11 -0.11)">
       <use xlink:href="#CMSS17-54" transform="scale(0.996264)"/>
       <use xlink:href="#CMSS17-72" transform="translate(56.012199 0) scale(0.996264)"/>
       <use xlink:href="#CMSS17-65" transform="translate(87.921971 0) scale(0.996264)"/>
       <use xlink:href="#CMSS17-65" transform="translate(129.560793 0) scale(0.996264)"/>
       <use xlink:href="#CMSS17-53" transform="translate(171.199615 0) scale(0.996264)"/>
       <use xlink:href="#CMSS17-6f" transform="translate(223.248131 0) scale(0.996264)"/>
       <use xlink:href="#CMSS17-72" transform="translate(267.489301 0) scale(0.996264)"/>
       <use xlink:href="#CMSS17-74" transform="translate(299.399074 0) scale(0.996264)"/>
      </g>
     </g>
    </g>
    <g id="xtick_26">
     <g id="line2d_51">
      <path d="M 545.195474 139.993706 
L 545.195474 7.2 
" clip-path="url(#pf5e2070f4a)" style="fill: none; stroke: #cccccc; stroke-width: 0.25; stroke-linecap: round"/>
     </g>
     <g id="line2d_52">
      <g>
       <use xlink:href="#ma1388bdd44" x="545.195474" y="139.993706" style="fill: #262626; stroke: #262626; stroke-width: 1.25"/>
      </g>
     </g>
     <g id="text_26">
      <!-- WhileLoop -->
      <g style="fill: #262626" transform="translate(509.054373 189.509365) rotate(-45) scale(0.11 -0.11)">
       <defs>
        <path id="CMSS17-57" d="M 5581 4416 
L 5094 4416 
L 4557 2437 
C 4474 2118 4397 1801 4320 1482 
C 4205 1011 4122 681 4109 515 
L 4102 515 
C 4090 687 4006 1049 3904 1457 
C 3827 1795 3744 2131 3654 2462 
L 3123 4416 
L 2586 4416 
L 2080 2562 
L 1824 1549 
C 1632 747 1626 632 1613 505 
L 1606 505 
C 1606 543 1581 753 1402 1498 
C 1312 1868 1222 2244 1126 2601 
L 634 4416 
L 83 4416 
L 1299 0 
L 1830 0 
L 2336 1839 
L 2592 2851 
C 2765 3564 2803 3742 2816 3901 
L 2822 3901 
C 2822 3876 2880 3474 3130 2545 
L 3808 0 
L 4365 0 
L 5581 4416 
z
" transform="scale(0.015625)"/>
       </defs>
       <use xlink:href="#CMSS17-57" transform="scale(0.996264)"/>
       <use xlink:href="#CMSS17-68" transform="translate(88.242166 0) scale(0.996264)"/>
       <use xlink:href="#CMSS17-69" transform="translate(136.447109 0) scale(0.996264)"/>
       <use xlink:href="#CMSS17-6c" transform="translate(158.627832 0) scale(0.996264)"/>
       <use xlink:href="#CMSS17-65" transform="translate(180.808555 0) scale(0.996264)"/>
       <use xlink:href="#CMSS17-4c" transform="translate(222.447378 0) scale(0.996264)"/>
       <use xlink:href="#CMSS17-6f" transform="translate(273.134483 0) scale(0.996264)"/>
       <use xlink:href="#CMSS17-6f" transform="translate(322.580545 0) scale(0.996264)"/>
       <use xlink:href="#CMSS17-70" transform="translate(369.424169 0) scale(0.996264)"/>
      </g>
     </g>
    </g>
   </g>
   <g id="matplotlib.axis_2">
    <g id="ytick_1">
     <g id="line2d_53">
      <path d="M 68.32148 139.993706 
L 557.28 139.993706 
" clip-path="url(#pf5e2070f4a)" style="fill: none; stroke: #cccccc; stroke-width: 0.25; stroke-linecap: round"/>
     </g>
     <g id="line2d_54">
      <defs>
       <path id="m13fbb6ee70" d="M 0 0 
L -6 0 
" style="stroke: #262626; stroke-width: 1.25"/>
      </defs>
      <g>
       <use xlink:href="#m13fbb6ee70" x="68.32148" y="139.993706" style="fill: #262626; stroke: #262626; stroke-width: 1.25"/>
      </g>
     </g>
     <g id="text_27">
      <!-- $\mathdefault{0}$ -->
      <g style="fill: #262626" transform="translate(53.342013 143.798879) scale(0.11 -0.11)">
       <defs>
        <path id="CMR17-30" d="M 2688 2025 
C 2688 2416 2682 3080 2413 3591 
C 2176 4039 1798 4198 1466 4198 
C 1158 4198 768 4058 525 3597 
C 269 3118 243 2524 243 2025 
C 243 1661 250 1106 448 619 
C 723 -39 1216 -128 1466 -128 
C 1760 -128 2208 -7 2470 600 
C 2662 1042 2688 1559 2688 2025 
z
M 1466 -26 
C 1056 -26 813 325 723 812 
C 653 1188 653 1738 653 2096 
C 653 2588 653 2997 736 3387 
C 858 3929 1216 4096 1466 4096 
C 1728 4096 2067 3923 2189 3400 
C 2272 3036 2278 2607 2278 2096 
C 2278 1680 2278 1169 2202 792 
C 2067 95 1690 -26 1466 -26 
z
" transform="scale(0.015625)"/>
       </defs>
       <use xlink:href="#CMR17-30" transform="scale(0.996264)"/>
      </g>
     </g>
    </g>
    <g id="ytick_2">
     <g id="line2d_55">
      <path d="M 68.32148 110.917526 
L 557.28 110.917526 
" clip-path="url(#pf5e2070f4a)" style="fill: none; stroke: #cccccc; stroke-width: 0.25; stroke-linecap: round"/>
     </g>
     <g id="line2d_56">
      <g>
       <use xlink:href="#m13fbb6ee70" x="68.32148" y="110.917526" style="fill: #262626; stroke: #262626; stroke-width: 1.25"/>
      </g>
     </g>
     <g id="text_28">
      <!-- $\mathdefault{1000}$ -->
      <g style="fill: #262626" transform="translate(36.903611 114.722699) scale(0.11 -0.11)">
       <defs>
        <path id="CMR17-31" d="M 1702 4058 
C 1702 4192 1696 4192 1606 4192 
C 1357 3916 979 3827 621 3827 
C 602 3827 570 3827 563 3808 
C 557 3795 557 3782 557 3648 
C 755 3648 1088 3686 1344 3839 
L 1344 461 
C 1344 236 1331 160 781 160 
L 589 160 
L 589 0 
C 896 0 1216 0 1523 0 
C 1830 0 2150 0 2458 0 
L 2458 160 
L 2266 160 
C 1715 160 1702 230 1702 458 
L 1702 4058 
z
" transform="scale(0.015625)"/>
       </defs>
       <use xlink:href="#CMR17-31" transform="scale(0.996264)"/>
       <use xlink:href="#CMR17-30" transform="translate(45.690477 0) scale(0.996264)"/>
       <use xlink:href="#CMR17-30" transform="translate(91.380954 0) scale(0.996264)"/>
       <use xlink:href="#CMR17-30" transform="translate(137.071431 0) scale(0.996264)"/>
      </g>
     </g>
    </g>
    <g id="ytick_3">
     <g id="line2d_57">
      <path d="M 68.32148 81.841346 
L 557.28 81.841346 
" clip-path="url(#pf5e2070f4a)" style="fill: none; stroke: #cccccc; stroke-width: 0.25; stroke-linecap: round"/>
     </g>
     <g id="line2d_58">
      <g>
       <use xlink:href="#m13fbb6ee70" x="68.32148" y="81.841346" style="fill: #262626; stroke: #262626; stroke-width: 1.25"/>
      </g>
     </g>
     <g id="text_29">
      <!-- $\mathdefault{2000}$ -->
      <g style="fill: #262626" transform="translate(36.903611 85.646519) scale(0.11 -0.11)">
       <defs>
        <path id="CMR17-32" d="M 2669 989 
L 2554 989 
C 2490 536 2438 459 2413 420 
C 2381 369 1920 369 1830 369 
L 602 369 
C 832 619 1280 1072 1824 1597 
C 2214 1967 2669 2402 2669 3035 
C 2669 3790 2067 4224 1395 4224 
C 691 4224 262 3604 262 3030 
C 262 2780 448 2748 525 2748 
C 589 2748 781 2787 781 3010 
C 781 3207 614 3264 525 3264 
C 486 3264 448 3258 422 3245 
C 544 3790 915 4058 1306 4058 
C 1862 4058 2227 3617 2227 3035 
C 2227 2479 1901 2000 1536 1584 
L 262 146 
L 262 0 
L 2515 0 
L 2669 989 
z
" transform="scale(0.015625)"/>
       </defs>
       <use xlink:href="#CMR17-32" transform="scale(0.996264)"/>
       <use xlink:href="#CMR17-30" transform="translate(45.690477 0) scale(0.996264)"/>
       <use xlink:href="#CMR17-30" transform="translate(91.380954 0) scale(0.996264)"/>
       <use xlink:href="#CMR17-30" transform="translate(137.071431 0) scale(0.996264)"/>
      </g>
     </g>
    </g>
    <g id="ytick_4">
     <g id="line2d_59">
      <path d="M 68.32148 52.765166 
L 557.28 52.765166 
" clip-path="url(#pf5e2070f4a)" style="fill: none; stroke: #cccccc; stroke-width: 0.25; stroke-linecap: round"/>
     </g>
     <g id="line2d_60">
      <g>
       <use xlink:href="#m13fbb6ee70" x="68.32148" y="52.765166" style="fill: #262626; stroke: #262626; stroke-width: 1.25"/>
      </g>
     </g>
     <g id="text_30">
      <!-- $\mathdefault{3000}$ -->
      <g style="fill: #262626" transform="translate(36.903611 56.570339) scale(0.11 -0.11)">
       <defs>
        <path id="CMR17-33" d="M 1414 2157 
C 1984 2157 2234 1662 2234 1090 
C 2234 320 1824 25 1453 25 
C 1114 25 563 194 390 693 
C 422 680 454 680 486 680 
C 640 680 755 782 755 948 
C 755 1133 614 1216 486 1216 
C 378 1216 211 1165 211 926 
C 211 335 787 -128 1466 -128 
C 2176 -128 2720 430 2720 1085 
C 2720 1707 2208 2157 1600 2227 
C 2086 2328 2554 2756 2554 3329 
C 2554 3820 2048 4179 1472 4179 
C 890 4179 378 3829 378 3329 
C 378 3110 544 3072 627 3072 
C 762 3072 877 3155 877 3321 
C 877 3486 762 3569 627 3569 
C 602 3569 570 3569 544 3557 
C 730 3959 1235 4032 1459 4032 
C 1683 4032 2106 3925 2106 3320 
C 2106 3143 2080 2828 1862 2550 
C 1670 2304 1453 2304 1242 2284 
C 1210 2284 1062 2269 1037 2269 
C 992 2263 966 2257 966 2208 
C 966 2163 973 2157 1101 2157 
L 1414 2157 
z
" transform="scale(0.015625)"/>
       </defs>
       <use xlink:href="#CMR17-33" transform="scale(0.996264)"/>
       <use xlink:href="#CMR17-30" transform="translate(45.690477 0) scale(0.996264)"/>
       <use xlink:href="#CMR17-30" transform="translate(91.380954 0) scale(0.996264)"/>
       <use xlink:href="#CMR17-30" transform="translate(137.071431 0) scale(0.996264)"/>
      </g>
     </g>
    </g>
    <g id="ytick_5">
     <g id="line2d_61">
      <path d="M 68.32148 23.688986 
L 557.28 23.688986 
" clip-path="url(#pf5e2070f4a)" style="fill: none; stroke: #cccccc; stroke-width: 0.25; stroke-linecap: round"/>
     </g>
     <g id="line2d_62">
      <g>
       <use xlink:href="#m13fbb6ee70" x="68.32148" y="23.688986" style="fill: #262626; stroke: #262626; stroke-width: 1.25"/>
      </g>
     </g>
     <g id="text_31">
      <!-- $\mathdefault{4000}$ -->
      <g style="fill: #262626" transform="translate(36.903611 27.494159) scale(0.11 -0.11)">
       <defs>
        <path id="CMR17-34" d="M 2150 4122 
C 2150 4256 2144 4256 2029 4256 
L 128 1254 
L 128 1088 
L 1779 1088 
L 1779 457 
C 1779 224 1766 160 1318 160 
L 1197 160 
L 1197 0 
C 1402 0 1747 0 1965 0 
C 2182 0 2528 0 2733 0 
L 2733 160 
L 2611 160 
C 2163 160 2150 224 2150 457 
L 2150 1088 
L 2803 1088 
L 2803 1254 
L 2150 1254 
L 2150 4122 
z
M 1798 3703 
L 1798 1254 
L 256 1254 
L 1798 3703 
z
" transform="scale(0.015625)"/>
       </defs>
       <use xlink:href="#CMR17-34" transform="scale(0.996264)"/>
       <use xlink:href="#CMR17-30" transform="translate(45.690477 0) scale(0.996264)"/>
       <use xlink:href="#CMR17-30" transform="translate(91.380954 0) scale(0.996264)"/>
       <use xlink:href="#CMR17-30" transform="translate(137.071431 0) scale(0.996264)"/>
      </g>
     </g>
    </g>
    <g id="text_32">
     <!-- Wall-clock time (ms) -->
     <g style="fill: #262626" transform="translate(16.166376 124.988933) rotate(-90) scale(0.12 -0.12)">
      <defs>
       <path id="CMSS17-2d" d="M 1664 1216 
L 1664 1585 
L 64 1585 
L 64 1216 
L 1664 1216 
z
" transform="scale(0.015625)"/>
       <path id="CMSS17-28" d="M 1613 4768 
C 1267 4417 474 3601 474 1588 
C 474 -433 1267 -1243 1613 -1600 
L 2003 -1600 
C 1216 -784 960 357 960 1581 
C 960 2798 1203 3946 2003 4768 
L 1613 4768 
z
" transform="scale(0.015625)"/>
       <path id="CMSS17-29" d="M 723 -1600 
C 1069 -1249 1862 -433 1862 1581 
C 1862 3601 1069 4411 723 4768 
L 333 4768 
C 1120 3952 1376 2811 1376 1588 
C 1376 370 1133 -778 333 -1600 
L 723 -1600 
z
" transform="scale(0.015625)"/>
      </defs>
      <use xlink:href="#CMSS17-57" transform="scale(0.996264)"/>
      <use xlink:href="#CMSS17-61" transform="translate(85.639712 0) scale(0.996264)"/>
      <use xlink:href="#CMSS17-6c" transform="translate(130.561633 0) scale(0.996264)"/>
      <use xlink:href="#CMSS17-6c" transform="translate(152.742356 0) scale(0.996264)"/>
      <use xlink:href="#CMSS17-2d" transform="translate(174.923079 0) scale(0.996264)"/>
      <use xlink:href="#CMSS17-63" transform="translate(206.152192 0) scale(0.996264)"/>
      <use xlink:href="#CMSS17-6c" transform="translate(247.791014 0) scale(0.996264)"/>
      <use xlink:href="#CMSS17-6f" transform="translate(269.971737 0) scale(0.996264)"/>
      <use xlink:href="#CMSS17-63" transform="translate(319.417799 0) scale(0.996264)"/>
      <use xlink:href="#CMSS17-6b" transform="translate(361.056621 0) scale(0.996264)"/>
      <use xlink:href="#CMSS17-74" transform="translate(437.888223 0) scale(0.996264)"/>
      <use xlink:href="#CMSS17-69" transform="translate(471.71979 0) scale(0.996264)"/>
      <use xlink:href="#CMSS17-6d" transform="translate(493.900513 0) scale(0.996264)"/>
      <use xlink:href="#CMSS17-65" transform="translate(568.129767 0) scale(0.996264)"/>
      <use xlink:href="#CMSS17-28" transform="translate(640.997702 0) scale(0.996264)"/>
      <use xlink:href="#CMSS17-6d" transform="translate(677.431616 0) scale(0.996264)"/>
      <use xlink:href="#CMSS17-73" transform="translate(751.660871 0) scale(0.996264)"/>
      <use xlink:href="#CMSS17-29" transform="translate(787.574413 0) scale(0.996264)"/>
     </g>
     <!-- (lower is better) -->
     <g style="fill: #262626" transform="translate(29.914819 112.802158) rotate(-90) scale(0.12 -0.12)">
      <use xlink:href="#CMSS17-28" transform="scale(0.996264)"/>
      <use xlink:href="#CMSS17-6c" transform="translate(36.433914 0) scale(0.996264)"/>
      <use xlink:href="#CMSS17-6f" transform="translate(58.614637 0) scale(0.996264)"/>
      <use xlink:href="#CMSS17-77" transform="translate(102.855807 0) scale(0.996264)"/>
      <use xlink:href="#CMSS17-65" transform="translate(164.072898 0) scale(0.996264)"/>
      <use xlink:href="#CMSS17-72" transform="translate(205.71172 0) scale(0.996264)"/>
      <use xlink:href="#CMSS17-69" transform="translate(268.850605 0) scale(0.996264)"/>
      <use xlink:href="#CMSS17-73" transform="translate(291.031328 0) scale(0.996264)"/>
      <use xlink:href="#CMSS17-62" transform="translate(358.173983 0) scale(0.996264)"/>
      <use xlink:href="#CMSS17-65" transform="translate(408.981365 0) scale(0.996264)"/>
      <use xlink:href="#CMSS17-74" transform="translate(450.620187 0) scale(0.996264)"/>
      <use xlink:href="#CMSS17-74" transform="translate(484.451754 0) scale(0.996264)"/>
      <use xlink:href="#CMSS17-65" transform="translate(518.28332 0) scale(0.996264)"/>
      <use xlink:href="#CMSS17-72" transform="translate(559.922143 0) scale(0.996264)"/>
      <use xlink:href="#CMSS17-29" transform="translate(591.831915 0) scale(0.996264)"/>
     </g>
    </g>
   </g>
   <g id="patch_3">
    <path d="M 72.969375 139.993706 
L 80.406007 139.993706 
L 80.406007 127.840112 
L 72.969375 127.840112 
z
" clip-path="url(#pf5e2070f4a)" style="fill: #4c72b0; stroke: #ffffff; stroke-linejoin: miter"/>
   </g>
   <g id="patch_4">
    <path d="M 91.560954 139.993706 
L 98.997585 139.993706 
L 98.997585 130.105385 
L 91.560954 130.105385 
z
" clip-path="url(#pf5e2070f4a)" style="fill: #4c72b0; stroke: #ffffff; stroke-linejoin: miter"/>
   </g>
   <g id="patch_5">
    <path d="M 110.152533 139.993706 
L 117.589164 139.993706 
L 117.589164 127.550202 
L 110.152533 127.550202 
z
" clip-path="url(#pf5e2070f4a)" style="fill: #4c72b0; stroke: #ffffff; stroke-linejoin: miter"/>
   </g>
   <g id="patch_6">
    <path d="M 128.744111 139.993706 
L 136.180743 139.993706 
L 136.180743 128.277251 
L 128.744111 128.277251 
z
" clip-path="url(#pf5e2070f4a)" style="fill: #4c72b0; stroke: #ffffff; stroke-linejoin: miter"/>
   </g>
   <g id="patch_7">
    <path d="M 147.33569 139.993706 
L 154.772321 139.993706 
L 154.772321 129.592692 
L 147.33569 129.592692 
z
" clip-path="url(#pf5e2070f4a)" style="fill: #4c72b0; stroke: #ffffff; stroke-linejoin: miter"/>
   </g>
   <g id="patch_8">
    <path d="M 165.927269 139.993706 
L 173.3639 139.993706 
L 173.3639 126.734699 
L 165.927269 126.734699 
z
" clip-path="url(#pf5e2070f4a)" style="fill: #4c72b0; stroke: #ffffff; stroke-linejoin: miter"/>
   </g>
   <g id="patch_9">
    <path d="M 184.518847 139.993706 
L 191.955479 139.993706 
L 191.955479 122.165377 
L 184.518847 122.165377 
z
" clip-path="url(#pf5e2070f4a)" style="fill: #4c72b0; stroke: #ffffff; stroke-linejoin: miter"/>
   </g>
   <g id="patch_10">
    <path d="M 203.110426 139.993706 
L 210.547057 139.993706 
L 210.547057 135.87649 
L 203.110426 135.87649 
z
" clip-path="url(#pf5e2070f4a)" style="fill: #4c72b0; stroke: #ffffff; stroke-linejoin: miter"/>
   </g>
   <g id="patch_11">
    <path d="M 221.702005 139.993706 
L 229.138636 139.993706 
L 229.138636 129.697939 
L 221.702005 129.697939 
z
" clip-path="url(#pf5e2070f4a)" style="fill: #4c72b0; stroke: #ffffff; stroke-linejoin: miter"/>
   </g>
   <g id="patch_12">
    <path d="M 240.293583 139.993706 
L 247.730215 139.993706 
L 247.730215 125.849502 
L 240.293583 125.849502 
z
" clip-path="url(#pf5e2070f4a)" style="fill: #4c72b0; stroke: #ffffff; stroke-linejoin: miter"/>
   </g>
   <g id="patch_13">
    <path d="M 258.885162 139.993706 
L 266.321794 139.993706 
L 266.321794 132.273829 
L 258.885162 132.273829 
z
" clip-path="url(#pf5e2070f4a)" style="fill: #4c72b0; stroke: #ffffff; stroke-linejoin: miter"/>
   </g>
   <g id="patch_14">
    <path d="M 277.476741 139.993706 
L 284.913372 139.993706 
L 284.913372 128.41049 
L 277.476741 128.41049 
z
" clip-path="url(#pf5e2070f4a)" style="fill: #4c72b0; stroke: #ffffff; stroke-linejoin: miter"/>
   </g>
   <g id="patch_15">
    <path d="M 296.068319 139.993706 
L 303.504951 139.993706 
L 303.504951 132.112488 
L 296.068319 132.112488 
z
" clip-path="url(#pf5e2070f4a)" style="fill: #4c72b0; stroke: #ffffff; stroke-linejoin: miter"/>
   </g>
   <g id="patch_16">
    <path d="M 314.659898 139.993706 
L 322.09653 139.993706 
L 322.09653 135.638361 
L 314.659898 135.638361 
z
" clip-path="url(#pf5e2070f4a)" style="fill: #4c72b0; stroke: #ffffff; stroke-linejoin: miter"/>
   </g>
   <g id="patch_17">
    <path d="M 333.251477 139.993706 
L 340.688108 139.993706 
L 340.688108 135.503324 
L 333.251477 135.503324 
z
" clip-path="url(#pf5e2070f4a)" style="fill: #4c72b0; stroke: #ffffff; stroke-linejoin: miter"/>
   </g>
   <g id="patch_18">
    <path d="M 351.843055 139.993706 
L 359.279687 139.993706 
L 359.279687 128.678668 
L 351.843055 128.678668 
z
" clip-path="url(#pf5e2070f4a)" style="fill: #4c72b0; stroke: #ffffff; stroke-linejoin: miter"/>
   </g>
   <g id="patch_19">
    <path d="M 370.434634 139.993706 
L 377.871266 139.993706 
L 377.871266 127.905625 
L 370.434634 127.905625 
z
" clip-path="url(#pf5e2070f4a)" style="fill: #4c72b0; stroke: #ffffff; stroke-linejoin: miter"/>
   </g>
   <g id="patch_20">
    <path d="M 389.026213 139.993706 
L 396.462844 139.993706 
L 396.462844 123.493467 
L 389.026213 123.493467 
z
" clip-path="url(#pf5e2070f4a)" style="fill: #4c72b0; stroke: #ffffff; stroke-linejoin: miter"/>
   </g>
   <g id="patch_21">
    <path d="M 407.617792 139.993706 
L 415.054423 139.993706 
L 415.054423 128.965848 
L 407.617792 128.965848 
z
" clip-path="url(#pf5e2070f4a)" style="fill: #4c72b0; stroke: #ffffff; stroke-linejoin: miter"/>
   </g>
   <g id="patch_22">
    <path d="M 426.20937 139.993706 
L 433.646002 139.993706 
L 433.646002 91.079569 
L 426.20937 91.079569 
z
" clip-path="url(#pf5e2070f4a)" style="fill: #4c72b0; stroke: #ffffff; stroke-linejoin: miter"/>
   </g>
   <g id="patch_23">
    <path d="M 444.800949 139.993706 
L 452.23758 139.993706 
L 452.23758 129.896918 
L 444.800949 129.896918 
z
" clip-path="url(#pf5e2070f4a)" style="fill: #4c72b0; stroke: #ffffff; stroke-linejoin: miter"/>
   </g>
   <g id="patch_24">
    <path d="M 463.392528 139.993706 
L 470.829159 139.993706 
L 470.829159 132.673562 
L 463.392528 132.673562 
z
" clip-path="url(#pf5e2070f4a)" style="fill: #4c72b0; stroke: #ffffff; stroke-linejoin: miter"/>
   </g>
   <g id="patch_25">
    <path d="M 481.984106 139.993706 
L 489.420738 139.993706 
L 489.420738 128.713308 
L 481.984106 128.713308 
z
" clip-path="url(#pf5e2070f4a)" style="fill: #4c72b0; stroke: #ffffff; stroke-linejoin: miter"/>
   </g>
   <g id="patch_26">
    <path d="M 500.575685 139.993706 
L 508.012316 139.993706 
L 508.012316 134.953495 
L 500.575685 134.953495 
z
" clip-path="url(#pf5e2070f4a)" style="fill: #4c72b0; stroke: #ffffff; stroke-linejoin: miter"/>
   </g>
   <g id="patch_27">
    <path d="M 519.167264 139.993706 
L 526.603895 139.993706 
L 526.603895 135.910665 
L 519.167264 135.910665 
z
" clip-path="url(#pf5e2070f4a)" style="fill: #4c72b0; stroke: #ffffff; stroke-linejoin: miter"/>
   </g>
   <g id="patch_28">
    <path d="M 537.758842 139.993706 
L 545.195474 139.993706 
L 545.195474 129.815938 
L 537.758842 129.815938 
z
" clip-path="url(#pf5e2070f4a)" style="fill: #4c72b0; stroke: #ffffff; stroke-linejoin: miter"/>
   </g>
   <g id="patch_29">
    <path d="M 80.406007 139.993706 
L 87.842638 139.993706 
L 87.842638 108.424708 
L 80.406007 108.424708 
z
" clip-path="url(#pf5e2070f4a)" style="fill: #dd8452; stroke: #ffffff; stroke-linejoin: miter"/>
   </g>
   <g id="patch_30">
    <path d="M 98.997585 139.993706 
L 106.434217 139.993706 
L 106.434217 112.211211 
L 98.997585 112.211211 
z
" clip-path="url(#pf5e2070f4a)" style="fill: #dd8452; stroke: #ffffff; stroke-linejoin: miter"/>
   </g>
   <g id="patch_31">
    <path d="M 117.589164 139.993706 
L 125.025795 139.993706 
L 125.025795 76.333403 
L 117.589164 76.333403 
z
" clip-path="url(#pf5e2070f4a)" style="fill: #dd8452; stroke: #ffffff; stroke-linejoin: miter"/>
   </g>
   <g id="patch_32">
    <path d="M 136.180743 139.993706 
L 143.617374 139.993706 
L 143.617374 92.812178 
L 136.180743 92.812178 
z
" clip-path="url(#pf5e2070f4a)" style="fill: #dd8452; stroke: #ffffff; stroke-linejoin: miter"/>
   </g>
   <g id="patch_33">
    <path d="M 154.772321 139.993706 
L 162.208953 139.993706 
L 162.208953 112.097309 
L 154.772321 112.097309 
z
" clip-path="url(#pf5e2070f4a)" style="fill: #dd8452; stroke: #ffffff; stroke-linejoin: miter"/>
   </g>
   <g id="patch_34">
    <path d="M 173.3639 139.993706 
L 180.800532 139.993706 
L 180.800532 93.69874 
L 173.3639 93.69874 
z
" clip-path="url(#pf5e2070f4a)" style="fill: #dd8452; stroke: #ffffff; stroke-linejoin: miter"/>
   </g>
   <g id="patch_35">
    <path d="M 191.955479 139.993706 
L 199.39211 139.993706 
L 199.39211 108.848033 
L 191.955479 108.848033 
z
" clip-path="url(#pf5e2070f4a)" style="fill: #dd8452; stroke: #ffffff; stroke-linejoin: miter"/>
   </g>
   <g id="patch_36">
    <path d="M 210.547057 139.993706 
L 217.983689 139.993706 
L 217.983689 125.374676 
L 210.547057 125.374676 
z
" clip-path="url(#pf5e2070f4a)" style="fill: #dd8452; stroke: #ffffff; stroke-linejoin: miter"/>
   </g>
   <g id="patch_37">
    <path d="M 229.138636 139.993706 
L 236.575268 139.993706 
L 236.575268 103.31362 
L 229.138636 103.31362 
z
" clip-path="url(#pf5e2070f4a)" style="fill: #dd8452; stroke: #ffffff; stroke-linejoin: miter"/>
   </g>
   <g id="patch_38">
    <path d="M 247.730215 139.993706 
L 255.166846 139.993706 
L 255.166846 85.461711 
L 247.730215 85.461711 
z
" clip-path="url(#pf5e2070f4a)" style="fill: #dd8452; stroke: #ffffff; stroke-linejoin: miter"/>
   </g>
   <g id="patch_39">
    <path d="M 266.321794 139.993706 
L 273.758425 139.993706 
L 273.758425 113.394167 
L 266.321794 113.394167 
z
" clip-path="url(#pf5e2070f4a)" style="fill: #dd8452; stroke: #ffffff; stroke-linejoin: miter"/>
   </g>
   <g id="patch_40">
    <path d="M 284.913372 139.993706 
L 292.350004 139.993706 
L 292.350004 108.935708 
L 284.913372 108.935708 
z
" clip-path="url(#pf5e2070f4a)" style="fill: #dd8452; stroke: #ffffff; stroke-linejoin: miter"/>
   </g>
   <g id="patch_41">
    <path d="M 303.504951 139.993706 
L 310.941582 139.993706 
L 310.941582 116.948131 
L 303.504951 116.948131 
z
" clip-path="url(#pf5e2070f4a)" style="fill: #dd8452; stroke: #ffffff; stroke-linejoin: miter"/>
   </g>
   <g id="patch_42">
    <path d="M 322.09653 139.993706 
L 329.533161 139.993706 
L 329.533161 128.305544 
L 322.09653 128.305544 
z
" clip-path="url(#pf5e2070f4a)" style="fill: #dd8452; stroke: #ffffff; stroke-linejoin: miter"/>
   </g>
   <g id="patch_43">
    <path d="M 340.688108 139.993706 
L 348.12474 139.993706 
L 348.12474 123.188606 
L 340.688108 123.188606 
z
" clip-path="url(#pf5e2070f4a)" style="fill: #dd8452; stroke: #ffffff; stroke-linejoin: miter"/>
   </g>
   <g id="patch_44">
    <path d="M 359.279687 139.993706 
L 366.716318 139.993706 
L 366.716318 112.319981 
L 359.279687 112.319981 
z
" clip-path="url(#pf5e2070f4a)" style="fill: #dd8452; stroke: #ffffff; stroke-linejoin: miter"/>
   </g>
   <g id="patch_45">
    <path d="M 377.871266 139.993706 
L 385.307897 139.993706 
L 385.307897 108.538168 
L 377.871266 108.538168 
z
" clip-path="url(#pf5e2070f4a)" style="fill: #dd8452; stroke: #ffffff; stroke-linejoin: miter"/>
   </g>
   <g id="patch_46">
    <path d="M 396.462844 139.993706 
L 403.899476 139.993706 
L 403.899476 97.992232 
L 396.462844 97.992232 
z
" clip-path="url(#pf5e2070f4a)" style="fill: #dd8452; stroke: #ffffff; stroke-linejoin: miter"/>
   </g>
   <g id="patch_47">
    <path d="M 415.054423 139.993706 
L 422.491055 139.993706 
L 422.491055 102.989351 
L 415.054423 102.989351 
z
" clip-path="url(#pf5e2070f4a)" style="fill: #dd8452; stroke: #ffffff; stroke-linejoin: miter"/>
   </g>
   <g id="patch_48">
    <path d="M 433.646002 139.993706 
L 441.082633 139.993706 
L 441.082633 14.209225 
L 433.646002 14.209225 
z
" clip-path="url(#pf5e2070f4a)" style="fill: #dd8452; stroke: #ffffff; stroke-linejoin: miter"/>
   </g>
   <g id="patch_49">
    <path d="M 452.23758 139.993706 
L 459.674212 139.993706 
L 459.674212 109.926396 
L 452.23758 109.926396 
z
" clip-path="url(#pf5e2070f4a)" style="fill: #dd8452; stroke: #ffffff; stroke-linejoin: miter"/>
   </g>
   <g id="patch_50">
    <path d="M 470.829159 139.993706 
L 478.265791 139.993706 
L 478.265791 111.187597 
L 470.829159 111.187597 
z
" clip-path="url(#pf5e2070f4a)" style="fill: #dd8452; stroke: #ffffff; stroke-linejoin: miter"/>
   </g>
   <g id="patch_51">
    <path d="M 489.420738 139.993706 
L 496.857369 139.993706 
L 496.857369 107.539258 
L 489.420738 107.539258 
z
" clip-path="url(#pf5e2070f4a)" style="fill: #dd8452; stroke: #ffffff; stroke-linejoin: miter"/>
   </g>
   <g id="patch_52">
    <path d="M 508.012316 139.993706 
L 515.448948 139.993706 
L 515.448948 125.02775 
L 508.012316 125.02775 
z
" clip-path="url(#pf5e2070f4a)" style="fill: #dd8452; stroke: #ffffff; stroke-linejoin: miter"/>
   </g>
   <g id="patch_53">
    <path d="M 526.603895 139.993706 
L 534.040527 139.993706 
L 534.040527 125.394836 
L 526.603895 125.394836 
z
" clip-path="url(#pf5e2070f4a)" style="fill: #dd8452; stroke: #ffffff; stroke-linejoin: miter"/>
   </g>
   <g id="patch_54">
    <path d="M 545.195474 139.993706 
L 552.632105 139.993706 
L 552.632105 100.742126 
L 545.195474 100.742126 
z
" clip-path="url(#pf5e2070f4a)" style="fill: #dd8452; stroke: #ffffff; stroke-linejoin: miter"/>
   </g>
   <g id="LineCollection_1">
    <path d="M 76.687691 127.87691 
L 76.687691 127.803313 
" clip-path="url(#pf5e2070f4a)" style="fill: none; stroke: #262626; stroke-width: 1.5"/>
    <path d="M 95.27927 130.128453 
L 95.27927 130.082316 
" clip-path="url(#pf5e2070f4a)" style="fill: none; stroke: #262626; stroke-width: 1.5"/>
    <path d="M 113.870848 127.600042 
L 113.870848 127.500362 
" clip-path="url(#pf5e2070f4a)" style="fill: none; stroke: #262626; stroke-width: 1.5"/>
    <path d="M 132.462427 128.339524 
L 132.462427 128.214978 
" clip-path="url(#pf5e2070f4a)" style="fill: none; stroke: #262626; stroke-width: 1.5"/>
    <path d="M 151.054006 129.616458 
L 151.054006 129.568926 
" clip-path="url(#pf5e2070f4a)" style="fill: none; stroke: #262626; stroke-width: 1.5"/>
    <path d="M 169.645584 126.774093 
L 169.645584 126.695306 
" clip-path="url(#pf5e2070f4a)" style="fill: none; stroke: #262626; stroke-width: 1.5"/>
    <path d="M 188.237163 122.207047 
L 188.237163 122.123707 
" clip-path="url(#pf5e2070f4a)" style="fill: none; stroke: #262626; stroke-width: 1.5"/>
    <path d="M 206.828742 135.905062 
L 206.828742 135.847917 
" clip-path="url(#pf5e2070f4a)" style="fill: none; stroke: #262626; stroke-width: 1.5"/>
    <path d="M 225.42032 129.818416 
L 225.42032 129.577462 
" clip-path="url(#pf5e2070f4a)" style="fill: none; stroke: #262626; stroke-width: 1.5"/>
    <path d="M 244.011899 125.963081 
L 244.011899 125.735923 
" clip-path="url(#pf5e2070f4a)" style="fill: none; stroke: #262626; stroke-width: 1.5"/>
    <path d="M 262.603478 132.326215 
L 262.603478 132.221443 
" clip-path="url(#pf5e2070f4a)" style="fill: none; stroke: #262626; stroke-width: 1.5"/>
    <path d="M 281.195056 128.432488 
L 281.195056 128.388493 
" clip-path="url(#pf5e2070f4a)" style="fill: none; stroke: #262626; stroke-width: 1.5"/>
    <path d="M 299.786635 132.137393 
L 299.786635 132.087583 
" clip-path="url(#pf5e2070f4a)" style="fill: none; stroke: #262626; stroke-width: 1.5"/>
    <path d="M 318.378214 135.701417 
L 318.378214 135.575304 
" clip-path="url(#pf5e2070f4a)" style="fill: none; stroke: #262626; stroke-width: 1.5"/>
    <path d="M 336.969793 135.527443 
L 336.969793 135.479205 
" clip-path="url(#pf5e2070f4a)" style="fill: none; stroke: #262626; stroke-width: 1.5"/>
    <path d="M 355.561371 128.861002 
L 355.561371 128.496334 
" clip-path="url(#pf5e2070f4a)" style="fill: none; stroke: #262626; stroke-width: 1.5"/>
    <path d="M 374.15295 127.92736 
L 374.15295 127.88389 
" clip-path="url(#pf5e2070f4a)" style="fill: none; stroke: #262626; stroke-width: 1.5"/>
    <path d="M 392.744529 123.527693 
L 392.744529 123.459241 
" clip-path="url(#pf5e2070f4a)" style="fill: none; stroke: #262626; stroke-width: 1.5"/>
    <path d="M 411.336107 128.997297 
L 411.336107 128.9344 
" clip-path="url(#pf5e2070f4a)" style="fill: none; stroke: #262626; stroke-width: 1.5"/>
    <path d="M 429.927686 91.220637 
L 429.927686 90.938502 
" clip-path="url(#pf5e2070f4a)" style="fill: none; stroke: #262626; stroke-width: 1.5"/>
    <path d="M 448.519265 129.966788 
L 448.519265 129.827048 
" clip-path="url(#pf5e2070f4a)" style="fill: none; stroke: #262626; stroke-width: 1.5"/>
    <path d="M 467.110843 132.691062 
L 467.110843 132.656062 
" clip-path="url(#pf5e2070f4a)" style="fill: none; stroke: #262626; stroke-width: 1.5"/>
    <path d="M 485.702422 128.741846 
L 485.702422 128.684771 
" clip-path="url(#pf5e2070f4a)" style="fill: none; stroke: #262626; stroke-width: 1.5"/>
    <path d="M 504.294001 134.968416 
L 504.294001 134.938575 
" clip-path="url(#pf5e2070f4a)" style="fill: none; stroke: #262626; stroke-width: 1.5"/>
    <path d="M 522.885579 135.953453 
L 522.885579 135.867877 
" clip-path="url(#pf5e2070f4a)" style="fill: none; stroke: #262626; stroke-width: 1.5"/>
    <path d="M 541.477158 129.854349 
L 541.477158 129.777527 
" clip-path="url(#pf5e2070f4a)" style="fill: none; stroke: #262626; stroke-width: 1.5"/>
   </g>
   <g id="line2d_63">
    <defs>
     <path id="md421a49c0b" d="M 2 0 
L -2 -0 
" style="stroke: #262626"/>
    </defs>
    <g clip-path="url(#pf5e2070f4a)">
     <use xlink:href="#md421a49c0b" x="76.687691" y="127.87691" style="fill: #262626; stroke: #262626"/>
     <use xlink:href="#md421a49c0b" x="95.27927" y="130.128453" style="fill: #262626; stroke: #262626"/>
     <use xlink:href="#md421a49c0b" x="113.870848" y="127.600042" style="fill: #262626; stroke: #262626"/>
     <use xlink:href="#md421a49c0b" x="132.462427" y="128.339524" style="fill: #262626; stroke: #262626"/>
     <use xlink:href="#md421a49c0b" x="151.054006" y="129.616458" style="fill: #262626; stroke: #262626"/>
     <use xlink:href="#md421a49c0b" x="169.645584" y="126.774093" style="fill: #262626; stroke: #262626"/>
     <use xlink:href="#md421a49c0b" x="188.237163" y="122.207047" style="fill: #262626; stroke: #262626"/>
     <use xlink:href="#md421a49c0b" x="206.828742" y="135.905062" style="fill: #262626; stroke: #262626"/>
     <use xlink:href="#md421a49c0b" x="225.42032" y="129.818416" style="fill: #262626; stroke: #262626"/>
     <use xlink:href="#md421a49c0b" x="244.011899" y="125.963081" style="fill: #262626; stroke: #262626"/>
     <use xlink:href="#md421a49c0b" x="262.603478" y="132.326215" style="fill: #262626; stroke: #262626"/>
     <use xlink:href="#md421a49c0b" x="281.195056" y="128.432488" style="fill: #262626; stroke: #262626"/>
     <use xlink:href="#md421a49c0b" x="299.786635" y="132.137393" style="fill: #262626; stroke: #262626"/>
     <use xlink:href="#md421a49c0b" x="318.378214" y="135.701417" style="fill: #262626; stroke: #262626"/>
     <use xlink:href="#md421a49c0b" x="336.969793" y="135.527443" style="fill: #262626; stroke: #262626"/>
     <use xlink:href="#md421a49c0b" x="355.561371" y="128.861002" style="fill: #262626; stroke: #262626"/>
     <use xlink:href="#md421a49c0b" x="374.15295" y="127.92736" style="fill: #262626; stroke: #262626"/>
     <use xlink:href="#md421a49c0b" x="392.744529" y="123.527693" style="fill: #262626; stroke: #262626"/>
     <use xlink:href="#md421a49c0b" x="411.336107" y="128.997297" style="fill: #262626; stroke: #262626"/>
     <use xlink:href="#md421a49c0b" x="429.927686" y="91.220637" style="fill: #262626; stroke: #262626"/>
     <use xlink:href="#md421a49c0b" x="448.519265" y="129.966788" style="fill: #262626; stroke: #262626"/>
     <use xlink:href="#md421a49c0b" x="467.110843" y="132.691062" style="fill: #262626; stroke: #262626"/>
     <use xlink:href="#md421a49c0b" x="485.702422" y="128.741846" style="fill: #262626; stroke: #262626"/>
     <use xlink:href="#md421a49c0b" x="504.294001" y="134.968416" style="fill: #262626; stroke: #262626"/>
     <use xlink:href="#md421a49c0b" x="522.885579" y="135.953453" style="fill: #262626; stroke: #262626"/>
     <use xlink:href="#md421a49c0b" x="541.477158" y="129.854349" style="fill: #262626; stroke: #262626"/>
    </g>
   </g>
   <g id="line2d_64">
    <g clip-path="url(#pf5e2070f4a)">
     <use xlink:href="#md421a49c0b" x="76.687691" y="127.803313" style="fill: #262626; stroke: #262626"/>
     <use xlink:href="#md421a49c0b" x="95.27927" y="130.082316" style="fill: #262626; stroke: #262626"/>
     <use xlink:href="#md421a49c0b" x="113.870848" y="127.500362" style="fill: #262626; stroke: #262626"/>
     <use xlink:href="#md421a49c0b" x="132.462427" y="128.214978" style="fill: #262626; stroke: #262626"/>
     <use xlink:href="#md421a49c0b" x="151.054006" y="129.568926" style="fill: #262626; stroke: #262626"/>
     <use xlink:href="#md421a49c0b" x="169.645584" y="126.695306" style="fill: #262626; stroke: #262626"/>
     <use xlink:href="#md421a49c0b" x="188.237163" y="122.123707" style="fill: #262626; stroke: #262626"/>
     <use xlink:href="#md421a49c0b" x="206.828742" y="135.847917" style="fill: #262626; stroke: #262626"/>
     <use xlink:href="#md421a49c0b" x="225.42032" y="129.577462" style="fill: #262626; stroke: #262626"/>
     <use xlink:href="#md421a49c0b" x="244.011899" y="125.735923" style="fill: #262626; stroke: #262626"/>
     <use xlink:href="#md421a49c0b" x="262.603478" y="132.221443" style="fill: #262626; stroke: #262626"/>
     <use xlink:href="#md421a49c0b" x="281.195056" y="128.388493" style="fill: #262626; stroke: #262626"/>
     <use xlink:href="#md421a49c0b" x="299.786635" y="132.087583" style="fill: #262626; stroke: #262626"/>
     <use xlink:href="#md421a49c0b" x="318.378214" y="135.575304" style="fill: #262626; stroke: #262626"/>
     <use xlink:href="#md421a49c0b" x="336.969793" y="135.479205" style="fill: #262626; stroke: #262626"/>
     <use xlink:href="#md421a49c0b" x="355.561371" y="128.496334" style="fill: #262626; stroke: #262626"/>
     <use xlink:href="#md421a49c0b" x="374.15295" y="127.88389" style="fill: #262626; stroke: #262626"/>
     <use xlink:href="#md421a49c0b" x="392.744529" y="123.459241" style="fill: #262626; stroke: #262626"/>
     <use xlink:href="#md421a49c0b" x="411.336107" y="128.9344" style="fill: #262626; stroke: #262626"/>
     <use xlink:href="#md421a49c0b" x="429.927686" y="90.938502" style="fill: #262626; stroke: #262626"/>
     <use xlink:href="#md421a49c0b" x="448.519265" y="129.827048" style="fill: #262626; stroke: #262626"/>
     <use xlink:href="#md421a49c0b" x="467.110843" y="132.656062" style="fill: #262626; stroke: #262626"/>
     <use xlink:href="#md421a49c0b" x="485.702422" y="128.684771" style="fill: #262626; stroke: #262626"/>
     <use xlink:href="#md421a49c0b" x="504.294001" y="134.938575" style="fill: #262626; stroke: #262626"/>
     <use xlink:href="#md421a49c0b" x="522.885579" y="135.867877" style="fill: #262626; stroke: #262626"/>
     <use xlink:href="#md421a49c0b" x="541.477158" y="129.777527" style="fill: #262626; stroke: #262626"/>
    </g>
   </g>
   <g id="LineCollection_2">
    <path d="M 84.124322 108.656826 
L 84.124322 108.192589 
" clip-path="url(#pf5e2070f4a)" style="fill: none; stroke: #262626; stroke-width: 1.5"/>
    <path d="M 102.715901 112.42207 
L 102.715901 112.000352 
" clip-path="url(#pf5e2070f4a)" style="fill: none; stroke: #262626; stroke-width: 1.5"/>
    <path d="M 121.30748 76.505784 
L 121.30748 76.161023 
" clip-path="url(#pf5e2070f4a)" style="fill: none; stroke: #262626; stroke-width: 1.5"/>
    <path d="M 139.899058 97.631378 
L 139.899058 87.992978 
" clip-path="url(#pf5e2070f4a)" style="fill: none; stroke: #262626; stroke-width: 1.5"/>
    <path d="M 158.490637 112.629133 
L 158.490637 111.565486 
" clip-path="url(#pf5e2070f4a)" style="fill: none; stroke: #262626; stroke-width: 1.5"/>
    <path d="M 177.082216 96.159708 
L 177.082216 91.237772 
" clip-path="url(#pf5e2070f4a)" style="fill: none; stroke: #262626; stroke-width: 1.5"/>
    <path d="M 195.673795 109.677813 
L 195.673795 108.018252 
" clip-path="url(#pf5e2070f4a)" style="fill: none; stroke: #262626; stroke-width: 1.5"/>
    <path d="M 214.265373 125.598806 
L 214.265373 125.150545 
" clip-path="url(#pf5e2070f4a)" style="fill: none; stroke: #262626; stroke-width: 1.5"/>
    <path d="M 232.856952 106.885624 
L 232.856952 99.741617 
" clip-path="url(#pf5e2070f4a)" style="fill: none; stroke: #262626; stroke-width: 1.5"/>
    <path d="M 251.448531 86.63711 
L 251.448531 84.286312 
" clip-path="url(#pf5e2070f4a)" style="fill: none; stroke: #262626; stroke-width: 1.5"/>
    <path d="M 270.040109 114.588341 
L 270.040109 112.199994 
" clip-path="url(#pf5e2070f4a)" style="fill: none; stroke: #262626; stroke-width: 1.5"/>
    <path d="M 288.631688 110.240592 
L 288.631688 107.630824 
" clip-path="url(#pf5e2070f4a)" style="fill: none; stroke: #262626; stroke-width: 1.5"/>
    <path d="M 307.223267 119.169411 
L 307.223267 114.726851 
" clip-path="url(#pf5e2070f4a)" style="fill: none; stroke: #262626; stroke-width: 1.5"/>
    <path d="M 325.814845 128.486652 
L 325.814845 128.124435 
" clip-path="url(#pf5e2070f4a)" style="fill: none; stroke: #262626; stroke-width: 1.5"/>
    <path d="M 344.406424 123.224209 
L 344.406424 123.153003 
" clip-path="url(#pf5e2070f4a)" style="fill: none; stroke: #262626; stroke-width: 1.5"/>
    <path d="M 362.998003 113.358911 
L 362.998003 111.281052 
" clip-path="url(#pf5e2070f4a)" style="fill: none; stroke: #262626; stroke-width: 1.5"/>
    <path d="M 381.589581 108.796994 
L 381.589581 108.279342 
" clip-path="url(#pf5e2070f4a)" style="fill: none; stroke: #262626; stroke-width: 1.5"/>
    <path d="M 400.18116 98.190066 
L 400.18116 97.794399 
" clip-path="url(#pf5e2070f4a)" style="fill: none; stroke: #262626; stroke-width: 1.5"/>
    <path d="M 418.772739 104.929087 
L 418.772739 101.049615 
" clip-path="url(#pf5e2070f4a)" style="fill: none; stroke: #262626; stroke-width: 1.5"/>
    <path d="M 437.364317 14.894939 
L 437.364317 13.52351 
" clip-path="url(#pf5e2070f4a)" style="fill: none; stroke: #262626; stroke-width: 1.5"/>
    <path d="M 455.955896 110.100433 
L 455.955896 109.75236 
" clip-path="url(#pf5e2070f4a)" style="fill: none; stroke: #262626; stroke-width: 1.5"/>
    <path d="M 474.547475 111.302199 
L 474.547475 111.072995 
" clip-path="url(#pf5e2070f4a)" style="fill: none; stroke: #262626; stroke-width: 1.5"/>
    <path d="M 493.139054 108.925736 
L 493.139054 106.152779 
" clip-path="url(#pf5e2070f4a)" style="fill: none; stroke: #262626; stroke-width: 1.5"/>
    <path d="M 511.730632 125.456266 
L 511.730632 124.599235 
" clip-path="url(#pf5e2070f4a)" style="fill: none; stroke: #262626; stroke-width: 1.5"/>
    <path d="M 530.322211 125.624845 
L 530.322211 125.164827 
" clip-path="url(#pf5e2070f4a)" style="fill: none; stroke: #262626; stroke-width: 1.5"/>
    <path d="M 548.91379 104.131343 
L 548.91379 97.352908 
" clip-path="url(#pf5e2070f4a)" style="fill: none; stroke: #262626; stroke-width: 1.5"/>
   </g>
   <g id="line2d_65">
    <g clip-path="url(#pf5e2070f4a)">
     <use xlink:href="#md421a49c0b" x="84.124322" y="108.656826" style="fill: #262626; stroke: #262626"/>
     <use xlink:href="#md421a49c0b" x="102.715901" y="112.42207" style="fill: #262626; stroke: #262626"/>
     <use xlink:href="#md421a49c0b" x="121.30748" y="76.505784" style="fill: #262626; stroke: #262626"/>
     <use xlink:href="#md421a49c0b" x="139.899058" y="97.631378" style="fill: #262626; stroke: #262626"/>
     <use xlink:href="#md421a49c0b" x="158.490637" y="112.629133" style="fill: #262626; stroke: #262626"/>
     <use xlink:href="#md421a49c0b" x="177.082216" y="96.159708" style="fill: #262626; stroke: #262626"/>
     <use xlink:href="#md421a49c0b" x="195.673795" y="109.677813" style="fill: #262626; stroke: #262626"/>
     <use xlink:href="#md421a49c0b" x="214.265373" y="125.598806" style="fill: #262626; stroke: #262626"/>
     <use xlink:href="#md421a49c0b" x="232.856952" y="106.885624" style="fill: #262626; stroke: #262626"/>
     <use xlink:href="#md421a49c0b" x="251.448531" y="86.63711" style="fill: #262626; stroke: #262626"/>
     <use xlink:href="#md421a49c0b" x="270.040109" y="114.588341" style="fill: #262626; stroke: #262626"/>
     <use xlink:href="#md421a49c0b" x="288.631688" y="110.240592" style="fill: #262626; stroke: #262626"/>
     <use xlink:href="#md421a49c0b" x="307.223267" y="119.169411" style="fill: #262626; stroke: #262626"/>
     <use xlink:href="#md421a49c0b" x="325.814845" y="128.486652" style="fill: #262626; stroke: #262626"/>
     <use xlink:href="#md421a49c0b" x="344.406424" y="123.224209" style="fill: #262626; stroke: #262626"/>
     <use xlink:href="#md421a49c0b" x="362.998003" y="113.358911" style="fill: #262626; stroke: #262626"/>
     <use xlink:href="#md421a49c0b" x="381.589581" y="108.796994" style="fill: #262626; stroke: #262626"/>
     <use xlink:href="#md421a49c0b" x="400.18116" y="98.190066" style="fill: #262626; stroke: #262626"/>
     <use xlink:href="#md421a49c0b" x="418.772739" y="104.929087" style="fill: #262626; stroke: #262626"/>
     <use xlink:href="#md421a49c0b" x="437.364317" y="14.894939" style="fill: #262626; stroke: #262626"/>
     <use xlink:href="#md421a49c0b" x="455.955896" y="110.100433" style="fill: #262626; stroke: #262626"/>
     <use xlink:href="#md421a49c0b" x="474.547475" y="111.302199" style="fill: #262626; stroke: #262626"/>
     <use xlink:href="#md421a49c0b" x="493.139054" y="108.925736" style="fill: #262626; stroke: #262626"/>
     <use xlink:href="#md421a49c0b" x="511.730632" y="125.456266" style="fill: #262626; stroke: #262626"/>
     <use xlink:href="#md421a49c0b" x="530.322211" y="125.624845" style="fill: #262626; stroke: #262626"/>
     <use xlink:href="#md421a49c0b" x="548.91379" y="104.131343" style="fill: #262626; stroke: #262626"/>
    </g>
   </g>
   <g id="line2d_66">
    <g clip-path="url(#pf5e2070f4a)">
     <use xlink:href="#md421a49c0b" x="84.124322" y="108.192589" style="fill: #262626; stroke: #262626"/>
     <use xlink:href="#md421a49c0b" x="102.715901" y="112.000352" style="fill: #262626; stroke: #262626"/>
     <use xlink:href="#md421a49c0b" x="121.30748" y="76.161023" style="fill: #262626; stroke: #262626"/>
     <use xlink:href="#md421a49c0b" x="139.899058" y="87.992978" style="fill: #262626; stroke: #262626"/>
     <use xlink:href="#md421a49c0b" x="158.490637" y="111.565486" style="fill: #262626; stroke: #262626"/>
     <use xlink:href="#md421a49c0b" x="177.082216" y="91.237772" style="fill: #262626; stroke: #262626"/>
     <use xlink:href="#md421a49c0b" x="195.673795" y="108.018252" style="fill: #262626; stroke: #262626"/>
     <use xlink:href="#md421a49c0b" x="214.265373" y="125.150545" style="fill: #262626; stroke: #262626"/>
     <use xlink:href="#md421a49c0b" x="232.856952" y="99.741617" style="fill: #262626; stroke: #262626"/>
     <use xlink:href="#md421a49c0b" x="251.448531" y="84.286312" style="fill: #262626; stroke: #262626"/>
     <use xlink:href="#md421a49c0b" x="270.040109" y="112.199994" style="fill: #262626; stroke: #262626"/>
     <use xlink:href="#md421a49c0b" x="288.631688" y="107.630824" style="fill: #262626; stroke: #262626"/>
     <use xlink:href="#md421a49c0b" x="307.223267" y="114.726851" style="fill: #262626; stroke: #262626"/>
     <use xlink:href="#md421a49c0b" x="325.814845" y="128.124435" style="fill: #262626; stroke: #262626"/>
     <use xlink:href="#md421a49c0b" x="344.406424" y="123.153003" style="fill: #262626; stroke: #262626"/>
     <use xlink:href="#md421a49c0b" x="362.998003" y="111.281052" style="fill: #262626; stroke: #262626"/>
     <use xlink:href="#md421a49c0b" x="381.589581" y="108.279342" style="fill: #262626; stroke: #262626"/>
     <use xlink:href="#md421a49c0b" x="400.18116" y="97.794399" style="fill: #262626; stroke: #262626"/>
     <use xlink:href="#md421a49c0b" x="418.772739" y="101.049615" style="fill: #262626; stroke: #262626"/>
     <use xlink:href="#md421a49c0b" x="437.364317" y="13.52351" style="fill: #262626; stroke: #262626"/>
     <use xlink:href="#md421a49c0b" x="455.955896" y="109.75236" style="fill: #262626; stroke: #262626"/>
     <use xlink:href="#md421a49c0b" x="474.547475" y="111.072995" style="fill: #262626; stroke: #262626"/>
     <use xlink:href="#md421a49c0b" x="493.139054" y="106.152779" style="fill: #262626; stroke: #262626"/>
     <use xlink:href="#md421a49c0b" x="511.730632" y="124.599235" style="fill: #262626; stroke: #262626"/>
     <use xlink:href="#md421a49c0b" x="530.322211" y="125.164827" style="fill: #262626; stroke: #262626"/>
     <use xlink:href="#md421a49c0b" x="548.91379" y="97.352908" style="fill: #262626; stroke: #262626"/>
    </g>
   </g>
   <g id="patch_55">
    <path d="M 68.32148 139.993706 
L 68.32148 7.2 
" style="fill: none; stroke: #cccccc; stroke-width: 1.25; stroke-linejoin: miter; stroke-linecap: square"/>
   </g>
   <g id="patch_56">
    <path d="M 68.32148 139.993706 
L 557.28 139.993706 
" style="fill: none; stroke: #cccccc; stroke-width: 1.25; stroke-linejoin: miter; stroke-linecap: square"/>
   </g>
   <g id="legend_1">
    <g id="patch_57">
     <path d="M 484.638701 46.661789 
L 549.58 46.661789 
Q 551.78 46.661789 551.78 44.461789 
L 551.78 14.9 
Q 551.78 12.7 549.58 12.7 
L 484.638701 12.7 
Q 482.438701 12.7 482.438701 14.9 
L 482.438701 44.461789 
Q 482.438701 46.661789 484.638701 46.661789 
z
" style="fill: #ffffff; opacity: 0.8; stroke: #cccccc; stroke-linejoin: miter"/>
    </g>
    <g id="patch_58">
     <path d="M 486.838701 24.8 
L 508.838701 24.8 
L 508.838701 17.1 
L 486.838701 17.1 
z
" style="fill: #4c72b0; stroke: #ffffff; stroke-linejoin: miter"/>
    </g>
    <g id="text_33">
     <!-- Elision -->
     <g style="fill: #262626" transform="translate(517.638701 24.8) scale(0.11 -0.11)">
      <defs>
       <path id="CMSS17-45" d="M 1958 433 
C 1446 433 1216 433 1101 433 
L 1101 2107 
L 3085 2107 
L 3085 2496 
L 1101 2496 
L 1101 4009 
L 1926 4009 
C 2003 4009 2080 4009 2157 4009 
L 3251 4009 
L 3251 4416 
L 563 4416 
L 563 0 
L 3334 0 
L 3334 433 
L 1958 433 
z
" transform="scale(0.015625)"/>
      </defs>
      <use xlink:href="#CMSS17-45" transform="scale(0.996264)"/>
      <use xlink:href="#CMSS17-6c" transform="translate(55.892013 0) scale(0.996264)"/>
      <use xlink:href="#CMSS17-69" transform="translate(78.072736 0) scale(0.996264)"/>
      <use xlink:href="#CMSS17-73" transform="translate(100.253459 0) scale(0.996264)"/>
      <use xlink:href="#CMSS17-69" transform="translate(136.167001 0) scale(0.996264)"/>
      <use xlink:href="#CMSS17-6f" transform="translate(158.347724 0) scale(0.996264)"/>
      <use xlink:href="#CMSS17-6e" transform="translate(205.191348 0) scale(0.996264)"/>
     </g>
    </g>
    <g id="patch_59">
     <path d="M 486.838701 40.130895 
L 508.838701 40.130895 
L 508.838701 32.430895 
L 486.838701 32.430895 
z
" style="fill: #dd8452; stroke: #ffffff; stroke-linejoin: miter"/>
    </g>
    <g id="text_34">
     <!-- Naive -->
     <g style="fill: #262626" transform="translate(517.638701 40.130895) scale(0.11 -0.11)">
      <use xlink:href="#CMSS17-4e" transform="scale(0.996264)"/>
      <use xlink:href="#CMSS17-61" transform="translate(66.061519 0) scale(0.996264)"/>
      <use xlink:href="#CMSS17-69" transform="translate(110.98344 0) scale(0.996264)"/>
      <use xlink:href="#CMSS17-76" transform="translate(133.164163 0) scale(0.996264)"/>
      <use xlink:href="#CMSS17-65" transform="translate(176.164305 0) scale(0.996264)"/>
     </g>
    </g>
   </g>
  </g>
 </g>
 <defs>
  <clipPath id="pf5e2070f4a">
   <rect x="68.32148" y="7.2" width="488.95852" height="132.793706"/>
  </clipPath>
 </defs>
</svg>
