<?xml version="1.0" encoding="utf-8" standalone="no"?>
<!DOCTYPE svg PUBLIC "-//W3C//DTD SVG 1.1//EN"
  "http://www.w3.org/Graphics/SVG/1.1/DTD/svg11.dtd">
<svg xmlns:xlink="http://www.w3.org/1999/xlink" width="564.48pt" height="204.48pt" viewBox="0 0 564.48 204.48" xmlns="http://www.w3.org/2000/svg" version="1.1">
 <metadata>
  <rdf:RDF xmlns:dc="http://purl.org/dc/elements/1.1/" xmlns:cc="http://creativecommons.org/ns#" xmlns:rdf="http://www.w3.org/1999/02/22-rdf-syntax-ns#">
   <cc:Work>
    <dc:type rdf:resource="http://purl.org/dc/dcmitype/StillImage"/>
    <dc:date>2024-10-15T09:49:02.643661</dc:date>
    <dc:format>image/svg+xml</dc:format>
    <dc:creator>
     <cc:Agent>
      <dc:title>Matplotlib v3.9.2, https://matplotlib.org/</dc:title>
     </cc:Agent>
    </dc:creator>
   </cc:Work>
  </rdf:RDF>
 </metadata>
 <defs>
  <style type="text/css">*{stroke-linejoin: round; stroke-linecap: butt}</style>
 </defs>
 <g id="figure_1">
  <g id="patch_1">
   <path d="M 0 204.48 
L 564.48 204.48 
L 564.48 0 
L 0 0 
z
" style="fill: #ffffff"/>
  </g>
  <g id="axes_1">
   <g id="patch_2">
    <path d="M 62.842013 139.993706 
L 557.28 139.993706 
L 557.28 7.2 
L 62.842013 7.2 
z
" style="fill: #ffffff"/>
   </g>
   <g id="matplotlib.axis_1">
    <g id="xtick_1">
     <g id="line2d_1">
      <path d="M 75.061963 139.993706 
L 75.061963 7.2 
" clip-path="url(#p09745af7a0)" style="fill: none; stroke: #cccccc; stroke-width: 0.25; stroke-linecap: round"/>
     </g>
     <g id="line2d_2">
      <defs>
       <path id="ma39d665ac9" d="M 0 0 
L 0 6 
" style="stroke: #262626; stroke-width: 1.25"/>
      </defs>
      <g>
       <use xlink:href="#ma39d665ac9" x="75.061963" y="139.993706" style="fill: #262626; stroke: #262626; stroke-width: 1.25"/>
      </g>
     </g>
     <g id="text_1">
      <!-- Bounce -->
      <g style="fill: #262626" transform="translate(49.618969 178.811258) rotate(-45) scale(0.11 -0.11)">
       <defs>
        <path id="CMSS17-42" d="M 570 4416 
L 570 0 
L 2163 0 
C 3034 0 3667 574 3667 1200 
C 3667 1685 3251 2176 2502 2317 
C 3334 2558 3501 3040 3501 3313 
C 3501 3883 2874 4416 1997 4416 
L 570 4416 
z
M 1088 2496 
L 1088 4059 
L 1824 4059 
C 2483 4059 3002 3724 3002 3306 
C 3002 2926 2592 2496 1766 2496 
L 1088 2496 
z
M 1088 357 
L 1088 2107 
L 1939 2107 
C 2630 2107 3162 1679 3162 1206 
C 3162 772 2694 357 1984 357 
L 1088 357 
z
" transform="scale(0.015625)"/>
        <path id="CMSS17-6f" d="M 2829 1356 
C 2829 2176 2221 2816 1504 2816 
C 768 2816 173 2157 173 1356 
C 173 544 787 -64 1498 -64 
C 2227 -64 2829 563 2829 1356 
z
M 1504 337 
C 1050 337 659 709 659 1408 
C 659 2151 1114 2427 1498 2427 
C 1914 2427 2342 2126 2342 1408 
C 2342 683 1926 337 1504 337 
z
" transform="scale(0.015625)"/>
        <path id="CMSS17-75" d="M 2618 2739 
L 2131 2739 
L 2131 972 
C 2131 498 1786 306 1421 306 
C 998 306 960 447 960 709 
L 960 2739 
L 474 2739 
L 474 678 
C 474 179 646 -64 1088 -64 
C 1306 -64 1798 -13 2144 306 
L 2144 0 
L 2618 0 
L 2618 2739 
z
" transform="scale(0.015625)"/>
        <path id="CMSS17-6e" d="M 2618 1877 
C 2618 2283 2522 2816 1798 2816 
C 1389 2816 1120 2606 941 2389 
L 941 2758 
L 474 2758 
L 474 0 
L 960 0 
L 960 1559 
C 960 1964 1114 2428 1549 2428 
C 2112 2428 2131 2048 2131 1829 
L 2131 0 
L 2618 0 
L 2618 1877 
z
" transform="scale(0.015625)"/>
        <path id="CMSS17-63" d="M 2464 2541 
C 2464 2585 2170 2714 2093 2739 
C 1882 2816 1613 2816 1542 2816 
C 710 2816 211 2093 211 1363 
C 211 595 768 -64 1517 -64 
C 1946 -64 2253 76 2502 242 
L 2464 664 
C 2189 453 1869 337 1523 337 
C 1024 337 698 774 698 1369 
C 698 1831 909 2414 1549 2414 
C 1901 2414 2099 2343 2394 2145 
L 2464 2541 
z
" transform="scale(0.015625)"/>
        <path id="CMSS17-65" d="M 2502 1377 
C 2502 1590 2490 2003 2285 2345 
C 2061 2713 1696 2816 1421 2816 
C 755 2816 192 2188 192 1375 
C 192 582 774 -64 1510 -64 
C 1798 -64 2150 19 2470 248 
C 2470 274 2458 414 2451 420 
C 2451 433 2432 630 2432 656 
C 2125 407 1773 325 1517 325 
C 1107 325 666 667 646 1377 
L 2502 1377 
z
M 698 1728 
C 781 2084 1062 2421 1421 2421 
C 1517 2421 1965 2421 2080 1728 
L 698 1728 
z
" transform="scale(0.015625)"/>
       </defs>
       <use xlink:href="#CMSS17-42" transform="scale(0.996264)"/>
       <use xlink:href="#CMSS17-6f" transform="translate(62.33804 0) scale(0.996264)"/>
       <use xlink:href="#CMSS17-75" transform="translate(109.181664 0) scale(0.996264)"/>
       <use xlink:href="#CMSS17-6e" transform="translate(157.386607 0) scale(0.996264)"/>
       <use xlink:href="#CMSS17-63" transform="translate(205.59155 0) scale(0.996264)"/>
       <use xlink:href="#CMSS17-65" transform="translate(247.230372 0) scale(0.996264)"/>
      </g>
     </g>
    </g>
    <g id="xtick_2">
     <g id="line2d_3">
      <path d="M 93.861887 139.993706 
L 93.861887 7.2 
" clip-path="url(#p09745af7a0)" style="fill: none; stroke: #cccccc; stroke-width: 0.25; stroke-linecap: round"/>
     </g>
     <g id="line2d_4">
      <g>
       <use xlink:href="#ma39d665ac9" x="93.861887" y="139.993706" style="fill: #262626; stroke: #262626; stroke-width: 1.25"/>
      </g>
     </g>
     <g id="text_2">
      <!-- BubbleSort -->
      <g style="fill: #262626" transform="translate(56.472332 190.757819) rotate(-45) scale(0.11 -0.11)">
       <defs>
        <path id="CMSS17-62" d="M 954 4416 
L 480 4416 
L 480 -13 
L 966 -13 
L 966 274 
C 1210 38 1504 -64 1766 -64 
C 2381 -64 2880 549 2880 1352 
C 2880 2086 2496 2756 1926 2756 
C 1523 2756 1165 2591 954 2419 
L 954 4416 
z
M 966 2046 
C 1107 2222 1306 2368 1587 2368 
C 1965 2368 2394 2097 2394 1352 
C 2394 558 1882 325 1530 325 
C 1402 325 1267 356 1139 464 
C 966 615 966 709 966 797 
L 966 2046 
z
" transform="scale(0.015625)"/>
        <path id="CMSS17-6c" d="M 947 4416 
L 474 4416 
L 474 0 
L 947 0 
L 947 4416 
z
" transform="scale(0.015625)"/>
        <path id="CMSS17-53" d="M 2797 4169 
C 2515 4334 2208 4480 1690 4480 
C 864 4480 333 3879 333 3266 
C 333 3025 403 2753 653 2475 
C 902 2196 1184 2121 1542 2033 
C 1690 1994 1939 1924 1984 1906 
C 2342 1767 2515 1444 2515 1140 
C 2515 742 2202 318 1645 318 
C 1453 318 890 318 358 819 
L 269 318 
C 794 -64 1363 -128 1651 -128 
C 2438 -128 3002 488 3002 1186 
C 3002 1440 2925 1763 2656 2061 
C 2394 2347 2163 2410 1638 2549 
C 1338 2626 1146 2677 986 2873 
C 877 3013 819 3146 819 3317 
C 819 3673 1126 4060 1690 4060 
C 1971 4060 2336 4002 2707 3660 
L 2797 4169 
z
" transform="scale(0.015625)"/>
        <path id="CMSS17-72" d="M 954 1363 
C 954 1965 1395 2368 1958 2368 
L 1958 2789 
C 1549 2789 1165 2585 934 2253 
L 934 2758 
L 480 2758 
L 480 0 
L 954 0 
L 954 1363 
z
" transform="scale(0.015625)"/>
        <path id="CMSS17-74" d="M 1069 2368 
L 1901 2368 
L 1901 2737 
L 1069 2737 
L 1069 3520 
L 614 3520 
L 614 2737 
L 109 2737 
L 109 2368 
L 602 2368 
L 602 749 
C 602 384 685 -64 1107 -64 
C 1427 -64 1722 25 2003 172 
L 1901 548 
C 1747 414 1562 337 1363 337 
C 1082 337 1069 696 1069 856 
L 1069 2368 
z
" transform="scale(0.015625)"/>
       </defs>
       <use xlink:href="#CMSS17-42" transform="scale(0.996264)"/>
       <use xlink:href="#CMSS17-75" transform="translate(62.33804 0) scale(0.996264)"/>
       <use xlink:href="#CMSS17-62" transform="translate(110.542983 0) scale(0.996264)"/>
       <use xlink:href="#CMSS17-62" transform="translate(158.747926 0) scale(0.996264)"/>
       <use xlink:href="#CMSS17-6c" transform="translate(206.95287 0) scale(0.996264)"/>
       <use xlink:href="#CMSS17-65" transform="translate(229.133593 0) scale(0.996264)"/>
       <use xlink:href="#CMSS17-53" transform="translate(270.772415 0) scale(0.996264)"/>
       <use xlink:href="#CMSS17-6f" transform="translate(322.820931 0) scale(0.996264)"/>
       <use xlink:href="#CMSS17-72" transform="translate(367.0621 0) scale(0.996264)"/>
       <use xlink:href="#CMSS17-74" transform="translate(398.971873 0) scale(0.996264)"/>
      </g>
     </g>
    </g>
    <g id="xtick_3">
     <g id="line2d_5">
      <path d="M 112.66181 139.993706 
L 112.66181 7.2 
" clip-path="url(#p09745af7a0)" style="fill: none; stroke: #cccccc; stroke-width: 0.25; stroke-linecap: round"/>
     </g>
     <g id="line2d_6">
      <g>
       <use xlink:href="#ma39d665ac9" x="112.66181" y="139.993706" style="fill: #262626; stroke: #262626; stroke-width: 1.25"/>
      </g>
     </g>
     <g id="text_3">
      <!-- DeltaBlue -->
      <g style="fill: #262626" transform="translate(79.275977 186.754097) rotate(-45) scale(0.11 -0.11)">
       <defs>
        <path id="CMSS17-44" d="M 570 4416 
L 570 0 
L 2144 0 
C 3194 0 4000 980 4000 2170 
C 4000 3398 3194 4416 2144 4416 
L 570 4416 
z
M 1094 357 
L 1094 4059 
L 2003 4059 
C 2861 4059 3475 3277 3475 2170 
C 3475 1107 2867 357 2003 357 
L 1094 357 
z
" transform="scale(0.015625)"/>
        <path id="CMSS17-61" d="M 2406 1791 
C 2406 2392 1978 2808 1402 2808 
C 1120 2808 813 2757 461 2553 
L 499 2135 
C 659 2248 934 2432 1395 2432 
C 1722 2432 1920 2180 1920 1782 
L 1920 1536 
C 896 1536 256 1238 256 726 
C 256 461 416 -64 947 -64 
C 1043 -64 1562 -64 1933 217 
L 1933 -19 
L 2406 -19 
L 2406 1791 
z
M 1920 816 
C 1920 701 1920 548 1728 434 
C 1562 325 1350 325 1261 325 
C 941 325 723 511 723 744 
C 723 1211 1722 1211 1920 1211 
L 1920 816 
z
" transform="scale(0.015625)"/>
       </defs>
       <use xlink:href="#CMSS17-44" transform="scale(0.996264)"/>
       <use xlink:href="#CMSS17-65" transform="translate(67.542842 0) scale(0.996264)"/>
       <use xlink:href="#CMSS17-6c" transform="translate(109.181664 0) scale(0.996264)"/>
       <use xlink:href="#CMSS17-74" transform="translate(131.362387 0) scale(0.996264)"/>
       <use xlink:href="#CMSS17-61" transform="translate(165.193953 0) scale(0.996264)"/>
       <use xlink:href="#CMSS17-42" transform="translate(210.115874 0) scale(0.996264)"/>
       <use xlink:href="#CMSS17-6c" transform="translate(272.453914 0) scale(0.996264)"/>
       <use xlink:href="#CMSS17-75" transform="translate(294.634637 0) scale(0.996264)"/>
       <use xlink:href="#CMSS17-65" transform="translate(342.83958 0) scale(0.996264)"/>
      </g>
     </g>
    </g>
    <g id="xtick_4">
     <g id="line2d_7">
      <path d="M 131.461734 139.993706 
L 131.461734 7.2 
" clip-path="url(#p09745af7a0)" style="fill: none; stroke: #cccccc; stroke-width: 0.25; stroke-linecap: round"/>
     </g>
     <g id="line2d_8">
      <g>
       <use xlink:href="#ma39d665ac9" x="131.461734" y="139.993706" style="fill: #262626; stroke: #262626; stroke-width: 1.25"/>
      </g>
     </g>
     <g id="text_4">
      <!-- Dispatch -->
      <g style="fill: #262626" transform="translate(101.563011 183.266987) rotate(-45) scale(0.11 -0.11)">
       <defs>
        <path id="CMSS17-69" d="M 979 4183 
L 442 4183 
L 442 3648 
L 979 3648 
L 979 4183 
z
M 947 2739 
L 474 2739 
L 474 0 
L 947 0 
L 947 2739 
z
" transform="scale(0.015625)"/>
        <path id="CMSS17-73" d="M 2061 2627 
C 1683 2807 1389 2807 1197 2807 
C 742 2807 198 2648 198 2003 
C 198 1359 902 1218 1094 1179 
C 1389 1122 1715 1058 1715 740 
C 1715 337 1254 337 1171 337 
C 915 337 563 407 243 638 
L 166 210 
C 531 0 883 -64 1178 -64 
C 1965 -64 2163 416 2163 781 
C 2163 1094 1984 1305 1862 1401 
C 1651 1568 1574 1587 1050 1696 
C 960 1709 646 1779 646 2066 
C 646 2432 1050 2432 1139 2432 
C 1555 2432 1811 2303 1984 2208 
L 2061 2627 
z
" transform="scale(0.015625)"/>
        <path id="CMSS17-70" d="M 966 333 
C 1178 129 1466 -5 1773 -5 
C 2368 -5 2880 603 2880 1412 
C 2880 2159 2496 2816 1946 2816 
C 1626 2816 1242 2702 954 2472 
L 954 2765 
L 480 2765 
L 480 -1216 
L 966 -1216 
L 966 333 
z
M 966 2100 
C 1018 2176 1235 2415 1587 2415 
C 2035 2415 2394 1960 2394 1412 
C 2394 787 1958 384 1530 384 
C 1402 384 1267 415 1139 523 
C 966 674 966 768 966 857 
L 966 2100 
z
" transform="scale(0.015625)"/>
        <path id="CMSS17-68" d="M 2618 1891 
C 2618 2292 2522 2820 1798 2820 
C 1395 2820 1133 2623 947 2407 
L 947 4448 
L 474 4448 
L 474 32 
L 960 32 
L 960 1573 
C 960 1973 1114 2432 1549 2432 
C 2112 2432 2131 2056 2131 1839 
L 2131 32 
L 2618 32 
L 2618 1891 
z
" transform="scale(0.015625)"/>
       </defs>
       <use xlink:href="#CMSS17-44" transform="scale(0.996264)"/>
       <use xlink:href="#CMSS17-69" transform="translate(67.542842 0) scale(0.996264)"/>
       <use xlink:href="#CMSS17-73" transform="translate(89.723565 0) scale(0.996264)"/>
       <use xlink:href="#CMSS17-70" transform="translate(125.637107 0) scale(0.996264)"/>
       <use xlink:href="#CMSS17-61" transform="translate(173.84205 0) scale(0.996264)"/>
       <use xlink:href="#CMSS17-74" transform="translate(218.76397 0) scale(0.996264)"/>
       <use xlink:href="#CMSS17-63" transform="translate(252.595537 0) scale(0.996264)"/>
       <use xlink:href="#CMSS17-68" transform="translate(294.234359 0) scale(0.996264)"/>
      </g>
     </g>
    </g>
    <g id="xtick_5">
     <g id="line2d_9">
      <path d="M 150.261657 139.993706 
L 150.261657 7.2 
" clip-path="url(#p09745af7a0)" style="fill: none; stroke: #cccccc; stroke-width: 0.25; stroke-linecap: round"/>
     </g>
     <g id="line2d_10">
      <g>
       <use xlink:href="#ma39d665ac9" x="150.261657" y="139.993706" style="fill: #262626; stroke: #262626; stroke-width: 1.25"/>
      </g>
     </g>
     <g id="text_5">
      <!-- Fannkuch -->
      <g style="fill: #262626" transform="translate(117.586136 186.043785) rotate(-45) scale(0.11 -0.11)">
       <defs>
        <path id="CMSS17-46" d="M 2918 1984 
L 2918 2373 
L 1101 2373 
L 1101 3968 
L 1882 3968 
C 1958 3968 2035 3968 2112 3968 
L 3168 3968 
L 3168 4375 
L 563 4375 
L 563 -32 
L 1101 -32 
L 1101 1984 
L 2918 1984 
z
" transform="scale(0.015625)"/>
        <path id="CMSS17-6b" d="M 1696 1688 
L 2688 2739 
L 2074 2739 
L 954 1554 
L 954 4416 
L 480 4416 
L 480 0 
L 947 0 
L 947 892 
L 1376 1344 
L 2278 0 
L 2822 0 
L 1696 1688 
z
" transform="scale(0.015625)"/>
       </defs>
       <use xlink:href="#CMSS17-46" transform="scale(0.996264)"/>
       <use xlink:href="#CMSS17-61" transform="translate(50.687105 0) scale(0.996264)"/>
       <use xlink:href="#CMSS17-6e" transform="translate(95.609026 0) scale(0.996264)"/>
       <use xlink:href="#CMSS17-6e" transform="translate(143.813969 0) scale(0.996264)"/>
       <use xlink:href="#CMSS17-6b" transform="translate(192.018912 0) scale(0.996264)"/>
       <use xlink:href="#CMSS17-75" transform="translate(237.621401 0) scale(0.996264)"/>
       <use xlink:href="#CMSS17-63" transform="translate(285.826345 0) scale(0.996264)"/>
       <use xlink:href="#CMSS17-68" transform="translate(327.465167 0) scale(0.996264)"/>
      </g>
     </g>
    </g>
    <g id="xtick_6">
     <g id="line2d_11">
      <path d="M 169.061581 139.993706 
L 169.061581 7.2 
" clip-path="url(#p09745af7a0)" style="fill: none; stroke: #cccccc; stroke-width: 0.25; stroke-linecap: round"/>
     </g>
     <g id="line2d_12">
      <g>
       <use xlink:href="#ma39d665ac9" x="169.061581" y="139.993706" style="fill: #262626; stroke: #262626; stroke-width: 1.25"/>
      </g>
     </g>
     <g id="text_6">
      <!-- Fibonacci -->
      <g style="fill: #262626" transform="translate(136.730477 185.699367) rotate(-45) scale(0.11 -0.11)">
       <use xlink:href="#CMSS17-46" transform="scale(0.996264)"/>
       <use xlink:href="#CMSS17-69" transform="translate(53.289559 0) scale(0.996264)"/>
       <use xlink:href="#CMSS17-62" transform="translate(75.470282 0) scale(0.996264)"/>
       <use xlink:href="#CMSS17-6f" transform="translate(126.277664 0) scale(0.996264)"/>
       <use xlink:href="#CMSS17-6e" transform="translate(173.121288 0) scale(0.996264)"/>
       <use xlink:href="#CMSS17-61" transform="translate(221.326231 0) scale(0.996264)"/>
       <use xlink:href="#CMSS17-63" transform="translate(266.248151 0) scale(0.996264)"/>
       <use xlink:href="#CMSS17-63" transform="translate(307.886974 0) scale(0.996264)"/>
       <use xlink:href="#CMSS17-69" transform="translate(349.525796 0) scale(0.996264)"/>
      </g>
     </g>
    </g>
    <g id="xtick_7">
     <g id="line2d_13">
      <path d="M 187.861504 139.993706 
L 187.861504 7.2 
" clip-path="url(#p09745af7a0)" style="fill: none; stroke: #cccccc; stroke-width: 0.25; stroke-linecap: round"/>
     </g>
     <g id="line2d_14">
      <g>
       <use xlink:href="#ma39d665ac9" x="187.861504" y="139.993706" style="fill: #262626; stroke: #262626; stroke-width: 1.25"/>
      </g>
     </g>
     <g id="text_7">
      <!-- FieldLoop -->
      <g style="fill: #262626" transform="translate(154.626332 186.603435) rotate(-45) scale(0.11 -0.11)">
       <defs>
        <path id="CMSS17-64" d="M 2611 4416 
L 2138 4416 
L 2138 2438 
C 1939 2603 1613 2756 1254 2756 
C 672 2756 211 2131 211 1347 
C 211 562 666 -64 1235 -64 
C 1677 -64 1971 172 2125 306 
L 2125 -13 
L 2611 -13 
L 2611 4416 
z
M 2125 836 
C 2125 747 2125 653 1926 482 
C 1798 375 1645 325 1498 325 
C 1152 325 698 576 698 1340 
C 698 2134 1210 2368 1562 2368 
C 1798 2368 1990 2254 2125 2065 
L 2125 836 
z
" transform="scale(0.015625)"/>
        <path id="CMSS17-4c" d="M 1670 414 
C 1594 414 1517 414 1440 414 
L 1101 414 
L 1101 4416 
L 563 4416 
L 563 0 
L 3002 0 
L 3002 414 
L 1670 414 
z
" transform="scale(0.015625)"/>
       </defs>
       <use xlink:href="#CMSS17-46" transform="scale(0.996264)"/>
       <use xlink:href="#CMSS17-69" transform="translate(53.289559 0) scale(0.996264)"/>
       <use xlink:href="#CMSS17-65" transform="translate(75.470282 0) scale(0.996264)"/>
       <use xlink:href="#CMSS17-6c" transform="translate(117.109104 0) scale(0.996264)"/>
       <use xlink:href="#CMSS17-64" transform="translate(139.289827 0) scale(0.996264)"/>
       <use xlink:href="#CMSS17-4c" transform="translate(187.494771 0) scale(0.996264)"/>
       <use xlink:href="#CMSS17-6f" transform="translate(238.181876 0) scale(0.996264)"/>
       <use xlink:href="#CMSS17-6f" transform="translate(287.627938 0) scale(0.996264)"/>
       <use xlink:href="#CMSS17-70" transform="translate(334.471562 0) scale(0.996264)"/>
      </g>
     </g>
    </g>
    <g id="xtick_8">
     <g id="line2d_15">
      <path d="M 206.661428 139.993706 
L 206.661428 7.2 
" clip-path="url(#p09745af7a0)" style="fill: none; stroke: #cccccc; stroke-width: 0.25; stroke-linecap: round"/>
     </g>
     <g id="line2d_16">
      <g>
       <use xlink:href="#ma39d665ac9" x="206.661428" y="139.993706" style="fill: #262626; stroke: #262626; stroke-width: 1.25"/>
      </g>
     </g>
     <g id="text_8">
      <!-- GraphSearch -->
      <g style="fill: #262626" transform="translate(164.256461 195.77323) rotate(-45) scale(0.11 -0.11)">
       <defs>
        <path id="CMSS17-47" d="M 3610 1856 
L 2336 1856 
L 2336 1461 
L 3123 1461 
L 3123 471 
C 2874 401 2618 350 2362 350 
C 1466 350 934 1301 934 2200 
C 934 3095 1491 4032 2362 4032 
C 2854 4032 3130 3881 3469 3627 
L 3552 4134 
C 3130 4351 2867 4440 2387 4440 
C 1146 4440 397 3324 397 2182 
C 397 1090 1152 -64 2349 -64 
C 2797 -64 3213 51 3610 248 
L 3610 1856 
z
" transform="scale(0.015625)"/>
       </defs>
       <use xlink:href="#CMSS17-47" transform="scale(0.996264)"/>
       <use xlink:href="#CMSS17-72" transform="translate(62.458226 0) scale(0.996264)"/>
       <use xlink:href="#CMSS17-61" transform="translate(94.367998 0) scale(0.996264)"/>
       <use xlink:href="#CMSS17-70" transform="translate(139.289919 0) scale(0.996264)"/>
       <use xlink:href="#CMSS17-68" transform="translate(187.494862 0) scale(0.996264)"/>
       <use xlink:href="#CMSS17-53" transform="translate(235.699805 0) scale(0.996264)"/>
       <use xlink:href="#CMSS17-65" transform="translate(287.748321 0) scale(0.996264)"/>
       <use xlink:href="#CMSS17-61" transform="translate(329.387143 0) scale(0.996264)"/>
       <use xlink:href="#CMSS17-72" transform="translate(371.70661 0) scale(0.996264)"/>
       <use xlink:href="#CMSS17-63" transform="translate(403.616382 0) scale(0.996264)"/>
       <use xlink:href="#CMSS17-68" transform="translate(445.255204 0) scale(0.996264)"/>
      </g>
     </g>
    </g>
    <g id="xtick_9">
     <g id="line2d_17">
      <path d="M 225.461351 139.993706 
L 225.461351 7.2 
" clip-path="url(#p09745af7a0)" style="fill: none; stroke: #cccccc; stroke-width: 0.25; stroke-linecap: round"/>
     </g>
     <g id="line2d_18">
      <g>
       <use xlink:href="#ma39d665ac9" x="225.461351" y="139.993706" style="fill: #262626; stroke: #262626; stroke-width: 1.25"/>
      </g>
     </g>
     <g id="text_9">
      <!-- IntegerLoop -->
      <g style="fill: #262626" transform="translate(185.424162 193.405453) rotate(-45) scale(0.11 -0.11)">
       <defs>
        <path id="CMSS17-49" d="M 1094 4416 
L 557 4416 
L 557 0 
L 1094 0 
L 1094 4416 
z
" transform="scale(0.015625)"/>
        <path id="CMSS17-67" d="M 2848 2808 
C 2483 2808 2170 2738 1914 2617 
C 1702 2777 1485 2808 1338 2808 
C 781 2808 358 2349 358 1814 
C 358 1468 550 1207 563 1195 
C 448 1035 384 863 384 672 
C 384 448 474 289 544 200 
C 211 -3 166 -314 166 -435 
C 166 -898 749 -1280 1498 -1280 
C 2253 -1280 2835 -898 2835 -428 
C 2835 448 1856 448 1587 448 
L 1069 448 
C 973 448 717 448 717 791 
C 717 921 774 1004 781 1010 
C 877 940 1075 832 1338 832 
C 1869 832 2310 1278 2310 1827 
C 2310 2132 2170 2355 2112 2432 
L 2131 2432 
C 2150 2432 2419 2432 2515 2432 
C 2720 2432 2739 2429 2918 2419 
L 2848 2808 
z
M 1338 1182 
C 1120 1182 813 1315 813 1823 
C 813 2375 1165 2464 1331 2464 
C 1549 2464 1856 2331 1856 1823 
C 1856 1271 1504 1182 1338 1182 
z
M 1581 -10 
C 1734 -10 2381 -10 2381 -442 
C 2381 -714 1984 -929 1504 -929 
C 1018 -929 621 -720 621 -435 
C 621 -403 621 -10 1062 -10 
L 1581 -10 
z
" transform="scale(0.015625)"/>
       </defs>
       <use xlink:href="#CMSS17-49" transform="scale(0.996264)"/>
       <use xlink:href="#CMSS17-6e" transform="translate(25.783926 0) scale(0.996264)"/>
       <use xlink:href="#CMSS17-74" transform="translate(73.988869 0) scale(0.996264)"/>
       <use xlink:href="#CMSS17-65" transform="translate(107.820435 0) scale(0.996264)"/>
       <use xlink:href="#CMSS17-67" transform="translate(149.459257 0) scale(0.996264)"/>
       <use xlink:href="#CMSS17-65" transform="translate(196.302881 0) scale(0.996264)"/>
       <use xlink:href="#CMSS17-72" transform="translate(237.941703 0) scale(0.996264)"/>
       <use xlink:href="#CMSS17-4c" transform="translate(269.851476 0) scale(0.996264)"/>
       <use xlink:href="#CMSS17-6f" transform="translate(320.538581 0) scale(0.996264)"/>
       <use xlink:href="#CMSS17-6f" transform="translate(369.984643 0) scale(0.996264)"/>
       <use xlink:href="#CMSS17-70" transform="translate(416.828267 0) scale(0.996264)"/>
      </g>
     </g>
    </g>
    <g id="xtick_10">
     <g id="line2d_19">
      <path d="M 244.261275 139.993706 
L 244.261275 7.2 
" clip-path="url(#p09745af7a0)" style="fill: none; stroke: #cccccc; stroke-width: 0.25; stroke-linecap: round"/>
     </g>
     <g id="line2d_20">
      <g>
       <use xlink:href="#ma39d665ac9" x="244.261275" y="139.993706" style="fill: #262626; stroke: #262626; stroke-width: 1.25"/>
      </g>
     </g>
     <g id="text_10">
      <!-- JsonSmall -->
      <g style="fill: #262626" transform="translate(210.35883 187.270708) rotate(-45) scale(0.11 -0.11)">
       <defs>
        <path id="CMSS17-4a" d="M 2336 4384 
L 1811 4384 
L 1811 940 
C 1811 636 1683 261 1107 261 
C 781 261 506 414 333 604 
L 250 140 
C 646 -71 1011 -128 1280 -128 
C 1901 -128 2336 228 2336 920 
L 2336 4384 
z
" transform="scale(0.015625)"/>
        <path id="CMSS17-6d" d="M 4288 1877 
C 4288 2308 4179 2816 3462 2816 
C 2982 2816 2694 2516 2566 2331 
C 2451 2670 2182 2816 1798 2816 
C 1363 2816 1088 2568 941 2389 
L 941 2758 
L 474 2758 
L 474 0 
L 960 0 
L 960 1559 
C 960 1939 1101 2428 1555 2428 
C 2138 2428 2138 2016 2138 1829 
L 2138 0 
L 2624 0 
L 2624 1559 
C 2624 1939 2765 2428 3219 2428 
C 3802 2428 3802 2016 3802 1829 
L 3802 0 
L 4288 0 
L 4288 1877 
z
" transform="scale(0.015625)"/>
       </defs>
       <use xlink:href="#CMSS17-4a" transform="scale(0.996264)"/>
       <use xlink:href="#CMSS17-73" transform="translate(44.121076 0) scale(0.996264)"/>
       <use xlink:href="#CMSS17-6f" transform="translate(80.034617 0) scale(0.996264)"/>
       <use xlink:href="#CMSS17-6e" transform="translate(126.878241 0) scale(0.996264)"/>
       <use xlink:href="#CMSS17-53" transform="translate(175.083184 0) scale(0.996264)"/>
       <use xlink:href="#CMSS17-6d" transform="translate(227.1317 0) scale(0.996264)"/>
       <use xlink:href="#CMSS17-61" transform="translate(301.360955 0) scale(0.996264)"/>
       <use xlink:href="#CMSS17-6c" transform="translate(346.282875 0) scale(0.996264)"/>
       <use xlink:href="#CMSS17-6c" transform="translate(368.463598 0) scale(0.996264)"/>
      </g>
     </g>
    </g>
    <g id="xtick_11">
     <g id="line2d_21">
      <path d="M 263.061198 139.993706 
L 263.061198 7.2 
" clip-path="url(#p09745af7a0)" style="fill: none; stroke: #cccccc; stroke-width: 0.25; stroke-linecap: round"/>
     </g>
     <g id="line2d_22">
      <g>
       <use xlink:href="#ma39d665ac9" x="263.061198" y="139.993706" style="fill: #262626; stroke: #262626; stroke-width: 1.25"/>
      </g>
     </g>
     <g id="text_11">
      <!-- List -->
      <g style="fill: #262626" transform="translate(249.73702 166.692441) rotate(-45) scale(0.11 -0.11)">
       <use xlink:href="#CMSS17-4c" transform="scale(0.996264)"/>
       <use xlink:href="#CMSS17-69" transform="translate(50.687105 0) scale(0.996264)"/>
       <use xlink:href="#CMSS17-73" transform="translate(72.867828 0) scale(0.996264)"/>
       <use xlink:href="#CMSS17-74" transform="translate(108.78137 0) scale(0.996264)"/>
      </g>
     </g>
    </g>
    <g id="xtick_12">
     <g id="line2d_23">
      <path d="M 281.861121 139.993706 
L 281.861121 7.2 
" clip-path="url(#p09745af7a0)" style="fill: none; stroke: #cccccc; stroke-width: 0.25; stroke-linecap: round"/>
     </g>
     <g id="line2d_24">
      <g>
       <use xlink:href="#ma39d665ac9" x="281.861121" y="139.993706" style="fill: #262626; stroke: #262626; stroke-width: 1.25"/>
      </g>
     </g>
     <g id="text_12">
      <!-- Loop -->
      <g style="fill: #262626" transform="translate(264.188794 171.040591) rotate(-45) scale(0.11 -0.11)">
       <use xlink:href="#CMSS17-4c" transform="scale(0.996264)"/>
       <use xlink:href="#CMSS17-6f" transform="translate(50.687105 0) scale(0.996264)"/>
       <use xlink:href="#CMSS17-6f" transform="translate(100.133168 0) scale(0.996264)"/>
       <use xlink:href="#CMSS17-70" transform="translate(146.976791 0) scale(0.996264)"/>
      </g>
     </g>
    </g>
    <g id="xtick_13">
     <g id="line2d_25">
      <path d="M 300.661045 139.993706 
L 300.661045 7.2 
" clip-path="url(#p09745af7a0)" style="fill: none; stroke: #cccccc; stroke-width: 0.25; stroke-linecap: round"/>
     </g>
     <g id="line2d_26">
      <g>
       <use xlink:href="#ma39d665ac9" x="300.661045" y="139.993706" style="fill: #262626; stroke: #262626; stroke-width: 1.25"/>
      </g>
     </g>
     <g id="text_13">
      <!-- Mandelbrot -->
      <g style="fill: #262626" transform="translate(262.238269 191.79104) rotate(-45) scale(0.11 -0.11)">
       <defs>
        <path id="CMSS17-4d" d="M 3194 2371 
L 2886 1473 
C 2835 1307 2662 791 2624 587 
L 2618 587 
C 2598 715 2560 849 2458 1174 
C 2400 1365 2336 1562 2272 1741 
L 1325 4416 
L 576 4416 
L 576 0 
L 1075 0 
L 1075 3900 
L 1082 3900 
C 1082 3894 1139 3613 1530 2499 
L 2374 96 
L 2848 96 
L 3610 2231 
C 3661 2378 3821 2843 3891 3066 
C 3955 3257 4115 3728 4154 3913 
L 4160 3913 
L 4160 0 
L 4666 0 
L 4666 4416 
L 3923 4416 
L 3194 2371 
z
" transform="scale(0.015625)"/>
       </defs>
       <use xlink:href="#CMSS17-4d" transform="scale(0.996264)"/>
       <use xlink:href="#CMSS17-61" transform="translate(81.67603 0) scale(0.996264)"/>
       <use xlink:href="#CMSS17-6e" transform="translate(126.597951 0) scale(0.996264)"/>
       <use xlink:href="#CMSS17-64" transform="translate(174.802894 0) scale(0.996264)"/>
       <use xlink:href="#CMSS17-65" transform="translate(223.007837 0) scale(0.996264)"/>
       <use xlink:href="#CMSS17-6c" transform="translate(264.646659 0) scale(0.996264)"/>
       <use xlink:href="#CMSS17-62" transform="translate(286.827382 0) scale(0.996264)"/>
       <use xlink:href="#CMSS17-72" transform="translate(332.429871 0) scale(0.996264)"/>
       <use xlink:href="#CMSS17-6f" transform="translate(364.339644 0) scale(0.996264)"/>
       <use xlink:href="#CMSS17-74" transform="translate(411.183267 0) scale(0.996264)"/>
      </g>
     </g>
    </g>
    <g id="xtick_14">
     <g id="line2d_27">
      <path d="M 319.460968 139.993706 
L 319.460968 7.2 
" clip-path="url(#p09745af7a0)" style="fill: none; stroke: #cccccc; stroke-width: 0.25; stroke-linecap: round"/>
     </g>
     <g id="line2d_28">
      <g>
       <use xlink:href="#ma39d665ac9" x="319.460968" y="139.993706" style="fill: #262626; stroke: #262626; stroke-width: 1.25"/>
      </g>
     </g>
     <g id="text_14">
      <!-- NBody -->
      <g style="fill: #262626" transform="translate(295.632365 177.196867) rotate(-45) scale(0.11 -0.11)">
       <defs>
        <path id="CMSS17-4e" d="M 1466 4180 
L 1350 4416 
L 563 4416 
L 563 0 
L 1062 0 
L 1062 3926 
L 1069 3932 
C 1114 3817 1139 3760 1402 3194 
L 2771 236 
L 2886 0 
L 3674 0 
L 3674 4416 
L 3174 4416 
L 3174 490 
L 3168 483 
C 3123 598 3098 655 2835 1221 
L 1466 4180 
z
" transform="scale(0.015625)"/>
        <path id="CMSS17-79" d="M 2675 2752 
L 2176 2752 
C 1632 1294 1446 702 1434 383 
L 1427 383 
C 1408 696 1126 1460 902 2007 
L 602 2752 
L 83 2752 
L 1216 13 
C 1146 -178 1043 -465 1011 -529 
C 870 -885 774 -885 672 -885 
C 646 -885 442 -885 211 -809 
L 250 -1229 
C 410 -1261 570 -1280 685 -1280 
C 845 -1280 1165 -1280 1459 -497 
L 2675 2752 
z
" transform="scale(0.015625)"/>
       </defs>
       <use xlink:href="#CMSS17-4e" transform="scale(0.996264)"/>
       <use xlink:href="#CMSS17-42" transform="translate(66.061519 0) scale(0.996264)"/>
       <use xlink:href="#CMSS17-6f" transform="translate(128.399559 0) scale(0.996264)"/>
       <use xlink:href="#CMSS17-64" transform="translate(177.845622 0) scale(0.996264)"/>
       <use xlink:href="#CMSS17-79" transform="translate(226.050565 0) scale(0.996264)"/>
      </g>
     </g>
    </g>
    <g id="xtick_15">
     <g id="line2d_29">
      <path d="M 338.260892 139.993706 
L 338.260892 7.2 
" clip-path="url(#p09745af7a0)" style="fill: none; stroke: #cccccc; stroke-width: 0.25; stroke-linecap: round"/>
     </g>
     <g id="line2d_30">
      <g>
       <use xlink:href="#ma39d665ac9" x="338.260892" y="139.993706" style="fill: #262626; stroke: #262626; stroke-width: 1.25"/>
      </g>
     </g>
     <g id="text_15">
      <!-- PageRank -->
      <g style="fill: #262626" transform="translate(304.455298 187.173857) rotate(-45) scale(0.11 -0.11)">
       <defs>
        <path id="CMSS17-50" d="M 2106 1856 
C 2874 1856 3501 2453 3501 3158 
C 3501 3850 2899 4453 2067 4453 
L 570 4453 
L 570 0 
L 1107 0 
L 1107 1856 
L 2106 1856 
z
M 1926 4096 
C 2669 4096 2995 3627 2995 3157 
C 2995 2720 2694 2226 1926 2226 
L 1094 2226 
L 1094 4096 
L 1926 4096 
z
" transform="scale(0.015625)"/>
        <path id="CMSS17-52" d="M 2522 2109 
L 2534 2115 
C 3533 2459 3539 3147 3539 3268 
C 3539 3873 2925 4453 2003 4453 
L 570 4453 
L 570 32 
L 1094 32 
L 1094 2048 
L 2035 2048 
L 3168 32 
L 3706 32 
L 2522 2109 
z
M 1094 2437 
L 1094 4096 
L 1933 4096 
C 2746 4096 3034 3637 3034 3267 
C 3034 2922 2778 2437 1933 2437 
L 1094 2437 
z
" transform="scale(0.015625)"/>
       </defs>
       <use xlink:href="#CMSS17-50" transform="scale(0.996264)"/>
       <use xlink:href="#CMSS17-61" transform="translate(57.133132 0) scale(0.996264)"/>
       <use xlink:href="#CMSS17-67" transform="translate(102.055053 0) scale(0.996264)"/>
       <use xlink:href="#CMSS17-65" transform="translate(148.898676 0) scale(0.996264)"/>
       <use xlink:href="#CMSS17-52" transform="translate(190.537499 0) scale(0.996264)"/>
       <use xlink:href="#CMSS17-61" transform="translate(250.953653 0) scale(0.996264)"/>
       <use xlink:href="#CMSS17-6e" transform="translate(295.875574 0) scale(0.996264)"/>
       <use xlink:href="#CMSS17-6b" transform="translate(344.080517 0) scale(0.996264)"/>
      </g>
     </g>
    </g>
    <g id="xtick_16">
     <g id="line2d_31">
      <path d="M 357.060815 139.993706 
L 357.060815 7.2 
" clip-path="url(#p09745af7a0)" style="fill: none; stroke: #cccccc; stroke-width: 0.25; stroke-linecap: round"/>
     </g>
     <g id="line2d_32">
      <g>
       <use xlink:href="#ma39d665ac9" x="357.060815" y="139.993706" style="fill: #262626; stroke: #262626; stroke-width: 1.25"/>
      </g>
     </g>
     <g id="text_16">
      <!-- Permute -->
      <g style="fill: #262626" transform="translate(328.324466 182.104613) rotate(-45) scale(0.11 -0.11)">
       <use xlink:href="#CMSS17-50" transform="scale(0.996264)"/>
       <use xlink:href="#CMSS17-65" transform="translate(57.133132 0) scale(0.996264)"/>
       <use xlink:href="#CMSS17-72" transform="translate(98.771954 0) scale(0.996264)"/>
       <use xlink:href="#CMSS17-6d" transform="translate(130.681727 0) scale(0.996264)"/>
       <use xlink:href="#CMSS17-75" transform="translate(204.910981 0) scale(0.996264)"/>
       <use xlink:href="#CMSS17-74" transform="translate(253.115925 0) scale(0.996264)"/>
       <use xlink:href="#CMSS17-65" transform="translate(286.947491 0) scale(0.996264)"/>
      </g>
     </g>
    </g>
    <g id="xtick_17">
     <g id="line2d_33">
      <path d="M 375.860739 139.993706 
L 375.860739 7.2 
" clip-path="url(#p09745af7a0)" style="fill: none; stroke: #cccccc; stroke-width: 0.25; stroke-linecap: round"/>
     </g>
     <g id="line2d_34">
      <g>
       <use xlink:href="#ma39d665ac9" x="375.860739" y="139.993706" style="fill: #262626; stroke: #262626; stroke-width: 1.25"/>
      </g>
     </g>
     <g id="text_17">
      <!-- Queens -->
      <g style="fill: #262626" transform="translate(350.783692 178.44531) rotate(-45) scale(0.11 -0.11)">
       <defs>
        <path id="CMSS17-51" d="M 3200 202 
C 3981 833 4096 1689 4096 2174 
C 4096 3501 3219 4497 2214 4497 
C 1210 4497 333 3497 333 2178 
C 333 847 1222 -128 2214 -128 
C 2438 -128 2630 -77 2765 -26 
L 3302 -832 
L 3930 -832 
L 3200 202 
z
M 2528 324 
C 2438 293 2330 273 2214 273 
C 1523 273 858 993 858 2178 
C 858 3357 1517 4096 2214 4096 
C 2918 4096 3571 3350 3571 2178 
C 3571 1771 3507 1089 2950 566 
L 2490 1210 
L 1939 1210 
L 2528 324 
z
" transform="scale(0.015625)"/>
       </defs>
       <use xlink:href="#CMSS17-51" transform="scale(0.996264)"/>
       <use xlink:href="#CMSS17-75" transform="translate(69.024255 0) scale(0.996264)"/>
       <use xlink:href="#CMSS17-65" transform="translate(117.229198 0) scale(0.996264)"/>
       <use xlink:href="#CMSS17-65" transform="translate(158.868021 0) scale(0.996264)"/>
       <use xlink:href="#CMSS17-6e" transform="translate(200.506843 0) scale(0.996264)"/>
       <use xlink:href="#CMSS17-73" transform="translate(248.711786 0) scale(0.996264)"/>
      </g>
     </g>
    </g>
    <g id="xtick_18">
     <g id="line2d_35">
      <path d="M 394.660662 139.993706 
L 394.660662 7.2 
" clip-path="url(#p09745af7a0)" style="fill: none; stroke: #cccccc; stroke-width: 0.25; stroke-linecap: round"/>
     </g>
     <g id="line2d_36">
      <g>
       <use xlink:href="#ma39d665ac9" x="394.660662" y="139.993706" style="fill: #262626; stroke: #262626; stroke-width: 1.25"/>
      </g>
     </g>
     <g id="text_18">
      <!-- QuickSort -->
      <g style="fill: #262626" transform="translate(360.951952 187.076974) rotate(-45) scale(0.11 -0.11)">
       <use xlink:href="#CMSS17-51" transform="scale(0.996264)"/>
       <use xlink:href="#CMSS17-75" transform="translate(69.024255 0) scale(0.996264)"/>
       <use xlink:href="#CMSS17-69" transform="translate(117.229198 0) scale(0.996264)"/>
       <use xlink:href="#CMSS17-63" transform="translate(139.409922 0) scale(0.996264)"/>
       <use xlink:href="#CMSS17-6b" transform="translate(181.048744 0) scale(0.996264)"/>
       <use xlink:href="#CMSS17-53" transform="translate(226.651233 0) scale(0.996264)"/>
       <use xlink:href="#CMSS17-6f" transform="translate(278.699749 0) scale(0.996264)"/>
       <use xlink:href="#CMSS17-72" transform="translate(322.940919 0) scale(0.996264)"/>
       <use xlink:href="#CMSS17-74" transform="translate(354.850691 0) scale(0.996264)"/>
      </g>
     </g>
    </g>
    <g id="xtick_19">
     <g id="line2d_37">
      <path d="M 413.460586 139.993706 
L 413.460586 7.2 
" clip-path="url(#p09745af7a0)" style="fill: none; stroke: #cccccc; stroke-width: 0.25; stroke-linecap: round"/>
     </g>
     <g id="line2d_38">
      <g>
       <use xlink:href="#ma39d665ac9" x="413.460586" y="139.993706" style="fill: #262626; stroke: #262626; stroke-width: 1.25"/>
      </g>
     </g>
     <g id="text_19">
      <!-- Recurse -->
      <g style="fill: #262626" transform="translate(386.99514 179.833709) rotate(-45) scale(0.11 -0.11)">
       <use xlink:href="#CMSS17-52" transform="scale(0.996264)"/>
       <use xlink:href="#CMSS17-65" transform="translate(60.416155 0) scale(0.996264)"/>
       <use xlink:href="#CMSS17-63" transform="translate(102.054977 0) scale(0.996264)"/>
       <use xlink:href="#CMSS17-75" transform="translate(143.693799 0) scale(0.996264)"/>
       <use xlink:href="#CMSS17-72" transform="translate(191.898742 0) scale(0.996264)"/>
       <use xlink:href="#CMSS17-73" transform="translate(223.808515 0) scale(0.996264)"/>
       <use xlink:href="#CMSS17-65" transform="translate(259.722057 0) scale(0.996264)"/>
      </g>
     </g>
    </g>
    <g id="xtick_20">
     <g id="line2d_39">
      <path d="M 432.260509 139.993706 
L 432.260509 7.2 
" clip-path="url(#p09745af7a0)" style="fill: none; stroke: #cccccc; stroke-width: 0.25; stroke-linecap: round"/>
     </g>
     <g id="line2d_40">
      <g>
       <use xlink:href="#ma39d665ac9" x="432.260509" y="139.993706" style="fill: #262626; stroke: #262626; stroke-width: 1.25"/>
      </g>
     </g>
     <g id="text_20">
      <!-- Richards -->
      <g style="fill: #262626" transform="translate(403.319665 182.309108) rotate(-45) scale(0.11 -0.11)">
       <use xlink:href="#CMSS17-52" transform="scale(0.996264)"/>
       <use xlink:href="#CMSS17-69" transform="translate(60.416155 0) scale(0.996264)"/>
       <use xlink:href="#CMSS17-63" transform="translate(82.596878 0) scale(0.996264)"/>
       <use xlink:href="#CMSS17-68" transform="translate(124.2357 0) scale(0.996264)"/>
       <use xlink:href="#CMSS17-61" transform="translate(172.440643 0) scale(0.996264)"/>
       <use xlink:href="#CMSS17-72" transform="translate(214.76011 0) scale(0.996264)"/>
       <use xlink:href="#CMSS17-64" transform="translate(246.669882 0) scale(0.996264)"/>
       <use xlink:href="#CMSS17-73" transform="translate(294.874825 0) scale(0.996264)"/>
      </g>
     </g>
    </g>
    <g id="xtick_21">
     <g id="line2d_41">
      <path d="M 451.060432 139.993706 
L 451.060432 7.2 
" clip-path="url(#p09745af7a0)" style="fill: none; stroke: #cccccc; stroke-width: 0.25; stroke-linecap: round"/>
     </g>
     <g id="line2d_42">
      <g>
       <use xlink:href="#ma39d665ac9" x="451.060432" y="139.993706" style="fill: #262626; stroke: #262626; stroke-width: 1.25"/>
      </g>
     </g>
     <g id="text_21">
      <!-- Sieve -->
      <g style="fill: #262626" transform="translate(432.936076 171.49262) rotate(-45) scale(0.11 -0.11)">
       <defs>
        <path id="CMSS17-76" d="M 2675 2752 
L 2176 2752 
L 1747 1556 
C 1613 1165 1421 627 1389 352 
L 1382 352 
C 1370 468 1318 634 1286 749 
C 1248 890 1197 1056 1158 1172 
L 595 2752 
L 83 2752 
L 1094 0 
L 1664 0 
L 2675 2752 
z
" transform="scale(0.015625)"/>
       </defs>
       <use xlink:href="#CMSS17-53" transform="scale(0.996264)"/>
       <use xlink:href="#CMSS17-69" transform="translate(52.048516 0) scale(0.996264)"/>
       <use xlink:href="#CMSS17-65" transform="translate(74.229239 0) scale(0.996264)"/>
       <use xlink:href="#CMSS17-76" transform="translate(115.868061 0) scale(0.996264)"/>
       <use xlink:href="#CMSS17-65" transform="translate(158.868203 0) scale(0.996264)"/>
      </g>
     </g>
    </g>
    <g id="xtick_22">
     <g id="line2d_43">
      <path d="M 469.860356 139.993706 
L 469.860356 7.2 
" clip-path="url(#p09745af7a0)" style="fill: none; stroke: #cccccc; stroke-width: 0.25; stroke-linecap: round"/>
     </g>
     <g id="line2d_44">
      <g>
       <use xlink:href="#ma39d665ac9" x="469.860356" y="139.993706" style="fill: #262626; stroke: #262626; stroke-width: 1.25"/>
      </g>
     </g>
     <g id="text_22">
      <!-- Storage -->
      <g style="fill: #262626" transform="translate(443.900783 179.327837) rotate(-45) scale(0.11 -0.11)">
       <use xlink:href="#CMSS17-53" transform="scale(0.996264)"/>
       <use xlink:href="#CMSS17-74" transform="translate(52.048516 0) scale(0.996264)"/>
       <use xlink:href="#CMSS17-6f" transform="translate(85.880083 0) scale(0.996264)"/>
       <use xlink:href="#CMSS17-72" transform="translate(130.121252 0) scale(0.996264)"/>
       <use xlink:href="#CMSS17-61" transform="translate(162.031025 0) scale(0.996264)"/>
       <use xlink:href="#CMSS17-67" transform="translate(206.952946 0) scale(0.996264)"/>
       <use xlink:href="#CMSS17-65" transform="translate(253.796569 0) scale(0.996264)"/>
      </g>
     </g>
    </g>
    <g id="xtick_23">
     <g id="line2d_45">
      <path d="M 488.660279 139.993706 
L 488.660279 7.2 
" clip-path="url(#p09745af7a0)" style="fill: none; stroke: #cccccc; stroke-width: 0.25; stroke-linecap: round"/>
     </g>
     <g id="line2d_46">
      <g>
       <use xlink:href="#ma39d665ac9" x="488.660279" y="139.993706" style="fill: #262626; stroke: #262626; stroke-width: 1.25"/>
      </g>
     </g>
     <g id="text_23">
      <!-- Sum -->
      <g style="fill: #262626" transform="translate(472.688457 169.340086) rotate(-45) scale(0.11 -0.11)">
       <use xlink:href="#CMSS17-53" transform="scale(0.996264)"/>
       <use xlink:href="#CMSS17-75" transform="translate(52.048516 0) scale(0.996264)"/>
       <use xlink:href="#CMSS17-6d" transform="translate(100.253459 0) scale(0.996264)"/>
      </g>
     </g>
    </g>
    <g id="xtick_24">
     <g id="line2d_47">
      <path d="M 507.460203 139.993706 
L 507.460203 7.2 
" clip-path="url(#p09745af7a0)" style="fill: none; stroke: #cccccc; stroke-width: 0.25; stroke-linecap: round"/>
     </g>
     <g id="line2d_48">
      <g>
       <use xlink:href="#ma39d665ac9" x="507.460203" y="139.993706" style="fill: #262626; stroke: #262626; stroke-width: 1.25"/>
      </g>
     </g>
     <g id="text_24">
      <!-- Towers -->
      <g style="fill: #262626" transform="translate(483.524021 177.304445) rotate(-45) scale(0.11 -0.11)">
       <defs>
        <path id="CMSS17-54" d="M 2317 3968 
L 2848 3968 
C 2925 3968 3002 3968 3078 3968 
L 3878 3968 
L 3878 4376 
L 218 4376 
L 218 3968 
L 1018 3968 
C 1094 3968 1171 3968 1248 3968 
L 1779 3968 
L 1779 -32 
L 2317 -32 
L 2317 3968 
z
" transform="scale(0.015625)"/>
        <path id="CMSS17-77" d="M 4013 2752 
L 3526 2752 
L 3187 1601 
C 3117 1358 2918 685 2893 371 
L 2886 371 
C 2874 564 2765 1024 2586 1633 
L 2259 2752 
L 1818 2752 
L 1498 1658 
C 1338 1101 1216 627 1203 371 
L 1197 371 
C 1171 749 909 1633 870 1773 
L 582 2752 
L 83 2752 
L 915 0 
L 1402 0 
C 1734 1096 1990 1943 2010 2370 
C 2022 2160 2131 1707 2195 1484 
L 2618 0 
L 3181 0 
L 4013 2752 
z
" transform="scale(0.015625)"/>
       </defs>
       <use xlink:href="#CMSS17-54" transform="scale(0.996264)"/>
       <use xlink:href="#CMSS17-6f" transform="translate(56.012199 0) scale(0.996264)"/>
       <use xlink:href="#CMSS17-77" transform="translate(100.253368 0) scale(0.996264)"/>
       <use xlink:href="#CMSS17-65" transform="translate(161.470459 0) scale(0.996264)"/>
       <use xlink:href="#CMSS17-72" transform="translate(203.109281 0) scale(0.996264)"/>
       <use xlink:href="#CMSS17-73" transform="translate(235.019054 0) scale(0.996264)"/>
      </g>
     </g>
    </g>
    <g id="xtick_25">
     <g id="line2d_49">
      <path d="M 526.260126 139.993706 
L 526.260126 7.2 
" clip-path="url(#p09745af7a0)" style="fill: none; stroke: #cccccc; stroke-width: 0.25; stroke-linecap: round"/>
     </g>
     <g id="line2d_50">
      <g>
       <use xlink:href="#ma39d665ac9" x="526.260126" y="139.993706" style="fill: #262626; stroke: #262626; stroke-width: 1.25"/>
      </g>
     </g>
     <g id="text_25">
      <!-- TreeSort -->
      <g style="fill: #262626" transform="translate(497.17938 182.449009) rotate(-45) scale(0.11 -0.11)">
       <use xlink:href="#CMSS17-54" transform="scale(0.996264)"/>
       <use xlink:href="#CMSS17-72" transform="translate(56.012199 0) scale(0.996264)"/>
       <use xlink:href="#CMSS17-65" transform="translate(87.921971 0) scale(0.996264)"/>
       <use xlink:href="#CMSS17-65" transform="translate(129.560793 0) scale(0.996264)"/>
       <use xlink:href="#CMSS17-53" transform="translate(171.199615 0) scale(0.996264)"/>
       <use xlink:href="#CMSS17-6f" transform="translate(223.248131 0) scale(0.996264)"/>
       <use xlink:href="#CMSS17-72" transform="translate(267.489301 0) scale(0.996264)"/>
       <use xlink:href="#CMSS17-74" transform="translate(299.399074 0) scale(0.996264)"/>
      </g>
     </g>
    </g>
    <g id="xtick_26">
     <g id="line2d_51">
      <path d="M 545.06005 139.993706 
L 545.06005 7.2 
" clip-path="url(#p09745af7a0)" style="fill: none; stroke: #cccccc; stroke-width: 0.25; stroke-linecap: round"/>
     </g>
     <g id="line2d_52">
      <g>
       <use xlink:href="#ma39d665ac9" x="545.06005" y="139.993706" style="fill: #262626; stroke: #262626; stroke-width: 1.25"/>
      </g>
     </g>
     <g id="text_26">
      <!-- WhileLoop -->
      <g style="fill: #262626" transform="translate(508.918949 189.509365) rotate(-45) scale(0.11 -0.11)">
       <defs>
        <path id="CMSS17-57" d="M 5581 4416 
L 5094 4416 
L 4557 2437 
C 4474 2118 4397 1801 4320 1482 
C 4205 1011 4122 681 4109 515 
L 4102 515 
C 4090 687 4006 1049 3904 1457 
C 3827 1795 3744 2131 3654 2462 
L 3123 4416 
L 2586 4416 
L 2080 2562 
L 1824 1549 
C 1632 747 1626 632 1613 505 
L 1606 505 
C 1606 543 1581 753 1402 1498 
C 1312 1868 1222 2244 1126 2601 
L 634 4416 
L 83 4416 
L 1299 0 
L 1830 0 
L 2336 1839 
L 2592 2851 
C 2765 3564 2803 3742 2816 3901 
L 2822 3901 
C 2822 3876 2880 3474 3130 2545 
L 3808 0 
L 4365 0 
L 5581 4416 
z
" transform="scale(0.015625)"/>
       </defs>
       <use xlink:href="#CMSS17-57" transform="scale(0.996264)"/>
       <use xlink:href="#CMSS17-68" transform="translate(88.242166 0) scale(0.996264)"/>
       <use xlink:href="#CMSS17-69" transform="translate(136.447109 0) scale(0.996264)"/>
       <use xlink:href="#CMSS17-6c" transform="translate(158.627832 0) scale(0.996264)"/>
       <use xlink:href="#CMSS17-65" transform="translate(180.808555 0) scale(0.996264)"/>
       <use xlink:href="#CMSS17-4c" transform="translate(222.447378 0) scale(0.996264)"/>
       <use xlink:href="#CMSS17-6f" transform="translate(273.134483 0) scale(0.996264)"/>
       <use xlink:href="#CMSS17-6f" transform="translate(322.580545 0) scale(0.996264)"/>
       <use xlink:href="#CMSS17-70" transform="translate(369.424169 0) scale(0.996264)"/>
      </g>
     </g>
    </g>
   </g>
   <g id="matplotlib.axis_2">
    <g id="ytick_1">
     <g id="line2d_53">
      <path d="M 62.842013 139.993706 
L 557.28 139.993706 
" clip-path="url(#p09745af7a0)" style="fill: none; stroke: #cccccc; stroke-width: 0.25; stroke-linecap: round"/>
     </g>
     <g id="line2d_54">
      <defs>
       <path id="mc5059e6f99" d="M 0 0 
L -6 0 
" style="stroke: #262626; stroke-width: 1.25"/>
      </defs>
      <g>
       <use xlink:href="#mc5059e6f99" x="62.842013" y="139.993706" style="fill: #262626; stroke: #262626; stroke-width: 1.25"/>
      </g>
     </g>
     <g id="text_27">
      <!-- $\mathdefault{0}$ -->
      <g style="fill: #262626" transform="translate(47.862546 143.798879) scale(0.11 -0.11)">
       <defs>
        <path id="CMR17-30" d="M 2688 2025 
C 2688 2416 2682 3080 2413 3591 
C 2176 4039 1798 4198 1466 4198 
C 1158 4198 768 4058 525 3597 
C 269 3118 243 2524 243 2025 
C 243 1661 250 1106 448 619 
C 723 -39 1216 -128 1466 -128 
C 1760 -128 2208 -7 2470 600 
C 2662 1042 2688 1559 2688 2025 
z
M 1466 -26 
C 1056 -26 813 325 723 812 
C 653 1188 653 1738 653 2096 
C 653 2588 653 2997 736 3387 
C 858 3929 1216 4096 1466 4096 
C 1728 4096 2067 3923 2189 3400 
C 2272 3036 2278 2607 2278 2096 
C 2278 1680 2278 1169 2202 792 
C 2067 95 1690 -26 1466 -26 
z
" transform="scale(0.015625)"/>
       </defs>
       <use xlink:href="#CMR17-30" transform="scale(0.996264)"/>
      </g>
     </g>
    </g>
    <g id="ytick_2">
     <g id="line2d_55">
      <path d="M 62.842013 103.452989 
L 557.28 103.452989 
" clip-path="url(#p09745af7a0)" style="fill: none; stroke: #cccccc; stroke-width: 0.25; stroke-linecap: round"/>
     </g>
     <g id="line2d_56">
      <g>
       <use xlink:href="#mc5059e6f99" x="62.842013" y="103.452989" style="fill: #262626; stroke: #262626; stroke-width: 1.25"/>
      </g>
     </g>
     <g id="text_28">
      <!-- $\mathdefault{50}$ -->
      <g style="fill: #262626" transform="translate(42.383079 107.258163) scale(0.11 -0.11)">
       <defs>
        <path id="CMR17-35" d="M 730 3692 
C 794 3666 1056 3584 1325 3584 
C 1920 3584 2246 3911 2432 4100 
C 2432 4157 2432 4192 2394 4192 
C 2387 4192 2374 4192 2323 4163 
C 2099 4058 1837 3973 1517 3973 
C 1325 3973 1037 3999 723 4139 
C 653 4171 640 4171 634 4171 
C 602 4171 595 4164 595 4037 
L 595 2203 
C 595 2089 595 2057 659 2057 
C 691 2057 704 2070 736 2114 
C 941 2401 1222 2522 1542 2522 
C 1766 2522 2246 2382 2246 1289 
C 2246 1085 2246 715 2054 421 
C 1894 159 1645 25 1370 25 
C 947 25 518 320 403 814 
C 429 807 480 795 506 795 
C 589 795 749 840 749 1038 
C 749 1210 627 1280 506 1280 
C 358 1280 262 1190 262 1011 
C 262 454 704 -128 1382 -128 
C 2042 -128 2669 440 2669 1264 
C 2669 2030 2170 2624 1549 2624 
C 1222 2624 947 2503 730 2274 
L 730 3692 
z
" transform="scale(0.015625)"/>
       </defs>
       <use xlink:href="#CMR17-35" transform="scale(0.996264)"/>
       <use xlink:href="#CMR17-30" transform="translate(45.690477 0) scale(0.996264)"/>
      </g>
     </g>
    </g>
    <g id="ytick_3">
     <g id="line2d_57">
      <path d="M 62.842013 66.912273 
L 557.28 66.912273 
" clip-path="url(#p09745af7a0)" style="fill: none; stroke: #cccccc; stroke-width: 0.25; stroke-linecap: round"/>
     </g>
     <g id="line2d_58">
      <g>
       <use xlink:href="#mc5059e6f99" x="62.842013" y="66.912273" style="fill: #262626; stroke: #262626; stroke-width: 1.25"/>
      </g>
     </g>
     <g id="text_29">
      <!-- $\mathdefault{100}$ -->
      <g style="fill: #262626" transform="translate(36.903611 70.717446) scale(0.11 -0.11)">
       <defs>
        <path id="CMR17-31" d="M 1702 4058 
C 1702 4192 1696 4192 1606 4192 
C 1357 3916 979 3827 621 3827 
C 602 3827 570 3827 563 3808 
C 557 3795 557 3782 557 3648 
C 755 3648 1088 3686 1344 3839 
L 1344 461 
C 1344 236 1331 160 781 160 
L 589 160 
L 589 0 
C 896 0 1216 0 1523 0 
C 1830 0 2150 0 2458 0 
L 2458 160 
L 2266 160 
C 1715 160 1702 230 1702 458 
L 1702 4058 
z
" transform="scale(0.015625)"/>
       </defs>
       <use xlink:href="#CMR17-31" transform="scale(0.996264)"/>
       <use xlink:href="#CMR17-30" transform="translate(45.690477 0) scale(0.996264)"/>
       <use xlink:href="#CMR17-30" transform="translate(91.380954 0) scale(0.996264)"/>
      </g>
     </g>
    </g>
    <g id="ytick_4">
     <g id="line2d_59">
      <path d="M 62.842013 30.371556 
L 557.28 30.371556 
" clip-path="url(#p09745af7a0)" style="fill: none; stroke: #cccccc; stroke-width: 0.25; stroke-linecap: round"/>
     </g>
     <g id="line2d_60">
      <g>
       <use xlink:href="#mc5059e6f99" x="62.842013" y="30.371556" style="fill: #262626; stroke: #262626; stroke-width: 1.25"/>
      </g>
     </g>
     <g id="text_30">
      <!-- $\mathdefault{150}$ -->
      <g style="fill: #262626" transform="translate(36.903611 34.176729) scale(0.11 -0.11)">
       <use xlink:href="#CMR17-31" transform="scale(0.996264)"/>
       <use xlink:href="#CMR17-35" transform="translate(45.690477 0) scale(0.996264)"/>
       <use xlink:href="#CMR17-30" transform="translate(91.380954 0) scale(0.996264)"/>
      </g>
     </g>
    </g>
    <g id="text_31">
     <!-- Peak Memory (MiB) -->
     <g style="fill: #262626" transform="translate(16.166376 123.931809) rotate(-90) scale(0.12 -0.12)">
      <defs>
       <path id="CMSS17-28" d="M 1613 4768 
C 1267 4417 474 3601 474 1588 
C 474 -433 1267 -1243 1613 -1600 
L 2003 -1600 
C 1216 -784 960 357 960 1581 
C 960 2798 1203 3946 2003 4768 
L 1613 4768 
z
" transform="scale(0.015625)"/>
       <path id="CMSS17-29" d="M 723 -1600 
C 1069 -1249 1862 -433 1862 1581 
C 1862 3601 1069 4411 723 4768 
L 333 4768 
C 1120 3952 1376 2811 1376 1588 
C 1376 370 1133 -778 333 -1600 
L 723 -1600 
z
" transform="scale(0.015625)"/>
      </defs>
      <use xlink:href="#CMSS17-50" transform="scale(0.996264)"/>
      <use xlink:href="#CMSS17-65" transform="translate(57.133132 0) scale(0.996264)"/>
      <use xlink:href="#CMSS17-61" transform="translate(98.771954 0) scale(0.996264)"/>
      <use xlink:href="#CMSS17-6b" transform="translate(143.693875 0) scale(0.996264)"/>
      <use xlink:href="#CMSS17-4d" transform="translate(220.525477 0) scale(0.996264)"/>
      <use xlink:href="#CMSS17-65" transform="translate(302.201507 0) scale(0.996264)"/>
      <use xlink:href="#CMSS17-6d" transform="translate(343.840329 0) scale(0.996264)"/>
      <use xlink:href="#CMSS17-6f" transform="translate(418.069583 0) scale(0.996264)"/>
      <use xlink:href="#CMSS17-72" transform="translate(462.310753 0) scale(0.996264)"/>
      <use xlink:href="#CMSS17-79" transform="translate(494.220526 0) scale(0.996264)"/>
      <use xlink:href="#CMSS17-28" transform="translate(568.44978 0) scale(0.996264)"/>
      <use xlink:href="#CMSS17-4d" transform="translate(604.883694 0) scale(0.996264)"/>
      <use xlink:href="#CMSS17-69" transform="translate(686.559724 0) scale(0.996264)"/>
      <use xlink:href="#CMSS17-42" transform="translate(708.740447 0) scale(0.996264)"/>
      <use xlink:href="#CMSS17-29" transform="translate(771.078487 0) scale(0.996264)"/>
     </g>
     <!-- (lower is better) -->
     <g style="fill: #262626" transform="translate(29.914819 112.802158) rotate(-90) scale(0.12 -0.12)">
      <use xlink:href="#CMSS17-28" transform="scale(0.996264)"/>
      <use xlink:href="#CMSS17-6c" transform="translate(36.433914 0) scale(0.996264)"/>
      <use xlink:href="#CMSS17-6f" transform="translate(58.614637 0) scale(0.996264)"/>
      <use xlink:href="#CMSS17-77" transform="translate(102.855807 0) scale(0.996264)"/>
      <use xlink:href="#CMSS17-65" transform="translate(164.072898 0) scale(0.996264)"/>
      <use xlink:href="#CMSS17-72" transform="translate(205.71172 0) scale(0.996264)"/>
      <use xlink:href="#CMSS17-69" transform="translate(268.850605 0) scale(0.996264)"/>
      <use xlink:href="#CMSS17-73" transform="translate(291.031328 0) scale(0.996264)"/>
      <use xlink:href="#CMSS17-62" transform="translate(358.173983 0) scale(0.996264)"/>
      <use xlink:href="#CMSS17-65" transform="translate(408.981365 0) scale(0.996264)"/>
      <use xlink:href="#CMSS17-74" transform="translate(450.620187 0) scale(0.996264)"/>
      <use xlink:href="#CMSS17-74" transform="translate(484.451754 0) scale(0.996264)"/>
      <use xlink:href="#CMSS17-65" transform="translate(518.28332 0) scale(0.996264)"/>
      <use xlink:href="#CMSS17-72" transform="translate(559.922143 0) scale(0.996264)"/>
      <use xlink:href="#CMSS17-29" transform="translate(591.831915 0) scale(0.996264)"/>
     </g>
    </g>
   </g>
   <g id="patch_3">
    <path d="M 67.541994 139.993706 
L 75.061963 139.993706 
L 75.061963 134.962506 
L 67.541994 134.962506 
z
" clip-path="url(#p09745af7a0)" style="fill: #4c72b0; stroke: #ffffff; stroke-linejoin: miter"/>
   </g>
   <g id="patch_4">
    <path d="M 86.341918 139.993706 
L 93.861887 139.993706 
L 93.861887 135.690751 
L 86.341918 135.690751 
z
" clip-path="url(#p09745af7a0)" style="fill: #4c72b0; stroke: #ffffff; stroke-linejoin: miter"/>
   </g>
   <g id="patch_5">
    <path d="M 105.141841 139.993706 
L 112.66181 139.993706 
L 112.66181 111.084765 
L 105.141841 111.084765 
z
" clip-path="url(#p09745af7a0)" style="fill: #4c72b0; stroke: #ffffff; stroke-linejoin: miter"/>
   </g>
   <g id="patch_6">
    <path d="M 123.941764 139.993706 
L 131.461734 139.993706 
L 131.461734 136.251708 
L 123.941764 136.251708 
z
" clip-path="url(#p09745af7a0)" style="fill: #4c72b0; stroke: #ffffff; stroke-linejoin: miter"/>
   </g>
   <g id="patch_7">
    <path d="M 142.741688 139.993706 
L 150.261657 139.993706 
L 150.261657 134.807113 
L 142.741688 134.807113 
z
" clip-path="url(#p09745af7a0)" style="fill: #4c72b0; stroke: #ffffff; stroke-linejoin: miter"/>
   </g>
   <g id="patch_8">
    <path d="M 161.541611 139.993706 
L 169.061581 139.993706 
L 169.061581 134.005215 
L 161.541611 134.005215 
z
" clip-path="url(#p09745af7a0)" style="fill: #4c72b0; stroke: #ffffff; stroke-linejoin: miter"/>
   </g>
   <g id="patch_9">
    <path d="M 180.341535 139.993706 
L 187.861504 139.993706 
L 187.861504 136.169872 
L 180.341535 136.169872 
z
" clip-path="url(#p09745af7a0)" style="fill: #4c72b0; stroke: #ffffff; stroke-linejoin: miter"/>
   </g>
   <g id="patch_10">
    <path d="M 199.141458 139.993706 
L 206.661428 139.993706 
L 206.661428 110.126999 
L 199.141458 110.126999 
z
" clip-path="url(#p09745af7a0)" style="fill: #4c72b0; stroke: #ffffff; stroke-linejoin: miter"/>
   </g>
   <g id="patch_11">
    <path d="M 217.941382 139.993706 
L 225.461351 139.993706 
L 225.461351 136.251518 
L 217.941382 136.251518 
z
" clip-path="url(#p09745af7a0)" style="fill: #4c72b0; stroke: #ffffff; stroke-linejoin: miter"/>
   </g>
   <g id="patch_12">
    <path d="M 236.741305 139.993706 
L 244.261275 139.993706 
L 244.261275 112.120752 
L 236.741305 112.120752 
z
" clip-path="url(#p09745af7a0)" style="fill: #4c72b0; stroke: #ffffff; stroke-linejoin: miter"/>
   </g>
   <g id="patch_13">
    <path d="M 255.541229 139.993706 
L 263.061198 139.993706 
L 263.061198 134.905221 
L 255.541229 134.905221 
z
" clip-path="url(#p09745af7a0)" style="fill: #4c72b0; stroke: #ffffff; stroke-linejoin: miter"/>
   </g>
   <g id="patch_14">
    <path d="M 274.341152 139.993706 
L 281.861121 139.993706 
L 281.861121 135.945109 
L 274.341152 135.945109 
z
" clip-path="url(#p09745af7a0)" style="fill: #4c72b0; stroke: #ffffff; stroke-linejoin: miter"/>
   </g>
   <g id="patch_15">
    <path d="M 293.141076 139.993706 
L 300.661045 139.993706 
L 300.661045 135.641269 
L 293.141076 135.641269 
z
" clip-path="url(#p09745af7a0)" style="fill: #4c72b0; stroke: #ffffff; stroke-linejoin: miter"/>
   </g>
   <g id="patch_16">
    <path d="M 311.940999 139.993706 
L 319.460968 139.993706 
L 319.460968 134.56484 
L 311.940999 134.56484 
z
" clip-path="url(#p09745af7a0)" style="fill: #4c72b0; stroke: #ffffff; stroke-linejoin: miter"/>
   </g>
   <g id="patch_17">
    <path d="M 330.740922 139.993706 
L 338.260892 139.993706 
L 338.260892 132.863794 
L 330.740922 132.863794 
z
" clip-path="url(#p09745af7a0)" style="fill: #4c72b0; stroke: #ffffff; stroke-linejoin: miter"/>
   </g>
   <g id="patch_18">
    <path d="M 349.540846 139.993706 
L 357.060815 139.993706 
L 357.060815 135.068988 
L 349.540846 135.068988 
z
" clip-path="url(#p09745af7a0)" style="fill: #4c72b0; stroke: #ffffff; stroke-linejoin: miter"/>
   </g>
   <g id="patch_19">
    <path d="M 368.340769 139.993706 
L 375.860739 139.993706 
L 375.860739 133.910914 
L 368.340769 133.910914 
z
" clip-path="url(#p09745af7a0)" style="fill: #4c72b0; stroke: #ffffff; stroke-linejoin: miter"/>
   </g>
   <g id="patch_20">
    <path d="M 387.140693 139.993706 
L 394.660662 139.993706 
L 394.660662 133.858386 
L 387.140693 133.858386 
z
" clip-path="url(#p09745af7a0)" style="fill: #4c72b0; stroke: #ffffff; stroke-linejoin: miter"/>
   </g>
   <g id="patch_21">
    <path d="M 405.940616 139.993706 
L 413.460586 139.993706 
L 413.460586 135.533645 
L 405.940616 135.533645 
z
" clip-path="url(#p09745af7a0)" style="fill: #4c72b0; stroke: #ffffff; stroke-linejoin: miter"/>
   </g>
   <g id="patch_22">
    <path d="M 424.74054 139.993706 
L 432.260509 139.993706 
L 432.260509 134.54695 
L 424.74054 134.54695 
z
" clip-path="url(#p09745af7a0)" style="fill: #4c72b0; stroke: #ffffff; stroke-linejoin: miter"/>
   </g>
   <g id="patch_23">
    <path d="M 443.540463 139.993706 
L 451.060432 139.993706 
L 451.060432 132.606867 
L 443.540463 132.606867 
z
" clip-path="url(#p09745af7a0)" style="fill: #4c72b0; stroke: #ffffff; stroke-linejoin: miter"/>
   </g>
   <g id="patch_24">
    <path d="M 462.340387 139.993706 
L 469.860356 139.993706 
L 469.860356 106.11066 
L 462.340387 106.11066 
z
" clip-path="url(#p09745af7a0)" style="fill: #4c72b0; stroke: #ffffff; stroke-linejoin: miter"/>
   </g>
   <g id="patch_25">
    <path d="M 481.14031 139.993706 
L 488.660279 139.993706 
L 488.660279 136.055302 
L 481.14031 136.055302 
z
" clip-path="url(#p09745af7a0)" style="fill: #4c72b0; stroke: #ffffff; stroke-linejoin: miter"/>
   </g>
   <g id="patch_26">
    <path d="M 499.940233 139.993706 
L 507.460203 139.993706 
L 507.460203 135.182512 
L 499.940233 135.182512 
z
" clip-path="url(#p09745af7a0)" style="fill: #4c72b0; stroke: #ffffff; stroke-linejoin: miter"/>
   </g>
   <g id="patch_27">
    <path d="M 518.740157 139.993706 
L 526.260126 139.993706 
L 526.260126 106.232898 
L 518.740157 106.232898 
z
" clip-path="url(#p09745af7a0)" style="fill: #4c72b0; stroke: #ffffff; stroke-linejoin: miter"/>
   </g>
   <g id="patch_28">
    <path d="M 537.54008 139.993706 
L 545.06005 139.993706 
L 545.06005 136.065769 
L 537.54008 136.065769 
z
" clip-path="url(#p09745af7a0)" style="fill: #4c72b0; stroke: #ffffff; stroke-linejoin: miter"/>
   </g>
   <g id="patch_29">
    <path d="M 75.061963 139.993706 
L 82.581933 139.993706 
L 82.581933 134.920827 
L 75.061963 134.920827 
z
" clip-path="url(#p09745af7a0)" style="fill: #dd8452; stroke: #ffffff; stroke-linejoin: miter"/>
   </g>
   <g id="patch_30">
    <path d="M 93.861887 139.993706 
L 101.381856 139.993706 
L 101.381856 135.339998 
L 93.861887 135.339998 
z
" clip-path="url(#p09745af7a0)" style="fill: #dd8452; stroke: #ffffff; stroke-linejoin: miter"/>
   </g>
   <g id="patch_31">
    <path d="M 112.66181 139.993706 
L 120.18178 139.993706 
L 120.18178 103.311299 
L 112.66181 103.311299 
z
" clip-path="url(#p09745af7a0)" style="fill: #dd8452; stroke: #ffffff; stroke-linejoin: miter"/>
   </g>
   <g id="patch_32">
    <path d="M 131.461734 139.993706 
L 138.981703 139.993706 
L 138.981703 136.331641 
L 131.461734 136.331641 
z
" clip-path="url(#p09745af7a0)" style="fill: #dd8452; stroke: #ffffff; stroke-linejoin: miter"/>
   </g>
   <g id="patch_33">
    <path d="M 150.261657 139.993706 
L 157.781627 139.993706 
L 157.781627 126.743319 
L 150.261657 126.743319 
z
" clip-path="url(#p09745af7a0)" style="fill: #dd8452; stroke: #ffffff; stroke-linejoin: miter"/>
   </g>
   <g id="patch_34">
    <path d="M 169.061581 139.993706 
L 176.58155 139.993706 
L 176.58155 131.806111 
L 169.061581 131.806111 
z
" clip-path="url(#p09745af7a0)" style="fill: #dd8452; stroke: #ffffff; stroke-linejoin: miter"/>
   </g>
   <g id="patch_35">
    <path d="M 187.861504 139.993706 
L 195.381474 139.993706 
L 195.381474 136.187286 
L 187.861504 136.187286 
z
" clip-path="url(#p09745af7a0)" style="fill: #dd8452; stroke: #ffffff; stroke-linejoin: miter"/>
   </g>
   <g id="patch_36">
    <path d="M 206.661428 139.993706 
L 214.181397 139.993706 
L 214.181397 100.456175 
L 206.661428 100.456175 
z
" clip-path="url(#p09745af7a0)" style="fill: #dd8452; stroke: #ffffff; stroke-linejoin: miter"/>
   </g>
   <g id="patch_37">
    <path d="M 225.461351 139.993706 
L 232.98132 139.993706 
L 232.98132 136.257989 
L 225.461351 136.257989 
z
" clip-path="url(#p09745af7a0)" style="fill: #dd8452; stroke: #ffffff; stroke-linejoin: miter"/>
   </g>
   <g id="patch_38">
    <path d="M 244.261275 139.993706 
L 251.781244 139.993706 
L 251.781244 106.097433 
L 244.261275 106.097433 
z
" clip-path="url(#p09745af7a0)" style="fill: #dd8452; stroke: #ffffff; stroke-linejoin: miter"/>
   </g>
   <g id="patch_39">
    <path d="M 263.061198 139.993706 
L 270.581167 139.993706 
L 270.581167 135.225142 
L 263.061198 135.225142 
z
" clip-path="url(#p09745af7a0)" style="fill: #dd8452; stroke: #ffffff; stroke-linejoin: miter"/>
   </g>
   <g id="patch_40">
    <path d="M 281.861121 139.993706 
L 289.381091 139.993706 
L 289.381091 135.882304 
L 281.861121 135.882304 
z
" clip-path="url(#p09745af7a0)" style="fill: #dd8452; stroke: #ffffff; stroke-linejoin: miter"/>
   </g>
   <g id="patch_41">
    <path d="M 300.661045 139.993706 
L 308.181014 139.993706 
L 308.181014 135.675526 
L 300.661045 135.675526 
z
" clip-path="url(#p09745af7a0)" style="fill: #dd8452; stroke: #ffffff; stroke-linejoin: miter"/>
   </g>
   <g id="patch_42">
    <path d="M 319.460968 139.993706 
L 326.980938 139.993706 
L 326.980938 133.173438 
L 319.460968 133.173438 
z
" clip-path="url(#p09745af7a0)" style="fill: #dd8452; stroke: #ffffff; stroke-linejoin: miter"/>
   </g>
   <g id="patch_43">
    <path d="M 338.260892 139.993706 
L 345.780861 139.993706 
L 345.780861 132.557289 
L 338.260892 132.557289 
z
" clip-path="url(#p09745af7a0)" style="fill: #dd8452; stroke: #ffffff; stroke-linejoin: miter"/>
   </g>
   <g id="patch_44">
    <path d="M 357.060815 139.993706 
L 364.580785 139.993706 
L 364.580785 134.724135 
L 357.060815 134.724135 
z
" clip-path="url(#p09745af7a0)" style="fill: #dd8452; stroke: #ffffff; stroke-linejoin: miter"/>
   </g>
   <g id="patch_45">
    <path d="M 375.860739 139.993706 
L 383.380708 139.993706 
L 383.380708 134.518118 
L 375.860739 134.518118 
z
" clip-path="url(#p09745af7a0)" style="fill: #dd8452; stroke: #ffffff; stroke-linejoin: miter"/>
   </g>
   <g id="patch_46">
    <path d="M 394.660662 139.993706 
L 402.180632 139.993706 
L 402.180632 134.956606 
L 394.660662 134.956606 
z
" clip-path="url(#p09745af7a0)" style="fill: #dd8452; stroke: #ffffff; stroke-linejoin: miter"/>
   </g>
   <g id="patch_47">
    <path d="M 413.460586 139.993706 
L 420.980555 139.993706 
L 420.980555 135.751652 
L 413.460586 135.751652 
z
" clip-path="url(#p09745af7a0)" style="fill: #dd8452; stroke: #ffffff; stroke-linejoin: miter"/>
   </g>
   <g id="patch_48">
    <path d="M 432.260509 139.993706 
L 439.780478 139.993706 
L 439.780478 134.917496 
L 432.260509 134.917496 
z
" clip-path="url(#p09745af7a0)" style="fill: #dd8452; stroke: #ffffff; stroke-linejoin: miter"/>
   </g>
   <g id="patch_49">
    <path d="M 451.060432 139.993706 
L 458.580402 139.993706 
L 458.580402 134.334748 
L 451.060432 134.334748 
z
" clip-path="url(#p09745af7a0)" style="fill: #dd8452; stroke: #ffffff; stroke-linejoin: miter"/>
   </g>
   <g id="patch_50">
    <path d="M 469.860356 139.993706 
L 477.380325 139.993706 
L 477.380325 50.288721 
L 469.860356 50.288721 
z
" clip-path="url(#p09745af7a0)" style="fill: #dd8452; stroke: #ffffff; stroke-linejoin: miter"/>
   </g>
   <g id="patch_51">
    <path d="M 488.660279 139.993706 
L 496.180249 139.993706 
L 496.180249 136.196897 
L 488.660279 136.196897 
z
" clip-path="url(#p09745af7a0)" style="fill: #dd8452; stroke: #ffffff; stroke-linejoin: miter"/>
   </g>
   <g id="patch_52">
    <path d="M 507.460203 139.993706 
L 514.980172 139.993706 
L 514.980172 134.984107 
L 507.460203 134.984107 
z
" clip-path="url(#p09745af7a0)" style="fill: #dd8452; stroke: #ffffff; stroke-linejoin: miter"/>
   </g>
   <g id="patch_53">
    <path d="M 526.260126 139.993706 
L 533.780096 139.993706 
L 533.780096 19.528193 
L 526.260126 19.528193 
z
" clip-path="url(#p09745af7a0)" style="fill: #dd8452; stroke: #ffffff; stroke-linejoin: miter"/>
   </g>
   <g id="patch_54">
    <path d="M 545.06005 139.993706 
L 552.580019 139.993706 
L 552.580019 136.444308 
L 545.06005 136.444308 
z
" clip-path="url(#p09745af7a0)" style="fill: #dd8452; stroke: #ffffff; stroke-linejoin: miter"/>
   </g>
   <g id="LineCollection_1">
    <path d="M 71.301979 135.181584 
L 71.301979 134.743428 
" clip-path="url(#p09745af7a0)" style="fill: none; stroke: #262626; stroke-width: 1.5"/>
    <path d="M 90.101902 135.850357 
L 90.101902 135.531145 
" clip-path="url(#p09745af7a0)" style="fill: none; stroke: #262626; stroke-width: 1.5"/>
    <path d="M 108.901826 111.310407 
L 108.901826 110.859124 
" clip-path="url(#p09745af7a0)" style="fill: none; stroke: #262626; stroke-width: 1.5"/>
    <path d="M 127.701749 136.277494 
L 127.701749 136.225922 
" clip-path="url(#p09745af7a0)" style="fill: none; stroke: #262626; stroke-width: 1.5"/>
    <path d="M 146.501673 135.046784 
L 146.501673 134.567442 
" clip-path="url(#p09745af7a0)" style="fill: none; stroke: #262626; stroke-width: 1.5"/>
    <path d="M 165.301596 134.200227 
L 165.301596 133.810204 
" clip-path="url(#p09745af7a0)" style="fill: none; stroke: #262626; stroke-width: 1.5"/>
    <path d="M 184.101519 136.352694 
L 184.101519 135.987051 
" clip-path="url(#p09745af7a0)" style="fill: none; stroke: #262626; stroke-width: 1.5"/>
    <path d="M 202.901443 110.67554 
L 202.901443 109.578458 
" clip-path="url(#p09745af7a0)" style="fill: none; stroke: #262626; stroke-width: 1.5"/>
    <path d="M 221.701366 136.373567 
L 221.701366 136.129469 
" clip-path="url(#p09745af7a0)" style="fill: none; stroke: #262626; stroke-width: 1.5"/>
    <path d="M 240.50129 112.273864 
L 240.50129 111.96764 
" clip-path="url(#p09745af7a0)" style="fill: none; stroke: #262626; stroke-width: 1.5"/>
    <path d="M 259.301213 134.940764 
L 259.301213 134.869678 
" clip-path="url(#p09745af7a0)" style="fill: none; stroke: #262626; stroke-width: 1.5"/>
    <path d="M 278.101137 136.070412 
L 278.101137 135.819805 
" clip-path="url(#p09745af7a0)" style="fill: none; stroke: #262626; stroke-width: 1.5"/>
    <path d="M 296.90106 135.763052 
L 296.90106 135.519486 
" clip-path="url(#p09745af7a0)" style="fill: none; stroke: #262626; stroke-width: 1.5"/>
    <path d="M 315.700984 135.001741 
L 315.700984 134.127939 
" clip-path="url(#p09745af7a0)" style="fill: none; stroke: #262626; stroke-width: 1.5"/>
    <path d="M 334.500907 133.008342 
L 334.500907 132.719246 
" clip-path="url(#p09745af7a0)" style="fill: none; stroke: #262626; stroke-width: 1.5"/>
    <path d="M 353.300831 135.292139 
L 353.300831 134.845837 
" clip-path="url(#p09745af7a0)" style="fill: none; stroke: #262626; stroke-width: 1.5"/>
    <path d="M 372.100754 134.282661 
L 372.100754 133.539167 
" clip-path="url(#p09745af7a0)" style="fill: none; stroke: #262626; stroke-width: 1.5"/>
    <path d="M 390.900677 134.11302 
L 390.900677 133.603753 
" clip-path="url(#p09745af7a0)" style="fill: none; stroke: #262626; stroke-width: 1.5"/>
    <path d="M 409.700601 135.71076 
L 409.700601 135.35653 
" clip-path="url(#p09745af7a0)" style="fill: none; stroke: #262626; stroke-width: 1.5"/>
    <path d="M 428.500524 134.909024 
L 428.500524 134.184877 
" clip-path="url(#p09745af7a0)" style="fill: none; stroke: #262626; stroke-width: 1.5"/>
    <path d="M 447.300448 132.939858 
L 447.300448 132.273875 
" clip-path="url(#p09745af7a0)" style="fill: none; stroke: #262626; stroke-width: 1.5"/>
    <path d="M 466.100371 108.580493 
L 466.100371 103.640827 
" clip-path="url(#p09745af7a0)" style="fill: none; stroke: #262626; stroke-width: 1.5"/>
    <path d="M 484.900295 136.256982 
L 484.900295 135.853622 
" clip-path="url(#p09745af7a0)" style="fill: none; stroke: #262626; stroke-width: 1.5"/>
    <path d="M 503.700218 135.33166 
L 503.700218 135.033363 
" clip-path="url(#p09745af7a0)" style="fill: none; stroke: #262626; stroke-width: 1.5"/>
    <path d="M 522.500142 109.686627 
L 522.500142 102.779168 
" clip-path="url(#p09745af7a0)" style="fill: none; stroke: #262626; stroke-width: 1.5"/>
    <path d="M 541.300065 136.278421 
L 541.300065 135.853118 
" clip-path="url(#p09745af7a0)" style="fill: none; stroke: #262626; stroke-width: 1.5"/>
   </g>
   <g id="line2d_61">
    <defs>
     <path id="m038ba8dcb0" d="M 2 0 
L -2 -0 
" style="stroke: #262626"/>
    </defs>
    <g clip-path="url(#p09745af7a0)">
     <use xlink:href="#m038ba8dcb0" x="71.301979" y="135.181584" style="fill: #262626; stroke: #262626"/>
     <use xlink:href="#m038ba8dcb0" x="90.101902" y="135.850357" style="fill: #262626; stroke: #262626"/>
     <use xlink:href="#m038ba8dcb0" x="108.901826" y="111.310407" style="fill: #262626; stroke: #262626"/>
     <use xlink:href="#m038ba8dcb0" x="127.701749" y="136.277494" style="fill: #262626; stroke: #262626"/>
     <use xlink:href="#m038ba8dcb0" x="146.501673" y="135.046784" style="fill: #262626; stroke: #262626"/>
     <use xlink:href="#m038ba8dcb0" x="165.301596" y="134.200227" style="fill: #262626; stroke: #262626"/>
     <use xlink:href="#m038ba8dcb0" x="184.101519" y="136.352694" style="fill: #262626; stroke: #262626"/>
     <use xlink:href="#m038ba8dcb0" x="202.901443" y="110.67554" style="fill: #262626; stroke: #262626"/>
     <use xlink:href="#m038ba8dcb0" x="221.701366" y="136.373567" style="fill: #262626; stroke: #262626"/>
     <use xlink:href="#m038ba8dcb0" x="240.50129" y="112.273864" style="fill: #262626; stroke: #262626"/>
     <use xlink:href="#m038ba8dcb0" x="259.301213" y="134.940764" style="fill: #262626; stroke: #262626"/>
     <use xlink:href="#m038ba8dcb0" x="278.101137" y="136.070412" style="fill: #262626; stroke: #262626"/>
     <use xlink:href="#m038ba8dcb0" x="296.90106" y="135.763052" style="fill: #262626; stroke: #262626"/>
     <use xlink:href="#m038ba8dcb0" x="315.700984" y="135.001741" style="fill: #262626; stroke: #262626"/>
     <use xlink:href="#m038ba8dcb0" x="334.500907" y="133.008342" style="fill: #262626; stroke: #262626"/>
     <use xlink:href="#m038ba8dcb0" x="353.300831" y="135.292139" style="fill: #262626; stroke: #262626"/>
     <use xlink:href="#m038ba8dcb0" x="372.100754" y="134.282661" style="fill: #262626; stroke: #262626"/>
     <use xlink:href="#m038ba8dcb0" x="390.900677" y="134.11302" style="fill: #262626; stroke: #262626"/>
     <use xlink:href="#m038ba8dcb0" x="409.700601" y="135.71076" style="fill: #262626; stroke: #262626"/>
     <use xlink:href="#m038ba8dcb0" x="428.500524" y="134.909024" style="fill: #262626; stroke: #262626"/>
     <use xlink:href="#m038ba8dcb0" x="447.300448" y="132.939858" style="fill: #262626; stroke: #262626"/>
     <use xlink:href="#m038ba8dcb0" x="466.100371" y="108.580493" style="fill: #262626; stroke: #262626"/>
     <use xlink:href="#m038ba8dcb0" x="484.900295" y="136.256982" style="fill: #262626; stroke: #262626"/>
     <use xlink:href="#m038ba8dcb0" x="503.700218" y="135.33166" style="fill: #262626; stroke: #262626"/>
     <use xlink:href="#m038ba8dcb0" x="522.500142" y="109.686627" style="fill: #262626; stroke: #262626"/>
     <use xlink:href="#m038ba8dcb0" x="541.300065" y="136.278421" style="fill: #262626; stroke: #262626"/>
    </g>
   </g>
   <g id="line2d_62">
    <g clip-path="url(#p09745af7a0)">
     <use xlink:href="#m038ba8dcb0" x="71.301979" y="134.743428" style="fill: #262626; stroke: #262626"/>
     <use xlink:href="#m038ba8dcb0" x="90.101902" y="135.531145" style="fill: #262626; stroke: #262626"/>
     <use xlink:href="#m038ba8dcb0" x="108.901826" y="110.859124" style="fill: #262626; stroke: #262626"/>
     <use xlink:href="#m038ba8dcb0" x="127.701749" y="136.225922" style="fill: #262626; stroke: #262626"/>
     <use xlink:href="#m038ba8dcb0" x="146.501673" y="134.567442" style="fill: #262626; stroke: #262626"/>
     <use xlink:href="#m038ba8dcb0" x="165.301596" y="133.810204" style="fill: #262626; stroke: #262626"/>
     <use xlink:href="#m038ba8dcb0" x="184.101519" y="135.987051" style="fill: #262626; stroke: #262626"/>
     <use xlink:href="#m038ba8dcb0" x="202.901443" y="109.578458" style="fill: #262626; stroke: #262626"/>
     <use xlink:href="#m038ba8dcb0" x="221.701366" y="136.129469" style="fill: #262626; stroke: #262626"/>
     <use xlink:href="#m038ba8dcb0" x="240.50129" y="111.96764" style="fill: #262626; stroke: #262626"/>
     <use xlink:href="#m038ba8dcb0" x="259.301213" y="134.869678" style="fill: #262626; stroke: #262626"/>
     <use xlink:href="#m038ba8dcb0" x="278.101137" y="135.819805" style="fill: #262626; stroke: #262626"/>
     <use xlink:href="#m038ba8dcb0" x="296.90106" y="135.519486" style="fill: #262626; stroke: #262626"/>
     <use xlink:href="#m038ba8dcb0" x="315.700984" y="134.127939" style="fill: #262626; stroke: #262626"/>
     <use xlink:href="#m038ba8dcb0" x="334.500907" y="132.719246" style="fill: #262626; stroke: #262626"/>
     <use xlink:href="#m038ba8dcb0" x="353.300831" y="134.845837" style="fill: #262626; stroke: #262626"/>
     <use xlink:href="#m038ba8dcb0" x="372.100754" y="133.539167" style="fill: #262626; stroke: #262626"/>
     <use xlink:href="#m038ba8dcb0" x="390.900677" y="133.603753" style="fill: #262626; stroke: #262626"/>
     <use xlink:href="#m038ba8dcb0" x="409.700601" y="135.35653" style="fill: #262626; stroke: #262626"/>
     <use xlink:href="#m038ba8dcb0" x="428.500524" y="134.184877" style="fill: #262626; stroke: #262626"/>
     <use xlink:href="#m038ba8dcb0" x="447.300448" y="132.273875" style="fill: #262626; stroke: #262626"/>
     <use xlink:href="#m038ba8dcb0" x="466.100371" y="103.640827" style="fill: #262626; stroke: #262626"/>
     <use xlink:href="#m038ba8dcb0" x="484.900295" y="135.853622" style="fill: #262626; stroke: #262626"/>
     <use xlink:href="#m038ba8dcb0" x="503.700218" y="135.033363" style="fill: #262626; stroke: #262626"/>
     <use xlink:href="#m038ba8dcb0" x="522.500142" y="102.779168" style="fill: #262626; stroke: #262626"/>
     <use xlink:href="#m038ba8dcb0" x="541.300065" y="135.853118" style="fill: #262626; stroke: #262626"/>
    </g>
   </g>
   <g id="LineCollection_2">
    <path d="M 78.821948 135.091741 
L 78.821948 134.749912 
" clip-path="url(#p09745af7a0)" style="fill: none; stroke: #262626; stroke-width: 1.5"/>
    <path d="M 97.621872 135.546603 
L 97.621872 135.133394 
" clip-path="url(#p09745af7a0)" style="fill: none; stroke: #262626; stroke-width: 1.5"/>
    <path d="M 116.421795 104.087349 
L 116.421795 102.535249 
" clip-path="url(#p09745af7a0)" style="fill: none; stroke: #262626; stroke-width: 1.5"/>
    <path d="M 135.221719 136.383077 
L 135.221719 136.280205 
" clip-path="url(#p09745af7a0)" style="fill: none; stroke: #262626; stroke-width: 1.5"/>
    <path d="M 154.021642 130.602969 
L 154.021642 122.883668 
" clip-path="url(#p09745af7a0)" style="fill: none; stroke: #262626; stroke-width: 1.5"/>
    <path d="M 172.821565 132.727418 
L 172.821565 130.884804 
" clip-path="url(#p09745af7a0)" style="fill: none; stroke: #262626; stroke-width: 1.5"/>
    <path d="M 191.621489 136.355998 
L 191.621489 136.018575 
" clip-path="url(#p09745af7a0)" style="fill: none; stroke: #262626; stroke-width: 1.5"/>
    <path d="M 210.421412 102.025015 
L 210.421412 98.887334 
" clip-path="url(#p09745af7a0)" style="fill: none; stroke: #262626; stroke-width: 1.5"/>
    <path d="M 229.221336 136.433146 
L 229.221336 136.082831 
" clip-path="url(#p09745af7a0)" style="fill: none; stroke: #262626; stroke-width: 1.5"/>
    <path d="M 248.021259 106.346302 
L 248.021259 105.848565 
" clip-path="url(#p09745af7a0)" style="fill: none; stroke: #262626; stroke-width: 1.5"/>
    <path d="M 266.821183 135.391695 
L 266.821183 135.058589 
" clip-path="url(#p09745af7a0)" style="fill: none; stroke: #262626; stroke-width: 1.5"/>
    <path d="M 285.621106 136.098171 
L 285.621106 135.666438 
" clip-path="url(#p09745af7a0)" style="fill: none; stroke: #262626; stroke-width: 1.5"/>
    <path d="M 304.42103 135.763646 
L 304.42103 135.587405 
" clip-path="url(#p09745af7a0)" style="fill: none; stroke: #262626; stroke-width: 1.5"/>
    <path d="M 323.220953 133.508538 
L 323.220953 132.838338 
" clip-path="url(#p09745af7a0)" style="fill: none; stroke: #262626; stroke-width: 1.5"/>
    <path d="M 342.020876 133.051426 
L 342.020876 132.063153 
" clip-path="url(#p09745af7a0)" style="fill: none; stroke: #262626; stroke-width: 1.5"/>
    <path d="M 360.8208 134.854886 
L 360.8208 134.593384 
" clip-path="url(#p09745af7a0)" style="fill: none; stroke: #262626; stroke-width: 1.5"/>
    <path d="M 379.620723 134.565454 
L 379.620723 134.470781 
" clip-path="url(#p09745af7a0)" style="fill: none; stroke: #262626; stroke-width: 1.5"/>
    <path d="M 398.420647 135.039011 
L 398.420647 134.874201 
" clip-path="url(#p09745af7a0)" style="fill: none; stroke: #262626; stroke-width: 1.5"/>
    <path d="M 417.22057 135.899629 
L 417.22057 135.603676 
" clip-path="url(#p09745af7a0)" style="fill: none; stroke: #262626; stroke-width: 1.5"/>
    <path d="M 436.020494 135.121231 
L 436.020494 134.713761 
" clip-path="url(#p09745af7a0)" style="fill: none; stroke: #262626; stroke-width: 1.5"/>
    <path d="M 454.820417 134.54899 
L 454.820417 134.120506 
" clip-path="url(#p09745af7a0)" style="fill: none; stroke: #262626; stroke-width: 1.5"/>
    <path d="M 473.620341 52.500802 
L 473.620341 48.076639 
" clip-path="url(#p09745af7a0)" style="fill: none; stroke: #262626; stroke-width: 1.5"/>
    <path d="M 492.420264 136.3653 
L 492.420264 136.028494 
" clip-path="url(#p09745af7a0)" style="fill: none; stroke: #262626; stroke-width: 1.5"/>
    <path d="M 511.220188 135.108294 
L 511.220188 134.85992 
" clip-path="url(#p09745af7a0)" style="fill: none; stroke: #262626; stroke-width: 1.5"/>
    <path d="M 530.020111 25.532877 
L 530.020111 13.52351 
" clip-path="url(#p09745af7a0)" style="fill: none; stroke: #262626; stroke-width: 1.5"/>
    <path d="M 548.820034 136.517859 
L 548.820034 136.370757 
" clip-path="url(#p09745af7a0)" style="fill: none; stroke: #262626; stroke-width: 1.5"/>
   </g>
   <g id="line2d_63">
    <g clip-path="url(#p09745af7a0)">
     <use xlink:href="#m038ba8dcb0" x="78.821948" y="135.091741" style="fill: #262626; stroke: #262626"/>
     <use xlink:href="#m038ba8dcb0" x="97.621872" y="135.546603" style="fill: #262626; stroke: #262626"/>
     <use xlink:href="#m038ba8dcb0" x="116.421795" y="104.087349" style="fill: #262626; stroke: #262626"/>
     <use xlink:href="#m038ba8dcb0" x="135.221719" y="136.383077" style="fill: #262626; stroke: #262626"/>
     <use xlink:href="#m038ba8dcb0" x="154.021642" y="130.602969" style="fill: #262626; stroke: #262626"/>
     <use xlink:href="#m038ba8dcb0" x="172.821565" y="132.727418" style="fill: #262626; stroke: #262626"/>
     <use xlink:href="#m038ba8dcb0" x="191.621489" y="136.355998" style="fill: #262626; stroke: #262626"/>
     <use xlink:href="#m038ba8dcb0" x="210.421412" y="102.025015" style="fill: #262626; stroke: #262626"/>
     <use xlink:href="#m038ba8dcb0" x="229.221336" y="136.433146" style="fill: #262626; stroke: #262626"/>
     <use xlink:href="#m038ba8dcb0" x="248.021259" y="106.346302" style="fill: #262626; stroke: #262626"/>
     <use xlink:href="#m038ba8dcb0" x="266.821183" y="135.391695" style="fill: #262626; stroke: #262626"/>
     <use xlink:href="#m038ba8dcb0" x="285.621106" y="136.098171" style="fill: #262626; stroke: #262626"/>
     <use xlink:href="#m038ba8dcb0" x="304.42103" y="135.763646" style="fill: #262626; stroke: #262626"/>
     <use xlink:href="#m038ba8dcb0" x="323.220953" y="133.508538" style="fill: #262626; stroke: #262626"/>
     <use xlink:href="#m038ba8dcb0" x="342.020876" y="133.051426" style="fill: #262626; stroke: #262626"/>
     <use xlink:href="#m038ba8dcb0" x="360.8208" y="134.854886" style="fill: #262626; stroke: #262626"/>
     <use xlink:href="#m038ba8dcb0" x="379.620723" y="134.565454" style="fill: #262626; stroke: #262626"/>
     <use xlink:href="#m038ba8dcb0" x="398.420647" y="135.039011" style="fill: #262626; stroke: #262626"/>
     <use xlink:href="#m038ba8dcb0" x="417.22057" y="135.899629" style="fill: #262626; stroke: #262626"/>
     <use xlink:href="#m038ba8dcb0" x="436.020494" y="135.121231" style="fill: #262626; stroke: #262626"/>
     <use xlink:href="#m038ba8dcb0" x="454.820417" y="134.54899" style="fill: #262626; stroke: #262626"/>
     <use xlink:href="#m038ba8dcb0" x="473.620341" y="52.500802" style="fill: #262626; stroke: #262626"/>
     <use xlink:href="#m038ba8dcb0" x="492.420264" y="136.3653" style="fill: #262626; stroke: #262626"/>
     <use xlink:href="#m038ba8dcb0" x="511.220188" y="135.108294" style="fill: #262626; stroke: #262626"/>
     <use xlink:href="#m038ba8dcb0" x="530.020111" y="25.532877" style="fill: #262626; stroke: #262626"/>
     <use xlink:href="#m038ba8dcb0" x="548.820034" y="136.517859" style="fill: #262626; stroke: #262626"/>
    </g>
   </g>
   <g id="line2d_64">
    <g clip-path="url(#p09745af7a0)">
     <use xlink:href="#m038ba8dcb0" x="78.821948" y="134.749912" style="fill: #262626; stroke: #262626"/>
     <use xlink:href="#m038ba8dcb0" x="97.621872" y="135.133394" style="fill: #262626; stroke: #262626"/>
     <use xlink:href="#m038ba8dcb0" x="116.421795" y="102.535249" style="fill: #262626; stroke: #262626"/>
     <use xlink:href="#m038ba8dcb0" x="135.221719" y="136.280205" style="fill: #262626; stroke: #262626"/>
     <use xlink:href="#m038ba8dcb0" x="154.021642" y="122.883668" style="fill: #262626; stroke: #262626"/>
     <use xlink:href="#m038ba8dcb0" x="172.821565" y="130.884804" style="fill: #262626; stroke: #262626"/>
     <use xlink:href="#m038ba8dcb0" x="191.621489" y="136.018575" style="fill: #262626; stroke: #262626"/>
     <use xlink:href="#m038ba8dcb0" x="210.421412" y="98.887334" style="fill: #262626; stroke: #262626"/>
     <use xlink:href="#m038ba8dcb0" x="229.221336" y="136.082831" style="fill: #262626; stroke: #262626"/>
     <use xlink:href="#m038ba8dcb0" x="248.021259" y="105.848565" style="fill: #262626; stroke: #262626"/>
     <use xlink:href="#m038ba8dcb0" x="266.821183" y="135.058589" style="fill: #262626; stroke: #262626"/>
     <use xlink:href="#m038ba8dcb0" x="285.621106" y="135.666438" style="fill: #262626; stroke: #262626"/>
     <use xlink:href="#m038ba8dcb0" x="304.42103" y="135.587405" style="fill: #262626; stroke: #262626"/>
     <use xlink:href="#m038ba8dcb0" x="323.220953" y="132.838338" style="fill: #262626; stroke: #262626"/>
     <use xlink:href="#m038ba8dcb0" x="342.020876" y="132.063153" style="fill: #262626; stroke: #262626"/>
     <use xlink:href="#m038ba8dcb0" x="360.8208" y="134.593384" style="fill: #262626; stroke: #262626"/>
     <use xlink:href="#m038ba8dcb0" x="379.620723" y="134.470781" style="fill: #262626; stroke: #262626"/>
     <use xlink:href="#m038ba8dcb0" x="398.420647" y="134.874201" style="fill: #262626; stroke: #262626"/>
     <use xlink:href="#m038ba8dcb0" x="417.22057" y="135.603676" style="fill: #262626; stroke: #262626"/>
     <use xlink:href="#m038ba8dcb0" x="436.020494" y="134.713761" style="fill: #262626; stroke: #262626"/>
     <use xlink:href="#m038ba8dcb0" x="454.820417" y="134.120506" style="fill: #262626; stroke: #262626"/>
     <use xlink:href="#m038ba8dcb0" x="473.620341" y="48.076639" style="fill: #262626; stroke: #262626"/>
     <use xlink:href="#m038ba8dcb0" x="492.420264" y="136.028494" style="fill: #262626; stroke: #262626"/>
     <use xlink:href="#m038ba8dcb0" x="511.220188" y="134.85992" style="fill: #262626; stroke: #262626"/>
     <use xlink:href="#m038ba8dcb0" x="530.020111" y="13.52351" style="fill: #262626; stroke: #262626"/>
     <use xlink:href="#m038ba8dcb0" x="548.820034" y="136.370757" style="fill: #262626; stroke: #262626"/>
    </g>
   </g>
   <g id="patch_55">
    <path d="M 62.842013 139.993706 
L 62.842013 7.2 
" style="fill: none; stroke: #cccccc; stroke-width: 1.25; stroke-linejoin: miter; stroke-linecap: square"/>
   </g>
   <g id="patch_56">
    <path d="M 62.842013 139.993706 
L 557.28 139.993706 
" style="fill: none; stroke: #cccccc; stroke-width: 1.25; stroke-linejoin: miter; stroke-linecap: square"/>
   </g>
   <g id="legend_1">
    <g id="patch_57">
     <path d="M 70.542013 46.661789 
L 135.483312 46.661789 
Q 137.683312 46.661789 137.683312 44.461789 
L 137.683312 14.9 
Q 137.683312 12.7 135.483312 12.7 
L 70.542013 12.7 
Q 68.342013 12.7 68.342013 14.9 
L 68.342013 44.461789 
Q 68.342013 46.661789 70.542013 46.661789 
z
" style="fill: #ffffff; opacity: 0.8; stroke: #cccccc; stroke-linejoin: miter"/>
    </g>
    <g id="patch_58">
     <path d="M 72.742013 24.8 
L 94.742013 24.8 
L 94.742013 17.1 
L 72.742013 17.1 
z
" style="fill: #4c72b0; stroke: #ffffff; stroke-linejoin: miter"/>
    </g>
    <g id="text_32">
     <!-- Elision -->
     <g style="fill: #262626" transform="translate(103.542013 24.8) scale(0.11 -0.11)">
      <defs>
       <path id="CMSS17-45" d="M 1958 433 
C 1446 433 1216 433 1101 433 
L 1101 2107 
L 3085 2107 
L 3085 2496 
L 1101 2496 
L 1101 4009 
L 1926 4009 
C 2003 4009 2080 4009 2157 4009 
L 3251 4009 
L 3251 4416 
L 563 4416 
L 563 0 
L 3334 0 
L 3334 433 
L 1958 433 
z
" transform="scale(0.015625)"/>
      </defs>
      <use xlink:href="#CMSS17-45" transform="scale(0.996264)"/>
      <use xlink:href="#CMSS17-6c" transform="translate(55.892013 0) scale(0.996264)"/>
      <use xlink:href="#CMSS17-69" transform="translate(78.072736 0) scale(0.996264)"/>
      <use xlink:href="#CMSS17-73" transform="translate(100.253459 0) scale(0.996264)"/>
      <use xlink:href="#CMSS17-69" transform="translate(136.167001 0) scale(0.996264)"/>
      <use xlink:href="#CMSS17-6f" transform="translate(158.347724 0) scale(0.996264)"/>
      <use xlink:href="#CMSS17-6e" transform="translate(205.191348 0) scale(0.996264)"/>
     </g>
    </g>
    <g id="patch_59">
     <path d="M 72.742013 40.130895 
L 94.742013 40.130895 
L 94.742013 32.430895 
L 72.742013 32.430895 
z
" style="fill: #dd8452; stroke: #ffffff; stroke-linejoin: miter"/>
    </g>
    <g id="text_33">
     <!-- Naive -->
     <g style="fill: #262626" transform="translate(103.542013 40.130895) scale(0.11 -0.11)">
      <use xlink:href="#CMSS17-4e" transform="scale(0.996264)"/>
      <use xlink:href="#CMSS17-61" transform="translate(66.061519 0) scale(0.996264)"/>
      <use xlink:href="#CMSS17-69" transform="translate(110.98344 0) scale(0.996264)"/>
      <use xlink:href="#CMSS17-76" transform="translate(133.164163 0) scale(0.996264)"/>
      <use xlink:href="#CMSS17-65" transform="translate(176.164305 0) scale(0.996264)"/>
     </g>
    </g>
   </g>
  </g>
 </g>
 <defs>
  <clipPath id="p09745af7a0">
   <rect x="62.842013" y="7.2" width="494.437987" height="132.793706"/>
  </clipPath>
 </defs>
</svg>
