<?xml version="1.0" encoding="utf-8" standalone="no"?>
<!DOCTYPE svg PUBLIC "-//W3C//DTD SVG 1.1//EN"
  "http://www.w3.org/Graphics/SVG/1.1/DTD/svg11.dtd">
<svg xmlns:xlink="http://www.w3.org/1999/xlink" width="555.956391pt" height="204.637511pt" viewBox="0 0 555.956391 204.637511" xmlns="http://www.w3.org/2000/svg" version="1.1">
 <metadata>
  <rdf:RDF xmlns:dc="http://purl.org/dc/elements/1.1/" xmlns:cc="http://creativecommons.org/ns#" xmlns:rdf="http://www.w3.org/1999/02/22-rdf-syntax-ns#">
   <cc:Work>
    <dc:type rdf:resource="http://purl.org/dc/dcmitype/StillImage"/>
    <dc:date>2024-10-15T09:49:02.098902</dc:date>
    <dc:format>image/svg+xml</dc:format>
    <dc:creator>
     <cc:Agent>
      <dc:title>Matplotlib v3.9.2, https://matplotlib.org/</dc:title>
     </cc:Agent>
    </dc:creator>
   </cc:Work>
  </rdf:RDF>
 </metadata>
 <defs>
  <style type="text/css">*{stroke-linejoin: round; stroke-linecap: butt}</style>
 </defs>
 <g id="figure_1">
  <g id="patch_1">
   <path d="M 0 204.637511 
L 555.956391 204.637511 
L 555.956391 0 
L 0 0 
z
" style="fill: #ffffff"/>
  </g>
  <g id="axes_1">
   <g id="patch_2">
    <path d="M 57.362546 140.151217 
L 548.756391 140.151217 
L 548.756391 10.447225 
L 57.362546 10.447225 
z
" style="fill: #ffffff"/>
   </g>
   <g id="matplotlib.axis_1">
    <g id="xtick_1">
     <g id="line2d_1">
      <path d="M 69.507261 140.151217 
L 69.507261 10.447225 
" clip-path="url(#p261dde9b09)" style="fill: none; stroke: #cccccc; stroke-width: 0.25; stroke-linecap: round"/>
     </g>
     <g id="line2d_2">
      <defs>
       <path id="mf5e550f203" d="M 0 0 
L 0 6 
" style="stroke: #262626; stroke-width: 1.25"/>
      </defs>
      <g>
       <use xlink:href="#mf5e550f203" x="69.507261" y="140.151217" style="fill: #262626; stroke: #262626; stroke-width: 1.25"/>
      </g>
     </g>
     <g id="text_1">
      <!-- Bounce -->
      <g style="fill: #262626" transform="translate(44.064266 178.96877) rotate(-45) scale(0.11 -0.11)">
       <defs>
        <path id="CMSS17-42" d="M 570 4416 
L 570 0 
L 2163 0 
C 3034 0 3667 574 3667 1200 
C 3667 1685 3251 2176 2502 2317 
C 3334 2558 3501 3040 3501 3313 
C 3501 3883 2874 4416 1997 4416 
L 570 4416 
z
M 1088 2496 
L 1088 4059 
L 1824 4059 
C 2483 4059 3002 3724 3002 3306 
C 3002 2926 2592 2496 1766 2496 
L 1088 2496 
z
M 1088 357 
L 1088 2107 
L 1939 2107 
C 2630 2107 3162 1679 3162 1206 
C 3162 772 2694 357 1984 357 
L 1088 357 
z
" transform="scale(0.015625)"/>
        <path id="CMSS17-6f" d="M 2829 1356 
C 2829 2176 2221 2816 1504 2816 
C 768 2816 173 2157 173 1356 
C 173 544 787 -64 1498 -64 
C 2227 -64 2829 563 2829 1356 
z
M 1504 337 
C 1050 337 659 709 659 1408 
C 659 2151 1114 2427 1498 2427 
C 1914 2427 2342 2126 2342 1408 
C 2342 683 1926 337 1504 337 
z
" transform="scale(0.015625)"/>
        <path id="CMSS17-75" d="M 2618 2739 
L 2131 2739 
L 2131 972 
C 2131 498 1786 306 1421 306 
C 998 306 960 447 960 709 
L 960 2739 
L 474 2739 
L 474 678 
C 474 179 646 -64 1088 -64 
C 1306 -64 1798 -13 2144 306 
L 2144 0 
L 2618 0 
L 2618 2739 
z
" transform="scale(0.015625)"/>
        <path id="CMSS17-6e" d="M 2618 1877 
C 2618 2283 2522 2816 1798 2816 
C 1389 2816 1120 2606 941 2389 
L 941 2758 
L 474 2758 
L 474 0 
L 960 0 
L 960 1559 
C 960 1964 1114 2428 1549 2428 
C 2112 2428 2131 2048 2131 1829 
L 2131 0 
L 2618 0 
L 2618 1877 
z
" transform="scale(0.015625)"/>
        <path id="CMSS17-63" d="M 2464 2541 
C 2464 2585 2170 2714 2093 2739 
C 1882 2816 1613 2816 1542 2816 
C 710 2816 211 2093 211 1363 
C 211 595 768 -64 1517 -64 
C 1946 -64 2253 76 2502 242 
L 2464 664 
C 2189 453 1869 337 1523 337 
C 1024 337 698 774 698 1369 
C 698 1831 909 2414 1549 2414 
C 1901 2414 2099 2343 2394 2145 
L 2464 2541 
z
" transform="scale(0.015625)"/>
        <path id="CMSS17-65" d="M 2502 1377 
C 2502 1590 2490 2003 2285 2345 
C 2061 2713 1696 2816 1421 2816 
C 755 2816 192 2188 192 1375 
C 192 582 774 -64 1510 -64 
C 1798 -64 2150 19 2470 248 
C 2470 274 2458 414 2451 420 
C 2451 433 2432 630 2432 656 
C 2125 407 1773 325 1517 325 
C 1107 325 666 667 646 1377 
L 2502 1377 
z
M 698 1728 
C 781 2084 1062 2421 1421 2421 
C 1517 2421 1965 2421 2080 1728 
L 698 1728 
z
" transform="scale(0.015625)"/>
       </defs>
       <use xlink:href="#CMSS17-42" transform="scale(0.996264)"/>
       <use xlink:href="#CMSS17-6f" transform="translate(62.33804 0) scale(0.996264)"/>
       <use xlink:href="#CMSS17-75" transform="translate(109.181664 0) scale(0.996264)"/>
       <use xlink:href="#CMSS17-6e" transform="translate(157.386607 0) scale(0.996264)"/>
       <use xlink:href="#CMSS17-63" transform="translate(205.59155 0) scale(0.996264)"/>
       <use xlink:href="#CMSS17-65" transform="translate(247.230372 0) scale(0.996264)"/>
      </g>
     </g>
    </g>
    <g id="xtick_2">
     <g id="line2d_3">
      <path d="M 88.191437 140.151217 
L 88.191437 10.447225 
" clip-path="url(#p261dde9b09)" style="fill: none; stroke: #cccccc; stroke-width: 0.25; stroke-linecap: round"/>
     </g>
     <g id="line2d_4">
      <g>
       <use xlink:href="#mf5e550f203" x="88.191437" y="140.151217" style="fill: #262626; stroke: #262626; stroke-width: 1.25"/>
      </g>
     </g>
     <g id="text_2">
      <!-- BubbleSort -->
      <g style="fill: #262626" transform="translate(50.801882 190.91533) rotate(-45) scale(0.11 -0.11)">
       <defs>
        <path id="CMSS17-62" d="M 954 4416 
L 480 4416 
L 480 -13 
L 966 -13 
L 966 274 
C 1210 38 1504 -64 1766 -64 
C 2381 -64 2880 549 2880 1352 
C 2880 2086 2496 2756 1926 2756 
C 1523 2756 1165 2591 954 2419 
L 954 4416 
z
M 966 2046 
C 1107 2222 1306 2368 1587 2368 
C 1965 2368 2394 2097 2394 1352 
C 2394 558 1882 325 1530 325 
C 1402 325 1267 356 1139 464 
C 966 615 966 709 966 797 
L 966 2046 
z
" transform="scale(0.015625)"/>
        <path id="CMSS17-6c" d="M 947 4416 
L 474 4416 
L 474 0 
L 947 0 
L 947 4416 
z
" transform="scale(0.015625)"/>
        <path id="CMSS17-53" d="M 2797 4169 
C 2515 4334 2208 4480 1690 4480 
C 864 4480 333 3879 333 3266 
C 333 3025 403 2753 653 2475 
C 902 2196 1184 2121 1542 2033 
C 1690 1994 1939 1924 1984 1906 
C 2342 1767 2515 1444 2515 1140 
C 2515 742 2202 318 1645 318 
C 1453 318 890 318 358 819 
L 269 318 
C 794 -64 1363 -128 1651 -128 
C 2438 -128 3002 488 3002 1186 
C 3002 1440 2925 1763 2656 2061 
C 2394 2347 2163 2410 1638 2549 
C 1338 2626 1146 2677 986 2873 
C 877 3013 819 3146 819 3317 
C 819 3673 1126 4060 1690 4060 
C 1971 4060 2336 4002 2707 3660 
L 2797 4169 
z
" transform="scale(0.015625)"/>
        <path id="CMSS17-72" d="M 954 1363 
C 954 1965 1395 2368 1958 2368 
L 1958 2789 
C 1549 2789 1165 2585 934 2253 
L 934 2758 
L 480 2758 
L 480 0 
L 954 0 
L 954 1363 
z
" transform="scale(0.015625)"/>
        <path id="CMSS17-74" d="M 1069 2368 
L 1901 2368 
L 1901 2737 
L 1069 2737 
L 1069 3520 
L 614 3520 
L 614 2737 
L 109 2737 
L 109 2368 
L 602 2368 
L 602 749 
C 602 384 685 -64 1107 -64 
C 1427 -64 1722 25 2003 172 
L 1901 548 
C 1747 414 1562 337 1363 337 
C 1082 337 1069 696 1069 856 
L 1069 2368 
z
" transform="scale(0.015625)"/>
       </defs>
       <use xlink:href="#CMSS17-42" transform="scale(0.996264)"/>
       <use xlink:href="#CMSS17-75" transform="translate(62.33804 0) scale(0.996264)"/>
       <use xlink:href="#CMSS17-62" transform="translate(110.542983 0) scale(0.996264)"/>
       <use xlink:href="#CMSS17-62" transform="translate(158.747926 0) scale(0.996264)"/>
       <use xlink:href="#CMSS17-6c" transform="translate(206.95287 0) scale(0.996264)"/>
       <use xlink:href="#CMSS17-65" transform="translate(229.133593 0) scale(0.996264)"/>
       <use xlink:href="#CMSS17-53" transform="translate(270.772415 0) scale(0.996264)"/>
       <use xlink:href="#CMSS17-6f" transform="translate(322.820931 0) scale(0.996264)"/>
       <use xlink:href="#CMSS17-72" transform="translate(367.0621 0) scale(0.996264)"/>
       <use xlink:href="#CMSS17-74" transform="translate(398.971873 0) scale(0.996264)"/>
      </g>
     </g>
    </g>
    <g id="xtick_3">
     <g id="line2d_5">
      <path d="M 106.875614 140.151217 
L 106.875614 10.447225 
" clip-path="url(#p261dde9b09)" style="fill: none; stroke: #cccccc; stroke-width: 0.25; stroke-linecap: round"/>
     </g>
     <g id="line2d_6">
      <g>
       <use xlink:href="#mf5e550f203" x="106.875614" y="140.151217" style="fill: #262626; stroke: #262626; stroke-width: 1.25"/>
      </g>
     </g>
     <g id="text_3">
      <!-- DeltaBlue -->
      <g style="fill: #262626" transform="translate(73.48978 186.911609) rotate(-45) scale(0.11 -0.11)">
       <defs>
        <path id="CMSS17-44" d="M 570 4416 
L 570 0 
L 2144 0 
C 3194 0 4000 980 4000 2170 
C 4000 3398 3194 4416 2144 4416 
L 570 4416 
z
M 1094 357 
L 1094 4059 
L 2003 4059 
C 2861 4059 3475 3277 3475 2170 
C 3475 1107 2867 357 2003 357 
L 1094 357 
z
" transform="scale(0.015625)"/>
        <path id="CMSS17-61" d="M 2406 1791 
C 2406 2392 1978 2808 1402 2808 
C 1120 2808 813 2757 461 2553 
L 499 2135 
C 659 2248 934 2432 1395 2432 
C 1722 2432 1920 2180 1920 1782 
L 1920 1536 
C 896 1536 256 1238 256 726 
C 256 461 416 -64 947 -64 
C 1043 -64 1562 -64 1933 217 
L 1933 -19 
L 2406 -19 
L 2406 1791 
z
M 1920 816 
C 1920 701 1920 548 1728 434 
C 1562 325 1350 325 1261 325 
C 941 325 723 511 723 744 
C 723 1211 1722 1211 1920 1211 
L 1920 816 
z
" transform="scale(0.015625)"/>
       </defs>
       <use xlink:href="#CMSS17-44" transform="scale(0.996264)"/>
       <use xlink:href="#CMSS17-65" transform="translate(67.542842 0) scale(0.996264)"/>
       <use xlink:href="#CMSS17-6c" transform="translate(109.181664 0) scale(0.996264)"/>
       <use xlink:href="#CMSS17-74" transform="translate(131.362387 0) scale(0.996264)"/>
       <use xlink:href="#CMSS17-61" transform="translate(165.193953 0) scale(0.996264)"/>
       <use xlink:href="#CMSS17-42" transform="translate(210.115874 0) scale(0.996264)"/>
       <use xlink:href="#CMSS17-6c" transform="translate(272.453914 0) scale(0.996264)"/>
       <use xlink:href="#CMSS17-75" transform="translate(294.634637 0) scale(0.996264)"/>
       <use xlink:href="#CMSS17-65" transform="translate(342.83958 0) scale(0.996264)"/>
      </g>
     </g>
    </g>
    <g id="xtick_4">
     <g id="line2d_7">
      <path d="M 125.559791 140.151217 
L 125.559791 10.447225 
" clip-path="url(#p261dde9b09)" style="fill: none; stroke: #cccccc; stroke-width: 0.25; stroke-linecap: round"/>
     </g>
     <g id="line2d_8">
      <g>
       <use xlink:href="#mf5e550f203" x="125.559791" y="140.151217" style="fill: #262626; stroke: #262626; stroke-width: 1.25"/>
      </g>
     </g>
     <g id="text_4">
      <!-- Dispatch -->
      <g style="fill: #262626" transform="translate(95.661067 183.424498) rotate(-45) scale(0.11 -0.11)">
       <defs>
        <path id="CMSS17-69" d="M 979 4183 
L 442 4183 
L 442 3648 
L 979 3648 
L 979 4183 
z
M 947 2739 
L 474 2739 
L 474 0 
L 947 0 
L 947 2739 
z
" transform="scale(0.015625)"/>
        <path id="CMSS17-73" d="M 2061 2627 
C 1683 2807 1389 2807 1197 2807 
C 742 2807 198 2648 198 2003 
C 198 1359 902 1218 1094 1179 
C 1389 1122 1715 1058 1715 740 
C 1715 337 1254 337 1171 337 
C 915 337 563 407 243 638 
L 166 210 
C 531 0 883 -64 1178 -64 
C 1965 -64 2163 416 2163 781 
C 2163 1094 1984 1305 1862 1401 
C 1651 1568 1574 1587 1050 1696 
C 960 1709 646 1779 646 2066 
C 646 2432 1050 2432 1139 2432 
C 1555 2432 1811 2303 1984 2208 
L 2061 2627 
z
" transform="scale(0.015625)"/>
        <path id="CMSS17-70" d="M 966 333 
C 1178 129 1466 -5 1773 -5 
C 2368 -5 2880 603 2880 1412 
C 2880 2159 2496 2816 1946 2816 
C 1626 2816 1242 2702 954 2472 
L 954 2765 
L 480 2765 
L 480 -1216 
L 966 -1216 
L 966 333 
z
M 966 2100 
C 1018 2176 1235 2415 1587 2415 
C 2035 2415 2394 1960 2394 1412 
C 2394 787 1958 384 1530 384 
C 1402 384 1267 415 1139 523 
C 966 674 966 768 966 857 
L 966 2100 
z
" transform="scale(0.015625)"/>
        <path id="CMSS17-68" d="M 2618 1891 
C 2618 2292 2522 2820 1798 2820 
C 1395 2820 1133 2623 947 2407 
L 947 4448 
L 474 4448 
L 474 32 
L 960 32 
L 960 1573 
C 960 1973 1114 2432 1549 2432 
C 2112 2432 2131 2056 2131 1839 
L 2131 32 
L 2618 32 
L 2618 1891 
z
" transform="scale(0.015625)"/>
       </defs>
       <use xlink:href="#CMSS17-44" transform="scale(0.996264)"/>
       <use xlink:href="#CMSS17-69" transform="translate(67.542842 0) scale(0.996264)"/>
       <use xlink:href="#CMSS17-73" transform="translate(89.723565 0) scale(0.996264)"/>
       <use xlink:href="#CMSS17-70" transform="translate(125.637107 0) scale(0.996264)"/>
       <use xlink:href="#CMSS17-61" transform="translate(173.84205 0) scale(0.996264)"/>
       <use xlink:href="#CMSS17-74" transform="translate(218.76397 0) scale(0.996264)"/>
       <use xlink:href="#CMSS17-63" transform="translate(252.595537 0) scale(0.996264)"/>
       <use xlink:href="#CMSS17-68" transform="translate(294.234359 0) scale(0.996264)"/>
      </g>
     </g>
    </g>
    <g id="xtick_5">
     <g id="line2d_9">
      <path d="M 144.243967 140.151217 
L 144.243967 10.447225 
" clip-path="url(#p261dde9b09)" style="fill: none; stroke: #cccccc; stroke-width: 0.25; stroke-linecap: round"/>
     </g>
     <g id="line2d_10">
      <g>
       <use xlink:href="#mf5e550f203" x="144.243967" y="140.151217" style="fill: #262626; stroke: #262626; stroke-width: 1.25"/>
      </g>
     </g>
     <g id="text_5">
      <!-- Fannkuch -->
      <g style="fill: #262626" transform="translate(111.568446 186.201296) rotate(-45) scale(0.11 -0.11)">
       <defs>
        <path id="CMSS17-46" d="M 2918 1984 
L 2918 2373 
L 1101 2373 
L 1101 3968 
L 1882 3968 
C 1958 3968 2035 3968 2112 3968 
L 3168 3968 
L 3168 4375 
L 563 4375 
L 563 -32 
L 1101 -32 
L 1101 1984 
L 2918 1984 
z
" transform="scale(0.015625)"/>
        <path id="CMSS17-6b" d="M 1696 1688 
L 2688 2739 
L 2074 2739 
L 954 1554 
L 954 4416 
L 480 4416 
L 480 0 
L 947 0 
L 947 892 
L 1376 1344 
L 2278 0 
L 2822 0 
L 1696 1688 
z
" transform="scale(0.015625)"/>
       </defs>
       <use xlink:href="#CMSS17-46" transform="scale(0.996264)"/>
       <use xlink:href="#CMSS17-61" transform="translate(50.687105 0) scale(0.996264)"/>
       <use xlink:href="#CMSS17-6e" transform="translate(95.609026 0) scale(0.996264)"/>
       <use xlink:href="#CMSS17-6e" transform="translate(143.813969 0) scale(0.996264)"/>
       <use xlink:href="#CMSS17-6b" transform="translate(192.018912 0) scale(0.996264)"/>
       <use xlink:href="#CMSS17-75" transform="translate(237.621401 0) scale(0.996264)"/>
       <use xlink:href="#CMSS17-63" transform="translate(285.826345 0) scale(0.996264)"/>
       <use xlink:href="#CMSS17-68" transform="translate(327.465167 0) scale(0.996264)"/>
      </g>
     </g>
    </g>
    <g id="xtick_6">
     <g id="line2d_11">
      <path d="M 162.928144 140.151217 
L 162.928144 10.447225 
" clip-path="url(#p261dde9b09)" style="fill: none; stroke: #cccccc; stroke-width: 0.25; stroke-linecap: round"/>
     </g>
     <g id="line2d_12">
      <g>
       <use xlink:href="#mf5e550f203" x="162.928144" y="140.151217" style="fill: #262626; stroke: #262626; stroke-width: 1.25"/>
      </g>
     </g>
     <g id="text_6">
      <!-- Fibonacci -->
      <g style="fill: #262626" transform="translate(130.59704 185.856878) rotate(-45) scale(0.11 -0.11)">
       <use xlink:href="#CMSS17-46" transform="scale(0.996264)"/>
       <use xlink:href="#CMSS17-69" transform="translate(53.289559 0) scale(0.996264)"/>
       <use xlink:href="#CMSS17-62" transform="translate(75.470282 0) scale(0.996264)"/>
       <use xlink:href="#CMSS17-6f" transform="translate(126.277664 0) scale(0.996264)"/>
       <use xlink:href="#CMSS17-6e" transform="translate(173.121288 0) scale(0.996264)"/>
       <use xlink:href="#CMSS17-61" transform="translate(221.326231 0) scale(0.996264)"/>
       <use xlink:href="#CMSS17-63" transform="translate(266.248151 0) scale(0.996264)"/>
       <use xlink:href="#CMSS17-63" transform="translate(307.886974 0) scale(0.996264)"/>
       <use xlink:href="#CMSS17-69" transform="translate(349.525796 0) scale(0.996264)"/>
      </g>
     </g>
    </g>
    <g id="xtick_7">
     <g id="line2d_13">
      <path d="M 181.61232 140.151217 
L 181.61232 10.447225 
" clip-path="url(#p261dde9b09)" style="fill: none; stroke: #cccccc; stroke-width: 0.25; stroke-linecap: round"/>
     </g>
     <g id="line2d_14">
      <g>
       <use xlink:href="#mf5e550f203" x="181.61232" y="140.151217" style="fill: #262626; stroke: #262626; stroke-width: 1.25"/>
      </g>
     </g>
     <g id="text_7">
      <!-- FieldLoop -->
      <g style="fill: #262626" transform="translate(148.377149 186.760947) rotate(-45) scale(0.11 -0.11)">
       <defs>
        <path id="CMSS17-64" d="M 2611 4416 
L 2138 4416 
L 2138 2438 
C 1939 2603 1613 2756 1254 2756 
C 672 2756 211 2131 211 1347 
C 211 562 666 -64 1235 -64 
C 1677 -64 1971 172 2125 306 
L 2125 -13 
L 2611 -13 
L 2611 4416 
z
M 2125 836 
C 2125 747 2125 653 1926 482 
C 1798 375 1645 325 1498 325 
C 1152 325 698 576 698 1340 
C 698 2134 1210 2368 1562 2368 
C 1798 2368 1990 2254 2125 2065 
L 2125 836 
z
" transform="scale(0.015625)"/>
        <path id="CMSS17-4c" d="M 1670 414 
C 1594 414 1517 414 1440 414 
L 1101 414 
L 1101 4416 
L 563 4416 
L 563 0 
L 3002 0 
L 3002 414 
L 1670 414 
z
" transform="scale(0.015625)"/>
       </defs>
       <use xlink:href="#CMSS17-46" transform="scale(0.996264)"/>
       <use xlink:href="#CMSS17-69" transform="translate(53.289559 0) scale(0.996264)"/>
       <use xlink:href="#CMSS17-65" transform="translate(75.470282 0) scale(0.996264)"/>
       <use xlink:href="#CMSS17-6c" transform="translate(117.109104 0) scale(0.996264)"/>
       <use xlink:href="#CMSS17-64" transform="translate(139.289827 0) scale(0.996264)"/>
       <use xlink:href="#CMSS17-4c" transform="translate(187.494771 0) scale(0.996264)"/>
       <use xlink:href="#CMSS17-6f" transform="translate(238.181876 0) scale(0.996264)"/>
       <use xlink:href="#CMSS17-6f" transform="translate(287.627938 0) scale(0.996264)"/>
       <use xlink:href="#CMSS17-70" transform="translate(334.471562 0) scale(0.996264)"/>
      </g>
     </g>
    </g>
    <g id="xtick_8">
     <g id="line2d_15">
      <path d="M 200.296497 140.151217 
L 200.296497 10.447225 
" clip-path="url(#p261dde9b09)" style="fill: none; stroke: #cccccc; stroke-width: 0.25; stroke-linecap: round"/>
     </g>
     <g id="line2d_16">
      <g>
       <use xlink:href="#mf5e550f203" x="200.296497" y="140.151217" style="fill: #262626; stroke: #262626; stroke-width: 1.25"/>
      </g>
     </g>
     <g id="text_8">
      <!-- GraphSearch -->
      <g style="fill: #262626" transform="translate(157.891531 195.930741) rotate(-45) scale(0.11 -0.11)">
       <defs>
        <path id="CMSS17-47" d="M 3610 1856 
L 2336 1856 
L 2336 1461 
L 3123 1461 
L 3123 471 
C 2874 401 2618 350 2362 350 
C 1466 350 934 1301 934 2200 
C 934 3095 1491 4032 2362 4032 
C 2854 4032 3130 3881 3469 3627 
L 3552 4134 
C 3130 4351 2867 4440 2387 4440 
C 1146 4440 397 3324 397 2182 
C 397 1090 1152 -64 2349 -64 
C 2797 -64 3213 51 3610 248 
L 3610 1856 
z
" transform="scale(0.015625)"/>
       </defs>
       <use xlink:href="#CMSS17-47" transform="scale(0.996264)"/>
       <use xlink:href="#CMSS17-72" transform="translate(62.458226 0) scale(0.996264)"/>
       <use xlink:href="#CMSS17-61" transform="translate(94.367998 0) scale(0.996264)"/>
       <use xlink:href="#CMSS17-70" transform="translate(139.289919 0) scale(0.996264)"/>
       <use xlink:href="#CMSS17-68" transform="translate(187.494862 0) scale(0.996264)"/>
       <use xlink:href="#CMSS17-53" transform="translate(235.699805 0) scale(0.996264)"/>
       <use xlink:href="#CMSS17-65" transform="translate(287.748321 0) scale(0.996264)"/>
       <use xlink:href="#CMSS17-61" transform="translate(329.387143 0) scale(0.996264)"/>
       <use xlink:href="#CMSS17-72" transform="translate(371.70661 0) scale(0.996264)"/>
       <use xlink:href="#CMSS17-63" transform="translate(403.616382 0) scale(0.996264)"/>
       <use xlink:href="#CMSS17-68" transform="translate(445.255204 0) scale(0.996264)"/>
      </g>
     </g>
    </g>
    <g id="xtick_9">
     <g id="line2d_17">
      <path d="M 218.980674 140.151217 
L 218.980674 10.447225 
" clip-path="url(#p261dde9b09)" style="fill: none; stroke: #cccccc; stroke-width: 0.25; stroke-linecap: round"/>
     </g>
     <g id="line2d_18">
      <g>
       <use xlink:href="#mf5e550f203" x="218.980674" y="140.151217" style="fill: #262626; stroke: #262626; stroke-width: 1.25"/>
      </g>
     </g>
     <g id="text_9">
      <!-- IntegerLoop -->
      <g style="fill: #262626" transform="translate(178.943484 193.562964) rotate(-45) scale(0.11 -0.11)">
       <defs>
        <path id="CMSS17-49" d="M 1094 4416 
L 557 4416 
L 557 0 
L 1094 0 
L 1094 4416 
z
" transform="scale(0.015625)"/>
        <path id="CMSS17-67" d="M 2848 2808 
C 2483 2808 2170 2738 1914 2617 
C 1702 2777 1485 2808 1338 2808 
C 781 2808 358 2349 358 1814 
C 358 1468 550 1207 563 1195 
C 448 1035 384 863 384 672 
C 384 448 474 289 544 200 
C 211 -3 166 -314 166 -435 
C 166 -898 749 -1280 1498 -1280 
C 2253 -1280 2835 -898 2835 -428 
C 2835 448 1856 448 1587 448 
L 1069 448 
C 973 448 717 448 717 791 
C 717 921 774 1004 781 1010 
C 877 940 1075 832 1338 832 
C 1869 832 2310 1278 2310 1827 
C 2310 2132 2170 2355 2112 2432 
L 2131 2432 
C 2150 2432 2419 2432 2515 2432 
C 2720 2432 2739 2429 2918 2419 
L 2848 2808 
z
M 1338 1182 
C 1120 1182 813 1315 813 1823 
C 813 2375 1165 2464 1331 2464 
C 1549 2464 1856 2331 1856 1823 
C 1856 1271 1504 1182 1338 1182 
z
M 1581 -10 
C 1734 -10 2381 -10 2381 -442 
C 2381 -714 1984 -929 1504 -929 
C 1018 -929 621 -720 621 -435 
C 621 -403 621 -10 1062 -10 
L 1581 -10 
z
" transform="scale(0.015625)"/>
       </defs>
       <use xlink:href="#CMSS17-49" transform="scale(0.996264)"/>
       <use xlink:href="#CMSS17-6e" transform="translate(25.783926 0) scale(0.996264)"/>
       <use xlink:href="#CMSS17-74" transform="translate(73.988869 0) scale(0.996264)"/>
       <use xlink:href="#CMSS17-65" transform="translate(107.820435 0) scale(0.996264)"/>
       <use xlink:href="#CMSS17-67" transform="translate(149.459257 0) scale(0.996264)"/>
       <use xlink:href="#CMSS17-65" transform="translate(196.302881 0) scale(0.996264)"/>
       <use xlink:href="#CMSS17-72" transform="translate(237.941703 0) scale(0.996264)"/>
       <use xlink:href="#CMSS17-4c" transform="translate(269.851476 0) scale(0.996264)"/>
       <use xlink:href="#CMSS17-6f" transform="translate(320.538581 0) scale(0.996264)"/>
       <use xlink:href="#CMSS17-6f" transform="translate(369.984643 0) scale(0.996264)"/>
       <use xlink:href="#CMSS17-70" transform="translate(416.828267 0) scale(0.996264)"/>
      </g>
     </g>
    </g>
    <g id="xtick_10">
     <g id="line2d_19">
      <path d="M 237.66485 140.151217 
L 237.66485 10.447225 
" clip-path="url(#p261dde9b09)" style="fill: none; stroke: #cccccc; stroke-width: 0.25; stroke-linecap: round"/>
     </g>
     <g id="line2d_20">
      <g>
       <use xlink:href="#mf5e550f203" x="237.66485" y="140.151217" style="fill: #262626; stroke: #262626; stroke-width: 1.25"/>
      </g>
     </g>
     <g id="text_10">
      <!-- JsonSmall -->
      <g style="fill: #262626" transform="translate(203.762406 187.428219) rotate(-45) scale(0.11 -0.11)">
       <defs>
        <path id="CMSS17-4a" d="M 2336 4384 
L 1811 4384 
L 1811 940 
C 1811 636 1683 261 1107 261 
C 781 261 506 414 333 604 
L 250 140 
C 646 -71 1011 -128 1280 -128 
C 1901 -128 2336 228 2336 920 
L 2336 4384 
z
" transform="scale(0.015625)"/>
        <path id="CMSS17-6d" d="M 4288 1877 
C 4288 2308 4179 2816 3462 2816 
C 2982 2816 2694 2516 2566 2331 
C 2451 2670 2182 2816 1798 2816 
C 1363 2816 1088 2568 941 2389 
L 941 2758 
L 474 2758 
L 474 0 
L 960 0 
L 960 1559 
C 960 1939 1101 2428 1555 2428 
C 2138 2428 2138 2016 2138 1829 
L 2138 0 
L 2624 0 
L 2624 1559 
C 2624 1939 2765 2428 3219 2428 
C 3802 2428 3802 2016 3802 1829 
L 3802 0 
L 4288 0 
L 4288 1877 
z
" transform="scale(0.015625)"/>
       </defs>
       <use xlink:href="#CMSS17-4a" transform="scale(0.996264)"/>
       <use xlink:href="#CMSS17-73" transform="translate(44.121076 0) scale(0.996264)"/>
       <use xlink:href="#CMSS17-6f" transform="translate(80.034617 0) scale(0.996264)"/>
       <use xlink:href="#CMSS17-6e" transform="translate(126.878241 0) scale(0.996264)"/>
       <use xlink:href="#CMSS17-53" transform="translate(175.083184 0) scale(0.996264)"/>
       <use xlink:href="#CMSS17-6d" transform="translate(227.1317 0) scale(0.996264)"/>
       <use xlink:href="#CMSS17-61" transform="translate(301.360955 0) scale(0.996264)"/>
       <use xlink:href="#CMSS17-6c" transform="translate(346.282875 0) scale(0.996264)"/>
       <use xlink:href="#CMSS17-6c" transform="translate(368.463598 0) scale(0.996264)"/>
      </g>
     </g>
    </g>
    <g id="xtick_11">
     <g id="line2d_21">
      <path d="M 256.349027 140.151217 
L 256.349027 10.447225 
" clip-path="url(#p261dde9b09)" style="fill: none; stroke: #cccccc; stroke-width: 0.25; stroke-linecap: round"/>
     </g>
     <g id="line2d_22">
      <g>
       <use xlink:href="#mf5e550f203" x="256.349027" y="140.151217" style="fill: #262626; stroke: #262626; stroke-width: 1.25"/>
      </g>
     </g>
     <g id="text_11">
      <!-- List -->
      <g style="fill: #262626" transform="translate(243.024849 166.849952) rotate(-45) scale(0.11 -0.11)">
       <use xlink:href="#CMSS17-4c" transform="scale(0.996264)"/>
       <use xlink:href="#CMSS17-69" transform="translate(50.687105 0) scale(0.996264)"/>
       <use xlink:href="#CMSS17-73" transform="translate(72.867828 0) scale(0.996264)"/>
       <use xlink:href="#CMSS17-74" transform="translate(108.78137 0) scale(0.996264)"/>
      </g>
     </g>
    </g>
    <g id="xtick_12">
     <g id="line2d_23">
      <path d="M 275.033204 140.151217 
L 275.033204 10.447225 
" clip-path="url(#p261dde9b09)" style="fill: none; stroke: #cccccc; stroke-width: 0.25; stroke-linecap: round"/>
     </g>
     <g id="line2d_24">
      <g>
       <use xlink:href="#mf5e550f203" x="275.033204" y="140.151217" style="fill: #262626; stroke: #262626; stroke-width: 1.25"/>
      </g>
     </g>
     <g id="text_12">
      <!-- Loop -->
      <g style="fill: #262626" transform="translate(257.360876 171.198102) rotate(-45) scale(0.11 -0.11)">
       <use xlink:href="#CMSS17-4c" transform="scale(0.996264)"/>
       <use xlink:href="#CMSS17-6f" transform="translate(50.687105 0) scale(0.996264)"/>
       <use xlink:href="#CMSS17-6f" transform="translate(100.133168 0) scale(0.996264)"/>
       <use xlink:href="#CMSS17-70" transform="translate(146.976791 0) scale(0.996264)"/>
      </g>
     </g>
    </g>
    <g id="xtick_13">
     <g id="line2d_25">
      <path d="M 293.71738 140.151217 
L 293.71738 10.447225 
" clip-path="url(#p261dde9b09)" style="fill: none; stroke: #cccccc; stroke-width: 0.25; stroke-linecap: round"/>
     </g>
     <g id="line2d_26">
      <g>
       <use xlink:href="#mf5e550f203" x="293.71738" y="140.151217" style="fill: #262626; stroke: #262626; stroke-width: 1.25"/>
      </g>
     </g>
     <g id="text_13">
      <!-- Mandelbrot -->
      <g style="fill: #262626" transform="translate(255.294604 191.948551) rotate(-45) scale(0.11 -0.11)">
       <defs>
        <path id="CMSS17-4d" d="M 3194 2371 
L 2886 1473 
C 2835 1307 2662 791 2624 587 
L 2618 587 
C 2598 715 2560 849 2458 1174 
C 2400 1365 2336 1562 2272 1741 
L 1325 4416 
L 576 4416 
L 576 0 
L 1075 0 
L 1075 3900 
L 1082 3900 
C 1082 3894 1139 3613 1530 2499 
L 2374 96 
L 2848 96 
L 3610 2231 
C 3661 2378 3821 2843 3891 3066 
C 3955 3257 4115 3728 4154 3913 
L 4160 3913 
L 4160 0 
L 4666 0 
L 4666 4416 
L 3923 4416 
L 3194 2371 
z
" transform="scale(0.015625)"/>
       </defs>
       <use xlink:href="#CMSS17-4d" transform="scale(0.996264)"/>
       <use xlink:href="#CMSS17-61" transform="translate(81.67603 0) scale(0.996264)"/>
       <use xlink:href="#CMSS17-6e" transform="translate(126.597951 0) scale(0.996264)"/>
       <use xlink:href="#CMSS17-64" transform="translate(174.802894 0) scale(0.996264)"/>
       <use xlink:href="#CMSS17-65" transform="translate(223.007837 0) scale(0.996264)"/>
       <use xlink:href="#CMSS17-6c" transform="translate(264.646659 0) scale(0.996264)"/>
       <use xlink:href="#CMSS17-62" transform="translate(286.827382 0) scale(0.996264)"/>
       <use xlink:href="#CMSS17-72" transform="translate(332.429871 0) scale(0.996264)"/>
       <use xlink:href="#CMSS17-6f" transform="translate(364.339644 0) scale(0.996264)"/>
       <use xlink:href="#CMSS17-74" transform="translate(411.183267 0) scale(0.996264)"/>
      </g>
     </g>
    </g>
    <g id="xtick_14">
     <g id="line2d_27">
      <path d="M 312.401557 140.151217 
L 312.401557 10.447225 
" clip-path="url(#p261dde9b09)" style="fill: none; stroke: #cccccc; stroke-width: 0.25; stroke-linecap: round"/>
     </g>
     <g id="line2d_28">
      <g>
       <use xlink:href="#mf5e550f203" x="312.401557" y="140.151217" style="fill: #262626; stroke: #262626; stroke-width: 1.25"/>
      </g>
     </g>
     <g id="text_14">
      <!-- NBody -->
      <g style="fill: #262626" transform="translate(288.572954 177.354378) rotate(-45) scale(0.11 -0.11)">
       <defs>
        <path id="CMSS17-4e" d="M 1466 4180 
L 1350 4416 
L 563 4416 
L 563 0 
L 1062 0 
L 1062 3926 
L 1069 3932 
C 1114 3817 1139 3760 1402 3194 
L 2771 236 
L 2886 0 
L 3674 0 
L 3674 4416 
L 3174 4416 
L 3174 490 
L 3168 483 
C 3123 598 3098 655 2835 1221 
L 1466 4180 
z
" transform="scale(0.015625)"/>
        <path id="CMSS17-79" d="M 2675 2752 
L 2176 2752 
C 1632 1294 1446 702 1434 383 
L 1427 383 
C 1408 696 1126 1460 902 2007 
L 602 2752 
L 83 2752 
L 1216 13 
C 1146 -178 1043 -465 1011 -529 
C 870 -885 774 -885 672 -885 
C 646 -885 442 -885 211 -809 
L 250 -1229 
C 410 -1261 570 -1280 685 -1280 
C 845 -1280 1165 -1280 1459 -497 
L 2675 2752 
z
" transform="scale(0.015625)"/>
       </defs>
       <use xlink:href="#CMSS17-4e" transform="scale(0.996264)"/>
       <use xlink:href="#CMSS17-42" transform="translate(66.061519 0) scale(0.996264)"/>
       <use xlink:href="#CMSS17-6f" transform="translate(128.399559 0) scale(0.996264)"/>
       <use xlink:href="#CMSS17-64" transform="translate(177.845622 0) scale(0.996264)"/>
       <use xlink:href="#CMSS17-79" transform="translate(226.050565 0) scale(0.996264)"/>
      </g>
     </g>
    </g>
    <g id="xtick_15">
     <g id="line2d_29">
      <path d="M 331.085733 140.151217 
L 331.085733 10.447225 
" clip-path="url(#p261dde9b09)" style="fill: none; stroke: #cccccc; stroke-width: 0.25; stroke-linecap: round"/>
     </g>
     <g id="line2d_30">
      <g>
       <use xlink:href="#mf5e550f203" x="331.085733" y="140.151217" style="fill: #262626; stroke: #262626; stroke-width: 1.25"/>
      </g>
     </g>
     <g id="text_15">
      <!-- PageRank -->
      <g style="fill: #262626" transform="translate(297.28014 187.331368) rotate(-45) scale(0.11 -0.11)">
       <defs>
        <path id="CMSS17-50" d="M 2106 1856 
C 2874 1856 3501 2453 3501 3158 
C 3501 3850 2899 4453 2067 4453 
L 570 4453 
L 570 0 
L 1107 0 
L 1107 1856 
L 2106 1856 
z
M 1926 4096 
C 2669 4096 2995 3627 2995 3157 
C 2995 2720 2694 2226 1926 2226 
L 1094 2226 
L 1094 4096 
L 1926 4096 
z
" transform="scale(0.015625)"/>
        <path id="CMSS17-52" d="M 2522 2109 
L 2534 2115 
C 3533 2459 3539 3147 3539 3268 
C 3539 3873 2925 4453 2003 4453 
L 570 4453 
L 570 32 
L 1094 32 
L 1094 2048 
L 2035 2048 
L 3168 32 
L 3706 32 
L 2522 2109 
z
M 1094 2437 
L 1094 4096 
L 1933 4096 
C 2746 4096 3034 3637 3034 3267 
C 3034 2922 2778 2437 1933 2437 
L 1094 2437 
z
" transform="scale(0.015625)"/>
       </defs>
       <use xlink:href="#CMSS17-50" transform="scale(0.996264)"/>
       <use xlink:href="#CMSS17-61" transform="translate(57.133132 0) scale(0.996264)"/>
       <use xlink:href="#CMSS17-67" transform="translate(102.055053 0) scale(0.996264)"/>
       <use xlink:href="#CMSS17-65" transform="translate(148.898676 0) scale(0.996264)"/>
       <use xlink:href="#CMSS17-52" transform="translate(190.537499 0) scale(0.996264)"/>
       <use xlink:href="#CMSS17-61" transform="translate(250.953653 0) scale(0.996264)"/>
       <use xlink:href="#CMSS17-6e" transform="translate(295.875574 0) scale(0.996264)"/>
       <use xlink:href="#CMSS17-6b" transform="translate(344.080517 0) scale(0.996264)"/>
      </g>
     </g>
    </g>
    <g id="xtick_16">
     <g id="line2d_31">
      <path d="M 349.76991 140.151217 
L 349.76991 10.447225 
" clip-path="url(#p261dde9b09)" style="fill: none; stroke: #cccccc; stroke-width: 0.25; stroke-linecap: round"/>
     </g>
     <g id="line2d_32">
      <g>
       <use xlink:href="#mf5e550f203" x="349.76991" y="140.151217" style="fill: #262626; stroke: #262626; stroke-width: 1.25"/>
      </g>
     </g>
     <g id="text_16">
      <!-- Permute -->
      <g style="fill: #262626" transform="translate(321.03356 182.262124) rotate(-45) scale(0.11 -0.11)">
       <use xlink:href="#CMSS17-50" transform="scale(0.996264)"/>
       <use xlink:href="#CMSS17-65" transform="translate(57.133132 0) scale(0.996264)"/>
       <use xlink:href="#CMSS17-72" transform="translate(98.771954 0) scale(0.996264)"/>
       <use xlink:href="#CMSS17-6d" transform="translate(130.681727 0) scale(0.996264)"/>
       <use xlink:href="#CMSS17-75" transform="translate(204.910981 0) scale(0.996264)"/>
       <use xlink:href="#CMSS17-74" transform="translate(253.115925 0) scale(0.996264)"/>
       <use xlink:href="#CMSS17-65" transform="translate(286.947491 0) scale(0.996264)"/>
      </g>
     </g>
    </g>
    <g id="xtick_17">
     <g id="line2d_33">
      <path d="M 368.454087 140.151217 
L 368.454087 10.447225 
" clip-path="url(#p261dde9b09)" style="fill: none; stroke: #cccccc; stroke-width: 0.25; stroke-linecap: round"/>
     </g>
     <g id="line2d_34">
      <g>
       <use xlink:href="#mf5e550f203" x="368.454087" y="140.151217" style="fill: #262626; stroke: #262626; stroke-width: 1.25"/>
      </g>
     </g>
     <g id="text_17">
      <!-- Queens -->
      <g style="fill: #262626" transform="translate(343.37704 178.602821) rotate(-45) scale(0.11 -0.11)">
       <defs>
        <path id="CMSS17-51" d="M 3200 202 
C 3981 833 4096 1689 4096 2174 
C 4096 3501 3219 4497 2214 4497 
C 1210 4497 333 3497 333 2178 
C 333 847 1222 -128 2214 -128 
C 2438 -128 2630 -77 2765 -26 
L 3302 -832 
L 3930 -832 
L 3200 202 
z
M 2528 324 
C 2438 293 2330 273 2214 273 
C 1523 273 858 993 858 2178 
C 858 3357 1517 4096 2214 4096 
C 2918 4096 3571 3350 3571 2178 
C 3571 1771 3507 1089 2950 566 
L 2490 1210 
L 1939 1210 
L 2528 324 
z
" transform="scale(0.015625)"/>
       </defs>
       <use xlink:href="#CMSS17-51" transform="scale(0.996264)"/>
       <use xlink:href="#CMSS17-75" transform="translate(69.024255 0) scale(0.996264)"/>
       <use xlink:href="#CMSS17-65" transform="translate(117.229198 0) scale(0.996264)"/>
       <use xlink:href="#CMSS17-65" transform="translate(158.868021 0) scale(0.996264)"/>
       <use xlink:href="#CMSS17-6e" transform="translate(200.506843 0) scale(0.996264)"/>
       <use xlink:href="#CMSS17-73" transform="translate(248.711786 0) scale(0.996264)"/>
      </g>
     </g>
    </g>
    <g id="xtick_18">
     <g id="line2d_35">
      <path d="M 387.138263 140.151217 
L 387.138263 10.447225 
" clip-path="url(#p261dde9b09)" style="fill: none; stroke: #cccccc; stroke-width: 0.25; stroke-linecap: round"/>
     </g>
     <g id="line2d_36">
      <g>
       <use xlink:href="#mf5e550f203" x="387.138263" y="140.151217" style="fill: #262626; stroke: #262626; stroke-width: 1.25"/>
      </g>
     </g>
     <g id="text_18">
      <!-- QuickSort -->
      <g style="fill: #262626" transform="translate(353.429553 187.234485) rotate(-45) scale(0.11 -0.11)">
       <use xlink:href="#CMSS17-51" transform="scale(0.996264)"/>
       <use xlink:href="#CMSS17-75" transform="translate(69.024255 0) scale(0.996264)"/>
       <use xlink:href="#CMSS17-69" transform="translate(117.229198 0) scale(0.996264)"/>
       <use xlink:href="#CMSS17-63" transform="translate(139.409922 0) scale(0.996264)"/>
       <use xlink:href="#CMSS17-6b" transform="translate(181.048744 0) scale(0.996264)"/>
       <use xlink:href="#CMSS17-53" transform="translate(226.651233 0) scale(0.996264)"/>
       <use xlink:href="#CMSS17-6f" transform="translate(278.699749 0) scale(0.996264)"/>
       <use xlink:href="#CMSS17-72" transform="translate(322.940919 0) scale(0.996264)"/>
       <use xlink:href="#CMSS17-74" transform="translate(354.850691 0) scale(0.996264)"/>
      </g>
     </g>
    </g>
    <g id="xtick_19">
     <g id="line2d_37">
      <path d="M 405.82244 140.151217 
L 405.82244 10.447225 
" clip-path="url(#p261dde9b09)" style="fill: none; stroke: #cccccc; stroke-width: 0.25; stroke-linecap: round"/>
     </g>
     <g id="line2d_38">
      <g>
       <use xlink:href="#mf5e550f203" x="405.82244" y="140.151217" style="fill: #262626; stroke: #262626; stroke-width: 1.25"/>
      </g>
     </g>
     <g id="text_19">
      <!-- Recurse -->
      <g style="fill: #262626" transform="translate(379.356995 179.99122) rotate(-45) scale(0.11 -0.11)">
       <use xlink:href="#CMSS17-52" transform="scale(0.996264)"/>
       <use xlink:href="#CMSS17-65" transform="translate(60.416155 0) scale(0.996264)"/>
       <use xlink:href="#CMSS17-63" transform="translate(102.054977 0) scale(0.996264)"/>
       <use xlink:href="#CMSS17-75" transform="translate(143.693799 0) scale(0.996264)"/>
       <use xlink:href="#CMSS17-72" transform="translate(191.898742 0) scale(0.996264)"/>
       <use xlink:href="#CMSS17-73" transform="translate(223.808515 0) scale(0.996264)"/>
       <use xlink:href="#CMSS17-65" transform="translate(259.722057 0) scale(0.996264)"/>
      </g>
     </g>
    </g>
    <g id="xtick_20">
     <g id="line2d_39">
      <path d="M 424.506617 140.151217 
L 424.506617 10.447225 
" clip-path="url(#p261dde9b09)" style="fill: none; stroke: #cccccc; stroke-width: 0.25; stroke-linecap: round"/>
     </g>
     <g id="line2d_40">
      <g>
       <use xlink:href="#mf5e550f203" x="424.506617" y="140.151217" style="fill: #262626; stroke: #262626; stroke-width: 1.25"/>
      </g>
     </g>
     <g id="text_20">
      <!-- Richards -->
      <g style="fill: #262626" transform="translate(395.565773 182.466619) rotate(-45) scale(0.11 -0.11)">
       <use xlink:href="#CMSS17-52" transform="scale(0.996264)"/>
       <use xlink:href="#CMSS17-69" transform="translate(60.416155 0) scale(0.996264)"/>
       <use xlink:href="#CMSS17-63" transform="translate(82.596878 0) scale(0.996264)"/>
       <use xlink:href="#CMSS17-68" transform="translate(124.2357 0) scale(0.996264)"/>
       <use xlink:href="#CMSS17-61" transform="translate(172.440643 0) scale(0.996264)"/>
       <use xlink:href="#CMSS17-72" transform="translate(214.76011 0) scale(0.996264)"/>
       <use xlink:href="#CMSS17-64" transform="translate(246.669882 0) scale(0.996264)"/>
       <use xlink:href="#CMSS17-73" transform="translate(294.874825 0) scale(0.996264)"/>
      </g>
     </g>
    </g>
    <g id="xtick_21">
     <g id="line2d_41">
      <path d="M 443.190793 140.151217 
L 443.190793 10.447225 
" clip-path="url(#p261dde9b09)" style="fill: none; stroke: #cccccc; stroke-width: 0.25; stroke-linecap: round"/>
     </g>
     <g id="line2d_42">
      <g>
       <use xlink:href="#mf5e550f203" x="443.190793" y="140.151217" style="fill: #262626; stroke: #262626; stroke-width: 1.25"/>
      </g>
     </g>
     <g id="text_21">
      <!-- Sieve -->
      <g style="fill: #262626" transform="translate(425.066437 171.650131) rotate(-45) scale(0.11 -0.11)">
       <defs>
        <path id="CMSS17-76" d="M 2675 2752 
L 2176 2752 
L 1747 1556 
C 1613 1165 1421 627 1389 352 
L 1382 352 
C 1370 468 1318 634 1286 749 
C 1248 890 1197 1056 1158 1172 
L 595 2752 
L 83 2752 
L 1094 0 
L 1664 0 
L 2675 2752 
z
" transform="scale(0.015625)"/>
       </defs>
       <use xlink:href="#CMSS17-53" transform="scale(0.996264)"/>
       <use xlink:href="#CMSS17-69" transform="translate(52.048516 0) scale(0.996264)"/>
       <use xlink:href="#CMSS17-65" transform="translate(74.229239 0) scale(0.996264)"/>
       <use xlink:href="#CMSS17-76" transform="translate(115.868061 0) scale(0.996264)"/>
       <use xlink:href="#CMSS17-65" transform="translate(158.868203 0) scale(0.996264)"/>
      </g>
     </g>
    </g>
    <g id="xtick_22">
     <g id="line2d_43">
      <path d="M 461.87497 140.151217 
L 461.87497 10.447225 
" clip-path="url(#p261dde9b09)" style="fill: none; stroke: #cccccc; stroke-width: 0.25; stroke-linecap: round"/>
     </g>
     <g id="line2d_44">
      <g>
       <use xlink:href="#mf5e550f203" x="461.87497" y="140.151217" style="fill: #262626; stroke: #262626; stroke-width: 1.25"/>
      </g>
     </g>
     <g id="text_22">
      <!-- Storage -->
      <g style="fill: #262626" transform="translate(435.915397 179.485348) rotate(-45) scale(0.11 -0.11)">
       <use xlink:href="#CMSS17-53" transform="scale(0.996264)"/>
       <use xlink:href="#CMSS17-74" transform="translate(52.048516 0) scale(0.996264)"/>
       <use xlink:href="#CMSS17-6f" transform="translate(85.880083 0) scale(0.996264)"/>
       <use xlink:href="#CMSS17-72" transform="translate(130.121252 0) scale(0.996264)"/>
       <use xlink:href="#CMSS17-61" transform="translate(162.031025 0) scale(0.996264)"/>
       <use xlink:href="#CMSS17-67" transform="translate(206.952946 0) scale(0.996264)"/>
       <use xlink:href="#CMSS17-65" transform="translate(253.796569 0) scale(0.996264)"/>
      </g>
     </g>
    </g>
    <g id="xtick_23">
     <g id="line2d_45">
      <path d="M 480.559146 140.151217 
L 480.559146 10.447225 
" clip-path="url(#p261dde9b09)" style="fill: none; stroke: #cccccc; stroke-width: 0.25; stroke-linecap: round"/>
     </g>
     <g id="line2d_46">
      <g>
       <use xlink:href="#mf5e550f203" x="480.559146" y="140.151217" style="fill: #262626; stroke: #262626; stroke-width: 1.25"/>
      </g>
     </g>
     <g id="text_23">
      <!-- Sum -->
      <g style="fill: #262626" transform="translate(464.587324 169.497598) rotate(-45) scale(0.11 -0.11)">
       <use xlink:href="#CMSS17-53" transform="scale(0.996264)"/>
       <use xlink:href="#CMSS17-75" transform="translate(52.048516 0) scale(0.996264)"/>
       <use xlink:href="#CMSS17-6d" transform="translate(100.253459 0) scale(0.996264)"/>
      </g>
     </g>
    </g>
    <g id="xtick_24">
     <g id="line2d_47">
      <path d="M 499.243323 140.151217 
L 499.243323 10.447225 
" clip-path="url(#p261dde9b09)" style="fill: none; stroke: #cccccc; stroke-width: 0.25; stroke-linecap: round"/>
     </g>
     <g id="line2d_48">
      <g>
       <use xlink:href="#mf5e550f203" x="499.243323" y="140.151217" style="fill: #262626; stroke: #262626; stroke-width: 1.25"/>
      </g>
     </g>
     <g id="text_24">
      <!-- Towers -->
      <g style="fill: #262626" transform="translate(475.307141 177.461957) rotate(-45) scale(0.11 -0.11)">
       <defs>
        <path id="CMSS17-54" d="M 2317 3968 
L 2848 3968 
C 2925 3968 3002 3968 3078 3968 
L 3878 3968 
L 3878 4376 
L 218 4376 
L 218 3968 
L 1018 3968 
C 1094 3968 1171 3968 1248 3968 
L 1779 3968 
L 1779 -32 
L 2317 -32 
L 2317 3968 
z
" transform="scale(0.015625)"/>
        <path id="CMSS17-77" d="M 4013 2752 
L 3526 2752 
L 3187 1601 
C 3117 1358 2918 685 2893 371 
L 2886 371 
C 2874 564 2765 1024 2586 1633 
L 2259 2752 
L 1818 2752 
L 1498 1658 
C 1338 1101 1216 627 1203 371 
L 1197 371 
C 1171 749 909 1633 870 1773 
L 582 2752 
L 83 2752 
L 915 0 
L 1402 0 
C 1734 1096 1990 1943 2010 2370 
C 2022 2160 2131 1707 2195 1484 
L 2618 0 
L 3181 0 
L 4013 2752 
z
" transform="scale(0.015625)"/>
       </defs>
       <use xlink:href="#CMSS17-54" transform="scale(0.996264)"/>
       <use xlink:href="#CMSS17-6f" transform="translate(56.012199 0) scale(0.996264)"/>
       <use xlink:href="#CMSS17-77" transform="translate(100.253368 0) scale(0.996264)"/>
       <use xlink:href="#CMSS17-65" transform="translate(161.470459 0) scale(0.996264)"/>
       <use xlink:href="#CMSS17-72" transform="translate(203.109281 0) scale(0.996264)"/>
       <use xlink:href="#CMSS17-73" transform="translate(235.019054 0) scale(0.996264)"/>
      </g>
     </g>
    </g>
    <g id="xtick_25">
     <g id="line2d_49">
      <path d="M 517.9275 140.151217 
L 517.9275 10.447225 
" clip-path="url(#p261dde9b09)" style="fill: none; stroke: #cccccc; stroke-width: 0.25; stroke-linecap: round"/>
     </g>
     <g id="line2d_50">
      <g>
       <use xlink:href="#mf5e550f203" x="517.9275" y="140.151217" style="fill: #262626; stroke: #262626; stroke-width: 1.25"/>
      </g>
     </g>
     <g id="text_25">
      <!-- TreeSort -->
      <g style="fill: #262626" transform="translate(488.846754 182.606521) rotate(-45) scale(0.11 -0.11)">
       <use xlink:href="#CMSS17-54" transform="scale(0.996264)"/>
       <use xlink:href="#CMSS17-72" transform="translate(56.012199 0) scale(0.996264)"/>
       <use xlink:href="#CMSS17-65" transform="translate(87.921971 0) scale(0.996264)"/>
       <use xlink:href="#CMSS17-65" transform="translate(129.560793 0) scale(0.996264)"/>
       <use xlink:href="#CMSS17-53" transform="translate(171.199615 0) scale(0.996264)"/>
       <use xlink:href="#CMSS17-6f" transform="translate(223.248131 0) scale(0.996264)"/>
       <use xlink:href="#CMSS17-72" transform="translate(267.489301 0) scale(0.996264)"/>
       <use xlink:href="#CMSS17-74" transform="translate(299.399074 0) scale(0.996264)"/>
      </g>
     </g>
    </g>
    <g id="xtick_26">
     <g id="line2d_51">
      <path d="M 536.611676 140.151217 
L 536.611676 10.447225 
" clip-path="url(#p261dde9b09)" style="fill: none; stroke: #cccccc; stroke-width: 0.25; stroke-linecap: round"/>
     </g>
     <g id="line2d_52">
      <g>
       <use xlink:href="#mf5e550f203" x="536.611676" y="140.151217" style="fill: #262626; stroke: #262626; stroke-width: 1.25"/>
      </g>
     </g>
     <g id="text_26">
      <!-- WhileLoop -->
      <g style="fill: #262626" transform="translate(500.470575 189.666876) rotate(-45) scale(0.11 -0.11)">
       <defs>
        <path id="CMSS17-57" d="M 5581 4416 
L 5094 4416 
L 4557 2437 
C 4474 2118 4397 1801 4320 1482 
C 4205 1011 4122 681 4109 515 
L 4102 515 
C 4090 687 4006 1049 3904 1457 
C 3827 1795 3744 2131 3654 2462 
L 3123 4416 
L 2586 4416 
L 2080 2562 
L 1824 1549 
C 1632 747 1626 632 1613 505 
L 1606 505 
C 1606 543 1581 753 1402 1498 
C 1312 1868 1222 2244 1126 2601 
L 634 4416 
L 83 4416 
L 1299 0 
L 1830 0 
L 2336 1839 
L 2592 2851 
C 2765 3564 2803 3742 2816 3901 
L 2822 3901 
C 2822 3876 2880 3474 3130 2545 
L 3808 0 
L 4365 0 
L 5581 4416 
z
" transform="scale(0.015625)"/>
       </defs>
       <use xlink:href="#CMSS17-57" transform="scale(0.996264)"/>
       <use xlink:href="#CMSS17-68" transform="translate(88.242166 0) scale(0.996264)"/>
       <use xlink:href="#CMSS17-69" transform="translate(136.447109 0) scale(0.996264)"/>
       <use xlink:href="#CMSS17-6c" transform="translate(158.627832 0) scale(0.996264)"/>
       <use xlink:href="#CMSS17-65" transform="translate(180.808555 0) scale(0.996264)"/>
       <use xlink:href="#CMSS17-4c" transform="translate(222.447378 0) scale(0.996264)"/>
       <use xlink:href="#CMSS17-6f" transform="translate(273.134483 0) scale(0.996264)"/>
       <use xlink:href="#CMSS17-6f" transform="translate(322.580545 0) scale(0.996264)"/>
       <use xlink:href="#CMSS17-70" transform="translate(369.424169 0) scale(0.996264)"/>
      </g>
     </g>
    </g>
   </g>
   <g id="matplotlib.axis_2">
    <g id="ytick_1">
     <g id="line2d_53">
      <path d="M 57.362546 140.151217 
L 548.756391 140.151217 
" clip-path="url(#p261dde9b09)" style="fill: none; stroke: #cccccc; stroke-width: 0.25; stroke-linecap: round"/>
     </g>
     <g id="line2d_54">
      <defs>
       <path id="mafe3f6566b" d="M 0 0 
L -6 0 
" style="stroke: #262626; stroke-width: 1.25"/>
      </defs>
      <g>
       <use xlink:href="#mafe3f6566b" x="57.362546" y="140.151217" style="fill: #262626; stroke: #262626; stroke-width: 1.25"/>
      </g>
     </g>
     <g id="text_27">
      <!-- $\mathdefault{0}$ -->
      <g style="fill: #262626" transform="translate(42.383079 143.95639) scale(0.11 -0.11)">
       <defs>
        <path id="CMR17-30" d="M 2688 2025 
C 2688 2416 2682 3080 2413 3591 
C 2176 4039 1798 4198 1466 4198 
C 1158 4198 768 4058 525 3597 
C 269 3118 243 2524 243 2025 
C 243 1661 250 1106 448 619 
C 723 -39 1216 -128 1466 -128 
C 1760 -128 2208 -7 2470 600 
C 2662 1042 2688 1559 2688 2025 
z
M 1466 -26 
C 1056 -26 813 325 723 812 
C 653 1188 653 1738 653 2096 
C 653 2588 653 2997 736 3387 
C 858 3929 1216 4096 1466 4096 
C 1728 4096 2067 3923 2189 3400 
C 2272 3036 2278 2607 2278 2096 
C 2278 1680 2278 1169 2202 792 
C 2067 95 1690 -26 1466 -26 
z
" transform="scale(0.015625)"/>
       </defs>
       <use xlink:href="#CMR17-30" transform="scale(0.996264)"/>
      </g>
     </g>
    </g>
    <g id="ytick_2">
     <g id="line2d_55">
      <path d="M 57.362546 97.102536 
L 548.756391 97.102536 
" clip-path="url(#p261dde9b09)" style="fill: none; stroke: #cccccc; stroke-width: 0.25; stroke-linecap: round"/>
     </g>
     <g id="line2d_56">
      <g>
       <use xlink:href="#mafe3f6566b" x="57.362546" y="97.102536" style="fill: #262626; stroke: #262626; stroke-width: 1.25"/>
      </g>
     </g>
     <g id="text_28">
      <!-- $\mathdefault{5}$ -->
      <g style="fill: #262626" transform="translate(42.383079 100.907709) scale(0.11 -0.11)">
       <defs>
        <path id="CMR17-35" d="M 730 3692 
C 794 3666 1056 3584 1325 3584 
C 1920 3584 2246 3911 2432 4100 
C 2432 4157 2432 4192 2394 4192 
C 2387 4192 2374 4192 2323 4163 
C 2099 4058 1837 3973 1517 3973 
C 1325 3973 1037 3999 723 4139 
C 653 4171 640 4171 634 4171 
C 602 4171 595 4164 595 4037 
L 595 2203 
C 595 2089 595 2057 659 2057 
C 691 2057 704 2070 736 2114 
C 941 2401 1222 2522 1542 2522 
C 1766 2522 2246 2382 2246 1289 
C 2246 1085 2246 715 2054 421 
C 1894 159 1645 25 1370 25 
C 947 25 518 320 403 814 
C 429 807 480 795 506 795 
C 589 795 749 840 749 1038 
C 749 1210 627 1280 506 1280 
C 358 1280 262 1190 262 1011 
C 262 454 704 -128 1382 -128 
C 2042 -128 2669 440 2669 1264 
C 2669 2030 2170 2624 1549 2624 
C 1222 2624 947 2503 730 2274 
L 730 3692 
z
" transform="scale(0.015625)"/>
       </defs>
       <use xlink:href="#CMR17-35" transform="scale(0.996264)"/>
      </g>
     </g>
    </g>
    <g id="ytick_3">
     <g id="line2d_57">
      <path d="M 57.362546 54.053855 
L 548.756391 54.053855 
" clip-path="url(#p261dde9b09)" style="fill: none; stroke: #cccccc; stroke-width: 0.25; stroke-linecap: round"/>
     </g>
     <g id="line2d_58">
      <g>
       <use xlink:href="#mafe3f6566b" x="57.362546" y="54.053855" style="fill: #262626; stroke: #262626; stroke-width: 1.25"/>
      </g>
     </g>
     <g id="text_29">
      <!-- $\mathdefault{10}$ -->
      <g style="fill: #262626" transform="translate(36.903611 57.859028) scale(0.11 -0.11)">
       <defs>
        <path id="CMR17-31" d="M 1702 4058 
C 1702 4192 1696 4192 1606 4192 
C 1357 3916 979 3827 621 3827 
C 602 3827 570 3827 563 3808 
C 557 3795 557 3782 557 3648 
C 755 3648 1088 3686 1344 3839 
L 1344 461 
C 1344 236 1331 160 781 160 
L 589 160 
L 589 0 
C 896 0 1216 0 1523 0 
C 1830 0 2150 0 2458 0 
L 2458 160 
L 2266 160 
C 1715 160 1702 230 1702 458 
L 1702 4058 
z
" transform="scale(0.015625)"/>
       </defs>
       <use xlink:href="#CMR17-31" transform="scale(0.996264)"/>
       <use xlink:href="#CMR17-30" transform="translate(45.690477 0) scale(0.996264)"/>
      </g>
     </g>
    </g>
    <g id="ytick_4">
     <g id="line2d_59">
      <path d="M 57.362546 11.005173 
L 548.756391 11.005173 
" clip-path="url(#p261dde9b09)" style="fill: none; stroke: #cccccc; stroke-width: 0.25; stroke-linecap: round"/>
     </g>
     <g id="line2d_60">
      <g>
       <use xlink:href="#mafe3f6566b" x="57.362546" y="11.005173" style="fill: #262626; stroke: #262626; stroke-width: 1.25"/>
      </g>
     </g>
     <g id="text_30">
      <!-- $\mathdefault{15}$ -->
      <g style="fill: #262626" transform="translate(36.903611 14.810347) scale(0.11 -0.11)">
       <use xlink:href="#CMR17-31" transform="scale(0.996264)"/>
       <use xlink:href="#CMR17-35" transform="translate(45.690477 0) scale(0.996264)"/>
      </g>
     </g>
    </g>
    <g id="text_31">
     <!-- Peak Memory (MiB) -->
     <g style="fill: #262626" transform="translate(16.166376 125.634177) rotate(-90) scale(0.12 -0.12)">
      <defs>
       <path id="CMSS17-28" d="M 1613 4768 
C 1267 4417 474 3601 474 1588 
C 474 -433 1267 -1243 1613 -1600 
L 2003 -1600 
C 1216 -784 960 357 960 1581 
C 960 2798 1203 3946 2003 4768 
L 1613 4768 
z
" transform="scale(0.015625)"/>
       <path id="CMSS17-29" d="M 723 -1600 
C 1069 -1249 1862 -433 1862 1581 
C 1862 3601 1069 4411 723 4768 
L 333 4768 
C 1120 3952 1376 2811 1376 1588 
C 1376 370 1133 -778 333 -1600 
L 723 -1600 
z
" transform="scale(0.015625)"/>
      </defs>
      <use xlink:href="#CMSS17-50" transform="scale(0.996264)"/>
      <use xlink:href="#CMSS17-65" transform="translate(57.133132 0) scale(0.996264)"/>
      <use xlink:href="#CMSS17-61" transform="translate(98.771954 0) scale(0.996264)"/>
      <use xlink:href="#CMSS17-6b" transform="translate(143.693875 0) scale(0.996264)"/>
      <use xlink:href="#CMSS17-4d" transform="translate(220.525477 0) scale(0.996264)"/>
      <use xlink:href="#CMSS17-65" transform="translate(302.201507 0) scale(0.996264)"/>
      <use xlink:href="#CMSS17-6d" transform="translate(343.840329 0) scale(0.996264)"/>
      <use xlink:href="#CMSS17-6f" transform="translate(418.069583 0) scale(0.996264)"/>
      <use xlink:href="#CMSS17-72" transform="translate(462.310753 0) scale(0.996264)"/>
      <use xlink:href="#CMSS17-79" transform="translate(494.220526 0) scale(0.996264)"/>
      <use xlink:href="#CMSS17-28" transform="translate(568.44978 0) scale(0.996264)"/>
      <use xlink:href="#CMSS17-4d" transform="translate(604.883694 0) scale(0.996264)"/>
      <use xlink:href="#CMSS17-69" transform="translate(686.559724 0) scale(0.996264)"/>
      <use xlink:href="#CMSS17-42" transform="translate(708.740447 0) scale(0.996264)"/>
      <use xlink:href="#CMSS17-29" transform="translate(771.078487 0) scale(0.996264)"/>
     </g>
     <!-- (lower is better) -->
     <g style="fill: #262626" transform="translate(29.914819 114.504527) rotate(-90) scale(0.12 -0.12)">
      <use xlink:href="#CMSS17-28" transform="scale(0.996264)"/>
      <use xlink:href="#CMSS17-6c" transform="translate(36.433914 0) scale(0.996264)"/>
      <use xlink:href="#CMSS17-6f" transform="translate(58.614637 0) scale(0.996264)"/>
      <use xlink:href="#CMSS17-77" transform="translate(102.855807 0) scale(0.996264)"/>
      <use xlink:href="#CMSS17-65" transform="translate(164.072898 0) scale(0.996264)"/>
      <use xlink:href="#CMSS17-72" transform="translate(205.71172 0) scale(0.996264)"/>
      <use xlink:href="#CMSS17-69" transform="translate(268.850605 0) scale(0.996264)"/>
      <use xlink:href="#CMSS17-73" transform="translate(291.031328 0) scale(0.996264)"/>
      <use xlink:href="#CMSS17-62" transform="translate(358.173983 0) scale(0.996264)"/>
      <use xlink:href="#CMSS17-65" transform="translate(408.981365 0) scale(0.996264)"/>
      <use xlink:href="#CMSS17-74" transform="translate(450.620187 0) scale(0.996264)"/>
      <use xlink:href="#CMSS17-74" transform="translate(484.451754 0) scale(0.996264)"/>
      <use xlink:href="#CMSS17-65" transform="translate(518.28332 0) scale(0.996264)"/>
      <use xlink:href="#CMSS17-72" transform="translate(559.922143 0) scale(0.996264)"/>
      <use xlink:href="#CMSS17-29" transform="translate(591.831915 0) scale(0.996264)"/>
     </g>
    </g>
   </g>
   <g id="patch_3">
    <path d="M 62.03359 140.151217 
L 69.507261 140.151217 
L 69.507261 102.583395 
L 62.03359 102.583395 
z
" clip-path="url(#p261dde9b09)" style="fill: #4c72b0; stroke: #ffffff; stroke-linejoin: miter"/>
   </g>
   <g id="patch_4">
    <path d="M 80.717767 140.151217 
L 88.191437 140.151217 
L 88.191437 103.383832 
L 80.717767 103.383832 
z
" clip-path="url(#p261dde9b09)" style="fill: #4c72b0; stroke: #ffffff; stroke-linejoin: miter"/>
   </g>
   <g id="patch_5">
    <path d="M 99.401943 140.151217 
L 106.875614 140.151217 
L 106.875614 69.702723 
L 99.401943 69.702723 
z
" clip-path="url(#p261dde9b09)" style="fill: #4c72b0; stroke: #ffffff; stroke-linejoin: miter"/>
   </g>
   <g id="patch_6">
    <path d="M 118.08612 140.151217 
L 125.559791 140.151217 
L 125.559791 103.724634 
L 118.08612 103.724634 
z
" clip-path="url(#p261dde9b09)" style="fill: #4c72b0; stroke: #ffffff; stroke-linejoin: miter"/>
   </g>
   <g id="patch_7">
    <path d="M 136.770297 140.151217 
L 144.243967 140.151217 
L 144.243967 103.415221 
L 136.770297 103.415221 
z
" clip-path="url(#p261dde9b09)" style="fill: #4c72b0; stroke: #ffffff; stroke-linejoin: miter"/>
   </g>
   <g id="patch_8">
    <path d="M 155.454473 140.151217 
L 162.928144 140.151217 
L 162.928144 101.694395 
L 155.454473 101.694395 
z
" clip-path="url(#p261dde9b09)" style="fill: #4c72b0; stroke: #ffffff; stroke-linejoin: miter"/>
   </g>
   <g id="patch_9">
    <path d="M 174.13865 140.151217 
L 181.61232 140.151217 
L 181.61232 105.37147 
L 174.13865 105.37147 
z
" clip-path="url(#p261dde9b09)" style="fill: #4c72b0; stroke: #ffffff; stroke-linejoin: miter"/>
   </g>
   <g id="patch_10">
    <path d="M 192.822826 140.151217 
L 200.296497 140.151217 
L 200.296497 16.876161 
L 192.822826 16.876161 
z
" clip-path="url(#p261dde9b09)" style="fill: #4c72b0; stroke: #ffffff; stroke-linejoin: miter"/>
   </g>
   <g id="patch_11">
    <path d="M 211.507003 140.151217 
L 218.980674 140.151217 
L 218.980674 104.81094 
L 211.507003 104.81094 
z
" clip-path="url(#p261dde9b09)" style="fill: #4c72b0; stroke: #ffffff; stroke-linejoin: miter"/>
   </g>
   <g id="patch_12">
    <path d="M 230.19118 140.151217 
L 237.66485 140.151217 
L 237.66485 63.112015 
L 230.19118 63.112015 
z
" clip-path="url(#p261dde9b09)" style="fill: #4c72b0; stroke: #ffffff; stroke-linejoin: miter"/>
   </g>
   <g id="patch_13">
    <path d="M 248.875356 140.151217 
L 256.349027 140.151217 
L 256.349027 103.287421 
L 248.875356 103.287421 
z
" clip-path="url(#p261dde9b09)" style="fill: #4c72b0; stroke: #ffffff; stroke-linejoin: miter"/>
   </g>
   <g id="patch_14">
    <path d="M 267.559533 140.151217 
L 275.033204 140.151217 
L 275.033204 104.297495 
L 267.559533 104.297495 
z
" clip-path="url(#p261dde9b09)" style="fill: #4c72b0; stroke: #ffffff; stroke-linejoin: miter"/>
   </g>
   <g id="patch_15">
    <path d="M 286.24371 140.151217 
L 293.71738 140.151217 
L 293.71738 102.930924 
L 286.24371 102.930924 
z
" clip-path="url(#p261dde9b09)" style="fill: #4c72b0; stroke: #ffffff; stroke-linejoin: miter"/>
   </g>
   <g id="patch_16">
    <path d="M 304.927886 140.151217 
L 312.401557 140.151217 
L 312.401557 102.500437 
L 304.927886 102.500437 
z
" clip-path="url(#p261dde9b09)" style="fill: #4c72b0; stroke: #ffffff; stroke-linejoin: miter"/>
   </g>
   <g id="patch_17">
    <path d="M 323.612063 140.151217 
L 331.085733 140.151217 
L 331.085733 81.26533 
L 323.612063 81.26533 
z
" clip-path="url(#p261dde9b09)" style="fill: #4c72b0; stroke: #ffffff; stroke-linejoin: miter"/>
   </g>
   <g id="patch_18">
    <path d="M 342.296239 140.151217 
L 349.76991 140.151217 
L 349.76991 102.519495 
L 342.296239 102.519495 
z
" clip-path="url(#p261dde9b09)" style="fill: #4c72b0; stroke: #ffffff; stroke-linejoin: miter"/>
   </g>
   <g id="patch_19">
    <path d="M 360.980416 140.151217 
L 368.454087 140.151217 
L 368.454087 103.3076 
L 360.980416 103.3076 
z
" clip-path="url(#p261dde9b09)" style="fill: #4c72b0; stroke: #ffffff; stroke-linejoin: miter"/>
   </g>
   <g id="patch_20">
    <path d="M 379.664593 140.151217 
L 387.138263 140.151217 
L 387.138263 103.547506 
L 379.664593 103.547506 
z
" clip-path="url(#p261dde9b09)" style="fill: #4c72b0; stroke: #ffffff; stroke-linejoin: miter"/>
   </g>
   <g id="patch_21">
    <path d="M 398.348769 140.151217 
L 405.82244 140.151217 
L 405.82244 101.796412 
L 398.348769 101.796412 
z
" clip-path="url(#p261dde9b09)" style="fill: #4c72b0; stroke: #ffffff; stroke-linejoin: miter"/>
   </g>
   <g id="patch_22">
    <path d="M 417.032946 140.151217 
L 424.506617 140.151217 
L 424.506617 102.721286 
L 417.032946 102.721286 
z
" clip-path="url(#p261dde9b09)" style="fill: #4c72b0; stroke: #ffffff; stroke-linejoin: miter"/>
   </g>
   <g id="patch_23">
    <path d="M 435.717122 140.151217 
L 443.190793 140.151217 
L 443.190793 89.288752 
L 435.717122 89.288752 
z
" clip-path="url(#p261dde9b09)" style="fill: #4c72b0; stroke: #ffffff; stroke-linejoin: miter"/>
   </g>
   <g id="patch_24">
    <path d="M 454.401299 140.151217 
L 461.87497 140.151217 
L 461.87497 74.110728 
L 454.401299 74.110728 
z
" clip-path="url(#p261dde9b09)" style="fill: #4c72b0; stroke: #ffffff; stroke-linejoin: miter"/>
   </g>
   <g id="patch_25">
    <path d="M 473.085476 140.151217 
L 480.559146 140.151217 
L 480.559146 105.442097 
L 473.085476 105.442097 
z
" clip-path="url(#p261dde9b09)" style="fill: #4c72b0; stroke: #ffffff; stroke-linejoin: miter"/>
   </g>
   <g id="patch_26">
    <path d="M 491.769652 140.151217 
L 499.243323 140.151217 
L 499.243323 102.882718 
L 491.769652 102.882718 
z
" clip-path="url(#p261dde9b09)" style="fill: #4c72b0; stroke: #ffffff; stroke-linejoin: miter"/>
   </g>
   <g id="patch_27">
    <path d="M 510.453829 140.151217 
L 517.9275 140.151217 
L 517.9275 97.491543 
L 510.453829 97.491543 
z
" clip-path="url(#p261dde9b09)" style="fill: #4c72b0; stroke: #ffffff; stroke-linejoin: miter"/>
   </g>
   <g id="patch_28">
    <path d="M 529.138006 140.151217 
L 536.611676 140.151217 
L 536.611676 104.992552 
L 529.138006 104.992552 
z
" clip-path="url(#p261dde9b09)" style="fill: #4c72b0; stroke: #ffffff; stroke-linejoin: miter"/>
   </g>
   <g id="patch_29">
    <path d="M 69.507261 140.151217 
L 76.980931 140.151217 
L 76.980931 98.45117 
L 69.507261 98.45117 
z
" clip-path="url(#p261dde9b09)" style="fill: #dd8452; stroke: #ffffff; stroke-linejoin: miter"/>
   </g>
   <g id="patch_30">
    <path d="M 88.191437 140.151217 
L 95.665108 140.151217 
L 95.665108 98.702288 
L 88.191437 98.702288 
z
" clip-path="url(#p261dde9b09)" style="fill: #dd8452; stroke: #ffffff; stroke-linejoin: miter"/>
   </g>
   <g id="patch_31">
    <path d="M 106.875614 140.151217 
L 114.349285 140.151217 
L 114.349285 76.95934 
L 106.875614 76.95934 
z
" clip-path="url(#p261dde9b09)" style="fill: #dd8452; stroke: #ffffff; stroke-linejoin: miter"/>
   </g>
   <g id="patch_32">
    <path d="M 125.559791 140.151217 
L 133.033461 140.151217 
L 133.033461 103.393921 
L 125.559791 103.393921 
z
" clip-path="url(#p261dde9b09)" style="fill: #dd8452; stroke: #ffffff; stroke-linejoin: miter"/>
   </g>
   <g id="patch_33">
    <path d="M 144.243967 140.151217 
L 151.717638 140.151217 
L 151.717638 97.909699 
L 144.243967 97.909699 
z
" clip-path="url(#p261dde9b09)" style="fill: #dd8452; stroke: #ffffff; stroke-linejoin: miter"/>
   </g>
   <g id="patch_34">
    <path d="M 162.928144 140.151217 
L 170.401815 140.151217 
L 170.401815 99.110353 
L 162.928144 99.110353 
z
" clip-path="url(#p261dde9b09)" style="fill: #dd8452; stroke: #ffffff; stroke-linejoin: miter"/>
   </g>
   <g id="patch_35">
    <path d="M 181.61232 140.151217 
L 189.085991 140.151217 
L 189.085991 102.280709 
L 181.61232 102.280709 
z
" clip-path="url(#p261dde9b09)" style="fill: #dd8452; stroke: #ffffff; stroke-linejoin: miter"/>
   </g>
   <g id="patch_36">
    <path d="M 200.296497 140.151217 
L 207.770168 140.151217 
L 207.770168 28.27173 
L 200.296497 28.27173 
z
" clip-path="url(#p261dde9b09)" style="fill: #dd8452; stroke: #ffffff; stroke-linejoin: miter"/>
   </g>
   <g id="patch_37">
    <path d="M 218.980674 140.151217 
L 226.454344 140.151217 
L 226.454344 103.679791 
L 218.980674 103.679791 
z
" clip-path="url(#p261dde9b09)" style="fill: #dd8452; stroke: #ffffff; stroke-linejoin: miter"/>
   </g>
   <g id="patch_38">
    <path d="M 237.66485 140.151217 
L 245.138521 140.151217 
L 245.138521 84.041073 
L 237.66485 84.041073 
z
" clip-path="url(#p261dde9b09)" style="fill: #dd8452; stroke: #ffffff; stroke-linejoin: miter"/>
   </g>
   <g id="patch_39">
    <path d="M 256.349027 140.151217 
L 263.822698 140.151217 
L 263.822698 99.108111 
L 256.349027 99.108111 
z
" clip-path="url(#p261dde9b09)" style="fill: #dd8452; stroke: #ffffff; stroke-linejoin: miter"/>
   </g>
   <g id="patch_40">
    <path d="M 275.033204 140.151217 
L 282.506874 140.151217 
L 282.506874 99.998232 
L 275.033204 99.998232 
z
" clip-path="url(#p261dde9b09)" style="fill: #dd8452; stroke: #ffffff; stroke-linejoin: miter"/>
   </g>
   <g id="patch_41">
    <path d="M 293.71738 140.151217 
L 301.191051 140.151217 
L 301.191051 99.641735 
L 293.71738 99.641735 
z
" clip-path="url(#p261dde9b09)" style="fill: #dd8452; stroke: #ffffff; stroke-linejoin: miter"/>
   </g>
   <g id="patch_42">
    <path d="M 312.401557 140.151217 
L 319.875227 140.151217 
L 319.875227 100.084554 
L 312.401557 100.084554 
z
" clip-path="url(#p261dde9b09)" style="fill: #dd8452; stroke: #ffffff; stroke-linejoin: miter"/>
   </g>
   <g id="patch_43">
    <path d="M 331.085733 140.151217 
L 338.559404 140.151217 
L 338.559404 81.465999 
L 331.085733 81.465999 
z
" clip-path="url(#p261dde9b09)" style="fill: #dd8452; stroke: #ffffff; stroke-linejoin: miter"/>
   </g>
   <g id="patch_44">
    <path d="M 349.76991 140.151217 
L 357.243581 140.151217 
L 357.243581 100.324461 
L 349.76991 100.324461 
z
" clip-path="url(#p261dde9b09)" style="fill: #dd8452; stroke: #ffffff; stroke-linejoin: miter"/>
   </g>
   <g id="patch_45">
    <path d="M 368.454087 140.151217 
L 375.927757 140.151217 
L 375.927757 98.574487 
L 368.454087 98.574487 
z
" clip-path="url(#p261dde9b09)" style="fill: #dd8452; stroke: #ffffff; stroke-linejoin: miter"/>
   </g>
   <g id="patch_46">
    <path d="M 387.138263 140.151217 
L 394.611934 140.151217 
L 394.611934 94.709074 
L 387.138263 94.709074 
z
" clip-path="url(#p261dde9b09)" style="fill: #dd8452; stroke: #ffffff; stroke-linejoin: miter"/>
   </g>
   <g id="patch_47">
    <path d="M 405.82244 140.151217 
L 413.296111 140.151217 
L 413.296111 99.024032 
L 405.82244 99.024032 
z
" clip-path="url(#p261dde9b09)" style="fill: #dd8452; stroke: #ffffff; stroke-linejoin: miter"/>
   </g>
   <g id="patch_48">
    <path d="M 424.506617 140.151217 
L 431.980287 140.151217 
L 431.980287 96.238199 
L 424.506617 96.238199 
z
" clip-path="url(#p261dde9b09)" style="fill: #dd8452; stroke: #ffffff; stroke-linejoin: miter"/>
   </g>
   <g id="patch_49">
    <path d="M 443.190793 140.151217 
L 450.664464 140.151217 
L 450.664464 89.891882 
L 443.190793 89.891882 
z
" clip-path="url(#p261dde9b09)" style="fill: #dd8452; stroke: #ffffff; stroke-linejoin: miter"/>
   </g>
   <g id="patch_50">
    <path d="M 461.87497 140.151217 
L 469.34864 140.151217 
L 469.34864 81.531021 
L 461.87497 81.531021 
z
" clip-path="url(#p261dde9b09)" style="fill: #dd8452; stroke: #ffffff; stroke-linejoin: miter"/>
   </g>
   <g id="patch_51">
    <path d="M 480.559146 140.151217 
L 488.032817 140.151217 
L 488.032817 103.553112 
L 480.559146 103.553112 
z
" clip-path="url(#p261dde9b09)" style="fill: #dd8452; stroke: #ffffff; stroke-linejoin: miter"/>
   </g>
   <g id="patch_52">
    <path d="M 499.243323 140.151217 
L 506.716994 140.151217 
L 506.716994 98.680988 
L 499.243323 98.680988 
z
" clip-path="url(#p261dde9b09)" style="fill: #dd8452; stroke: #ffffff; stroke-linejoin: miter"/>
   </g>
   <g id="patch_53">
    <path d="M 517.9275 140.151217 
L 525.40117 140.151217 
L 525.40117 95.022971 
L 517.9275 95.022971 
z
" clip-path="url(#p261dde9b09)" style="fill: #dd8452; stroke: #ffffff; stroke-linejoin: miter"/>
   </g>
   <g id="patch_54">
    <path d="M 536.611676 140.151217 
L 544.085347 140.151217 
L 544.085347 105.127079 
L 536.611676 105.127079 
z
" clip-path="url(#p261dde9b09)" style="fill: #dd8452; stroke: #ffffff; stroke-linejoin: miter"/>
   </g>
   <g id="LineCollection_1">
    <path d="M 65.770425 104.629485 
L 65.770425 100.537306 
" clip-path="url(#p261dde9b09)" style="fill: none; stroke: #262626; stroke-width: 1.5"/>
    <path d="M 84.454602 103.709179 
L 84.454602 103.058484 
" clip-path="url(#p261dde9b09)" style="fill: none; stroke: #262626; stroke-width: 1.5"/>
    <path d="M 103.138779 71.665132 
L 103.138779 67.740314 
" clip-path="url(#p261dde9b09)" style="fill: none; stroke: #262626; stroke-width: 1.5"/>
    <path d="M 121.822955 106.14803 
L 121.822955 101.301238 
" clip-path="url(#p261dde9b09)" style="fill: none; stroke: #262626; stroke-width: 1.5"/>
    <path d="M 140.507132 103.725015 
L 140.507132 103.105428 
" clip-path="url(#p261dde9b09)" style="fill: none; stroke: #262626; stroke-width: 1.5"/>
    <path d="M 159.191309 104.094743 
L 159.191309 99.294048 
" clip-path="url(#p261dde9b09)" style="fill: none; stroke: #262626; stroke-width: 1.5"/>
    <path d="M 177.875485 105.679996 
L 177.875485 105.062944 
" clip-path="url(#p261dde9b09)" style="fill: none; stroke: #262626; stroke-width: 1.5"/>
    <path d="M 196.559662 17.128717 
L 196.559662 16.623606 
" clip-path="url(#p261dde9b09)" style="fill: none; stroke: #262626; stroke-width: 1.5"/>
    <path d="M 215.243838 106.35285 
L 215.243838 103.26903 
" clip-path="url(#p261dde9b09)" style="fill: none; stroke: #262626; stroke-width: 1.5"/>
    <path d="M 233.928015 67.379359 
L 233.928015 58.84467 
" clip-path="url(#p261dde9b09)" style="fill: none; stroke: #262626; stroke-width: 1.5"/>
    <path d="M 252.612192 103.686522 
L 252.612192 102.888319 
" clip-path="url(#p261dde9b09)" style="fill: none; stroke: #262626; stroke-width: 1.5"/>
    <path d="M 271.296368 106.397061 
L 271.296368 102.197929 
" clip-path="url(#p261dde9b09)" style="fill: none; stroke: #262626; stroke-width: 1.5"/>
    <path d="M 289.980545 104.370401 
L 289.980545 101.491446 
" clip-path="url(#p261dde9b09)" style="fill: none; stroke: #262626; stroke-width: 1.5"/>
    <path d="M 308.664721 102.803234 
L 308.664721 102.19764 
" clip-path="url(#p261dde9b09)" style="fill: none; stroke: #262626; stroke-width: 1.5"/>
    <path d="M 327.348898 82.708728 
L 327.348898 79.821931 
" clip-path="url(#p261dde9b09)" style="fill: none; stroke: #262626; stroke-width: 1.5"/>
    <path d="M 346.033075 104.982505 
L 346.033075 100.056485 
" clip-path="url(#p261dde9b09)" style="fill: none; stroke: #262626; stroke-width: 1.5"/>
    <path d="M 364.717251 103.633293 
L 364.717251 102.981906 
" clip-path="url(#p261dde9b09)" style="fill: none; stroke: #262626; stroke-width: 1.5"/>
    <path d="M 383.401428 103.851007 
L 383.401428 103.244005 
" clip-path="url(#p261dde9b09)" style="fill: none; stroke: #262626; stroke-width: 1.5"/>
    <path d="M 402.085605 104.26959 
L 402.085605 99.323234 
" clip-path="url(#p261dde9b09)" style="fill: none; stroke: #262626; stroke-width: 1.5"/>
    <path d="M 420.769781 104.12122 
L 420.769781 101.321351 
" clip-path="url(#p261dde9b09)" style="fill: none; stroke: #262626; stroke-width: 1.5"/>
    <path d="M 439.453958 91.28648 
L 439.453958 87.291023 
" clip-path="url(#p261dde9b09)" style="fill: none; stroke: #262626; stroke-width: 1.5"/>
    <path d="M 458.138134 76.652729 
L 458.138134 71.568728 
" clip-path="url(#p261dde9b09)" style="fill: none; stroke: #262626; stroke-width: 1.5"/>
    <path d="M 476.822311 105.748061 
L 476.822311 105.136133 
" clip-path="url(#p261dde9b09)" style="fill: none; stroke: #262626; stroke-width: 1.5"/>
    <path d="M 495.506488 104.309624 
L 495.506488 101.455812 
" clip-path="url(#p261dde9b09)" style="fill: none; stroke: #262626; stroke-width: 1.5"/>
    <path d="M 514.190664 99.861333 
L 514.190664 95.121754 
" clip-path="url(#p261dde9b09)" style="fill: none; stroke: #262626; stroke-width: 1.5"/>
    <path d="M 532.874841 106.39427 
L 532.874841 103.590834 
" clip-path="url(#p261dde9b09)" style="fill: none; stroke: #262626; stroke-width: 1.5"/>
   </g>
   <g id="line2d_61">
    <defs>
     <path id="mb2d415cebc" d="M 2 0 
L -2 -0 
" style="stroke: #262626"/>
    </defs>
    <g clip-path="url(#p261dde9b09)">
     <use xlink:href="#mb2d415cebc" x="65.770425" y="104.629485" style="fill: #262626; stroke: #262626"/>
     <use xlink:href="#mb2d415cebc" x="84.454602" y="103.709179" style="fill: #262626; stroke: #262626"/>
     <use xlink:href="#mb2d415cebc" x="103.138779" y="71.665132" style="fill: #262626; stroke: #262626"/>
     <use xlink:href="#mb2d415cebc" x="121.822955" y="106.14803" style="fill: #262626; stroke: #262626"/>
     <use xlink:href="#mb2d415cebc" x="140.507132" y="103.725015" style="fill: #262626; stroke: #262626"/>
     <use xlink:href="#mb2d415cebc" x="159.191309" y="104.094743" style="fill: #262626; stroke: #262626"/>
     <use xlink:href="#mb2d415cebc" x="177.875485" y="105.679996" style="fill: #262626; stroke: #262626"/>
     <use xlink:href="#mb2d415cebc" x="196.559662" y="17.128717" style="fill: #262626; stroke: #262626"/>
     <use xlink:href="#mb2d415cebc" x="215.243838" y="106.35285" style="fill: #262626; stroke: #262626"/>
     <use xlink:href="#mb2d415cebc" x="233.928015" y="67.379359" style="fill: #262626; stroke: #262626"/>
     <use xlink:href="#mb2d415cebc" x="252.612192" y="103.686522" style="fill: #262626; stroke: #262626"/>
     <use xlink:href="#mb2d415cebc" x="271.296368" y="106.397061" style="fill: #262626; stroke: #262626"/>
     <use xlink:href="#mb2d415cebc" x="289.980545" y="104.370401" style="fill: #262626; stroke: #262626"/>
     <use xlink:href="#mb2d415cebc" x="308.664721" y="102.803234" style="fill: #262626; stroke: #262626"/>
     <use xlink:href="#mb2d415cebc" x="327.348898" y="82.708728" style="fill: #262626; stroke: #262626"/>
     <use xlink:href="#mb2d415cebc" x="346.033075" y="104.982505" style="fill: #262626; stroke: #262626"/>
     <use xlink:href="#mb2d415cebc" x="364.717251" y="103.633293" style="fill: #262626; stroke: #262626"/>
     <use xlink:href="#mb2d415cebc" x="383.401428" y="103.851007" style="fill: #262626; stroke: #262626"/>
     <use xlink:href="#mb2d415cebc" x="402.085605" y="104.26959" style="fill: #262626; stroke: #262626"/>
     <use xlink:href="#mb2d415cebc" x="420.769781" y="104.12122" style="fill: #262626; stroke: #262626"/>
     <use xlink:href="#mb2d415cebc" x="439.453958" y="91.28648" style="fill: #262626; stroke: #262626"/>
     <use xlink:href="#mb2d415cebc" x="458.138134" y="76.652729" style="fill: #262626; stroke: #262626"/>
     <use xlink:href="#mb2d415cebc" x="476.822311" y="105.748061" style="fill: #262626; stroke: #262626"/>
     <use xlink:href="#mb2d415cebc" x="495.506488" y="104.309624" style="fill: #262626; stroke: #262626"/>
     <use xlink:href="#mb2d415cebc" x="514.190664" y="99.861333" style="fill: #262626; stroke: #262626"/>
     <use xlink:href="#mb2d415cebc" x="532.874841" y="106.39427" style="fill: #262626; stroke: #262626"/>
    </g>
   </g>
   <g id="line2d_62">
    <g clip-path="url(#p261dde9b09)">
     <use xlink:href="#mb2d415cebc" x="65.770425" y="100.537306" style="fill: #262626; stroke: #262626"/>
     <use xlink:href="#mb2d415cebc" x="84.454602" y="103.058484" style="fill: #262626; stroke: #262626"/>
     <use xlink:href="#mb2d415cebc" x="103.138779" y="67.740314" style="fill: #262626; stroke: #262626"/>
     <use xlink:href="#mb2d415cebc" x="121.822955" y="101.301238" style="fill: #262626; stroke: #262626"/>
     <use xlink:href="#mb2d415cebc" x="140.507132" y="103.105428" style="fill: #262626; stroke: #262626"/>
     <use xlink:href="#mb2d415cebc" x="159.191309" y="99.294048" style="fill: #262626; stroke: #262626"/>
     <use xlink:href="#mb2d415cebc" x="177.875485" y="105.062944" style="fill: #262626; stroke: #262626"/>
     <use xlink:href="#mb2d415cebc" x="196.559662" y="16.623606" style="fill: #262626; stroke: #262626"/>
     <use xlink:href="#mb2d415cebc" x="215.243838" y="103.26903" style="fill: #262626; stroke: #262626"/>
     <use xlink:href="#mb2d415cebc" x="233.928015" y="58.84467" style="fill: #262626; stroke: #262626"/>
     <use xlink:href="#mb2d415cebc" x="252.612192" y="102.888319" style="fill: #262626; stroke: #262626"/>
     <use xlink:href="#mb2d415cebc" x="271.296368" y="102.197929" style="fill: #262626; stroke: #262626"/>
     <use xlink:href="#mb2d415cebc" x="289.980545" y="101.491446" style="fill: #262626; stroke: #262626"/>
     <use xlink:href="#mb2d415cebc" x="308.664721" y="102.19764" style="fill: #262626; stroke: #262626"/>
     <use xlink:href="#mb2d415cebc" x="327.348898" y="79.821931" style="fill: #262626; stroke: #262626"/>
     <use xlink:href="#mb2d415cebc" x="346.033075" y="100.056485" style="fill: #262626; stroke: #262626"/>
     <use xlink:href="#mb2d415cebc" x="364.717251" y="102.981906" style="fill: #262626; stroke: #262626"/>
     <use xlink:href="#mb2d415cebc" x="383.401428" y="103.244005" style="fill: #262626; stroke: #262626"/>
     <use xlink:href="#mb2d415cebc" x="402.085605" y="99.323234" style="fill: #262626; stroke: #262626"/>
     <use xlink:href="#mb2d415cebc" x="420.769781" y="101.321351" style="fill: #262626; stroke: #262626"/>
     <use xlink:href="#mb2d415cebc" x="439.453958" y="87.291023" style="fill: #262626; stroke: #262626"/>
     <use xlink:href="#mb2d415cebc" x="458.138134" y="71.568728" style="fill: #262626; stroke: #262626"/>
     <use xlink:href="#mb2d415cebc" x="476.822311" y="105.136133" style="fill: #262626; stroke: #262626"/>
     <use xlink:href="#mb2d415cebc" x="495.506488" y="101.455812" style="fill: #262626; stroke: #262626"/>
     <use xlink:href="#mb2d415cebc" x="514.190664" y="95.121754" style="fill: #262626; stroke: #262626"/>
     <use xlink:href="#mb2d415cebc" x="532.874841" y="103.590834" style="fill: #262626; stroke: #262626"/>
    </g>
   </g>
   <g id="LineCollection_2">
    <path d="M 73.244096 99.911528 
L 73.244096 96.990813 
" clip-path="url(#p261dde9b09)" style="fill: none; stroke: #262626; stroke-width: 1.5"/>
    <path d="M 91.928273 100.605943 
L 91.928273 96.798632 
" clip-path="url(#p261dde9b09)" style="fill: none; stroke: #262626; stroke-width: 1.5"/>
    <path d="M 110.612449 79.011734 
L 110.612449 74.906946 
" clip-path="url(#p261dde9b09)" style="fill: none; stroke: #262626; stroke-width: 1.5"/>
    <path d="M 129.296626 105.062012 
L 129.296626 101.72583 
" clip-path="url(#p261dde9b09)" style="fill: none; stroke: #262626; stroke-width: 1.5"/>
    <path d="M 147.980803 100.127101 
L 147.980803 95.692296 
" clip-path="url(#p261dde9b09)" style="fill: none; stroke: #262626; stroke-width: 1.5"/>
    <path d="M 166.664979 101.496427 
L 166.664979 96.72428 
" clip-path="url(#p261dde9b09)" style="fill: none; stroke: #262626; stroke-width: 1.5"/>
    <path d="M 185.349156 103.882129 
L 185.349156 100.67929 
" clip-path="url(#p261dde9b09)" style="fill: none; stroke: #262626; stroke-width: 1.5"/>
    <path d="M 204.033332 31.365008 
L 204.033332 25.178452 
" clip-path="url(#p261dde9b09)" style="fill: none; stroke: #262626; stroke-width: 1.5"/>
    <path d="M 222.717509 105.862481 
L 222.717509 101.497102 
" clip-path="url(#p261dde9b09)" style="fill: none; stroke: #262626; stroke-width: 1.5"/>
    <path d="M 241.401686 89.190816 
L 241.401686 78.89133 
" clip-path="url(#p261dde9b09)" style="fill: none; stroke: #262626; stroke-width: 1.5"/>
    <path d="M 260.085862 100.758558 
L 260.085862 97.457664 
" clip-path="url(#p261dde9b09)" style="fill: none; stroke: #262626; stroke-width: 1.5"/>
    <path d="M 278.770039 101.457337 
L 278.770039 98.539128 
" clip-path="url(#p261dde9b09)" style="fill: none; stroke: #262626; stroke-width: 1.5"/>
    <path d="M 297.454216 101.483597 
L 297.454216 97.799874 
" clip-path="url(#p261dde9b09)" style="fill: none; stroke: #262626; stroke-width: 1.5"/>
    <path d="M 316.138392 101.653156 
L 316.138392 98.515951 
" clip-path="url(#p261dde9b09)" style="fill: none; stroke: #262626; stroke-width: 1.5"/>
    <path d="M 334.822569 81.766772 
L 334.822569 81.165227 
" clip-path="url(#p261dde9b09)" style="fill: none; stroke: #262626; stroke-width: 1.5"/>
    <path d="M 353.506745 102.429638 
L 353.506745 98.219283 
" clip-path="url(#p261dde9b09)" style="fill: none; stroke: #262626; stroke-width: 1.5"/>
    <path d="M 372.190922 100.121247 
L 372.190922 97.027726 
" clip-path="url(#p261dde9b09)" style="fill: none; stroke: #262626; stroke-width: 1.5"/>
    <path d="M 390.875099 96.154717 
L 390.875099 93.263431 
" clip-path="url(#p261dde9b09)" style="fill: none; stroke: #262626; stroke-width: 1.5"/>
    <path d="M 409.559275 101.017612 
L 409.559275 97.030452 
" clip-path="url(#p261dde9b09)" style="fill: none; stroke: #262626; stroke-width: 1.5"/>
    <path d="M 428.243452 96.501015 
L 428.243452 95.975383 
" clip-path="url(#p261dde9b09)" style="fill: none; stroke: #262626; stroke-width: 1.5"/>
    <path d="M 446.927628 90.323135 
L 446.927628 89.460629 
" clip-path="url(#p261dde9b09)" style="fill: none; stroke: #262626; stroke-width: 1.5"/>
    <path d="M 465.611805 83.763642 
L 465.611805 79.298399 
" clip-path="url(#p261dde9b09)" style="fill: none; stroke: #262626; stroke-width: 1.5"/>
    <path d="M 484.295982 105.694 
L 484.295982 101.412223 
" clip-path="url(#p261dde9b09)" style="fill: none; stroke: #262626; stroke-width: 1.5"/>
    <path d="M 502.980158 101.325628 
L 502.980158 96.036347 
" clip-path="url(#p261dde9b09)" style="fill: none; stroke: #262626; stroke-width: 1.5"/>
    <path d="M 521.664335 95.351416 
L 521.664335 94.694525 
" clip-path="url(#p261dde9b09)" style="fill: none; stroke: #262626; stroke-width: 1.5"/>
    <path d="M 540.348512 106.811878 
L 540.348512 103.44228 
" clip-path="url(#p261dde9b09)" style="fill: none; stroke: #262626; stroke-width: 1.5"/>
   </g>
   <g id="line2d_63">
    <g clip-path="url(#p261dde9b09)">
     <use xlink:href="#mb2d415cebc" x="73.244096" y="99.911528" style="fill: #262626; stroke: #262626"/>
     <use xlink:href="#mb2d415cebc" x="91.928273" y="100.605943" style="fill: #262626; stroke: #262626"/>
     <use xlink:href="#mb2d415cebc" x="110.612449" y="79.011734" style="fill: #262626; stroke: #262626"/>
     <use xlink:href="#mb2d415cebc" x="129.296626" y="105.062012" style="fill: #262626; stroke: #262626"/>
     <use xlink:href="#mb2d415cebc" x="147.980803" y="100.127101" style="fill: #262626; stroke: #262626"/>
     <use xlink:href="#mb2d415cebc" x="166.664979" y="101.496427" style="fill: #262626; stroke: #262626"/>
     <use xlink:href="#mb2d415cebc" x="185.349156" y="103.882129" style="fill: #262626; stroke: #262626"/>
     <use xlink:href="#mb2d415cebc" x="204.033332" y="31.365008" style="fill: #262626; stroke: #262626"/>
     <use xlink:href="#mb2d415cebc" x="222.717509" y="105.862481" style="fill: #262626; stroke: #262626"/>
     <use xlink:href="#mb2d415cebc" x="241.401686" y="89.190816" style="fill: #262626; stroke: #262626"/>
     <use xlink:href="#mb2d415cebc" x="260.085862" y="100.758558" style="fill: #262626; stroke: #262626"/>
     <use xlink:href="#mb2d415cebc" x="278.770039" y="101.457337" style="fill: #262626; stroke: #262626"/>
     <use xlink:href="#mb2d415cebc" x="297.454216" y="101.483597" style="fill: #262626; stroke: #262626"/>
     <use xlink:href="#mb2d415cebc" x="316.138392" y="101.653156" style="fill: #262626; stroke: #262626"/>
     <use xlink:href="#mb2d415cebc" x="334.822569" y="81.766772" style="fill: #262626; stroke: #262626"/>
     <use xlink:href="#mb2d415cebc" x="353.506745" y="102.429638" style="fill: #262626; stroke: #262626"/>
     <use xlink:href="#mb2d415cebc" x="372.190922" y="100.121247" style="fill: #262626; stroke: #262626"/>
     <use xlink:href="#mb2d415cebc" x="390.875099" y="96.154717" style="fill: #262626; stroke: #262626"/>
     <use xlink:href="#mb2d415cebc" x="409.559275" y="101.017612" style="fill: #262626; stroke: #262626"/>
     <use xlink:href="#mb2d415cebc" x="428.243452" y="96.501015" style="fill: #262626; stroke: #262626"/>
     <use xlink:href="#mb2d415cebc" x="446.927628" y="90.323135" style="fill: #262626; stroke: #262626"/>
     <use xlink:href="#mb2d415cebc" x="465.611805" y="83.763642" style="fill: #262626; stroke: #262626"/>
     <use xlink:href="#mb2d415cebc" x="484.295982" y="105.694" style="fill: #262626; stroke: #262626"/>
     <use xlink:href="#mb2d415cebc" x="502.980158" y="101.325628" style="fill: #262626; stroke: #262626"/>
     <use xlink:href="#mb2d415cebc" x="521.664335" y="95.351416" style="fill: #262626; stroke: #262626"/>
     <use xlink:href="#mb2d415cebc" x="540.348512" y="106.811878" style="fill: #262626; stroke: #262626"/>
    </g>
   </g>
   <g id="line2d_64">
    <g clip-path="url(#p261dde9b09)">
     <use xlink:href="#mb2d415cebc" x="73.244096" y="96.990813" style="fill: #262626; stroke: #262626"/>
     <use xlink:href="#mb2d415cebc" x="91.928273" y="96.798632" style="fill: #262626; stroke: #262626"/>
     <use xlink:href="#mb2d415cebc" x="110.612449" y="74.906946" style="fill: #262626; stroke: #262626"/>
     <use xlink:href="#mb2d415cebc" x="129.296626" y="101.72583" style="fill: #262626; stroke: #262626"/>
     <use xlink:href="#mb2d415cebc" x="147.980803" y="95.692296" style="fill: #262626; stroke: #262626"/>
     <use xlink:href="#mb2d415cebc" x="166.664979" y="96.72428" style="fill: #262626; stroke: #262626"/>
     <use xlink:href="#mb2d415cebc" x="185.349156" y="100.67929" style="fill: #262626; stroke: #262626"/>
     <use xlink:href="#mb2d415cebc" x="204.033332" y="25.178452" style="fill: #262626; stroke: #262626"/>
     <use xlink:href="#mb2d415cebc" x="222.717509" y="101.497102" style="fill: #262626; stroke: #262626"/>
     <use xlink:href="#mb2d415cebc" x="241.401686" y="78.89133" style="fill: #262626; stroke: #262626"/>
     <use xlink:href="#mb2d415cebc" x="260.085862" y="97.457664" style="fill: #262626; stroke: #262626"/>
     <use xlink:href="#mb2d415cebc" x="278.770039" y="98.539128" style="fill: #262626; stroke: #262626"/>
     <use xlink:href="#mb2d415cebc" x="297.454216" y="97.799874" style="fill: #262626; stroke: #262626"/>
     <use xlink:href="#mb2d415cebc" x="316.138392" y="98.515951" style="fill: #262626; stroke: #262626"/>
     <use xlink:href="#mb2d415cebc" x="334.822569" y="81.165227" style="fill: #262626; stroke: #262626"/>
     <use xlink:href="#mb2d415cebc" x="353.506745" y="98.219283" style="fill: #262626; stroke: #262626"/>
     <use xlink:href="#mb2d415cebc" x="372.190922" y="97.027726" style="fill: #262626; stroke: #262626"/>
     <use xlink:href="#mb2d415cebc" x="390.875099" y="93.263431" style="fill: #262626; stroke: #262626"/>
     <use xlink:href="#mb2d415cebc" x="409.559275" y="97.030452" style="fill: #262626; stroke: #262626"/>
     <use xlink:href="#mb2d415cebc" x="428.243452" y="95.975383" style="fill: #262626; stroke: #262626"/>
     <use xlink:href="#mb2d415cebc" x="446.927628" y="89.460629" style="fill: #262626; stroke: #262626"/>
     <use xlink:href="#mb2d415cebc" x="465.611805" y="79.298399" style="fill: #262626; stroke: #262626"/>
     <use xlink:href="#mb2d415cebc" x="484.295982" y="101.412223" style="fill: #262626; stroke: #262626"/>
     <use xlink:href="#mb2d415cebc" x="502.980158" y="96.036347" style="fill: #262626; stroke: #262626"/>
     <use xlink:href="#mb2d415cebc" x="521.664335" y="94.694525" style="fill: #262626; stroke: #262626"/>
     <use xlink:href="#mb2d415cebc" x="540.348512" y="103.44228" style="fill: #262626; stroke: #262626"/>
    </g>
   </g>
   <g id="patch_55">
    <path d="M 57.362546 140.151217 
L 57.362546 10.447225 
" style="fill: none; stroke: #cccccc; stroke-width: 1.25; stroke-linejoin: miter; stroke-linecap: square"/>
   </g>
   <g id="patch_56">
    <path d="M 57.362546 140.151217 
L 548.756391 140.151217 
" style="fill: none; stroke: #cccccc; stroke-width: 1.25; stroke-linejoin: miter; stroke-linecap: square"/>
   </g>
   <g id="legend_1">
    <g id="patch_57">
     <path d="M 476.115092 49.909014 
L 541.056391 49.909014 
Q 543.256391 49.909014 543.256391 47.709014 
L 543.256391 18.147225 
Q 543.256391 15.947225 541.056391 15.947225 
L 476.115092 15.947225 
Q 473.915092 15.947225 473.915092 18.147225 
L 473.915092 47.709014 
Q 473.915092 49.909014 476.115092 49.909014 
z
" style="fill: #ffffff; opacity: 0.8; stroke: #cccccc; stroke-linejoin: miter"/>
    </g>
    <g id="patch_58">
     <path d="M 478.315092 28.047225 
L 500.315092 28.047225 
L 500.315092 20.347225 
L 478.315092 20.347225 
z
" style="fill: #4c72b0; stroke: #ffffff; stroke-linejoin: miter"/>
    </g>
    <g id="text_32">
     <!-- Elision -->
     <g style="fill: #262626" transform="translate(509.115092 28.047225) scale(0.11 -0.11)">
      <defs>
       <path id="CMSS17-45" d="M 1958 433 
C 1446 433 1216 433 1101 433 
L 1101 2107 
L 3085 2107 
L 3085 2496 
L 1101 2496 
L 1101 4009 
L 1926 4009 
C 2003 4009 2080 4009 2157 4009 
L 3251 4009 
L 3251 4416 
L 563 4416 
L 563 0 
L 3334 0 
L 3334 433 
L 1958 433 
z
" transform="scale(0.015625)"/>
      </defs>
      <use xlink:href="#CMSS17-45" transform="scale(0.996264)"/>
      <use xlink:href="#CMSS17-6c" transform="translate(55.892013 0) scale(0.996264)"/>
      <use xlink:href="#CMSS17-69" transform="translate(78.072736 0) scale(0.996264)"/>
      <use xlink:href="#CMSS17-73" transform="translate(100.253459 0) scale(0.996264)"/>
      <use xlink:href="#CMSS17-69" transform="translate(136.167001 0) scale(0.996264)"/>
      <use xlink:href="#CMSS17-6f" transform="translate(158.347724 0) scale(0.996264)"/>
      <use xlink:href="#CMSS17-6e" transform="translate(205.191348 0) scale(0.996264)"/>
     </g>
    </g>
    <g id="patch_59">
     <path d="M 478.315092 43.37812 
L 500.315092 43.37812 
L 500.315092 35.67812 
L 478.315092 35.67812 
z
" style="fill: #dd8452; stroke: #ffffff; stroke-linejoin: miter"/>
    </g>
    <g id="text_33">
     <!-- Naive -->
     <g style="fill: #262626" transform="translate(509.115092 43.37812) scale(0.11 -0.11)">
      <use xlink:href="#CMSS17-4e" transform="scale(0.996264)"/>
      <use xlink:href="#CMSS17-61" transform="translate(66.061519 0) scale(0.996264)"/>
      <use xlink:href="#CMSS17-69" transform="translate(110.98344 0) scale(0.996264)"/>
      <use xlink:href="#CMSS17-76" transform="translate(133.164163 0) scale(0.996264)"/>
      <use xlink:href="#CMSS17-65" transform="translate(176.164305 0) scale(0.996264)"/>
     </g>
    </g>
   </g>
  </g>
 </g>
 <defs>
  <clipPath id="p261dde9b09">
   <rect x="57.362546" y="10.447225" width="491.393845" height="129.703992"/>
  </clipPath>
 </defs>
</svg>
