<?xml version="1.0" encoding="utf-8" standalone="no"?>
<!DOCTYPE svg PUBLIC "-//W3C//DTD SVG 1.1//EN"
  "http://www.w3.org/Graphics/SVG/1.1/DTD/svg11.dtd">
<svg xmlns:xlink="http://www.w3.org/1999/xlink" width="496.8pt" height="208.8pt" viewBox="0 0 496.8 208.8" xmlns="http://www.w3.org/2000/svg" version="1.1">
 <metadata>
  <rdf:RDF xmlns:dc="http://purl.org/dc/elements/1.1/" xmlns:cc="http://creativecommons.org/ns#" xmlns:rdf="http://www.w3.org/1999/02/22-rdf-syntax-ns#">
   <cc:Work>
    <dc:type rdf:resource="http://purl.org/dc/dcmitype/StillImage"/>
    <dc:date>2025-03-26T11:43:59.048629</dc:date>
    <dc:format>image/svg+xml</dc:format>
    <dc:creator>
     <cc:Agent>
      <dc:title>Matplotlib v3.9.2, https://matplotlib.org/</dc:title>
     </cc:Agent>
    </dc:creator>
   </cc:Work>
  </rdf:RDF>
 </metadata>
 <defs>
  <style type="text/css">*{stroke-linejoin: round; stroke-linecap: butt}</style>
 </defs>
 <g id="figure_1">
  <g id="patch_1">
   <path d="M 0 208.8 
L 496.8 208.8 
L 496.8 0 
L 0 0 
z
" style="fill: #ffffff"/>
  </g>
  <g id="axes_1">
   <g id="patch_2">
    <path d="M 59.545017 91.650146 
L 489.6 91.650146 
L 489.6 21.50218 
L 59.545017 21.50218 
z
" style="fill: #ffffff"/>
   </g>
   <g id="patch_3">
    <path d="M 74.272928 91.650146 
L 97.837584 91.650146 
L 97.837584 22.387849 
L 74.272928 22.387849 
z
" clip-path="url(#pc85bb9cece)" style="fill: #1f77b4"/>
   </g>
   <g id="patch_4">
    <path d="M 133.184569 91.650146 
L 156.749226 91.650146 
L 156.749226 22.965885 
L 133.184569 22.965885 
z
" clip-path="url(#pc85bb9cece)" style="fill: #1f77b4"/>
   </g>
   <g id="patch_5">
    <path d="M 192.096211 91.650146 
L 215.660867 91.650146 
L 215.660867 25.023012 
L 192.096211 25.023012 
z
" clip-path="url(#pc85bb9cece)" style="fill: #1f77b4"/>
   </g>
   <g id="patch_6">
    <path d="M 251.007852 91.650146 
L 274.572509 91.650146 
L 274.572509 24.325969 
L 251.007852 24.325969 
z
" clip-path="url(#pc85bb9cece)" style="fill: #1f77b4"/>
   </g>
   <g id="patch_7">
    <path d="M 309.919493 91.650146 
L 333.48415 91.650146 
L 333.48415 23.951946 
L 309.919493 23.951946 
z
" clip-path="url(#pc85bb9cece)" style="fill: #1f77b4"/>
   </g>
   <g id="patch_8">
    <path d="M 368.831135 91.650146 
L 392.395792 91.650146 
L 392.395792 30.820372 
L 368.831135 30.820372 
z
" clip-path="url(#pc85bb9cece)" style="fill: #1f77b4"/>
   </g>
   <g id="patch_9">
    <path d="M 427.742776 91.650146 
L 451.307433 91.650146 
L 451.307433 67.967677 
L 427.742776 67.967677 
z
" clip-path="url(#pc85bb9cece)" style="fill: #1f77b4"/>
   </g>
   <g id="patch_10">
    <path d="M 97.837584 91.650146 
L 121.402241 91.650146 
L 121.402241 21.911819 
L 97.837584 21.911819 
z
" clip-path="url(#pc85bb9cece)" style="fill: #ff7f0e"/>
   </g>
   <g id="patch_11">
    <path d="M 156.749226 91.650146 
L 180.313882 91.650146 
L 180.313882 22.40485 
L 156.749226 22.40485 
z
" clip-path="url(#pc85bb9cece)" style="fill: #ff7f0e"/>
   </g>
   <g id="patch_12">
    <path d="M 215.660867 91.650146 
L 239.225524 91.650146 
L 239.225524 23.475916 
L 215.660867 23.475916 
z
" clip-path="url(#pc85bb9cece)" style="fill: #ff7f0e"/>
   </g>
   <g id="patch_13">
    <path d="M 274.572509 91.650146 
L 298.137165 91.650146 
L 298.137165 23.407912 
L 274.572509 23.407912 
z
" clip-path="url(#pc85bb9cece)" style="fill: #ff7f0e"/>
   </g>
   <g id="patch_14">
    <path d="M 333.48415 91.650146 
L 357.048807 91.650146 
L 357.048807 23.968947 
L 333.48415 23.968947 
z
" clip-path="url(#pc85bb9cece)" style="fill: #ff7f0e"/>
   </g>
   <g id="patch_15">
    <path d="M 392.395792 91.650146 
L 415.960448 91.650146 
L 415.960448 31.126391 
L 392.395792 31.126391 
z
" clip-path="url(#pc85bb9cece)" style="fill: #ff7f0e"/>
   </g>
   <g id="patch_16">
    <path d="M 451.307433 91.650146 
L 474.87209 91.650146 
L 474.87209 67.576653 
L 451.307433 67.576653 
z
" clip-path="url(#pc85bb9cece)" style="fill: #ff7f0e"/>
   </g>
   <g id="matplotlib.axis_1">
    <g id="xtick_1">
     <g id="line2d_1">
      <path d="M 97.837584 91.650146 
L 97.837584 21.50218 
" clip-path="url(#pc85bb9cece)" style="fill: none; stroke-dasharray: 0.925,0.4; stroke-dashoffset: 0; stroke: #b0b0b0; stroke-opacity: 0.7; stroke-width: 0.25"/>
     </g>
     <g id="line2d_2">
      <defs>
       <path id="mca5a87e935" d="M 0 0 
L 0 3.5 
" style="stroke: #000000; stroke-width: 0.8"/>
      </defs>
      <g>
       <use xlink:href="#mca5a87e935" x="97.837584" y="91.650146" style="stroke: #000000; stroke-width: 0.8"/>
      </g>
     </g>
     <g id="text_1">
      <!-- command-execution -->
      <g transform="translate(37.938417 162.071639) rotate(-45) scale(0.1 -0.1)">
       <defs>
        <path id="CMSS17-63" d="M 2464 2541 
C 2464 2585 2170 2714 2093 2739 
C 1882 2816 1613 2816 1542 2816 
C 710 2816 211 2093 211 1363 
C 211 595 768 -64 1517 -64 
C 1946 -64 2253 76 2502 242 
L 2464 664 
C 2189 453 1869 337 1523 337 
C 1024 337 698 774 698 1369 
C 698 1831 909 2414 1549 2414 
C 1901 2414 2099 2343 2394 2145 
L 2464 2541 
z
" transform="scale(0.015625)"/>
        <path id="CMSS17-6f" d="M 2829 1356 
C 2829 2176 2221 2816 1504 2816 
C 768 2816 173 2157 173 1356 
C 173 544 787 -64 1498 -64 
C 2227 -64 2829 563 2829 1356 
z
M 1504 337 
C 1050 337 659 709 659 1408 
C 659 2151 1114 2427 1498 2427 
C 1914 2427 2342 2126 2342 1408 
C 2342 683 1926 337 1504 337 
z
" transform="scale(0.015625)"/>
        <path id="CMSS17-6d" d="M 4288 1877 
C 4288 2308 4179 2816 3462 2816 
C 2982 2816 2694 2516 2566 2331 
C 2451 2670 2182 2816 1798 2816 
C 1363 2816 1088 2568 941 2389 
L 941 2758 
L 474 2758 
L 474 0 
L 960 0 
L 960 1559 
C 960 1939 1101 2428 1555 2428 
C 2138 2428 2138 2016 2138 1829 
L 2138 0 
L 2624 0 
L 2624 1559 
C 2624 1939 2765 2428 3219 2428 
C 3802 2428 3802 2016 3802 1829 
L 3802 0 
L 4288 0 
L 4288 1877 
z
" transform="scale(0.015625)"/>
        <path id="CMSS17-61" d="M 2406 1791 
C 2406 2392 1978 2808 1402 2808 
C 1120 2808 813 2757 461 2553 
L 499 2135 
C 659 2248 934 2432 1395 2432 
C 1722 2432 1920 2180 1920 1782 
L 1920 1536 
C 896 1536 256 1238 256 726 
C 256 461 416 -64 947 -64 
C 1043 -64 1562 -64 1933 217 
L 1933 -19 
L 2406 -19 
L 2406 1791 
z
M 1920 816 
C 1920 701 1920 548 1728 434 
C 1562 325 1350 325 1261 325 
C 941 325 723 511 723 744 
C 723 1211 1722 1211 1920 1211 
L 1920 816 
z
" transform="scale(0.015625)"/>
        <path id="CMSS17-6e" d="M 2618 1877 
C 2618 2283 2522 2816 1798 2816 
C 1389 2816 1120 2606 941 2389 
L 941 2758 
L 474 2758 
L 474 0 
L 960 0 
L 960 1559 
C 960 1964 1114 2428 1549 2428 
C 2112 2428 2131 2048 2131 1829 
L 2131 0 
L 2618 0 
L 2618 1877 
z
" transform="scale(0.015625)"/>
        <path id="CMSS17-64" d="M 2611 4416 
L 2138 4416 
L 2138 2438 
C 1939 2603 1613 2756 1254 2756 
C 672 2756 211 2131 211 1347 
C 211 562 666 -64 1235 -64 
C 1677 -64 1971 172 2125 306 
L 2125 -13 
L 2611 -13 
L 2611 4416 
z
M 2125 836 
C 2125 747 2125 653 1926 482 
C 1798 375 1645 325 1498 325 
C 1152 325 698 576 698 1340 
C 698 2134 1210 2368 1562 2368 
C 1798 2368 1990 2254 2125 2065 
L 2125 836 
z
" transform="scale(0.015625)"/>
        <path id="CMSS17-2d" d="M 1664 1216 
L 1664 1585 
L 64 1585 
L 64 1216 
L 1664 1216 
z
" transform="scale(0.015625)"/>
        <path id="CMSS17-65" d="M 2502 1377 
C 2502 1590 2490 2003 2285 2345 
C 2061 2713 1696 2816 1421 2816 
C 755 2816 192 2188 192 1375 
C 192 582 774 -64 1510 -64 
C 1798 -64 2150 19 2470 248 
C 2470 274 2458 414 2451 420 
C 2451 433 2432 630 2432 656 
C 2125 407 1773 325 1517 325 
C 1107 325 666 667 646 1377 
L 2502 1377 
z
M 698 1728 
C 781 2084 1062 2421 1421 2421 
C 1517 2421 1965 2421 2080 1728 
L 698 1728 
z
" transform="scale(0.015625)"/>
        <path id="CMSS17-78" d="M 1587 1414 
L 2656 2739 
L 2099 2739 
L 1363 1777 
L 602 2739 
L 32 2739 
L 1139 1414 
L 0 0 
L 563 0 
L 1363 1121 
L 2195 0 
L 2758 0 
L 1587 1414 
z
" transform="scale(0.015625)"/>
        <path id="CMSS17-75" d="M 2618 2739 
L 2131 2739 
L 2131 972 
C 2131 498 1786 306 1421 306 
C 998 306 960 447 960 709 
L 960 2739 
L 474 2739 
L 474 678 
C 474 179 646 -64 1088 -64 
C 1306 -64 1798 -13 2144 306 
L 2144 0 
L 2618 0 
L 2618 2739 
z
" transform="scale(0.015625)"/>
        <path id="CMSS17-74" d="M 1069 2368 
L 1901 2368 
L 1901 2737 
L 1069 2737 
L 1069 3520 
L 614 3520 
L 614 2737 
L 109 2737 
L 109 2368 
L 602 2368 
L 602 749 
C 602 384 685 -64 1107 -64 
C 1427 -64 1722 25 2003 172 
L 1901 548 
C 1747 414 1562 337 1363 337 
C 1082 337 1069 696 1069 856 
L 1069 2368 
z
" transform="scale(0.015625)"/>
        <path id="CMSS17-69" d="M 979 4183 
L 442 4183 
L 442 3648 
L 979 3648 
L 979 4183 
z
M 947 2739 
L 474 2739 
L 474 0 
L 947 0 
L 947 2739 
z
" transform="scale(0.015625)"/>
       </defs>
       <use xlink:href="#CMSS17-63" transform="scale(0.996264)"/>
       <use xlink:href="#CMSS17-6f" transform="translate(41.638822 0) scale(0.996264)"/>
       <use xlink:href="#CMSS17-6d" transform="translate(88.482446 0) scale(0.996264)"/>
       <use xlink:href="#CMSS17-6d" transform="translate(162.7117 0) scale(0.996264)"/>
       <use xlink:href="#CMSS17-61" transform="translate(236.940954 0) scale(0.996264)"/>
       <use xlink:href="#CMSS17-6e" transform="translate(281.862875 0) scale(0.996264)"/>
       <use xlink:href="#CMSS17-64" transform="translate(330.067818 0) scale(0.996264)"/>
       <use xlink:href="#CMSS17-2d" transform="translate(378.272761 0) scale(0.996264)"/>
       <use xlink:href="#CMSS17-65" transform="translate(409.501874 0) scale(0.996264)"/>
       <use xlink:href="#CMSS17-78" transform="translate(451.140696 0) scale(0.996264)"/>
       <use xlink:href="#CMSS17-65" transform="translate(494.140838 0) scale(0.996264)"/>
       <use xlink:href="#CMSS17-63" transform="translate(535.77966 0) scale(0.996264)"/>
       <use xlink:href="#CMSS17-75" transform="translate(577.418482 0) scale(0.996264)"/>
       <use xlink:href="#CMSS17-74" transform="translate(625.623425 0) scale(0.996264)"/>
       <use xlink:href="#CMSS17-69" transform="translate(659.454992 0) scale(0.996264)"/>
       <use xlink:href="#CMSS17-6f" transform="translate(681.635715 0) scale(0.996264)"/>
       <use xlink:href="#CMSS17-6e" transform="translate(728.479338 0) scale(0.996264)"/>
      </g>
     </g>
    </g>
    <g id="xtick_2">
     <g id="line2d_3">
      <path d="M 156.749226 91.650146 
L 156.749226 21.50218 
" clip-path="url(#pc85bb9cece)" style="fill: none; stroke-dasharray: 0.925,0.4; stroke-dashoffset: 0; stroke: #b0b0b0; stroke-opacity: 0.7; stroke-width: 0.25"/>
     </g>
     <g id="line2d_4">
      <g>
       <use xlink:href="#mca5a87e935" x="156.749226" y="91.650146" style="stroke: #000000; stroke-width: 0.8"/>
      </g>
     </g>
     <g id="text_2">
      <!-- command-execution-large-output -->
      <g transform="translate(58.691489 200.230208) rotate(-45) scale(0.1 -0.1)">
       <defs>
        <path id="CMSS17-6c" d="M 947 4416 
L 474 4416 
L 474 0 
L 947 0 
L 947 4416 
z
" transform="scale(0.015625)"/>
        <path id="CMSS17-72" d="M 954 1363 
C 954 1965 1395 2368 1958 2368 
L 1958 2789 
C 1549 2789 1165 2585 934 2253 
L 934 2758 
L 480 2758 
L 480 0 
L 954 0 
L 954 1363 
z
" transform="scale(0.015625)"/>
        <path id="CMSS17-67" d="M 2848 2808 
C 2483 2808 2170 2738 1914 2617 
C 1702 2777 1485 2808 1338 2808 
C 781 2808 358 2349 358 1814 
C 358 1468 550 1207 563 1195 
C 448 1035 384 863 384 672 
C 384 448 474 289 544 200 
C 211 -3 166 -314 166 -435 
C 166 -898 749 -1280 1498 -1280 
C 2253 -1280 2835 -898 2835 -428 
C 2835 448 1856 448 1587 448 
L 1069 448 
C 973 448 717 448 717 791 
C 717 921 774 1004 781 1010 
C 877 940 1075 832 1338 832 
C 1869 832 2310 1278 2310 1827 
C 2310 2132 2170 2355 2112 2432 
L 2131 2432 
C 2150 2432 2419 2432 2515 2432 
C 2720 2432 2739 2429 2918 2419 
L 2848 2808 
z
M 1338 1182 
C 1120 1182 813 1315 813 1823 
C 813 2375 1165 2464 1331 2464 
C 1549 2464 1856 2331 1856 1823 
C 1856 1271 1504 1182 1338 1182 
z
M 1581 -10 
C 1734 -10 2381 -10 2381 -442 
C 2381 -714 1984 -929 1504 -929 
C 1018 -929 621 -720 621 -435 
C 621 -403 621 -10 1062 -10 
L 1581 -10 
z
" transform="scale(0.015625)"/>
        <path id="CMSS17-70" d="M 966 333 
C 1178 129 1466 -5 1773 -5 
C 2368 -5 2880 603 2880 1412 
C 2880 2159 2496 2816 1946 2816 
C 1626 2816 1242 2702 954 2472 
L 954 2765 
L 480 2765 
L 480 -1216 
L 966 -1216 
L 966 333 
z
M 966 2100 
C 1018 2176 1235 2415 1587 2415 
C 2035 2415 2394 1960 2394 1412 
C 2394 787 1958 384 1530 384 
C 1402 384 1267 415 1139 523 
C 966 674 966 768 966 857 
L 966 2100 
z
" transform="scale(0.015625)"/>
       </defs>
       <use xlink:href="#CMSS17-63" transform="scale(0.996264)"/>
       <use xlink:href="#CMSS17-6f" transform="translate(41.638822 0) scale(0.996264)"/>
       <use xlink:href="#CMSS17-6d" transform="translate(88.482446 0) scale(0.996264)"/>
       <use xlink:href="#CMSS17-6d" transform="translate(162.7117 0) scale(0.996264)"/>
       <use xlink:href="#CMSS17-61" transform="translate(236.940954 0) scale(0.996264)"/>
       <use xlink:href="#CMSS17-6e" transform="translate(281.862875 0) scale(0.996264)"/>
       <use xlink:href="#CMSS17-64" transform="translate(330.067818 0) scale(0.996264)"/>
       <use xlink:href="#CMSS17-2d" transform="translate(378.272761 0) scale(0.996264)"/>
       <use xlink:href="#CMSS17-65" transform="translate(409.501874 0) scale(0.996264)"/>
       <use xlink:href="#CMSS17-78" transform="translate(451.140696 0) scale(0.996264)"/>
       <use xlink:href="#CMSS17-65" transform="translate(494.140838 0) scale(0.996264)"/>
       <use xlink:href="#CMSS17-63" transform="translate(535.77966 0) scale(0.996264)"/>
       <use xlink:href="#CMSS17-75" transform="translate(577.418482 0) scale(0.996264)"/>
       <use xlink:href="#CMSS17-74" transform="translate(625.623425 0) scale(0.996264)"/>
       <use xlink:href="#CMSS17-69" transform="translate(659.454992 0) scale(0.996264)"/>
       <use xlink:href="#CMSS17-6f" transform="translate(681.635715 0) scale(0.996264)"/>
       <use xlink:href="#CMSS17-6e" transform="translate(728.479338 0) scale(0.996264)"/>
       <use xlink:href="#CMSS17-2d" transform="translate(776.684281 0) scale(0.996264)"/>
       <use xlink:href="#CMSS17-6c" transform="translate(807.913394 0) scale(0.996264)"/>
       <use xlink:href="#CMSS17-61" transform="translate(830.094117 0) scale(0.996264)"/>
       <use xlink:href="#CMSS17-72" transform="translate(872.413584 0) scale(0.996264)"/>
       <use xlink:href="#CMSS17-67" transform="translate(904.323357 0) scale(0.996264)"/>
       <use xlink:href="#CMSS17-65" transform="translate(951.16698 0) scale(0.996264)"/>
       <use xlink:href="#CMSS17-2d" transform="translate(992.805802 0) scale(0.996264)"/>
       <use xlink:href="#CMSS17-6f" transform="translate(1024.034915 0) scale(0.996264)"/>
       <use xlink:href="#CMSS17-75" transform="translate(1070.878538 0) scale(0.996264)"/>
       <use xlink:href="#CMSS17-74" transform="translate(1119.083482 0) scale(0.996264)"/>
       <use xlink:href="#CMSS17-70" transform="translate(1152.915048 0) scale(0.996264)"/>
       <use xlink:href="#CMSS17-75" transform="translate(1201.119991 0) scale(0.996264)"/>
       <use xlink:href="#CMSS17-74" transform="translate(1249.324934 0) scale(0.996264)"/>
      </g>
     </g>
    </g>
    <g id="xtick_3">
     <g id="line2d_5">
      <path d="M 215.660867 91.650146 
L 215.660867 21.50218 
" clip-path="url(#pc85bb9cece)" style="fill: none; stroke-dasharray: 0.925,0.4; stroke-dashoffset: 0; stroke: #b0b0b0; stroke-opacity: 0.7; stroke-width: 0.25"/>
     </g>
     <g id="line2d_6">
      <g>
       <use xlink:href="#mca5a87e935" x="215.660867" y="91.650146" style="stroke: #000000; stroke-width: 0.8"/>
      </g>
     </g>
     <g id="text_3">
      <!-- file-extension -->
      <g transform="translate(176.112964 141.720375) rotate(-45) scale(0.1 -0.1)">
       <defs>
        <path id="CMSS17-c" d="M 2752 4416 
L 2240 4416 
L 2240 3906 
L 2752 3906 
L 2752 4416 
z
M 2733 2737 
L 2259 2737 
L 2259 0 
L 2733 0 
L 2733 2737 
z
M 1075 2368 
L 1773 2368 
L 1773 2737 
L 1062 2737 
L 1062 3578 
C 1062 3919 1216 4092 1421 4092 
C 1542 4092 1664 4056 1773 3992 
L 1773 4410 
C 1722 4428 1574 4480 1421 4480 
C 941 4480 602 3993 602 3372 
L 602 2737 
L 160 2737 
L 160 2368 
L 602 2368 
L 602 0 
L 1075 0 
L 1075 2368 
z
" transform="scale(0.015625)"/>
        <path id="CMSS17-73" d="M 2061 2627 
C 1683 2807 1389 2807 1197 2807 
C 742 2807 198 2648 198 2003 
C 198 1359 902 1218 1094 1179 
C 1389 1122 1715 1058 1715 740 
C 1715 337 1254 337 1171 337 
C 915 337 563 407 243 638 
L 166 210 
C 531 0 883 -64 1178 -64 
C 1965 -64 2163 416 2163 781 
C 2163 1094 1984 1305 1862 1401 
C 1651 1568 1574 1587 1050 1696 
C 960 1709 646 1779 646 2066 
C 646 2432 1050 2432 1139 2432 
C 1555 2432 1811 2303 1984 2208 
L 2061 2627 
z
" transform="scale(0.015625)"/>
       </defs>
       <use xlink:href="#CMSS17-c" transform="scale(0.996264)"/>
       <use xlink:href="#CMSS17-6c" transform="translate(50.126737 0) scale(0.996264)"/>
       <use xlink:href="#CMSS17-65" transform="translate(72.30746 0) scale(0.996264)"/>
       <use xlink:href="#CMSS17-2d" transform="translate(113.946282 0) scale(0.996264)"/>
       <use xlink:href="#CMSS17-65" transform="translate(145.175395 0) scale(0.996264)"/>
       <use xlink:href="#CMSS17-78" transform="translate(186.814217 0) scale(0.996264)"/>
       <use xlink:href="#CMSS17-74" transform="translate(229.814359 0) scale(0.996264)"/>
       <use xlink:href="#CMSS17-65" transform="translate(263.645926 0) scale(0.996264)"/>
       <use xlink:href="#CMSS17-6e" transform="translate(305.284748 0) scale(0.996264)"/>
       <use xlink:href="#CMSS17-73" transform="translate(353.489691 0) scale(0.996264)"/>
       <use xlink:href="#CMSS17-69" transform="translate(389.403233 0) scale(0.996264)"/>
       <use xlink:href="#CMSS17-6f" transform="translate(411.583956 0) scale(0.996264)"/>
       <use xlink:href="#CMSS17-6e" transform="translate(458.427579 0) scale(0.996264)"/>
      </g>
     </g>
    </g>
    <g id="xtick_4">
     <g id="line2d_7">
      <path d="M 274.572509 91.650146 
L 274.572509 21.50218 
" clip-path="url(#pc85bb9cece)" style="fill: none; stroke-dasharray: 0.925,0.4; stroke-dashoffset: 0; stroke: #b0b0b0; stroke-opacity: 0.7; stroke-width: 0.25"/>
     </g>
     <g id="line2d_8">
      <g>
       <use xlink:href="#mca5a87e935" x="274.572509" y="91.650146" style="stroke: #000000; stroke-width: 0.8"/>
      </g>
     </g>
     <g id="text_4">
      <!-- file-type -->
      <g transform="translate(249.700967 127.044013) rotate(-45) scale(0.1 -0.1)">
       <defs>
        <path id="CMSS17-79" d="M 2675 2752 
L 2176 2752 
C 1632 1294 1446 702 1434 383 
L 1427 383 
C 1408 696 1126 1460 902 2007 
L 602 2752 
L 83 2752 
L 1216 13 
C 1146 -178 1043 -465 1011 -529 
C 870 -885 774 -885 672 -885 
C 646 -885 442 -885 211 -809 
L 250 -1229 
C 410 -1261 570 -1280 685 -1280 
C 845 -1280 1165 -1280 1459 -497 
L 2675 2752 
z
" transform="scale(0.015625)"/>
       </defs>
       <use xlink:href="#CMSS17-c" transform="scale(0.996264)"/>
       <use xlink:href="#CMSS17-6c" transform="translate(50.126737 0) scale(0.996264)"/>
       <use xlink:href="#CMSS17-65" transform="translate(72.30746 0) scale(0.996264)"/>
       <use xlink:href="#CMSS17-2d" transform="translate(113.946282 0) scale(0.996264)"/>
       <use xlink:href="#CMSS17-74" transform="translate(145.175395 0) scale(0.996264)"/>
       <use xlink:href="#CMSS17-79" transform="translate(176.404508 0) scale(0.996264)"/>
       <use xlink:href="#CMSS17-70" transform="translate(219.40465 0) scale(0.996264)"/>
       <use xlink:href="#CMSS17-65" transform="translate(270.212031 0) scale(0.996264)"/>
      </g>
     </g>
    </g>
    <g id="xtick_5">
     <g id="line2d_9">
      <path d="M 333.48415 91.650146 
L 333.48415 21.50218 
" clip-path="url(#pc85bb9cece)" style="fill: none; stroke-dasharray: 0.925,0.4; stroke-dashoffset: 0; stroke: #b0b0b0; stroke-opacity: 0.7; stroke-width: 0.25"/>
     </g>
     <g id="line2d_10">
      <g>
       <use xlink:href="#mca5a87e935" x="333.48415" y="91.650146" style="stroke: #000000; stroke-width: 0.8"/>
      </g>
     </g>
     <g id="text_5">
      <!-- no-pattern -->
      <g transform="translate(301.313533 134.343088) rotate(-45) scale(0.1 -0.1)">
       <use xlink:href="#CMSS17-6e" transform="scale(0.996264)"/>
       <use xlink:href="#CMSS17-6f" transform="translate(48.204943 0) scale(0.996264)"/>
       <use xlink:href="#CMSS17-2d" transform="translate(95.048567 0) scale(0.996264)"/>
       <use xlink:href="#CMSS17-70" transform="translate(126.277679 0) scale(0.996264)"/>
       <use xlink:href="#CMSS17-61" transform="translate(174.482623 0) scale(0.996264)"/>
       <use xlink:href="#CMSS17-74" transform="translate(219.404543 0) scale(0.996264)"/>
       <use xlink:href="#CMSS17-74" transform="translate(253.23611 0) scale(0.996264)"/>
       <use xlink:href="#CMSS17-65" transform="translate(287.067677 0) scale(0.996264)"/>
       <use xlink:href="#CMSS17-72" transform="translate(328.706499 0) scale(0.996264)"/>
       <use xlink:href="#CMSS17-6e" transform="translate(360.616271 0) scale(0.996264)"/>
      </g>
     </g>
    </g>
    <g id="xtick_6">
     <g id="line2d_11">
      <path d="M 392.395792 91.650146 
L 392.395792 21.50218 
" clip-path="url(#pc85bb9cece)" style="fill: none; stroke-dasharray: 0.925,0.4; stroke-dashoffset: 0; stroke: #b0b0b0; stroke-opacity: 0.7; stroke-width: 0.25"/>
     </g>
     <g id="line2d_12">
      <g>
       <use xlink:href="#mca5a87e935" x="392.395792" y="91.650146" style="stroke: #000000; stroke-width: 0.8"/>
      </g>
     </g>
     <g id="text_6">
      <!-- simple-pattern -->
      <g transform="translate(348.953745 145.614518) rotate(-45) scale(0.1 -0.1)">
       <use xlink:href="#CMSS17-73" transform="scale(0.996264)"/>
       <use xlink:href="#CMSS17-69" transform="translate(35.913542 0) scale(0.996264)"/>
       <use xlink:href="#CMSS17-6d" transform="translate(58.094265 0) scale(0.996264)"/>
       <use xlink:href="#CMSS17-70" transform="translate(132.323519 0) scale(0.996264)"/>
       <use xlink:href="#CMSS17-6c" transform="translate(180.528463 0) scale(0.996264)"/>
       <use xlink:href="#CMSS17-65" transform="translate(202.709186 0) scale(0.996264)"/>
       <use xlink:href="#CMSS17-2d" transform="translate(244.348008 0) scale(0.996264)"/>
       <use xlink:href="#CMSS17-70" transform="translate(275.57712 0) scale(0.996264)"/>
       <use xlink:href="#CMSS17-61" transform="translate(323.782064 0) scale(0.996264)"/>
       <use xlink:href="#CMSS17-74" transform="translate(368.703984 0) scale(0.996264)"/>
       <use xlink:href="#CMSS17-74" transform="translate(402.535551 0) scale(0.996264)"/>
       <use xlink:href="#CMSS17-65" transform="translate(436.367118 0) scale(0.996264)"/>
       <use xlink:href="#CMSS17-72" transform="translate(478.00594 0) scale(0.996264)"/>
       <use xlink:href="#CMSS17-6e" transform="translate(509.915712 0) scale(0.996264)"/>
      </g>
     </g>
    </g>
    <g id="xtick_7">
     <g id="line2d_13">
      <path d="M 451.307433 91.650146 
L 451.307433 21.50218 
" clip-path="url(#pc85bb9cece)" style="fill: none; stroke-dasharray: 0.925,0.4; stroke-dashoffset: 0; stroke: #b0b0b0; stroke-opacity: 0.7; stroke-width: 0.25"/>
     </g>
     <g id="line2d_14">
      <g>
       <use xlink:href="#mca5a87e935" x="451.307433" y="91.650146" style="stroke: #000000; stroke-width: 0.8"/>
      </g>
     </g>
     <g id="text_7">
      <!-- simple-pattern-HI -->
      <g transform="translate(398.57032 154.909585) rotate(-45) scale(0.1 -0.1)">
       <defs>
        <path id="CMSS17-48" d="M 3674 4416 
L 3136 4416 
L 3136 2501 
L 1101 2501 
L 1101 4416 
L 563 4416 
L 563 0 
L 1101 0 
L 1101 2112 
L 3136 2112 
L 3136 0 
L 3674 0 
L 3674 4416 
z
" transform="scale(0.015625)"/>
        <path id="CMSS17-49" d="M 1094 4416 
L 557 4416 
L 557 0 
L 1094 0 
L 1094 4416 
z
" transform="scale(0.015625)"/>
       </defs>
       <use xlink:href="#CMSS17-73" transform="scale(0.996264)"/>
       <use xlink:href="#CMSS17-69" transform="translate(35.913542 0) scale(0.996264)"/>
       <use xlink:href="#CMSS17-6d" transform="translate(58.094265 0) scale(0.996264)"/>
       <use xlink:href="#CMSS17-70" transform="translate(132.323519 0) scale(0.996264)"/>
       <use xlink:href="#CMSS17-6c" transform="translate(180.528463 0) scale(0.996264)"/>
       <use xlink:href="#CMSS17-65" transform="translate(202.709186 0) scale(0.996264)"/>
       <use xlink:href="#CMSS17-2d" transform="translate(244.348008 0) scale(0.996264)"/>
       <use xlink:href="#CMSS17-70" transform="translate(275.57712 0) scale(0.996264)"/>
       <use xlink:href="#CMSS17-61" transform="translate(323.782064 0) scale(0.996264)"/>
       <use xlink:href="#CMSS17-74" transform="translate(368.703984 0) scale(0.996264)"/>
       <use xlink:href="#CMSS17-74" transform="translate(402.535551 0) scale(0.996264)"/>
       <use xlink:href="#CMSS17-65" transform="translate(436.367118 0) scale(0.996264)"/>
       <use xlink:href="#CMSS17-72" transform="translate(478.00594 0) scale(0.996264)"/>
       <use xlink:href="#CMSS17-6e" transform="translate(509.915712 0) scale(0.996264)"/>
       <use xlink:href="#CMSS17-2d" transform="translate(558.120655 0) scale(0.996264)"/>
       <use xlink:href="#CMSS17-48" transform="translate(589.349768 0) scale(0.996264)"/>
       <use xlink:href="#CMSS17-49" transform="translate(655.411287 0) scale(0.996264)"/>
      </g>
     </g>
    </g>
   </g>
   <g id="matplotlib.axis_2">
    <g id="ytick_1">
     <g id="line2d_15">
      <path d="M 59.545017 91.650146 
L 489.6 91.650146 
" clip-path="url(#pc85bb9cece)" style="fill: none; stroke-dasharray: 0.925,0.4; stroke-dashoffset: 0; stroke: #b0b0b0; stroke-opacity: 0.7; stroke-width: 0.25"/>
     </g>
     <g id="line2d_16">
      <defs>
       <path id="m37a0d9b12d" d="M 0 0 
L -3.5 0 
" style="stroke: #000000; stroke-width: 0.8"/>
      </defs>
      <g>
       <use xlink:href="#m37a0d9b12d" x="59.545017" y="91.650146" style="stroke: #000000; stroke-width: 0.8"/>
      </g>
     </g>
     <g id="text_8">
      <!-- $\mathdefault{0}$ -->
      <g transform="translate(47.563682 95.109396) scale(0.1 -0.1)">
       <defs>
        <path id="CMR17-30" d="M 2688 2025 
C 2688 2416 2682 3080 2413 3591 
C 2176 4039 1798 4198 1466 4198 
C 1158 4198 768 4058 525 3597 
C 269 3118 243 2524 243 2025 
C 243 1661 250 1106 448 619 
C 723 -39 1216 -128 1466 -128 
C 1760 -128 2208 -7 2470 600 
C 2662 1042 2688 1559 2688 2025 
z
M 1466 -26 
C 1056 -26 813 325 723 812 
C 653 1188 653 1738 653 2096 
C 653 2588 653 2997 736 3387 
C 858 3929 1216 4096 1466 4096 
C 1728 4096 2067 3923 2189 3400 
C 2272 3036 2278 2607 2278 2096 
C 2278 1680 2278 1169 2202 792 
C 2067 95 1690 -26 1466 -26 
z
" transform="scale(0.015625)"/>
       </defs>
       <use xlink:href="#CMR17-30" transform="scale(0.996264)"/>
      </g>
     </g>
    </g>
    <g id="ytick_2">
     <g id="line2d_17">
      <path d="M 59.545017 66.148564 
L 489.6 66.148564 
" clip-path="url(#pc85bb9cece)" style="fill: none; stroke-dasharray: 0.925,0.4; stroke-dashoffset: 0; stroke: #b0b0b0; stroke-opacity: 0.7; stroke-width: 0.25"/>
     </g>
     <g id="line2d_18">
      <g>
       <use xlink:href="#m37a0d9b12d" x="59.545017" y="66.148564" style="stroke: #000000; stroke-width: 0.8"/>
      </g>
     </g>
     <g id="text_9">
      <!-- $\mathdefault{500}$ -->
      <g transform="translate(37.601011 69.607813) scale(0.1 -0.1)">
       <defs>
        <path id="CMR17-35" d="M 730 3692 
C 794 3666 1056 3584 1325 3584 
C 1920 3584 2246 3911 2432 4100 
C 2432 4157 2432 4192 2394 4192 
C 2387 4192 2374 4192 2323 4163 
C 2099 4058 1837 3973 1517 3973 
C 1325 3973 1037 3999 723 4139 
C 653 4171 640 4171 634 4171 
C 602 4171 595 4164 595 4037 
L 595 2203 
C 595 2089 595 2057 659 2057 
C 691 2057 704 2070 736 2114 
C 941 2401 1222 2522 1542 2522 
C 1766 2522 2246 2382 2246 1289 
C 2246 1085 2246 715 2054 421 
C 1894 159 1645 25 1370 25 
C 947 25 518 320 403 814 
C 429 807 480 795 506 795 
C 589 795 749 840 749 1038 
C 749 1210 627 1280 506 1280 
C 358 1280 262 1190 262 1011 
C 262 454 704 -128 1382 -128 
C 2042 -128 2669 440 2669 1264 
C 2669 2030 2170 2624 1549 2624 
C 1222 2624 947 2503 730 2274 
L 730 3692 
z
" transform="scale(0.015625)"/>
       </defs>
       <use xlink:href="#CMR17-35" transform="scale(0.996264)"/>
       <use xlink:href="#CMR17-30" transform="translate(45.690477 0) scale(0.996264)"/>
       <use xlink:href="#CMR17-30" transform="translate(91.380954 0) scale(0.996264)"/>
      </g>
     </g>
    </g>
    <g id="ytick_3">
     <g id="line2d_19">
      <path d="M 59.545017 40.646982 
L 489.6 40.646982 
" clip-path="url(#pc85bb9cece)" style="fill: none; stroke-dasharray: 0.925,0.4; stroke-dashoffset: 0; stroke: #b0b0b0; stroke-opacity: 0.7; stroke-width: 0.25"/>
     </g>
     <g id="line2d_20">
      <g>
       <use xlink:href="#m37a0d9b12d" x="59.545017" y="40.646982" style="stroke: #000000; stroke-width: 0.8"/>
      </g>
     </g>
     <g id="text_10">
      <!-- $\mathdefault{1000}$ -->
      <g transform="translate(32.619676 44.106231) scale(0.1 -0.1)">
       <defs>
        <path id="CMR17-31" d="M 1702 4058 
C 1702 4192 1696 4192 1606 4192 
C 1357 3916 979 3827 621 3827 
C 602 3827 570 3827 563 3808 
C 557 3795 557 3782 557 3648 
C 755 3648 1088 3686 1344 3839 
L 1344 461 
C 1344 236 1331 160 781 160 
L 589 160 
L 589 0 
C 896 0 1216 0 1523 0 
C 1830 0 2150 0 2458 0 
L 2458 160 
L 2266 160 
C 1715 160 1702 230 1702 458 
L 1702 4058 
z
" transform="scale(0.015625)"/>
       </defs>
       <use xlink:href="#CMR17-31" transform="scale(0.996264)"/>
       <use xlink:href="#CMR17-30" transform="translate(45.690477 0) scale(0.996264)"/>
       <use xlink:href="#CMR17-30" transform="translate(91.380954 0) scale(0.996264)"/>
       <use xlink:href="#CMR17-30" transform="translate(137.071431 0) scale(0.996264)"/>
      </g>
     </g>
    </g>
    <g id="text_11">
     <!-- Wall-clock time (ms) -->
     <g transform="translate(14.67198 100.481016) rotate(-90) scale(0.1 -0.1)">
      <defs>
       <path id="CMSS17-57" d="M 5581 4416 
L 5094 4416 
L 4557 2437 
C 4474 2118 4397 1801 4320 1482 
C 4205 1011 4122 681 4109 515 
L 4102 515 
C 4090 687 4006 1049 3904 1457 
C 3827 1795 3744 2131 3654 2462 
L 3123 4416 
L 2586 4416 
L 2080 2562 
L 1824 1549 
C 1632 747 1626 632 1613 505 
L 1606 505 
C 1606 543 1581 753 1402 1498 
C 1312 1868 1222 2244 1126 2601 
L 634 4416 
L 83 4416 
L 1299 0 
L 1830 0 
L 2336 1839 
L 2592 2851 
C 2765 3564 2803 3742 2816 3901 
L 2822 3901 
C 2822 3876 2880 3474 3130 2545 
L 3808 0 
L 4365 0 
L 5581 4416 
z
" transform="scale(0.015625)"/>
       <path id="CMSS17-6b" d="M 1696 1688 
L 2688 2739 
L 2074 2739 
L 954 1554 
L 954 4416 
L 480 4416 
L 480 0 
L 947 0 
L 947 892 
L 1376 1344 
L 2278 0 
L 2822 0 
L 1696 1688 
z
" transform="scale(0.015625)"/>
       <path id="CMSS17-28" d="M 1613 4768 
C 1267 4417 474 3601 474 1588 
C 474 -433 1267 -1243 1613 -1600 
L 2003 -1600 
C 1216 -784 960 357 960 1581 
C 960 2798 1203 3946 2003 4768 
L 1613 4768 
z
" transform="scale(0.015625)"/>
       <path id="CMSS17-29" d="M 723 -1600 
C 1069 -1249 1862 -433 1862 1581 
C 1862 3601 1069 4411 723 4768 
L 333 4768 
C 1120 3952 1376 2811 1376 1588 
C 1376 370 1133 -778 333 -1600 
L 723 -1600 
z
" transform="scale(0.015625)"/>
      </defs>
      <use xlink:href="#CMSS17-57" transform="scale(0.996264)"/>
      <use xlink:href="#CMSS17-61" transform="translate(85.639712 0) scale(0.996264)"/>
      <use xlink:href="#CMSS17-6c" transform="translate(130.561633 0) scale(0.996264)"/>
      <use xlink:href="#CMSS17-6c" transform="translate(152.742356 0) scale(0.996264)"/>
      <use xlink:href="#CMSS17-2d" transform="translate(174.923079 0) scale(0.996264)"/>
      <use xlink:href="#CMSS17-63" transform="translate(206.152192 0) scale(0.996264)"/>
      <use xlink:href="#CMSS17-6c" transform="translate(247.791014 0) scale(0.996264)"/>
      <use xlink:href="#CMSS17-6f" transform="translate(269.971737 0) scale(0.996264)"/>
      <use xlink:href="#CMSS17-63" transform="translate(319.417799 0) scale(0.996264)"/>
      <use xlink:href="#CMSS17-6b" transform="translate(361.056621 0) scale(0.996264)"/>
      <use xlink:href="#CMSS17-74" transform="translate(437.888223 0) scale(0.996264)"/>
      <use xlink:href="#CMSS17-69" transform="translate(471.71979 0) scale(0.996264)"/>
      <use xlink:href="#CMSS17-6d" transform="translate(493.900513 0) scale(0.996264)"/>
      <use xlink:href="#CMSS17-65" transform="translate(568.129767 0) scale(0.996264)"/>
      <use xlink:href="#CMSS17-28" transform="translate(640.997702 0) scale(0.996264)"/>
      <use xlink:href="#CMSS17-6d" transform="translate(677.431616 0) scale(0.996264)"/>
      <use xlink:href="#CMSS17-73" transform="translate(751.660871 0) scale(0.996264)"/>
      <use xlink:href="#CMSS17-29" transform="translate(787.574413 0) scale(0.996264)"/>
     </g>
     <!-- (lower is better) -->
     <g transform="translate(26.129016 90.03407) rotate(-90) scale(0.1 -0.1)">
      <defs>
       <path id="CMSS17-77" d="M 4013 2752 
L 3526 2752 
L 3187 1601 
C 3117 1358 2918 685 2893 371 
L 2886 371 
C 2874 564 2765 1024 2586 1633 
L 2259 2752 
L 1818 2752 
L 1498 1658 
C 1338 1101 1216 627 1203 371 
L 1197 371 
C 1171 749 909 1633 870 1773 
L 582 2752 
L 83 2752 
L 915 0 
L 1402 0 
C 1734 1096 1990 1943 2010 2370 
C 2022 2160 2131 1707 2195 1484 
L 2618 0 
L 3181 0 
L 4013 2752 
z
" transform="scale(0.015625)"/>
       <path id="CMSS17-62" d="M 954 4416 
L 480 4416 
L 480 -13 
L 966 -13 
L 966 274 
C 1210 38 1504 -64 1766 -64 
C 2381 -64 2880 549 2880 1352 
C 2880 2086 2496 2756 1926 2756 
C 1523 2756 1165 2591 954 2419 
L 954 4416 
z
M 966 2046 
C 1107 2222 1306 2368 1587 2368 
C 1965 2368 2394 2097 2394 1352 
C 2394 558 1882 325 1530 325 
C 1402 325 1267 356 1139 464 
C 966 615 966 709 966 797 
L 966 2046 
z
" transform="scale(0.015625)"/>
      </defs>
      <use xlink:href="#CMSS17-28" transform="scale(0.996264)"/>
      <use xlink:href="#CMSS17-6c" transform="translate(36.433914 0) scale(0.996264)"/>
      <use xlink:href="#CMSS17-6f" transform="translate(58.614637 0) scale(0.996264)"/>
      <use xlink:href="#CMSS17-77" transform="translate(102.855807 0) scale(0.996264)"/>
      <use xlink:href="#CMSS17-65" transform="translate(164.072898 0) scale(0.996264)"/>
      <use xlink:href="#CMSS17-72" transform="translate(205.71172 0) scale(0.996264)"/>
      <use xlink:href="#CMSS17-69" transform="translate(268.850605 0) scale(0.996264)"/>
      <use xlink:href="#CMSS17-73" transform="translate(291.031328 0) scale(0.996264)"/>
      <use xlink:href="#CMSS17-62" transform="translate(358.173983 0) scale(0.996264)"/>
      <use xlink:href="#CMSS17-65" transform="translate(408.981365 0) scale(0.996264)"/>
      <use xlink:href="#CMSS17-74" transform="translate(450.620187 0) scale(0.996264)"/>
      <use xlink:href="#CMSS17-74" transform="translate(484.451754 0) scale(0.996264)"/>
      <use xlink:href="#CMSS17-65" transform="translate(518.28332 0) scale(0.996264)"/>
      <use xlink:href="#CMSS17-72" transform="translate(559.922143 0) scale(0.996264)"/>
      <use xlink:href="#CMSS17-29" transform="translate(591.831915 0) scale(0.996264)"/>
     </g>
    </g>
   </g>
   <g id="LineCollection_1">
    <path d="M 86.055256 22.706868 
L 86.055256 22.06883 
" clip-path="url(#pc85bb9cece)" style="fill: none; stroke: #000000"/>
    <path d="M 144.966897 23.246514 
L 144.966897 22.685255 
" clip-path="url(#pc85bb9cece)" style="fill: none; stroke: #000000"/>
    <path d="M 203.878539 25.555825 
L 203.878539 24.4902 
" clip-path="url(#pc85bb9cece)" style="fill: none; stroke: #000000"/>
    <path d="M 262.79018 24.491077 
L 262.79018 24.160861 
" clip-path="url(#pc85bb9cece)" style="fill: none; stroke: #000000"/>
    <path d="M 321.701822 24.221004 
L 321.701822 23.682888 
" clip-path="url(#pc85bb9cece)" style="fill: none; stroke: #000000"/>
    <path d="M 380.613463 31.097745 
L 380.613463 30.542999 
" clip-path="url(#pc85bb9cece)" style="fill: none; stroke: #000000"/>
    <path d="M 439.525105 68.113548 
L 439.525105 67.821806 
" clip-path="url(#pc85bb9cece)" style="fill: none; stroke: #000000"/>
   </g>
   <g id="line2d_21">
    <defs>
     <path id="md427fc30ff" d="M 2 0 
L -2 -0 
" style="stroke: #000000"/>
    </defs>
    <g clip-path="url(#pc85bb9cece)">
     <use xlink:href="#md427fc30ff" x="86.055256" y="22.706868" style="stroke: #000000"/>
     <use xlink:href="#md427fc30ff" x="144.966897" y="23.246514" style="stroke: #000000"/>
     <use xlink:href="#md427fc30ff" x="203.878539" y="25.555825" style="stroke: #000000"/>
     <use xlink:href="#md427fc30ff" x="262.79018" y="24.491077" style="stroke: #000000"/>
     <use xlink:href="#md427fc30ff" x="321.701822" y="24.221004" style="stroke: #000000"/>
     <use xlink:href="#md427fc30ff" x="380.613463" y="31.097745" style="stroke: #000000"/>
     <use xlink:href="#md427fc30ff" x="439.525105" y="68.113548" style="stroke: #000000"/>
    </g>
   </g>
   <g id="line2d_22">
    <g clip-path="url(#pc85bb9cece)">
     <use xlink:href="#md427fc30ff" x="86.055256" y="22.06883" style="stroke: #000000"/>
     <use xlink:href="#md427fc30ff" x="144.966897" y="22.685255" style="stroke: #000000"/>
     <use xlink:href="#md427fc30ff" x="203.878539" y="24.4902" style="stroke: #000000"/>
     <use xlink:href="#md427fc30ff" x="262.79018" y="24.160861" style="stroke: #000000"/>
     <use xlink:href="#md427fc30ff" x="321.701822" y="23.682888" style="stroke: #000000"/>
     <use xlink:href="#md427fc30ff" x="380.613463" y="30.542999" style="stroke: #000000"/>
     <use xlink:href="#md427fc30ff" x="439.525105" y="67.821806" style="stroke: #000000"/>
    </g>
   </g>
   <g id="LineCollection_2">
    <path d="M 109.619912 22.321459 
L 109.619912 21.50218 
" clip-path="url(#pc85bb9cece)" style="fill: none; stroke: #000000"/>
    <path d="M 168.531554 22.74645 
L 168.531554 22.06325 
" clip-path="url(#pc85bb9cece)" style="fill: none; stroke: #000000"/>
    <path d="M 227.443195 23.65845 
L 227.443195 23.293383 
" clip-path="url(#pc85bb9cece)" style="fill: none; stroke: #000000"/>
    <path d="M 286.354837 23.635498 
L 286.354837 23.180326 
" clip-path="url(#pc85bb9cece)" style="fill: none; stroke: #000000"/>
    <path d="M 345.266478 24.183693 
L 345.266478 23.754201 
" clip-path="url(#pc85bb9cece)" style="fill: none; stroke: #000000"/>
    <path d="M 404.17812 31.437722 
L 404.17812 30.81506 
" clip-path="url(#pc85bb9cece)" style="fill: none; stroke: #000000"/>
    <path d="M 463.089761 67.681076 
L 463.089761 67.472229 
" clip-path="url(#pc85bb9cece)" style="fill: none; stroke: #000000"/>
   </g>
   <g id="line2d_23">
    <g clip-path="url(#pc85bb9cece)">
     <use xlink:href="#md427fc30ff" x="109.619912" y="22.321459" style="stroke: #000000"/>
     <use xlink:href="#md427fc30ff" x="168.531554" y="22.74645" style="stroke: #000000"/>
     <use xlink:href="#md427fc30ff" x="227.443195" y="23.65845" style="stroke: #000000"/>
     <use xlink:href="#md427fc30ff" x="286.354837" y="23.635498" style="stroke: #000000"/>
     <use xlink:href="#md427fc30ff" x="345.266478" y="24.183693" style="stroke: #000000"/>
     <use xlink:href="#md427fc30ff" x="404.17812" y="31.437722" style="stroke: #000000"/>
     <use xlink:href="#md427fc30ff" x="463.089761" y="67.681076" style="stroke: #000000"/>
    </g>
   </g>
   <g id="line2d_24">
    <g clip-path="url(#pc85bb9cece)">
     <use xlink:href="#md427fc30ff" x="109.619912" y="21.50218" style="stroke: #000000"/>
     <use xlink:href="#md427fc30ff" x="168.531554" y="22.06325" style="stroke: #000000"/>
     <use xlink:href="#md427fc30ff" x="227.443195" y="23.293383" style="stroke: #000000"/>
     <use xlink:href="#md427fc30ff" x="286.354837" y="23.180326" style="stroke: #000000"/>
     <use xlink:href="#md427fc30ff" x="345.266478" y="23.754201" style="stroke: #000000"/>
     <use xlink:href="#md427fc30ff" x="404.17812" y="30.81506" style="stroke: #000000"/>
     <use xlink:href="#md427fc30ff" x="463.089761" y="67.472229" style="stroke: #000000"/>
    </g>
   </g>
   <g id="patch_17">
    <path d="M 59.545017 91.650146 
L 59.545017 21.50218 
" style="fill: none; stroke: #000000; stroke-width: 0.8; stroke-linejoin: miter; stroke-linecap: square"/>
   </g>
   <g id="patch_18">
    <path d="M 59.545017 91.650146 
L 489.6 91.650146 
" style="fill: none; stroke: #000000; stroke-width: 0.8; stroke-linejoin: miter; stroke-linecap: square"/>
   </g>
   <g id="text_12">
    <!-- fd -->
    <g transform="translate(269.781507 15.50218) scale(0.12 -0.12)">
     <defs>
      <path id="CMSS17-66" d="M 1075 2368 
L 1722 2368 
L 1722 2737 
L 1062 2737 
L 1062 3559 
C 1062 4014 1408 4092 1606 4092 
C 1670 4092 1850 4092 2080 4009 
L 2080 4429 
C 1933 4461 1754 4480 1613 4480 
C 1018 4480 602 3993 602 3359 
L 602 2737 
L 160 2737 
L 160 2368 
L 602 2368 
L 602 0 
L 1075 0 
L 1075 2368 
z
" transform="scale(0.015625)"/>
     </defs>
     <use xlink:href="#CMSS17-66" transform="scale(0.996264)"/>
     <use xlink:href="#CMSS17-64" transform="translate(28.626659 0) scale(0.996264)"/>
    </g>
   </g>
   <g id="legend_1">
    <g id="patch_19">
     <path d="M 429.899809 57.376536 
L 482.6 57.376536 
Q 484.6 57.376536 484.6 55.376536 
L 484.6 28.50218 
Q 484.6 26.50218 482.6 26.50218 
L 429.899809 26.50218 
Q 427.899809 26.50218 427.899809 28.50218 
L 427.899809 55.376536 
Q 427.899809 57.376536 429.899809 57.376536 
z
" style="fill: #ffffff; opacity: 0.8; stroke: #cccccc; stroke-linejoin: miter"/>
    </g>
    <g id="patch_20">
     <path d="M 431.899809 37.50218 
L 451.899809 37.50218 
L 451.899809 30.50218 
L 431.899809 30.50218 
z
" style="fill: #1f77b4"/>
    </g>
    <g id="text_13">
     <!-- ARC -->
     <g transform="translate(459.899809 37.50218) scale(0.1 -0.1)">
      <defs>
       <path id="CMSS17-41" d="M 2272 4416 
L 1722 4416 
L 166 0 
L 653 0 
L 1101 1280 
L 2816 1280 
L 3270 0 
L 3827 0 
L 2272 4416 
z
M 2694 1637 
L 1222 1637 
C 1530 2528 1914 3638 1958 3925 
L 1965 3925 
C 2010 3663 2138 3281 2246 2956 
L 2694 1637 
z
" transform="scale(0.015625)"/>
       <path id="CMSS17-52" d="M 2522 2109 
L 2534 2115 
C 3533 2459 3539 3147 3539 3268 
C 3539 3873 2925 4453 2003 4453 
L 570 4453 
L 570 32 
L 1094 32 
L 1094 2048 
L 2035 2048 
L 3168 32 
L 3706 32 
L 2522 2109 
z
M 1094 2437 
L 1094 4096 
L 1933 4096 
C 2746 4096 3034 3637 3034 3267 
C 3034 2922 2778 2437 1933 2437 
L 1094 2437 
z
" transform="scale(0.015625)"/>
       <path id="CMSS17-43" d="M 3501 714 
C 3072 427 2874 344 2355 344 
C 1459 344 934 1303 934 2179 
C 934 3112 1472 4032 2381 4032 
C 2790 4032 3059 3918 3386 3715 
L 3475 4217 
C 3168 4370 2778 4440 2387 4440 
C 1158 4440 397 3316 397 2179 
C 397 927 1299 -64 2323 -64 
C 2874 -64 3066 -19 3539 280 
L 3501 714 
z
" transform="scale(0.015625)"/>
      </defs>
      <use xlink:href="#CMSS17-41" transform="scale(0.996264)"/>
      <use xlink:href="#CMSS17-52" transform="translate(62.217855 0) scale(0.996264)"/>
      <use xlink:href="#CMSS17-43" transform="translate(122.63401 0) scale(0.996264)"/>
     </g>
    </g>
    <g id="patch_21">
     <path d="M 431.899809 51.439358 
L 451.899809 51.439358 
L 451.899809 44.439358 
L 431.899809 44.439358 
z
" style="fill: #ff7f0e"/>
    </g>
    <g id="text_14">
     <!-- Alloy -->
     <g transform="translate(459.899809 51.439358) scale(0.1 -0.1)">
      <use xlink:href="#CMSS17-41" transform="scale(0.996264)"/>
      <use xlink:href="#CMSS17-6c" transform="translate(62.217855 0) scale(0.996264)"/>
      <use xlink:href="#CMSS17-6c" transform="translate(84.398578 0) scale(0.996264)"/>
      <use xlink:href="#CMSS17-6f" transform="translate(106.579301 0) scale(0.996264)"/>
      <use xlink:href="#CMSS17-79" transform="translate(150.820471 0) scale(0.996264)"/>
     </g>
    </g>
   </g>
  </g>
 </g>
 <defs>
  <clipPath id="pc85bb9cece">
   <rect x="59.545017" y="21.50218" width="430.054983" height="70.147967"/>
  </clipPath>
 </defs>
</svg>
