<?xml version="1.0" encoding="utf-8" standalone="no"?>
<!DOCTYPE svg PUBLIC "-//W3C//DTD SVG 1.1//EN"
  "http://www.w3.org/Graphics/SVG/1.1/DTD/svg11.dtd">
<svg xmlns:xlink="http://www.w3.org/1999/xlink" width="561.780125pt" height="276.164233pt" viewBox="0 0 561.780125 276.164233" xmlns="http://www.w3.org/2000/svg" version="1.1">
 <metadata>
  <rdf:RDF xmlns:dc="http://purl.org/dc/elements/1.1/" xmlns:cc="http://creativecommons.org/ns#" xmlns:rdf="http://www.w3.org/1999/02/22-rdf-syntax-ns#">
   <cc:Work>
    <dc:type rdf:resource="http://purl.org/dc/dcmitype/StillImage"/>
    <dc:date>2024-10-09T22:38:57.733114</dc:date>
    <dc:format>image/svg+xml</dc:format>
    <dc:creator>
     <cc:Agent>
      <dc:title>Matplotlib v3.9.2, https://matplotlib.org/</dc:title>
     </cc:Agent>
    </dc:creator>
   </cc:Work>
  </rdf:RDF>
 </metadata>
 <defs>
  <style type="text/css">*{stroke-linejoin: round; stroke-linecap: butt}</style>
 </defs>
 <g id="figure_1">
  <g id="patch_1">
   <path d="M 0 276.164233 
L 561.780125 276.164233 
L 561.780125 0 
L 0 0 
z
" style="fill: #ffffff"/>
  </g>
  <g id="axes_1">
   <g id="patch_2">
    <path d="M 73.746125 201.358838 
L 554.580125 201.358838 
L 554.580125 7.2 
L 73.746125 7.2 
z
" style="fill: #ffffff"/>
   </g>
   <g id="matplotlib.axis_1">
    <g id="xtick_1">
     <g id="line2d_1">
      <path d="M 85.629855 201.358838 
L 85.629855 7.2 
" clip-path="url(#p2e4d7a8686)" style="fill: none; stroke: #cccccc; stroke-width: 0.25; stroke-linecap: round"/>
     </g>
     <g id="line2d_2">
      <defs>
       <path id="mf30f01a5bc" d="M 0 0 
L 0 6 
" style="stroke: #262626; stroke-width: 1.25"/>
      </defs>
      <g>
       <use xlink:href="#mf30f01a5bc" x="85.629855" y="201.358838" style="fill: #262626; stroke: #262626; stroke-width: 1.25"/>
      </g>
     </g>
     <g id="text_1">
      <!-- Bounce -->
      <g style="fill: #262626" transform="translate(54.994785 245.786488) rotate(-45) scale(0.11 -0.11)">
       <defs>
        <path id="DejaVuSans-42" d="M 1259 2228 
L 1259 519 
L 2272 519 
Q 2781 519 3026 730 
Q 3272 941 3272 1375 
Q 3272 1813 3026 2020 
Q 2781 2228 2272 2228 
L 1259 2228 
z
M 1259 4147 
L 1259 2741 
L 2194 2741 
Q 2656 2741 2882 2914 
Q 3109 3088 3109 3444 
Q 3109 3797 2882 3972 
Q 2656 4147 2194 4147 
L 1259 4147 
z
M 628 4666 
L 2241 4666 
Q 2963 4666 3353 4366 
Q 3744 4066 3744 3513 
Q 3744 3084 3544 2831 
Q 3344 2578 2956 2516 
Q 3422 2416 3680 2098 
Q 3938 1781 3938 1306 
Q 3938 681 3513 340 
Q 3088 0 2303 0 
L 628 0 
L 628 4666 
z
" transform="scale(0.015625)"/>
        <path id="DejaVuSans-6f" d="M 1959 3097 
Q 1497 3097 1228 2736 
Q 959 2375 959 1747 
Q 959 1119 1226 758 
Q 1494 397 1959 397 
Q 2419 397 2687 759 
Q 2956 1122 2956 1747 
Q 2956 2369 2687 2733 
Q 2419 3097 1959 3097 
z
M 1959 3584 
Q 2709 3584 3137 3096 
Q 3566 2609 3566 1747 
Q 3566 888 3137 398 
Q 2709 -91 1959 -91 
Q 1206 -91 779 398 
Q 353 888 353 1747 
Q 353 2609 779 3096 
Q 1206 3584 1959 3584 
z
" transform="scale(0.015625)"/>
        <path id="DejaVuSans-75" d="M 544 1381 
L 544 3500 
L 1119 3500 
L 1119 1403 
Q 1119 906 1312 657 
Q 1506 409 1894 409 
Q 2359 409 2629 706 
Q 2900 1003 2900 1516 
L 2900 3500 
L 3475 3500 
L 3475 0 
L 2900 0 
L 2900 538 
Q 2691 219 2414 64 
Q 2138 -91 1772 -91 
Q 1169 -91 856 284 
Q 544 659 544 1381 
z
M 1991 3584 
L 1991 3584 
z
" transform="scale(0.015625)"/>
        <path id="DejaVuSans-6e" d="M 3513 2113 
L 3513 0 
L 2938 0 
L 2938 2094 
Q 2938 2591 2744 2837 
Q 2550 3084 2163 3084 
Q 1697 3084 1428 2787 
Q 1159 2491 1159 1978 
L 1159 0 
L 581 0 
L 581 3500 
L 1159 3500 
L 1159 2956 
Q 1366 3272 1645 3428 
Q 1925 3584 2291 3584 
Q 2894 3584 3203 3211 
Q 3513 2838 3513 2113 
z
" transform="scale(0.015625)"/>
        <path id="DejaVuSans-63" d="M 3122 3366 
L 3122 2828 
Q 2878 2963 2633 3030 
Q 2388 3097 2138 3097 
Q 1578 3097 1268 2742 
Q 959 2388 959 1747 
Q 959 1106 1268 751 
Q 1578 397 2138 397 
Q 2388 397 2633 464 
Q 2878 531 3122 666 
L 3122 134 
Q 2881 22 2623 -34 
Q 2366 -91 2075 -91 
Q 1284 -91 818 406 
Q 353 903 353 1747 
Q 353 2603 823 3093 
Q 1294 3584 2113 3584 
Q 2378 3584 2631 3529 
Q 2884 3475 3122 3366 
z
" transform="scale(0.015625)"/>
        <path id="DejaVuSans-65" d="M 3597 1894 
L 3597 1613 
L 953 1613 
Q 991 1019 1311 708 
Q 1631 397 2203 397 
Q 2534 397 2845 478 
Q 3156 559 3463 722 
L 3463 178 
Q 3153 47 2828 -22 
Q 2503 -91 2169 -91 
Q 1331 -91 842 396 
Q 353 884 353 1716 
Q 353 2575 817 3079 
Q 1281 3584 2069 3584 
Q 2775 3584 3186 3129 
Q 3597 2675 3597 1894 
z
M 3022 2063 
Q 3016 2534 2758 2815 
Q 2500 3097 2075 3097 
Q 1594 3097 1305 2825 
Q 1016 2553 972 2059 
L 3022 2063 
z
" transform="scale(0.015625)"/>
       </defs>
       <use xlink:href="#DejaVuSans-42"/>
       <use xlink:href="#DejaVuSans-6f" x="68.603516"/>
       <use xlink:href="#DejaVuSans-75" x="129.785156"/>
       <use xlink:href="#DejaVuSans-6e" x="193.164062"/>
       <use xlink:href="#DejaVuSans-63" x="256.542969"/>
       <use xlink:href="#DejaVuSans-65" x="311.523438"/>
      </g>
     </g>
    </g>
    <g id="xtick_2">
     <g id="line2d_3">
      <path d="M 103.912517 201.358838 
L 103.912517 7.2 
" clip-path="url(#p2e4d7a8686)" style="fill: none; stroke: #cccccc; stroke-width: 0.25; stroke-linecap: round"/>
     </g>
     <g id="line2d_4">
      <g>
       <use xlink:href="#mf30f01a5bc" x="103.912517" y="201.358838" style="fill: #262626; stroke: #262626; stroke-width: 1.25"/>
      </g>
     </g>
     <g id="text_2">
      <!-- BubbleSort -->
      <g style="fill: #262626" transform="translate(59.262148 259.801786) rotate(-45) scale(0.11 -0.11)">
       <defs>
        <path id="DejaVuSans-62" d="M 3116 1747 
Q 3116 2381 2855 2742 
Q 2594 3103 2138 3103 
Q 1681 3103 1420 2742 
Q 1159 2381 1159 1747 
Q 1159 1113 1420 752 
Q 1681 391 2138 391 
Q 2594 391 2855 752 
Q 3116 1113 3116 1747 
z
M 1159 2969 
Q 1341 3281 1617 3432 
Q 1894 3584 2278 3584 
Q 2916 3584 3314 3078 
Q 3713 2572 3713 1747 
Q 3713 922 3314 415 
Q 2916 -91 2278 -91 
Q 1894 -91 1617 61 
Q 1341 213 1159 525 
L 1159 0 
L 581 0 
L 581 4863 
L 1159 4863 
L 1159 2969 
z
" transform="scale(0.015625)"/>
        <path id="DejaVuSans-6c" d="M 603 4863 
L 1178 4863 
L 1178 0 
L 603 0 
L 603 4863 
z
" transform="scale(0.015625)"/>
        <path id="DejaVuSans-53" d="M 3425 4513 
L 3425 3897 
Q 3066 4069 2747 4153 
Q 2428 4238 2131 4238 
Q 1616 4238 1336 4038 
Q 1056 3838 1056 3469 
Q 1056 3159 1242 3001 
Q 1428 2844 1947 2747 
L 2328 2669 
Q 3034 2534 3370 2195 
Q 3706 1856 3706 1288 
Q 3706 609 3251 259 
Q 2797 -91 1919 -91 
Q 1588 -91 1214 -16 
Q 841 59 441 206 
L 441 856 
Q 825 641 1194 531 
Q 1563 422 1919 422 
Q 2459 422 2753 634 
Q 3047 847 3047 1241 
Q 3047 1584 2836 1778 
Q 2625 1972 2144 2069 
L 1759 2144 
Q 1053 2284 737 2584 
Q 422 2884 422 3419 
Q 422 4038 858 4394 
Q 1294 4750 2059 4750 
Q 2388 4750 2728 4690 
Q 3069 4631 3425 4513 
z
" transform="scale(0.015625)"/>
        <path id="DejaVuSans-72" d="M 2631 2963 
Q 2534 3019 2420 3045 
Q 2306 3072 2169 3072 
Q 1681 3072 1420 2755 
Q 1159 2438 1159 1844 
L 1159 0 
L 581 0 
L 581 3500 
L 1159 3500 
L 1159 2956 
Q 1341 3275 1631 3429 
Q 1922 3584 2338 3584 
Q 2397 3584 2469 3576 
Q 2541 3569 2628 3553 
L 2631 2963 
z
" transform="scale(0.015625)"/>
        <path id="DejaVuSans-74" d="M 1172 4494 
L 1172 3500 
L 2356 3500 
L 2356 3053 
L 1172 3053 
L 1172 1153 
Q 1172 725 1289 603 
Q 1406 481 1766 481 
L 2356 481 
L 2356 0 
L 1766 0 
Q 1100 0 847 248 
Q 594 497 594 1153 
L 594 3053 
L 172 3053 
L 172 3500 
L 594 3500 
L 594 4494 
L 1172 4494 
z
" transform="scale(0.015625)"/>
       </defs>
       <use xlink:href="#DejaVuSans-42"/>
       <use xlink:href="#DejaVuSans-75" x="68.603516"/>
       <use xlink:href="#DejaVuSans-62" x="131.982422"/>
       <use xlink:href="#DejaVuSans-62" x="195.458984"/>
       <use xlink:href="#DejaVuSans-6c" x="258.935547"/>
       <use xlink:href="#DejaVuSans-65" x="286.71875"/>
       <use xlink:href="#DejaVuSans-53" x="348.242188"/>
       <use xlink:href="#DejaVuSans-6f" x="411.71875"/>
       <use xlink:href="#DejaVuSans-72" x="472.900391"/>
       <use xlink:href="#DejaVuSans-74" x="514.013672"/>
      </g>
     </g>
    </g>
    <g id="xtick_3">
     <g id="line2d_5">
      <path d="M 122.195178 201.358838 
L 122.195178 7.2 
" clip-path="url(#p2e4d7a8686)" style="fill: none; stroke: #cccccc; stroke-width: 0.25; stroke-linecap: round"/>
     </g>
     <g id="line2d_6">
      <g>
       <use xlink:href="#mf30f01a5bc" x="122.195178" y="201.358838" style="fill: #262626; stroke: #262626; stroke-width: 1.25"/>
      </g>
     </g>
     <g id="text_3">
      <!-- DeltaBlue -->
      <g style="fill: #262626" transform="translate(82.612777 254.733819) rotate(-45) scale(0.11 -0.11)">
       <defs>
        <path id="DejaVuSans-44" d="M 1259 4147 
L 1259 519 
L 2022 519 
Q 2988 519 3436 956 
Q 3884 1394 3884 2338 
Q 3884 3275 3436 3711 
Q 2988 4147 2022 4147 
L 1259 4147 
z
M 628 4666 
L 1925 4666 
Q 3281 4666 3915 4102 
Q 4550 3538 4550 2338 
Q 4550 1131 3912 565 
Q 3275 0 1925 0 
L 628 0 
L 628 4666 
z
" transform="scale(0.015625)"/>
        <path id="DejaVuSans-61" d="M 2194 1759 
Q 1497 1759 1228 1600 
Q 959 1441 959 1056 
Q 959 750 1161 570 
Q 1363 391 1709 391 
Q 2188 391 2477 730 
Q 2766 1069 2766 1631 
L 2766 1759 
L 2194 1759 
z
M 3341 1997 
L 3341 0 
L 2766 0 
L 2766 531 
Q 2569 213 2275 61 
Q 1981 -91 1556 -91 
Q 1019 -91 701 211 
Q 384 513 384 1019 
Q 384 1609 779 1909 
Q 1175 2209 1959 2209 
L 2766 2209 
L 2766 2266 
Q 2766 2663 2505 2880 
Q 2244 3097 1772 3097 
Q 1472 3097 1187 3025 
Q 903 2953 641 2809 
L 641 3341 
Q 956 3463 1253 3523 
Q 1550 3584 1831 3584 
Q 2591 3584 2966 3190 
Q 3341 2797 3341 1997 
z
" transform="scale(0.015625)"/>
       </defs>
       <use xlink:href="#DejaVuSans-44"/>
       <use xlink:href="#DejaVuSans-65" x="77.001953"/>
       <use xlink:href="#DejaVuSans-6c" x="138.525391"/>
       <use xlink:href="#DejaVuSans-74" x="166.308594"/>
       <use xlink:href="#DejaVuSans-61" x="205.517578"/>
       <use xlink:href="#DejaVuSans-42" x="266.796875"/>
       <use xlink:href="#DejaVuSans-6c" x="335.400391"/>
       <use xlink:href="#DejaVuSans-75" x="363.183594"/>
       <use xlink:href="#DejaVuSans-65" x="426.5625"/>
      </g>
     </g>
    </g>
    <g id="xtick_4">
     <g id="line2d_7">
      <path d="M 140.47784 201.358838 
L 140.47784 7.2 
" clip-path="url(#p2e4d7a8686)" style="fill: none; stroke: #cccccc; stroke-width: 0.25; stroke-linecap: round"/>
     </g>
     <g id="line2d_8">
      <g>
       <use xlink:href="#mf30f01a5bc" x="140.47784" y="201.358838" style="fill: #262626; stroke: #262626; stroke-width: 1.25"/>
      </g>
     </g>
     <g id="text_4">
      <!-- Dispatch -->
      <g style="fill: #262626" transform="translate(104.698237 250.931021) rotate(-45) scale(0.11 -0.11)">
       <defs>
        <path id="DejaVuSans-69" d="M 603 3500 
L 1178 3500 
L 1178 0 
L 603 0 
L 603 3500 
z
M 603 4863 
L 1178 4863 
L 1178 4134 
L 603 4134 
L 603 4863 
z
" transform="scale(0.015625)"/>
        <path id="DejaVuSans-73" d="M 2834 3397 
L 2834 2853 
Q 2591 2978 2328 3040 
Q 2066 3103 1784 3103 
Q 1356 3103 1142 2972 
Q 928 2841 928 2578 
Q 928 2378 1081 2264 
Q 1234 2150 1697 2047 
L 1894 2003 
Q 2506 1872 2764 1633 
Q 3022 1394 3022 966 
Q 3022 478 2636 193 
Q 2250 -91 1575 -91 
Q 1294 -91 989 -36 
Q 684 19 347 128 
L 347 722 
Q 666 556 975 473 
Q 1284 391 1588 391 
Q 1994 391 2212 530 
Q 2431 669 2431 922 
Q 2431 1156 2273 1281 
Q 2116 1406 1581 1522 
L 1381 1569 
Q 847 1681 609 1914 
Q 372 2147 372 2553 
Q 372 3047 722 3315 
Q 1072 3584 1716 3584 
Q 2034 3584 2315 3537 
Q 2597 3491 2834 3397 
z
" transform="scale(0.015625)"/>
        <path id="DejaVuSans-70" d="M 1159 525 
L 1159 -1331 
L 581 -1331 
L 581 3500 
L 1159 3500 
L 1159 2969 
Q 1341 3281 1617 3432 
Q 1894 3584 2278 3584 
Q 2916 3584 3314 3078 
Q 3713 2572 3713 1747 
Q 3713 922 3314 415 
Q 2916 -91 2278 -91 
Q 1894 -91 1617 61 
Q 1341 213 1159 525 
z
M 3116 1747 
Q 3116 2381 2855 2742 
Q 2594 3103 2138 3103 
Q 1681 3103 1420 2742 
Q 1159 2381 1159 1747 
Q 1159 1113 1420 752 
Q 1681 391 2138 391 
Q 2594 391 2855 752 
Q 3116 1113 3116 1747 
z
" transform="scale(0.015625)"/>
        <path id="DejaVuSans-68" d="M 3513 2113 
L 3513 0 
L 2938 0 
L 2938 2094 
Q 2938 2591 2744 2837 
Q 2550 3084 2163 3084 
Q 1697 3084 1428 2787 
Q 1159 2491 1159 1978 
L 1159 0 
L 581 0 
L 581 4863 
L 1159 4863 
L 1159 2956 
Q 1366 3272 1645 3428 
Q 1925 3584 2291 3584 
Q 2894 3584 3203 3211 
Q 3513 2838 3513 2113 
z
" transform="scale(0.015625)"/>
       </defs>
       <use xlink:href="#DejaVuSans-44"/>
       <use xlink:href="#DejaVuSans-69" x="77.001953"/>
       <use xlink:href="#DejaVuSans-73" x="104.785156"/>
       <use xlink:href="#DejaVuSans-70" x="156.884766"/>
       <use xlink:href="#DejaVuSans-61" x="220.361328"/>
       <use xlink:href="#DejaVuSans-74" x="281.640625"/>
       <use xlink:href="#DejaVuSans-63" x="320.849609"/>
       <use xlink:href="#DejaVuSans-68" x="375.830078"/>
      </g>
     </g>
    </g>
    <g id="xtick_5">
     <g id="line2d_9">
      <path d="M 158.760501 201.358838 
L 158.760501 7.2 
" clip-path="url(#p2e4d7a8686)" style="fill: none; stroke: #cccccc; stroke-width: 0.25; stroke-linecap: round"/>
     </g>
     <g id="line2d_10">
      <g>
       <use xlink:href="#mf30f01a5bc" x="158.760501" y="201.358838" style="fill: #262626; stroke: #262626; stroke-width: 1.25"/>
      </g>
     </g>
     <g id="text_5">
      <!-- Fannkuch -->
      <g style="fill: #262626" transform="translate(120.35698 253.55494) rotate(-45) scale(0.11 -0.11)">
       <defs>
        <path id="DejaVuSans-46" d="M 628 4666 
L 3309 4666 
L 3309 4134 
L 1259 4134 
L 1259 2759 
L 3109 2759 
L 3109 2228 
L 1259 2228 
L 1259 0 
L 628 0 
L 628 4666 
z
" transform="scale(0.015625)"/>
        <path id="DejaVuSans-6b" d="M 581 4863 
L 1159 4863 
L 1159 1991 
L 2875 3500 
L 3609 3500 
L 1753 1863 
L 3688 0 
L 2938 0 
L 1159 1709 
L 1159 0 
L 581 0 
L 581 4863 
z
" transform="scale(0.015625)"/>
       </defs>
       <use xlink:href="#DejaVuSans-46"/>
       <use xlink:href="#DejaVuSans-61" x="48.394531"/>
       <use xlink:href="#DejaVuSans-6e" x="109.673828"/>
       <use xlink:href="#DejaVuSans-6e" x="173.052734"/>
       <use xlink:href="#DejaVuSans-6b" x="236.431641"/>
       <use xlink:href="#DejaVuSans-75" x="291.216797"/>
       <use xlink:href="#DejaVuSans-63" x="354.595703"/>
       <use xlink:href="#DejaVuSans-68" x="409.576172"/>
      </g>
     </g>
    </g>
    <g id="xtick_6">
     <g id="line2d_11">
      <path d="M 177.043163 201.358838 
L 177.043163 7.2 
" clip-path="url(#p2e4d7a8686)" style="fill: none; stroke: #cccccc; stroke-width: 0.25; stroke-linecap: round"/>
     </g>
     <g id="line2d_12">
      <g>
       <use xlink:href="#mf30f01a5bc" x="177.043163" y="201.358838" style="fill: #262626; stroke: #262626; stroke-width: 1.25"/>
      </g>
     </g>
     <g id="text_6">
      <!-- Fibonacci -->
      <g style="fill: #262626" transform="translate(139.247311 252.94727) rotate(-45) scale(0.11 -0.11)">
       <use xlink:href="#DejaVuSans-46"/>
       <use xlink:href="#DejaVuSans-69" x="50.269531"/>
       <use xlink:href="#DejaVuSans-62" x="78.052734"/>
       <use xlink:href="#DejaVuSans-6f" x="141.529297"/>
       <use xlink:href="#DejaVuSans-6e" x="202.710938"/>
       <use xlink:href="#DejaVuSans-61" x="266.089844"/>
       <use xlink:href="#DejaVuSans-63" x="327.369141"/>
       <use xlink:href="#DejaVuSans-63" x="382.349609"/>
       <use xlink:href="#DejaVuSans-69" x="437.330078"/>
      </g>
     </g>
    </g>
    <g id="xtick_7">
     <g id="line2d_13">
      <path d="M 195.325825 201.358838 
L 195.325825 7.2 
" clip-path="url(#p2e4d7a8686)" style="fill: none; stroke: #cccccc; stroke-width: 0.25; stroke-linecap: round"/>
     </g>
     <g id="line2d_14">
      <g>
       <use xlink:href="#mf30f01a5bc" x="195.325825" y="201.358838" style="fill: #262626; stroke: #262626; stroke-width: 1.25"/>
      </g>
     </g>
     <g id="text_7">
      <!-- FieldLoop -->
      <g style="fill: #262626" transform="translate(157.098527 253.378715) rotate(-45) scale(0.11 -0.11)">
       <defs>
        <path id="DejaVuSans-64" d="M 2906 2969 
L 2906 4863 
L 3481 4863 
L 3481 0 
L 2906 0 
L 2906 525 
Q 2725 213 2448 61 
Q 2172 -91 1784 -91 
Q 1150 -91 751 415 
Q 353 922 353 1747 
Q 353 2572 751 3078 
Q 1150 3584 1784 3584 
Q 2172 3584 2448 3432 
Q 2725 3281 2906 2969 
z
M 947 1747 
Q 947 1113 1208 752 
Q 1469 391 1925 391 
Q 2381 391 2643 752 
Q 2906 1113 2906 1747 
Q 2906 2381 2643 2742 
Q 2381 3103 1925 3103 
Q 1469 3103 1208 2742 
Q 947 2381 947 1747 
z
" transform="scale(0.015625)"/>
        <path id="DejaVuSans-4c" d="M 628 4666 
L 1259 4666 
L 1259 531 
L 3531 531 
L 3531 0 
L 628 0 
L 628 4666 
z
" transform="scale(0.015625)"/>
       </defs>
       <use xlink:href="#DejaVuSans-46"/>
       <use xlink:href="#DejaVuSans-69" x="50.269531"/>
       <use xlink:href="#DejaVuSans-65" x="78.052734"/>
       <use xlink:href="#DejaVuSans-6c" x="139.576172"/>
       <use xlink:href="#DejaVuSans-64" x="167.359375"/>
       <use xlink:href="#DejaVuSans-4c" x="230.835938"/>
       <use xlink:href="#DejaVuSans-6f" x="284.798828"/>
       <use xlink:href="#DejaVuSans-6f" x="345.980469"/>
       <use xlink:href="#DejaVuSans-70" x="407.162109"/>
      </g>
     </g>
    </g>
    <g id="xtick_8">
     <g id="line2d_15">
      <path d="M 213.608486 201.358838 
L 213.608486 7.2 
" clip-path="url(#p2e4d7a8686)" style="fill: none; stroke: #cccccc; stroke-width: 0.25; stroke-linecap: round"/>
     </g>
     <g id="line2d_16">
      <g>
       <use xlink:href="#mf30f01a5bc" x="213.608486" y="201.358838" style="fill: #262626; stroke: #262626; stroke-width: 1.25"/>
      </g>
     </g>
     <g id="text_8">
      <!-- GraphSearch -->
      <g style="fill: #262626" transform="translate(161.413289 267.346615) rotate(-45) scale(0.11 -0.11)">
       <defs>
        <path id="DejaVuSans-47" d="M 3809 666 
L 3809 1919 
L 2778 1919 
L 2778 2438 
L 4434 2438 
L 4434 434 
Q 4069 175 3628 42 
Q 3188 -91 2688 -91 
Q 1594 -91 976 548 
Q 359 1188 359 2328 
Q 359 3472 976 4111 
Q 1594 4750 2688 4750 
Q 3144 4750 3555 4637 
Q 3966 4525 4313 4306 
L 4313 3634 
Q 3963 3931 3569 4081 
Q 3175 4231 2741 4231 
Q 1884 4231 1454 3753 
Q 1025 3275 1025 2328 
Q 1025 1384 1454 906 
Q 1884 428 2741 428 
Q 3075 428 3337 486 
Q 3600 544 3809 666 
z
" transform="scale(0.015625)"/>
       </defs>
       <use xlink:href="#DejaVuSans-47"/>
       <use xlink:href="#DejaVuSans-72" x="77.490234"/>
       <use xlink:href="#DejaVuSans-61" x="118.603516"/>
       <use xlink:href="#DejaVuSans-70" x="179.882812"/>
       <use xlink:href="#DejaVuSans-68" x="243.359375"/>
       <use xlink:href="#DejaVuSans-53" x="306.738281"/>
       <use xlink:href="#DejaVuSans-65" x="370.214844"/>
       <use xlink:href="#DejaVuSans-61" x="431.738281"/>
       <use xlink:href="#DejaVuSans-72" x="493.017578"/>
       <use xlink:href="#DejaVuSans-63" x="531.880859"/>
       <use xlink:href="#DejaVuSans-68" x="586.861328"/>
      </g>
     </g>
    </g>
    <g id="xtick_9">
     <g id="line2d_17">
      <path d="M 231.891148 201.358838 
L 231.891148 7.2 
" clip-path="url(#p2e4d7a8686)" style="fill: none; stroke: #cccccc; stroke-width: 0.25; stroke-linecap: round"/>
     </g>
     <g id="line2d_18">
      <g>
       <use xlink:href="#mf30f01a5bc" x="231.891148" y="201.358838" style="fill: #262626; stroke: #262626; stroke-width: 1.25"/>
      </g>
     </g>
     <g id="text_9">
      <!-- IntegerLoop -->
      <g style="fill: #262626" transform="translate(183.638513 263.404053) rotate(-45) scale(0.11 -0.11)">
       <defs>
        <path id="DejaVuSans-49" d="M 628 4666 
L 1259 4666 
L 1259 0 
L 628 0 
L 628 4666 
z
" transform="scale(0.015625)"/>
        <path id="DejaVuSans-67" d="M 2906 1791 
Q 2906 2416 2648 2759 
Q 2391 3103 1925 3103 
Q 1463 3103 1205 2759 
Q 947 2416 947 1791 
Q 947 1169 1205 825 
Q 1463 481 1925 481 
Q 2391 481 2648 825 
Q 2906 1169 2906 1791 
z
M 3481 434 
Q 3481 -459 3084 -895 
Q 2688 -1331 1869 -1331 
Q 1566 -1331 1297 -1286 
Q 1028 -1241 775 -1147 
L 775 -588 
Q 1028 -725 1275 -790 
Q 1522 -856 1778 -856 
Q 2344 -856 2625 -561 
Q 2906 -266 2906 331 
L 2906 616 
Q 2728 306 2450 153 
Q 2172 0 1784 0 
Q 1141 0 747 490 
Q 353 981 353 1791 
Q 353 2603 747 3093 
Q 1141 3584 1784 3584 
Q 2172 3584 2450 3431 
Q 2728 3278 2906 2969 
L 2906 3500 
L 3481 3500 
L 3481 434 
z
" transform="scale(0.015625)"/>
       </defs>
       <use xlink:href="#DejaVuSans-49"/>
       <use xlink:href="#DejaVuSans-6e" x="29.492188"/>
       <use xlink:href="#DejaVuSans-74" x="92.871094"/>
       <use xlink:href="#DejaVuSans-65" x="132.080078"/>
       <use xlink:href="#DejaVuSans-67" x="193.603516"/>
       <use xlink:href="#DejaVuSans-65" x="257.080078"/>
       <use xlink:href="#DejaVuSans-72" x="318.603516"/>
       <use xlink:href="#DejaVuSans-4c" x="359.716797"/>
       <use xlink:href="#DejaVuSans-6f" x="413.679688"/>
       <use xlink:href="#DejaVuSans-6f" x="474.861328"/>
       <use xlink:href="#DejaVuSans-70" x="536.042969"/>
      </g>
     </g>
    </g>
    <g id="xtick_10">
     <g id="line2d_19">
      <path d="M 250.173809 201.358838 
L 250.173809 7.2 
" clip-path="url(#p2e4d7a8686)" style="fill: none; stroke: #cccccc; stroke-width: 0.25; stroke-linecap: round"/>
     </g>
     <g id="line2d_20">
      <g>
       <use xlink:href="#mf30f01a5bc" x="250.173809" y="201.358838" style="fill: #262626; stroke: #262626; stroke-width: 1.25"/>
      </g>
     </g>
     <g id="text_10">
      <!-- JsonSmall -->
      <g style="fill: #262626" transform="translate(210.918335 254.406893) rotate(-45) scale(0.11 -0.11)">
       <defs>
        <path id="DejaVuSans-4a" d="M 628 4666 
L 1259 4666 
L 1259 325 
Q 1259 -519 939 -900 
Q 619 -1281 -91 -1281 
L -331 -1281 
L -331 -750 
L -134 -750 
Q 284 -750 456 -515 
Q 628 -281 628 325 
L 628 4666 
z
" transform="scale(0.015625)"/>
        <path id="DejaVuSans-6d" d="M 3328 2828 
Q 3544 3216 3844 3400 
Q 4144 3584 4550 3584 
Q 5097 3584 5394 3201 
Q 5691 2819 5691 2113 
L 5691 0 
L 5113 0 
L 5113 2094 
Q 5113 2597 4934 2840 
Q 4756 3084 4391 3084 
Q 3944 3084 3684 2787 
Q 3425 2491 3425 1978 
L 3425 0 
L 2847 0 
L 2847 2094 
Q 2847 2600 2669 2842 
Q 2491 3084 2119 3084 
Q 1678 3084 1418 2786 
Q 1159 2488 1159 1978 
L 1159 0 
L 581 0 
L 581 3500 
L 1159 3500 
L 1159 2956 
Q 1356 3278 1631 3431 
Q 1906 3584 2284 3584 
Q 2666 3584 2933 3390 
Q 3200 3197 3328 2828 
z
" transform="scale(0.015625)"/>
       </defs>
       <use xlink:href="#DejaVuSans-4a"/>
       <use xlink:href="#DejaVuSans-73" x="29.492188"/>
       <use xlink:href="#DejaVuSans-6f" x="81.591797"/>
       <use xlink:href="#DejaVuSans-6e" x="142.773438"/>
       <use xlink:href="#DejaVuSans-53" x="206.152344"/>
       <use xlink:href="#DejaVuSans-6d" x="269.628906"/>
       <use xlink:href="#DejaVuSans-61" x="367.041016"/>
       <use xlink:href="#DejaVuSans-6c" x="428.320312"/>
       <use xlink:href="#DejaVuSans-6c" x="456.103516"/>
      </g>
     </g>
    </g>
    <g id="xtick_11">
     <g id="line2d_21">
      <path d="M 268.456471 201.358838 
L 268.456471 7.2 
" clip-path="url(#p2e4d7a8686)" style="fill: none; stroke: #cccccc; stroke-width: 0.25; stroke-linecap: round"/>
     </g>
     <g id="line2d_22">
      <g>
       <use xlink:href="#mf30f01a5bc" x="268.456471" y="201.358838" style="fill: #262626; stroke: #262626; stroke-width: 1.25"/>
      </g>
     </g>
     <g id="text_11">
      <!-- List -->
      <g style="fill: #262626" transform="translate(253.242848 230.365041) rotate(-45) scale(0.11 -0.11)">
       <use xlink:href="#DejaVuSans-4c"/>
       <use xlink:href="#DejaVuSans-69" x="55.712891"/>
       <use xlink:href="#DejaVuSans-73" x="83.496094"/>
       <use xlink:href="#DejaVuSans-74" x="135.595703"/>
      </g>
     </g>
    </g>
    <g id="xtick_12">
     <g id="line2d_23">
      <path d="M 286.739133 201.358838 
L 286.739133 7.2 
" clip-path="url(#p2e4d7a8686)" style="fill: none; stroke: #cccccc; stroke-width: 0.25; stroke-linecap: round"/>
     </g>
     <g id="line2d_24">
      <g>
       <use xlink:href="#mf30f01a5bc" x="286.739133" y="201.358838" style="fill: #262626; stroke: #262626; stroke-width: 1.25"/>
      </g>
     </g>
     <g id="text_12">
      <!-- Loop -->
      <g style="fill: #262626" transform="translate(266.467265 235.423285) rotate(-45) scale(0.11 -0.11)">
       <use xlink:href="#DejaVuSans-4c"/>
       <use xlink:href="#DejaVuSans-6f" x="53.962891"/>
       <use xlink:href="#DejaVuSans-6f" x="115.144531"/>
       <use xlink:href="#DejaVuSans-70" x="176.326172"/>
      </g>
     </g>
    </g>
    <g id="xtick_13">
     <g id="line2d_25">
      <path d="M 305.021794 201.358838 
L 305.021794 7.2 
" clip-path="url(#p2e4d7a8686)" style="fill: none; stroke: #cccccc; stroke-width: 0.25; stroke-linecap: round"/>
     </g>
     <g id="line2d_26">
      <g>
       <use xlink:href="#mf30f01a5bc" x="305.021794" y="201.358838" style="fill: #262626; stroke: #262626; stroke-width: 1.25"/>
      </g>
     </g>
     <g id="text_13">
      <!-- Mandelbrot -->
      <g style="fill: #262626" transform="translate(259.343249 260.829963) rotate(-45) scale(0.11 -0.11)">
       <defs>
        <path id="DejaVuSans-4d" d="M 628 4666 
L 1569 4666 
L 2759 1491 
L 3956 4666 
L 4897 4666 
L 4897 0 
L 4281 0 
L 4281 4097 
L 3078 897 
L 2444 897 
L 1241 4097 
L 1241 0 
L 628 0 
L 628 4666 
z
" transform="scale(0.015625)"/>
       </defs>
       <use xlink:href="#DejaVuSans-4d"/>
       <use xlink:href="#DejaVuSans-61" x="86.279297"/>
       <use xlink:href="#DejaVuSans-6e" x="147.558594"/>
       <use xlink:href="#DejaVuSans-64" x="210.9375"/>
       <use xlink:href="#DejaVuSans-65" x="274.414062"/>
       <use xlink:href="#DejaVuSans-6c" x="335.9375"/>
       <use xlink:href="#DejaVuSans-62" x="363.720703"/>
       <use xlink:href="#DejaVuSans-72" x="427.197266"/>
       <use xlink:href="#DejaVuSans-6f" x="466.060547"/>
       <use xlink:href="#DejaVuSans-74" x="527.242188"/>
      </g>
     </g>
    </g>
    <g id="xtick_14">
     <g id="line2d_27">
      <path d="M 323.304456 201.358838 
L 323.304456 7.2 
" clip-path="url(#p2e4d7a8686)" style="fill: none; stroke: #cccccc; stroke-width: 0.25; stroke-linecap: round"/>
     </g>
     <g id="line2d_28">
      <g>
       <use xlink:href="#mf30f01a5bc" x="323.304456" y="201.358838" style="fill: #262626; stroke: #262626; stroke-width: 1.25"/>
      </g>
     </g>
     <g id="text_14">
      <!-- NBody -->
      <g style="fill: #262626" transform="translate(296.230332 242.225542) rotate(-45) scale(0.11 -0.11)">
       <defs>
        <path id="DejaVuSans-4e" d="M 628 4666 
L 1478 4666 
L 3547 763 
L 3547 4666 
L 4159 4666 
L 4159 0 
L 3309 0 
L 1241 3903 
L 1241 0 
L 628 0 
L 628 4666 
z
" transform="scale(0.015625)"/>
        <path id="DejaVuSans-79" d="M 2059 -325 
Q 1816 -950 1584 -1140 
Q 1353 -1331 966 -1331 
L 506 -1331 
L 506 -850 
L 844 -850 
Q 1081 -850 1212 -737 
Q 1344 -625 1503 -206 
L 1606 56 
L 191 3500 
L 800 3500 
L 1894 763 
L 2988 3500 
L 3597 3500 
L 2059 -325 
z
" transform="scale(0.015625)"/>
       </defs>
       <use xlink:href="#DejaVuSans-4e"/>
       <use xlink:href="#DejaVuSans-42" x="74.804688"/>
       <use xlink:href="#DejaVuSans-6f" x="143.408203"/>
       <use xlink:href="#DejaVuSans-64" x="204.589844"/>
       <use xlink:href="#DejaVuSans-79" x="268.066406"/>
      </g>
     </g>
    </g>
    <g id="xtick_15">
     <g id="line2d_29">
      <path d="M 341.587117 201.358838 
L 341.587117 7.2 
" clip-path="url(#p2e4d7a8686)" style="fill: none; stroke: #cccccc; stroke-width: 0.25; stroke-linecap: round"/>
     </g>
     <g id="line2d_30">
      <g>
       <use xlink:href="#mf30f01a5bc" x="341.587117" y="201.358838" style="fill: #262626; stroke: #262626; stroke-width: 1.25"/>
      </g>
     </g>
     <g id="text_15">
      <!-- PageRank -->
      <g style="fill: #262626" transform="translate(301.709389 255.029147) rotate(-45) scale(0.11 -0.11)">
       <defs>
        <path id="DejaVuSans-50" d="M 1259 4147 
L 1259 2394 
L 2053 2394 
Q 2494 2394 2734 2622 
Q 2975 2850 2975 3272 
Q 2975 3691 2734 3919 
Q 2494 4147 2053 4147 
L 1259 4147 
z
M 628 4666 
L 2053 4666 
Q 2838 4666 3239 4311 
Q 3641 3956 3641 3272 
Q 3641 2581 3239 2228 
Q 2838 1875 2053 1875 
L 1259 1875 
L 1259 0 
L 628 0 
L 628 4666 
z
" transform="scale(0.015625)"/>
        <path id="DejaVuSans-52" d="M 2841 2188 
Q 3044 2119 3236 1894 
Q 3428 1669 3622 1275 
L 4263 0 
L 3584 0 
L 2988 1197 
Q 2756 1666 2539 1819 
Q 2322 1972 1947 1972 
L 1259 1972 
L 1259 0 
L 628 0 
L 628 4666 
L 2053 4666 
Q 2853 4666 3247 4331 
Q 3641 3997 3641 3322 
Q 3641 2881 3436 2590 
Q 3231 2300 2841 2188 
z
M 1259 4147 
L 1259 2491 
L 2053 2491 
Q 2509 2491 2742 2702 
Q 2975 2913 2975 3322 
Q 2975 3731 2742 3939 
Q 2509 4147 2053 4147 
L 1259 4147 
z
" transform="scale(0.015625)"/>
       </defs>
       <use xlink:href="#DejaVuSans-50"/>
       <use xlink:href="#DejaVuSans-61" x="55.802734"/>
       <use xlink:href="#DejaVuSans-67" x="117.082031"/>
       <use xlink:href="#DejaVuSans-65" x="180.558594"/>
       <use xlink:href="#DejaVuSans-52" x="242.082031"/>
       <use xlink:href="#DejaVuSans-61" x="309.314453"/>
       <use xlink:href="#DejaVuSans-6e" x="370.59375"/>
       <use xlink:href="#DejaVuSans-6b" x="433.972656"/>
      </g>
     </g>
    </g>
    <g id="xtick_16">
     <g id="line2d_31">
      <path d="M 359.869779 201.358838 
L 359.869779 7.2 
" clip-path="url(#p2e4d7a8686)" style="fill: none; stroke: #cccccc; stroke-width: 0.25; stroke-linecap: round"/>
     </g>
     <g id="line2d_32">
      <g>
       <use xlink:href="#mf30f01a5bc" x="359.869779" y="201.358838" style="fill: #262626; stroke: #262626; stroke-width: 1.25"/>
      </g>
     </g>
     <g id="text_16">
      <!-- Permute -->
      <g style="fill: #262626" transform="translate(325.655534 249.365663) rotate(-45) scale(0.11 -0.11)">
       <use xlink:href="#DejaVuSans-50"/>
       <use xlink:href="#DejaVuSans-65" x="56.677734"/>
       <use xlink:href="#DejaVuSans-72" x="118.201172"/>
       <use xlink:href="#DejaVuSans-6d" x="157.564453"/>
       <use xlink:href="#DejaVuSans-75" x="254.976562"/>
       <use xlink:href="#DejaVuSans-74" x="318.355469"/>
       <use xlink:href="#DejaVuSans-65" x="357.564453"/>
      </g>
     </g>
    </g>
    <g id="xtick_17">
     <g id="line2d_33">
      <path d="M 378.152441 201.358838 
L 378.152441 7.2 
" clip-path="url(#p2e4d7a8686)" style="fill: none; stroke: #cccccc; stroke-width: 0.25; stroke-linecap: round"/>
     </g>
     <g id="line2d_34">
      <g>
       <use xlink:href="#mf30f01a5bc" x="378.152441" y="201.358838" style="fill: #262626; stroke: #262626; stroke-width: 1.25"/>
      </g>
     </g>
     <g id="text_17">
      <!-- Queens -->
      <g style="fill: #262626" transform="translate(346.929146 246.374712) rotate(-45) scale(0.11 -0.11)">
       <defs>
        <path id="DejaVuSans-51" d="M 2522 4238 
Q 1834 4238 1429 3725 
Q 1025 3213 1025 2328 
Q 1025 1447 1429 934 
Q 1834 422 2522 422 
Q 3209 422 3611 934 
Q 4013 1447 4013 2328 
Q 4013 3213 3611 3725 
Q 3209 4238 2522 4238 
z
M 3406 84 
L 4238 -825 
L 3475 -825 
L 2784 -78 
Q 2681 -84 2626 -87 
Q 2572 -91 2522 -91 
Q 1538 -91 948 567 
Q 359 1225 359 2328 
Q 359 3434 948 4092 
Q 1538 4750 2522 4750 
Q 3503 4750 4090 4092 
Q 4678 3434 4678 2328 
Q 4678 1516 4351 937 
Q 4025 359 3406 84 
z
" transform="scale(0.015625)"/>
       </defs>
       <use xlink:href="#DejaVuSans-51"/>
       <use xlink:href="#DejaVuSans-75" x="78.710938"/>
       <use xlink:href="#DejaVuSans-65" x="142.089844"/>
       <use xlink:href="#DejaVuSans-65" x="203.613281"/>
       <use xlink:href="#DejaVuSans-6e" x="265.136719"/>
       <use xlink:href="#DejaVuSans-73" x="328.515625"/>
      </g>
     </g>
    </g>
    <g id="xtick_18">
     <g id="line2d_35">
      <path d="M 396.435102 201.358838 
L 396.435102 7.2 
" clip-path="url(#p2e4d7a8686)" style="fill: none; stroke: #cccccc; stroke-width: 0.25; stroke-linecap: round"/>
     </g>
     <g id="line2d_36">
      <g>
       <use xlink:href="#mf30f01a5bc" x="396.435102" y="201.358838" style="fill: #262626; stroke: #262626; stroke-width: 1.25"/>
      </g>
     </g>
     <g id="text_18">
      <!-- QuickSort -->
      <g style="fill: #262626" transform="translate(356.879438 254.707082) rotate(-45) scale(0.11 -0.11)">
       <use xlink:href="#DejaVuSans-51"/>
       <use xlink:href="#DejaVuSans-75" x="78.710938"/>
       <use xlink:href="#DejaVuSans-69" x="142.089844"/>
       <use xlink:href="#DejaVuSans-63" x="169.873047"/>
       <use xlink:href="#DejaVuSans-6b" x="224.853516"/>
       <use xlink:href="#DejaVuSans-53" x="282.763672"/>
       <use xlink:href="#DejaVuSans-6f" x="346.240234"/>
       <use xlink:href="#DejaVuSans-72" x="407.421875"/>
       <use xlink:href="#DejaVuSans-74" x="448.535156"/>
      </g>
     </g>
    </g>
    <g id="xtick_19">
     <g id="line2d_37">
      <path d="M 414.717764 201.358838 
L 414.717764 7.2 
" clip-path="url(#p2e4d7a8686)" style="fill: none; stroke: #cccccc; stroke-width: 0.25; stroke-linecap: round"/>
     </g>
     <g id="line2d_38">
      <g>
       <use xlink:href="#mf30f01a5bc" x="414.717764" y="201.358838" style="fill: #262626; stroke: #262626; stroke-width: 1.25"/>
      </g>
     </g>
     <g id="text_19">
      <!-- Recurse -->
      <g style="fill: #262626" transform="translate(382.017832 247.85135) rotate(-45) scale(0.11 -0.11)">
       <use xlink:href="#DejaVuSans-52"/>
       <use xlink:href="#DejaVuSans-65" x="64.982422"/>
       <use xlink:href="#DejaVuSans-63" x="126.505859"/>
       <use xlink:href="#DejaVuSans-75" x="181.486328"/>
       <use xlink:href="#DejaVuSans-72" x="244.865234"/>
       <use xlink:href="#DejaVuSans-73" x="285.978516"/>
       <use xlink:href="#DejaVuSans-65" x="338.078125"/>
      </g>
     </g>
    </g>
    <g id="xtick_20">
     <g id="line2d_39">
      <path d="M 433.000425 201.358838 
L 433.000425 7.2 
" clip-path="url(#p2e4d7a8686)" style="fill: none; stroke: #cccccc; stroke-width: 0.25; stroke-linecap: round"/>
     </g>
     <g id="line2d_40">
      <g>
       <use xlink:href="#mf30f01a5bc" x="433.000425" y="201.358838" style="fill: #262626; stroke: #262626; stroke-width: 1.25"/>
      </g>
     </g>
     <g id="text_20">
      <!-- Richards -->
      <g style="fill: #262626" transform="translate(397.793247 250.358596) rotate(-45) scale(0.11 -0.11)">
       <use xlink:href="#DejaVuSans-52"/>
       <use xlink:href="#DejaVuSans-69" x="69.482422"/>
       <use xlink:href="#DejaVuSans-63" x="97.265625"/>
       <use xlink:href="#DejaVuSans-68" x="152.246094"/>
       <use xlink:href="#DejaVuSans-61" x="215.625"/>
       <use xlink:href="#DejaVuSans-72" x="276.904297"/>
       <use xlink:href="#DejaVuSans-64" x="316.267578"/>
       <use xlink:href="#DejaVuSans-73" x="379.744141"/>
      </g>
     </g>
    </g>
    <g id="xtick_21">
     <g id="line2d_41">
      <path d="M 451.283087 201.358838 
L 451.283087 7.2 
" clip-path="url(#p2e4d7a8686)" style="fill: none; stroke: #cccccc; stroke-width: 0.25; stroke-linecap: round"/>
     </g>
     <g id="line2d_42">
      <g>
       <use xlink:href="#mf30f01a5bc" x="451.283087" y="201.358838" style="fill: #262626; stroke: #262626; stroke-width: 1.25"/>
      </g>
     </g>
     <g id="text_21">
      <!-- Sieve -->
      <g style="fill: #262626" transform="translate(428.390947 238.043558) rotate(-45) scale(0.11 -0.11)">
       <defs>
        <path id="DejaVuSans-76" d="M 191 3500 
L 800 3500 
L 1894 563 
L 2988 3500 
L 3597 3500 
L 2284 0 
L 1503 0 
L 191 3500 
z
" transform="scale(0.015625)"/>
       </defs>
       <use xlink:href="#DejaVuSans-53"/>
       <use xlink:href="#DejaVuSans-69" x="63.476562"/>
       <use xlink:href="#DejaVuSans-65" x="91.259766"/>
       <use xlink:href="#DejaVuSans-76" x="152.783203"/>
       <use xlink:href="#DejaVuSans-65" x="211.962891"/>
      </g>
     </g>
    </g>
    <g id="xtick_22">
     <g id="line2d_43">
      <path d="M 469.565749 201.358838 
L 469.565749 7.2 
" clip-path="url(#p2e4d7a8686)" style="fill: none; stroke: #cccccc; stroke-width: 0.25; stroke-linecap: round"/>
     </g>
     <g id="line2d_44">
      <g>
       <use xlink:href="#mf30f01a5bc" x="469.565749" y="201.358838" style="fill: #262626; stroke: #262626; stroke-width: 1.25"/>
      </g>
     </g>
     <g id="text_22">
      <!-- Storage -->
      <g style="fill: #262626" transform="translate(437.513593 247.203574) rotate(-45) scale(0.11 -0.11)">
       <use xlink:href="#DejaVuSans-53"/>
       <use xlink:href="#DejaVuSans-74" x="63.476562"/>
       <use xlink:href="#DejaVuSans-6f" x="102.685547"/>
       <use xlink:href="#DejaVuSans-72" x="163.867188"/>
       <use xlink:href="#DejaVuSans-61" x="204.980469"/>
       <use xlink:href="#DejaVuSans-67" x="266.259766"/>
       <use xlink:href="#DejaVuSans-65" x="329.736328"/>
      </g>
     </g>
    </g>
    <g id="xtick_23">
     <g id="line2d_45">
      <path d="M 487.84841 201.358838 
L 487.84841 7.2 
" clip-path="url(#p2e4d7a8686)" style="fill: none; stroke: #cccccc; stroke-width: 0.25; stroke-linecap: round"/>
     </g>
     <g id="line2d_46">
      <g>
       <use xlink:href="#mf30f01a5bc" x="487.84841" y="201.358838" style="fill: #262626; stroke: #262626; stroke-width: 1.25"/>
      </g>
     </g>
     <g id="text_23">
      <!-- Sum -->
      <g style="fill: #262626" transform="translate(468.787021 234.212807) rotate(-45) scale(0.11 -0.11)">
       <use xlink:href="#DejaVuSans-53"/>
       <use xlink:href="#DejaVuSans-75" x="63.476562"/>
       <use xlink:href="#DejaVuSans-6d" x="126.855469"/>
      </g>
     </g>
    </g>
    <g id="xtick_24">
     <g id="line2d_47">
      <path d="M 506.131072 201.358838 
L 506.131072 7.2 
" clip-path="url(#p2e4d7a8686)" style="fill: none; stroke: #cccccc; stroke-width: 0.25; stroke-linecap: round"/>
     </g>
     <g id="line2d_48">
      <g>
       <use xlink:href="#mf30f01a5bc" x="506.131072" y="201.358838" style="fill: #262626; stroke: #262626; stroke-width: 1.25"/>
      </g>
     </g>
     <g id="text_24">
      <!-- Towers -->
      <g style="fill: #262626" transform="translate(477.929112 243.353377) rotate(-45) scale(0.11 -0.11)">
       <defs>
        <path id="DejaVuSans-54" d="M -19 4666 
L 3928 4666 
L 3928 4134 
L 2272 4134 
L 2272 0 
L 1638 0 
L 1638 4134 
L -19 4134 
L -19 4666 
z
" transform="scale(0.015625)"/>
        <path id="DejaVuSans-77" d="M 269 3500 
L 844 3500 
L 1563 769 
L 2278 3500 
L 2956 3500 
L 3675 769 
L 4391 3500 
L 4966 3500 
L 4050 0 
L 3372 0 
L 2619 2869 
L 1863 0 
L 1184 0 
L 269 3500 
z
" transform="scale(0.015625)"/>
       </defs>
       <use xlink:href="#DejaVuSans-54"/>
       <use xlink:href="#DejaVuSans-6f" x="44.083984"/>
       <use xlink:href="#DejaVuSans-77" x="105.265625"/>
       <use xlink:href="#DejaVuSans-65" x="187.052734"/>
       <use xlink:href="#DejaVuSans-72" x="248.576172"/>
       <use xlink:href="#DejaVuSans-73" x="289.689453"/>
      </g>
     </g>
    </g>
    <g id="xtick_25">
     <g id="line2d_49">
      <path d="M 524.413733 201.358838 
L 524.413733 7.2 
" clip-path="url(#p2e4d7a8686)" style="fill: none; stroke: #cccccc; stroke-width: 0.25; stroke-linecap: round"/>
     </g>
     <g id="line2d_50">
      <g>
       <use xlink:href="#mf30f01a5bc" x="524.413733" y="201.358838" style="fill: #262626; stroke: #262626; stroke-width: 1.25"/>
      </g>
     </g>
     <g id="text_25">
      <!-- TreeSort -->
      <g style="fill: #262626" transform="translate(490.654025 248.911126) rotate(-45) scale(0.11 -0.11)">
       <use xlink:href="#DejaVuSans-54"/>
       <use xlink:href="#DejaVuSans-72" x="46.333984"/>
       <use xlink:href="#DejaVuSans-65" x="85.197266"/>
       <use xlink:href="#DejaVuSans-65" x="146.720703"/>
       <use xlink:href="#DejaVuSans-53" x="208.244141"/>
       <use xlink:href="#DejaVuSans-6f" x="271.720703"/>
       <use xlink:href="#DejaVuSans-72" x="332.902344"/>
       <use xlink:href="#DejaVuSans-74" x="374.015625"/>
      </g>
     </g>
    </g>
    <g id="xtick_26">
     <g id="line2d_51">
      <path d="M 542.696395 201.358838 
L 542.696395 7.2 
" clip-path="url(#p2e4d7a8686)" style="fill: none; stroke: #cccccc; stroke-width: 0.25; stroke-linecap: round"/>
     </g>
     <g id="line2d_52">
      <g>
       <use xlink:href="#mf30f01a5bc" x="542.696395" y="201.358838" style="fill: #262626; stroke: #262626; stroke-width: 1.25"/>
      </g>
     </g>
     <g id="text_26">
      <!-- WhileLoop -->
      <g style="fill: #262626" transform="translate(500.696683 257.15113) rotate(-45) scale(0.11 -0.11)">
       <defs>
        <path id="DejaVuSans-57" d="M 213 4666 
L 850 4666 
L 1831 722 
L 2809 4666 
L 3519 4666 
L 4500 722 
L 5478 4666 
L 6119 4666 
L 4947 0 
L 4153 0 
L 3169 4050 
L 2175 0 
L 1381 0 
L 213 4666 
z
" transform="scale(0.015625)"/>
       </defs>
       <use xlink:href="#DejaVuSans-57"/>
       <use xlink:href="#DejaVuSans-68" x="98.876953"/>
       <use xlink:href="#DejaVuSans-69" x="162.255859"/>
       <use xlink:href="#DejaVuSans-6c" x="190.039062"/>
       <use xlink:href="#DejaVuSans-65" x="217.822266"/>
       <use xlink:href="#DejaVuSans-4c" x="279.345703"/>
       <use xlink:href="#DejaVuSans-6f" x="333.308594"/>
       <use xlink:href="#DejaVuSans-6f" x="394.490234"/>
       <use xlink:href="#DejaVuSans-70" x="455.671875"/>
      </g>
     </g>
    </g>
   </g>
   <g id="matplotlib.axis_2">
    <g id="ytick_1">
     <g id="line2d_53">
      <path d="M 73.746125 201.358838 
L 554.580125 201.358838 
" clip-path="url(#p2e4d7a8686)" style="fill: none; stroke: #cccccc; stroke-width: 0.25; stroke-linecap: round"/>
     </g>
     <g id="line2d_54">
      <defs>
       <path id="mf22be7bb43" d="M 0 0 
L -6 0 
" style="stroke: #262626; stroke-width: 1.25"/>
      </defs>
      <g>
       <use xlink:href="#mf22be7bb43" x="73.746125" y="201.358838" style="fill: #262626; stroke: #262626; stroke-width: 1.25"/>
      </g>
     </g>
     <g id="text_27">
      <!-- 0 -->
      <g style="fill: #262626" transform="translate(57.247375 205.537978) scale(0.11 -0.11)">
       <defs>
        <path id="DejaVuSans-30" d="M 2034 4250 
Q 1547 4250 1301 3770 
Q 1056 3291 1056 2328 
Q 1056 1369 1301 889 
Q 1547 409 2034 409 
Q 2525 409 2770 889 
Q 3016 1369 3016 2328 
Q 3016 3291 2770 3770 
Q 2525 4250 2034 4250 
z
M 2034 4750 
Q 2819 4750 3233 4129 
Q 3647 3509 3647 2328 
Q 3647 1150 3233 529 
Q 2819 -91 2034 -91 
Q 1250 -91 836 529 
Q 422 1150 422 2328 
Q 422 3509 836 4129 
Q 1250 4750 2034 4750 
z
" transform="scale(0.015625)"/>
       </defs>
       <use xlink:href="#DejaVuSans-30"/>
      </g>
     </g>
    </g>
    <g id="ytick_2">
     <g id="line2d_55">
      <path d="M 73.746125 156.920103 
L 554.580125 156.920103 
" clip-path="url(#p2e4d7a8686)" style="fill: none; stroke: #cccccc; stroke-width: 0.25; stroke-linecap: round"/>
     </g>
     <g id="line2d_56">
      <g>
       <use xlink:href="#mf22be7bb43" x="73.746125" y="156.920103" style="fill: #262626; stroke: #262626; stroke-width: 1.25"/>
      </g>
     </g>
     <g id="text_28">
      <!-- 2000 -->
      <g style="fill: #262626" transform="translate(36.251125 161.099244) scale(0.11 -0.11)">
       <defs>
        <path id="DejaVuSans-32" d="M 1228 531 
L 3431 531 
L 3431 0 
L 469 0 
L 469 531 
Q 828 903 1448 1529 
Q 2069 2156 2228 2338 
Q 2531 2678 2651 2914 
Q 2772 3150 2772 3378 
Q 2772 3750 2511 3984 
Q 2250 4219 1831 4219 
Q 1534 4219 1204 4116 
Q 875 4013 500 3803 
L 500 4441 
Q 881 4594 1212 4672 
Q 1544 4750 1819 4750 
Q 2544 4750 2975 4387 
Q 3406 4025 3406 3419 
Q 3406 3131 3298 2873 
Q 3191 2616 2906 2266 
Q 2828 2175 2409 1742 
Q 1991 1309 1228 531 
z
" transform="scale(0.015625)"/>
       </defs>
       <use xlink:href="#DejaVuSans-32"/>
       <use xlink:href="#DejaVuSans-30" x="63.623047"/>
       <use xlink:href="#DejaVuSans-30" x="127.246094"/>
       <use xlink:href="#DejaVuSans-30" x="190.869141"/>
      </g>
     </g>
    </g>
    <g id="ytick_3">
     <g id="line2d_57">
      <path d="M 73.746125 112.481368 
L 554.580125 112.481368 
" clip-path="url(#p2e4d7a8686)" style="fill: none; stroke: #cccccc; stroke-width: 0.25; stroke-linecap: round"/>
     </g>
     <g id="line2d_58">
      <g>
       <use xlink:href="#mf22be7bb43" x="73.746125" y="112.481368" style="fill: #262626; stroke: #262626; stroke-width: 1.25"/>
      </g>
     </g>
     <g id="text_29">
      <!-- 4000 -->
      <g style="fill: #262626" transform="translate(36.251125 116.660509) scale(0.11 -0.11)">
       <defs>
        <path id="DejaVuSans-34" d="M 2419 4116 
L 825 1625 
L 2419 1625 
L 2419 4116 
z
M 2253 4666 
L 3047 4666 
L 3047 1625 
L 3713 1625 
L 3713 1100 
L 3047 1100 
L 3047 0 
L 2419 0 
L 2419 1100 
L 313 1100 
L 313 1709 
L 2253 4666 
z
" transform="scale(0.015625)"/>
       </defs>
       <use xlink:href="#DejaVuSans-34"/>
       <use xlink:href="#DejaVuSans-30" x="63.623047"/>
       <use xlink:href="#DejaVuSans-30" x="127.246094"/>
       <use xlink:href="#DejaVuSans-30" x="190.869141"/>
      </g>
     </g>
    </g>
    <g id="ytick_4">
     <g id="line2d_59">
      <path d="M 73.746125 68.042634 
L 554.580125 68.042634 
" clip-path="url(#p2e4d7a8686)" style="fill: none; stroke: #cccccc; stroke-width: 0.25; stroke-linecap: round"/>
     </g>
     <g id="line2d_60">
      <g>
       <use xlink:href="#mf22be7bb43" x="73.746125" y="68.042634" style="fill: #262626; stroke: #262626; stroke-width: 1.25"/>
      </g>
     </g>
     <g id="text_30">
      <!-- 6000 -->
      <g style="fill: #262626" transform="translate(36.251125 72.221774) scale(0.11 -0.11)">
       <defs>
        <path id="DejaVuSans-36" d="M 2113 2584 
Q 1688 2584 1439 2293 
Q 1191 2003 1191 1497 
Q 1191 994 1439 701 
Q 1688 409 2113 409 
Q 2538 409 2786 701 
Q 3034 994 3034 1497 
Q 3034 2003 2786 2293 
Q 2538 2584 2113 2584 
z
M 3366 4563 
L 3366 3988 
Q 3128 4100 2886 4159 
Q 2644 4219 2406 4219 
Q 1781 4219 1451 3797 
Q 1122 3375 1075 2522 
Q 1259 2794 1537 2939 
Q 1816 3084 2150 3084 
Q 2853 3084 3261 2657 
Q 3669 2231 3669 1497 
Q 3669 778 3244 343 
Q 2819 -91 2113 -91 
Q 1303 -91 875 529 
Q 447 1150 447 2328 
Q 447 3434 972 4092 
Q 1497 4750 2381 4750 
Q 2619 4750 2861 4703 
Q 3103 4656 3366 4563 
z
" transform="scale(0.015625)"/>
       </defs>
       <use xlink:href="#DejaVuSans-36"/>
       <use xlink:href="#DejaVuSans-30" x="63.623047"/>
       <use xlink:href="#DejaVuSans-30" x="127.246094"/>
       <use xlink:href="#DejaVuSans-30" x="190.869141"/>
      </g>
     </g>
    </g>
    <g id="ytick_5">
     <g id="line2d_61">
      <path d="M 73.746125 23.603899 
L 554.580125 23.603899 
" clip-path="url(#p2e4d7a8686)" style="fill: none; stroke: #cccccc; stroke-width: 0.25; stroke-linecap: round"/>
     </g>
     <g id="line2d_62">
      <g>
       <use xlink:href="#mf22be7bb43" x="73.746125" y="23.603899" style="fill: #262626; stroke: #262626; stroke-width: 1.25"/>
      </g>
     </g>
     <g id="text_31">
      <!-- 8000 -->
      <g style="fill: #262626" transform="translate(36.251125 27.78304) scale(0.11 -0.11)">
       <defs>
        <path id="DejaVuSans-38" d="M 2034 2216 
Q 1584 2216 1326 1975 
Q 1069 1734 1069 1313 
Q 1069 891 1326 650 
Q 1584 409 2034 409 
Q 2484 409 2743 651 
Q 3003 894 3003 1313 
Q 3003 1734 2745 1975 
Q 2488 2216 2034 2216 
z
M 1403 2484 
Q 997 2584 770 2862 
Q 544 3141 544 3541 
Q 544 4100 942 4425 
Q 1341 4750 2034 4750 
Q 2731 4750 3128 4425 
Q 3525 4100 3525 3541 
Q 3525 3141 3298 2862 
Q 3072 2584 2669 2484 
Q 3125 2378 3379 2068 
Q 3634 1759 3634 1313 
Q 3634 634 3220 271 
Q 2806 -91 2034 -91 
Q 1263 -91 848 271 
Q 434 634 434 1313 
Q 434 1759 690 2068 
Q 947 2378 1403 2484 
z
M 1172 3481 
Q 1172 3119 1398 2916 
Q 1625 2713 2034 2713 
Q 2441 2713 2670 2916 
Q 2900 3119 2900 3481 
Q 2900 3844 2670 4047 
Q 2441 4250 2034 4250 
Q 1625 4250 1398 4047 
Q 1172 3844 1172 3481 
z
" transform="scale(0.015625)"/>
       </defs>
       <use xlink:href="#DejaVuSans-38"/>
       <use xlink:href="#DejaVuSans-30" x="63.623047"/>
       <use xlink:href="#DejaVuSans-30" x="127.246094"/>
       <use xlink:href="#DejaVuSans-30" x="190.869141"/>
      </g>
     </g>
    </g>
    <g id="text_32">
     <!-- Wall-clock time (ms) -->
     <g style="fill: #262626" transform="translate(16.318125 165.436294) rotate(-90) scale(0.12 -0.12)">
      <defs>
       <path id="DejaVuSans-2d" d="M 313 2009 
L 1997 2009 
L 1997 1497 
L 313 1497 
L 313 2009 
z
" transform="scale(0.015625)"/>
       <path id="DejaVuSans-20" transform="scale(0.015625)"/>
       <path id="DejaVuSans-28" d="M 1984 4856 
Q 1566 4138 1362 3434 
Q 1159 2731 1159 2009 
Q 1159 1288 1364 580 
Q 1569 -128 1984 -844 
L 1484 -844 
Q 1016 -109 783 600 
Q 550 1309 550 2009 
Q 550 2706 781 3412 
Q 1013 4119 1484 4856 
L 1984 4856 
z
" transform="scale(0.015625)"/>
       <path id="DejaVuSans-29" d="M 513 4856 
L 1013 4856 
Q 1481 4119 1714 3412 
Q 1947 2706 1947 2009 
Q 1947 1309 1714 600 
Q 1481 -109 1013 -844 
L 513 -844 
Q 928 -128 1133 580 
Q 1338 1288 1338 2009 
Q 1338 2731 1133 3434 
Q 928 4138 513 4856 
z
" transform="scale(0.015625)"/>
      </defs>
      <use xlink:href="#DejaVuSans-57"/>
      <use xlink:href="#DejaVuSans-61" x="92.501953"/>
      <use xlink:href="#DejaVuSans-6c" x="153.78125"/>
      <use xlink:href="#DejaVuSans-6c" x="181.564453"/>
      <use xlink:href="#DejaVuSans-2d" x="209.347656"/>
      <use xlink:href="#DejaVuSans-63" x="245.431641"/>
      <use xlink:href="#DejaVuSans-6c" x="300.412109"/>
      <use xlink:href="#DejaVuSans-6f" x="328.195312"/>
      <use xlink:href="#DejaVuSans-63" x="389.376953"/>
      <use xlink:href="#DejaVuSans-6b" x="444.357422"/>
      <use xlink:href="#DejaVuSans-20" x="502.267578"/>
      <use xlink:href="#DejaVuSans-74" x="534.054688"/>
      <use xlink:href="#DejaVuSans-69" x="573.263672"/>
      <use xlink:href="#DejaVuSans-6d" x="601.046875"/>
      <use xlink:href="#DejaVuSans-65" x="698.458984"/>
      <use xlink:href="#DejaVuSans-20" x="759.982422"/>
      <use xlink:href="#DejaVuSans-28" x="791.769531"/>
      <use xlink:href="#DejaVuSans-6d" x="830.783203"/>
      <use xlink:href="#DejaVuSans-73" x="928.195312"/>
      <use xlink:href="#DejaVuSans-29" x="980.294922"/>
     </g>
     <!-- (lower is better) -->
     <g style="fill: #262626" transform="translate(29.7555 152.334731) rotate(-90) scale(0.12 -0.12)">
      <use xlink:href="#DejaVuSans-28"/>
      <use xlink:href="#DejaVuSans-6c" x="39.013672"/>
      <use xlink:href="#DejaVuSans-6f" x="66.796875"/>
      <use xlink:href="#DejaVuSans-77" x="127.978516"/>
      <use xlink:href="#DejaVuSans-65" x="209.765625"/>
      <use xlink:href="#DejaVuSans-72" x="271.289062"/>
      <use xlink:href="#DejaVuSans-20" x="312.402344"/>
      <use xlink:href="#DejaVuSans-69" x="344.189453"/>
      <use xlink:href="#DejaVuSans-73" x="371.972656"/>
      <use xlink:href="#DejaVuSans-20" x="424.072266"/>
      <use xlink:href="#DejaVuSans-62" x="455.859375"/>
      <use xlink:href="#DejaVuSans-65" x="519.335938"/>
      <use xlink:href="#DejaVuSans-74" x="580.859375"/>
      <use xlink:href="#DejaVuSans-74" x="620.068359"/>
      <use xlink:href="#DejaVuSans-65" x="659.277344"/>
      <use xlink:href="#DejaVuSans-72" x="720.800781"/>
      <use xlink:href="#DejaVuSans-29" x="761.914062"/>
     </g>
    </g>
   </g>
   <g id="patch_3">
    <path d="M 78.31679 201.358838 
L 85.629855 201.358838 
L 85.629855 194.14075 
L 78.31679 194.14075 
z
" clip-path="url(#p2e4d7a8686)" style="fill: #4c72b0; stroke: #ffffff; stroke-linejoin: miter"/>
   </g>
   <g id="patch_4">
    <path d="M 96.599452 201.358838 
L 103.912517 201.358838 
L 103.912517 194.289706 
L 96.599452 194.289706 
z
" clip-path="url(#p2e4d7a8686)" style="fill: #4c72b0; stroke: #ffffff; stroke-linejoin: miter"/>
   </g>
   <g id="patch_5">
    <path d="M 114.882114 201.358838 
L 122.195178 201.358838 
L 122.195178 193.660728 
L 114.882114 193.660728 
z
" clip-path="url(#p2e4d7a8686)" style="fill: #4c72b0; stroke: #ffffff; stroke-linejoin: miter"/>
   </g>
   <g id="patch_6">
    <path d="M 133.164775 201.358838 
L 140.47784 201.358838 
L 140.47784 193.709635 
L 133.164775 193.709635 
z
" clip-path="url(#p2e4d7a8686)" style="fill: #4c72b0; stroke: #ffffff; stroke-linejoin: miter"/>
   </g>
   <g id="patch_7">
    <path d="M 151.447437 201.358838 
L 158.760501 201.358838 
L 158.760501 193.88846 
L 151.447437 193.88846 
z
" clip-path="url(#p2e4d7a8686)" style="fill: #4c72b0; stroke: #ffffff; stroke-linejoin: miter"/>
   </g>
   <g id="patch_8">
    <path d="M 169.730098 201.358838 
L 177.043163 201.358838 
L 177.043163 191.68181 
L 169.730098 191.68181 
z
" clip-path="url(#p2e4d7a8686)" style="fill: #4c72b0; stroke: #ffffff; stroke-linejoin: miter"/>
   </g>
   <g id="patch_9">
    <path d="M 188.01276 201.358838 
L 195.325825 201.358838 
L 195.325825 190.396332 
L 188.01276 190.396332 
z
" clip-path="url(#p2e4d7a8686)" style="fill: #4c72b0; stroke: #ffffff; stroke-linejoin: miter"/>
   </g>
   <g id="patch_10">
    <path d="M 206.295422 201.358838 
L 213.608486 201.358838 
L 213.608486 198.821296 
L 206.295422 198.821296 
z
" clip-path="url(#p2e4d7a8686)" style="fill: #4c72b0; stroke: #ffffff; stroke-linejoin: miter"/>
   </g>
   <g id="patch_11">
    <path d="M 224.578083 201.358838 
L 231.891148 201.358838 
L 231.891148 194.788376 
L 224.578083 194.788376 
z
" clip-path="url(#p2e4d7a8686)" style="fill: #4c72b0; stroke: #ffffff; stroke-linejoin: miter"/>
   </g>
   <g id="patch_12">
    <path d="M 242.860745 201.358838 
L 250.173809 201.358838 
L 250.173809 192.137824 
L 242.860745 192.137824 
z
" clip-path="url(#p2e4d7a8686)" style="fill: #4c72b0; stroke: #ffffff; stroke-linejoin: miter"/>
   </g>
   <g id="patch_13">
    <path d="M 261.143406 201.358838 
L 268.456471 201.358838 
L 268.456471 195.838484 
L 261.143406 195.838484 
z
" clip-path="url(#p2e4d7a8686)" style="fill: #4c72b0; stroke: #ffffff; stroke-linejoin: miter"/>
   </g>
   <g id="patch_14">
    <path d="M 279.426068 201.358838 
L 286.739133 201.358838 
L 286.739133 194.439121 
L 279.426068 194.439121 
z
" clip-path="url(#p2e4d7a8686)" style="fill: #4c72b0; stroke: #ffffff; stroke-linejoin: miter"/>
   </g>
   <g id="patch_15">
    <path d="M 297.70873 201.358838 
L 305.021794 201.358838 
L 305.021794 195.713384 
L 297.70873 195.713384 
z
" clip-path="url(#p2e4d7a8686)" style="fill: #4c72b0; stroke: #ffffff; stroke-linejoin: miter"/>
   </g>
   <g id="patch_16">
    <path d="M 315.991391 201.358838 
L 323.304456 201.358838 
L 323.304456 198.663261 
L 315.991391 198.663261 
z
" clip-path="url(#p2e4d7a8686)" style="fill: #4c72b0; stroke: #ffffff; stroke-linejoin: miter"/>
   </g>
   <g id="patch_17">
    <path d="M 334.274053 201.358838 
L 341.587117 201.358838 
L 341.587117 198.146712 
L 334.274053 198.146712 
z
" clip-path="url(#p2e4d7a8686)" style="fill: #4c72b0; stroke: #ffffff; stroke-linejoin: miter"/>
   </g>
   <g id="patch_18">
    <path d="M 352.556714 201.358838 
L 359.869779 201.358838 
L 359.869779 194.487287 
L 352.556714 194.487287 
z
" clip-path="url(#p2e4d7a8686)" style="fill: #4c72b0; stroke: #ffffff; stroke-linejoin: miter"/>
   </g>
   <g id="patch_19">
    <path d="M 370.839376 201.358838 
L 378.152441 201.358838 
L 378.152441 192.808783 
L 370.839376 192.808783 
z
" clip-path="url(#p2e4d7a8686)" style="fill: #4c72b0; stroke: #ffffff; stroke-linejoin: miter"/>
   </g>
   <g id="patch_20">
    <path d="M 389.122038 201.358838 
L 396.435102 201.358838 
L 396.435102 191.256892 
L 389.122038 191.256892 
z
" clip-path="url(#p2e4d7a8686)" style="fill: #4c72b0; stroke: #ffffff; stroke-linejoin: miter"/>
   </g>
   <g id="patch_21">
    <path d="M 407.404699 201.358838 
L 414.717764 201.358838 
L 414.717764 193.333696 
L 407.404699 193.333696 
z
" clip-path="url(#p2e4d7a8686)" style="fill: #4c72b0; stroke: #ffffff; stroke-linejoin: miter"/>
   </g>
   <g id="patch_22">
    <path d="M 425.687361 201.358838 
L 433.000425 201.358838 
L 433.000425 170.821881 
L 425.687361 170.821881 
z
" clip-path="url(#p2e4d7a8686)" style="fill: #4c72b0; stroke: #ffffff; stroke-linejoin: miter"/>
   </g>
   <g id="patch_23">
    <path d="M 443.970022 201.358838 
L 451.283087 201.358838 
L 451.283087 194.845617 
L 443.970022 194.845617 
z
" clip-path="url(#p2e4d7a8686)" style="fill: #4c72b0; stroke: #ffffff; stroke-linejoin: miter"/>
   </g>
   <g id="patch_24">
    <path d="M 462.252684 201.358838 
L 469.565749 201.358838 
L 469.565749 196.453378 
L 462.252684 196.453378 
z
" clip-path="url(#p2e4d7a8686)" style="fill: #4c72b0; stroke: #ffffff; stroke-linejoin: miter"/>
   </g>
   <g id="patch_25">
    <path d="M 480.535346 201.358838 
L 487.84841 201.358838 
L 487.84841 194.5352 
L 480.535346 194.5352 
z
" clip-path="url(#p2e4d7a8686)" style="fill: #4c72b0; stroke: #ffffff; stroke-linejoin: miter"/>
   </g>
   <g id="patch_26">
    <path d="M 498.818007 201.358838 
L 506.131072 201.358838 
L 506.131072 197.833317 
L 498.818007 197.833317 
z
" clip-path="url(#p2e4d7a8686)" style="fill: #4c72b0; stroke: #ffffff; stroke-linejoin: miter"/>
   </g>
   <g id="patch_27">
    <path d="M 517.100669 201.358838 
L 524.413733 201.358838 
L 524.413733 198.911561 
L 517.100669 198.911561 
z
" clip-path="url(#p2e4d7a8686)" style="fill: #4c72b0; stroke: #ffffff; stroke-linejoin: miter"/>
   </g>
   <g id="patch_28">
    <path d="M 535.38333 201.358838 
L 542.696395 201.358838 
L 542.696395 195.268539 
L 535.38333 195.268539 
z
" clip-path="url(#p2e4d7a8686)" style="fill: #4c72b0; stroke: #ffffff; stroke-linejoin: miter"/>
   </g>
   <g id="patch_29">
    <path d="M 85.629855 201.358838 
L 92.94292 201.358838 
L 92.94292 167.220611 
L 85.629855 167.220611 
z
" clip-path="url(#p2e4d7a8686)" style="fill: #dd8452; stroke: #ffffff; stroke-linejoin: miter"/>
   </g>
   <g id="patch_30">
    <path d="M 103.912517 201.358838 
L 111.225581 201.358838 
L 111.225581 164.965426 
L 103.912517 164.965426 
z
" clip-path="url(#p2e4d7a8686)" style="fill: #dd8452; stroke: #ffffff; stroke-linejoin: miter"/>
   </g>
   <g id="patch_31">
    <path d="M 122.195178 201.358838 
L 129.508243 201.358838 
L 129.508243 95.468678 
L 122.195178 95.468678 
z
" clip-path="url(#p2e4d7a8686)" style="fill: #dd8452; stroke: #ffffff; stroke-linejoin: miter"/>
   </g>
   <g id="patch_32">
    <path d="M 140.47784 201.358838 
L 147.790904 201.358838 
L 147.790904 98.529755 
L 140.47784 98.529755 
z
" clip-path="url(#p2e4d7a8686)" style="fill: #dd8452; stroke: #ffffff; stroke-linejoin: miter"/>
   </g>
   <g id="patch_33">
    <path d="M 158.760501 201.358838 
L 166.073566 201.358838 
L 166.073566 173.953749 
L 158.760501 173.953749 
z
" clip-path="url(#p2e4d7a8686)" style="fill: #dd8452; stroke: #ffffff; stroke-linejoin: miter"/>
   </g>
   <g id="patch_34">
    <path d="M 177.043163 201.358838 
L 184.356228 201.358838 
L 184.356228 157.973319 
L 177.043163 157.973319 
z
" clip-path="url(#p2e4d7a8686)" style="fill: #dd8452; stroke: #ffffff; stroke-linejoin: miter"/>
   </g>
   <g id="patch_35">
    <path d="M 195.325825 201.358838 
L 202.638889 201.358838 
L 202.638889 178.431767 
L 195.325825 178.431767 
z
" clip-path="url(#p2e4d7a8686)" style="fill: #dd8452; stroke: #ffffff; stroke-linejoin: miter"/>
   </g>
   <g id="patch_36">
    <path d="M 213.608486 201.358838 
L 220.921551 201.358838 
L 220.921551 187.956977 
L 213.608486 187.956977 
z
" clip-path="url(#p2e4d7a8686)" style="fill: #dd8452; stroke: #ffffff; stroke-linejoin: miter"/>
   </g>
   <g id="patch_37">
    <path d="M 231.891148 201.358838 
L 239.204212 201.358838 
L 239.204212 169.274629 
L 231.891148 169.274629 
z
" clip-path="url(#p2e4d7a8686)" style="fill: #dd8452; stroke: #ffffff; stroke-linejoin: miter"/>
   </g>
   <g id="patch_38">
    <path d="M 250.173809 201.358838 
L 257.486874 201.358838 
L 257.486874 152.921232 
L 250.173809 152.921232 
z
" clip-path="url(#p2e4d7a8686)" style="fill: #dd8452; stroke: #ffffff; stroke-linejoin: miter"/>
   </g>
   <g id="patch_39">
    <path d="M 268.456471 201.358838 
L 275.769536 201.358838 
L 275.769536 170.276261 
L 268.456471 170.276261 
z
" clip-path="url(#p2e4d7a8686)" style="fill: #dd8452; stroke: #ffffff; stroke-linejoin: miter"/>
   </g>
   <g id="patch_40">
    <path d="M 286.739133 201.358838 
L 294.052197 201.358838 
L 294.052197 172.765185 
L 286.739133 172.765185 
z
" clip-path="url(#p2e4d7a8686)" style="fill: #dd8452; stroke: #ffffff; stroke-linejoin: miter"/>
   </g>
   <g id="patch_41">
    <path d="M 305.021794 201.358838 
L 312.334859 201.358838 
L 312.334859 182.319172 
L 305.021794 182.319172 
z
" clip-path="url(#p2e4d7a8686)" style="fill: #dd8452; stroke: #ffffff; stroke-linejoin: miter"/>
   </g>
   <g id="patch_42">
    <path d="M 323.304456 201.358838 
L 330.61752 201.358838 
L 330.61752 190.606212 
L 323.304456 190.606212 
z
" clip-path="url(#p2e4d7a8686)" style="fill: #dd8452; stroke: #ffffff; stroke-linejoin: miter"/>
   </g>
   <g id="patch_43">
    <path d="M 341.587117 201.358838 
L 348.900182 201.358838 
L 348.900182 186.550755 
L 341.587117 186.550755 
z
" clip-path="url(#p2e4d7a8686)" style="fill: #dd8452; stroke: #ffffff; stroke-linejoin: miter"/>
   </g>
   <g id="patch_44">
    <path d="M 359.869779 201.358838 
L 367.182844 201.358838 
L 367.182844 174.79621 
L 359.869779 174.79621 
z
" clip-path="url(#p2e4d7a8686)" style="fill: #dd8452; stroke: #ffffff; stroke-linejoin: miter"/>
   </g>
   <g id="patch_45">
    <path d="M 378.152441 201.358838 
L 385.465505 201.358838 
L 385.465505 172.213456 
L 378.152441 172.213456 
z
" clip-path="url(#p2e4d7a8686)" style="fill: #dd8452; stroke: #ffffff; stroke-linejoin: miter"/>
   </g>
   <g id="patch_46">
    <path d="M 396.435102 201.358838 
L 403.748167 201.358838 
L 403.748167 150.174588 
L 396.435102 150.174588 
z
" clip-path="url(#p2e4d7a8686)" style="fill: #dd8452; stroke: #ffffff; stroke-linejoin: miter"/>
   </g>
   <g id="patch_47">
    <path d="M 414.717764 201.358838 
L 422.030828 201.358838 
L 422.030828 149.254658 
L 414.717764 149.254658 
z
" clip-path="url(#p2e4d7a8686)" style="fill: #dd8452; stroke: #ffffff; stroke-linejoin: miter"/>
   </g>
   <g id="patch_48">
    <path d="M 433.000425 201.358838 
L 440.31349 201.358838 
L 440.31349 74.806026 
L 433.000425 74.806026 
z
" clip-path="url(#p2e4d7a8686)" style="fill: #dd8452; stroke: #ffffff; stroke-linejoin: miter"/>
   </g>
   <g id="patch_49">
    <path d="M 451.283087 201.358838 
L 458.596152 201.358838 
L 458.596152 156.985257 
L 451.283087 156.985257 
z
" clip-path="url(#p2e4d7a8686)" style="fill: #dd8452; stroke: #ffffff; stroke-linejoin: miter"/>
   </g>
   <g id="patch_50">
    <path d="M 469.565749 201.358838 
L 476.878813 201.358838 
L 476.878813 138.098961 
L 469.565749 138.098961 
z
" clip-path="url(#p2e4d7a8686)" style="fill: #dd8452; stroke: #ffffff; stroke-linejoin: miter"/>
   </g>
   <g id="patch_51">
    <path d="M 487.84841 201.358838 
L 495.161475 201.358838 
L 495.161475 169.041041 
L 487.84841 169.041041 
z
" clip-path="url(#p2e4d7a8686)" style="fill: #dd8452; stroke: #ffffff; stroke-linejoin: miter"/>
   </g>
   <g id="patch_52">
    <path d="M 506.131072 201.358838 
L 513.444136 201.358838 
L 513.444136 187.13117 
L 506.131072 187.13117 
z
" clip-path="url(#p2e4d7a8686)" style="fill: #dd8452; stroke: #ffffff; stroke-linejoin: miter"/>
   </g>
   <g id="patch_53">
    <path d="M 524.413733 201.358838 
L 531.726798 201.358838 
L 531.726798 187.43237 
L 524.413733 187.43237 
z
" clip-path="url(#p2e4d7a8686)" style="fill: #dd8452; stroke: #ffffff; stroke-linejoin: miter"/>
   </g>
   <g id="patch_54">
    <path d="M 542.696395 201.358838 
L 550.00946 201.358838 
L 550.00946 170.654388 
L 542.696395 170.654388 
z
" clip-path="url(#p2e4d7a8686)" style="fill: #dd8452; stroke: #ffffff; stroke-linejoin: miter"/>
   </g>
   <g id="LineCollection_1">
    <path d="M 81.973323 194.1708 
L 81.973323 194.1107 
" clip-path="url(#p2e4d7a8686)" style="fill: none; stroke: #262626; stroke-width: 1.5"/>
    <path d="M 100.255984 194.316972 
L 100.255984 194.262441 
" clip-path="url(#p2e4d7a8686)" style="fill: none; stroke: #262626; stroke-width: 1.5"/>
    <path d="M 118.538646 193.872706 
L 118.538646 193.44875 
" clip-path="url(#p2e4d7a8686)" style="fill: none; stroke: #262626; stroke-width: 1.5"/>
    <path d="M 136.821308 193.724911 
L 136.821308 193.694359 
" clip-path="url(#p2e4d7a8686)" style="fill: none; stroke: #262626; stroke-width: 1.5"/>
    <path d="M 155.103969 193.921654 
L 155.103969 193.855266 
" clip-path="url(#p2e4d7a8686)" style="fill: none; stroke: #262626; stroke-width: 1.5"/>
    <path d="M 173.386631 191.710682 
L 173.386631 191.652938 
" clip-path="url(#p2e4d7a8686)" style="fill: none; stroke: #262626; stroke-width: 1.5"/>
    <path d="M 191.669292 190.429834 
L 191.669292 190.362831 
" clip-path="url(#p2e4d7a8686)" style="fill: none; stroke: #262626; stroke-width: 1.5"/>
    <path d="M 209.951954 198.901868 
L 209.951954 198.740724 
" clip-path="url(#p2e4d7a8686)" style="fill: none; stroke: #262626; stroke-width: 1.5"/>
    <path d="M 228.234615 194.798593 
L 228.234615 194.778159 
" clip-path="url(#p2e4d7a8686)" style="fill: none; stroke: #262626; stroke-width: 1.5"/>
    <path d="M 246.517277 192.374472 
L 246.517277 191.901176 
" clip-path="url(#p2e4d7a8686)" style="fill: none; stroke: #262626; stroke-width: 1.5"/>
    <path d="M 264.799939 195.849898 
L 264.799939 195.82707 
" clip-path="url(#p2e4d7a8686)" style="fill: none; stroke: #262626; stroke-width: 1.5"/>
    <path d="M 283.0826 194.468031 
L 283.0826 194.410212 
" clip-path="url(#p2e4d7a8686)" style="fill: none; stroke: #262626; stroke-width: 1.5"/>
    <path d="M 301.365262 195.738518 
L 301.365262 195.688251 
" clip-path="url(#p2e4d7a8686)" style="fill: none; stroke: #262626; stroke-width: 1.5"/>
    <path d="M 319.647923 198.671249 
L 319.647923 198.655272 
" clip-path="url(#p2e4d7a8686)" style="fill: none; stroke: #262626; stroke-width: 1.5"/>
    <path d="M 337.930585 198.181494 
L 337.930585 198.11193 
" clip-path="url(#p2e4d7a8686)" style="fill: none; stroke: #262626; stroke-width: 1.5"/>
    <path d="M 356.213247 194.494973 
L 356.213247 194.479601 
" clip-path="url(#p2e4d7a8686)" style="fill: none; stroke: #262626; stroke-width: 1.5"/>
    <path d="M 374.495908 192.830384 
L 374.495908 192.787181 
" clip-path="url(#p2e4d7a8686)" style="fill: none; stroke: #262626; stroke-width: 1.5"/>
    <path d="M 392.77857 191.305674 
L 392.77857 191.208111 
" clip-path="url(#p2e4d7a8686)" style="fill: none; stroke: #262626; stroke-width: 1.5"/>
    <path d="M 411.061231 193.354715 
L 411.061231 193.312678 
" clip-path="url(#p2e4d7a8686)" style="fill: none; stroke: #262626; stroke-width: 1.5"/>
    <path d="M 429.343893 170.937275 
L 429.343893 170.706488 
" clip-path="url(#p2e4d7a8686)" style="fill: none; stroke: #262626; stroke-width: 1.5"/>
    <path d="M 447.626555 194.973202 
L 447.626555 194.718031 
" clip-path="url(#p2e4d7a8686)" style="fill: none; stroke: #262626; stroke-width: 1.5"/>
    <path d="M 465.909216 196.483919 
L 465.909216 196.422838 
" clip-path="url(#p2e4d7a8686)" style="fill: none; stroke: #262626; stroke-width: 1.5"/>
    <path d="M 484.191878 194.554048 
L 484.191878 194.516352 
" clip-path="url(#p2e4d7a8686)" style="fill: none; stroke: #262626; stroke-width: 1.5"/>
    <path d="M 502.474539 197.844505 
L 502.474539 197.82213 
" clip-path="url(#p2e4d7a8686)" style="fill: none; stroke: #262626; stroke-width: 1.5"/>
    <path d="M 520.757201 198.983605 
L 520.757201 198.839517 
" clip-path="url(#p2e4d7a8686)" style="fill: none; stroke: #262626; stroke-width: 1.5"/>
    <path d="M 539.039863 195.297156 
L 539.039863 195.239922 
" clip-path="url(#p2e4d7a8686)" style="fill: none; stroke: #262626; stroke-width: 1.5"/>
   </g>
   <g id="LineCollection_2">
    <path d="M 89.286387 174.248378 
L 89.286387 160.192843 
" clip-path="url(#p2e4d7a8686)" style="fill: none; stroke: #262626; stroke-width: 1.5"/>
    <path d="M 107.569049 180.671537 
L 107.569049 149.259314 
" clip-path="url(#p2e4d7a8686)" style="fill: none; stroke: #262626; stroke-width: 1.5"/>
    <path d="M 125.851711 172.009385 
L 125.851711 18.927971 
" clip-path="url(#p2e4d7a8686)" style="fill: none; stroke: #262626; stroke-width: 1.5"/>
    <path d="M 144.134372 180.61385 
L 144.134372 16.445659 
" clip-path="url(#p2e4d7a8686)" style="fill: none; stroke: #262626; stroke-width: 1.5"/>
    <path d="M 162.417034 174.745377 
L 162.417034 173.162122 
" clip-path="url(#p2e4d7a8686)" style="fill: none; stroke: #262626; stroke-width: 1.5"/>
    <path d="M 180.699695 159.133809 
L 180.699695 156.812829 
" clip-path="url(#p2e4d7a8686)" style="fill: none; stroke: #262626; stroke-width: 1.5"/>
    <path d="M 198.982357 179.316493 
L 198.982357 177.54704 
" clip-path="url(#p2e4d7a8686)" style="fill: none; stroke: #262626; stroke-width: 1.5"/>
    <path d="M 217.265019 189.827094 
L 217.265019 186.086861 
" clip-path="url(#p2e4d7a8686)" style="fill: none; stroke: #262626; stroke-width: 1.5"/>
    <path d="M 235.54768 172.011902 
L 235.54768 166.537357 
" clip-path="url(#p2e4d7a8686)" style="fill: none; stroke: #262626; stroke-width: 1.5"/>
    <path d="M 253.830342 154.149488 
L 253.830342 151.692976 
" clip-path="url(#p2e4d7a8686)" style="fill: none; stroke: #262626; stroke-width: 1.5"/>
    <path d="M 272.113003 180.374414 
L 272.113003 160.178107 
" clip-path="url(#p2e4d7a8686)" style="fill: none; stroke: #262626; stroke-width: 1.5"/>
    <path d="M 290.395665 174.196485 
L 290.395665 171.333886 
" clip-path="url(#p2e4d7a8686)" style="fill: none; stroke: #262626; stroke-width: 1.5"/>
    <path d="M 308.678327 182.964611 
L 308.678327 181.673733 
" clip-path="url(#p2e4d7a8686)" style="fill: none; stroke: #262626; stroke-width: 1.5"/>
    <path d="M 326.960988 190.922332 
L 326.960988 190.290093 
" clip-path="url(#p2e4d7a8686)" style="fill: none; stroke: #262626; stroke-width: 1.5"/>
    <path d="M 345.24365 186.742677 
L 345.24365 186.358834 
" clip-path="url(#p2e4d7a8686)" style="fill: none; stroke: #262626; stroke-width: 1.5"/>
    <path d="M 363.526311 176.114817 
L 363.526311 173.477603 
" clip-path="url(#p2e4d7a8686)" style="fill: none; stroke: #262626; stroke-width: 1.5"/>
    <path d="M 381.808973 172.89824 
L 381.808973 171.528672 
" clip-path="url(#p2e4d7a8686)" style="fill: none; stroke: #262626; stroke-width: 1.5"/>
    <path d="M 400.091635 160.463947 
L 400.091635 139.885228 
" clip-path="url(#p2e4d7a8686)" style="fill: none; stroke: #262626; stroke-width: 1.5"/>
    <path d="M 418.374296 165.503802 
L 418.374296 133.005513 
" clip-path="url(#p2e4d7a8686)" style="fill: none; stroke: #262626; stroke-width: 1.5"/>
    <path d="M 436.656958 78.596003 
L 436.656958 71.016049 
" clip-path="url(#p2e4d7a8686)" style="fill: none; stroke: #262626; stroke-width: 1.5"/>
    <path d="M 454.939619 175.231388 
L 454.939619 138.739127 
" clip-path="url(#p2e4d7a8686)" style="fill: none; stroke: #262626; stroke-width: 1.5"/>
    <path d="M 473.222281 171.032269 
L 473.222281 105.165654 
" clip-path="url(#p2e4d7a8686)" style="fill: none; stroke: #262626; stroke-width: 1.5"/>
    <path d="M 491.504942 170.524661 
L 491.504942 167.557421 
" clip-path="url(#p2e4d7a8686)" style="fill: none; stroke: #262626; stroke-width: 1.5"/>
    <path d="M 509.787604 187.487252 
L 509.787604 186.775088 
" clip-path="url(#p2e4d7a8686)" style="fill: none; stroke: #262626; stroke-width: 1.5"/>
    <path d="M 528.070266 187.786071 
L 528.070266 187.07867 
" clip-path="url(#p2e4d7a8686)" style="fill: none; stroke: #262626; stroke-width: 1.5"/>
    <path d="M 546.352927 173.46259 
L 546.352927 167.846186 
" clip-path="url(#p2e4d7a8686)" style="fill: none; stroke: #262626; stroke-width: 1.5"/>
   </g>
   <g id="patch_55">
    <path d="M 73.746125 201.358838 
L 73.746125 7.2 
" style="fill: none; stroke: #cccccc; stroke-width: 1.25; stroke-linejoin: miter; stroke-linecap: square"/>
   </g>
   <g id="patch_56">
    <path d="M 73.746125 201.358838 
L 554.580125 201.358838 
" style="fill: none; stroke: #cccccc; stroke-width: 1.25; stroke-linejoin: miter; stroke-linecap: square"/>
   </g>
   <g id="legend_1">
    <g id="patch_57">
     <path d="M 436.881844 48.90375 
L 546.880125 48.90375 
Q 549.080125 48.90375 549.080125 46.70375 
L 549.080125 14.9 
Q 549.080125 12.7 546.880125 12.7 
L 436.881844 12.7 
Q 434.681844 12.7 434.681844 14.9 
L 434.681844 46.70375 
Q 434.681844 48.90375 436.881844 48.90375 
z
" style="fill: #ffffff; opacity: 0.8; stroke: #cccccc; stroke-linejoin: miter"/>
    </g>
    <g id="patch_58">
     <path d="M 439.081844 25.458281 
L 461.081844 25.458281 
L 461.081844 17.758281 
L 439.081844 17.758281 
z
" style="fill: #4c72b0; stroke: #ffffff; stroke-linejoin: miter"/>
    </g>
    <g id="text_33">
     <!-- finalise_elide -->
     <g style="fill: #262626" transform="translate(469.881844 25.458281) scale(0.11 -0.11)">
      <defs>
       <path id="DejaVuSans-66" d="M 2375 4863 
L 2375 4384 
L 1825 4384 
Q 1516 4384 1395 4259 
Q 1275 4134 1275 3809 
L 1275 3500 
L 2222 3500 
L 2222 3053 
L 1275 3053 
L 1275 0 
L 697 0 
L 697 3053 
L 147 3053 
L 147 3500 
L 697 3500 
L 697 3744 
Q 697 4328 969 4595 
Q 1241 4863 1831 4863 
L 2375 4863 
z
" transform="scale(0.015625)"/>
       <path id="DejaVuSans-5f" d="M 3263 -1063 
L 3263 -1509 
L -63 -1509 
L -63 -1063 
L 3263 -1063 
z
" transform="scale(0.015625)"/>
      </defs>
      <use xlink:href="#DejaVuSans-66"/>
      <use xlink:href="#DejaVuSans-69" x="35.205078"/>
      <use xlink:href="#DejaVuSans-6e" x="62.988281"/>
      <use xlink:href="#DejaVuSans-61" x="126.367188"/>
      <use xlink:href="#DejaVuSans-6c" x="187.646484"/>
      <use xlink:href="#DejaVuSans-69" x="215.429688"/>
      <use xlink:href="#DejaVuSans-73" x="243.212891"/>
      <use xlink:href="#DejaVuSans-65" x="295.3125"/>
      <use xlink:href="#DejaVuSans-5f" x="356.835938"/>
      <use xlink:href="#DejaVuSans-65" x="406.835938"/>
      <use xlink:href="#DejaVuSans-6c" x="468.359375"/>
      <use xlink:href="#DejaVuSans-69" x="496.142578"/>
      <use xlink:href="#DejaVuSans-64" x="523.925781"/>
      <use xlink:href="#DejaVuSans-65" x="587.402344"/>
     </g>
    </g>
    <g id="patch_59">
     <path d="M 439.081844 41.910156 
L 461.081844 41.910156 
L 461.081844 34.210156 
L 439.081844 34.210156 
z
" style="fill: #dd8452; stroke: #ffffff; stroke-linejoin: miter"/>
    </g>
    <g id="text_34">
     <!-- finalise_naive -->
     <g style="fill: #262626" transform="translate(469.881844 41.910156) scale(0.11 -0.11)">
      <use xlink:href="#DejaVuSans-66"/>
      <use xlink:href="#DejaVuSans-69" x="35.205078"/>
      <use xlink:href="#DejaVuSans-6e" x="62.988281"/>
      <use xlink:href="#DejaVuSans-61" x="126.367188"/>
      <use xlink:href="#DejaVuSans-6c" x="187.646484"/>
      <use xlink:href="#DejaVuSans-69" x="215.429688"/>
      <use xlink:href="#DejaVuSans-73" x="243.212891"/>
      <use xlink:href="#DejaVuSans-65" x="295.3125"/>
      <use xlink:href="#DejaVuSans-5f" x="356.835938"/>
      <use xlink:href="#DejaVuSans-6e" x="406.835938"/>
      <use xlink:href="#DejaVuSans-61" x="470.214844"/>
      <use xlink:href="#DejaVuSans-69" x="531.494141"/>
      <use xlink:href="#DejaVuSans-76" x="559.277344"/>
      <use xlink:href="#DejaVuSans-65" x="618.457031"/>
     </g>
    </g>
   </g>
  </g>
 </g>
 <defs>
  <clipPath id="p2e4d7a8686">
   <rect x="73.746125" y="7.2" width="480.834" height="194.158838"/>
  </clipPath>
 </defs>
</svg>
