<?xml version="1.0" encoding="utf-8" standalone="no"?>
<!DOCTYPE svg PUBLIC "-//W3C//DTD SVG 1.1//EN"
  "http://www.w3.org/Graphics/SVG/1.1/DTD/svg11.dtd">
<svg xmlns:xlink="http://www.w3.org/1999/xlink" width="852.174866pt" height="312.48pt" viewBox="0 0 852.174866 312.48" xmlns="http://www.w3.org/2000/svg" version="1.1">
 <metadata>
  <rdf:RDF xmlns:dc="http://purl.org/dc/elements/1.1/" xmlns:cc="http://creativecommons.org/ns#" xmlns:rdf="http://www.w3.org/1999/02/22-rdf-syntax-ns#">
   <cc:Work>
    <dc:type rdf:resource="http://purl.org/dc/dcmitype/StillImage"/>
    <dc:date>2023-10-01T02:48:21.763431</dc:date>
    <dc:format>image/svg+xml</dc:format>
    <dc:creator>
     <cc:Agent>
      <dc:title>Matplotlib v3.7.3, https://matplotlib.org/</dc:title>
     </cc:Agent>
    </dc:creator>
   </cc:Work>
  </rdf:RDF>
 </metadata>
 <defs>
  <style type="text/css">*{stroke-linejoin: round; stroke-linecap: butt}</style>
 </defs>
 <g id="figure_1">
  <g id="patch_1">
   <path d="M 0 312.48 
L 852.174866 312.48 
L 852.174866 0 
L 0 0 
z
" style="fill: #ffffff"/>
  </g>
  <g id="axes_1">
   <g id="patch_2">
    <path d="M 128.891693 257.66354 
L 833.418475 257.66354 
L 833.418475 7.2 
L 128.891693 7.2 
z
" style="fill: #ffffff"/>
   </g>
   <g id="matplotlib.axis_1">
    <g id="xtick_1">
     <g id="line2d_1">
      <path d="M 128.891693 257.66354 
L 128.891693 7.2 
" clip-path="url(#pcfb56be2ea)" style="fill: none; stroke: #cccccc; stroke-width: 0.25; stroke-linecap: round"/>
     </g>
     <g id="line2d_2">
      <defs>
       <path id="m58cd62c668" d="M 0 0 
L 0 6 
" style="stroke: #262626; stroke-width: 1.25"/>
      </defs>
      <g>
       <use xlink:href="#m58cd62c668" x="128.891693" y="257.66354" style="fill: #262626; stroke: #262626; stroke-width: 1.25"/>
      </g>
     </g>
     <g id="text_1">
      <!-- $\mathdefault{0.0}$ -->
      <g style="fill: #262626" transform="translate(121.890155 274.773886) scale(0.11 -0.11)">
       <defs>
        <path id="CMR17-30" d="M 2688 2025 
C 2688 2416 2682 3080 2413 3591 
C 2176 4039 1798 4198 1466 4198 
C 1158 4198 768 4058 525 3597 
C 269 3118 243 2524 243 2025 
C 243 1661 250 1106 448 619 
C 723 -39 1216 -128 1466 -128 
C 1760 -128 2208 -7 2470 600 
C 2662 1042 2688 1559 2688 2025 
z
M 1466 -26 
C 1056 -26 813 325 723 812 
C 653 1188 653 1738 653 2096 
C 653 2588 653 2997 736 3387 
C 858 3929 1216 4096 1466 4096 
C 1728 4096 2067 3923 2189 3400 
C 2272 3036 2278 2607 2278 2096 
C 2278 1680 2278 1169 2202 792 
C 2067 95 1690 -26 1466 -26 
z
" transform="scale(0.015625)"/>
        <path id="CMMI12-3a" d="M 1178 307 
C 1178 492 1024 619 870 619 
C 685 619 557 466 557 313 
C 557 128 710 0 864 0 
C 1050 0 1178 153 1178 307 
z
" transform="scale(0.015625)"/>
       </defs>
       <use xlink:href="#CMR17-30" transform="scale(0.996264)"/>
       <use xlink:href="#CMMI12-3a" transform="translate(45.690477 0) scale(0.996264)"/>
       <use xlink:href="#CMR17-30" transform="translate(72.787654 0) scale(0.996264)"/>
      </g>
     </g>
    </g>
    <g id="xtick_2">
     <g id="line2d_3">
      <path d="M 248.521409 257.66354 
L 248.521409 7.2 
" clip-path="url(#pcfb56be2ea)" style="fill: none; stroke: #cccccc; stroke-width: 0.25; stroke-linecap: round"/>
     </g>
     <g id="line2d_4">
      <g>
       <use xlink:href="#m58cd62c668" x="248.521409" y="257.66354" style="fill: #262626; stroke: #262626; stroke-width: 1.25"/>
      </g>
     </g>
     <g id="text_2">
      <!-- $\mathdefault{0.2}$ -->
      <g style="fill: #262626" transform="translate(241.519871 274.773886) scale(0.11 -0.11)">
       <defs>
        <path id="CMR17-32" d="M 2669 989 
L 2554 989 
C 2490 536 2438 459 2413 420 
C 2381 369 1920 369 1830 369 
L 602 369 
C 832 619 1280 1072 1824 1597 
C 2214 1967 2669 2402 2669 3035 
C 2669 3790 2067 4224 1395 4224 
C 691 4224 262 3604 262 3030 
C 262 2780 448 2748 525 2748 
C 589 2748 781 2787 781 3010 
C 781 3207 614 3264 525 3264 
C 486 3264 448 3258 422 3245 
C 544 3790 915 4058 1306 4058 
C 1862 4058 2227 3617 2227 3035 
C 2227 2479 1901 2000 1536 1584 
L 262 146 
L 262 0 
L 2515 0 
L 2669 989 
z
" transform="scale(0.015625)"/>
       </defs>
       <use xlink:href="#CMR17-30" transform="scale(0.996264)"/>
       <use xlink:href="#CMMI12-3a" transform="translate(45.690477 0) scale(0.996264)"/>
       <use xlink:href="#CMR17-32" transform="translate(72.787654 0) scale(0.996264)"/>
      </g>
     </g>
    </g>
    <g id="xtick_3">
     <g id="line2d_5">
      <path d="M 368.151126 257.66354 
L 368.151126 7.2 
" clip-path="url(#pcfb56be2ea)" style="fill: none; stroke: #cccccc; stroke-width: 0.25; stroke-linecap: round"/>
     </g>
     <g id="line2d_6">
      <g>
       <use xlink:href="#m58cd62c668" x="368.151126" y="257.66354" style="fill: #262626; stroke: #262626; stroke-width: 1.25"/>
      </g>
     </g>
     <g id="text_3">
      <!-- $\mathdefault{0.4}$ -->
      <g style="fill: #262626" transform="translate(361.149588 274.773886) scale(0.11 -0.11)">
       <defs>
        <path id="CMR17-34" d="M 2150 4122 
C 2150 4256 2144 4256 2029 4256 
L 128 1254 
L 128 1088 
L 1779 1088 
L 1779 457 
C 1779 224 1766 160 1318 160 
L 1197 160 
L 1197 0 
C 1402 0 1747 0 1965 0 
C 2182 0 2528 0 2733 0 
L 2733 160 
L 2611 160 
C 2163 160 2150 224 2150 457 
L 2150 1088 
L 2803 1088 
L 2803 1254 
L 2150 1254 
L 2150 4122 
z
M 1798 3703 
L 1798 1254 
L 256 1254 
L 1798 3703 
z
" transform="scale(0.015625)"/>
       </defs>
       <use xlink:href="#CMR17-30" transform="scale(0.996264)"/>
       <use xlink:href="#CMMI12-3a" transform="translate(45.690477 0) scale(0.996264)"/>
       <use xlink:href="#CMR17-34" transform="translate(72.787654 0) scale(0.996264)"/>
      </g>
     </g>
    </g>
    <g id="xtick_4">
     <g id="line2d_7">
      <path d="M 487.780842 257.66354 
L 487.780842 7.2 
" clip-path="url(#pcfb56be2ea)" style="fill: none; stroke: #cccccc; stroke-width: 0.25; stroke-linecap: round"/>
     </g>
     <g id="line2d_8">
      <g>
       <use xlink:href="#m58cd62c668" x="487.780842" y="257.66354" style="fill: #262626; stroke: #262626; stroke-width: 1.25"/>
      </g>
     </g>
     <g id="text_4">
      <!-- $\mathdefault{0.6}$ -->
      <g style="fill: #262626" transform="translate(480.779304 274.773886) scale(0.11 -0.11)">
       <defs>
        <path id="CMR17-36" d="M 678 2176 
C 678 3690 1395 4032 1811 4032 
C 1946 4032 2272 4009 2400 3776 
C 2298 3776 2106 3776 2106 3553 
C 2106 3381 2246 3323 2336 3323 
C 2394 3323 2566 3348 2566 3560 
C 2566 3954 2246 4179 1805 4179 
C 1043 4179 243 3390 243 1984 
C 243 253 966 -128 1478 -128 
C 2099 -128 2688 427 2688 1283 
C 2688 2081 2170 2662 1517 2662 
C 1126 2662 838 2407 678 1960 
L 678 2176 
z
M 1478 25 
C 691 25 691 1200 691 1436 
C 691 1896 909 2560 1504 2560 
C 1613 2560 1926 2560 2138 2120 
C 2253 1870 2253 1609 2253 1289 
C 2253 944 2253 690 2118 434 
C 1978 171 1773 25 1478 25 
z
" transform="scale(0.015625)"/>
       </defs>
       <use xlink:href="#CMR17-30" transform="scale(0.996264)"/>
       <use xlink:href="#CMMI12-3a" transform="translate(45.690477 0) scale(0.996264)"/>
       <use xlink:href="#CMR17-36" transform="translate(72.787654 0) scale(0.996264)"/>
      </g>
     </g>
    </g>
    <g id="xtick_5">
     <g id="line2d_9">
      <path d="M 607.410558 257.66354 
L 607.410558 7.2 
" clip-path="url(#pcfb56be2ea)" style="fill: none; stroke: #cccccc; stroke-width: 0.25; stroke-linecap: round"/>
     </g>
     <g id="line2d_10">
      <g>
       <use xlink:href="#m58cd62c668" x="607.410558" y="257.66354" style="fill: #262626; stroke: #262626; stroke-width: 1.25"/>
      </g>
     </g>
     <g id="text_5">
      <!-- $\mathdefault{0.8}$ -->
      <g style="fill: #262626" transform="translate(600.40902 274.773886) scale(0.11 -0.11)">
       <defs>
        <path id="CMR17-38" d="M 1741 2264 
C 2144 2467 2554 2773 2554 3263 
C 2554 3841 1990 4179 1472 4179 
C 890 4179 378 3759 378 3180 
C 378 3021 416 2747 666 2505 
C 730 2442 998 2251 1171 2130 
C 883 1983 211 1634 211 934 
C 211 279 838 -128 1459 -128 
C 2144 -128 2720 362 2720 1010 
C 2720 1590 2330 1857 2074 2029 
L 1741 2264 
z
M 902 2822 
C 851 2854 595 3051 595 3351 
C 595 3739 998 4032 1459 4032 
C 1965 4032 2336 3676 2336 3262 
C 2336 2669 1670 2331 1638 2331 
C 1632 2331 1626 2331 1574 2370 
L 902 2822 
z
M 2080 1519 
C 2176 1449 2483 1240 2483 851 
C 2483 381 2010 25 1472 25 
C 890 25 448 438 448 940 
C 448 1443 838 1862 1280 2060 
L 2080 1519 
z
" transform="scale(0.015625)"/>
       </defs>
       <use xlink:href="#CMR17-30" transform="scale(0.996264)"/>
       <use xlink:href="#CMMI12-3a" transform="translate(45.690477 0) scale(0.996264)"/>
       <use xlink:href="#CMR17-38" transform="translate(72.787654 0) scale(0.996264)"/>
      </g>
     </g>
    </g>
    <g id="xtick_6">
     <g id="line2d_11">
      <path d="M 727.040274 257.66354 
L 727.040274 7.2 
" clip-path="url(#pcfb56be2ea)" style="fill: none; stroke: #cccccc; stroke-width: 0.25; stroke-linecap: round"/>
     </g>
     <g id="line2d_12">
      <g>
       <use xlink:href="#m58cd62c668" x="727.040274" y="257.66354" style="fill: #262626; stroke: #262626; stroke-width: 1.25"/>
      </g>
     </g>
     <g id="text_6">
      <!-- $\mathdefault{1.0}$ -->
      <g style="fill: #262626" transform="translate(720.038736 274.773886) scale(0.11 -0.11)">
       <defs>
        <path id="CMR17-31" d="M 1702 4058 
C 1702 4192 1696 4192 1606 4192 
C 1357 3916 979 3827 621 3827 
C 602 3827 570 3827 563 3808 
C 557 3795 557 3782 557 3648 
C 755 3648 1088 3686 1344 3839 
L 1344 461 
C 1344 236 1331 160 781 160 
L 589 160 
L 589 0 
C 896 0 1216 0 1523 0 
C 1830 0 2150 0 2458 0 
L 2458 160 
L 2266 160 
C 1715 160 1702 230 1702 458 
L 1702 4058 
z
" transform="scale(0.015625)"/>
       </defs>
       <use xlink:href="#CMR17-31" transform="scale(0.996264)"/>
       <use xlink:href="#CMMI12-3a" transform="translate(45.690477 0) scale(0.996264)"/>
       <use xlink:href="#CMR17-30" transform="translate(72.787654 0) scale(0.996264)"/>
      </g>
     </g>
    </g>
    <g id="text_7">
     <!-- Wall-clock speedup normalized to Handles -->
     <g style="fill: #262626" transform="translate(378.132263 289.206961) scale(0.12 -0.12)">
      <defs>
       <path id="CMSS17-57" d="M 5581 4416 
L 5094 4416 
L 4557 2437 
C 4474 2118 4397 1801 4320 1482 
C 4205 1011 4122 681 4109 515 
L 4102 515 
C 4090 687 4006 1049 3904 1457 
C 3827 1795 3744 2131 3654 2462 
L 3123 4416 
L 2586 4416 
L 2080 2562 
L 1824 1549 
C 1632 747 1626 632 1613 505 
L 1606 505 
C 1606 543 1581 753 1402 1498 
C 1312 1868 1222 2244 1126 2601 
L 634 4416 
L 83 4416 
L 1299 0 
L 1830 0 
L 2336 1839 
L 2592 2851 
C 2765 3564 2803 3742 2816 3901 
L 2822 3901 
C 2822 3876 2880 3474 3130 2545 
L 3808 0 
L 4365 0 
L 5581 4416 
z
" transform="scale(0.015625)"/>
       <path id="CMSS17-61" d="M 2406 1791 
C 2406 2392 1978 2808 1402 2808 
C 1120 2808 813 2757 461 2553 
L 499 2135 
C 659 2248 934 2432 1395 2432 
C 1722 2432 1920 2180 1920 1782 
L 1920 1536 
C 896 1536 256 1238 256 726 
C 256 461 416 -64 947 -64 
C 1043 -64 1562 -64 1933 217 
L 1933 -19 
L 2406 -19 
L 2406 1791 
z
M 1920 816 
C 1920 701 1920 548 1728 434 
C 1562 325 1350 325 1261 325 
C 941 325 723 511 723 744 
C 723 1211 1722 1211 1920 1211 
L 1920 816 
z
" transform="scale(0.015625)"/>
       <path id="CMSS17-6c" d="M 947 4416 
L 474 4416 
L 474 0 
L 947 0 
L 947 4416 
z
" transform="scale(0.015625)"/>
       <path id="CMSS17-2d" d="M 1664 1216 
L 1664 1585 
L 64 1585 
L 64 1216 
L 1664 1216 
z
" transform="scale(0.015625)"/>
       <path id="CMSS17-63" d="M 2464 2541 
C 2464 2585 2170 2714 2093 2739 
C 1882 2816 1613 2816 1542 2816 
C 710 2816 211 2093 211 1363 
C 211 595 768 -64 1517 -64 
C 1946 -64 2253 76 2502 242 
L 2464 664 
C 2189 453 1869 337 1523 337 
C 1024 337 698 774 698 1369 
C 698 1831 909 2414 1549 2414 
C 1901 2414 2099 2343 2394 2145 
L 2464 2541 
z
" transform="scale(0.015625)"/>
       <path id="CMSS17-6f" d="M 2829 1356 
C 2829 2176 2221 2816 1504 2816 
C 768 2816 173 2157 173 1356 
C 173 544 787 -64 1498 -64 
C 2227 -64 2829 563 2829 1356 
z
M 1504 337 
C 1050 337 659 709 659 1408 
C 659 2151 1114 2427 1498 2427 
C 1914 2427 2342 2126 2342 1408 
C 2342 683 1926 337 1504 337 
z
" transform="scale(0.015625)"/>
       <path id="CMSS17-6b" d="M 1696 1688 
L 2688 2739 
L 2074 2739 
L 954 1554 
L 954 4416 
L 480 4416 
L 480 0 
L 947 0 
L 947 892 
L 1376 1344 
L 2278 0 
L 2822 0 
L 1696 1688 
z
" transform="scale(0.015625)"/>
       <path id="CMSS17-73" d="M 2061 2627 
C 1683 2807 1389 2807 1197 2807 
C 742 2807 198 2648 198 2003 
C 198 1359 902 1218 1094 1179 
C 1389 1122 1715 1058 1715 740 
C 1715 337 1254 337 1171 337 
C 915 337 563 407 243 638 
L 166 210 
C 531 0 883 -64 1178 -64 
C 1965 -64 2163 416 2163 781 
C 2163 1094 1984 1305 1862 1401 
C 1651 1568 1574 1587 1050 1696 
C 960 1709 646 1779 646 2066 
C 646 2432 1050 2432 1139 2432 
C 1555 2432 1811 2303 1984 2208 
L 2061 2627 
z
" transform="scale(0.015625)"/>
       <path id="CMSS17-70" d="M 966 333 
C 1178 129 1466 -5 1773 -5 
C 2368 -5 2880 603 2880 1412 
C 2880 2159 2496 2816 1946 2816 
C 1626 2816 1242 2702 954 2472 
L 954 2765 
L 480 2765 
L 480 -1216 
L 966 -1216 
L 966 333 
z
M 966 2100 
C 1018 2176 1235 2415 1587 2415 
C 2035 2415 2394 1960 2394 1412 
C 2394 787 1958 384 1530 384 
C 1402 384 1267 415 1139 523 
C 966 674 966 768 966 857 
L 966 2100 
z
" transform="scale(0.015625)"/>
       <path id="CMSS17-65" d="M 2502 1377 
C 2502 1590 2490 2003 2285 2345 
C 2061 2713 1696 2816 1421 2816 
C 755 2816 192 2188 192 1375 
C 192 582 774 -64 1510 -64 
C 1798 -64 2150 19 2470 248 
C 2470 274 2458 414 2451 420 
C 2451 433 2432 630 2432 656 
C 2125 407 1773 325 1517 325 
C 1107 325 666 667 646 1377 
L 2502 1377 
z
M 698 1728 
C 781 2084 1062 2421 1421 2421 
C 1517 2421 1965 2421 2080 1728 
L 698 1728 
z
" transform="scale(0.015625)"/>
       <path id="CMSS17-64" d="M 2611 4416 
L 2138 4416 
L 2138 2438 
C 1939 2603 1613 2756 1254 2756 
C 672 2756 211 2131 211 1347 
C 211 562 666 -64 1235 -64 
C 1677 -64 1971 172 2125 306 
L 2125 -13 
L 2611 -13 
L 2611 4416 
z
M 2125 836 
C 2125 747 2125 653 1926 482 
C 1798 375 1645 325 1498 325 
C 1152 325 698 576 698 1340 
C 698 2134 1210 2368 1562 2368 
C 1798 2368 1990 2254 2125 2065 
L 2125 836 
z
" transform="scale(0.015625)"/>
       <path id="CMSS17-75" d="M 2618 2739 
L 2131 2739 
L 2131 972 
C 2131 498 1786 306 1421 306 
C 998 306 960 447 960 709 
L 960 2739 
L 474 2739 
L 474 678 
C 474 179 646 -64 1088 -64 
C 1306 -64 1798 -13 2144 306 
L 2144 0 
L 2618 0 
L 2618 2739 
z
" transform="scale(0.015625)"/>
       <path id="CMSS17-6e" d="M 2618 1877 
C 2618 2283 2522 2816 1798 2816 
C 1389 2816 1120 2606 941 2389 
L 941 2758 
L 474 2758 
L 474 0 
L 960 0 
L 960 1559 
C 960 1964 1114 2428 1549 2428 
C 2112 2428 2131 2048 2131 1829 
L 2131 0 
L 2618 0 
L 2618 1877 
z
" transform="scale(0.015625)"/>
       <path id="CMSS17-72" d="M 954 1363 
C 954 1965 1395 2368 1958 2368 
L 1958 2789 
C 1549 2789 1165 2585 934 2253 
L 934 2758 
L 480 2758 
L 480 0 
L 954 0 
L 954 1363 
z
" transform="scale(0.015625)"/>
       <path id="CMSS17-6d" d="M 4288 1877 
C 4288 2308 4179 2816 3462 2816 
C 2982 2816 2694 2516 2566 2331 
C 2451 2670 2182 2816 1798 2816 
C 1363 2816 1088 2568 941 2389 
L 941 2758 
L 474 2758 
L 474 0 
L 960 0 
L 960 1559 
C 960 1939 1101 2428 1555 2428 
C 2138 2428 2138 2016 2138 1829 
L 2138 0 
L 2624 0 
L 2624 1559 
C 2624 1939 2765 2428 3219 2428 
C 3802 2428 3802 2016 3802 1829 
L 3802 0 
L 4288 0 
L 4288 1877 
z
" transform="scale(0.015625)"/>
       <path id="CMSS17-69" d="M 979 4183 
L 442 4183 
L 442 3648 
L 979 3648 
L 979 4183 
z
M 947 2739 
L 474 2739 
L 474 0 
L 947 0 
L 947 2739 
z
" transform="scale(0.015625)"/>
       <path id="CMSS17-7a" d="M 2400 2502 
L 2400 2750 
L 250 2750 
L 250 2368 
L 1069 2368 
C 1146 2368 1222 2368 1299 2368 
L 1747 2368 
L 166 261 
L 166 0 
L 2419 0 
L 2419 395 
L 1549 395 
C 1472 395 1395 395 1318 395 
L 826 395 
L 2400 2502 
z
" transform="scale(0.015625)"/>
       <path id="CMSS17-74" d="M 1069 2368 
L 1901 2368 
L 1901 2737 
L 1069 2737 
L 1069 3520 
L 614 3520 
L 614 2737 
L 109 2737 
L 109 2368 
L 602 2368 
L 602 749 
C 602 384 685 -64 1107 -64 
C 1427 -64 1722 25 2003 172 
L 1901 548 
C 1747 414 1562 337 1363 337 
C 1082 337 1069 696 1069 856 
L 1069 2368 
z
" transform="scale(0.015625)"/>
       <path id="CMSS17-48" d="M 3674 4416 
L 3136 4416 
L 3136 2501 
L 1101 2501 
L 1101 4416 
L 563 4416 
L 563 0 
L 1101 0 
L 1101 2112 
L 3136 2112 
L 3136 0 
L 3674 0 
L 3674 4416 
z
" transform="scale(0.015625)"/>
      </defs>
      <use xlink:href="#CMSS17-57" transform="scale(0.996264)"/>
      <use xlink:href="#CMSS17-61" transform="translate(85.639712 0) scale(0.996264)"/>
      <use xlink:href="#CMSS17-6c" transform="translate(130.561633 0) scale(0.996264)"/>
      <use xlink:href="#CMSS17-6c" transform="translate(152.742356 0) scale(0.996264)"/>
      <use xlink:href="#CMSS17-2d" transform="translate(174.923079 0) scale(0.996264)"/>
      <use xlink:href="#CMSS17-63" transform="translate(206.152192 0) scale(0.996264)"/>
      <use xlink:href="#CMSS17-6c" transform="translate(247.791014 0) scale(0.996264)"/>
      <use xlink:href="#CMSS17-6f" transform="translate(269.971737 0) scale(0.996264)"/>
      <use xlink:href="#CMSS17-63" transform="translate(319.417799 0) scale(0.996264)"/>
      <use xlink:href="#CMSS17-6b" transform="translate(361.056621 0) scale(0.996264)"/>
      <use xlink:href="#CMSS17-73" transform="translate(437.888223 0) scale(0.996264)"/>
      <use xlink:href="#CMSS17-70" transform="translate(473.801765 0) scale(0.996264)"/>
      <use xlink:href="#CMSS17-65" transform="translate(524.609147 0) scale(0.996264)"/>
      <use xlink:href="#CMSS17-65" transform="translate(566.247969 0) scale(0.996264)"/>
      <use xlink:href="#CMSS17-64" transform="translate(607.886791 0) scale(0.996264)"/>
      <use xlink:href="#CMSS17-75" transform="translate(656.091734 0) scale(0.996264)"/>
      <use xlink:href="#CMSS17-70" transform="translate(704.296677 0) scale(0.996264)"/>
      <use xlink:href="#CMSS17-6e" transform="translate(783.730733 0) scale(0.996264)"/>
      <use xlink:href="#CMSS17-6f" transform="translate(831.935676 0) scale(0.996264)"/>
      <use xlink:href="#CMSS17-72" transform="translate(876.176846 0) scale(0.996264)"/>
      <use xlink:href="#CMSS17-6d" transform="translate(908.086619 0) scale(0.996264)"/>
      <use xlink:href="#CMSS17-61" transform="translate(982.315873 0) scale(0.996264)"/>
      <use xlink:href="#CMSS17-6c" transform="translate(1027.237794 0) scale(0.996264)"/>
      <use xlink:href="#CMSS17-69" transform="translate(1049.418517 0) scale(0.996264)"/>
      <use xlink:href="#CMSS17-7a" transform="translate(1071.59924 0) scale(0.996264)"/>
      <use xlink:href="#CMSS17-65" transform="translate(1112.277111 0) scale(0.996264)"/>
      <use xlink:href="#CMSS17-64" transform="translate(1153.915934 0) scale(0.996264)"/>
      <use xlink:href="#CMSS17-74" transform="translate(1233.349989 0) scale(0.996264)"/>
      <use xlink:href="#CMSS17-6f" transform="translate(1267.181556 0) scale(0.996264)"/>
      <use xlink:href="#CMSS17-48" transform="translate(1345.254292 0) scale(0.996264)"/>
      <use xlink:href="#CMSS17-61" transform="translate(1411.315812 0) scale(0.996264)"/>
      <use xlink:href="#CMSS17-6e" transform="translate(1456.237732 0) scale(0.996264)"/>
      <use xlink:href="#CMSS17-64" transform="translate(1504.442675 0) scale(0.996264)"/>
      <use xlink:href="#CMSS17-6c" transform="translate(1552.647618 0) scale(0.996264)"/>
      <use xlink:href="#CMSS17-65" transform="translate(1574.828341 0) scale(0.996264)"/>
      <use xlink:href="#CMSS17-73" transform="translate(1616.467164 0) scale(0.996264)"/>
     </g>
     <!-- (higher is better) -->
     <g style="fill: #262626" transform="translate(439.597523 302.291208) scale(0.12 -0.12)">
      <defs>
       <path id="CMSS17-28" d="M 1613 4768 
C 1267 4417 474 3601 474 1588 
C 474 -433 1267 -1243 1613 -1600 
L 2003 -1600 
C 1216 -784 960 357 960 1581 
C 960 2798 1203 3946 2003 4768 
L 1613 4768 
z
" transform="scale(0.015625)"/>
       <path id="CMSS17-68" d="M 2618 1891 
C 2618 2292 2522 2820 1798 2820 
C 1395 2820 1133 2623 947 2407 
L 947 4448 
L 474 4448 
L 474 32 
L 960 32 
L 960 1573 
C 960 1973 1114 2432 1549 2432 
C 2112 2432 2131 2056 2131 1839 
L 2131 32 
L 2618 32 
L 2618 1891 
z
" transform="scale(0.015625)"/>
       <path id="CMSS17-67" d="M 2848 2808 
C 2483 2808 2170 2738 1914 2617 
C 1702 2777 1485 2808 1338 2808 
C 781 2808 358 2349 358 1814 
C 358 1468 550 1207 563 1195 
C 448 1035 384 863 384 672 
C 384 448 474 289 544 200 
C 211 -3 166 -314 166 -435 
C 166 -898 749 -1280 1498 -1280 
C 2253 -1280 2835 -898 2835 -428 
C 2835 448 1856 448 1587 448 
L 1069 448 
C 973 448 717 448 717 791 
C 717 921 774 1004 781 1010 
C 877 940 1075 832 1338 832 
C 1869 832 2310 1278 2310 1827 
C 2310 2132 2170 2355 2112 2432 
L 2131 2432 
C 2150 2432 2419 2432 2515 2432 
C 2720 2432 2739 2429 2918 2419 
L 2848 2808 
z
M 1338 1182 
C 1120 1182 813 1315 813 1823 
C 813 2375 1165 2464 1331 2464 
C 1549 2464 1856 2331 1856 1823 
C 1856 1271 1504 1182 1338 1182 
z
M 1581 -10 
C 1734 -10 2381 -10 2381 -442 
C 2381 -714 1984 -929 1504 -929 
C 1018 -929 621 -720 621 -435 
C 621 -403 621 -10 1062 -10 
L 1581 -10 
z
" transform="scale(0.015625)"/>
       <path id="CMSS17-62" d="M 954 4416 
L 480 4416 
L 480 -13 
L 966 -13 
L 966 274 
C 1210 38 1504 -64 1766 -64 
C 2381 -64 2880 549 2880 1352 
C 2880 2086 2496 2756 1926 2756 
C 1523 2756 1165 2591 954 2419 
L 954 4416 
z
M 966 2046 
C 1107 2222 1306 2368 1587 2368 
C 1965 2368 2394 2097 2394 1352 
C 2394 558 1882 325 1530 325 
C 1402 325 1267 356 1139 464 
C 966 615 966 709 966 797 
L 966 2046 
z
" transform="scale(0.015625)"/>
       <path id="CMSS17-29" d="M 723 -1600 
C 1069 -1249 1862 -433 1862 1581 
C 1862 3601 1069 4411 723 4768 
L 333 4768 
C 1120 3952 1376 2811 1376 1588 
C 1376 370 1133 -778 333 -1600 
L 723 -1600 
z
" transform="scale(0.015625)"/>
      </defs>
      <use xlink:href="#CMSS17-28" transform="scale(0.996264)"/>
      <use xlink:href="#CMSS17-68" transform="translate(36.433914 0) scale(0.996264)"/>
      <use xlink:href="#CMSS17-69" transform="translate(84.638857 0) scale(0.996264)"/>
      <use xlink:href="#CMSS17-67" transform="translate(106.81958 0) scale(0.996264)"/>
      <use xlink:href="#CMSS17-68" transform="translate(153.663204 0) scale(0.996264)"/>
      <use xlink:href="#CMSS17-65" transform="translate(201.868147 0) scale(0.996264)"/>
      <use xlink:href="#CMSS17-72" transform="translate(243.506969 0) scale(0.996264)"/>
      <use xlink:href="#CMSS17-69" transform="translate(306.645854 0) scale(0.996264)"/>
      <use xlink:href="#CMSS17-73" transform="translate(328.826577 0) scale(0.996264)"/>
      <use xlink:href="#CMSS17-62" transform="translate(395.969232 0) scale(0.996264)"/>
      <use xlink:href="#CMSS17-65" transform="translate(446.776614 0) scale(0.996264)"/>
      <use xlink:href="#CMSS17-74" transform="translate(488.415436 0) scale(0.996264)"/>
      <use xlink:href="#CMSS17-74" transform="translate(522.247003 0) scale(0.996264)"/>
      <use xlink:href="#CMSS17-65" transform="translate(556.07857 0) scale(0.996264)"/>
      <use xlink:href="#CMSS17-72" transform="translate(597.717392 0) scale(0.996264)"/>
      <use xlink:href="#CMSS17-29" transform="translate(629.627164 0) scale(0.996264)"/>
     </g>
    </g>
   </g>
   <g id="matplotlib.axis_2">
    <g id="ytick_1">
     <g id="line2d_13">
      <path d="M 128.891693 240.514425 
L 833.418475 240.514425 
" clip-path="url(#pcfb56be2ea)" style="fill: none; stroke: #cccccc; stroke-width: 0.25; stroke-linecap: round"/>
     </g>
     <g id="line2d_14">
      <defs>
       <path id="mb1f9902935" d="M 0 0 
L -6 0 
" style="stroke: #262626; stroke-width: 1.25"/>
      </defs>
      <g>
       <use xlink:href="#mb1f9902935" x="128.891693" y="240.514425" style="fill: #262626; stroke: #262626; stroke-width: 1.25"/>
      </g>
     </g>
     <g id="text_8">
      <!-- Angular2-TypeScript -->
      <g style="fill: #262626" transform="translate(25.449345 244.319598) scale(0.11 -0.11)">
       <defs>
        <path id="CMSS17-41" d="M 2272 4416 
L 1722 4416 
L 166 0 
L 653 0 
L 1101 1280 
L 2816 1280 
L 3270 0 
L 3827 0 
L 2272 4416 
z
M 2694 1637 
L 1222 1637 
C 1530 2528 1914 3638 1958 3925 
L 1965 3925 
C 2010 3663 2138 3281 2246 2956 
L 2694 1637 
z
" transform="scale(0.015625)"/>
        <path id="CMSS17-32" d="M 1651 1357 
C 1830 1541 2099 1764 2285 1987 
C 2464 2204 2701 2511 2701 2957 
C 2701 3657 2227 4288 1421 4288 
C 787 4288 422 3893 250 3274 
L 499 2929 
C 640 3510 838 3880 1338 3880 
C 1888 3880 2195 3433 2195 2942 
C 2195 2355 1747 1901 1408 1563 
C 1030 1187 659 804 301 408 
L 301 0 
L 2701 0 
L 2701 433 
L 1613 433 
C 1536 433 1459 433 1382 433 
L 742 433 
L 742 439 
L 1651 1357 
z
" transform="scale(0.015625)"/>
        <path id="CMSS17-54" d="M 2317 3968 
L 2848 3968 
C 2925 3968 3002 3968 3078 3968 
L 3878 3968 
L 3878 4376 
L 218 4376 
L 218 3968 
L 1018 3968 
C 1094 3968 1171 3968 1248 3968 
L 1779 3968 
L 1779 -32 
L 2317 -32 
L 2317 3968 
z
" transform="scale(0.015625)"/>
        <path id="CMSS17-79" d="M 2675 2752 
L 2176 2752 
C 1632 1294 1446 702 1434 383 
L 1427 383 
C 1408 696 1126 1460 902 2007 
L 602 2752 
L 83 2752 
L 1216 13 
C 1146 -178 1043 -465 1011 -529 
C 870 -885 774 -885 672 -885 
C 646 -885 442 -885 211 -809 
L 250 -1229 
C 410 -1261 570 -1280 685 -1280 
C 845 -1280 1165 -1280 1459 -497 
L 2675 2752 
z
" transform="scale(0.015625)"/>
        <path id="CMSS17-53" d="M 2797 4169 
C 2515 4334 2208 4480 1690 4480 
C 864 4480 333 3879 333 3266 
C 333 3025 403 2753 653 2475 
C 902 2196 1184 2121 1542 2033 
C 1690 1994 1939 1924 1984 1906 
C 2342 1767 2515 1444 2515 1140 
C 2515 742 2202 318 1645 318 
C 1453 318 890 318 358 819 
L 269 318 
C 794 -64 1363 -128 1651 -128 
C 2438 -128 3002 488 3002 1186 
C 3002 1440 2925 1763 2656 2061 
C 2394 2347 2163 2410 1638 2549 
C 1338 2626 1146 2677 986 2873 
C 877 3013 819 3146 819 3317 
C 819 3673 1126 4060 1690 4060 
C 1971 4060 2336 4002 2707 3660 
L 2797 4169 
z
" transform="scale(0.015625)"/>
       </defs>
       <use xlink:href="#CMSS17-41" transform="scale(0.996264)"/>
       <use xlink:href="#CMSS17-6e" transform="translate(62.217855 0) scale(0.996264)"/>
       <use xlink:href="#CMSS17-67" transform="translate(110.422798 0) scale(0.996264)"/>
       <use xlink:href="#CMSS17-75" transform="translate(157.266422 0) scale(0.996264)"/>
       <use xlink:href="#CMSS17-6c" transform="translate(205.471365 0) scale(0.996264)"/>
       <use xlink:href="#CMSS17-61" transform="translate(227.652088 0) scale(0.996264)"/>
       <use xlink:href="#CMSS17-72" transform="translate(269.971554 0) scale(0.996264)"/>
       <use xlink:href="#CMSS17-32" transform="translate(301.881327 0) scale(0.996264)"/>
       <use xlink:href="#CMSS17-2d" transform="translate(348.724951 0) scale(0.996264)"/>
       <use xlink:href="#CMSS17-54" transform="translate(379.954063 0) scale(0.996264)"/>
       <use xlink:href="#CMSS17-79" transform="translate(435.966262 0) scale(0.996264)"/>
       <use xlink:href="#CMSS17-70" transform="translate(478.966403 0) scale(0.996264)"/>
       <use xlink:href="#CMSS17-65" transform="translate(529.773785 0) scale(0.996264)"/>
       <use xlink:href="#CMSS17-53" transform="translate(571.412607 0) scale(0.996264)"/>
       <use xlink:href="#CMSS17-63" transform="translate(623.461124 0) scale(0.996264)"/>
       <use xlink:href="#CMSS17-72" transform="translate(665.099946 0) scale(0.996264)"/>
       <use xlink:href="#CMSS17-69" transform="translate(697.009718 0) scale(0.996264)"/>
       <use xlink:href="#CMSS17-70" transform="translate(719.190441 0) scale(0.996264)"/>
       <use xlink:href="#CMSS17-74" transform="translate(767.395384 0) scale(0.996264)"/>
      </g>
     </g>
    </g>
    <g id="ytick_2">
     <g id="line2d_15">
      <path d="M 128.891693 226.103404 
L 833.418475 226.103404 
" clip-path="url(#pcfb56be2ea)" style="fill: none; stroke: #cccccc; stroke-width: 0.25; stroke-linecap: round"/>
     </g>
     <g id="line2d_16">
      <g>
       <use xlink:href="#mb1f9902935" x="128.891693" y="226.103404" style="fill: #262626; stroke: #262626; stroke-width: 1.25"/>
      </g>
     </g>
     <g id="text_9">
      <!-- AngularJS -->
      <g style="fill: #262626" transform="translate(72.694478 229.908578) scale(0.11 -0.11)">
       <defs>
        <path id="CMSS17-4a" d="M 2336 4384 
L 1811 4384 
L 1811 940 
C 1811 636 1683 261 1107 261 
C 781 261 506 414 333 604 
L 250 140 
C 646 -71 1011 -128 1280 -128 
C 1901 -128 2336 228 2336 920 
L 2336 4384 
z
" transform="scale(0.015625)"/>
       </defs>
       <use xlink:href="#CMSS17-41" transform="scale(0.996264)"/>
       <use xlink:href="#CMSS17-6e" transform="translate(62.217855 0) scale(0.996264)"/>
       <use xlink:href="#CMSS17-67" transform="translate(110.422798 0) scale(0.996264)"/>
       <use xlink:href="#CMSS17-75" transform="translate(157.266422 0) scale(0.996264)"/>
       <use xlink:href="#CMSS17-6c" transform="translate(205.471365 0) scale(0.996264)"/>
       <use xlink:href="#CMSS17-61" transform="translate(227.652088 0) scale(0.996264)"/>
       <use xlink:href="#CMSS17-72" transform="translate(269.971554 0) scale(0.996264)"/>
       <use xlink:href="#CMSS17-4a" transform="translate(301.881327 0) scale(0.996264)"/>
       <use xlink:href="#CMSS17-53" transform="translate(346.002402 0) scale(0.996264)"/>
      </g>
     </g>
    </g>
    <g id="ytick_3">
     <g id="line2d_17">
      <path d="M 128.891693 211.692384 
L 833.418475 211.692384 
" clip-path="url(#pcfb56be2ea)" style="fill: none; stroke: #cccccc; stroke-width: 0.25; stroke-linecap: round"/>
     </g>
     <g id="line2d_18">
      <g>
       <use xlink:href="#mb1f9902935" x="128.891693" y="211.692384" style="fill: #262626; stroke: #262626; stroke-width: 1.25"/>
      </g>
     </g>
     <g id="text_10">
      <!-- BackboneJS -->
      <g style="fill: #262626" transform="translate(63.348909 215.497557) scale(0.11 -0.11)">
       <defs>
        <path id="CMSS17-42" d="M 570 4416 
L 570 0 
L 2163 0 
C 3034 0 3667 574 3667 1200 
C 3667 1685 3251 2176 2502 2317 
C 3334 2558 3501 3040 3501 3313 
C 3501 3883 2874 4416 1997 4416 
L 570 4416 
z
M 1088 2496 
L 1088 4059 
L 1824 4059 
C 2483 4059 3002 3724 3002 3306 
C 3002 2926 2592 2496 1766 2496 
L 1088 2496 
z
M 1088 357 
L 1088 2107 
L 1939 2107 
C 2630 2107 3162 1679 3162 1206 
C 3162 772 2694 357 1984 357 
L 1088 357 
z
" transform="scale(0.015625)"/>
       </defs>
       <use xlink:href="#CMSS17-42" transform="scale(0.996264)"/>
       <use xlink:href="#CMSS17-61" transform="translate(62.33804 0) scale(0.996264)"/>
       <use xlink:href="#CMSS17-63" transform="translate(107.259961 0) scale(0.996264)"/>
       <use xlink:href="#CMSS17-6b" transform="translate(148.898783 0) scale(0.996264)"/>
       <use xlink:href="#CMSS17-62" transform="translate(194.501272 0) scale(0.996264)"/>
       <use xlink:href="#CMSS17-6f" transform="translate(245.308654 0) scale(0.996264)"/>
       <use xlink:href="#CMSS17-6e" transform="translate(292.152277 0) scale(0.996264)"/>
       <use xlink:href="#CMSS17-65" transform="translate(340.357221 0) scale(0.996264)"/>
       <use xlink:href="#CMSS17-4a" transform="translate(381.996043 0) scale(0.996264)"/>
       <use xlink:href="#CMSS17-53" transform="translate(426.117118 0) scale(0.996264)"/>
      </g>
     </g>
    </g>
    <g id="ytick_4">
     <g id="line2d_19">
      <path d="M 128.891693 197.281363 
L 833.418475 197.281363 
" clip-path="url(#pcfb56be2ea)" style="fill: none; stroke: #cccccc; stroke-width: 0.25; stroke-linecap: round"/>
     </g>
     <g id="line2d_20">
      <g>
       <use xlink:href="#mb1f9902935" x="128.891693" y="197.281363" style="fill: #262626; stroke: #262626; stroke-width: 1.25"/>
      </g>
     </g>
     <g id="text_11">
      <!-- Elm -->
      <g style="fill: #262626" transform="translate(101.522561 201.086536) scale(0.11 -0.11)">
       <defs>
        <path id="CMSS17-45" d="M 1958 433 
C 1446 433 1216 433 1101 433 
L 1101 2107 
L 3085 2107 
L 3085 2496 
L 1101 2496 
L 1101 4009 
L 1926 4009 
C 2003 4009 2080 4009 2157 4009 
L 3251 4009 
L 3251 4416 
L 563 4416 
L 563 0 
L 3334 0 
L 3334 433 
L 1958 433 
z
" transform="scale(0.015625)"/>
       </defs>
       <use xlink:href="#CMSS17-45" transform="scale(0.996264)"/>
       <use xlink:href="#CMSS17-6c" transform="translate(55.892013 0) scale(0.996264)"/>
       <use xlink:href="#CMSS17-6d" transform="translate(78.072736 0) scale(0.996264)"/>
      </g>
     </g>
    </g>
    <g id="ytick_5">
     <g id="line2d_21">
      <path d="M 128.891693 182.870342 
L 833.418475 182.870342 
" clip-path="url(#pcfb56be2ea)" style="fill: none; stroke: #cccccc; stroke-width: 0.25; stroke-linecap: round"/>
     </g>
     <g id="line2d_22">
      <g>
       <use xlink:href="#mb1f9902935" x="128.891693" y="182.870342" style="fill: #262626; stroke: #262626; stroke-width: 1.25"/>
      </g>
     </g>
     <g id="text_12">
      <!-- EmberJS -->
      <g style="fill: #262626" transform="translate(78.295696 186.675516) scale(0.11 -0.11)">
       <use xlink:href="#CMSS17-45" transform="scale(0.996264)"/>
       <use xlink:href="#CMSS17-6d" transform="translate(55.892013 0) scale(0.996264)"/>
       <use xlink:href="#CMSS17-62" transform="translate(130.121268 0) scale(0.996264)"/>
       <use xlink:href="#CMSS17-65" transform="translate(180.92865 0) scale(0.996264)"/>
       <use xlink:href="#CMSS17-72" transform="translate(222.567472 0) scale(0.996264)"/>
       <use xlink:href="#CMSS17-4a" transform="translate(254.477244 0) scale(0.996264)"/>
       <use xlink:href="#CMSS17-53" transform="translate(298.59832 0) scale(0.996264)"/>
      </g>
     </g>
    </g>
    <g id="ytick_6">
     <g id="line2d_23">
      <path d="M 128.891693 168.459322 
L 833.418475 168.459322 
" clip-path="url(#pcfb56be2ea)" style="fill: none; stroke: #cccccc; stroke-width: 0.25; stroke-linecap: round"/>
     </g>
     <g id="line2d_24">
      <g>
       <use xlink:href="#mb1f9902935" x="128.891693" y="168.459322" style="fill: #262626; stroke: #262626; stroke-width: 1.25"/>
      </g>
     </g>
     <g id="text_13">
      <!-- EmberJS-Debug -->
      <g style="fill: #262626" transform="translate(45.053594 172.264495) scale(0.11 -0.11)">
       <defs>
        <path id="CMSS17-44" d="M 570 4416 
L 570 0 
L 2144 0 
C 3194 0 4000 980 4000 2170 
C 4000 3398 3194 4416 2144 4416 
L 570 4416 
z
M 1094 357 
L 1094 4059 
L 2003 4059 
C 2861 4059 3475 3277 3475 2170 
C 3475 1107 2867 357 2003 357 
L 1094 357 
z
" transform="scale(0.015625)"/>
       </defs>
       <use xlink:href="#CMSS17-45" transform="scale(0.996264)"/>
       <use xlink:href="#CMSS17-6d" transform="translate(55.892013 0) scale(0.996264)"/>
       <use xlink:href="#CMSS17-62" transform="translate(130.121268 0) scale(0.996264)"/>
       <use xlink:href="#CMSS17-65" transform="translate(180.92865 0) scale(0.996264)"/>
       <use xlink:href="#CMSS17-72" transform="translate(222.567472 0) scale(0.996264)"/>
       <use xlink:href="#CMSS17-4a" transform="translate(254.477244 0) scale(0.996264)"/>
       <use xlink:href="#CMSS17-53" transform="translate(298.59832 0) scale(0.996264)"/>
       <use xlink:href="#CMSS17-2d" transform="translate(350.646836 0) scale(0.996264)"/>
       <use xlink:href="#CMSS17-44" transform="translate(381.875949 0) scale(0.996264)"/>
       <use xlink:href="#CMSS17-65" transform="translate(449.41879 0) scale(0.996264)"/>
       <use xlink:href="#CMSS17-62" transform="translate(491.057612 0) scale(0.996264)"/>
       <use xlink:href="#CMSS17-75" transform="translate(539.262555 0) scale(0.996264)"/>
       <use xlink:href="#CMSS17-67" transform="translate(587.467499 0) scale(0.996264)"/>
      </g>
     </g>
    </g>
    <g id="ytick_7">
     <g id="line2d_25">
      <path d="M 128.891693 154.048301 
L 833.418475 154.048301 
" clip-path="url(#pcfb56be2ea)" style="fill: none; stroke: #cccccc; stroke-width: 0.25; stroke-linecap: round"/>
     </g>
     <g id="line2d_26">
      <g>
       <use xlink:href="#mb1f9902935" x="128.891693" y="154.048301" style="fill: #262626; stroke: #262626; stroke-width: 1.25"/>
      </g>
     </g>
     <g id="text_14">
      <!-- Flight -->
      <g style="fill: #262626" transform="translate(92.816302 157.853474) scale(0.11 -0.11)">
       <defs>
        <path id="CMSS17-46" d="M 2918 1984 
L 2918 2373 
L 1101 2373 
L 1101 3968 
L 1882 3968 
C 1958 3968 2035 3968 2112 3968 
L 3168 3968 
L 3168 4375 
L 563 4375 
L 563 -32 
L 1101 -32 
L 1101 1984 
L 2918 1984 
z
" transform="scale(0.015625)"/>
       </defs>
       <use xlink:href="#CMSS17-46" transform="scale(0.996264)"/>
       <use xlink:href="#CMSS17-6c" transform="translate(53.289559 0) scale(0.996264)"/>
       <use xlink:href="#CMSS17-69" transform="translate(75.470282 0) scale(0.996264)"/>
       <use xlink:href="#CMSS17-67" transform="translate(97.651005 0) scale(0.996264)"/>
       <use xlink:href="#CMSS17-68" transform="translate(144.494629 0) scale(0.996264)"/>
       <use xlink:href="#CMSS17-74" transform="translate(192.699572 0) scale(0.996264)"/>
      </g>
     </g>
    </g>
    <g id="ytick_8">
     <g id="line2d_27">
      <path d="M 128.891693 139.63728 
L 833.418475 139.63728 
" clip-path="url(#pcfb56be2ea)" style="fill: none; stroke: #cccccc; stroke-width: 0.25; stroke-linecap: round"/>
     </g>
     <g id="line2d_28">
      <g>
       <use xlink:href="#mb1f9902935" x="128.891693" y="139.63728" style="fill: #262626; stroke: #262626; stroke-width: 1.25"/>
      </g>
     </g>
     <g id="text_15">
      <!-- Inferno -->
      <g style="fill: #262626" transform="translate(87.580322 143.442454) scale(0.11 -0.11)">
       <defs>
        <path id="CMSS17-49" d="M 1094 4416 
L 557 4416 
L 557 0 
L 1094 0 
L 1094 4416 
z
" transform="scale(0.015625)"/>
        <path id="CMSS17-66" d="M 1075 2368 
L 1722 2368 
L 1722 2737 
L 1062 2737 
L 1062 3559 
C 1062 4014 1408 4092 1606 4092 
C 1670 4092 1850 4092 2080 4009 
L 2080 4429 
C 1933 4461 1754 4480 1613 4480 
C 1018 4480 602 3993 602 3359 
L 602 2737 
L 160 2737 
L 160 2368 
L 602 2368 
L 602 0 
L 1075 0 
L 1075 2368 
z
" transform="scale(0.015625)"/>
       </defs>
       <use xlink:href="#CMSS17-49" transform="scale(0.996264)"/>
       <use xlink:href="#CMSS17-6e" transform="translate(25.783926 0) scale(0.996264)"/>
       <use xlink:href="#CMSS17-66" transform="translate(73.988869 0) scale(0.996264)"/>
       <use xlink:href="#CMSS17-65" transform="translate(102.615527 0) scale(0.996264)"/>
       <use xlink:href="#CMSS17-72" transform="translate(144.25435 0) scale(0.996264)"/>
       <use xlink:href="#CMSS17-6e" transform="translate(176.164122 0) scale(0.996264)"/>
       <use xlink:href="#CMSS17-6f" transform="translate(224.369065 0) scale(0.996264)"/>
      </g>
     </g>
    </g>
    <g id="ytick_9">
     <g id="line2d_29">
      <path d="M 128.891693 125.22626 
L 833.418475 125.22626 
" clip-path="url(#pcfb56be2ea)" style="fill: none; stroke: #cccccc; stroke-width: 0.25; stroke-linecap: round"/>
     </g>
     <g id="line2d_30">
      <g>
       <use xlink:href="#mb1f9902935" x="128.891693" y="125.22626" style="fill: #262626; stroke: #262626; stroke-width: 1.25"/>
      </g>
     </g>
     <g id="text_16">
      <!-- jQuery -->
      <g style="fill: #262626" transform="translate(89.071982 129.031433) scale(0.11 -0.11)">
       <defs>
        <path id="CMSS17-6a" d="M 1114 4224 
L 576 4224 
L 576 3689 
L 1114 3689 
L 1114 4224 
z
M -371 -1064 
C -166 -1191 83 -1280 352 -1280 
C 755 -1280 1114 -935 1114 -366 
L 1114 2767 
L 640 2767 
L 640 -425 
C 640 -815 346 -873 179 -873 
C 38 -873 -128 -828 -275 -675 
L -371 -1064 
z
" transform="scale(0.015625)"/>
        <path id="CMSS17-51" d="M 3200 202 
C 3981 833 4096 1689 4096 2174 
C 4096 3501 3219 4497 2214 4497 
C 1210 4497 333 3497 333 2178 
C 333 847 1222 -128 2214 -128 
C 2438 -128 2630 -77 2765 -26 
L 3302 -832 
L 3930 -832 
L 3200 202 
z
M 2528 324 
C 2438 293 2330 273 2214 273 
C 1523 273 858 993 858 2178 
C 858 3357 1517 4096 2214 4096 
C 2918 4096 3571 3350 3571 2178 
C 3571 1771 3507 1089 2950 566 
L 2490 1210 
L 1939 1210 
L 2528 324 
z
" transform="scale(0.015625)"/>
       </defs>
       <use xlink:href="#CMSS17-6a" transform="scale(0.996264)"/>
       <use xlink:href="#CMSS17-51" transform="translate(24.783086 0) scale(0.996264)"/>
       <use xlink:href="#CMSS17-75" transform="translate(93.807341 0) scale(0.996264)"/>
       <use xlink:href="#CMSS17-65" transform="translate(142.012284 0) scale(0.996264)"/>
       <use xlink:href="#CMSS17-72" transform="translate(183.651106 0) scale(0.996264)"/>
       <use xlink:href="#CMSS17-79" transform="translate(215.560879 0) scale(0.996264)"/>
      </g>
     </g>
    </g>
    <g id="ytick_10">
     <g id="line2d_31">
      <path d="M 128.891693 110.815239 
L 833.418475 110.815239 
" clip-path="url(#pcfb56be2ea)" style="fill: none; stroke: #cccccc; stroke-width: 0.25; stroke-linecap: round"/>
     </g>
     <g id="line2d_32">
      <g>
       <use xlink:href="#mb1f9902935" x="128.891693" y="110.815239" style="fill: #262626; stroke: #262626; stroke-width: 1.25"/>
      </g>
     </g>
     <g id="text_17">
      <!-- Preact -->
      <g style="fill: #262626" transform="translate(89.680828 114.620412) scale(0.11 -0.11)">
       <defs>
        <path id="CMSS17-50" d="M 2106 1856 
C 2874 1856 3501 2453 3501 3158 
C 3501 3850 2899 4453 2067 4453 
L 570 4453 
L 570 0 
L 1107 0 
L 1107 1856 
L 2106 1856 
z
M 1926 4096 
C 2669 4096 2995 3627 2995 3157 
C 2995 2720 2694 2226 1926 2226 
L 1094 2226 
L 1094 4096 
L 1926 4096 
z
" transform="scale(0.015625)"/>
       </defs>
       <use xlink:href="#CMSS17-50" transform="scale(0.996264)"/>
       <use xlink:href="#CMSS17-72" transform="translate(59.735586 0) scale(0.996264)"/>
       <use xlink:href="#CMSS17-65" transform="translate(91.645359 0) scale(0.996264)"/>
       <use xlink:href="#CMSS17-61" transform="translate(133.284181 0) scale(0.996264)"/>
       <use xlink:href="#CMSS17-63" transform="translate(178.206102 0) scale(0.996264)"/>
       <use xlink:href="#CMSS17-74" transform="translate(219.844924 0) scale(0.996264)"/>
      </g>
     </g>
    </g>
    <g id="ytick_11">
     <g id="line2d_33">
      <path d="M 128.891693 96.404218 
L 833.418475 96.404218 
" clip-path="url(#pcfb56be2ea)" style="fill: none; stroke: #cccccc; stroke-width: 0.25; stroke-linecap: round"/>
     </g>
     <g id="line2d_34">
      <g>
       <use xlink:href="#mb1f9902935" x="128.891693" y="96.404218" style="fill: #262626; stroke: #262626; stroke-width: 1.25"/>
      </g>
     </g>
     <g id="text_18">
      <!-- React -->
      <g style="fill: #262626" transform="translate(93.349033 100.209391) scale(0.11 -0.11)">
       <defs>
        <path id="CMSS17-52" d="M 2522 2109 
L 2534 2115 
C 3533 2459 3539 3147 3539 3268 
C 3539 3873 2925 4453 2003 4453 
L 570 4453 
L 570 32 
L 1094 32 
L 1094 2048 
L 2035 2048 
L 3168 32 
L 3706 32 
L 2522 2109 
z
M 1094 2437 
L 1094 4096 
L 1933 4096 
C 2746 4096 3034 3637 3034 3267 
C 3034 2922 2778 2437 1933 2437 
L 1094 2437 
z
" transform="scale(0.015625)"/>
       </defs>
       <use xlink:href="#CMSS17-52" transform="scale(0.996264)"/>
       <use xlink:href="#CMSS17-65" transform="translate(60.416155 0) scale(0.996264)"/>
       <use xlink:href="#CMSS17-61" transform="translate(102.054977 0) scale(0.996264)"/>
       <use xlink:href="#CMSS17-63" transform="translate(146.976898 0) scale(0.996264)"/>
       <use xlink:href="#CMSS17-74" transform="translate(188.61572 0) scale(0.996264)"/>
      </g>
     </g>
    </g>
    <g id="ytick_12">
     <g id="line2d_35">
      <path d="M 128.891693 81.993197 
L 833.418475 81.993197 
" clip-path="url(#pcfb56be2ea)" style="fill: none; stroke: #cccccc; stroke-width: 0.25; stroke-linecap: round"/>
     </g>
     <g id="line2d_36">
      <g>
       <use xlink:href="#mb1f9902935" x="128.891693" y="81.993197" style="fill: #262626; stroke: #262626; stroke-width: 1.25"/>
      </g>
     </g>
     <g id="text_19">
      <!-- React-Redux -->
      <g style="fill: #262626" transform="translate(61.37026 85.798371) scale(0.11 -0.11)">
       <defs>
        <path id="CMSS17-78" d="M 1587 1414 
L 2656 2739 
L 2099 2739 
L 1363 1777 
L 602 2739 
L 32 2739 
L 1139 1414 
L 0 0 
L 563 0 
L 1363 1121 
L 2195 0 
L 2758 0 
L 1587 1414 
z
" transform="scale(0.015625)"/>
       </defs>
       <use xlink:href="#CMSS17-52" transform="scale(0.996264)"/>
       <use xlink:href="#CMSS17-65" transform="translate(60.416155 0) scale(0.996264)"/>
       <use xlink:href="#CMSS17-61" transform="translate(102.054977 0) scale(0.996264)"/>
       <use xlink:href="#CMSS17-63" transform="translate(146.976898 0) scale(0.996264)"/>
       <use xlink:href="#CMSS17-74" transform="translate(188.61572 0) scale(0.996264)"/>
       <use xlink:href="#CMSS17-2d" transform="translate(222.447286 0) scale(0.996264)"/>
       <use xlink:href="#CMSS17-52" transform="translate(253.676399 0) scale(0.996264)"/>
       <use xlink:href="#CMSS17-65" transform="translate(314.092554 0) scale(0.996264)"/>
       <use xlink:href="#CMSS17-64" transform="translate(355.731376 0) scale(0.996264)"/>
       <use xlink:href="#CMSS17-75" transform="translate(403.936319 0) scale(0.996264)"/>
       <use xlink:href="#CMSS17-78" transform="translate(452.141262 0) scale(0.996264)"/>
      </g>
     </g>
    </g>
    <g id="ytick_13">
     <g id="line2d_37">
      <path d="M 128.891693 67.582177 
L 833.418475 67.582177 
" clip-path="url(#pcfb56be2ea)" style="fill: none; stroke: #cccccc; stroke-width: 0.25; stroke-linecap: round"/>
     </g>
     <g id="line2d_38">
      <g>
       <use xlink:href="#mb1f9902935" x="128.891693" y="67.582177" style="fill: #262626; stroke: #262626; stroke-width: 1.25"/>
      </g>
     </g>
     <g id="text_20">
      <!-- Vanilla-ES2015 -->
      <g style="fill: #262626" transform="translate(50.137374 71.38735) scale(0.11 -0.11)">
       <defs>
        <path id="CMSS17-56" d="M 3910 4416 
L 3411 4416 
L 2304 1362 
C 2272 1273 2074 688 2035 484 
L 2029 484 
C 1978 726 1773 1292 1664 1604 
L 922 3672 
L 646 4416 
L 83 4416 
L 1715 0 
L 2278 0 
L 3910 4416 
z
" transform="scale(0.015625)"/>
        <path id="CMSS17-30" d="M 2758 2044 
C 2758 2405 2752 3077 2490 3596 
C 2227 4096 1805 4229 1504 4229 
C 1069 4229 698 3975 506 3570 
C 301 3146 243 2709 243 2044 
C 243 1589 262 1031 493 543 
C 755 5 1197 -128 1498 -128 
C 1894 -128 2278 81 2496 518 
C 2720 974 2758 1474 2758 2044 
z
M 1498 261 
C 1011 261 864 811 819 995 
C 742 1310 730 1614 730 2114 
C 730 2506 730 2948 851 3297 
C 998 3701 1254 3840 1498 3840 
C 1971 3840 2125 3372 2176 3208 
C 2272 2873 2272 2481 2272 2114 
C 2272 1526 2272 261 1498 261 
z
" transform="scale(0.015625)"/>
        <path id="CMSS17-31" d="M 1818 4288 
L 1696 4288 
C 1350 3940 947 3890 538 3890 
L 538 3520 
C 723 3520 1024 3520 1325 3667 
L 1325 369 
L 570 369 
L 570 0 
L 2573 0 
L 2573 369 
L 1818 369 
L 1818 4288 
z
" transform="scale(0.015625)"/>
        <path id="CMSS17-35" d="M 934 3752 
L 2502 3752 
L 2502 4160 
L 467 4160 
L 467 1781 
L 896 1781 
C 1011 2046 1248 2240 1555 2240 
C 1843 2240 2163 1989 2163 1266 
C 2163 493 1709 267 1376 267 
C 966 267 589 512 422 851 
L 218 499 
C 512 49 992 -128 1376 -128 
C 2118 -128 2701 497 2701 1253 
C 2701 2030 2182 2629 1562 2629 
C 1338 2629 1120 2553 934 2399 
L 934 3752 
z
" transform="scale(0.015625)"/>
       </defs>
       <use xlink:href="#CMSS17-56" transform="scale(0.996264)"/>
       <use xlink:href="#CMSS17-61" transform="translate(59.615401 0) scale(0.996264)"/>
       <use xlink:href="#CMSS17-6e" transform="translate(104.537322 0) scale(0.996264)"/>
       <use xlink:href="#CMSS17-69" transform="translate(152.742265 0) scale(0.996264)"/>
       <use xlink:href="#CMSS17-6c" transform="translate(174.922988 0) scale(0.996264)"/>
       <use xlink:href="#CMSS17-6c" transform="translate(197.103711 0) scale(0.996264)"/>
       <use xlink:href="#CMSS17-61" transform="translate(219.284434 0) scale(0.996264)"/>
       <use xlink:href="#CMSS17-2d" transform="translate(264.206354 0) scale(0.996264)"/>
       <use xlink:href="#CMSS17-45" transform="translate(295.435467 0) scale(0.996264)"/>
       <use xlink:href="#CMSS17-53" transform="translate(351.32748 0) scale(0.996264)"/>
       <use xlink:href="#CMSS17-32" transform="translate(403.375997 0) scale(0.996264)"/>
       <use xlink:href="#CMSS17-30" transform="translate(450.21962 0) scale(0.996264)"/>
       <use xlink:href="#CMSS17-31" transform="translate(497.063244 0) scale(0.996264)"/>
       <use xlink:href="#CMSS17-35" transform="translate(543.906867 0) scale(0.996264)"/>
      </g>
     </g>
    </g>
    <g id="ytick_14">
     <g id="line2d_39">
      <path d="M 128.891693 53.171156 
L 833.418475 53.171156 
" clip-path="url(#pcfb56be2ea)" style="fill: none; stroke: #cccccc; stroke-width: 0.25; stroke-linecap: round"/>
     </g>
     <g id="line2d_40">
      <g>
       <use xlink:href="#mb1f9902935" x="128.891693" y="53.171156" style="fill: #262626; stroke: #262626; stroke-width: 1.25"/>
      </g>
     </g>
     <g id="text_21">
      <!-- Vanilla-ES2015-BWP -->
      <g style="fill: #262626" transform="translate(21.826776 56.976329) scale(0.11 -0.11)">
       <use xlink:href="#CMSS17-56" transform="scale(0.996264)"/>
       <use xlink:href="#CMSS17-61" transform="translate(59.615401 0) scale(0.996264)"/>
       <use xlink:href="#CMSS17-6e" transform="translate(104.537322 0) scale(0.996264)"/>
       <use xlink:href="#CMSS17-69" transform="translate(152.742265 0) scale(0.996264)"/>
       <use xlink:href="#CMSS17-6c" transform="translate(174.922988 0) scale(0.996264)"/>
       <use xlink:href="#CMSS17-6c" transform="translate(197.103711 0) scale(0.996264)"/>
       <use xlink:href="#CMSS17-61" transform="translate(219.284434 0) scale(0.996264)"/>
       <use xlink:href="#CMSS17-2d" transform="translate(264.206354 0) scale(0.996264)"/>
       <use xlink:href="#CMSS17-45" transform="translate(295.435467 0) scale(0.996264)"/>
       <use xlink:href="#CMSS17-53" transform="translate(351.32748 0) scale(0.996264)"/>
       <use xlink:href="#CMSS17-32" transform="translate(403.375997 0) scale(0.996264)"/>
       <use xlink:href="#CMSS17-30" transform="translate(450.21962 0) scale(0.996264)"/>
       <use xlink:href="#CMSS17-31" transform="translate(497.063244 0) scale(0.996264)"/>
       <use xlink:href="#CMSS17-35" transform="translate(543.906867 0) scale(0.996264)"/>
       <use xlink:href="#CMSS17-2d" transform="translate(590.750491 0) scale(0.996264)"/>
       <use xlink:href="#CMSS17-42" transform="translate(621.979603 0) scale(0.996264)"/>
       <use xlink:href="#CMSS17-57" transform="translate(684.317644 0) scale(0.996264)"/>
       <use xlink:href="#CMSS17-50" transform="translate(772.55981 0) scale(0.996264)"/>
      </g>
     </g>
    </g>
    <g id="ytick_15">
     <g id="line2d_41">
      <path d="M 128.891693 38.760135 
L 833.418475 38.760135 
" clip-path="url(#pcfb56be2ea)" style="fill: none; stroke: #cccccc; stroke-width: 0.25; stroke-linecap: round"/>
     </g>
     <g id="line2d_42">
      <g>
       <use xlink:href="#mb1f9902935" x="128.891693" y="38.760135" style="fill: #262626; stroke: #262626; stroke-width: 1.25"/>
      </g>
     </g>
     <g id="text_22">
      <!-- VanillaJS -->
      <g style="fill: #262626" transform="translate(77.078079 42.565309) scale(0.11 -0.11)">
       <use xlink:href="#CMSS17-56" transform="scale(0.996264)"/>
       <use xlink:href="#CMSS17-61" transform="translate(59.615401 0) scale(0.996264)"/>
       <use xlink:href="#CMSS17-6e" transform="translate(104.537322 0) scale(0.996264)"/>
       <use xlink:href="#CMSS17-69" transform="translate(152.742265 0) scale(0.996264)"/>
       <use xlink:href="#CMSS17-6c" transform="translate(174.922988 0) scale(0.996264)"/>
       <use xlink:href="#CMSS17-6c" transform="translate(197.103711 0) scale(0.996264)"/>
       <use xlink:href="#CMSS17-61" transform="translate(219.284434 0) scale(0.996264)"/>
       <use xlink:href="#CMSS17-4a" transform="translate(264.206354 0) scale(0.996264)"/>
       <use xlink:href="#CMSS17-53" transform="translate(308.32743 0) scale(0.996264)"/>
      </g>
     </g>
    </g>
    <g id="ytick_16">
     <g id="line2d_43">
      <path d="M 128.891693 24.349115 
L 833.418475 24.349115 
" clip-path="url(#pcfb56be2ea)" style="fill: none; stroke: #cccccc; stroke-width: 0.25; stroke-linecap: round"/>
     </g>
     <g id="line2d_44">
      <g>
       <use xlink:href="#mb1f9902935" x="128.891693" y="24.349115" style="fill: #262626; stroke: #262626; stroke-width: 1.25"/>
      </g>
     </g>
     <g id="text_23">
      <!-- VueJS -->
      <g style="fill: #262626" transform="translate(90.59406 28.154288) scale(0.11 -0.11)">
       <use xlink:href="#CMSS17-56" transform="scale(0.996264)"/>
       <use xlink:href="#CMSS17-75" transform="translate(59.615401 0) scale(0.996264)"/>
       <use xlink:href="#CMSS17-65" transform="translate(107.820344 0) scale(0.996264)"/>
       <use xlink:href="#CMSS17-4a" transform="translate(149.459166 0) scale(0.996264)"/>
       <use xlink:href="#CMSS17-53" transform="translate(193.580242 0) scale(0.996264)"/>
      </g>
     </g>
    </g>
    <g id="text_24">
     <!-- Benchmark -->
     <g style="fill: #262626" transform="translate(15.50218 159.621138) rotate(-90) scale(0.12 -0.12)">
      <use xlink:href="#CMSS17-42" transform="scale(0.996264)"/>
      <use xlink:href="#CMSS17-65" transform="translate(62.33804 0) scale(0.996264)"/>
      <use xlink:href="#CMSS17-6e" transform="translate(103.976862 0) scale(0.996264)"/>
      <use xlink:href="#CMSS17-63" transform="translate(152.181805 0) scale(0.996264)"/>
      <use xlink:href="#CMSS17-68" transform="translate(193.820627 0) scale(0.996264)"/>
      <use xlink:href="#CMSS17-6d" transform="translate(242.025571 0) scale(0.996264)"/>
      <use xlink:href="#CMSS17-61" transform="translate(316.254825 0) scale(0.996264)"/>
      <use xlink:href="#CMSS17-72" transform="translate(358.574292 0) scale(0.996264)"/>
      <use xlink:href="#CMSS17-6b" transform="translate(390.484064 0) scale(0.996264)"/>
     </g>
    </g>
   </g>
   <g id="patch_3">
    <path d="M 128.891693 246.278833 
L 776.456999 246.278833 
L 776.456999 234.750017 
L 128.891693 234.750017 
z
" clip-path="url(#pcfb56be2ea)" style="fill: #4c72b0; stroke: #ffffff; stroke-linejoin: miter"/>
   </g>
   <g id="patch_4">
    <path d="M 128.891693 231.867813 
L 712.52769 231.867813 
L 712.52769 220.338996 
L 128.891693 220.338996 
z
" clip-path="url(#pcfb56be2ea)" style="fill: #4c72b0; stroke: #ffffff; stroke-linejoin: miter"/>
   </g>
   <g id="patch_5">
    <path d="M 128.891693 217.456792 
L 736.413433 217.456792 
L 736.413433 205.927975 
L 128.891693 205.927975 
z
" clip-path="url(#pcfb56be2ea)" style="fill: #4c72b0; stroke: #ffffff; stroke-linejoin: miter"/>
   </g>
   <g id="patch_6">
    <path d="M 128.891693 203.045771 
L 797.356023 203.045771 
L 797.356023 191.516955 
L 128.891693 191.516955 
z
" clip-path="url(#pcfb56be2ea)" style="fill: #4c72b0; stroke: #ffffff; stroke-linejoin: miter"/>
   </g>
   <g id="patch_7">
    <path d="M 128.891693 188.634751 
L 705.418337 188.634751 
L 705.418337 177.105934 
L 128.891693 177.105934 
z
" clip-path="url(#pcfb56be2ea)" style="fill: #4c72b0; stroke: #ffffff; stroke-linejoin: miter"/>
   </g>
   <g id="patch_8">
    <path d="M 128.891693 174.22373 
L 766.546776 174.22373 
L 766.546776 162.694913 
L 128.891693 162.694913 
z
" clip-path="url(#pcfb56be2ea)" style="fill: #4c72b0; stroke: #ffffff; stroke-linejoin: miter"/>
   </g>
   <g id="patch_9">
    <path d="M 128.891693 159.812709 
L 708.448714 159.812709 
L 708.448714 148.283893 
L 128.891693 148.283893 
z
" clip-path="url(#pcfb56be2ea)" style="fill: #4c72b0; stroke: #ffffff; stroke-linejoin: miter"/>
   </g>
   <g id="patch_10">
    <path d="M 128.891693 145.401689 
L 756.280634 145.401689 
L 756.280634 133.872872 
L 128.891693 133.872872 
z
" clip-path="url(#pcfb56be2ea)" style="fill: #4c72b0; stroke: #ffffff; stroke-linejoin: miter"/>
   </g>
   <g id="patch_11">
    <path d="M 128.891693 130.990668 
L 737.330823 130.990668 
L 737.330823 119.461851 
L 128.891693 119.461851 
z
" clip-path="url(#pcfb56be2ea)" style="fill: #4c72b0; stroke: #ffffff; stroke-linejoin: miter"/>
   </g>
   <g id="patch_12">
    <path d="M 128.891693 116.579647 
L 716.163816 116.579647 
L 716.163816 105.050831 
L 128.891693 105.050831 
z
" clip-path="url(#pcfb56be2ea)" style="fill: #4c72b0; stroke: #ffffff; stroke-linejoin: miter"/>
   </g>
   <g id="patch_13">
    <path d="M 128.891693 102.168626 
L 734.490062 102.168626 
L 734.490062 90.63981 
L 128.891693 90.63981 
z
" clip-path="url(#pcfb56be2ea)" style="fill: #4c72b0; stroke: #ffffff; stroke-linejoin: miter"/>
   </g>
   <g id="patch_14">
    <path d="M 128.891693 87.757606 
L 729.841534 87.757606 
L 729.841534 76.228789 
L 128.891693 76.228789 
z
" clip-path="url(#pcfb56be2ea)" style="fill: #4c72b0; stroke: #ffffff; stroke-linejoin: miter"/>
   </g>
   <g id="patch_15">
    <path d="M 128.891693 73.346585 
L 741.078124 73.346585 
L 741.078124 61.817768 
L 128.891693 61.817768 
z
" clip-path="url(#pcfb56be2ea)" style="fill: #4c72b0; stroke: #ffffff; stroke-linejoin: miter"/>
   </g>
   <g id="patch_16">
    <path d="M 128.891693 58.935564 
L 726.892571 58.935564 
L 726.892571 47.406748 
L 128.891693 47.406748 
z
" clip-path="url(#pcfb56be2ea)" style="fill: #4c72b0; stroke: #ffffff; stroke-linejoin: miter"/>
   </g>
   <g id="patch_17">
    <path d="M 128.891693 44.524544 
L 691.053589 44.524544 
L 691.053589 32.995727 
L 128.891693 32.995727 
z
" clip-path="url(#pcfb56be2ea)" style="fill: #4c72b0; stroke: #ffffff; stroke-linejoin: miter"/>
   </g>
   <g id="patch_18">
    <path d="M 128.891693 30.113523 
L 746.840962 30.113523 
L 746.840962 18.584706 
L 128.891693 18.584706 
z
" clip-path="url(#pcfb56be2ea)" style="fill: #4c72b0; stroke: #ffffff; stroke-linejoin: miter"/>
   </g>
   <g id="LineCollection_1">
    <path d="M 775.3157 240.514425 
L 777.598298 240.514425 
" clip-path="url(#pcfb56be2ea)" style="fill: none; stroke: #1a1a1a; stroke-width: 1.5"/>
    <path d="M 706.795597 226.103404 
L 718.259783 226.103404 
" clip-path="url(#pcfb56be2ea)" style="fill: none; stroke: #1a1a1a; stroke-width: 1.5"/>
    <path d="M 731.823764 211.692384 
L 741.003102 211.692384 
" clip-path="url(#pcfb56be2ea)" style="fill: none; stroke: #1a1a1a; stroke-width: 1.5"/>
    <path d="M 794.842465 197.281363 
L 799.86958 197.281363 
" clip-path="url(#pcfb56be2ea)" style="fill: none; stroke: #1a1a1a; stroke-width: 1.5"/>
    <path d="M 701.00449 182.870342 
L 709.832184 182.870342 
" clip-path="url(#pcfb56be2ea)" style="fill: none; stroke: #1a1a1a; stroke-width: 1.5"/>
    <path d="M 762.081167 168.459322 
L 771.012385 168.459322 
" clip-path="url(#pcfb56be2ea)" style="fill: none; stroke: #1a1a1a; stroke-width: 1.5"/>
    <path d="M 706.943955 154.048301 
L 709.953473 154.048301 
" clip-path="url(#pcfb56be2ea)" style="fill: none; stroke: #1a1a1a; stroke-width: 1.5"/>
    <path d="M 752.875305 139.63728 
L 759.685963 139.63728 
" clip-path="url(#pcfb56be2ea)" style="fill: none; stroke: #1a1a1a; stroke-width: 1.5"/>
    <path d="M 733.326854 125.22626 
L 741.334793 125.22626 
" clip-path="url(#pcfb56be2ea)" style="fill: none; stroke: #1a1a1a; stroke-width: 1.5"/>
    <path d="M 712.252681 110.815239 
L 720.074951 110.815239 
" clip-path="url(#pcfb56be2ea)" style="fill: none; stroke: #1a1a1a; stroke-width: 1.5"/>
    <path d="M 730.113911 96.404218 
L 738.866212 96.404218 
" clip-path="url(#pcfb56be2ea)" style="fill: none; stroke: #1a1a1a; stroke-width: 1.5"/>
    <path d="M 727.789616 81.993197 
L 731.893453 81.993197 
" clip-path="url(#pcfb56be2ea)" style="fill: none; stroke: #1a1a1a; stroke-width: 1.5"/>
    <path d="M 737.618219 67.582177 
L 744.538028 67.582177 
" clip-path="url(#pcfb56be2ea)" style="fill: none; stroke: #1a1a1a; stroke-width: 1.5"/>
    <path d="M 725.485429 53.171156 
L 728.299713 53.171156 
" clip-path="url(#pcfb56be2ea)" style="fill: none; stroke: #1a1a1a; stroke-width: 1.5"/>
    <path d="M 686.345767 38.760135 
L 695.76141 38.760135 
" clip-path="url(#pcfb56be2ea)" style="fill: none; stroke: #1a1a1a; stroke-width: 1.5"/>
    <path d="M 746.024864 24.349115 
L 747.657059 24.349115 
" clip-path="url(#pcfb56be2ea)" style="fill: none; stroke: #1a1a1a; stroke-width: 1.5"/>
   </g>
   <g id="line2d_45">
    <defs>
     <path id="m9efd9aa05c" d="M 0 2 
L 0 -2 
" style="stroke: #1a1a1a"/>
    </defs>
    <g clip-path="url(#pcfb56be2ea)">
     <use xlink:href="#m9efd9aa05c" x="775.3157" y="240.514425" style="fill: #1a1a1a; stroke: #1a1a1a"/>
     <use xlink:href="#m9efd9aa05c" x="706.795597" y="226.103404" style="fill: #1a1a1a; stroke: #1a1a1a"/>
     <use xlink:href="#m9efd9aa05c" x="731.823764" y="211.692384" style="fill: #1a1a1a; stroke: #1a1a1a"/>
     <use xlink:href="#m9efd9aa05c" x="794.842465" y="197.281363" style="fill: #1a1a1a; stroke: #1a1a1a"/>
     <use xlink:href="#m9efd9aa05c" x="701.00449" y="182.870342" style="fill: #1a1a1a; stroke: #1a1a1a"/>
     <use xlink:href="#m9efd9aa05c" x="762.081167" y="168.459322" style="fill: #1a1a1a; stroke: #1a1a1a"/>
     <use xlink:href="#m9efd9aa05c" x="706.943955" y="154.048301" style="fill: #1a1a1a; stroke: #1a1a1a"/>
     <use xlink:href="#m9efd9aa05c" x="752.875305" y="139.63728" style="fill: #1a1a1a; stroke: #1a1a1a"/>
     <use xlink:href="#m9efd9aa05c" x="733.326854" y="125.22626" style="fill: #1a1a1a; stroke: #1a1a1a"/>
     <use xlink:href="#m9efd9aa05c" x="712.252681" y="110.815239" style="fill: #1a1a1a; stroke: #1a1a1a"/>
     <use xlink:href="#m9efd9aa05c" x="730.113911" y="96.404218" style="fill: #1a1a1a; stroke: #1a1a1a"/>
     <use xlink:href="#m9efd9aa05c" x="727.789616" y="81.993197" style="fill: #1a1a1a; stroke: #1a1a1a"/>
     <use xlink:href="#m9efd9aa05c" x="737.618219" y="67.582177" style="fill: #1a1a1a; stroke: #1a1a1a"/>
     <use xlink:href="#m9efd9aa05c" x="725.485429" y="53.171156" style="fill: #1a1a1a; stroke: #1a1a1a"/>
     <use xlink:href="#m9efd9aa05c" x="686.345767" y="38.760135" style="fill: #1a1a1a; stroke: #1a1a1a"/>
     <use xlink:href="#m9efd9aa05c" x="746.024864" y="24.349115" style="fill: #1a1a1a; stroke: #1a1a1a"/>
    </g>
   </g>
   <g id="line2d_46">
    <g clip-path="url(#pcfb56be2ea)">
     <use xlink:href="#m9efd9aa05c" x="777.598298" y="240.514425" style="fill: #1a1a1a; stroke: #1a1a1a"/>
     <use xlink:href="#m9efd9aa05c" x="718.259783" y="226.103404" style="fill: #1a1a1a; stroke: #1a1a1a"/>
     <use xlink:href="#m9efd9aa05c" x="741.003102" y="211.692384" style="fill: #1a1a1a; stroke: #1a1a1a"/>
     <use xlink:href="#m9efd9aa05c" x="799.86958" y="197.281363" style="fill: #1a1a1a; stroke: #1a1a1a"/>
     <use xlink:href="#m9efd9aa05c" x="709.832184" y="182.870342" style="fill: #1a1a1a; stroke: #1a1a1a"/>
     <use xlink:href="#m9efd9aa05c" x="771.012385" y="168.459322" style="fill: #1a1a1a; stroke: #1a1a1a"/>
     <use xlink:href="#m9efd9aa05c" x="709.953473" y="154.048301" style="fill: #1a1a1a; stroke: #1a1a1a"/>
     <use xlink:href="#m9efd9aa05c" x="759.685963" y="139.63728" style="fill: #1a1a1a; stroke: #1a1a1a"/>
     <use xlink:href="#m9efd9aa05c" x="741.334793" y="125.22626" style="fill: #1a1a1a; stroke: #1a1a1a"/>
     <use xlink:href="#m9efd9aa05c" x="720.074951" y="110.815239" style="fill: #1a1a1a; stroke: #1a1a1a"/>
     <use xlink:href="#m9efd9aa05c" x="738.866212" y="96.404218" style="fill: #1a1a1a; stroke: #1a1a1a"/>
     <use xlink:href="#m9efd9aa05c" x="731.893453" y="81.993197" style="fill: #1a1a1a; stroke: #1a1a1a"/>
     <use xlink:href="#m9efd9aa05c" x="744.538028" y="67.582177" style="fill: #1a1a1a; stroke: #1a1a1a"/>
     <use xlink:href="#m9efd9aa05c" x="728.299713" y="53.171156" style="fill: #1a1a1a; stroke: #1a1a1a"/>
     <use xlink:href="#m9efd9aa05c" x="695.76141" y="38.760135" style="fill: #1a1a1a; stroke: #1a1a1a"/>
     <use xlink:href="#m9efd9aa05c" x="747.657059" y="24.349115" style="fill: #1a1a1a; stroke: #1a1a1a"/>
    </g>
   </g>
   <g id="patch_19">
    <path d="M 128.891693 257.66354 
L 128.891693 7.2 
" style="fill: none; stroke: #cccccc; stroke-width: 1.25; stroke-linejoin: miter; stroke-linecap: square"/>
   </g>
   <g id="patch_20">
    <path d="M 128.891693 257.66354 
L 833.418475 257.66354 
" style="fill: none; stroke: #cccccc; stroke-width: 1.25; stroke-linejoin: miter; stroke-linecap: square"/>
   </g>
   <g id="text_25">
    <!-- 1.08 -->
    <g style="fill: #808080" transform="translate(806.364428 243.396629) scale(0.1 -0.1)">
     <defs>
      <path id="CMSS17-2e" d="M 1088 510 
L 576 510 
L 576 0 
L 1088 0 
L 1088 510 
z
" transform="scale(0.015625)"/>
      <path id="CMSS17-38" d="M 1933 2222 
C 2419 2380 2669 2760 2669 3134 
C 2669 3722 2157 4229 1504 4229 
C 826 4229 333 3708 333 3144 
C 333 2780 576 2403 1069 2241 
C 442 1997 250 1512 250 1149 
C 250 446 819 -128 1498 -128 
C 2202 -128 2752 455 2752 1138 
C 2752 1557 2502 2000 1933 2222 
z
M 1504 2432 
C 1075 2432 787 2712 787 3136 
C 787 3566 1075 3840 1504 3840 
C 1901 3840 2214 3591 2214 3136 
C 2214 2687 1907 2432 1504 2432 
z
M 1504 267 
C 1139 267 749 517 749 1156 
C 749 1813 1184 2043 1498 2043 
C 1843 2043 2253 1800 2253 1156 
C 2253 491 1830 267 1504 267 
z
" transform="scale(0.015625)"/>
     </defs>
     <use xlink:href="#CMSS17-31" transform="scale(0.996264)"/>
     <use xlink:href="#CMSS17-2e" transform="translate(46.843624 0) scale(0.996264)"/>
     <use xlink:href="#CMSS17-30" transform="translate(72.867828 0) scale(0.996264)"/>
     <use xlink:href="#CMSS17-38" transform="translate(119.711452 0) scale(0.996264)"/>
    </g>
   </g>
   <g id="text_26">
    <!-- 0.98 -->
    <g style="fill: #808080" transform="translate(742.435119 228.985609) scale(0.1 -0.1)">
     <defs>
      <path id="CMSS17-39" d="M 435 174 
C 614 21 845 -128 1235 -128 
C 2010 -128 2752 721 2752 2095 
C 2752 3932 1952 4229 1523 4229 
C 1094 4229 819 4041 582 3741 
C 301 3397 250 3090 250 2733 
C 250 2307 326 2045 506 1745 
C 749 1357 973 1275 1222 1275 
C 1600 1275 1978 1459 2234 1776 
C 2189 902 1798 267 1235 267 
C 1005 267 819 339 634 516 
L 435 174 
z
M 2214 2746 
C 2221 2703 2221 2622 2221 2596 
C 2221 2074 1914 1664 1466 1664 
C 1171 1664 1018 1813 902 2006 
C 762 2249 755 2485 755 2733 
C 755 2976 755 3244 934 3511 
C 1069 3703 1235 3840 1523 3840 
C 2112 3840 2208 3000 2214 2746 
z
" transform="scale(0.015625)"/>
     </defs>
     <use xlink:href="#CMSS17-30" transform="scale(0.996264)"/>
     <use xlink:href="#CMSS17-2e" transform="translate(46.843624 0) scale(0.996264)"/>
     <use xlink:href="#CMSS17-39" transform="translate(72.867828 0) scale(0.996264)"/>
     <use xlink:href="#CMSS17-38" transform="translate(119.711452 0) scale(0.996264)"/>
    </g>
   </g>
   <g id="text_27">
    <!-- 1.02 -->
    <g style="fill: #808080" transform="translate(766.320862 214.574588) scale(0.1 -0.1)">
     <use xlink:href="#CMSS17-31" transform="scale(0.996264)"/>
     <use xlink:href="#CMSS17-2e" transform="translate(46.843624 0) scale(0.996264)"/>
     <use xlink:href="#CMSS17-30" transform="translate(72.867828 0) scale(0.996264)"/>
     <use xlink:href="#CMSS17-32" transform="translate(119.711452 0) scale(0.996264)"/>
    </g>
   </g>
   <g id="text_28">
    <!-- 1.12 -->
    <g style="fill: #808080" transform="translate(827.263452 200.163567) scale(0.1 -0.1)">
     <use xlink:href="#CMSS17-31" transform="scale(0.996264)"/>
     <use xlink:href="#CMSS17-2e" transform="translate(46.843624 0) scale(0.996264)"/>
     <use xlink:href="#CMSS17-31" transform="translate(72.867828 0) scale(0.996264)"/>
     <use xlink:href="#CMSS17-32" transform="translate(119.711452 0) scale(0.996264)"/>
    </g>
   </g>
   <g id="text_29">
    <!-- 0.96 -->
    <g style="fill: #808080" transform="translate(735.325766 185.752546) scale(0.1 -0.1)">
     <defs>
      <path id="CMSS17-36" d="M 2496 4101 
C 2227 4210 2035 4229 1856 4229 
C 1024 4229 250 3368 250 2006 
C 250 265 986 -128 1510 -128 
C 1798 -128 2086 -39 2362 280 
C 2643 617 2752 898 2752 1389 
C 2752 2179 2362 2880 1779 2880 
C 1357 2880 992 2657 768 2376 
C 832 3258 1254 3840 1862 3840 
C 2029 3840 2246 3816 2496 3710 
L 2496 4101 
z
M 774 1369 
C 774 1420 774 1452 781 1548 
C 781 2045 1069 2491 1536 2491 
C 1837 2491 1990 2332 2106 2135 
C 2240 1886 2246 1650 2246 1388 
C 2246 1140 2246 891 2099 637 
C 1978 439 1818 267 1510 267 
C 902 267 800 1114 774 1369 
z
" transform="scale(0.015625)"/>
     </defs>
     <use xlink:href="#CMSS17-30" transform="scale(0.996264)"/>
     <use xlink:href="#CMSS17-2e" transform="translate(46.843624 0) scale(0.996264)"/>
     <use xlink:href="#CMSS17-39" transform="translate(72.867828 0) scale(0.996264)"/>
     <use xlink:href="#CMSS17-36" transform="translate(119.711452 0) scale(0.996264)"/>
    </g>
   </g>
   <g id="text_30">
    <!-- 1.07 -->
    <g style="fill: #808080" transform="translate(796.454205 171.341526) scale(0.1 -0.1)">
     <defs>
      <path id="CMSS17-37" d="M 1389 3776 
C 1466 3776 1542 3776 1619 3776 
L 2355 3776 
C 1440 2711 915 1365 915 -32 
L 1427 -32 
C 1427 1323 1875 2696 2752 3795 
L 2752 4209 
L 250 4209 
L 250 3776 
L 1389 3776 
z
" transform="scale(0.015625)"/>
     </defs>
     <use xlink:href="#CMSS17-31" transform="scale(0.996264)"/>
     <use xlink:href="#CMSS17-2e" transform="translate(46.843624 0) scale(0.996264)"/>
     <use xlink:href="#CMSS17-30" transform="translate(72.867828 0) scale(0.996264)"/>
     <use xlink:href="#CMSS17-37" transform="translate(119.711452 0) scale(0.996264)"/>
    </g>
   </g>
   <g id="text_31">
    <!-- 0.97 -->
    <g style="fill: #808080" transform="translate(738.356143 156.930505) scale(0.1 -0.1)">
     <use xlink:href="#CMSS17-30" transform="scale(0.996264)"/>
     <use xlink:href="#CMSS17-2e" transform="translate(46.843624 0) scale(0.996264)"/>
     <use xlink:href="#CMSS17-39" transform="translate(72.867828 0) scale(0.996264)"/>
     <use xlink:href="#CMSS17-37" transform="translate(119.711452 0) scale(0.996264)"/>
    </g>
   </g>
   <g id="text_32">
    <!-- 1.05 -->
    <g style="fill: #808080" transform="translate(786.188063 142.519484) scale(0.1 -0.1)">
     <use xlink:href="#CMSS17-31" transform="scale(0.996264)"/>
     <use xlink:href="#CMSS17-2e" transform="translate(46.843624 0) scale(0.996264)"/>
     <use xlink:href="#CMSS17-30" transform="translate(72.867828 0) scale(0.996264)"/>
     <use xlink:href="#CMSS17-35" transform="translate(119.711452 0) scale(0.996264)"/>
    </g>
   </g>
   <g id="text_33">
    <!-- 1.02 -->
    <g style="fill: #808080" transform="translate(767.238252 128.108464) scale(0.1 -0.1)">
     <use xlink:href="#CMSS17-31" transform="scale(0.996264)"/>
     <use xlink:href="#CMSS17-2e" transform="translate(46.843624 0) scale(0.996264)"/>
     <use xlink:href="#CMSS17-30" transform="translate(72.867828 0) scale(0.996264)"/>
     <use xlink:href="#CMSS17-32" transform="translate(119.711452 0) scale(0.996264)"/>
    </g>
   </g>
   <g id="text_34">
    <!-- 0.98 -->
    <g style="fill: #808080" transform="translate(746.071245 113.697443) scale(0.1 -0.1)">
     <use xlink:href="#CMSS17-30" transform="scale(0.996264)"/>
     <use xlink:href="#CMSS17-2e" transform="translate(46.843624 0) scale(0.996264)"/>
     <use xlink:href="#CMSS17-39" transform="translate(72.867828 0) scale(0.996264)"/>
     <use xlink:href="#CMSS17-38" transform="translate(119.711452 0) scale(0.996264)"/>
    </g>
   </g>
   <g id="text_35">
    <!-- 1.01 -->
    <g style="fill: #808080" transform="translate(764.397491 99.286422) scale(0.1 -0.1)">
     <use xlink:href="#CMSS17-31" transform="scale(0.996264)"/>
     <use xlink:href="#CMSS17-2e" transform="translate(46.843624 0) scale(0.996264)"/>
     <use xlink:href="#CMSS17-30" transform="translate(72.867828 0) scale(0.996264)"/>
     <use xlink:href="#CMSS17-31" transform="translate(119.711452 0) scale(0.996264)"/>
    </g>
   </g>
   <g id="text_36">
    <!-- 1.0 -->
    <g style="fill: #808080" transform="translate(759.748963 84.875402) scale(0.1 -0.1)">
     <use xlink:href="#CMSS17-31" transform="scale(0.996264)"/>
     <use xlink:href="#CMSS17-2e" transform="translate(46.843624 0) scale(0.996264)"/>
     <use xlink:href="#CMSS17-30" transform="translate(72.867828 0) scale(0.996264)"/>
    </g>
   </g>
   <g id="text_37">
    <!-- 1.02 -->
    <g style="fill: #808080" transform="translate(770.985553 70.464381) scale(0.1 -0.1)">
     <use xlink:href="#CMSS17-31" transform="scale(0.996264)"/>
     <use xlink:href="#CMSS17-2e" transform="translate(46.843624 0) scale(0.996264)"/>
     <use xlink:href="#CMSS17-30" transform="translate(72.867828 0) scale(0.996264)"/>
     <use xlink:href="#CMSS17-32" transform="translate(119.711452 0) scale(0.996264)"/>
    </g>
   </g>
   <g id="text_38">
    <!-- 1.0 -->
    <g style="fill: #808080" transform="translate(756.8 56.05336) scale(0.1 -0.1)">
     <use xlink:href="#CMSS17-31" transform="scale(0.996264)"/>
     <use xlink:href="#CMSS17-2e" transform="translate(46.843624 0) scale(0.996264)"/>
     <use xlink:href="#CMSS17-30" transform="translate(72.867828 0) scale(0.996264)"/>
    </g>
   </g>
   <g id="text_39">
    <!-- 0.94 -->
    <g style="fill: #808080" transform="translate(720.961018 41.642339) scale(0.1 -0.1)">
     <defs>
      <path id="CMSS17-34" d="M 2253 1088 
L 2835 1088 
L 2835 1477 
L 2253 1477 
L 2253 4192 
L 1690 4192 
L 166 1477 
L 166 1088 
L 1747 1088 
L 1747 0 
L 2253 0 
L 2253 1088 
z
M 659 1477 
C 1030 2127 1766 3439 1766 3885 
L 1766 1477 
L 659 1477 
z
" transform="scale(0.015625)"/>
     </defs>
     <use xlink:href="#CMSS17-30" transform="scale(0.996264)"/>
     <use xlink:href="#CMSS17-2e" transform="translate(46.843624 0) scale(0.996264)"/>
     <use xlink:href="#CMSS17-39" transform="translate(72.867828 0) scale(0.996264)"/>
     <use xlink:href="#CMSS17-34" transform="translate(119.711452 0) scale(0.996264)"/>
    </g>
   </g>
   <g id="text_40">
    <!-- 1.03 -->
    <g style="fill: #808080" transform="translate(776.748391 27.231319) scale(0.1 -0.1)">
     <defs>
      <path id="CMSS17-33" d="M 1005 2025 
L 1440 2025 
C 2042 2025 2214 1507 2214 1146 
C 2214 653 1933 267 1472 267 
C 1114 267 608 444 320 912 
C 275 691 275 678 250 526 
C 550 88 1037 -128 1485 -128 
C 2214 -128 2752 473 2752 1138 
C 2752 1638 2400 2057 1920 2215 
C 2304 2424 2586 2816 2586 3273 
C 2586 3805 2093 4229 1491 4229 
C 941 4229 512 3892 333 3530 
C 378 3468 493 3284 550 3189 
C 691 3562 1056 3840 1485 3840 
C 1843 3840 2080 3607 2080 3271 
C 2080 2923 1856 2543 1478 2455 
C 1453 2455 1056 2417 1005 2411 
L 1005 2025 
z
" transform="scale(0.015625)"/>
     </defs>
     <use xlink:href="#CMSS17-31" transform="scale(0.996264)"/>
     <use xlink:href="#CMSS17-2e" transform="translate(46.843624 0) scale(0.996264)"/>
     <use xlink:href="#CMSS17-30" transform="translate(72.867828 0) scale(0.996264)"/>
     <use xlink:href="#CMSS17-33" transform="translate(119.711452 0) scale(0.996264)"/>
    </g>
   </g>
  </g>
 </g>
 <defs>
  <clipPath id="pcfb56be2ea">
   <rect x="128.891693" y="7.2" width="704.526781" height="250.46354"/>
  </clipPath>
 </defs>
</svg>
