<?xml version="1.0" encoding="utf-8" standalone="no"?>
<!DOCTYPE svg PUBLIC "-//W3C//DTD SVG 1.1//EN"
  "http://www.w3.org/Graphics/SVG/1.1/DTD/svg11.dtd">
<svg xmlns:xlink="http://www.w3.org/1999/xlink" width="631.286219pt" height="132.441358pt" viewBox="0 0 631.286219 132.441358" xmlns="http://www.w3.org/2000/svg" version="1.1">
 <metadata>
  <rdf:RDF xmlns:dc="http://purl.org/dc/elements/1.1/" xmlns:cc="http://creativecommons.org/ns#" xmlns:rdf="http://www.w3.org/1999/02/22-rdf-syntax-ns#">
   <cc:Work>
    <dc:type rdf:resource="http://purl.org/dc/dcmitype/StillImage"/>
    <dc:date>2025-03-31T23:04:02.677061</dc:date>
    <dc:format>image/svg+xml</dc:format>
    <dc:creator>
     <cc:Agent>
      <dc:title>Matplotlib v3.9.2, https://matplotlib.org/</dc:title>
     </cc:Agent>
    </dc:creator>
   </cc:Work>
  </rdf:RDF>
 </metadata>
 <defs>
  <style type="text/css">*{stroke-linejoin: round; stroke-linecap: butt}</style>
 </defs>
 <g id="figure_1">
  <g id="patch_1">
   <path d="M 0 132.441358 
L 631.286219 132.441358 
L 631.286219 0 
L 0 0 
z
" style="fill: #ffffff"/>
  </g>
  <g id="axes_1">
   <g id="patch_2">
    <path d="M 33.204495 106.553748 
L 624.086219 106.553748 
L 624.086219 46.345661 
L 33.204495 46.345661 
z
" style="fill: #ffffff"/>
   </g>
   <g id="patch_3">
    <path d="M 44.655692 106.553748 
L 53.816649 106.553748 
L 53.816649 78.996045 
L 44.655692 78.996045 
z
" clip-path="url(#p006be85027)" style="fill: #1f77b4"/>
   </g>
   <g id="patch_4">
    <path d="M 90.460476 106.553748 
L 99.621433 106.553748 
L 99.621433 78.692379 
L 90.460476 78.692379 
z
" clip-path="url(#p006be85027)" style="fill: #1f77b4"/>
   </g>
   <g id="patch_5">
    <path d="M 136.265261 106.553748 
L 145.426218 106.553748 
L 145.426218 78.388712 
L 136.265261 78.388712 
z
" clip-path="url(#p006be85027)" style="fill: #1f77b4"/>
   </g>
   <g id="patch_6">
    <path d="M 182.070046 106.553748 
L 191.231003 106.553748 
L 191.231003 74.972468 
L 182.070046 74.972468 
z
" clip-path="url(#p006be85027)" style="fill: #1f77b4"/>
   </g>
   <g id="patch_7">
    <path d="M 227.874831 106.553748 
L 237.035788 106.553748 
L 237.035788 74.972468 
L 227.874831 74.972468 
z
" clip-path="url(#p006be85027)" style="fill: #1f77b4"/>
   </g>
   <g id="patch_8">
    <path d="M 273.679616 106.553748 
L 282.840573 106.553748 
L 282.840573 78.540546 
L 273.679616 78.540546 
z
" clip-path="url(#p006be85027)" style="fill: #1f77b4"/>
   </g>
   <g id="patch_9">
    <path d="M 319.4844 106.553748 
L 328.645357 106.553748 
L 328.645357 47.414765 
L 319.4844 47.414765 
z
" clip-path="url(#p006be85027)" style="fill: #1f77b4"/>
   </g>
   <g id="patch_10">
    <path d="M 365.289185 106.553748 
L 374.450142 106.553748 
L 374.450142 47.490681 
L 365.289185 47.490681 
z
" clip-path="url(#p006be85027)" style="fill: #1f77b4"/>
   </g>
   <g id="patch_11">
    <path d="M 411.09397 106.553748 
L 420.254927 106.553748 
L 420.254927 78.996045 
L 411.09397 78.996045 
z
" clip-path="url(#p006be85027)" style="fill: #1f77b4"/>
   </g>
   <g id="patch_12">
    <path d="M 456.898755 106.553748 
L 466.059712 106.553748 
L 466.059712 78.920128 
L 456.898755 78.920128 
z
" clip-path="url(#p006be85027)" style="fill: #1f77b4"/>
   </g>
   <g id="patch_13">
    <path d="M 502.70354 106.553748 
L 511.864497 106.553748 
L 511.864497 79.299711 
L 502.70354 79.299711 
z
" clip-path="url(#p006be85027)" style="fill: #1f77b4"/>
   </g>
   <g id="patch_14">
    <path d="M 548.508324 106.553748 
L 557.669281 106.553748 
L 557.669281 79.147878 
L 548.508324 79.147878 
z
" clip-path="url(#p006be85027)" style="fill: #1f77b4"/>
   </g>
   <g id="patch_15">
    <path d="M 594.313109 106.553748 
L 603.474066 106.553748 
L 603.474066 78.920128 
L 594.313109 78.920128 
z
" clip-path="url(#p006be85027)" style="fill: #1f77b4"/>
   </g>
   <g id="patch_16">
    <path d="M 53.816649 106.553748 
L 62.977606 106.553748 
L 62.977606 98.202929 
L 53.816649 98.202929 
z
" clip-path="url(#p006be85027)" style="fill: #ff7f0e"/>
   </g>
   <g id="patch_17">
    <path d="M 99.621433 106.553748 
L 108.78239 106.553748 
L 108.78239 98.202929 
L 99.621433 98.202929 
z
" clip-path="url(#p006be85027)" style="fill: #ff7f0e"/>
   </g>
   <g id="patch_18">
    <path d="M 145.426218 106.553748 
L 154.587175 106.553748 
L 154.587175 98.202929 
L 145.426218 98.202929 
z
" clip-path="url(#p006be85027)" style="fill: #ff7f0e"/>
   </g>
   <g id="patch_19">
    <path d="M 191.231003 106.553748 
L 200.39196 106.553748 
L 200.39196 86.435866 
L 191.231003 86.435866 
z
" clip-path="url(#p006be85027)" style="fill: #ff7f0e"/>
   </g>
   <g id="patch_20">
    <path d="M 237.035788 106.553748 
L 246.196745 106.553748 
L 246.196745 86.208116 
L 237.035788 86.208116 
z
" clip-path="url(#p006be85027)" style="fill: #ff7f0e"/>
   </g>
   <g id="patch_21">
    <path d="M 282.840573 106.553748 
L 292.00153 106.553748 
L 292.00153 98.278846 
L 282.840573 98.278846 
z
" clip-path="url(#p006be85027)" style="fill: #ff7f0e"/>
   </g>
   <g id="patch_22">
    <path d="M 328.645357 106.553748 
L 337.806314 106.553748 
L 337.806314 52.12159 
L 328.645357 52.12159 
z
" clip-path="url(#p006be85027)" style="fill: #ff7f0e"/>
   </g>
   <g id="patch_23">
    <path d="M 374.450142 106.553748 
L 383.611099 106.553748 
L 383.611099 52.728923 
L 374.450142 52.728923 
z
" clip-path="url(#p006be85027)" style="fill: #ff7f0e"/>
   </g>
   <g id="patch_24">
    <path d="M 420.254927 106.553748 
L 429.415884 106.553748 
L 429.415884 98.734345 
L 420.254927 98.734345 
z
" clip-path="url(#p006be85027)" style="fill: #ff7f0e"/>
   </g>
   <g id="patch_25">
    <path d="M 466.059712 106.553748 
L 475.220669 106.553748 
L 475.220669 98.202929 
L 466.059712 98.202929 
z
" clip-path="url(#p006be85027)" style="fill: #ff7f0e"/>
   </g>
   <g id="patch_26">
    <path d="M 511.864497 106.553748 
L 521.025454 106.553748 
L 521.025454 98.202929 
L 511.864497 98.202929 
z
" clip-path="url(#p006be85027)" style="fill: #ff7f0e"/>
   </g>
   <g id="patch_27">
    <path d="M 557.669281 106.553748 
L 566.830238 106.553748 
L 566.830238 97.216014 
L 557.669281 97.216014 
z
" clip-path="url(#p006be85027)" style="fill: #ff7f0e"/>
   </g>
   <g id="patch_28">
    <path d="M 603.474066 106.553748 
L 612.635023 106.553748 
L 612.635023 97.899263 
L 603.474066 97.899263 
z
" clip-path="url(#p006be85027)" style="fill: #ff7f0e"/>
   </g>
   <g id="matplotlib.axis_1">
    <g id="xtick_1">
     <g id="line2d_1">
      <path d="M 53.816649 106.553748 
L 53.816649 46.345661 
" clip-path="url(#p006be85027)" style="fill: none; stroke-dasharray: 0.925,0.4; stroke-dashoffset: 0; stroke: #b0b0b0; stroke-opacity: 0.7; stroke-width: 0.25"/>
     </g>
     <g id="line2d_2">
      <defs>
       <path id="mb917e1071f" d="M 0 0 
L 0 3.5 
" style="stroke: #000000; stroke-width: 0.2"/>
      </defs>
      <g>
       <use xlink:href="#mb917e1071f" x="53.816649" y="106.553748" style="stroke: #000000; stroke-width: 0.2"/>
      </g>
     </g>
     <g id="text_1">
      <!-- Word -->
      <g transform="translate(46.681859 117.204838) scale(0.06 -0.06)">
       <defs>
        <path id="CMSS17-57" d="M 5581 4416 
L 5094 4416 
L 4557 2437 
C 4474 2118 4397 1801 4320 1482 
C 4205 1011 4122 681 4109 515 
L 4102 515 
C 4090 687 4006 1049 3904 1457 
C 3827 1795 3744 2131 3654 2462 
L 3123 4416 
L 2586 4416 
L 2080 2562 
L 1824 1549 
C 1632 747 1626 632 1613 505 
L 1606 505 
C 1606 543 1581 753 1402 1498 
C 1312 1868 1222 2244 1126 2601 
L 634 4416 
L 83 4416 
L 1299 0 
L 1830 0 
L 2336 1839 
L 2592 2851 
C 2765 3564 2803 3742 2816 3901 
L 2822 3901 
C 2822 3876 2880 3474 3130 2545 
L 3808 0 
L 4365 0 
L 5581 4416 
z
" transform="scale(0.015625)"/>
        <path id="CMSS17-6f" d="M 2829 1356 
C 2829 2176 2221 2816 1504 2816 
C 768 2816 173 2157 173 1356 
C 173 544 787 -64 1498 -64 
C 2227 -64 2829 563 2829 1356 
z
M 1504 337 
C 1050 337 659 709 659 1408 
C 659 2151 1114 2427 1498 2427 
C 1914 2427 2342 2126 2342 1408 
C 2342 683 1926 337 1504 337 
z
" transform="scale(0.015625)"/>
        <path id="CMSS17-72" d="M 954 1363 
C 954 1965 1395 2368 1958 2368 
L 1958 2789 
C 1549 2789 1165 2585 934 2253 
L 934 2758 
L 480 2758 
L 480 0 
L 954 0 
L 954 1363 
z
" transform="scale(0.015625)"/>
        <path id="CMSS17-64" d="M 2611 4416 
L 2138 4416 
L 2138 2438 
C 1939 2603 1613 2756 1254 2756 
C 672 2756 211 2131 211 1347 
C 211 562 666 -64 1235 -64 
C 1677 -64 1971 172 2125 306 
L 2125 -13 
L 2611 -13 
L 2611 4416 
z
M 2125 836 
C 2125 747 2125 653 1926 482 
C 1798 375 1645 325 1498 325 
C 1152 325 698 576 698 1340 
C 698 2134 1210 2368 1562 2368 
C 1798 2368 1990 2254 2125 2065 
L 2125 836 
z
" transform="scale(0.015625)"/>
       </defs>
       <use xlink:href="#CMSS17-57" transform="scale(0.996264)"/>
       <use xlink:href="#CMSS17-6f" transform="translate(85.639712 0) scale(0.996264)"/>
       <use xlink:href="#CMSS17-72" transform="translate(129.880882 0) scale(0.996264)"/>
       <use xlink:href="#CMSS17-64" transform="translate(161.790654 0) scale(0.996264)"/>
      </g>
     </g>
    </g>
    <g id="xtick_2">
     <g id="line2d_3">
      <path d="M 99.621433 106.553748 
L 99.621433 46.345661 
" clip-path="url(#p006be85027)" style="fill: none; stroke-dasharray: 0.925,0.4; stroke-dashoffset: 0; stroke: #b0b0b0; stroke-opacity: 0.7; stroke-width: 0.25"/>
     </g>
     <g id="line2d_4">
      <g>
       <use xlink:href="#mb917e1071f" x="99.621433" y="106.553748" style="stroke: #000000; stroke-width: 0.2"/>
      </g>
     </g>
     <g id="text_2">
      <!-- Unicode Word (II) -->
      <g transform="translate(75.332003 117.536936) scale(0.06 -0.06)">
       <defs>
        <path id="CMSS17-55" d="M 3552 4384 
L 3066 4384 
L 3066 1449 
C 3066 604 2547 229 2074 229 
C 1587 229 1101 623 1101 1443 
L 1101 4384 
L 563 4384 
L 563 1454 
C 563 539 1274 -128 2067 -128 
C 2861 -128 3552 539 3552 1454 
L 3552 4384 
z
" transform="scale(0.015625)"/>
        <path id="CMSS17-6e" d="M 2618 1877 
C 2618 2283 2522 2816 1798 2816 
C 1389 2816 1120 2606 941 2389 
L 941 2758 
L 474 2758 
L 474 0 
L 960 0 
L 960 1559 
C 960 1964 1114 2428 1549 2428 
C 2112 2428 2131 2048 2131 1829 
L 2131 0 
L 2618 0 
L 2618 1877 
z
" transform="scale(0.015625)"/>
        <path id="CMSS17-69" d="M 979 4183 
L 442 4183 
L 442 3648 
L 979 3648 
L 979 4183 
z
M 947 2739 
L 474 2739 
L 474 0 
L 947 0 
L 947 2739 
z
" transform="scale(0.015625)"/>
        <path id="CMSS17-63" d="M 2464 2541 
C 2464 2585 2170 2714 2093 2739 
C 1882 2816 1613 2816 1542 2816 
C 710 2816 211 2093 211 1363 
C 211 595 768 -64 1517 -64 
C 1946 -64 2253 76 2502 242 
L 2464 664 
C 2189 453 1869 337 1523 337 
C 1024 337 698 774 698 1369 
C 698 1831 909 2414 1549 2414 
C 1901 2414 2099 2343 2394 2145 
L 2464 2541 
z
" transform="scale(0.015625)"/>
        <path id="CMSS17-65" d="M 2502 1377 
C 2502 1590 2490 2003 2285 2345 
C 2061 2713 1696 2816 1421 2816 
C 755 2816 192 2188 192 1375 
C 192 582 774 -64 1510 -64 
C 1798 -64 2150 19 2470 248 
C 2470 274 2458 414 2451 420 
C 2451 433 2432 630 2432 656 
C 2125 407 1773 325 1517 325 
C 1107 325 666 667 646 1377 
L 2502 1377 
z
M 698 1728 
C 781 2084 1062 2421 1421 2421 
C 1517 2421 1965 2421 2080 1728 
L 698 1728 
z
" transform="scale(0.015625)"/>
        <path id="CMSS17-28" d="M 1613 4768 
C 1267 4417 474 3601 474 1588 
C 474 -433 1267 -1243 1613 -1600 
L 2003 -1600 
C 1216 -784 960 357 960 1581 
C 960 2798 1203 3946 2003 4768 
L 1613 4768 
z
" transform="scale(0.015625)"/>
        <path id="CMSS17-49" d="M 1094 4416 
L 557 4416 
L 557 0 
L 1094 0 
L 1094 4416 
z
" transform="scale(0.015625)"/>
        <path id="CMSS17-29" d="M 723 -1600 
C 1069 -1249 1862 -433 1862 1581 
C 1862 3601 1069 4411 723 4768 
L 333 4768 
C 1120 3952 1376 2811 1376 1588 
C 1376 370 1133 -778 333 -1600 
L 723 -1600 
z
" transform="scale(0.015625)"/>
       </defs>
       <use xlink:href="#CMSS17-55" transform="scale(0.996264)"/>
       <use xlink:href="#CMSS17-6e" transform="translate(64.13974 0) scale(0.996264)"/>
       <use xlink:href="#CMSS17-69" transform="translate(112.344683 0) scale(0.996264)"/>
       <use xlink:href="#CMSS17-63" transform="translate(134.525406 0) scale(0.996264)"/>
       <use xlink:href="#CMSS17-6f" transform="translate(176.164229 0) scale(0.996264)"/>
       <use xlink:href="#CMSS17-64" transform="translate(225.610291 0) scale(0.996264)"/>
       <use xlink:href="#CMSS17-65" transform="translate(273.815234 0) scale(0.996264)"/>
       <use xlink:href="#CMSS17-57" transform="translate(346.683169 0) scale(0.996264)"/>
       <use xlink:href="#CMSS17-6f" transform="translate(432.322881 0) scale(0.996264)"/>
       <use xlink:href="#CMSS17-72" transform="translate(476.564051 0) scale(0.996264)"/>
       <use xlink:href="#CMSS17-64" transform="translate(508.473823 0) scale(0.996264)"/>
       <use xlink:href="#CMSS17-28" transform="translate(587.907879 0) scale(0.996264)"/>
       <use xlink:href="#CMSS17-49" transform="translate(624.341793 0) scale(0.996264)"/>
       <use xlink:href="#CMSS17-49" transform="translate(652.728157 0) scale(0.996264)"/>
       <use xlink:href="#CMSS17-29" transform="translate(678.512083 0) scale(0.996264)"/>
      </g>
     </g>
    </g>
    <g id="xtick_3">
     <g id="line2d_5">
      <path d="M 145.426218 106.553748 
L 145.426218 46.345661 
" clip-path="url(#p006be85027)" style="fill: none; stroke-dasharray: 0.925,0.4; stroke-dashoffset: 0; stroke: #b0b0b0; stroke-opacity: 0.7; stroke-width: 0.25"/>
     </g>
     <g id="line2d_6">
      <g>
       <use xlink:href="#mb917e1071f" x="145.426218" y="106.553748" style="stroke: #000000; stroke-width: 0.2"/>
      </g>
     </g>
     <g id="text_3">
      <!-- Unicode Word -->
      <g transform="translate(126.517724 117.204838) scale(0.06 -0.06)">
       <use xlink:href="#CMSS17-55" transform="scale(0.996264)"/>
       <use xlink:href="#CMSS17-6e" transform="translate(64.13974 0) scale(0.996264)"/>
       <use xlink:href="#CMSS17-69" transform="translate(112.344683 0) scale(0.996264)"/>
       <use xlink:href="#CMSS17-63" transform="translate(134.525406 0) scale(0.996264)"/>
       <use xlink:href="#CMSS17-6f" transform="translate(176.164229 0) scale(0.996264)"/>
       <use xlink:href="#CMSS17-64" transform="translate(225.610291 0) scale(0.996264)"/>
       <use xlink:href="#CMSS17-65" transform="translate(273.815234 0) scale(0.996264)"/>
       <use xlink:href="#CMSS17-57" transform="translate(346.683169 0) scale(0.996264)"/>
       <use xlink:href="#CMSS17-6f" transform="translate(432.322881 0) scale(0.996264)"/>
       <use xlink:href="#CMSS17-72" transform="translate(476.564051 0) scale(0.996264)"/>
       <use xlink:href="#CMSS17-64" transform="translate(508.473823 0) scale(0.996264)"/>
      </g>
     </g>
    </g>
    <g id="xtick_4">
     <g id="line2d_7">
      <path d="M 191.231003 106.553748 
L 191.231003 46.345661 
" clip-path="url(#p006be85027)" style="fill: none; stroke-dasharray: 0.925,0.4; stroke-dashoffset: 0; stroke: #b0b0b0; stroke-opacity: 0.7; stroke-width: 0.25"/>
     </g>
     <g id="line2d_8">
      <g>
       <use xlink:href="#mb917e1071f" x="191.231003" y="106.553748" style="stroke: #000000; stroke-width: 0.2"/>
      </g>
     </g>
     <g id="text_4">
      <!-- Unicode Greek -->
      <g transform="translate(171.881437 117.204838) scale(0.06 -0.06)">
       <defs>
        <path id="CMSS17-47" d="M 3610 1856 
L 2336 1856 
L 2336 1461 
L 3123 1461 
L 3123 471 
C 2874 401 2618 350 2362 350 
C 1466 350 934 1301 934 2200 
C 934 3095 1491 4032 2362 4032 
C 2854 4032 3130 3881 3469 3627 
L 3552 4134 
C 3130 4351 2867 4440 2387 4440 
C 1146 4440 397 3324 397 2182 
C 397 1090 1152 -64 2349 -64 
C 2797 -64 3213 51 3610 248 
L 3610 1856 
z
" transform="scale(0.015625)"/>
        <path id="CMSS17-6b" d="M 1696 1688 
L 2688 2739 
L 2074 2739 
L 954 1554 
L 954 4416 
L 480 4416 
L 480 0 
L 947 0 
L 947 892 
L 1376 1344 
L 2278 0 
L 2822 0 
L 1696 1688 
z
" transform="scale(0.015625)"/>
       </defs>
       <use xlink:href="#CMSS17-55" transform="scale(0.996264)"/>
       <use xlink:href="#CMSS17-6e" transform="translate(64.13974 0) scale(0.996264)"/>
       <use xlink:href="#CMSS17-69" transform="translate(112.344683 0) scale(0.996264)"/>
       <use xlink:href="#CMSS17-63" transform="translate(134.525406 0) scale(0.996264)"/>
       <use xlink:href="#CMSS17-6f" transform="translate(176.164229 0) scale(0.996264)"/>
       <use xlink:href="#CMSS17-64" transform="translate(225.610291 0) scale(0.996264)"/>
       <use xlink:href="#CMSS17-65" transform="translate(273.815234 0) scale(0.996264)"/>
       <use xlink:href="#CMSS17-47" transform="translate(346.683169 0) scale(0.996264)"/>
       <use xlink:href="#CMSS17-72" transform="translate(409.141394 0) scale(0.996264)"/>
       <use xlink:href="#CMSS17-65" transform="translate(441.051167 0) scale(0.996264)"/>
       <use xlink:href="#CMSS17-65" transform="translate(482.689989 0) scale(0.996264)"/>
       <use xlink:href="#CMSS17-6b" transform="translate(524.328811 0) scale(0.996264)"/>
      </g>
      <!-- (case insensitive) -->
      <g transform="translate(168.717255 123.746962) scale(0.06 -0.06)">
       <defs>
        <path id="CMSS17-61" d="M 2406 1791 
C 2406 2392 1978 2808 1402 2808 
C 1120 2808 813 2757 461 2553 
L 499 2135 
C 659 2248 934 2432 1395 2432 
C 1722 2432 1920 2180 1920 1782 
L 1920 1536 
C 896 1536 256 1238 256 726 
C 256 461 416 -64 947 -64 
C 1043 -64 1562 -64 1933 217 
L 1933 -19 
L 2406 -19 
L 2406 1791 
z
M 1920 816 
C 1920 701 1920 548 1728 434 
C 1562 325 1350 325 1261 325 
C 941 325 723 511 723 744 
C 723 1211 1722 1211 1920 1211 
L 1920 816 
z
" transform="scale(0.015625)"/>
        <path id="CMSS17-73" d="M 2061 2627 
C 1683 2807 1389 2807 1197 2807 
C 742 2807 198 2648 198 2003 
C 198 1359 902 1218 1094 1179 
C 1389 1122 1715 1058 1715 740 
C 1715 337 1254 337 1171 337 
C 915 337 563 407 243 638 
L 166 210 
C 531 0 883 -64 1178 -64 
C 1965 -64 2163 416 2163 781 
C 2163 1094 1984 1305 1862 1401 
C 1651 1568 1574 1587 1050 1696 
C 960 1709 646 1779 646 2066 
C 646 2432 1050 2432 1139 2432 
C 1555 2432 1811 2303 1984 2208 
L 2061 2627 
z
" transform="scale(0.015625)"/>
        <path id="CMSS17-74" d="M 1069 2368 
L 1901 2368 
L 1901 2737 
L 1069 2737 
L 1069 3520 
L 614 3520 
L 614 2737 
L 109 2737 
L 109 2368 
L 602 2368 
L 602 749 
C 602 384 685 -64 1107 -64 
C 1427 -64 1722 25 2003 172 
L 1901 548 
C 1747 414 1562 337 1363 337 
C 1082 337 1069 696 1069 856 
L 1069 2368 
z
" transform="scale(0.015625)"/>
        <path id="CMSS17-76" d="M 2675 2752 
L 2176 2752 
L 1747 1556 
C 1613 1165 1421 627 1389 352 
L 1382 352 
C 1370 468 1318 634 1286 749 
C 1248 890 1197 1056 1158 1172 
L 595 2752 
L 83 2752 
L 1094 0 
L 1664 0 
L 2675 2752 
z
" transform="scale(0.015625)"/>
       </defs>
       <use xlink:href="#CMSS17-28" transform="scale(0.996264)"/>
       <use xlink:href="#CMSS17-63" transform="translate(36.433914 0) scale(0.996264)"/>
       <use xlink:href="#CMSS17-61" transform="translate(78.072736 0) scale(0.996264)"/>
       <use xlink:href="#CMSS17-73" transform="translate(122.994657 0) scale(0.996264)"/>
       <use xlink:href="#CMSS17-65" transform="translate(158.908199 0) scale(0.996264)"/>
       <use xlink:href="#CMSS17-69" transform="translate(231.776134 0) scale(0.996264)"/>
       <use xlink:href="#CMSS17-6e" transform="translate(253.956857 0) scale(0.996264)"/>
       <use xlink:href="#CMSS17-73" transform="translate(302.1618 0) scale(0.996264)"/>
       <use xlink:href="#CMSS17-65" transform="translate(338.075342 0) scale(0.996264)"/>
       <use xlink:href="#CMSS17-6e" transform="translate(379.714164 0) scale(0.996264)"/>
       <use xlink:href="#CMSS17-73" transform="translate(427.919107 0) scale(0.996264)"/>
       <use xlink:href="#CMSS17-69" transform="translate(463.832649 0) scale(0.996264)"/>
       <use xlink:href="#CMSS17-74" transform="translate(486.013372 0) scale(0.996264)"/>
       <use xlink:href="#CMSS17-69" transform="translate(519.844939 0) scale(0.996264)"/>
       <use xlink:href="#CMSS17-76" transform="translate(542.025662 0) scale(0.996264)"/>
       <use xlink:href="#CMSS17-65" transform="translate(585.025804 0) scale(0.996264)"/>
       <use xlink:href="#CMSS17-29" transform="translate(626.664626 0) scale(0.996264)"/>
      </g>
     </g>
    </g>
    <g id="xtick_5">
     <g id="line2d_9">
      <path d="M 237.035788 106.553748 
L 237.035788 46.345661 
" clip-path="url(#p006be85027)" style="fill: none; stroke-dasharray: 0.925,0.4; stroke-dashoffset: 0; stroke: #b0b0b0; stroke-opacity: 0.7; stroke-width: 0.25"/>
     </g>
     <g id="line2d_10">
      <g>
       <use xlink:href="#mb917e1071f" x="237.035788" y="106.553748" style="stroke: #000000; stroke-width: 0.2"/>
      </g>
     </g>
     <g id="text_5">
      <!-- Unicode Greek -->
      <g transform="translate(217.686222 117.204838) scale(0.06 -0.06)">
       <use xlink:href="#CMSS17-55" transform="scale(0.996264)"/>
       <use xlink:href="#CMSS17-6e" transform="translate(64.13974 0) scale(0.996264)"/>
       <use xlink:href="#CMSS17-69" transform="translate(112.344683 0) scale(0.996264)"/>
       <use xlink:href="#CMSS17-63" transform="translate(134.525406 0) scale(0.996264)"/>
       <use xlink:href="#CMSS17-6f" transform="translate(176.164229 0) scale(0.996264)"/>
       <use xlink:href="#CMSS17-64" transform="translate(225.610291 0) scale(0.996264)"/>
       <use xlink:href="#CMSS17-65" transform="translate(273.815234 0) scale(0.996264)"/>
       <use xlink:href="#CMSS17-47" transform="translate(346.683169 0) scale(0.996264)"/>
       <use xlink:href="#CMSS17-72" transform="translate(409.141394 0) scale(0.996264)"/>
       <use xlink:href="#CMSS17-65" transform="translate(441.051167 0) scale(0.996264)"/>
       <use xlink:href="#CMSS17-65" transform="translate(482.689989 0) scale(0.996264)"/>
       <use xlink:href="#CMSS17-6b" transform="translate(524.328811 0) scale(0.996264)"/>
      </g>
     </g>
    </g>
    <g id="xtick_6">
     <g id="line2d_11">
      <path d="M 282.840573 106.553748 
L 282.840573 46.345661 
" clip-path="url(#p006be85027)" style="fill: none; stroke-dasharray: 0.925,0.4; stroke-dashoffset: 0; stroke: #b0b0b0; stroke-opacity: 0.7; stroke-width: 0.25"/>
     </g>
     <g id="line2d_12">
      <g>
       <use xlink:href="#mb917e1071f" x="282.840573" y="106.553748" style="stroke: #000000; stroke-width: 0.2"/>
      </g>
     </g>
     <g id="text_6">
      <!-- Regex Literal Suffix -->
      <g transform="translate(256.932205 117.204838) scale(0.06 -0.06)">
       <defs>
        <path id="CMSS17-52" d="M 2522 2109 
L 2534 2115 
C 3533 2459 3539 3147 3539 3268 
C 3539 3873 2925 4453 2003 4453 
L 570 4453 
L 570 32 
L 1094 32 
L 1094 2048 
L 2035 2048 
L 3168 32 
L 3706 32 
L 2522 2109 
z
M 1094 2437 
L 1094 4096 
L 1933 4096 
C 2746 4096 3034 3637 3034 3267 
C 3034 2922 2778 2437 1933 2437 
L 1094 2437 
z
" transform="scale(0.015625)"/>
        <path id="CMSS17-67" d="M 2848 2808 
C 2483 2808 2170 2738 1914 2617 
C 1702 2777 1485 2808 1338 2808 
C 781 2808 358 2349 358 1814 
C 358 1468 550 1207 563 1195 
C 448 1035 384 863 384 672 
C 384 448 474 289 544 200 
C 211 -3 166 -314 166 -435 
C 166 -898 749 -1280 1498 -1280 
C 2253 -1280 2835 -898 2835 -428 
C 2835 448 1856 448 1587 448 
L 1069 448 
C 973 448 717 448 717 791 
C 717 921 774 1004 781 1010 
C 877 940 1075 832 1338 832 
C 1869 832 2310 1278 2310 1827 
C 2310 2132 2170 2355 2112 2432 
L 2131 2432 
C 2150 2432 2419 2432 2515 2432 
C 2720 2432 2739 2429 2918 2419 
L 2848 2808 
z
M 1338 1182 
C 1120 1182 813 1315 813 1823 
C 813 2375 1165 2464 1331 2464 
C 1549 2464 1856 2331 1856 1823 
C 1856 1271 1504 1182 1338 1182 
z
M 1581 -10 
C 1734 -10 2381 -10 2381 -442 
C 2381 -714 1984 -929 1504 -929 
C 1018 -929 621 -720 621 -435 
C 621 -403 621 -10 1062 -10 
L 1581 -10 
z
" transform="scale(0.015625)"/>
        <path id="CMSS17-78" d="M 1587 1414 
L 2656 2739 
L 2099 2739 
L 1363 1777 
L 602 2739 
L 32 2739 
L 1139 1414 
L 0 0 
L 563 0 
L 1363 1121 
L 2195 0 
L 2758 0 
L 1587 1414 
z
" transform="scale(0.015625)"/>
        <path id="CMSS17-4c" d="M 1670 414 
C 1594 414 1517 414 1440 414 
L 1101 414 
L 1101 4416 
L 563 4416 
L 563 0 
L 3002 0 
L 3002 414 
L 1670 414 
z
" transform="scale(0.015625)"/>
        <path id="CMSS17-6c" d="M 947 4416 
L 474 4416 
L 474 0 
L 947 0 
L 947 4416 
z
" transform="scale(0.015625)"/>
        <path id="CMSS17-53" d="M 2797 4169 
C 2515 4334 2208 4480 1690 4480 
C 864 4480 333 3879 333 3266 
C 333 3025 403 2753 653 2475 
C 902 2196 1184 2121 1542 2033 
C 1690 1994 1939 1924 1984 1906 
C 2342 1767 2515 1444 2515 1140 
C 2515 742 2202 318 1645 318 
C 1453 318 890 318 358 819 
L 269 318 
C 794 -64 1363 -128 1651 -128 
C 2438 -128 3002 488 3002 1186 
C 3002 1440 2925 1763 2656 2061 
C 2394 2347 2163 2410 1638 2549 
C 1338 2626 1146 2677 986 2873 
C 877 3013 819 3146 819 3317 
C 819 3673 1126 4060 1690 4060 
C 1971 4060 2336 4002 2707 3660 
L 2797 4169 
z
" transform="scale(0.015625)"/>
        <path id="CMSS17-75" d="M 2618 2739 
L 2131 2739 
L 2131 972 
C 2131 498 1786 306 1421 306 
C 998 306 960 447 960 709 
L 960 2739 
L 474 2739 
L 474 678 
C 474 179 646 -64 1088 -64 
C 1306 -64 1798 -13 2144 306 
L 2144 0 
L 2618 0 
L 2618 2739 
z
" transform="scale(0.015625)"/>
        <path id="CMSS17-e" d="M 4422 4416 
L 3910 4416 
L 3910 3906 
L 4422 3906 
L 4422 4416 
z
M 4403 2737 
L 3930 2737 
L 3930 0 
L 4403 0 
L 4403 2737 
z
M 2739 2368 
L 3437 2368 
L 3437 2737 
L 2726 2737 
L 2726 3578 
C 2726 3919 2880 4092 3085 4092 
C 3226 4092 3360 4042 3437 3992 
L 3437 4416 
C 3322 4461 3270 4480 3085 4480 
C 2605 4480 2266 3995 2266 3376 
L 2266 0 
L 2739 0 
L 2739 2368 
z
M 1075 2368 
L 1773 2368 
L 1773 2737 
L 1062 2737 
L 1062 3565 
C 1062 3995 1325 4092 1510 4092 
C 1619 4092 1773 4070 1920 3999 
L 1920 4410 
C 1754 4480 1728 4480 1510 4480 
C 986 4480 602 3999 602 3366 
L 602 2737 
L 160 2737 
L 160 2368 
L 602 2368 
L 602 0 
L 1075 0 
L 1075 2368 
z
" transform="scale(0.015625)"/>
       </defs>
       <use xlink:href="#CMSS17-52" transform="scale(0.996264)"/>
       <use xlink:href="#CMSS17-65" transform="translate(60.416155 0) scale(0.996264)"/>
       <use xlink:href="#CMSS17-67" transform="translate(102.054977 0) scale(0.996264)"/>
       <use xlink:href="#CMSS17-65" transform="translate(148.8986 0) scale(0.996264)"/>
       <use xlink:href="#CMSS17-78" transform="translate(190.537423 0) scale(0.996264)"/>
       <use xlink:href="#CMSS17-4c" transform="translate(264.766677 0) scale(0.996264)"/>
       <use xlink:href="#CMSS17-69" transform="translate(315.453782 0) scale(0.996264)"/>
       <use xlink:href="#CMSS17-74" transform="translate(337.634505 0) scale(0.996264)"/>
       <use xlink:href="#CMSS17-65" transform="translate(371.466072 0) scale(0.996264)"/>
       <use xlink:href="#CMSS17-72" transform="translate(413.104894 0) scale(0.996264)"/>
       <use xlink:href="#CMSS17-61" transform="translate(445.014667 0) scale(0.996264)"/>
       <use xlink:href="#CMSS17-6c" transform="translate(489.936587 0) scale(0.996264)"/>
       <use xlink:href="#CMSS17-53" transform="translate(543.346423 0) scale(0.996264)"/>
       <use xlink:href="#CMSS17-75" transform="translate(595.394939 0) scale(0.996264)"/>
       <use xlink:href="#CMSS17-e" transform="translate(643.599882 0) scale(0.996264)"/>
       <use xlink:href="#CMSS17-78" transform="translate(719.750825 0) scale(0.996264)"/>
      </g>
     </g>
    </g>
    <g id="xtick_7">
     <g id="line2d_13">
      <path d="M 328.645357 106.553748 
L 328.645357 46.345661 
" clip-path="url(#p006be85027)" style="fill: none; stroke-dasharray: 0.925,0.4; stroke-dashoffset: 0; stroke: #b0b0b0; stroke-opacity: 0.7; stroke-width: 0.25"/>
     </g>
     <g id="line2d_14">
      <g>
       <use xlink:href="#mb917e1071f" x="328.645357" y="106.553748" style="stroke: #000000; stroke-width: 0.2"/>
      </g>
     </g>
     <g id="text_7">
      <!-- Literal mmap -->
      <g transform="translate(310.966657 117.204838) scale(0.06 -0.06)">
       <defs>
        <path id="CMSS17-6d" d="M 4288 1877 
C 4288 2308 4179 2816 3462 2816 
C 2982 2816 2694 2516 2566 2331 
C 2451 2670 2182 2816 1798 2816 
C 1363 2816 1088 2568 941 2389 
L 941 2758 
L 474 2758 
L 474 0 
L 960 0 
L 960 1559 
C 960 1939 1101 2428 1555 2428 
C 2138 2428 2138 2016 2138 1829 
L 2138 0 
L 2624 0 
L 2624 1559 
C 2624 1939 2765 2428 3219 2428 
C 3802 2428 3802 2016 3802 1829 
L 3802 0 
L 4288 0 
L 4288 1877 
z
" transform="scale(0.015625)"/>
        <path id="CMSS17-70" d="M 966 333 
C 1178 129 1466 -5 1773 -5 
C 2368 -5 2880 603 2880 1412 
C 2880 2159 2496 2816 1946 2816 
C 1626 2816 1242 2702 954 2472 
L 954 2765 
L 480 2765 
L 480 -1216 
L 966 -1216 
L 966 333 
z
M 966 2100 
C 1018 2176 1235 2415 1587 2415 
C 2035 2415 2394 1960 2394 1412 
C 2394 787 1958 384 1530 384 
C 1402 384 1267 415 1139 523 
C 966 674 966 768 966 857 
L 966 2100 
z
" transform="scale(0.015625)"/>
       </defs>
       <use xlink:href="#CMSS17-4c" transform="scale(0.996264)"/>
       <use xlink:href="#CMSS17-69" transform="translate(50.687105 0) scale(0.996264)"/>
       <use xlink:href="#CMSS17-74" transform="translate(72.867828 0) scale(0.996264)"/>
       <use xlink:href="#CMSS17-65" transform="translate(106.699395 0) scale(0.996264)"/>
       <use xlink:href="#CMSS17-72" transform="translate(148.338217 0) scale(0.996264)"/>
       <use xlink:href="#CMSS17-61" transform="translate(180.24799 0) scale(0.996264)"/>
       <use xlink:href="#CMSS17-6c" transform="translate(225.16991 0) scale(0.996264)"/>
       <use xlink:href="#CMSS17-6d" transform="translate(278.579746 0) scale(0.996264)"/>
       <use xlink:href="#CMSS17-6d" transform="translate(352.809001 0) scale(0.996264)"/>
       <use xlink:href="#CMSS17-61" transform="translate(427.038255 0) scale(0.996264)"/>
       <use xlink:href="#CMSS17-70" transform="translate(471.960176 0) scale(0.996264)"/>
      </g>
      <!-- (case insensitive) -->
      <g transform="translate(306.131609 123.746962) scale(0.06 -0.06)">
       <use xlink:href="#CMSS17-28" transform="scale(0.996264)"/>
       <use xlink:href="#CMSS17-63" transform="translate(36.433914 0) scale(0.996264)"/>
       <use xlink:href="#CMSS17-61" transform="translate(78.072736 0) scale(0.996264)"/>
       <use xlink:href="#CMSS17-73" transform="translate(122.994657 0) scale(0.996264)"/>
       <use xlink:href="#CMSS17-65" transform="translate(158.908199 0) scale(0.996264)"/>
       <use xlink:href="#CMSS17-69" transform="translate(231.776134 0) scale(0.996264)"/>
       <use xlink:href="#CMSS17-6e" transform="translate(253.956857 0) scale(0.996264)"/>
       <use xlink:href="#CMSS17-73" transform="translate(302.1618 0) scale(0.996264)"/>
       <use xlink:href="#CMSS17-65" transform="translate(338.075342 0) scale(0.996264)"/>
       <use xlink:href="#CMSS17-6e" transform="translate(379.714164 0) scale(0.996264)"/>
       <use xlink:href="#CMSS17-73" transform="translate(427.919107 0) scale(0.996264)"/>
       <use xlink:href="#CMSS17-69" transform="translate(463.832649 0) scale(0.996264)"/>
       <use xlink:href="#CMSS17-74" transform="translate(486.013372 0) scale(0.996264)"/>
       <use xlink:href="#CMSS17-69" transform="translate(519.844939 0) scale(0.996264)"/>
       <use xlink:href="#CMSS17-76" transform="translate(542.025662 0) scale(0.996264)"/>
       <use xlink:href="#CMSS17-65" transform="translate(585.025804 0) scale(0.996264)"/>
       <use xlink:href="#CMSS17-29" transform="translate(626.664626 0) scale(0.996264)"/>
      </g>
     </g>
    </g>
    <g id="xtick_8">
     <g id="line2d_15">
      <path d="M 374.450142 106.553748 
L 374.450142 46.345661 
" clip-path="url(#p006be85027)" style="fill: none; stroke-dasharray: 0.925,0.4; stroke-dashoffset: 0; stroke: #b0b0b0; stroke-opacity: 0.7; stroke-width: 0.25"/>
     </g>
     <g id="line2d_16">
      <g>
       <use xlink:href="#mb917e1071f" x="374.450142" y="106.553748" style="stroke: #000000; stroke-width: 0.2"/>
      </g>
     </g>
     <g id="text_8">
      <!-- Literal mmap -->
      <g transform="translate(356.771442 117.204838) scale(0.06 -0.06)">
       <use xlink:href="#CMSS17-4c" transform="scale(0.996264)"/>
       <use xlink:href="#CMSS17-69" transform="translate(50.687105 0) scale(0.996264)"/>
       <use xlink:href="#CMSS17-74" transform="translate(72.867828 0) scale(0.996264)"/>
       <use xlink:href="#CMSS17-65" transform="translate(106.699395 0) scale(0.996264)"/>
       <use xlink:href="#CMSS17-72" transform="translate(148.338217 0) scale(0.996264)"/>
       <use xlink:href="#CMSS17-61" transform="translate(180.24799 0) scale(0.996264)"/>
       <use xlink:href="#CMSS17-6c" transform="translate(225.16991 0) scale(0.996264)"/>
       <use xlink:href="#CMSS17-6d" transform="translate(278.579746 0) scale(0.996264)"/>
       <use xlink:href="#CMSS17-6d" transform="translate(352.809001 0) scale(0.996264)"/>
       <use xlink:href="#CMSS17-61" transform="translate(427.038255 0) scale(0.996264)"/>
       <use xlink:href="#CMSS17-70" transform="translate(471.960176 0) scale(0.996264)"/>
      </g>
     </g>
    </g>
    <g id="xtick_9">
     <g id="line2d_17">
      <path d="M 420.254927 106.553748 
L 420.254927 46.345661 
" clip-path="url(#p006be85027)" style="fill: none; stroke-dasharray: 0.925,0.4; stroke-dashoffset: 0; stroke: #b0b0b0; stroke-opacity: 0.7; stroke-width: 0.25"/>
     </g>
     <g id="line2d_18">
      <g>
       <use xlink:href="#mb917e1071f" x="420.254927" y="106.553748" style="stroke: #000000; stroke-width: 0.2"/>
      </g>
     </g>
     <g id="text_9">
      <!-- Literal -->
      <g transform="translate(411.843667 117.204838) scale(0.06 -0.06)">
       <use xlink:href="#CMSS17-4c" transform="scale(0.996264)"/>
       <use xlink:href="#CMSS17-69" transform="translate(50.687105 0) scale(0.996264)"/>
       <use xlink:href="#CMSS17-74" transform="translate(72.867828 0) scale(0.996264)"/>
       <use xlink:href="#CMSS17-65" transform="translate(106.699395 0) scale(0.996264)"/>
       <use xlink:href="#CMSS17-72" transform="translate(148.338217 0) scale(0.996264)"/>
       <use xlink:href="#CMSS17-61" transform="translate(180.24799 0) scale(0.996264)"/>
       <use xlink:href="#CMSS17-6c" transform="translate(225.16991 0) scale(0.996264)"/>
      </g>
      <!-- (default) -->
      <g transform="translate(408.693979 123.746962) scale(0.06 -0.06)">
       <defs>
        <path id="CMSS17-66" d="M 1075 2368 
L 1722 2368 
L 1722 2737 
L 1062 2737 
L 1062 3559 
C 1062 4014 1408 4092 1606 4092 
C 1670 4092 1850 4092 2080 4009 
L 2080 4429 
C 1933 4461 1754 4480 1613 4480 
C 1018 4480 602 3993 602 3359 
L 602 2737 
L 160 2737 
L 160 2368 
L 602 2368 
L 602 0 
L 1075 0 
L 1075 2368 
z
" transform="scale(0.015625)"/>
       </defs>
       <use xlink:href="#CMSS17-28" transform="scale(0.996264)"/>
       <use xlink:href="#CMSS17-64" transform="translate(36.433914 0) scale(0.996264)"/>
       <use xlink:href="#CMSS17-65" transform="translate(84.638857 0) scale(0.996264)"/>
       <use xlink:href="#CMSS17-66" transform="translate(126.277679 0) scale(0.996264)"/>
       <use xlink:href="#CMSS17-61" transform="translate(154.904338 0) scale(0.996264)"/>
       <use xlink:href="#CMSS17-75" transform="translate(199.826259 0) scale(0.996264)"/>
       <use xlink:href="#CMSS17-6c" transform="translate(248.031202 0) scale(0.996264)"/>
       <use xlink:href="#CMSS17-74" transform="translate(270.211925 0) scale(0.996264)"/>
       <use xlink:href="#CMSS17-29" transform="translate(304.043492 0) scale(0.996264)"/>
      </g>
     </g>
    </g>
    <g id="xtick_10">
     <g id="line2d_19">
      <path d="M 466.059712 106.553748 
L 466.059712 46.345661 
" clip-path="url(#p006be85027)" style="fill: none; stroke-dasharray: 0.925,0.4; stroke-dashoffset: 0; stroke: #b0b0b0; stroke-opacity: 0.7; stroke-width: 0.25"/>
     </g>
     <g id="line2d_20">
      <g>
       <use xlink:href="#mb917e1071f" x="466.059712" y="106.553748" style="stroke: #000000; stroke-width: 0.2"/>
      </g>
     </g>
     <g id="text_10">
      <!-- Literal -->
      <g transform="translate(457.648452 117.204838) scale(0.06 -0.06)">
       <use xlink:href="#CMSS17-4c" transform="scale(0.996264)"/>
       <use xlink:href="#CMSS17-69" transform="translate(50.687105 0) scale(0.996264)"/>
       <use xlink:href="#CMSS17-74" transform="translate(72.867828 0) scale(0.996264)"/>
       <use xlink:href="#CMSS17-65" transform="translate(106.699395 0) scale(0.996264)"/>
       <use xlink:href="#CMSS17-72" transform="translate(148.338217 0) scale(0.996264)"/>
       <use xlink:href="#CMSS17-61" transform="translate(180.24799 0) scale(0.996264)"/>
       <use xlink:href="#CMSS17-6c" transform="translate(225.16991 0) scale(0.996264)"/>
      </g>
      <!-- (case insensitive) -->
      <g transform="translate(443.545963 123.746962) scale(0.06 -0.06)">
       <use xlink:href="#CMSS17-28" transform="scale(0.996264)"/>
       <use xlink:href="#CMSS17-63" transform="translate(36.433914 0) scale(0.996264)"/>
       <use xlink:href="#CMSS17-61" transform="translate(78.072736 0) scale(0.996264)"/>
       <use xlink:href="#CMSS17-73" transform="translate(122.994657 0) scale(0.996264)"/>
       <use xlink:href="#CMSS17-65" transform="translate(158.908199 0) scale(0.996264)"/>
       <use xlink:href="#CMSS17-69" transform="translate(231.776134 0) scale(0.996264)"/>
       <use xlink:href="#CMSS17-6e" transform="translate(253.956857 0) scale(0.996264)"/>
       <use xlink:href="#CMSS17-73" transform="translate(302.1618 0) scale(0.996264)"/>
       <use xlink:href="#CMSS17-65" transform="translate(338.075342 0) scale(0.996264)"/>
       <use xlink:href="#CMSS17-6e" transform="translate(379.714164 0) scale(0.996264)"/>
       <use xlink:href="#CMSS17-73" transform="translate(427.919107 0) scale(0.996264)"/>
       <use xlink:href="#CMSS17-69" transform="translate(463.832649 0) scale(0.996264)"/>
       <use xlink:href="#CMSS17-74" transform="translate(486.013372 0) scale(0.996264)"/>
       <use xlink:href="#CMSS17-69" transform="translate(519.844939 0) scale(0.996264)"/>
       <use xlink:href="#CMSS17-76" transform="translate(542.025662 0) scale(0.996264)"/>
       <use xlink:href="#CMSS17-65" transform="translate(585.025804 0) scale(0.996264)"/>
       <use xlink:href="#CMSS17-29" transform="translate(626.664626 0) scale(0.996264)"/>
      </g>
     </g>
    </g>
    <g id="xtick_11">
     <g id="line2d_21">
      <path d="M 511.864497 106.553748 
L 511.864497 46.345661 
" clip-path="url(#p006be85027)" style="fill: none; stroke-dasharray: 0.925,0.4; stroke-dashoffset: 0; stroke: #b0b0b0; stroke-opacity: 0.7; stroke-width: 0.25"/>
     </g>
     <g id="line2d_22">
      <g>
       <use xlink:href="#mb917e1071f" x="511.864497" y="106.553748" style="stroke: #000000; stroke-width: 0.2"/>
      </g>
     </g>
     <g id="text_11">
      <!-- Literal -->
      <g transform="translate(503.453236 117.204838) scale(0.06 -0.06)">
       <use xlink:href="#CMSS17-4c" transform="scale(0.996264)"/>
       <use xlink:href="#CMSS17-69" transform="translate(50.687105 0) scale(0.996264)"/>
       <use xlink:href="#CMSS17-74" transform="translate(72.867828 0) scale(0.996264)"/>
       <use xlink:href="#CMSS17-65" transform="translate(106.699395 0) scale(0.996264)"/>
       <use xlink:href="#CMSS17-72" transform="translate(148.338217 0) scale(0.996264)"/>
       <use xlink:href="#CMSS17-61" transform="translate(180.24799 0) scale(0.996264)"/>
       <use xlink:href="#CMSS17-6c" transform="translate(225.16991 0) scale(0.996264)"/>
      </g>
     </g>
    </g>
    <g id="xtick_12">
     <g id="line2d_23">
      <path d="M 557.669281 106.553748 
L 557.669281 46.345661 
" clip-path="url(#p006be85027)" style="fill: none; stroke-dasharray: 0.925,0.4; stroke-dashoffset: 0; stroke: #b0b0b0; stroke-opacity: 0.7; stroke-width: 0.25"/>
     </g>
     <g id="line2d_24">
      <g>
       <use xlink:href="#mb917e1071f" x="557.669281" y="106.553748" style="stroke: #000000; stroke-width: 0.2"/>
      </g>
     </g>
     <g id="text_12">
      <!-- Alternates -->
      <g transform="translate(544.211257 117.204838) scale(0.06 -0.06)">
       <defs>
        <path id="CMSS17-41" d="M 2272 4416 
L 1722 4416 
L 166 0 
L 653 0 
L 1101 1280 
L 2816 1280 
L 3270 0 
L 3827 0 
L 2272 4416 
z
M 2694 1637 
L 1222 1637 
C 1530 2528 1914 3638 1958 3925 
L 1965 3925 
C 2010 3663 2138 3281 2246 2956 
L 2694 1637 
z
" transform="scale(0.015625)"/>
       </defs>
       <use xlink:href="#CMSS17-41" transform="scale(0.996264)"/>
       <use xlink:href="#CMSS17-6c" transform="translate(62.217855 0) scale(0.996264)"/>
       <use xlink:href="#CMSS17-74" transform="translate(84.398578 0) scale(0.996264)"/>
       <use xlink:href="#CMSS17-65" transform="translate(118.230145 0) scale(0.996264)"/>
       <use xlink:href="#CMSS17-72" transform="translate(159.868967 0) scale(0.996264)"/>
       <use xlink:href="#CMSS17-6e" transform="translate(191.778739 0) scale(0.996264)"/>
       <use xlink:href="#CMSS17-61" transform="translate(239.983682 0) scale(0.996264)"/>
       <use xlink:href="#CMSS17-74" transform="translate(284.905603 0) scale(0.996264)"/>
       <use xlink:href="#CMSS17-65" transform="translate(318.73717 0) scale(0.996264)"/>
       <use xlink:href="#CMSS17-73" transform="translate(360.375992 0) scale(0.996264)"/>
      </g>
      <!-- (case insensitive) -->
      <g transform="translate(535.155533 123.746962) scale(0.06 -0.06)">
       <use xlink:href="#CMSS17-28" transform="scale(0.996264)"/>
       <use xlink:href="#CMSS17-63" transform="translate(36.433914 0) scale(0.996264)"/>
       <use xlink:href="#CMSS17-61" transform="translate(78.072736 0) scale(0.996264)"/>
       <use xlink:href="#CMSS17-73" transform="translate(122.994657 0) scale(0.996264)"/>
       <use xlink:href="#CMSS17-65" transform="translate(158.908199 0) scale(0.996264)"/>
       <use xlink:href="#CMSS17-69" transform="translate(231.776134 0) scale(0.996264)"/>
       <use xlink:href="#CMSS17-6e" transform="translate(253.956857 0) scale(0.996264)"/>
       <use xlink:href="#CMSS17-73" transform="translate(302.1618 0) scale(0.996264)"/>
       <use xlink:href="#CMSS17-65" transform="translate(338.075342 0) scale(0.996264)"/>
       <use xlink:href="#CMSS17-6e" transform="translate(379.714164 0) scale(0.996264)"/>
       <use xlink:href="#CMSS17-73" transform="translate(427.919107 0) scale(0.996264)"/>
       <use xlink:href="#CMSS17-69" transform="translate(463.832649 0) scale(0.996264)"/>
       <use xlink:href="#CMSS17-74" transform="translate(486.013372 0) scale(0.996264)"/>
       <use xlink:href="#CMSS17-69" transform="translate(519.844939 0) scale(0.996264)"/>
       <use xlink:href="#CMSS17-76" transform="translate(542.025662 0) scale(0.996264)"/>
       <use xlink:href="#CMSS17-65" transform="translate(585.025804 0) scale(0.996264)"/>
       <use xlink:href="#CMSS17-29" transform="translate(626.664626 0) scale(0.996264)"/>
      </g>
     </g>
    </g>
    <g id="xtick_13">
     <g id="line2d_25">
      <path d="M 603.474066 106.553748 
L 603.474066 46.345661 
" clip-path="url(#p006be85027)" style="fill: none; stroke-dasharray: 0.925,0.4; stroke-dashoffset: 0; stroke: #b0b0b0; stroke-opacity: 0.7; stroke-width: 0.25"/>
     </g>
     <g id="line2d_26">
      <g>
       <use xlink:href="#mb917e1071f" x="603.474066" y="106.553748" style="stroke: #000000; stroke-width: 0.2"/>
      </g>
     </g>
     <g id="text_13">
      <!-- Alternates -->
      <g transform="translate(590.016042 117.204838) scale(0.06 -0.06)">
       <use xlink:href="#CMSS17-41" transform="scale(0.996264)"/>
       <use xlink:href="#CMSS17-6c" transform="translate(62.217855 0) scale(0.996264)"/>
       <use xlink:href="#CMSS17-74" transform="translate(84.398578 0) scale(0.996264)"/>
       <use xlink:href="#CMSS17-65" transform="translate(118.230145 0) scale(0.996264)"/>
       <use xlink:href="#CMSS17-72" transform="translate(159.868967 0) scale(0.996264)"/>
       <use xlink:href="#CMSS17-6e" transform="translate(191.778739 0) scale(0.996264)"/>
       <use xlink:href="#CMSS17-61" transform="translate(239.983682 0) scale(0.996264)"/>
       <use xlink:href="#CMSS17-74" transform="translate(284.905603 0) scale(0.996264)"/>
       <use xlink:href="#CMSS17-65" transform="translate(318.73717 0) scale(0.996264)"/>
       <use xlink:href="#CMSS17-73" transform="translate(360.375992 0) scale(0.996264)"/>
      </g>
     </g>
    </g>
   </g>
   <g id="matplotlib.axis_2">
    <g id="ytick_1">
     <g id="line2d_27">
      <path d="M 33.204495 106.553748 
L 624.086219 106.553748 
" clip-path="url(#p006be85027)" style="fill: none; stroke-dasharray: 0.925,0.4; stroke-dashoffset: 0; stroke: #b0b0b0; stroke-opacity: 0.7; stroke-width: 0.25"/>
     </g>
     <g id="line2d_28">
      <defs>
       <path id="madcb4ff167" d="M 0 0 
L -3.5 0 
" style="stroke: #000000; stroke-width: 0.2"/>
      </defs>
      <g>
       <use xlink:href="#madcb4ff167" x="33.204495" y="106.553748" style="stroke: #000000; stroke-width: 0.2"/>
      </g>
     </g>
     <g id="text_14">
      <!-- $\mathdefault{0}$ -->
      <g transform="translate(23.528858 108.629293) scale(0.06 -0.06)">
       <defs>
        <path id="CMSS17-30" d="M 2758 2044 
C 2758 2405 2752 3077 2490 3596 
C 2227 4096 1805 4229 1504 4229 
C 1069 4229 698 3975 506 3570 
C 301 3146 243 2709 243 2044 
C 243 1589 262 1031 493 543 
C 755 5 1197 -128 1498 -128 
C 1894 -128 2278 81 2496 518 
C 2720 974 2758 1474 2758 2044 
z
M 1498 261 
C 1011 261 864 811 819 995 
C 742 1310 730 1614 730 2114 
C 730 2506 730 2948 851 3297 
C 998 3701 1254 3840 1498 3840 
C 1971 3840 2125 3372 2176 3208 
C 2272 2873 2272 2481 2272 2114 
C 2272 1526 2272 261 1498 261 
z
" transform="scale(0.015625)"/>
       </defs>
       <use xlink:href="#CMSS17-30" transform="scale(0.996264)"/>
      </g>
     </g>
    </g>
    <g id="ytick_2">
     <g id="line2d_29">
      <path d="M 33.204495 91.370441 
L 624.086219 91.370441 
" clip-path="url(#p006be85027)" style="fill: none; stroke-dasharray: 0.925,0.4; stroke-dashoffset: 0; stroke: #b0b0b0; stroke-opacity: 0.7; stroke-width: 0.25"/>
     </g>
     <g id="line2d_30">
      <g>
       <use xlink:href="#madcb4ff167" x="33.204495" y="91.370441" style="stroke: #000000; stroke-width: 0.2"/>
      </g>
     </g>
     <g id="text_15">
      <!-- $\mathdefault{200}$ -->
      <g transform="translate(17.177584 93.445985) scale(0.06 -0.06)">
       <defs>
        <path id="CMSS17-32" d="M 1651 1357 
C 1830 1541 2099 1764 2285 1987 
C 2464 2204 2701 2511 2701 2957 
C 2701 3657 2227 4288 1421 4288 
C 787 4288 422 3893 250 3274 
L 499 2929 
C 640 3510 838 3880 1338 3880 
C 1888 3880 2195 3433 2195 2942 
C 2195 2355 1747 1901 1408 1563 
C 1030 1187 659 804 301 408 
L 301 0 
L 2701 0 
L 2701 433 
L 1613 433 
C 1536 433 1459 433 1382 433 
L 742 433 
L 742 439 
L 1651 1357 
z
" transform="scale(0.015625)"/>
       </defs>
       <use xlink:href="#CMSS17-32" transform="scale(0.996264)"/>
       <use xlink:href="#CMSS17-30" transform="translate(46.843624 0) scale(0.996264)"/>
       <use xlink:href="#CMSS17-30" transform="translate(93.687247 0) scale(0.996264)"/>
      </g>
     </g>
    </g>
    <g id="ytick_3">
     <g id="line2d_31">
      <path d="M 33.204495 76.187133 
L 624.086219 76.187133 
" clip-path="url(#p006be85027)" style="fill: none; stroke-dasharray: 0.925,0.4; stroke-dashoffset: 0; stroke: #b0b0b0; stroke-opacity: 0.7; stroke-width: 0.25"/>
     </g>
     <g id="line2d_32">
      <g>
       <use xlink:href="#madcb4ff167" x="33.204495" y="76.187133" style="stroke: #000000; stroke-width: 0.2"/>
      </g>
     </g>
     <g id="text_16">
      <!-- $\mathdefault{400}$ -->
      <g transform="translate(17.177584 78.262678) scale(0.06 -0.06)">
       <defs>
        <path id="CMSS17-34" d="M 2253 1088 
L 2835 1088 
L 2835 1477 
L 2253 1477 
L 2253 4192 
L 1690 4192 
L 166 1477 
L 166 1088 
L 1747 1088 
L 1747 0 
L 2253 0 
L 2253 1088 
z
M 659 1477 
C 1030 2127 1766 3439 1766 3885 
L 1766 1477 
L 659 1477 
z
" transform="scale(0.015625)"/>
       </defs>
       <use xlink:href="#CMSS17-34" transform="scale(0.996264)"/>
       <use xlink:href="#CMSS17-30" transform="translate(46.843624 0) scale(0.996264)"/>
       <use xlink:href="#CMSS17-30" transform="translate(93.687247 0) scale(0.996264)"/>
      </g>
     </g>
    </g>
    <g id="ytick_4">
     <g id="line2d_33">
      <path d="M 33.204495 61.003825 
L 624.086219 61.003825 
" clip-path="url(#p006be85027)" style="fill: none; stroke-dasharray: 0.925,0.4; stroke-dashoffset: 0; stroke: #b0b0b0; stroke-opacity: 0.7; stroke-width: 0.25"/>
     </g>
     <g id="line2d_34">
      <g>
       <use xlink:href="#madcb4ff167" x="33.204495" y="61.003825" style="stroke: #000000; stroke-width: 0.2"/>
      </g>
     </g>
     <g id="text_17">
      <!-- $\mathdefault{600}$ -->
      <g transform="translate(17.177584 63.07937) scale(0.06 -0.06)">
       <defs>
        <path id="CMSS17-36" d="M 2496 4101 
C 2227 4210 2035 4229 1856 4229 
C 1024 4229 250 3368 250 2006 
C 250 265 986 -128 1510 -128 
C 1798 -128 2086 -39 2362 280 
C 2643 617 2752 898 2752 1389 
C 2752 2179 2362 2880 1779 2880 
C 1357 2880 992 2657 768 2376 
C 832 3258 1254 3840 1862 3840 
C 2029 3840 2246 3816 2496 3710 
L 2496 4101 
z
M 774 1369 
C 774 1420 774 1452 781 1548 
C 781 2045 1069 2491 1536 2491 
C 1837 2491 1990 2332 2106 2135 
C 2240 1886 2246 1650 2246 1388 
C 2246 1140 2246 891 2099 637 
C 1978 439 1818 267 1510 267 
C 902 267 800 1114 774 1369 
z
" transform="scale(0.015625)"/>
       </defs>
       <use xlink:href="#CMSS17-36" transform="scale(0.996264)"/>
       <use xlink:href="#CMSS17-30" transform="translate(46.843624 0) scale(0.996264)"/>
       <use xlink:href="#CMSS17-30" transform="translate(93.687247 0) scale(0.996264)"/>
      </g>
     </g>
    </g>
    <g id="text_18">
     <!-- Wall-clock time (ms). Lower is better. -->
     <g transform="translate(11.683188 127.432059) rotate(-90) scale(0.06 -0.06)">
      <defs>
       <path id="CMSS17-2d" d="M 1664 1216 
L 1664 1585 
L 64 1585 
L 64 1216 
L 1664 1216 
z
" transform="scale(0.015625)"/>
       <path id="CMSS17-2e" d="M 1088 510 
L 576 510 
L 576 0 
L 1088 0 
L 1088 510 
z
" transform="scale(0.015625)"/>
       <path id="CMSS17-77" d="M 4013 2752 
L 3526 2752 
L 3187 1601 
C 3117 1358 2918 685 2893 371 
L 2886 371 
C 2874 564 2765 1024 2586 1633 
L 2259 2752 
L 1818 2752 
L 1498 1658 
C 1338 1101 1216 627 1203 371 
L 1197 371 
C 1171 749 909 1633 870 1773 
L 582 2752 
L 83 2752 
L 915 0 
L 1402 0 
C 1734 1096 1990 1943 2010 2370 
C 2022 2160 2131 1707 2195 1484 
L 2618 0 
L 3181 0 
L 4013 2752 
z
" transform="scale(0.015625)"/>
       <path id="CMSS17-62" d="M 954 4416 
L 480 4416 
L 480 -13 
L 966 -13 
L 966 274 
C 1210 38 1504 -64 1766 -64 
C 2381 -64 2880 549 2880 1352 
C 2880 2086 2496 2756 1926 2756 
C 1523 2756 1165 2591 954 2419 
L 954 4416 
z
M 966 2046 
C 1107 2222 1306 2368 1587 2368 
C 1965 2368 2394 2097 2394 1352 
C 2394 558 1882 325 1530 325 
C 1402 325 1267 356 1139 464 
C 966 615 966 709 966 797 
L 966 2046 
z
" transform="scale(0.015625)"/>
      </defs>
      <use xlink:href="#CMSS17-57" transform="scale(0.996264)"/>
      <use xlink:href="#CMSS17-61" transform="translate(85.639712 0) scale(0.996264)"/>
      <use xlink:href="#CMSS17-6c" transform="translate(130.561633 0) scale(0.996264)"/>
      <use xlink:href="#CMSS17-6c" transform="translate(152.742356 0) scale(0.996264)"/>
      <use xlink:href="#CMSS17-2d" transform="translate(174.923079 0) scale(0.996264)"/>
      <use xlink:href="#CMSS17-63" transform="translate(206.152192 0) scale(0.996264)"/>
      <use xlink:href="#CMSS17-6c" transform="translate(247.791014 0) scale(0.996264)"/>
      <use xlink:href="#CMSS17-6f" transform="translate(269.971737 0) scale(0.996264)"/>
      <use xlink:href="#CMSS17-63" transform="translate(319.417799 0) scale(0.996264)"/>
      <use xlink:href="#CMSS17-6b" transform="translate(361.056621 0) scale(0.996264)"/>
      <use xlink:href="#CMSS17-74" transform="translate(437.888223 0) scale(0.996264)"/>
      <use xlink:href="#CMSS17-69" transform="translate(471.71979 0) scale(0.996264)"/>
      <use xlink:href="#CMSS17-6d" transform="translate(493.900513 0) scale(0.996264)"/>
      <use xlink:href="#CMSS17-65" transform="translate(568.129767 0) scale(0.996264)"/>
      <use xlink:href="#CMSS17-28" transform="translate(640.997702 0) scale(0.996264)"/>
      <use xlink:href="#CMSS17-6d" transform="translate(677.431616 0) scale(0.996264)"/>
      <use xlink:href="#CMSS17-73" transform="translate(751.660871 0) scale(0.996264)"/>
      <use xlink:href="#CMSS17-29" transform="translate(787.574413 0) scale(0.996264)"/>
      <use xlink:href="#CMSS17-2e" transform="translate(824.008327 0) scale(0.996264)"/>
      <use xlink:href="#CMSS17-4c" transform="translate(891.671339 0) scale(0.996264)"/>
      <use xlink:href="#CMSS17-6f" transform="translate(942.358444 0) scale(0.996264)"/>
      <use xlink:href="#CMSS17-77" transform="translate(986.599614 0) scale(0.996264)"/>
      <use xlink:href="#CMSS17-65" transform="translate(1047.816705 0) scale(0.996264)"/>
      <use xlink:href="#CMSS17-72" transform="translate(1089.455527 0) scale(0.996264)"/>
      <use xlink:href="#CMSS17-69" transform="translate(1152.594412 0) scale(0.996264)"/>
      <use xlink:href="#CMSS17-73" transform="translate(1174.775135 0) scale(0.996264)"/>
      <use xlink:href="#CMSS17-62" transform="translate(1241.91779 0) scale(0.996264)"/>
      <use xlink:href="#CMSS17-65" transform="translate(1292.725172 0) scale(0.996264)"/>
      <use xlink:href="#CMSS17-74" transform="translate(1334.363994 0) scale(0.996264)"/>
      <use xlink:href="#CMSS17-74" transform="translate(1368.195561 0) scale(0.996264)"/>
      <use xlink:href="#CMSS17-65" transform="translate(1402.027127 0) scale(0.996264)"/>
      <use xlink:href="#CMSS17-72" transform="translate(1443.665949 0) scale(0.996264)"/>
      <use xlink:href="#CMSS17-2e" transform="translate(1475.575722 0) scale(0.996264)"/>
     </g>
    </g>
   </g>
   <g id="LineCollection_1">
    <path d="M 49.23617 80.218612 
L 49.23617 77.773478 
" clip-path="url(#p006be85027)" style="fill: none; stroke: #000000"/>
    <path d="M 95.040955 79.858314 
L 95.040955 77.526443 
" clip-path="url(#p006be85027)" style="fill: none; stroke: #000000"/>
    <path d="M 140.84574 79.164551 
L 140.84574 77.612874 
" clip-path="url(#p006be85027)" style="fill: none; stroke: #000000"/>
    <path d="M 186.650525 76.452766 
L 186.650525 73.492171 
" clip-path="url(#p006be85027)" style="fill: none; stroke: #000000"/>
    <path d="M 232.455309 76.959858 
L 232.455309 72.985079 
" clip-path="url(#p006be85027)" style="fill: none; stroke: #000000"/>
    <path d="M 278.260094 79.316384 
L 278.260094 77.764707 
" clip-path="url(#p006be85027)" style="fill: none; stroke: #000000"/>
    <path d="M 324.064879 48.483869 
L 324.064879 46.345661 
" clip-path="url(#p006be85027)" style="fill: none; stroke: #000000"/>
    <path d="M 369.869664 47.984114 
L 369.869664 46.997249 
" clip-path="url(#p006be85027)" style="fill: none; stroke: #000000"/>
    <path d="M 415.674449 80.514681 
L 415.674449 77.477409 
" clip-path="url(#p006be85027)" style="fill: none; stroke: #000000"/>
    <path d="M 461.479233 79.673859 
L 461.479233 78.166398 
" clip-path="url(#p006be85027)" style="fill: none; stroke: #000000"/>
    <path d="M 507.284018 80.158309 
L 507.284018 78.441113 
" clip-path="url(#p006be85027)" style="fill: none; stroke: #000000"/>
    <path d="M 553.088803 80.278474 
L 553.088803 78.017282 
" clip-path="url(#p006be85027)" style="fill: none; stroke: #000000"/>
    <path d="M 598.893588 79.673859 
L 598.893588 78.166398 
" clip-path="url(#p006be85027)" style="fill: none; stroke: #000000"/>
   </g>
   <g id="line2d_35">
    <defs>
     <path id="m4695e82f5d" d="M 1 0 
L -1 -0 
" style="stroke: #000000"/>
    </defs>
    <g clip-path="url(#p006be85027)">
     <use xlink:href="#m4695e82f5d" x="49.23617" y="80.218612" style="stroke: #000000"/>
     <use xlink:href="#m4695e82f5d" x="95.040955" y="79.858314" style="stroke: #000000"/>
     <use xlink:href="#m4695e82f5d" x="140.84574" y="79.164551" style="stroke: #000000"/>
     <use xlink:href="#m4695e82f5d" x="186.650525" y="76.452766" style="stroke: #000000"/>
     <use xlink:href="#m4695e82f5d" x="232.455309" y="76.959858" style="stroke: #000000"/>
     <use xlink:href="#m4695e82f5d" x="278.260094" y="79.316384" style="stroke: #000000"/>
     <use xlink:href="#m4695e82f5d" x="324.064879" y="48.483869" style="stroke: #000000"/>
     <use xlink:href="#m4695e82f5d" x="369.869664" y="47.984114" style="stroke: #000000"/>
     <use xlink:href="#m4695e82f5d" x="415.674449" y="80.514681" style="stroke: #000000"/>
     <use xlink:href="#m4695e82f5d" x="461.479233" y="79.673859" style="stroke: #000000"/>
     <use xlink:href="#m4695e82f5d" x="507.284018" y="80.158309" style="stroke: #000000"/>
     <use xlink:href="#m4695e82f5d" x="553.088803" y="80.278474" style="stroke: #000000"/>
     <use xlink:href="#m4695e82f5d" x="598.893588" y="79.673859" style="stroke: #000000"/>
    </g>
   </g>
   <g id="line2d_36">
    <g clip-path="url(#p006be85027)">
     <use xlink:href="#m4695e82f5d" x="49.23617" y="77.773478" style="stroke: #000000"/>
     <use xlink:href="#m4695e82f5d" x="95.040955" y="77.526443" style="stroke: #000000"/>
     <use xlink:href="#m4695e82f5d" x="140.84574" y="77.612874" style="stroke: #000000"/>
     <use xlink:href="#m4695e82f5d" x="186.650525" y="73.492171" style="stroke: #000000"/>
     <use xlink:href="#m4695e82f5d" x="232.455309" y="72.985079" style="stroke: #000000"/>
     <use xlink:href="#m4695e82f5d" x="278.260094" y="77.764707" style="stroke: #000000"/>
     <use xlink:href="#m4695e82f5d" x="324.064879" y="46.345661" style="stroke: #000000"/>
     <use xlink:href="#m4695e82f5d" x="369.869664" y="46.997249" style="stroke: #000000"/>
     <use xlink:href="#m4695e82f5d" x="415.674449" y="77.477409" style="stroke: #000000"/>
     <use xlink:href="#m4695e82f5d" x="461.479233" y="78.166398" style="stroke: #000000"/>
     <use xlink:href="#m4695e82f5d" x="507.284018" y="78.441113" style="stroke: #000000"/>
     <use xlink:href="#m4695e82f5d" x="553.088803" y="78.017282" style="stroke: #000000"/>
     <use xlink:href="#m4695e82f5d" x="598.893588" y="78.166398" style="stroke: #000000"/>
    </g>
   </g>
   <g id="LineCollection_2">
    <path d="M 58.397127 98.202929 
L 58.397127 98.202929 
" clip-path="url(#p006be85027)" style="fill: none; stroke: #000000"/>
    <path d="M 104.201912 98.202929 
L 104.201912 98.202929 
" clip-path="url(#p006be85027)" style="fill: none; stroke: #000000"/>
    <path d="M 150.006697 98.570712 
L 150.006697 97.835146 
" clip-path="url(#p006be85027)" style="fill: none; stroke: #000000"/>
    <path d="M 195.811482 86.98754 
L 195.811482 85.884191 
" clip-path="url(#p006be85027)" style="fill: none; stroke: #000000"/>
    <path d="M 241.616266 86.925057 
L 241.616266 85.491175 
" clip-path="url(#p006be85027)" style="fill: none; stroke: #000000"/>
    <path d="M 287.421051 98.525562 
L 287.421051 98.032129 
" clip-path="url(#p006be85027)" style="fill: none; stroke: #000000"/>
    <path d="M 333.225836 52.498456 
L 333.225836 51.744725 
" clip-path="url(#p006be85027)" style="fill: none; stroke: #000000"/>
    <path d="M 379.030621 53.304594 
L 379.030621 52.153251 
" clip-path="url(#p006be85027)" style="fill: none; stroke: #000000"/>
    <path d="M 424.835406 99.11121 
L 424.835406 98.357479 
" clip-path="url(#p006be85027)" style="fill: none; stroke: #000000"/>
    <path d="M 470.64019 98.202929 
L 470.64019 98.202929 
" clip-path="url(#p006be85027)" style="fill: none; stroke: #000000"/>
    <path d="M 516.444975 98.202929 
L 516.444975 98.202929 
" clip-path="url(#p006be85027)" style="fill: none; stroke: #000000"/>
    <path d="M 562.24976 97.592879 
L 562.24976 96.839149 
" clip-path="url(#p006be85027)" style="fill: none; stroke: #000000"/>
    <path d="M 608.054545 98.302149 
L 608.054545 97.496377 
" clip-path="url(#p006be85027)" style="fill: none; stroke: #000000"/>
   </g>
   <g id="line2d_37">
    <g clip-path="url(#p006be85027)">
     <use xlink:href="#m4695e82f5d" x="58.397127" y="98.202929" style="stroke: #000000"/>
     <use xlink:href="#m4695e82f5d" x="104.201912" y="98.202929" style="stroke: #000000"/>
     <use xlink:href="#m4695e82f5d" x="150.006697" y="98.570712" style="stroke: #000000"/>
     <use xlink:href="#m4695e82f5d" x="195.811482" y="86.98754" style="stroke: #000000"/>
     <use xlink:href="#m4695e82f5d" x="241.616266" y="86.925057" style="stroke: #000000"/>
     <use xlink:href="#m4695e82f5d" x="287.421051" y="98.525562" style="stroke: #000000"/>
     <use xlink:href="#m4695e82f5d" x="333.225836" y="52.498456" style="stroke: #000000"/>
     <use xlink:href="#m4695e82f5d" x="379.030621" y="53.304594" style="stroke: #000000"/>
     <use xlink:href="#m4695e82f5d" x="424.835406" y="99.11121" style="stroke: #000000"/>
     <use xlink:href="#m4695e82f5d" x="470.64019" y="98.202929" style="stroke: #000000"/>
     <use xlink:href="#m4695e82f5d" x="516.444975" y="98.202929" style="stroke: #000000"/>
     <use xlink:href="#m4695e82f5d" x="562.24976" y="97.592879" style="stroke: #000000"/>
     <use xlink:href="#m4695e82f5d" x="608.054545" y="98.302149" style="stroke: #000000"/>
    </g>
   </g>
   <g id="line2d_38">
    <g clip-path="url(#p006be85027)">
     <use xlink:href="#m4695e82f5d" x="58.397127" y="98.202929" style="stroke: #000000"/>
     <use xlink:href="#m4695e82f5d" x="104.201912" y="98.202929" style="stroke: #000000"/>
     <use xlink:href="#m4695e82f5d" x="150.006697" y="97.835146" style="stroke: #000000"/>
     <use xlink:href="#m4695e82f5d" x="195.811482" y="85.884191" style="stroke: #000000"/>
     <use xlink:href="#m4695e82f5d" x="241.616266" y="85.491175" style="stroke: #000000"/>
     <use xlink:href="#m4695e82f5d" x="287.421051" y="98.032129" style="stroke: #000000"/>
     <use xlink:href="#m4695e82f5d" x="333.225836" y="51.744725" style="stroke: #000000"/>
     <use xlink:href="#m4695e82f5d" x="379.030621" y="52.153251" style="stroke: #000000"/>
     <use xlink:href="#m4695e82f5d" x="424.835406" y="98.357479" style="stroke: #000000"/>
     <use xlink:href="#m4695e82f5d" x="470.64019" y="98.202929" style="stroke: #000000"/>
     <use xlink:href="#m4695e82f5d" x="516.444975" y="98.202929" style="stroke: #000000"/>
     <use xlink:href="#m4695e82f5d" x="562.24976" y="96.839149" style="stroke: #000000"/>
     <use xlink:href="#m4695e82f5d" x="608.054545" y="97.496377" style="stroke: #000000"/>
    </g>
   </g>
   <g id="line2d_39">
    <path d="M 33.204495 74.834252 
L 624.086219 74.834252 
" clip-path="url(#p006be85027)" style="fill: none; stroke-dasharray: 2.96,1.28; stroke-dashoffset: 0; stroke: #152238; stroke-opacity: 0.7; stroke-width: 0.8"/>
   </g>
   <g id="line2d_40">
    <path d="M 33.204495 93.730643 
L 624.086219 93.730643 
" clip-path="url(#p006be85027)" style="fill: none; stroke-dasharray: 0.8,1.32; stroke-dashoffset: 0; stroke: #d85128; stroke-opacity: 0.7; stroke-width: 0.8"/>
   </g>
   <g id="patch_29">
    <path d="M 33.204495 106.553748 
L 33.204495 46.345661 
" style="fill: none; stroke: #000000; stroke-width: 0.5; stroke-linejoin: miter; stroke-linecap: square"/>
   </g>
   <g id="patch_30">
    <path d="M 33.204495 106.553748 
L 624.086219 106.553748 
" style="fill: none; stroke: #000000; stroke-width: 0.5; stroke-linejoin: miter; stroke-linecap: square"/>
   </g>
   <g id="legend_1">
    <g id="patch_31">
     <path d="M 247.937434 36.154121 
L 409.353281 36.154121 
Q 410.553281 36.154121 410.553281 34.954121 
L 410.553281 8.4 
Q 410.553281 7.2 409.353281 7.2 
L 247.937434 7.2 
Q 246.737434 7.2 246.737434 8.4 
L 246.737434 34.954121 
Q 246.737434 36.154121 247.937434 36.154121 
z
" style="fill: #ffffff; opacity: 0.8; stroke: #808080; stroke-width: 0.5; stroke-linejoin: miter"/>
    </g>
    <g id="text_19">
     <!-- \textsc{ripgrep} -->
     <g transform="translate(315.047599 14.442938) scale(0.07 -0.07)">
      <defs>
       <path id="CMCSC10-72" d="M 1190 2881 
C 1190 3040 1203 3103 1267 3135 
C 1312 3155 1485 3155 1600 3155 
C 2074 3155 2618 3155 2618 2465 
C 2618 2212 2586 1748 1754 1748 
L 1190 1748 
L 1190 2881 
z
M 2323 1664 
C 2771 1780 3168 2069 3168 2461 
C 3168 2911 2598 3328 1824 3328 
L 288 3328 
L 288 3168 
C 717 3168 749 3129 749 2867 
L 749 493 
C 749 230 717 192 288 192 
L 288 37 
C 480 37 787 37 966 37 
C 1152 37 1485 37 1651 37 
L 1651 192 
C 1222 192 1190 230 1190 492 
L 1190 1600 
L 1766 1600 
C 1926 1600 2093 1600 2291 1401 
C 2426 1260 2426 1105 2426 823 
C 2426 463 2426 347 2630 148 
C 2746 32 3002 -64 3290 -64 
C 3699 -64 3795 337 3795 466 
C 3795 499 3795 563 3712 563 
C 3642 563 3635 504 3635 478 
C 3590 77 3360 77 3315 77 
C 3187 77 3130 161 3091 232 
C 3040 334 3002 514 2918 925 
C 2867 1150 2803 1478 2323 1664 
z
" transform="scale(0.015625)"/>
       <path id="CMCSC10-69" d="M 1197 2871 
C 1197 3149 1229 3181 1683 3181 
L 1683 3328 
C 1466 3328 1133 3328 966 3328 
C 800 3328 467 3328 250 3328 
L 250 3181 
C 704 3181 736 3149 736 2871 
L 736 501 
C 736 224 704 192 250 192 
L 250 37 
C 467 37 800 37 966 37 
C 1133 37 1466 37 1683 37 
L 1683 192 
C 1229 192 1197 224 1197 501 
L 1197 2871 
z
" transform="scale(0.015625)"/>
       <path id="CMCSC10-70" d="M 2067 1536 
C 2707 1536 3245 1939 3245 2426 
C 3245 2887 2758 3328 2022 3328 
L 288 3328 
L 288 3168 
C 717 3168 749 3129 749 2867 
L 749 493 
C 749 230 717 192 288 192 
L 288 37 
C 474 37 838 37 979 37 
C 1120 37 1478 37 1670 37 
L 1670 192 
C 1242 192 1210 230 1210 494 
L 1210 1536 
L 2067 1536 
z
M 1190 2892 
C 1190 3148 1222 3168 1446 3168 
L 1888 3168 
C 2694 3168 2694 2681 2694 2425 
C 2694 2177 2694 1684 1888 1684 
L 1190 1684 
L 1190 2892 
z
" transform="scale(0.015625)"/>
       <path id="CMCSC10-67" d="M 3450 3240 
C 3450 3342 3450 3392 3386 3392 
C 3347 3392 3341 3379 3290 3316 
L 3040 2991 
C 2803 3252 2464 3392 2112 3392 
C 1158 3392 326 2640 326 1664 
C 326 714 1126 -64 2125 -64 
C 2349 -64 2822 -64 3072 312 
C 3130 221 3322 19 3392 19 
C 3450 19 3450 72 3450 169 
L 3450 904 
C 3450 1158 3475 1196 3808 1196 
L 3808 1344 
C 3597 1344 3341 1344 3174 1344 
C 2944 1344 2573 1344 2349 1357 
L 2349 1196 
L 2477 1196 
C 2963 1196 2989 1125 2989 865 
L 2989 669 
C 2989 519 2989 364 2733 214 
C 2592 130 2374 84 2189 84 
C 1798 84 877 295 877 1657 
C 877 3059 1843 3232 2157 3232 
C 2624 3232 3162 2903 3283 2098 
C 3296 2053 3302 2015 3366 2015 
C 3450 2015 3450 2047 3450 2167 
L 3450 3240 
z
" transform="scale(0.015625)"/>
       <path id="CMCSC10-65" d="M 3123 3328 
L 275 3328 
L 275 3167 
C 704 3167 736 3129 736 2864 
L 736 495 
C 736 230 704 192 275 192 
L 275 31 
L 3200 31 
L 3386 1274 
L 3226 1274 
C 3117 499 2963 192 2144 192 
L 1453 192 
C 1229 192 1197 211 1197 466 
L 1197 1664 
L 1645 1664 
C 2118 1664 2195 1532 2195 1089 
L 2355 1089 
L 2355 2368 
L 2195 2368 
C 2195 1950 2118 1825 1645 1825 
L 1197 1825 
L 1197 2890 
C 1197 3148 1229 3167 1453 3167 
L 2106 3167 
C 2848 3167 3014 2939 3085 2224 
L 3245 2224 
L 3123 3328 
z
" transform="scale(0.015625)"/>
      </defs>
      <use xlink:href="#CMCSC10-72" transform="scale(0.996264)"/>
      <use xlink:href="#CMCSC10-69" transform="translate(59.997057 0) scale(0.996264)"/>
      <use xlink:href="#CMCSC10-70" transform="translate(90.10627 0) scale(0.996264)"/>
      <use xlink:href="#CMCSC10-67" transform="translate(145.675427 0) scale(0.996264)"/>
      <use xlink:href="#CMCSC10-72" transform="translate(209.54675 0) scale(0.996264)"/>
      <use xlink:href="#CMCSC10-65" transform="translate(269.543807 0) scale(0.996264)"/>
      <use xlink:href="#CMCSC10-70" transform="translate(325.112964 0) scale(0.996264)"/>
     </g>
    </g>
    <g id="patch_32">
     <path d="M 249.137434 23.28214 
L 261.137434 23.28214 
L 261.137434 19.08214 
L 249.137434 19.08214 
z
" style="fill: #1f77b4"/>
    </g>
    <g id="text_20">
     <!-- Alloy -->
     <g transform="translate(265.937434 23.28214) scale(0.06 -0.06)">
      <defs>
       <path id="CMSS17-79" d="M 2675 2752 
L 2176 2752 
C 1632 1294 1446 702 1434 383 
L 1427 383 
C 1408 696 1126 1460 902 2007 
L 602 2752 
L 83 2752 
L 1216 13 
C 1146 -178 1043 -465 1011 -529 
C 870 -885 774 -885 672 -885 
C 646 -885 442 -885 211 -809 
L 250 -1229 
C 410 -1261 570 -1280 685 -1280 
C 845 -1280 1165 -1280 1459 -497 
L 2675 2752 
z
" transform="scale(0.015625)"/>
      </defs>
      <use xlink:href="#CMSS17-41" transform="scale(0.996264)"/>
      <use xlink:href="#CMSS17-6c" transform="translate(62.217855 0) scale(0.996264)"/>
      <use xlink:href="#CMSS17-6c" transform="translate(84.398578 0) scale(0.996264)"/>
      <use xlink:href="#CMSS17-6f" transform="translate(106.579301 0) scale(0.996264)"/>
      <use xlink:href="#CMSS17-79" transform="translate(150.820471 0) scale(0.996264)"/>
     </g>
    </g>
    <g id="patch_33">
     <path d="M 249.137434 31.644438 
L 261.137434 31.644438 
L 261.137434 27.444438 
L 249.137434 27.444438 
z
" style="fill: #ff7f0e"/>
    </g>
    <g id="text_21">
     <!-- \texttt{Arc&lt;T&gt;} -->
     <g transform="translate(265.937434 31.644438) scale(0.06 -0.06)">
      <defs>
       <path id="CMTT12-41" d="M 1971 3770 
C 1920 4000 1792 4000 1645 4000 
C 1446 4000 1370 3974 1325 3770 
L 531 371 
C 320 371 173 371 173 186 
C 173 0 346 0 435 0 
L 1050 0 
C 1139 0 1312 0 1312 186 
C 1312 371 1158 371 960 371 
L 1126 1088 
L 2163 1088 
L 2330 371 
C 2131 371 1978 371 1978 186 
C 1978 0 2150 0 2240 0 
L 2854 0 
C 2944 0 3117 0 3117 186 
C 3117 371 2970 371 2758 371 
L 1971 3770 
z
M 1210 1459 
C 1254 1651 1606 3162 1638 3469 
L 1645 3469 
C 1664 3322 1754 2931 1754 2925 
L 2080 1459 
L 1210 1459 
z
" transform="scale(0.015625)"/>
       <path id="CMTT12-72" d="M 1382 1212 
C 1382 1976 1920 2432 2464 2432 
C 2496 2432 2534 2432 2566 2425 
C 2586 2185 2765 2165 2810 2165 
C 2957 2165 3059 2275 3059 2418 
C 3059 2698 2790 2803 2470 2803 
C 2042 2803 1677 2607 1382 2241 
L 1382 2491 
C 1382 2688 1344 2752 1126 2752 
L 480 2752 
C 390 2752 224 2752 224 2567 
C 224 2381 390 2381 480 2381 
L 966 2381 
L 966 371 
L 480 371 
C 390 371 224 371 224 186 
C 224 0 390 0 480 0 
L 2054 0 
C 2144 0 2310 0 2310 186 
C 2310 371 2144 371 2054 371 
L 1382 371 
L 1382 1212 
z
" transform="scale(0.015625)"/>
       <path id="CMTT12-63" d="M 2918 702 
C 2918 868 2758 868 2707 868 
C 2560 868 2534 817 2502 728 
C 2362 377 2048 339 1894 339 
C 1350 339 890 792 890 1385 
C 890 1711 1075 2445 1914 2445 
C 2086 2445 2221 2432 2278 2426 
C 2323 2413 2330 2405 2330 2373 
C 2349 2107 2547 2107 2586 2107 
C 2726 2107 2848 2203 2848 2375 
C 2848 2816 2202 2816 1920 2816 
C 826 2816 474 1922 474 1385 
C 474 607 1069 -32 1837 -32 
C 2694 -32 2918 600 2918 702 
z
" transform="scale(0.015625)"/>
       <path id="CMTT12-3c" d="M 2803 3155 
C 2867 3200 2938 3238 2938 3353 
C 2938 3488 2822 3565 2726 3565 
L 2714 3558 
C 2662 3552 2650 3552 2579 3501 
L 474 2169 
C 397 2125 352 2054 352 1977 
C 352 1862 422 1817 474 1785 
L 2573 448 
C 2618 422 2669 384 2726 384 
C 2822 384 2938 461 2938 595 
C 2938 672 2899 736 2829 781 
L 947 1971 
L 2803 3155 
z
" transform="scale(0.015625)"/>
       <path id="CMTT12-54" d="M 1856 3533 
L 2707 3533 
L 2707 3221 
C 2707 3105 2707 2958 2912 2958 
C 3123 2958 3123 3099 3123 3221 
L 3123 3642 
C 3123 3840 3085 3904 2867 3904 
L 429 3904 
C 218 3904 166 3853 166 3642 
L 166 3221 
C 166 3105 166 2958 371 2958 
C 582 2958 582 3099 582 3221 
L 582 3533 
L 1440 3533 
L 1440 371 
L 1133 371 
C 1043 371 877 371 877 186 
C 877 0 1043 0 1133 0 
L 2163 0 
C 2253 0 2419 0 2419 186 
C 2419 371 2253 371 2163 371 
L 1856 371 
L 1856 3533 
z
" transform="scale(0.015625)"/>
       <path id="CMTT12-3e" d="M 2816 1779 
C 2893 1824 2938 1894 2938 1971 
C 2938 2086 2867 2131 2816 2163 
L 717 3501 
C 672 3526 621 3565 563 3565 
C 467 3565 352 3488 352 3353 
C 352 3238 422 3200 486 3155 
L 2342 1978 
L 486 793 
C 422 749 352 710 352 595 
C 352 461 467 384 563 384 
L 576 390 
C 627 397 640 397 710 448 
L 2816 1779 
z
" transform="scale(0.015625)"/>
      </defs>
      <use xlink:href="#CMTT12-41" transform="scale(0.996264)"/>
      <use xlink:href="#CMTT12-72" transform="translate(51.266111 0) scale(0.996264)"/>
      <use xlink:href="#CMTT12-63" transform="translate(102.532222 0) scale(0.996264)"/>
      <use xlink:href="#CMTT12-3c" transform="translate(153.798333 0) scale(0.996264)"/>
      <use xlink:href="#CMTT12-54" transform="translate(205.064443 0) scale(0.996264)"/>
      <use xlink:href="#CMTT12-3e" transform="translate(256.330554 0) scale(0.996264)"/>
     </g>
    </g>
    <g id="line2d_41">
     <path d="M 296.991257 21.18214 
L 302.991257 21.18214 
L 308.991257 21.18214 
" style="fill: none; stroke-dasharray: 2.96,1.28; stroke-dashoffset: 0; stroke: #152238; stroke-opacity: 0.7; stroke-width: 0.8"/>
    </g>
    <g id="text_22">
     <!-- G.mean: 417.82ms (392.48-444.80) -->
     <g transform="translate(313.791257 23.28214) scale(0.06 -0.06)">
      <defs>
       <path id="CMSS17-3a" d="M 1088 2749 
L 576 2749 
L 576 2240 
L 1088 2240 
L 1088 2749 
z
M 576 510 
L 576 0 
L 1088 0 
L 1088 510 
L 576 510 
z
" transform="scale(0.015625)"/>
       <path id="CMSS17-31" d="M 1818 4288 
L 1696 4288 
C 1350 3940 947 3890 538 3890 
L 538 3520 
C 723 3520 1024 3520 1325 3667 
L 1325 369 
L 570 369 
L 570 0 
L 2573 0 
L 2573 369 
L 1818 369 
L 1818 4288 
z
" transform="scale(0.015625)"/>
       <path id="CMSS17-37" d="M 1389 3776 
C 1466 3776 1542 3776 1619 3776 
L 2355 3776 
C 1440 2711 915 1365 915 -32 
L 1427 -32 
C 1427 1323 1875 2696 2752 3795 
L 2752 4209 
L 250 4209 
L 250 3776 
L 1389 3776 
z
" transform="scale(0.015625)"/>
       <path id="CMSS17-38" d="M 1933 2222 
C 2419 2380 2669 2760 2669 3134 
C 2669 3722 2157 4229 1504 4229 
C 826 4229 333 3708 333 3144 
C 333 2780 576 2403 1069 2241 
C 442 1997 250 1512 250 1149 
C 250 446 819 -128 1498 -128 
C 2202 -128 2752 455 2752 1138 
C 2752 1557 2502 2000 1933 2222 
z
M 1504 2432 
C 1075 2432 787 2712 787 3136 
C 787 3566 1075 3840 1504 3840 
C 1901 3840 2214 3591 2214 3136 
C 2214 2687 1907 2432 1504 2432 
z
M 1504 267 
C 1139 267 749 517 749 1156 
C 749 1813 1184 2043 1498 2043 
C 1843 2043 2253 1800 2253 1156 
C 2253 491 1830 267 1504 267 
z
" transform="scale(0.015625)"/>
       <path id="CMSS17-33" d="M 1005 2025 
L 1440 2025 
C 2042 2025 2214 1507 2214 1146 
C 2214 653 1933 267 1472 267 
C 1114 267 608 444 320 912 
C 275 691 275 678 250 526 
C 550 88 1037 -128 1485 -128 
C 2214 -128 2752 473 2752 1138 
C 2752 1638 2400 2057 1920 2215 
C 2304 2424 2586 2816 2586 3273 
C 2586 3805 2093 4229 1491 4229 
C 941 4229 512 3892 333 3530 
C 378 3468 493 3284 550 3189 
C 691 3562 1056 3840 1485 3840 
C 1843 3840 2080 3607 2080 3271 
C 2080 2923 1856 2543 1478 2455 
C 1453 2455 1056 2417 1005 2411 
L 1005 2025 
z
" transform="scale(0.015625)"/>
       <path id="CMSS17-39" d="M 435 174 
C 614 21 845 -128 1235 -128 
C 2010 -128 2752 721 2752 2095 
C 2752 3932 1952 4229 1523 4229 
C 1094 4229 819 4041 582 3741 
C 301 3397 250 3090 250 2733 
C 250 2307 326 2045 506 1745 
C 749 1357 973 1275 1222 1275 
C 1600 1275 1978 1459 2234 1776 
C 2189 902 1798 267 1235 267 
C 1005 267 819 339 634 516 
L 435 174 
z
M 2214 2746 
C 2221 2703 2221 2622 2221 2596 
C 2221 2074 1914 1664 1466 1664 
C 1171 1664 1018 1813 902 2006 
C 762 2249 755 2485 755 2733 
C 755 2976 755 3244 934 3511 
C 1069 3703 1235 3840 1523 3840 
C 2112 3840 2208 3000 2214 2746 
z
" transform="scale(0.015625)"/>
      </defs>
      <use xlink:href="#CMSS17-47" transform="scale(0.996264)"/>
      <use xlink:href="#CMSS17-2e" transform="translate(62.458226 0) scale(0.996264)"/>
      <use xlink:href="#CMSS17-6d" transform="translate(88.48243 0) scale(0.996264)"/>
      <use xlink:href="#CMSS17-65" transform="translate(162.711685 0) scale(0.996264)"/>
      <use xlink:href="#CMSS17-61" transform="translate(204.350507 0) scale(0.996264)"/>
      <use xlink:href="#CMSS17-6e" transform="translate(249.272427 0) scale(0.996264)"/>
      <use xlink:href="#CMSS17-3a" transform="translate(297.477371 0) scale(0.996264)"/>
      <use xlink:href="#CMSS17-34" transform="translate(365.140382 0) scale(0.996264)"/>
      <use xlink:href="#CMSS17-31" transform="translate(411.984006 0) scale(0.996264)"/>
      <use xlink:href="#CMSS17-37" transform="translate(458.827629 0) scale(0.996264)"/>
      <use xlink:href="#CMSS17-2e" transform="translate(505.671253 0) scale(0.996264)"/>
      <use xlink:href="#CMSS17-38" transform="translate(531.695458 0) scale(0.996264)"/>
      <use xlink:href="#CMSS17-32" transform="translate(578.539081 0) scale(0.996264)"/>
      <use xlink:href="#CMSS17-6d" transform="translate(625.382705 0) scale(0.996264)"/>
      <use xlink:href="#CMSS17-73" transform="translate(699.611959 0) scale(0.996264)"/>
      <use xlink:href="#CMSS17-28" transform="translate(766.754614 0) scale(0.996264)"/>
      <use xlink:href="#CMSS17-33" transform="translate(803.188528 0) scale(0.996264)"/>
      <use xlink:href="#CMSS17-39" transform="translate(850.032152 0) scale(0.996264)"/>
      <use xlink:href="#CMSS17-32" transform="translate(896.875775 0) scale(0.996264)"/>
      <use xlink:href="#CMSS17-2e" transform="translate(943.719399 0) scale(0.996264)"/>
      <use xlink:href="#CMSS17-34" transform="translate(969.743604 0) scale(0.996264)"/>
      <use xlink:href="#CMSS17-38" transform="translate(1016.587227 0) scale(0.996264)"/>
      <use xlink:href="#CMSS17-2d" transform="translate(1063.430851 0) scale(0.996264)"/>
      <use xlink:href="#CMSS17-34" transform="translate(1094.659963 0) scale(0.996264)"/>
      <use xlink:href="#CMSS17-34" transform="translate(1141.503587 0) scale(0.996264)"/>
      <use xlink:href="#CMSS17-34" transform="translate(1188.347211 0) scale(0.996264)"/>
      <use xlink:href="#CMSS17-2e" transform="translate(1235.190834 0) scale(0.996264)"/>
      <use xlink:href="#CMSS17-38" transform="translate(1261.215039 0) scale(0.996264)"/>
      <use xlink:href="#CMSS17-30" transform="translate(1308.058662 0) scale(0.996264)"/>
      <use xlink:href="#CMSS17-29" transform="translate(1354.902286 0) scale(0.996264)"/>
     </g>
    </g>
    <g id="line2d_42">
     <path d="M 296.991257 30.159725 
L 302.991257 30.159725 
L 308.991257 30.159725 
" style="fill: none; stroke-dasharray: 0.8,1.32; stroke-dashoffset: 0; stroke: #d85128; stroke-opacity: 0.7; stroke-width: 0.8"/>
    </g>
    <g id="text_23">
     <!-- G.mean: 168.91ms (144.11-197.98) -->
     <g transform="translate(313.791257 32.259725) scale(0.06 -0.06)">
      <use xlink:href="#CMSS17-47" transform="scale(0.996264)"/>
      <use xlink:href="#CMSS17-2e" transform="translate(62.458226 0) scale(0.996264)"/>
      <use xlink:href="#CMSS17-6d" transform="translate(88.48243 0) scale(0.996264)"/>
      <use xlink:href="#CMSS17-65" transform="translate(162.711685 0) scale(0.996264)"/>
      <use xlink:href="#CMSS17-61" transform="translate(204.350507 0) scale(0.996264)"/>
      <use xlink:href="#CMSS17-6e" transform="translate(249.272427 0) scale(0.996264)"/>
      <use xlink:href="#CMSS17-3a" transform="translate(297.477371 0) scale(0.996264)"/>
      <use xlink:href="#CMSS17-31" transform="translate(365.140382 0) scale(0.996264)"/>
      <use xlink:href="#CMSS17-36" transform="translate(411.984006 0) scale(0.996264)"/>
      <use xlink:href="#CMSS17-38" transform="translate(458.827629 0) scale(0.996264)"/>
      <use xlink:href="#CMSS17-2e" transform="translate(505.671253 0) scale(0.996264)"/>
      <use xlink:href="#CMSS17-39" transform="translate(531.695458 0) scale(0.996264)"/>
      <use xlink:href="#CMSS17-31" transform="translate(578.539081 0) scale(0.996264)"/>
      <use xlink:href="#CMSS17-6d" transform="translate(625.382705 0) scale(0.996264)"/>
      <use xlink:href="#CMSS17-73" transform="translate(699.611959 0) scale(0.996264)"/>
      <use xlink:href="#CMSS17-28" transform="translate(766.754614 0) scale(0.996264)"/>
      <use xlink:href="#CMSS17-31" transform="translate(803.188528 0) scale(0.996264)"/>
      <use xlink:href="#CMSS17-34" transform="translate(850.032152 0) scale(0.996264)"/>
      <use xlink:href="#CMSS17-34" transform="translate(896.875775 0) scale(0.996264)"/>
      <use xlink:href="#CMSS17-2e" transform="translate(943.719399 0) scale(0.996264)"/>
      <use xlink:href="#CMSS17-31" transform="translate(969.743604 0) scale(0.996264)"/>
      <use xlink:href="#CMSS17-31" transform="translate(1016.587227 0) scale(0.996264)"/>
      <use xlink:href="#CMSS17-2d" transform="translate(1063.430851 0) scale(0.996264)"/>
      <use xlink:href="#CMSS17-31" transform="translate(1094.659963 0) scale(0.996264)"/>
      <use xlink:href="#CMSS17-39" transform="translate(1141.503587 0) scale(0.996264)"/>
      <use xlink:href="#CMSS17-37" transform="translate(1188.347211 0) scale(0.996264)"/>
      <use xlink:href="#CMSS17-2e" transform="translate(1235.190834 0) scale(0.996264)"/>
      <use xlink:href="#CMSS17-39" transform="translate(1261.215039 0) scale(0.996264)"/>
      <use xlink:href="#CMSS17-38" transform="translate(1308.058662 0) scale(0.996264)"/>
      <use xlink:href="#CMSS17-29" transform="translate(1354.902286 0) scale(0.996264)"/>
     </g>
    </g>
   </g>
  </g>
 </g>
 <defs>
  <clipPath id="p006be85027">
   <rect x="33.204495" y="46.345661" width="590.881724" height="60.208087"/>
  </clipPath>
 </defs>
</svg>
